ISO-10303-21;
HEADER;
/* Generated by software containing ST-Developer
 * from STEP Tools, Inc. (www.steptools.com) 
 */

FILE_DESCRIPTION(
/* description */ (''),
/* implementation_level */ '2;1');

FILE_NAME(
/* name */ 'Ball bearing structure.step',
/* time_stamp */ '2026-05-11T02:19:18-04:00',
/* author */ (''),
/* organization */ (''),
/* preprocessor_version */ 'ST-DEVELOPER v20.1',
/* originating_system */ 'Autodesk Translation Framework v15.8.0.0',
/* authorisation */ '');

FILE_SCHEMA (('AUTOMOTIVE_DESIGN { 1 0 10303 214 3 1 1 }'));
ENDSEC;

DATA;
#10=MECHANICAL_DESIGN_GEOMETRIC_PRESENTATION_REPRESENTATION('',(#13),#1017);
#11=SHAPE_REPRESENTATION_RELATIONSHIP('SRR','None',#1024,#12);
#12=ADVANCED_BREP_SHAPE_REPRESENTATION('',(#14),#1016);
#13=STYLED_ITEM('',(#1033),#14);
#14=MANIFOLD_SOLID_BREP('Body1',#619);
#15=FACE_BOUND('',#107,.T.);
#16=FACE_BOUND('',#108,.T.);
#17=FACE_BOUND('',#112,.T.);
#18=FACE_BOUND('',#113,.T.);
#19=FACE_BOUND('',#118,.T.);
#20=FACE_BOUND('',#119,.T.);
#21=FACE_BOUND('',#125,.T.);
#22=FACE_BOUND('',#126,.T.);
#23=FACE_BOUND('',#132,.T.);
#24=FACE_BOUND('',#133,.T.);
#25=FACE_BOUND('',#135,.T.);
#26=FACE_BOUND('',#136,.T.);
#27=FACE_BOUND('',#137,.T.);
#28=FACE_BOUND('',#138,.T.);
#29=FACE_BOUND('',#139,.T.);
#30=FACE_BOUND('',#140,.T.);
#31=FACE_BOUND('',#141,.T.);
#32=FACE_BOUND('',#142,.T.);
#33=FACE_BOUND('',#143,.T.);
#34=FACE_BOUND('',#144,.T.);
#35=CIRCLE('',#635,1.85);
#36=CIRCLE('',#636,1.85);
#37=CIRCLE('',#638,1.85);
#38=CIRCLE('',#639,1.85);
#39=CIRCLE('',#650,2.15);
#40=CIRCLE('',#651,2.15);
#41=CIRCLE('',#653,2.15);
#42=CIRCLE('',#654,2.15);
#43=CIRCLE('',#657,2.15);
#44=CIRCLE('',#658,2.15);
#45=CIRCLE('',#660,2.15);
#46=CIRCLE('',#661,2.15);
#47=CIRCLE('',#665,2.15);
#48=CIRCLE('',#666,2.15);
#49=CIRCLE('',#668,2.15);
#50=CIRCLE('',#669,2.15);
#51=CIRCLE('',#674,2.15);
#52=CIRCLE('',#675,2.15);
#53=CIRCLE('',#677,2.15);
#54=CIRCLE('',#678,2.15);
#55=CYLINDRICAL_SURFACE('',#634,1.85);
#56=CYLINDRICAL_SURFACE('',#637,1.85);
#57=CYLINDRICAL_SURFACE('',#649,2.15);
#58=CYLINDRICAL_SURFACE('',#652,2.15);
#59=CYLINDRICAL_SURFACE('',#656,2.15);
#60=CYLINDRICAL_SURFACE('',#659,2.15);
#61=CYLINDRICAL_SURFACE('',#664,2.15);
#62=CYLINDRICAL_SURFACE('',#667,2.15);
#63=CYLINDRICAL_SURFACE('',#673,2.15);
#64=CYLINDRICAL_SURFACE('',#676,2.15);
#65=FACE_OUTER_BOUND('',#95,.T.);
#66=FACE_OUTER_BOUND('',#96,.T.);
#67=FACE_OUTER_BOUND('',#97,.T.);
#68=FACE_OUTER_BOUND('',#98,.T.);
#69=FACE_OUTER_BOUND('',#99,.T.);
#70=FACE_OUTER_BOUND('',#100,.T.);
#71=FACE_OUTER_BOUND('',#101,.T.);
#72=FACE_OUTER_BOUND('',#102,.T.);
#73=FACE_OUTER_BOUND('',#103,.T.);
#74=FACE_OUTER_BOUND('',#104,.T.);
#75=FACE_OUTER_BOUND('',#105,.T.);
#76=FACE_OUTER_BOUND('',#106,.T.);
#77=FACE_OUTER_BOUND('',#109,.T.);
#78=FACE_OUTER_BOUND('',#110,.T.);
#79=FACE_OUTER_BOUND('',#111,.T.);
#80=FACE_OUTER_BOUND('',#114,.T.);
#81=FACE_OUTER_BOUND('',#115,.T.);
#82=FACE_OUTER_BOUND('',#116,.T.);
#83=FACE_OUTER_BOUND('',#117,.T.);
#84=FACE_OUTER_BOUND('',#120,.T.);
#85=FACE_OUTER_BOUND('',#121,.T.);
#86=FACE_OUTER_BOUND('',#122,.T.);
#87=FACE_OUTER_BOUND('',#123,.T.);
#88=FACE_OUTER_BOUND('',#124,.T.);
#89=FACE_OUTER_BOUND('',#127,.T.);
#90=FACE_OUTER_BOUND('',#128,.T.);
#91=FACE_OUTER_BOUND('',#129,.T.);
#92=FACE_OUTER_BOUND('',#130,.T.);
#93=FACE_OUTER_BOUND('',#131,.T.);
#94=FACE_OUTER_BOUND('',#134,.T.);
#95=EDGE_LOOP('',(#405,#406,#407,#408));
#96=EDGE_LOOP('',(#409,#410,#411,#412));
#97=EDGE_LOOP('',(#413,#414,#415,#416));
#98=EDGE_LOOP('',(#417,#418,#419,#420));
#99=EDGE_LOOP('',(#421,#422,#423,#424));
#100=EDGE_LOOP('',(#425,#426,#427,#428,#429,#430));
#101=EDGE_LOOP('',(#431,#432,#433,#434));
#102=EDGE_LOOP('',(#435,#436,#437,#438));
#103=EDGE_LOOP('',(#439,#440,#441,#442));
#104=EDGE_LOOP('',(#443,#444,#445,#446));
#105=EDGE_LOOP('',(#447,#448,#449,#450));
#106=EDGE_LOOP('',(#451,#452,#453,#454,#455,#456,#457,#458,#459,#460,#461,
#462));
#107=EDGE_LOOP('',(#463));
#108=EDGE_LOOP('',(#464));
#109=EDGE_LOOP('',(#465,#466,#467,#468));
#110=EDGE_LOOP('',(#469,#470,#471,#472));
#111=EDGE_LOOP('',(#473,#474,#475,#476));
#112=EDGE_LOOP('',(#477));
#113=EDGE_LOOP('',(#478));
#114=EDGE_LOOP('',(#479,#480,#481,#482));
#115=EDGE_LOOP('',(#483,#484,#485,#486));
#116=EDGE_LOOP('',(#487,#488,#489,#490,#491,#492,#493,#494));
#117=EDGE_LOOP('',(#495,#496,#497,#498));
#118=EDGE_LOOP('',(#499));
#119=EDGE_LOOP('',(#500));
#120=EDGE_LOOP('',(#501,#502,#503,#504));
#121=EDGE_LOOP('',(#505,#506,#507,#508));
#122=EDGE_LOOP('',(#509,#510,#511,#512,#513,#514,#515,#516));
#123=EDGE_LOOP('',(#517,#518,#519,#520));
#124=EDGE_LOOP('',(#521,#522,#523,#524));
#125=EDGE_LOOP('',(#525));
#126=EDGE_LOOP('',(#526));
#127=EDGE_LOOP('',(#527,#528,#529,#530));
#128=EDGE_LOOP('',(#531,#532,#533,#534));
#129=EDGE_LOOP('',(#535,#536,#537,#538));
#130=EDGE_LOOP('',(#539,#540,#541,#542,#543,#544,#545,#546));
#131=EDGE_LOOP('',(#547,#548,#549,#550));
#132=EDGE_LOOP('',(#551));
#133=EDGE_LOOP('',(#552));
#134=EDGE_LOOP('',(#553,#554,#555,#556,#557,#558));
#135=EDGE_LOOP('',(#559));
#136=EDGE_LOOP('',(#560));
#137=EDGE_LOOP('',(#561));
#138=EDGE_LOOP('',(#562));
#139=EDGE_LOOP('',(#563));
#140=EDGE_LOOP('',(#564));
#141=EDGE_LOOP('',(#565));
#142=EDGE_LOOP('',(#566));
#143=EDGE_LOOP('',(#567));
#144=EDGE_LOOP('',(#568));
#145=LINE('',#851,#207);
#146=LINE('',#853,#208);
#147=LINE('',#855,#209);
#148=LINE('',#856,#210);
#149=LINE('',#861,#211);
#150=LINE('',#867,#212);
#151=LINE('',#872,#213);
#152=LINE('',#874,#214);
#153=LINE('',#876,#215);
#154=LINE('',#877,#216);
#155=LINE('',#880,#217);
#156=LINE('',#882,#218);
#157=LINE('',#883,#219);
#158=LINE('',#887,#220);
#159=LINE('',#888,#221);
#160=LINE('',#890,#222);
#161=LINE('',#892,#223);
#162=LINE('',#893,#224);
#163=LINE('',#896,#225);
#164=LINE('',#898,#226);
#165=LINE('',#899,#227);
#166=LINE('',#902,#228);
#167=LINE('',#904,#229);
#168=LINE('',#905,#230);
#169=LINE('',#909,#231);
#170=LINE('',#911,#232);
#171=LINE('',#913,#233);
#172=LINE('',#914,#234);
#173=LINE('',#917,#235);
#174=LINE('',#919,#236);
#175=LINE('',#920,#237);
#176=LINE('',#923,#238);
#177=LINE('',#925,#239);
#178=LINE('',#926,#240);
#179=LINE('',#928,#241);
#180=LINE('',#929,#242);
#181=LINE('',#930,#243);
#182=LINE('',#935,#244);
#183=LINE('',#941,#245);
#184=LINE('',#945,#246);
#185=LINE('',#946,#247);
#186=LINE('',#951,#248);
#187=LINE('',#957,#249);
#188=LINE('',#962,#250);
#189=LINE('',#963,#251);
#190=LINE('',#965,#252);
#191=LINE('',#966,#253);
#192=LINE('',#968,#254);
#193=LINE('',#973,#255);
#194=LINE('',#979,#256);
#195=LINE('',#983,#257);
#196=LINE('',#985,#258);
#197=LINE('',#986,#259);
#198=LINE('',#988,#260);
#199=LINE('',#989,#261);
#200=LINE('',#995,#262);
#201=LINE('',#1001,#263);
#202=LINE('',#1005,#264);
#203=LINE('',#1007,#265);
#204=LINE('',#1008,#266);
#205=LINE('',#1010,#267);
#206=LINE('',#1011,#268);
#207=VECTOR('',#687,10.);
#208=VECTOR('',#688,10.);
#209=VECTOR('',#689,10.);
#210=VECTOR('',#690,10.);
#211=VECTOR('',#695,1.85);
#212=VECTOR('',#702,1.85);
#213=VECTOR('',#707,10.);
#214=VECTOR('',#708,10.);
#215=VECTOR('',#709,10.);
#216=VECTOR('',#710,10.);
#217=VECTOR('',#713,10.);
#218=VECTOR('',#714,10.);
#219=VECTOR('',#715,10.);
#220=VECTOR('',#718,10.);
#221=VECTOR('',#719,10.);
#222=VECTOR('',#720,10.);
#223=VECTOR('',#721,10.);
#224=VECTOR('',#722,10.);
#225=VECTOR('',#725,10.);
#226=VECTOR('',#726,10.);
#227=VECTOR('',#727,10.);
#228=VECTOR('',#730,10.);
#229=VECTOR('',#731,10.);
#230=VECTOR('',#732,10.);
#231=VECTOR('',#735,10.);
#232=VECTOR('',#736,10.);
#233=VECTOR('',#737,10.);
#234=VECTOR('',#738,10.);
#235=VECTOR('',#741,10.);
#236=VECTOR('',#742,10.);
#237=VECTOR('',#743,10.);
#238=VECTOR('',#746,10.);
#239=VECTOR('',#747,10.);
#240=VECTOR('',#748,10.);
#241=VECTOR('',#751,10.);
#242=VECTOR('',#752,10.);
#243=VECTOR('',#753,10.);
#244=VECTOR('',#758,2.15);
#245=VECTOR('',#765,2.15);
#246=VECTOR('',#770,10.);
#247=VECTOR('',#771,10.);
#248=VECTOR('',#776,2.15);
#249=VECTOR('',#783,2.15);
#250=VECTOR('',#788,10.);
#251=VECTOR('',#789,10.);
#252=VECTOR('',#790,10.);
#253=VECTOR('',#791,10.);
#254=VECTOR('',#794,10.);
#255=VECTOR('',#799,2.15);
#256=VECTOR('',#806,2.15);
#257=VECTOR('',#811,10.);
#258=VECTOR('',#812,10.);
#259=VECTOR('',#813,10.);
#260=VECTOR('',#816,10.);
#261=VECTOR('',#817,10.);
#262=VECTOR('',#824,2.15);
#263=VECTOR('',#831,2.15);
#264=VECTOR('',#836,10.);
#265=VECTOR('',#837,10.);
#266=VECTOR('',#838,10.);
#267=VECTOR('',#841,10.);
#268=VECTOR('',#842,10.);
#269=VERTEX_POINT('',#849);
#270=VERTEX_POINT('',#850);
#271=VERTEX_POINT('',#852);
#272=VERTEX_POINT('',#854);
#273=VERTEX_POINT('',#858);
#274=VERTEX_POINT('',#860);
#275=VERTEX_POINT('',#864);
#276=VERTEX_POINT('',#866);
#277=VERTEX_POINT('',#870);
#278=VERTEX_POINT('',#871);
#279=VERTEX_POINT('',#873);
#280=VERTEX_POINT('',#875);
#281=VERTEX_POINT('',#879);
#282=VERTEX_POINT('',#881);
#283=VERTEX_POINT('',#885);
#284=VERTEX_POINT('',#886);
#285=VERTEX_POINT('',#889);
#286=VERTEX_POINT('',#891);
#287=VERTEX_POINT('',#895);
#288=VERTEX_POINT('',#897);
#289=VERTEX_POINT('',#901);
#290=VERTEX_POINT('',#903);
#291=VERTEX_POINT('',#907);
#292=VERTEX_POINT('',#908);
#293=VERTEX_POINT('',#910);
#294=VERTEX_POINT('',#912);
#295=VERTEX_POINT('',#916);
#296=VERTEX_POINT('',#918);
#297=VERTEX_POINT('',#922);
#298=VERTEX_POINT('',#924);
#299=VERTEX_POINT('',#932);
#300=VERTEX_POINT('',#934);
#301=VERTEX_POINT('',#938);
#302=VERTEX_POINT('',#940);
#303=VERTEX_POINT('',#944);
#304=VERTEX_POINT('',#948);
#305=VERTEX_POINT('',#950);
#306=VERTEX_POINT('',#954);
#307=VERTEX_POINT('',#956);
#308=VERTEX_POINT('',#960);
#309=VERTEX_POINT('',#961);
#310=VERTEX_POINT('',#964);
#311=VERTEX_POINT('',#970);
#312=VERTEX_POINT('',#972);
#313=VERTEX_POINT('',#976);
#314=VERTEX_POINT('',#978);
#315=VERTEX_POINT('',#982);
#316=VERTEX_POINT('',#984);
#317=VERTEX_POINT('',#992);
#318=VERTEX_POINT('',#994);
#319=VERTEX_POINT('',#998);
#320=VERTEX_POINT('',#1000);
#321=VERTEX_POINT('',#1004);
#322=VERTEX_POINT('',#1006);
#323=EDGE_CURVE('',#269,#270,#145,.T.);
#324=EDGE_CURVE('',#269,#271,#146,.T.);
#325=EDGE_CURVE('',#272,#271,#147,.T.);
#326=EDGE_CURVE('',#270,#272,#148,.T.);
#327=EDGE_CURVE('',#273,#273,#35,.T.);
#328=EDGE_CURVE('',#273,#274,#149,.T.);
#329=EDGE_CURVE('',#274,#274,#36,.T.);
#330=EDGE_CURVE('',#275,#275,#37,.T.);
#331=EDGE_CURVE('',#275,#276,#150,.T.);
#332=EDGE_CURVE('',#276,#276,#38,.T.);
#333=EDGE_CURVE('',#277,#278,#151,.T.);
#334=EDGE_CURVE('',#277,#279,#152,.T.);
#335=EDGE_CURVE('',#280,#279,#153,.T.);
#336=EDGE_CURVE('',#278,#280,#154,.T.);
#337=EDGE_CURVE('',#278,#281,#155,.T.);
#338=EDGE_CURVE('',#282,#280,#156,.T.);
#339=EDGE_CURVE('',#281,#282,#157,.T.);
#340=EDGE_CURVE('',#283,#284,#158,.T.);
#341=EDGE_CURVE('',#283,#281,#159,.T.);
#342=EDGE_CURVE('',#285,#282,#160,.T.);
#343=EDGE_CURVE('',#286,#285,#161,.T.);
#344=EDGE_CURVE('',#284,#286,#162,.T.);
#345=EDGE_CURVE('',#286,#287,#163,.T.);
#346=EDGE_CURVE('',#288,#285,#164,.T.);
#347=EDGE_CURVE('',#287,#288,#165,.T.);
#348=EDGE_CURVE('',#287,#289,#166,.T.);
#349=EDGE_CURVE('',#290,#288,#167,.T.);
#350=EDGE_CURVE('',#289,#290,#168,.T.);
#351=EDGE_CURVE('',#291,#292,#169,.T.);
#352=EDGE_CURVE('',#291,#293,#170,.T.);
#353=EDGE_CURVE('',#294,#293,#171,.T.);
#354=EDGE_CURVE('',#292,#294,#172,.T.);
#355=EDGE_CURVE('',#292,#295,#173,.T.);
#356=EDGE_CURVE('',#296,#294,#174,.T.);
#357=EDGE_CURVE('',#295,#296,#175,.T.);
#358=EDGE_CURVE('',#297,#269,#176,.T.);
#359=EDGE_CURVE('',#297,#298,#177,.T.);
#360=EDGE_CURVE('',#271,#298,#178,.T.);
#361=EDGE_CURVE('',#298,#296,#179,.T.);
#362=EDGE_CURVE('',#293,#290,#180,.T.);
#363=EDGE_CURVE('',#279,#272,#181,.T.);
#364=EDGE_CURVE('',#299,#299,#39,.T.);
#365=EDGE_CURVE('',#299,#300,#182,.T.);
#366=EDGE_CURVE('',#300,#300,#40,.T.);
#367=EDGE_CURVE('',#301,#301,#41,.T.);
#368=EDGE_CURVE('',#301,#302,#183,.T.);
#369=EDGE_CURVE('',#302,#302,#42,.T.);
#370=EDGE_CURVE('',#303,#291,#184,.T.);
#371=EDGE_CURVE('',#295,#303,#185,.T.);
#372=EDGE_CURVE('',#304,#304,#43,.T.);
#373=EDGE_CURVE('',#304,#305,#186,.T.);
#374=EDGE_CURVE('',#305,#305,#44,.T.);
#375=EDGE_CURVE('',#306,#306,#45,.T.);
#376=EDGE_CURVE('',#306,#307,#187,.T.);
#377=EDGE_CURVE('',#307,#307,#46,.T.);
#378=EDGE_CURVE('',#308,#309,#188,.T.);
#379=EDGE_CURVE('',#308,#303,#189,.T.);
#380=EDGE_CURVE('',#310,#297,#190,.T.);
#381=EDGE_CURVE('',#309,#310,#191,.T.);
#382=EDGE_CURVE('',#270,#310,#192,.T.);
#383=EDGE_CURVE('',#311,#311,#47,.T.);
#384=EDGE_CURVE('',#311,#312,#193,.T.);
#385=EDGE_CURVE('',#312,#312,#48,.T.);
#386=EDGE_CURVE('',#313,#313,#49,.T.);
#387=EDGE_CURVE('',#313,#314,#194,.T.);
#388=EDGE_CURVE('',#314,#314,#50,.T.);
#389=EDGE_CURVE('',#315,#308,#195,.T.);
#390=EDGE_CURVE('',#315,#316,#196,.T.);
#391=EDGE_CURVE('',#289,#316,#197,.T.);
#392=EDGE_CURVE('',#284,#315,#198,.T.);
#393=EDGE_CURVE('',#316,#286,#199,.T.);
#394=EDGE_CURVE('',#317,#317,#51,.T.);
#395=EDGE_CURVE('',#317,#318,#200,.T.);
#396=EDGE_CURVE('',#318,#318,#52,.T.);
#397=EDGE_CURVE('',#319,#319,#53,.T.);
#398=EDGE_CURVE('',#319,#320,#201,.T.);
#399=EDGE_CURVE('',#320,#320,#54,.T.);
#400=EDGE_CURVE('',#321,#283,#202,.T.);
#401=EDGE_CURVE('',#321,#322,#203,.T.);
#402=EDGE_CURVE('',#281,#322,#204,.T.);
#403=EDGE_CURVE('',#309,#321,#205,.T.);
#404=EDGE_CURVE('',#322,#277,#206,.T.);
#405=ORIENTED_EDGE('',*,*,#323,.F.);
#406=ORIENTED_EDGE('',*,*,#324,.T.);
#407=ORIENTED_EDGE('',*,*,#325,.F.);
#408=ORIENTED_EDGE('',*,*,#326,.F.);
#409=ORIENTED_EDGE('',*,*,#327,.F.);
#410=ORIENTED_EDGE('',*,*,#328,.T.);
#411=ORIENTED_EDGE('',*,*,#329,.T.);
#412=ORIENTED_EDGE('',*,*,#328,.F.);
#413=ORIENTED_EDGE('',*,*,#330,.F.);
#414=ORIENTED_EDGE('',*,*,#331,.T.);
#415=ORIENTED_EDGE('',*,*,#332,.T.);
#416=ORIENTED_EDGE('',*,*,#331,.F.);
#417=ORIENTED_EDGE('',*,*,#333,.F.);
#418=ORIENTED_EDGE('',*,*,#334,.T.);
#419=ORIENTED_EDGE('',*,*,#335,.F.);
#420=ORIENTED_EDGE('',*,*,#336,.F.);
#421=ORIENTED_EDGE('',*,*,#337,.F.);
#422=ORIENTED_EDGE('',*,*,#336,.T.);
#423=ORIENTED_EDGE('',*,*,#338,.F.);
#424=ORIENTED_EDGE('',*,*,#339,.F.);
#425=ORIENTED_EDGE('',*,*,#340,.F.);
#426=ORIENTED_EDGE('',*,*,#341,.T.);
#427=ORIENTED_EDGE('',*,*,#339,.T.);
#428=ORIENTED_EDGE('',*,*,#342,.F.);
#429=ORIENTED_EDGE('',*,*,#343,.F.);
#430=ORIENTED_EDGE('',*,*,#344,.F.);
#431=ORIENTED_EDGE('',*,*,#345,.F.);
#432=ORIENTED_EDGE('',*,*,#343,.T.);
#433=ORIENTED_EDGE('',*,*,#346,.F.);
#434=ORIENTED_EDGE('',*,*,#347,.F.);
#435=ORIENTED_EDGE('',*,*,#348,.F.);
#436=ORIENTED_EDGE('',*,*,#347,.T.);
#437=ORIENTED_EDGE('',*,*,#349,.F.);
#438=ORIENTED_EDGE('',*,*,#350,.F.);
#439=ORIENTED_EDGE('',*,*,#351,.F.);
#440=ORIENTED_EDGE('',*,*,#352,.T.);
#441=ORIENTED_EDGE('',*,*,#353,.F.);
#442=ORIENTED_EDGE('',*,*,#354,.F.);
#443=ORIENTED_EDGE('',*,*,#355,.F.);
#444=ORIENTED_EDGE('',*,*,#354,.T.);
#445=ORIENTED_EDGE('',*,*,#356,.F.);
#446=ORIENTED_EDGE('',*,*,#357,.F.);
#447=ORIENTED_EDGE('',*,*,#358,.F.);
#448=ORIENTED_EDGE('',*,*,#359,.T.);
#449=ORIENTED_EDGE('',*,*,#360,.F.);
#450=ORIENTED_EDGE('',*,*,#324,.F.);
#451=ORIENTED_EDGE('',*,*,#325,.T.);
#452=ORIENTED_EDGE('',*,*,#360,.T.);
#453=ORIENTED_EDGE('',*,*,#361,.T.);
#454=ORIENTED_EDGE('',*,*,#356,.T.);
#455=ORIENTED_EDGE('',*,*,#353,.T.);
#456=ORIENTED_EDGE('',*,*,#362,.T.);
#457=ORIENTED_EDGE('',*,*,#349,.T.);
#458=ORIENTED_EDGE('',*,*,#346,.T.);
#459=ORIENTED_EDGE('',*,*,#342,.T.);
#460=ORIENTED_EDGE('',*,*,#338,.T.);
#461=ORIENTED_EDGE('',*,*,#335,.T.);
#462=ORIENTED_EDGE('',*,*,#363,.T.);
#463=ORIENTED_EDGE('',*,*,#330,.T.);
#464=ORIENTED_EDGE('',*,*,#327,.T.);
#465=ORIENTED_EDGE('',*,*,#364,.F.);
#466=ORIENTED_EDGE('',*,*,#365,.T.);
#467=ORIENTED_EDGE('',*,*,#366,.T.);
#468=ORIENTED_EDGE('',*,*,#365,.F.);
#469=ORIENTED_EDGE('',*,*,#367,.F.);
#470=ORIENTED_EDGE('',*,*,#368,.T.);
#471=ORIENTED_EDGE('',*,*,#369,.T.);
#472=ORIENTED_EDGE('',*,*,#368,.F.);
#473=ORIENTED_EDGE('',*,*,#370,.T.);
#474=ORIENTED_EDGE('',*,*,#351,.T.);
#475=ORIENTED_EDGE('',*,*,#355,.T.);
#476=ORIENTED_EDGE('',*,*,#371,.T.);
#477=ORIENTED_EDGE('',*,*,#367,.T.);
#478=ORIENTED_EDGE('',*,*,#364,.T.);
#479=ORIENTED_EDGE('',*,*,#372,.F.);
#480=ORIENTED_EDGE('',*,*,#373,.T.);
#481=ORIENTED_EDGE('',*,*,#374,.T.);
#482=ORIENTED_EDGE('',*,*,#373,.F.);
#483=ORIENTED_EDGE('',*,*,#375,.F.);
#484=ORIENTED_EDGE('',*,*,#376,.T.);
#485=ORIENTED_EDGE('',*,*,#377,.T.);
#486=ORIENTED_EDGE('',*,*,#376,.F.);
#487=ORIENTED_EDGE('',*,*,#378,.F.);
#488=ORIENTED_EDGE('',*,*,#379,.T.);
#489=ORIENTED_EDGE('',*,*,#371,.F.);
#490=ORIENTED_EDGE('',*,*,#357,.T.);
#491=ORIENTED_EDGE('',*,*,#361,.F.);
#492=ORIENTED_EDGE('',*,*,#359,.F.);
#493=ORIENTED_EDGE('',*,*,#380,.F.);
#494=ORIENTED_EDGE('',*,*,#381,.F.);
#495=ORIENTED_EDGE('',*,*,#380,.T.);
#496=ORIENTED_EDGE('',*,*,#358,.T.);
#497=ORIENTED_EDGE('',*,*,#323,.T.);
#498=ORIENTED_EDGE('',*,*,#382,.T.);
#499=ORIENTED_EDGE('',*,*,#375,.T.);
#500=ORIENTED_EDGE('',*,*,#372,.T.);
#501=ORIENTED_EDGE('',*,*,#383,.F.);
#502=ORIENTED_EDGE('',*,*,#384,.T.);
#503=ORIENTED_EDGE('',*,*,#385,.T.);
#504=ORIENTED_EDGE('',*,*,#384,.F.);
#505=ORIENTED_EDGE('',*,*,#386,.F.);
#506=ORIENTED_EDGE('',*,*,#387,.T.);
#507=ORIENTED_EDGE('',*,*,#388,.T.);
#508=ORIENTED_EDGE('',*,*,#387,.F.);
#509=ORIENTED_EDGE('',*,*,#389,.F.);
#510=ORIENTED_EDGE('',*,*,#390,.T.);
#511=ORIENTED_EDGE('',*,*,#391,.F.);
#512=ORIENTED_EDGE('',*,*,#350,.T.);
#513=ORIENTED_EDGE('',*,*,#362,.F.);
#514=ORIENTED_EDGE('',*,*,#352,.F.);
#515=ORIENTED_EDGE('',*,*,#370,.F.);
#516=ORIENTED_EDGE('',*,*,#379,.F.);
#517=ORIENTED_EDGE('',*,*,#392,.F.);
#518=ORIENTED_EDGE('',*,*,#344,.T.);
#519=ORIENTED_EDGE('',*,*,#393,.F.);
#520=ORIENTED_EDGE('',*,*,#390,.F.);
#521=ORIENTED_EDGE('',*,*,#393,.T.);
#522=ORIENTED_EDGE('',*,*,#345,.T.);
#523=ORIENTED_EDGE('',*,*,#348,.T.);
#524=ORIENTED_EDGE('',*,*,#391,.T.);
#525=ORIENTED_EDGE('',*,*,#386,.T.);
#526=ORIENTED_EDGE('',*,*,#383,.T.);
#527=ORIENTED_EDGE('',*,*,#394,.F.);
#528=ORIENTED_EDGE('',*,*,#395,.T.);
#529=ORIENTED_EDGE('',*,*,#396,.T.);
#530=ORIENTED_EDGE('',*,*,#395,.F.);
#531=ORIENTED_EDGE('',*,*,#397,.F.);
#532=ORIENTED_EDGE('',*,*,#398,.T.);
#533=ORIENTED_EDGE('',*,*,#399,.T.);
#534=ORIENTED_EDGE('',*,*,#398,.F.);
#535=ORIENTED_EDGE('',*,*,#400,.F.);
#536=ORIENTED_EDGE('',*,*,#401,.T.);
#537=ORIENTED_EDGE('',*,*,#402,.F.);
#538=ORIENTED_EDGE('',*,*,#341,.F.);
#539=ORIENTED_EDGE('',*,*,#403,.F.);
#540=ORIENTED_EDGE('',*,*,#381,.T.);
#541=ORIENTED_EDGE('',*,*,#382,.F.);
#542=ORIENTED_EDGE('',*,*,#326,.T.);
#543=ORIENTED_EDGE('',*,*,#363,.F.);
#544=ORIENTED_EDGE('',*,*,#334,.F.);
#545=ORIENTED_EDGE('',*,*,#404,.F.);
#546=ORIENTED_EDGE('',*,*,#401,.F.);
#547=ORIENTED_EDGE('',*,*,#404,.T.);
#548=ORIENTED_EDGE('',*,*,#333,.T.);
#549=ORIENTED_EDGE('',*,*,#337,.T.);
#550=ORIENTED_EDGE('',*,*,#402,.T.);
#551=ORIENTED_EDGE('',*,*,#397,.T.);
#552=ORIENTED_EDGE('',*,*,#394,.T.);
#553=ORIENTED_EDGE('',*,*,#403,.T.);
#554=ORIENTED_EDGE('',*,*,#400,.T.);
#555=ORIENTED_EDGE('',*,*,#340,.T.);
#556=ORIENTED_EDGE('',*,*,#392,.T.);
#557=ORIENTED_EDGE('',*,*,#389,.T.);
#558=ORIENTED_EDGE('',*,*,#378,.T.);
#559=ORIENTED_EDGE('',*,*,#385,.F.);
#560=ORIENTED_EDGE('',*,*,#388,.F.);
#561=ORIENTED_EDGE('',*,*,#366,.F.);
#562=ORIENTED_EDGE('',*,*,#369,.F.);
#563=ORIENTED_EDGE('',*,*,#332,.F.);
#564=ORIENTED_EDGE('',*,*,#329,.F.);
#565=ORIENTED_EDGE('',*,*,#377,.F.);
#566=ORIENTED_EDGE('',*,*,#374,.F.);
#567=ORIENTED_EDGE('',*,*,#399,.F.);
#568=ORIENTED_EDGE('',*,*,#396,.F.);
#569=PLANE('',#633);
#570=PLANE('',#640);
#571=PLANE('',#641);
#572=PLANE('',#642);
#573=PLANE('',#643);
#574=PLANE('',#644);
#575=PLANE('',#645);
#576=PLANE('',#646);
#577=PLANE('',#647);
#578=PLANE('',#648);
#579=PLANE('',#655);
#580=PLANE('',#662);
#581=PLANE('',#663);
#582=PLANE('',#670);
#583=PLANE('',#671);
#584=PLANE('',#672);
#585=PLANE('',#679);
#586=PLANE('',#680);
#587=PLANE('',#681);
#588=PLANE('',#682);
#589=ADVANCED_FACE('',(#65),#569,.T.);
#590=ADVANCED_FACE('',(#66),#55,.F.);
#591=ADVANCED_FACE('',(#67),#56,.F.);
#592=ADVANCED_FACE('',(#68),#570,.T.);
#593=ADVANCED_FACE('',(#69),#571,.T.);
#594=ADVANCED_FACE('',(#70),#572,.T.);
#595=ADVANCED_FACE('',(#71),#573,.T.);
#596=ADVANCED_FACE('',(#72),#574,.T.);
#597=ADVANCED_FACE('',(#73),#575,.T.);
#598=ADVANCED_FACE('',(#74),#576,.T.);
#599=ADVANCED_FACE('',(#75),#577,.T.);
#600=ADVANCED_FACE('',(#76,#15,#16),#578,.T.);
#601=ADVANCED_FACE('',(#77),#57,.F.);
#602=ADVANCED_FACE('',(#78),#58,.F.);
#603=ADVANCED_FACE('',(#79,#17,#18),#579,.T.);
#604=ADVANCED_FACE('',(#80),#59,.F.);
#605=ADVANCED_FACE('',(#81),#60,.F.);
#606=ADVANCED_FACE('',(#82),#580,.T.);
#607=ADVANCED_FACE('',(#83,#19,#20),#581,.T.);
#608=ADVANCED_FACE('',(#84),#61,.F.);
#609=ADVANCED_FACE('',(#85),#62,.F.);
#610=ADVANCED_FACE('',(#86),#582,.T.);
#611=ADVANCED_FACE('',(#87),#583,.T.);
#612=ADVANCED_FACE('',(#88,#21,#22),#584,.T.);
#613=ADVANCED_FACE('',(#89),#63,.F.);
#614=ADVANCED_FACE('',(#90),#64,.F.);
#615=ADVANCED_FACE('',(#91),#585,.T.);
#616=ADVANCED_FACE('',(#92),#586,.T.);
#617=ADVANCED_FACE('',(#93,#23,#24),#587,.T.);
#618=ADVANCED_FACE('',(#94,#25,#26,#27,#28,#29,#30,#31,#32,#33,#34),#588,
 .F.);
#619=CLOSED_SHELL('',(#589,#590,#591,#592,#593,#594,#595,#596,#597,#598,
#599,#600,#601,#602,#603,#604,#605,#606,#607,#608,#609,#610,#611,#612,#613,
#614,#615,#616,#617,#618));
#620=DERIVED_UNIT_ELEMENT(#622,1.);
#621=DERIVED_UNIT_ELEMENT(#1019,-3.);
#622=(
MASS_UNIT()
NAMED_UNIT(*)
SI_UNIT(.KILO.,.GRAM.)
);
#623=DERIVED_UNIT((#620,#621));
#624=MEASURE_REPRESENTATION_ITEM('density measure',
POSITIVE_RATIO_MEASURE(7850.),#623);
#625=PROPERTY_DEFINITION_REPRESENTATION(#630,#627);
#626=PROPERTY_DEFINITION_REPRESENTATION(#631,#628);
#627=REPRESENTATION('material name',(#629),#1016);
#628=REPRESENTATION('density',(#624),#1016);
#629=DESCRIPTIVE_REPRESENTATION_ITEM('Steel','Steel');
#630=PROPERTY_DEFINITION('material property','material name',#1026);
#631=PROPERTY_DEFINITION('material property','density of part',#1026);
#632=AXIS2_PLACEMENT_3D('',#847,#683,#684);
#633=AXIS2_PLACEMENT_3D('',#848,#685,#686);
#634=AXIS2_PLACEMENT_3D('',#857,#691,#692);
#635=AXIS2_PLACEMENT_3D('',#859,#693,#694);
#636=AXIS2_PLACEMENT_3D('',#862,#696,#697);
#637=AXIS2_PLACEMENT_3D('',#863,#698,#699);
#638=AXIS2_PLACEMENT_3D('',#865,#700,#701);
#639=AXIS2_PLACEMENT_3D('',#868,#703,#704);
#640=AXIS2_PLACEMENT_3D('',#869,#705,#706);
#641=AXIS2_PLACEMENT_3D('',#878,#711,#712);
#642=AXIS2_PLACEMENT_3D('',#884,#716,#717);
#643=AXIS2_PLACEMENT_3D('',#894,#723,#724);
#644=AXIS2_PLACEMENT_3D('',#900,#728,#729);
#645=AXIS2_PLACEMENT_3D('',#906,#733,#734);
#646=AXIS2_PLACEMENT_3D('',#915,#739,#740);
#647=AXIS2_PLACEMENT_3D('',#921,#744,#745);
#648=AXIS2_PLACEMENT_3D('',#927,#749,#750);
#649=AXIS2_PLACEMENT_3D('',#931,#754,#755);
#650=AXIS2_PLACEMENT_3D('',#933,#756,#757);
#651=AXIS2_PLACEMENT_3D('',#936,#759,#760);
#652=AXIS2_PLACEMENT_3D('',#937,#761,#762);
#653=AXIS2_PLACEMENT_3D('',#939,#763,#764);
#654=AXIS2_PLACEMENT_3D('',#942,#766,#767);
#655=AXIS2_PLACEMENT_3D('',#943,#768,#769);
#656=AXIS2_PLACEMENT_3D('',#947,#772,#773);
#657=AXIS2_PLACEMENT_3D('',#949,#774,#775);
#658=AXIS2_PLACEMENT_3D('',#952,#777,#778);
#659=AXIS2_PLACEMENT_3D('',#953,#779,#780);
#660=AXIS2_PLACEMENT_3D('',#955,#781,#782);
#661=AXIS2_PLACEMENT_3D('',#958,#784,#785);
#662=AXIS2_PLACEMENT_3D('',#959,#786,#787);
#663=AXIS2_PLACEMENT_3D('',#967,#792,#793);
#664=AXIS2_PLACEMENT_3D('',#969,#795,#796);
#665=AXIS2_PLACEMENT_3D('',#971,#797,#798);
#666=AXIS2_PLACEMENT_3D('',#974,#800,#801);
#667=AXIS2_PLACEMENT_3D('',#975,#802,#803);
#668=AXIS2_PLACEMENT_3D('',#977,#804,#805);
#669=AXIS2_PLACEMENT_3D('',#980,#807,#808);
#670=AXIS2_PLACEMENT_3D('',#981,#809,#810);
#671=AXIS2_PLACEMENT_3D('',#987,#814,#815);
#672=AXIS2_PLACEMENT_3D('',#990,#818,#819);
#673=AXIS2_PLACEMENT_3D('',#991,#820,#821);
#674=AXIS2_PLACEMENT_3D('',#993,#822,#823);
#675=AXIS2_PLACEMENT_3D('',#996,#825,#826);
#676=AXIS2_PLACEMENT_3D('',#997,#827,#828);
#677=AXIS2_PLACEMENT_3D('',#999,#829,#830);
#678=AXIS2_PLACEMENT_3D('',#1002,#832,#833);
#679=AXIS2_PLACEMENT_3D('',#1003,#834,#835);
#680=AXIS2_PLACEMENT_3D('',#1009,#839,#840);
#681=AXIS2_PLACEMENT_3D('',#1012,#843,#844);
#682=AXIS2_PLACEMENT_3D('',#1013,#845,#846);
#683=DIRECTION('axis',(0.,0.,1.));
#684=DIRECTION('refdir',(1.,0.,0.));
#685=DIRECTION('center_axis',(1.11022302462509E-17,0.,1.));
#686=DIRECTION('ref_axis',(1.,0.,-1.11022302462509E-17));
#687=DIRECTION('',(-1.,0.,1.11022302462509E-17));
#688=DIRECTION('',(0.,1.,0.));
#689=DIRECTION('',(1.,0.,-1.11022302462509E-17));
#690=DIRECTION('',(0.,1.,0.));
#691=DIRECTION('center_axis',(0.,1.,0.));
#692=DIRECTION('ref_axis',(1.,0.,0.));
#693=DIRECTION('center_axis',(0.,-1.,0.));
#694=DIRECTION('ref_axis',(1.,0.,0.));
#695=DIRECTION('',(0.,-1.,0.));
#696=DIRECTION('center_axis',(0.,-1.,0.));
#697=DIRECTION('ref_axis',(1.,0.,0.));
#698=DIRECTION('center_axis',(0.,1.,0.));
#699=DIRECTION('ref_axis',(1.,0.,0.));
#700=DIRECTION('center_axis',(0.,-1.,0.));
#701=DIRECTION('ref_axis',(1.,0.,0.));
#702=DIRECTION('',(0.,-1.,0.));
#703=DIRECTION('center_axis',(0.,-1.,0.));
#704=DIRECTION('ref_axis',(1.,0.,0.));
#705=DIRECTION('center_axis',(0.,0.,-1.));
#706=DIRECTION('ref_axis',(-1.,0.,0.));
#707=DIRECTION('',(1.,0.,0.));
#708=DIRECTION('',(0.,1.,0.));
#709=DIRECTION('',(-1.,0.,0.));
#710=DIRECTION('',(0.,1.,0.));
#711=DIRECTION('center_axis',(-1.,0.,0.));
#712=DIRECTION('ref_axis',(0.,0.,1.));
#713=DIRECTION('',(0.,0.,-1.));
#714=DIRECTION('',(0.,0.,1.));
#715=DIRECTION('',(0.,1.,0.));
#716=DIRECTION('center_axis',(-2.68221538313185E-8,0.,-1.));
#717=DIRECTION('ref_axis',(-1.,0.,2.68221538313185E-8));
#718=DIRECTION('',(1.,0.,-2.68221538313185E-8));
#719=DIRECTION('',(0.,1.,0.));
#720=DIRECTION('',(-1.,0.,2.68221538313185E-8));
#721=DIRECTION('',(0.,1.,0.));
#722=DIRECTION('',(0.,1.,0.));
#723=DIRECTION('center_axis',(1.,0.,-6.16790562343283E-17));
#724=DIRECTION('ref_axis',(-6.16790562343283E-17,0.,-1.));
#725=DIRECTION('',(6.16790562343283E-17,0.,1.));
#726=DIRECTION('',(-6.16790562343283E-17,0.,-1.));
#727=DIRECTION('',(0.,1.,0.));
#728=DIRECTION('center_axis',(0.,0.,-1.));
#729=DIRECTION('ref_axis',(-1.,0.,0.));
#730=DIRECTION('',(1.,0.,0.));
#731=DIRECTION('',(-1.,0.,0.));
#732=DIRECTION('',(0.,1.,0.));
#733=DIRECTION('center_axis',(1.11022302462509E-17,0.,1.));
#734=DIRECTION('ref_axis',(1.,0.,-1.11022302462509E-17));
#735=DIRECTION('',(-1.,0.,1.11022302462509E-17));
#736=DIRECTION('',(0.,1.,0.));
#737=DIRECTION('',(1.,0.,-1.11022302462509E-17));
#738=DIRECTION('',(0.,1.,0.));
#739=DIRECTION('center_axis',(1.,0.,-6.16790562343283E-17));
#740=DIRECTION('ref_axis',(-6.16790562343283E-17,0.,-1.));
#741=DIRECTION('',(6.16790562343283E-17,0.,1.));
#742=DIRECTION('',(-6.16790562343283E-17,0.,-1.));
#743=DIRECTION('',(0.,1.,0.));
#744=DIRECTION('center_axis',(-1.,0.,0.));
#745=DIRECTION('ref_axis',(0.,0.,1.));
#746=DIRECTION('',(0.,0.,-1.));
#747=DIRECTION('',(0.,1.,0.));
#748=DIRECTION('',(0.,0.,1.));
#749=DIRECTION('center_axis',(0.,1.,0.));
#750=DIRECTION('ref_axis',(1.,0.,0.));
#751=DIRECTION('',(1.,0.,-2.22044604925031E-16));
#752=DIRECTION('',(0.,0.,-1.));
#753=DIRECTION('',(-8.88178419700125E-16,0.,1.));
#754=DIRECTION('center_axis',(0.,1.,0.));
#755=DIRECTION('ref_axis',(1.,0.,0.));
#756=DIRECTION('center_axis',(0.,-1.,0.));
#757=DIRECTION('ref_axis',(1.,0.,0.));
#758=DIRECTION('',(0.,-1.,0.));
#759=DIRECTION('center_axis',(0.,-1.,0.));
#760=DIRECTION('ref_axis',(1.,0.,0.));
#761=DIRECTION('center_axis',(0.,1.,0.));
#762=DIRECTION('ref_axis',(1.,0.,0.));
#763=DIRECTION('center_axis',(0.,-1.,0.));
#764=DIRECTION('ref_axis',(1.,0.,0.));
#765=DIRECTION('',(0.,-1.,0.));
#766=DIRECTION('center_axis',(0.,-1.,0.));
#767=DIRECTION('ref_axis',(1.,0.,0.));
#768=DIRECTION('center_axis',(0.,1.,0.));
#769=DIRECTION('ref_axis',(1.,0.,0.));
#770=DIRECTION('',(2.46716227694479E-16,0.,-1.));
#771=DIRECTION('',(1.,0.,-4.44089209850063E-17));
#772=DIRECTION('center_axis',(0.,1.,0.));
#773=DIRECTION('ref_axis',(1.,0.,0.));
#774=DIRECTION('center_axis',(0.,-1.,0.));
#775=DIRECTION('ref_axis',(1.,0.,0.));
#776=DIRECTION('',(0.,-1.,0.));
#777=DIRECTION('center_axis',(0.,-1.,0.));
#778=DIRECTION('ref_axis',(1.,0.,0.));
#779=DIRECTION('center_axis',(0.,1.,0.));
#780=DIRECTION('ref_axis',(1.,0.,0.));
#781=DIRECTION('center_axis',(0.,-1.,0.));
#782=DIRECTION('ref_axis',(1.,0.,0.));
#783=DIRECTION('',(0.,-1.,0.));
#784=DIRECTION('center_axis',(0.,-1.,0.));
#785=DIRECTION('ref_axis',(1.,0.,0.));
#786=DIRECTION('center_axis',(4.44089209850063E-17,0.,1.));
#787=DIRECTION('ref_axis',(1.,0.,-4.44089209850063E-17));
#788=DIRECTION('',(-1.,0.,4.44089209850063E-17));
#789=DIRECTION('',(0.,1.,0.));
#790=DIRECTION('',(1.,0.,-4.44089209850063E-17));
#791=DIRECTION('',(0.,1.,0.));
#792=DIRECTION('center_axis',(0.,1.,0.));
#793=DIRECTION('ref_axis',(1.,0.,0.));
#794=DIRECTION('',(-1.2335811384724E-16,0.,1.));
#795=DIRECTION('center_axis',(0.,1.,0.));
#796=DIRECTION('ref_axis',(1.,0.,0.));
#797=DIRECTION('center_axis',(0.,-1.,0.));
#798=DIRECTION('ref_axis',(1.,0.,0.));
#799=DIRECTION('',(0.,-1.,0.));
#800=DIRECTION('center_axis',(0.,-1.,0.));
#801=DIRECTION('ref_axis',(1.,0.,0.));
#802=DIRECTION('center_axis',(0.,1.,0.));
#803=DIRECTION('ref_axis',(1.,0.,0.));
#804=DIRECTION('center_axis',(0.,-1.,0.));
#805=DIRECTION('ref_axis',(1.,0.,0.));
#806=DIRECTION('',(0.,-1.,0.));
#807=DIRECTION('center_axis',(0.,-1.,0.));
#808=DIRECTION('ref_axis',(1.,0.,0.));
#809=DIRECTION('center_axis',(1.,0.,2.46716227694479E-16));
#810=DIRECTION('ref_axis',(2.46716227694479E-16,0.,-1.));
#811=DIRECTION('',(-2.46716227694479E-16,0.,1.));
#812=DIRECTION('',(0.,1.,0.));
#813=DIRECTION('',(2.46716227694479E-16,0.,-1.));
#814=DIRECTION('center_axis',(-1.33226762955019E-16,0.,-1.));
#815=DIRECTION('ref_axis',(-1.,0.,1.33226762955019E-16));
#816=DIRECTION('',(1.,0.,-1.33226762955019E-16));
#817=DIRECTION('',(-1.,0.,1.33226762955019E-16));
#818=DIRECTION('center_axis',(0.,1.,0.));
#819=DIRECTION('ref_axis',(1.,0.,0.));
#820=DIRECTION('center_axis',(0.,1.,0.));
#821=DIRECTION('ref_axis',(1.,0.,0.));
#822=DIRECTION('center_axis',(0.,-1.,0.));
#823=DIRECTION('ref_axis',(1.,0.,0.));
#824=DIRECTION('',(0.,-1.,0.));
#825=DIRECTION('center_axis',(0.,-1.,0.));
#826=DIRECTION('ref_axis',(1.,0.,0.));
#827=DIRECTION('center_axis',(0.,1.,0.));
#828=DIRECTION('ref_axis',(1.,0.,0.));
#829=DIRECTION('center_axis',(0.,-1.,0.));
#830=DIRECTION('ref_axis',(1.,0.,0.));
#831=DIRECTION('',(0.,-1.,0.));
#832=DIRECTION('center_axis',(0.,-1.,0.));
#833=DIRECTION('ref_axis',(1.,0.,0.));
#834=DIRECTION('center_axis',(-1.33226762955019E-16,0.,-1.));
#835=DIRECTION('ref_axis',(-1.,0.,1.33226762955019E-16));
#836=DIRECTION('',(1.,0.,-1.33226762955019E-16));
#837=DIRECTION('',(0.,1.,0.));
#838=DIRECTION('',(-1.,0.,1.33226762955019E-16));
#839=DIRECTION('center_axis',(-1.,0.,-1.2335811384724E-16));
#840=DIRECTION('ref_axis',(-1.2335811384724E-16,0.,1.));
#841=DIRECTION('',(1.2335811384724E-16,0.,-1.));
#842=DIRECTION('',(-1.2335811384724E-16,0.,1.));
#843=DIRECTION('center_axis',(0.,1.,0.));
#844=DIRECTION('ref_axis',(1.,0.,0.));
#845=DIRECTION('center_axis',(0.,1.,0.));
#846=DIRECTION('ref_axis',(1.,0.,0.));
#847=CARTESIAN_POINT('',(0.,0.,0.));
#848=CARTESIAN_POINT('Origin',(-25.0000000000016,0.,2.5));
#849=CARTESIAN_POINT('',(-4.99999998137224,5.,2.5));
#850=CARTESIAN_POINT('',(-25.0000000000016,5.,2.5));
#851=CARTESIAN_POINT('',(25.0000000000016,5.,2.5));
#852=CARTESIAN_POINT('',(-4.99999998137224,64.,2.5));
#853=CARTESIAN_POINT('',(-4.99999998137224,0.,2.5));
#854=CARTESIAN_POINT('',(-25.0000000000016,64.,2.5));
#855=CARTESIAN_POINT('',(25.0000000000016,64.,2.5));
#856=CARTESIAN_POINT('',(-25.0000000000016,0.,2.5));
#857=CARTESIAN_POINT('Origin',(19.5,0.,-7.92603509491058E-13));
#858=CARTESIAN_POINT('',(17.65,64.,-7.92376949833216E-13));
#859=CARTESIAN_POINT('Origin',(19.5,64.,-7.92603509491058E-13));
#860=CARTESIAN_POINT('',(17.65,0.,-7.92376949833216E-13));
#861=CARTESIAN_POINT('',(17.65,0.,-7.92376949833216E-13));
#862=CARTESIAN_POINT('Origin',(19.5,0.,-7.92603509491058E-13));
#863=CARTESIAN_POINT('Origin',(-19.5,0.,7.92603509491058E-13));
#864=CARTESIAN_POINT('',(-21.35,64.,7.928300691489E-13));
#865=CARTESIAN_POINT('Origin',(-19.5,64.,7.92603509491058E-13));
#866=CARTESIAN_POINT('',(-21.35,0.,7.928300691489E-13));
#867=CARTESIAN_POINT('',(-21.35,0.,7.928300691489E-13));
#868=CARTESIAN_POINT('Origin',(-19.5,0.,7.92603509491058E-13));
#869=CARTESIAN_POINT('Origin',(-4.99999998137224,0.,-2.5));
#870=CARTESIAN_POINT('',(-25.0000000000016,5.,-2.5));
#871=CARTESIAN_POINT('',(-4.99999998137224,5.,-2.5));
#872=CARTESIAN_POINT('',(-25.0000000000016,5.,-2.5));
#873=CARTESIAN_POINT('',(-25.0000000000016,64.,-2.5));
#874=CARTESIAN_POINT('',(-25.0000000000016,0.,-2.5));
#875=CARTESIAN_POINT('',(-4.99999998137224,64.,-2.5));
#876=CARTESIAN_POINT('',(-25.0000000000016,64.,-2.5));
#877=CARTESIAN_POINT('',(-4.99999998137224,0.,-2.5));
#878=CARTESIAN_POINT('Origin',(-4.99999998137224,0.,-17.9999999999994));
#879=CARTESIAN_POINT('',(-4.99999998137224,5.,-17.9999999999994));
#880=CARTESIAN_POINT('',(-4.99999998137224,5.,18.0000001340955));
#881=CARTESIAN_POINT('',(-4.99999998137224,64.,-17.9999999999994));
#882=CARTESIAN_POINT('',(-4.99999998137224,64.,18.0000001340955));
#883=CARTESIAN_POINT('',(-4.99999998137224,0.,-17.9999999999994));
#884=CARTESIAN_POINT('Origin',(5.00000001862776,0.,-18.0000002682209));
#885=CARTESIAN_POINT('',(-4.99999998137224,0.,-17.9999999999994));
#886=CARTESIAN_POINT('',(5.00000001862776,0.,-18.0000002682209));
#887=CARTESIAN_POINT('',(-4.99999998137224,0.,-17.9999999999994));
#888=CARTESIAN_POINT('',(-4.99999998137224,0.,-17.9999999999994));
#889=CARTESIAN_POINT('',(5.00000001862776,64.,-18.0000002682209));
#890=CARTESIAN_POINT('',(-4.99999998137224,64.,-17.9999999999994));
#891=CARTESIAN_POINT('',(5.00000001862776,5.,-18.0000002682209));
#892=CARTESIAN_POINT('',(5.00000001862776,0.,-18.0000002682209));
#893=CARTESIAN_POINT('',(5.00000001862776,0.,-18.0000002682209));
#894=CARTESIAN_POINT('Origin',(5.00000001862776,0.,-2.5));
#895=CARTESIAN_POINT('',(5.00000001862776,5.,-2.5));
#896=CARTESIAN_POINT('',(5.00000001862776,5.,-18.0000002682209));
#897=CARTESIAN_POINT('',(5.00000001862776,64.,-2.5));
#898=CARTESIAN_POINT('',(5.00000001862776,64.,-18.0000002682209));
#899=CARTESIAN_POINT('',(5.00000001862776,0.,-2.5));
#900=CARTESIAN_POINT('Origin',(25.0000000000016,0.,-2.5));
#901=CARTESIAN_POINT('',(25.0000000000016,5.,-2.5));
#902=CARTESIAN_POINT('',(-25.0000000000016,5.,-2.5));
#903=CARTESIAN_POINT('',(25.0000000000016,64.,-2.5));
#904=CARTESIAN_POINT('',(-25.0000000000016,64.,-2.5));
#905=CARTESIAN_POINT('',(25.0000000000016,0.,-2.5));
#906=CARTESIAN_POINT('Origin',(5.00000001862776,0.,2.5));
#907=CARTESIAN_POINT('',(25.0000000000016,5.,2.5));
#908=CARTESIAN_POINT('',(5.00000001862776,5.,2.5));
#909=CARTESIAN_POINT('',(25.0000000000016,5.,2.5));
#910=CARTESIAN_POINT('',(25.0000000000016,64.,2.5));
#911=CARTESIAN_POINT('',(25.0000000000016,0.,2.5));
#912=CARTESIAN_POINT('',(5.00000001862776,64.,2.5));
#913=CARTESIAN_POINT('',(25.0000000000016,64.,2.5));
#914=CARTESIAN_POINT('',(5.00000001862776,0.,2.5));
#915=CARTESIAN_POINT('Origin',(5.00000001862776,0.,18.0000001340955));
#916=CARTESIAN_POINT('',(5.00000001862776,5.,18.0000001340955));
#917=CARTESIAN_POINT('',(5.00000001862776,5.,-18.0000002682209));
#918=CARTESIAN_POINT('',(5.00000001862776,64.,18.0000001340955));
#919=CARTESIAN_POINT('',(5.00000001862776,64.,-18.0000002682209));
#920=CARTESIAN_POINT('',(5.00000001862776,0.,18.0000001340955));
#921=CARTESIAN_POINT('Origin',(-4.99999998137224,0.,2.5));
#922=CARTESIAN_POINT('',(-4.99999998137224,5.,18.0000001340955));
#923=CARTESIAN_POINT('',(-4.99999998137224,5.,18.0000001340955));
#924=CARTESIAN_POINT('',(-4.99999998137224,64.,18.0000001340955));
#925=CARTESIAN_POINT('',(-4.99999998137224,0.,18.0000001340955));
#926=CARTESIAN_POINT('',(-4.99999998137224,64.,18.0000001340955));
#927=CARTESIAN_POINT('Origin',(-4.44089209850063E-15,64.,-6.7062724262712E-8));
#928=CARTESIAN_POINT('',(5.00000001862776,64.,18.0000001340955));
#929=CARTESIAN_POINT('',(25.0000000000016,64.,-2.5));
#930=CARTESIAN_POINT('',(-25.0000000000016,64.,2.5));
#931=CARTESIAN_POINT('Origin',(17.5000000000012,0.,15.0000000000001));
#932=CARTESIAN_POINT('',(15.3500000000012,5.,15.0000000000001));
#933=CARTESIAN_POINT('Origin',(17.5000000000012,5.,15.0000000000001));
#934=CARTESIAN_POINT('',(15.3500000000012,0.,15.0000000000001));
#935=CARTESIAN_POINT('',(15.3500000000012,0.,15.0000000000001));
#936=CARTESIAN_POINT('Origin',(17.5000000000012,0.,15.0000000000001));
#937=CARTESIAN_POINT('Origin',(17.5000000000004,0.,5.0000000000001));
#938=CARTESIAN_POINT('',(15.3500000000004,5.,5.0000000000001));
#939=CARTESIAN_POINT('Origin',(17.5000000000004,5.,5.0000000000001));
#940=CARTESIAN_POINT('',(15.3500000000004,0.,5.0000000000001));
#941=CARTESIAN_POINT('',(15.3500000000004,0.,5.0000000000001));
#942=CARTESIAN_POINT('Origin',(17.5000000000004,0.,5.0000000000001));
#943=CARTESIAN_POINT('Origin',(15.0000000093147,5.,10.2500000670477));
#944=CARTESIAN_POINT('',(24.9999999999984,5.,18.0000000000006));
#945=CARTESIAN_POINT('',(24.9999999999984,5.,-17.9999999999994));
#946=CARTESIAN_POINT('',(24.9999999999984,5.,18.0000000000006));
#947=CARTESIAN_POINT('Origin',(-17.4999999999988,0.,14.9999999999999));
#948=CARTESIAN_POINT('',(-19.6499999999988,5.,14.9999999999999));
#949=CARTESIAN_POINT('Origin',(-17.4999999999988,5.,14.9999999999999));
#950=CARTESIAN_POINT('',(-19.6499999999988,0.,14.9999999999999));
#951=CARTESIAN_POINT('',(-19.6499999999988,0.,14.9999999999999));
#952=CARTESIAN_POINT('Origin',(-17.4999999999988,0.,14.9999999999999));
#953=CARTESIAN_POINT('Origin',(-17.4999999999996,0.,4.9999999999999));
#954=CARTESIAN_POINT('',(-19.6499999999996,5.,4.9999999999999));
#955=CARTESIAN_POINT('Origin',(-17.4999999999996,5.,4.9999999999999));
#956=CARTESIAN_POINT('',(-19.6499999999996,0.,4.9999999999999));
#957=CARTESIAN_POINT('',(-19.6499999999996,0.,4.9999999999999));
#958=CARTESIAN_POINT('Origin',(-17.4999999999996,0.,4.9999999999999));
#959=CARTESIAN_POINT('Origin',(-25.0000000000016,0.,18.0000000000006));
#960=CARTESIAN_POINT('',(24.9999999999984,0.,18.0000000000006));
#961=CARTESIAN_POINT('',(-25.0000000000016,0.,18.0000000000006));
#962=CARTESIAN_POINT('',(24.9999999999984,0.,18.0000000000006));
#963=CARTESIAN_POINT('',(24.9999999999984,0.,18.0000000000006));
#964=CARTESIAN_POINT('',(-25.0000000000016,5.,18.0000000000006));
#965=CARTESIAN_POINT('',(24.9999999999984,5.,18.0000000000006));
#966=CARTESIAN_POINT('',(-25.0000000000016,0.,18.0000000000006));
#967=CARTESIAN_POINT('Origin',(-14.9999999906869,5.,10.2500000670477));
#968=CARTESIAN_POINT('',(-25.0000000000016,5.,18.0000000000006));
#969=CARTESIAN_POINT('Origin',(17.5,0.,-5.00000000000152));
#970=CARTESIAN_POINT('',(15.35,5.,-5.00000000000152));
#971=CARTESIAN_POINT('Origin',(17.5,5.,-5.00000000000152));
#972=CARTESIAN_POINT('',(15.35,0.,-5.00000000000152));
#973=CARTESIAN_POINT('',(15.35,0.,-5.00000000000152));
#974=CARTESIAN_POINT('Origin',(17.5,0.,-5.00000000000152));
#975=CARTESIAN_POINT('Origin',(17.5,0.,-15.0000000000015));
#976=CARTESIAN_POINT('',(15.35,5.,-15.0000000000015));
#977=CARTESIAN_POINT('Origin',(17.5,5.,-15.0000000000015));
#978=CARTESIAN_POINT('',(15.35,0.,-15.0000000000015));
#979=CARTESIAN_POINT('',(15.35,0.,-15.0000000000015));
#980=CARTESIAN_POINT('Origin',(17.5,0.,-15.0000000000015));
#981=CARTESIAN_POINT('Origin',(24.9999999999984,0.,-2.5));
#982=CARTESIAN_POINT('',(24.9999999999984,0.,-17.9999999999994));
#983=CARTESIAN_POINT('',(24.9999999999984,0.,-17.9999999999994));
#984=CARTESIAN_POINT('',(24.9999999999984,5.,-17.9999999999994));
#985=CARTESIAN_POINT('',(24.9999999999984,0.,-17.9999999999994));
#986=CARTESIAN_POINT('',(24.9999999999984,5.,-17.9999999999994));
#987=CARTESIAN_POINT('Origin',(24.9999999999984,0.,-17.9999999999994));
#988=CARTESIAN_POINT('',(-25.0000000000016,0.,-17.9999999999994));
#989=CARTESIAN_POINT('',(-25.0000000000016,5.,-17.9999999999994));
#990=CARTESIAN_POINT('Origin',(15.0000000093147,5.,-10.2500001341105));
#991=CARTESIAN_POINT('Origin',(-17.5,0.,-14.9999999999985));
#992=CARTESIAN_POINT('',(-19.65,5.,-14.9999999999985));
#993=CARTESIAN_POINT('Origin',(-17.5,5.,-14.9999999999985));
#994=CARTESIAN_POINT('',(-19.65,0.,-14.9999999999985));
#995=CARTESIAN_POINT('',(-19.65,0.,-14.9999999999985));
#996=CARTESIAN_POINT('Origin',(-17.5,0.,-14.9999999999985));
#997=CARTESIAN_POINT('Origin',(-17.5,0.,-4.99999999999848));
#998=CARTESIAN_POINT('',(-19.65,5.,-4.99999999999848));
#999=CARTESIAN_POINT('Origin',(-17.5,5.,-4.99999999999848));
#1000=CARTESIAN_POINT('',(-19.65,0.,-4.99999999999848));
#1001=CARTESIAN_POINT('',(-19.65,0.,-4.99999999999848));
#1002=CARTESIAN_POINT('Origin',(-17.5,0.,-4.99999999999848));
#1003=CARTESIAN_POINT('Origin',(-4.99999998137224,0.,-17.9999999999994));
#1004=CARTESIAN_POINT('',(-25.0000000000016,0.,-17.9999999999994));
#1005=CARTESIAN_POINT('',(-25.0000000000016,0.,-17.9999999999994));
#1006=CARTESIAN_POINT('',(-25.0000000000016,5.,-17.9999999999994));
#1007=CARTESIAN_POINT('',(-25.0000000000016,0.,-17.9999999999994));
#1008=CARTESIAN_POINT('',(-25.0000000000016,5.,-17.9999999999994));
#1009=CARTESIAN_POINT('Origin',(-25.0000000000016,0.,-17.9999999999994));
#1010=CARTESIAN_POINT('',(-25.0000000000016,0.,18.0000000000006));
#1011=CARTESIAN_POINT('',(-25.0000000000016,5.,18.0000000000006));
#1012=CARTESIAN_POINT('Origin',(-14.9999999906869,5.,-10.2499999999997));
#1013=CARTESIAN_POINT('Origin',(-14.9999999906869,0.,-10.2499999999997));
#1014=UNCERTAINTY_MEASURE_WITH_UNIT(LENGTH_MEASURE(0.01),#1018,
'DISTANCE_ACCURACY_VALUE',
'Maximum model space distance between geometric entities at asserted c
onnectivities');
#1015=UNCERTAINTY_MEASURE_WITH_UNIT(LENGTH_MEASURE(0.01),#1018,
'DISTANCE_ACCURACY_VALUE',
'Maximum model space distance between geometric entities at asserted c
onnectivities');
#1016=(
GEOMETRIC_REPRESENTATION_CONTEXT(3)
GLOBAL_UNCERTAINTY_ASSIGNED_CONTEXT((#1014))
GLOBAL_UNIT_ASSIGNED_CONTEXT((#1018,#1020,#1021))
REPRESENTATION_CONTEXT('','3D')
);
#1017=(
GEOMETRIC_REPRESENTATION_CONTEXT(3)
GLOBAL_UNCERTAINTY_ASSIGNED_CONTEXT((#1015))
GLOBAL_UNIT_ASSIGNED_CONTEXT((#1018,#1020,#1021))
REPRESENTATION_CONTEXT('','3D')
);
#1018=(
LENGTH_UNIT()
NAMED_UNIT(*)
SI_UNIT(.MILLI.,.METRE.)
);
#1019=(
LENGTH_UNIT()
NAMED_UNIT(*)
SI_UNIT($,.METRE.)
);
#1020=(
NAMED_UNIT(*)
PLANE_ANGLE_UNIT()
SI_UNIT($,.RADIAN.)
);
#1021=(
NAMED_UNIT(*)
SI_UNIT($,.STERADIAN.)
SOLID_ANGLE_UNIT()
);
#1022=SHAPE_DEFINITION_REPRESENTATION(#1023,#1024);
#1023=PRODUCT_DEFINITION_SHAPE('',$,#1026);
#1024=SHAPE_REPRESENTATION('',(#632),#1016);
#1025=PRODUCT_DEFINITION_CONTEXT('part definition',#1030,'design');
#1026=PRODUCT_DEFINITION('2026-05-11-01-31-32-018',
'Ball bearing structure',#1027,#1025);
#1027=PRODUCT_DEFINITION_FORMATION('',$,#1032);
#1028=PRODUCT_RELATED_PRODUCT_CATEGORY('Ball bearing structure',
'Ball bearing structure',(#1032));
#1029=APPLICATION_PROTOCOL_DEFINITION('international standard',
'automotive_design',2009,#1030);
#1030=APPLICATION_CONTEXT(
'Core Data for Automotive Mechanical Design Process');
#1031=PRODUCT_CONTEXT('part definition',#1030,'mechanical');
#1032=PRODUCT('2026-05-11-01-31-32-018','Ball bearing structure',$,(#1031));
#1033=PRESENTATION_STYLE_ASSIGNMENT((#1034));
#1034=SURFACE_STYLE_USAGE(.BOTH.,#1035);
#1035=SURFACE_SIDE_STYLE('',(#1036));
#1036=SURFACE_STYLE_FILL_AREA(#1037);
#1037=FILL_AREA_STYLE('Steel - Satin',(#1038));
#1038=FILL_AREA_STYLE_COLOUR('Steel - Satin',#1039);
#1039=COLOUR_RGB('Steel - Satin',0.627450980392157,0.627450980392157,0.627450980392157);
ENDSEC;
END-ISO-10303-21;
