ISO-10303-21;
HEADER;
/* Generated by software containing ST-Developer
 * from STEP Tools, Inc. (www.steptools.com) 
 */

FILE_DESCRIPTION(
/* description */ (''),
/* implementation_level */ '2;1');

FILE_NAME(
/* name */ 'Stepperobot battery holder.step',
/* time_stamp */ '2026-05-10T23:49:43-04:00',
/* author */ (''),
/* organization */ (''),
/* preprocessor_version */ 'ST-DEVELOPER v20.1',
/* originating_system */ 'Autodesk Translation Framework v15.8.0.0',
/* authorisation */ '');

FILE_SCHEMA (('AUTOMOTIVE_DESIGN { 1 0 10303 214 3 1 1 }'));
ENDSEC;

DATA;
#10=MECHANICAL_DESIGN_GEOMETRIC_PRESENTATION_REPRESENTATION('',(#13),#2137);
#11=SHAPE_REPRESENTATION_RELATIONSHIP('SRR','None',#2144,#12);
#12=ADVANCED_BREP_SHAPE_REPRESENTATION('',(#14),#2136);
#13=STYLED_ITEM('',(#2153),#14);
#14=MANIFOLD_SOLID_BREP('Body1',#1337);
#15=FACE_BOUND('',#193,.T.);
#16=FACE_BOUND('',#195,.T.);
#17=FACE_BOUND('',#196,.T.);
#18=FACE_BOUND('',#197,.T.);
#19=FACE_BOUND('',#198,.T.);
#20=FACE_BOUND('',#199,.T.);
#21=FACE_BOUND('',#200,.T.);
#22=FACE_BOUND('',#201,.T.);
#23=FACE_BOUND('',#202,.T.);
#24=FACE_BOUND('',#205,.T.);
#25=FACE_BOUND('',#206,.T.);
#26=FACE_BOUND('',#207,.T.);
#27=FACE_BOUND('',#208,.T.);
#28=FACE_BOUND('',#211,.T.);
#29=FACE_BOUND('',#214,.T.);
#30=FACE_BOUND('',#215,.T.);
#31=FACE_BOUND('',#216,.T.);
#32=FACE_BOUND('',#217,.T.);
#33=FACE_BOUND('',#219,.T.);
#34=FACE_BOUND('',#221,.T.);
#35=FACE_BOUND('',#223,.T.);
#36=FACE_BOUND('',#224,.T.);
#37=FACE_BOUND('',#225,.T.);
#38=FACE_BOUND('',#226,.T.);
#39=FACE_BOUND('',#228,.T.);
#40=FACE_BOUND('',#229,.T.);
#41=FACE_BOUND('',#230,.T.);
#42=FACE_BOUND('',#231,.T.);
#43=FACE_BOUND('',#233,.T.);
#44=FACE_BOUND('',#243,.T.);
#45=FACE_BOUND('',#244,.T.);
#46=FACE_BOUND('',#245,.T.);
#47=FACE_BOUND('',#246,.T.);
#48=FACE_BOUND('',#247,.T.);
#49=FACE_BOUND('',#248,.T.);
#50=FACE_BOUND('',#249,.T.);
#51=FACE_BOUND('',#250,.T.);
#52=CIRCLE('',#1392,3.);
#53=CIRCLE('',#1393,3.);
#54=CIRCLE('',#1396,3.);
#55=CIRCLE('',#1397,3.);
#56=CIRCLE('',#1398,3.);
#57=CIRCLE('',#1399,2.15);
#58=CIRCLE('',#1400,2.15);
#59=CIRCLE('',#1401,2.15);
#60=CIRCLE('',#1402,2.15);
#61=CIRCLE('',#1403,2.15);
#62=CIRCLE('',#1404,2.15);
#63=CIRCLE('',#1405,2.15);
#64=CIRCLE('',#1406,2.15);
#65=CIRCLE('',#1408,3.);
#66=CIRCLE('',#1411,3.);
#67=CIRCLE('',#1414,3.);
#68=CIRCLE('',#1422,2.15);
#69=CIRCLE('',#1424,2.15);
#70=CIRCLE('',#1426,2.15);
#71=CIRCLE('',#1428,2.15);
#72=CIRCLE('',#1430,2.15);
#73=CIRCLE('',#1432,2.15);
#74=CIRCLE('',#1434,2.15);
#75=CIRCLE('',#1436,2.15);
#76=CYLINDRICAL_SURFACE('',#1391,3.);
#77=CYLINDRICAL_SURFACE('',#1407,3.);
#78=CYLINDRICAL_SURFACE('',#1410,3.);
#79=CYLINDRICAL_SURFACE('',#1413,3.);
#80=CYLINDRICAL_SURFACE('',#1421,2.15);
#81=CYLINDRICAL_SURFACE('',#1423,2.15);
#82=CYLINDRICAL_SURFACE('',#1425,2.15);
#83=CYLINDRICAL_SURFACE('',#1427,2.15);
#84=CYLINDRICAL_SURFACE('',#1429,2.15);
#85=CYLINDRICAL_SURFACE('',#1431,2.15);
#86=CYLINDRICAL_SURFACE('',#1433,2.15);
#87=CYLINDRICAL_SURFACE('',#1435,2.15);
#88=FACE_OUTER_BOUND('',#151,.T.);
#89=FACE_OUTER_BOUND('',#152,.T.);
#90=FACE_OUTER_BOUND('',#153,.T.);
#91=FACE_OUTER_BOUND('',#154,.T.);
#92=FACE_OUTER_BOUND('',#155,.T.);
#93=FACE_OUTER_BOUND('',#156,.T.);
#94=FACE_OUTER_BOUND('',#157,.T.);
#95=FACE_OUTER_BOUND('',#158,.T.);
#96=FACE_OUTER_BOUND('',#159,.T.);
#97=FACE_OUTER_BOUND('',#160,.T.);
#98=FACE_OUTER_BOUND('',#161,.T.);
#99=FACE_OUTER_BOUND('',#162,.T.);
#100=FACE_OUTER_BOUND('',#163,.T.);
#101=FACE_OUTER_BOUND('',#164,.T.);
#102=FACE_OUTER_BOUND('',#165,.T.);
#103=FACE_OUTER_BOUND('',#166,.T.);
#104=FACE_OUTER_BOUND('',#167,.T.);
#105=FACE_OUTER_BOUND('',#168,.T.);
#106=FACE_OUTER_BOUND('',#169,.T.);
#107=FACE_OUTER_BOUND('',#170,.T.);
#108=FACE_OUTER_BOUND('',#171,.T.);
#109=FACE_OUTER_BOUND('',#172,.T.);
#110=FACE_OUTER_BOUND('',#173,.T.);
#111=FACE_OUTER_BOUND('',#174,.T.);
#112=FACE_OUTER_BOUND('',#175,.T.);
#113=FACE_OUTER_BOUND('',#176,.T.);
#114=FACE_OUTER_BOUND('',#177,.T.);
#115=FACE_OUTER_BOUND('',#178,.T.);
#116=FACE_OUTER_BOUND('',#179,.T.);
#117=FACE_OUTER_BOUND('',#180,.T.);
#118=FACE_OUTER_BOUND('',#181,.T.);
#119=FACE_OUTER_BOUND('',#182,.T.);
#120=FACE_OUTER_BOUND('',#183,.T.);
#121=FACE_OUTER_BOUND('',#184,.T.);
#122=FACE_OUTER_BOUND('',#185,.T.);
#123=FACE_OUTER_BOUND('',#186,.T.);
#124=FACE_OUTER_BOUND('',#187,.T.);
#125=FACE_OUTER_BOUND('',#188,.T.);
#126=FACE_OUTER_BOUND('',#189,.T.);
#127=FACE_OUTER_BOUND('',#190,.T.);
#128=FACE_OUTER_BOUND('',#191,.T.);
#129=FACE_OUTER_BOUND('',#192,.T.);
#130=FACE_OUTER_BOUND('',#194,.T.);
#131=FACE_OUTER_BOUND('',#203,.T.);
#132=FACE_OUTER_BOUND('',#204,.T.);
#133=FACE_OUTER_BOUND('',#209,.T.);
#134=FACE_OUTER_BOUND('',#210,.T.);
#135=FACE_OUTER_BOUND('',#212,.T.);
#136=FACE_OUTER_BOUND('',#213,.T.);
#137=FACE_OUTER_BOUND('',#218,.T.);
#138=FACE_OUTER_BOUND('',#220,.T.);
#139=FACE_OUTER_BOUND('',#222,.T.);
#140=FACE_OUTER_BOUND('',#227,.T.);
#141=FACE_OUTER_BOUND('',#232,.T.);
#142=FACE_OUTER_BOUND('',#234,.T.);
#143=FACE_OUTER_BOUND('',#235,.T.);
#144=FACE_OUTER_BOUND('',#236,.T.);
#145=FACE_OUTER_BOUND('',#237,.T.);
#146=FACE_OUTER_BOUND('',#238,.T.);
#147=FACE_OUTER_BOUND('',#239,.T.);
#148=FACE_OUTER_BOUND('',#240,.T.);
#149=FACE_OUTER_BOUND('',#241,.T.);
#150=FACE_OUTER_BOUND('',#242,.T.);
#151=EDGE_LOOP('',(#863,#864,#865,#866));
#152=EDGE_LOOP('',(#867,#868,#869,#870));
#153=EDGE_LOOP('',(#871,#872,#873,#874));
#154=EDGE_LOOP('',(#875,#876,#877,#878));
#155=EDGE_LOOP('',(#879,#880,#881,#882));
#156=EDGE_LOOP('',(#883,#884,#885,#886));
#157=EDGE_LOOP('',(#887,#888,#889,#890));
#158=EDGE_LOOP('',(#891,#892,#893,#894));
#159=EDGE_LOOP('',(#895,#896,#897,#898));
#160=EDGE_LOOP('',(#899,#900,#901,#902));
#161=EDGE_LOOP('',(#903,#904,#905,#906));
#162=EDGE_LOOP('',(#907,#908,#909,#910));
#163=EDGE_LOOP('',(#911,#912,#913,#914));
#164=EDGE_LOOP('',(#915,#916,#917,#918));
#165=EDGE_LOOP('',(#919,#920,#921,#922));
#166=EDGE_LOOP('',(#923,#924,#925,#926));
#167=EDGE_LOOP('',(#927,#928,#929,#930));
#168=EDGE_LOOP('',(#931,#932,#933,#934));
#169=EDGE_LOOP('',(#935,#936,#937,#938));
#170=EDGE_LOOP('',(#939,#940,#941,#942));
#171=EDGE_LOOP('',(#943,#944,#945,#946));
#172=EDGE_LOOP('',(#947,#948,#949,#950));
#173=EDGE_LOOP('',(#951,#952,#953,#954));
#174=EDGE_LOOP('',(#955,#956,#957,#958));
#175=EDGE_LOOP('',(#959,#960,#961,#962));
#176=EDGE_LOOP('',(#963,#964,#965,#966));
#177=EDGE_LOOP('',(#967,#968,#969,#970));
#178=EDGE_LOOP('',(#971,#972,#973,#974));
#179=EDGE_LOOP('',(#975,#976,#977,#978));
#180=EDGE_LOOP('',(#979,#980,#981,#982));
#181=EDGE_LOOP('',(#983,#984,#985,#986));
#182=EDGE_LOOP('',(#987,#988,#989,#990));
#183=EDGE_LOOP('',(#991,#992,#993,#994));
#184=EDGE_LOOP('',(#995,#996,#997,#998));
#185=EDGE_LOOP('',(#999,#1000,#1001,#1002));
#186=EDGE_LOOP('',(#1003,#1004,#1005,#1006));
#187=EDGE_LOOP('',(#1007,#1008,#1009,#1010));
#188=EDGE_LOOP('',(#1011,#1012,#1013,#1014));
#189=EDGE_LOOP('',(#1015,#1016,#1017,#1018));
#190=EDGE_LOOP('',(#1019,#1020,#1021,#1022));
#191=EDGE_LOOP('',(#1023,#1024,#1025,#1026));
#192=EDGE_LOOP('',(#1027,#1028,#1029,#1030));
#193=EDGE_LOOP('',(#1031,#1032,#1033,#1034));
#194=EDGE_LOOP('',(#1035,#1036,#1037,#1038,#1039,#1040,#1041,#1042));
#195=EDGE_LOOP('',(#1043));
#196=EDGE_LOOP('',(#1044));
#197=EDGE_LOOP('',(#1045));
#198=EDGE_LOOP('',(#1046));
#199=EDGE_LOOP('',(#1047));
#200=EDGE_LOOP('',(#1048));
#201=EDGE_LOOP('',(#1049));
#202=EDGE_LOOP('',(#1050));
#203=EDGE_LOOP('',(#1051,#1052,#1053,#1054));
#204=EDGE_LOOP('',(#1055,#1056,#1057,#1058));
#205=EDGE_LOOP('',(#1059,#1060,#1061,#1062));
#206=EDGE_LOOP('',(#1063,#1064,#1065,#1066));
#207=EDGE_LOOP('',(#1067,#1068,#1069,#1070));
#208=EDGE_LOOP('',(#1071,#1072,#1073,#1074));
#209=EDGE_LOOP('',(#1075,#1076,#1077,#1078));
#210=EDGE_LOOP('',(#1079,#1080,#1081,#1082));
#211=EDGE_LOOP('',(#1083,#1084,#1085,#1086));
#212=EDGE_LOOP('',(#1087,#1088,#1089,#1090));
#213=EDGE_LOOP('',(#1091,#1092,#1093,#1094));
#214=EDGE_LOOP('',(#1095,#1096,#1097,#1098));
#215=EDGE_LOOP('',(#1099,#1100,#1101,#1102));
#216=EDGE_LOOP('',(#1103,#1104,#1105,#1106));
#217=EDGE_LOOP('',(#1107,#1108,#1109,#1110));
#218=EDGE_LOOP('',(#1111,#1112,#1113,#1114));
#219=EDGE_LOOP('',(#1115,#1116,#1117,#1118));
#220=EDGE_LOOP('',(#1119,#1120,#1121,#1122));
#221=EDGE_LOOP('',(#1123,#1124,#1125,#1126));
#222=EDGE_LOOP('',(#1127,#1128,#1129,#1130));
#223=EDGE_LOOP('',(#1131,#1132,#1133,#1134));
#224=EDGE_LOOP('',(#1135,#1136,#1137,#1138));
#225=EDGE_LOOP('',(#1139,#1140,#1141,#1142));
#226=EDGE_LOOP('',(#1143,#1144,#1145,#1146));
#227=EDGE_LOOP('',(#1147,#1148,#1149,#1150));
#228=EDGE_LOOP('',(#1151,#1152,#1153,#1154));
#229=EDGE_LOOP('',(#1155,#1156,#1157,#1158));
#230=EDGE_LOOP('',(#1159,#1160,#1161,#1162));
#231=EDGE_LOOP('',(#1163,#1164,#1165,#1166));
#232=EDGE_LOOP('',(#1167,#1168,#1169,#1170,#1171,#1172,#1173,#1174));
#233=EDGE_LOOP('',(#1175,#1176,#1177,#1178));
#234=EDGE_LOOP('',(#1179,#1180,#1181,#1182));
#235=EDGE_LOOP('',(#1183,#1184,#1185,#1186));
#236=EDGE_LOOP('',(#1187,#1188,#1189,#1190));
#237=EDGE_LOOP('',(#1191,#1192,#1193,#1194));
#238=EDGE_LOOP('',(#1195,#1196,#1197,#1198));
#239=EDGE_LOOP('',(#1199,#1200,#1201,#1202));
#240=EDGE_LOOP('',(#1203,#1204,#1205,#1206));
#241=EDGE_LOOP('',(#1207,#1208,#1209,#1210));
#242=EDGE_LOOP('',(#1211,#1212,#1213,#1214));
#243=EDGE_LOOP('',(#1215));
#244=EDGE_LOOP('',(#1216));
#245=EDGE_LOOP('',(#1217));
#246=EDGE_LOOP('',(#1218));
#247=EDGE_LOOP('',(#1219));
#248=EDGE_LOOP('',(#1220));
#249=EDGE_LOOP('',(#1221));
#250=EDGE_LOOP('',(#1222));
#251=LINE('',#1774,#407);
#252=LINE('',#1776,#408);
#253=LINE('',#1778,#409);
#254=LINE('',#1779,#410);
#255=LINE('',#1783,#411);
#256=LINE('',#1785,#412);
#257=LINE('',#1787,#413);
#258=LINE('',#1788,#414);
#259=LINE('',#1791,#415);
#260=LINE('',#1793,#416);
#261=LINE('',#1794,#417);
#262=LINE('',#1797,#418);
#263=LINE('',#1799,#419);
#264=LINE('',#1800,#420);
#265=LINE('',#1803,#421);
#266=LINE('',#1805,#422);
#267=LINE('',#1806,#423);
#268=LINE('',#1808,#424);
#269=LINE('',#1809,#425);
#270=LINE('',#1812,#426);
#271=LINE('',#1814,#427);
#272=LINE('',#1815,#428);
#273=LINE('',#1817,#429);
#274=LINE('',#1818,#430);
#275=LINE('',#1822,#431);
#276=LINE('',#1824,#432);
#277=LINE('',#1826,#433);
#278=LINE('',#1827,#434);
#279=LINE('',#1831,#435);
#280=LINE('',#1833,#436);
#281=LINE('',#1835,#437);
#282=LINE('',#1836,#438);
#283=LINE('',#1839,#439);
#284=LINE('',#1841,#440);
#285=LINE('',#1842,#441);
#286=LINE('',#1845,#442);
#287=LINE('',#1847,#443);
#288=LINE('',#1848,#444);
#289=LINE('',#1851,#445);
#290=LINE('',#1853,#446);
#291=LINE('',#1854,#447);
#292=LINE('',#1856,#448);
#293=LINE('',#1857,#449);
#294=LINE('',#1860,#450);
#295=LINE('',#1862,#451);
#296=LINE('',#1863,#452);
#297=LINE('',#1865,#453);
#298=LINE('',#1866,#454);
#299=LINE('',#1870,#455);
#300=LINE('',#1872,#456);
#301=LINE('',#1874,#457);
#302=LINE('',#1875,#458);
#303=LINE('',#1879,#459);
#304=LINE('',#1881,#460);
#305=LINE('',#1883,#461);
#306=LINE('',#1884,#462);
#307=LINE('',#1887,#463);
#308=LINE('',#1889,#464);
#309=LINE('',#1890,#465);
#310=LINE('',#1893,#466);
#311=LINE('',#1895,#467);
#312=LINE('',#1896,#468);
#313=LINE('',#1899,#469);
#314=LINE('',#1901,#470);
#315=LINE('',#1902,#471);
#316=LINE('',#1904,#472);
#317=LINE('',#1905,#473);
#318=LINE('',#1908,#474);
#319=LINE('',#1910,#475);
#320=LINE('',#1911,#476);
#321=LINE('',#1913,#477);
#322=LINE('',#1914,#478);
#323=LINE('',#1918,#479);
#324=LINE('',#1920,#480);
#325=LINE('',#1922,#481);
#326=LINE('',#1923,#482);
#327=LINE('',#1927,#483);
#328=LINE('',#1929,#484);
#329=LINE('',#1931,#485);
#330=LINE('',#1932,#486);
#331=LINE('',#1935,#487);
#332=LINE('',#1937,#488);
#333=LINE('',#1938,#489);
#334=LINE('',#1941,#490);
#335=LINE('',#1943,#491);
#336=LINE('',#1944,#492);
#337=LINE('',#1947,#493);
#338=LINE('',#1949,#494);
#339=LINE('',#1950,#495);
#340=LINE('',#1952,#496);
#341=LINE('',#1953,#497);
#342=LINE('',#1956,#498);
#343=LINE('',#1958,#499);
#344=LINE('',#1959,#500);
#345=LINE('',#1961,#501);
#346=LINE('',#1962,#502);
#347=LINE('',#1966,#503);
#348=LINE('',#1968,#504);
#349=LINE('',#1970,#505);
#350=LINE('',#1971,#506);
#351=LINE('',#1975,#507);
#352=LINE('',#1977,#508);
#353=LINE('',#1979,#509);
#354=LINE('',#1980,#510);
#355=LINE('',#1983,#511);
#356=LINE('',#1985,#512);
#357=LINE('',#1986,#513);
#358=LINE('',#1989,#514);
#359=LINE('',#1991,#515);
#360=LINE('',#1992,#516);
#361=LINE('',#1995,#517);
#362=LINE('',#1997,#518);
#363=LINE('',#1998,#519);
#364=LINE('',#2000,#520);
#365=LINE('',#2001,#521);
#366=LINE('',#2004,#522);
#367=LINE('',#2006,#523);
#368=LINE('',#2007,#524);
#369=LINE('',#2009,#525);
#370=LINE('',#2010,#526);
#371=LINE('',#2016,#527);
#372=LINE('',#2019,#528);
#373=LINE('',#2022,#529);
#374=LINE('',#2024,#530);
#375=LINE('',#2025,#531);
#376=LINE('',#2028,#532);
#377=LINE('',#2032,#533);
#378=LINE('',#2036,#534);
#379=LINE('',#2057,#535);
#380=LINE('',#2060,#536);
#381=LINE('',#2061,#537);
#382=LINE('',#2065,#538);
#383=LINE('',#2068,#539);
#384=LINE('',#2069,#540);
#385=LINE('',#2073,#541);
#386=LINE('',#2077,#542);
#387=LINE('',#2079,#543);
#388=LINE('',#2081,#544);
#389=LINE('',#2082,#545);
#390=LINE('',#2085,#546);
#391=LINE('',#2087,#547);
#392=LINE('',#2088,#548);
#393=LINE('',#2091,#549);
#394=LINE('',#2093,#550);
#395=LINE('',#2094,#551);
#396=LINE('',#2096,#552);
#397=LINE('',#2097,#553);
#398=LINE('',#2099,#554);
#399=LINE('',#2104,#555);
#400=LINE('',#2108,#556);
#401=LINE('',#2112,#557);
#402=LINE('',#2116,#558);
#403=LINE('',#2120,#559);
#404=LINE('',#2124,#560);
#405=LINE('',#2128,#561);
#406=LINE('',#2132,#562);
#407=VECTOR('',#1442,10.);
#408=VECTOR('',#1443,10.);
#409=VECTOR('',#1444,10.);
#410=VECTOR('',#1445,10.);
#411=VECTOR('',#1448,10.);
#412=VECTOR('',#1449,10.);
#413=VECTOR('',#1450,10.);
#414=VECTOR('',#1451,10.);
#415=VECTOR('',#1454,10.);
#416=VECTOR('',#1455,10.);
#417=VECTOR('',#1456,10.);
#418=VECTOR('',#1459,10.);
#419=VECTOR('',#1460,10.);
#420=VECTOR('',#1461,10.);
#421=VECTOR('',#1464,10.);
#422=VECTOR('',#1465,10.);
#423=VECTOR('',#1466,10.);
#424=VECTOR('',#1469,10.);
#425=VECTOR('',#1470,10.);
#426=VECTOR('',#1473,10.);
#427=VECTOR('',#1474,10.);
#428=VECTOR('',#1475,10.);
#429=VECTOR('',#1478,10.);
#430=VECTOR('',#1479,10.);
#431=VECTOR('',#1482,10.);
#432=VECTOR('',#1483,10.);
#433=VECTOR('',#1484,10.);
#434=VECTOR('',#1485,10.);
#435=VECTOR('',#1488,10.);
#436=VECTOR('',#1489,10.);
#437=VECTOR('',#1490,10.);
#438=VECTOR('',#1491,10.);
#439=VECTOR('',#1494,10.);
#440=VECTOR('',#1495,10.);
#441=VECTOR('',#1496,10.);
#442=VECTOR('',#1499,10.);
#443=VECTOR('',#1500,10.);
#444=VECTOR('',#1501,10.);
#445=VECTOR('',#1504,10.);
#446=VECTOR('',#1505,10.);
#447=VECTOR('',#1506,10.);
#448=VECTOR('',#1509,10.);
#449=VECTOR('',#1510,10.);
#450=VECTOR('',#1513,10.);
#451=VECTOR('',#1514,10.);
#452=VECTOR('',#1515,10.);
#453=VECTOR('',#1518,10.);
#454=VECTOR('',#1519,10.);
#455=VECTOR('',#1522,10.);
#456=VECTOR('',#1523,10.);
#457=VECTOR('',#1524,10.);
#458=VECTOR('',#1525,10.);
#459=VECTOR('',#1528,10.);
#460=VECTOR('',#1529,10.);
#461=VECTOR('',#1530,10.);
#462=VECTOR('',#1531,10.);
#463=VECTOR('',#1534,10.);
#464=VECTOR('',#1535,10.);
#465=VECTOR('',#1536,10.);
#466=VECTOR('',#1539,10.);
#467=VECTOR('',#1540,10.);
#468=VECTOR('',#1541,10.);
#469=VECTOR('',#1544,10.);
#470=VECTOR('',#1545,10.);
#471=VECTOR('',#1546,10.);
#472=VECTOR('',#1549,10.);
#473=VECTOR('',#1550,10.);
#474=VECTOR('',#1553,10.);
#475=VECTOR('',#1554,10.);
#476=VECTOR('',#1555,10.);
#477=VECTOR('',#1558,10.);
#478=VECTOR('',#1559,10.);
#479=VECTOR('',#1562,10.);
#480=VECTOR('',#1563,10.);
#481=VECTOR('',#1564,10.);
#482=VECTOR('',#1565,10.);
#483=VECTOR('',#1568,10.);
#484=VECTOR('',#1569,10.);
#485=VECTOR('',#1570,10.);
#486=VECTOR('',#1571,10.);
#487=VECTOR('',#1574,10.);
#488=VECTOR('',#1575,10.);
#489=VECTOR('',#1576,10.);
#490=VECTOR('',#1579,10.);
#491=VECTOR('',#1580,10.);
#492=VECTOR('',#1581,10.);
#493=VECTOR('',#1584,10.);
#494=VECTOR('',#1585,10.);
#495=VECTOR('',#1586,10.);
#496=VECTOR('',#1589,10.);
#497=VECTOR('',#1590,10.);
#498=VECTOR('',#1593,10.);
#499=VECTOR('',#1594,10.);
#500=VECTOR('',#1595,10.);
#501=VECTOR('',#1598,10.);
#502=VECTOR('',#1599,10.);
#503=VECTOR('',#1602,10.);
#504=VECTOR('',#1603,10.);
#505=VECTOR('',#1604,10.);
#506=VECTOR('',#1605,10.);
#507=VECTOR('',#1608,10.);
#508=VECTOR('',#1609,10.);
#509=VECTOR('',#1610,10.);
#510=VECTOR('',#1611,10.);
#511=VECTOR('',#1614,10.);
#512=VECTOR('',#1615,10.);
#513=VECTOR('',#1616,10.);
#514=VECTOR('',#1619,10.);
#515=VECTOR('',#1620,10.);
#516=VECTOR('',#1621,10.);
#517=VECTOR('',#1624,10.);
#518=VECTOR('',#1625,10.);
#519=VECTOR('',#1626,10.);
#520=VECTOR('',#1629,10.);
#521=VECTOR('',#1630,10.);
#522=VECTOR('',#1633,10.);
#523=VECTOR('',#1634,10.);
#524=VECTOR('',#1635,10.);
#525=VECTOR('',#1638,10.);
#526=VECTOR('',#1639,10.);
#527=VECTOR('',#1644,10.);
#528=VECTOR('',#1647,10.);
#529=VECTOR('',#1650,10.);
#530=VECTOR('',#1651,10.);
#531=VECTOR('',#1652,10.);
#532=VECTOR('',#1655,10.);
#533=VECTOR('',#1658,10.);
#534=VECTOR('',#1661,10.);
#535=VECTOR('',#1684,10.);
#536=VECTOR('',#1687,10.);
#537=VECTOR('',#1688,10.);
#538=VECTOR('',#1693,10.);
#539=VECTOR('',#1696,10.);
#540=VECTOR('',#1697,10.);
#541=VECTOR('',#1702,10.);
#542=VECTOR('',#1705,10.);
#543=VECTOR('',#1706,10.);
#544=VECTOR('',#1707,10.);
#545=VECTOR('',#1708,10.);
#546=VECTOR('',#1711,10.);
#547=VECTOR('',#1712,10.);
#548=VECTOR('',#1713,10.);
#549=VECTOR('',#1716,10.);
#550=VECTOR('',#1717,10.);
#551=VECTOR('',#1718,10.);
#552=VECTOR('',#1721,10.);
#553=VECTOR('',#1722,10.);
#554=VECTOR('',#1725,10.);
#555=VECTOR('',#1732,2.15);
#556=VECTOR('',#1737,2.15);
#557=VECTOR('',#1742,2.15);
#558=VECTOR('',#1747,2.15);
#559=VECTOR('',#1752,2.15);
#560=VECTOR('',#1757,2.15);
#561=VECTOR('',#1762,2.15);
#562=VECTOR('',#1767,2.15);
#563=VERTEX_POINT('',#1772);
#564=VERTEX_POINT('',#1773);
#565=VERTEX_POINT('',#1775);
#566=VERTEX_POINT('',#1777);
#567=VERTEX_POINT('',#1781);
#568=VERTEX_POINT('',#1782);
#569=VERTEX_POINT('',#1784);
#570=VERTEX_POINT('',#1786);
#571=VERTEX_POINT('',#1790);
#572=VERTEX_POINT('',#1792);
#573=VERTEX_POINT('',#1796);
#574=VERTEX_POINT('',#1798);
#575=VERTEX_POINT('',#1802);
#576=VERTEX_POINT('',#1804);
#577=VERTEX_POINT('',#1811);
#578=VERTEX_POINT('',#1813);
#579=VERTEX_POINT('',#1820);
#580=VERTEX_POINT('',#1821);
#581=VERTEX_POINT('',#1823);
#582=VERTEX_POINT('',#1825);
#583=VERTEX_POINT('',#1829);
#584=VERTEX_POINT('',#1830);
#585=VERTEX_POINT('',#1832);
#586=VERTEX_POINT('',#1834);
#587=VERTEX_POINT('',#1838);
#588=VERTEX_POINT('',#1840);
#589=VERTEX_POINT('',#1844);
#590=VERTEX_POINT('',#1846);
#591=VERTEX_POINT('',#1850);
#592=VERTEX_POINT('',#1852);
#593=VERTEX_POINT('',#1859);
#594=VERTEX_POINT('',#1861);
#595=VERTEX_POINT('',#1868);
#596=VERTEX_POINT('',#1869);
#597=VERTEX_POINT('',#1871);
#598=VERTEX_POINT('',#1873);
#599=VERTEX_POINT('',#1877);
#600=VERTEX_POINT('',#1878);
#601=VERTEX_POINT('',#1880);
#602=VERTEX_POINT('',#1882);
#603=VERTEX_POINT('',#1886);
#604=VERTEX_POINT('',#1888);
#605=VERTEX_POINT('',#1892);
#606=VERTEX_POINT('',#1894);
#607=VERTEX_POINT('',#1898);
#608=VERTEX_POINT('',#1900);
#609=VERTEX_POINT('',#1907);
#610=VERTEX_POINT('',#1909);
#611=VERTEX_POINT('',#1916);
#612=VERTEX_POINT('',#1917);
#613=VERTEX_POINT('',#1919);
#614=VERTEX_POINT('',#1921);
#615=VERTEX_POINT('',#1925);
#616=VERTEX_POINT('',#1926);
#617=VERTEX_POINT('',#1928);
#618=VERTEX_POINT('',#1930);
#619=VERTEX_POINT('',#1934);
#620=VERTEX_POINT('',#1936);
#621=VERTEX_POINT('',#1940);
#622=VERTEX_POINT('',#1942);
#623=VERTEX_POINT('',#1946);
#624=VERTEX_POINT('',#1948);
#625=VERTEX_POINT('',#1955);
#626=VERTEX_POINT('',#1957);
#627=VERTEX_POINT('',#1964);
#628=VERTEX_POINT('',#1965);
#629=VERTEX_POINT('',#1967);
#630=VERTEX_POINT('',#1969);
#631=VERTEX_POINT('',#1973);
#632=VERTEX_POINT('',#1974);
#633=VERTEX_POINT('',#1976);
#634=VERTEX_POINT('',#1978);
#635=VERTEX_POINT('',#1982);
#636=VERTEX_POINT('',#1984);
#637=VERTEX_POINT('',#1988);
#638=VERTEX_POINT('',#1990);
#639=VERTEX_POINT('',#1994);
#640=VERTEX_POINT('',#1996);
#641=VERTEX_POINT('',#2003);
#642=VERTEX_POINT('',#2005);
#643=VERTEX_POINT('',#2012);
#644=VERTEX_POINT('',#2013);
#645=VERTEX_POINT('',#2015);
#646=VERTEX_POINT('',#2017);
#647=VERTEX_POINT('',#2021);
#648=VERTEX_POINT('',#2023);
#649=VERTEX_POINT('',#2027);
#650=VERTEX_POINT('',#2029);
#651=VERTEX_POINT('',#2031);
#652=VERTEX_POINT('',#2033);
#653=VERTEX_POINT('',#2035);
#654=VERTEX_POINT('',#2038);
#655=VERTEX_POINT('',#2040);
#656=VERTEX_POINT('',#2042);
#657=VERTEX_POINT('',#2044);
#658=VERTEX_POINT('',#2046);
#659=VERTEX_POINT('',#2048);
#660=VERTEX_POINT('',#2050);
#661=VERTEX_POINT('',#2052);
#662=VERTEX_POINT('',#2055);
#663=VERTEX_POINT('',#2059);
#664=VERTEX_POINT('',#2063);
#665=VERTEX_POINT('',#2067);
#666=VERTEX_POINT('',#2071);
#667=VERTEX_POINT('',#2075);
#668=VERTEX_POINT('',#2076);
#669=VERTEX_POINT('',#2078);
#670=VERTEX_POINT('',#2080);
#671=VERTEX_POINT('',#2084);
#672=VERTEX_POINT('',#2086);
#673=VERTEX_POINT('',#2090);
#674=VERTEX_POINT('',#2092);
#675=VERTEX_POINT('',#2102);
#676=VERTEX_POINT('',#2106);
#677=VERTEX_POINT('',#2110);
#678=VERTEX_POINT('',#2114);
#679=VERTEX_POINT('',#2118);
#680=VERTEX_POINT('',#2122);
#681=VERTEX_POINT('',#2126);
#682=VERTEX_POINT('',#2130);
#683=EDGE_CURVE('',#563,#564,#251,.T.);
#684=EDGE_CURVE('',#565,#563,#252,.T.);
#685=EDGE_CURVE('',#566,#565,#253,.T.);
#686=EDGE_CURVE('',#566,#564,#254,.T.);
#687=EDGE_CURVE('',#567,#568,#255,.T.);
#688=EDGE_CURVE('',#567,#569,#256,.T.);
#689=EDGE_CURVE('',#570,#569,#257,.T.);
#690=EDGE_CURVE('',#568,#570,#258,.T.);
#691=EDGE_CURVE('',#571,#563,#259,.T.);
#692=EDGE_CURVE('',#572,#571,#260,.T.);
#693=EDGE_CURVE('',#565,#572,#261,.T.);
#694=EDGE_CURVE('',#568,#573,#262,.T.);
#695=EDGE_CURVE('',#574,#570,#263,.T.);
#696=EDGE_CURVE('',#573,#574,#264,.T.);
#697=EDGE_CURVE('',#564,#575,#265,.T.);
#698=EDGE_CURVE('',#576,#566,#266,.T.);
#699=EDGE_CURVE('',#576,#575,#267,.T.);
#700=EDGE_CURVE('',#575,#571,#268,.T.);
#701=EDGE_CURVE('',#572,#576,#269,.T.);
#702=EDGE_CURVE('',#573,#577,#270,.T.);
#703=EDGE_CURVE('',#578,#574,#271,.T.);
#704=EDGE_CURVE('',#577,#578,#272,.T.);
#705=EDGE_CURVE('',#577,#567,#273,.T.);
#706=EDGE_CURVE('',#569,#578,#274,.T.);
#707=EDGE_CURVE('',#579,#580,#275,.T.);
#708=EDGE_CURVE('',#581,#579,#276,.T.);
#709=EDGE_CURVE('',#582,#581,#277,.T.);
#710=EDGE_CURVE('',#582,#580,#278,.T.);
#711=EDGE_CURVE('',#583,#584,#279,.T.);
#712=EDGE_CURVE('',#583,#585,#280,.T.);
#713=EDGE_CURVE('',#586,#585,#281,.T.);
#714=EDGE_CURVE('',#584,#586,#282,.T.);
#715=EDGE_CURVE('',#587,#579,#283,.T.);
#716=EDGE_CURVE('',#588,#587,#284,.T.);
#717=EDGE_CURVE('',#581,#588,#285,.T.);
#718=EDGE_CURVE('',#584,#589,#286,.T.);
#719=EDGE_CURVE('',#590,#586,#287,.T.);
#720=EDGE_CURVE('',#589,#590,#288,.T.);
#721=EDGE_CURVE('',#580,#591,#289,.T.);
#722=EDGE_CURVE('',#592,#582,#290,.T.);
#723=EDGE_CURVE('',#592,#591,#291,.T.);
#724=EDGE_CURVE('',#591,#587,#292,.T.);
#725=EDGE_CURVE('',#588,#592,#293,.T.);
#726=EDGE_CURVE('',#589,#593,#294,.T.);
#727=EDGE_CURVE('',#594,#590,#295,.T.);
#728=EDGE_CURVE('',#593,#594,#296,.T.);
#729=EDGE_CURVE('',#593,#583,#297,.T.);
#730=EDGE_CURVE('',#585,#594,#298,.T.);
#731=EDGE_CURVE('',#595,#596,#299,.T.);
#732=EDGE_CURVE('',#597,#595,#300,.T.);
#733=EDGE_CURVE('',#598,#597,#301,.T.);
#734=EDGE_CURVE('',#598,#596,#302,.T.);
#735=EDGE_CURVE('',#599,#600,#303,.T.);
#736=EDGE_CURVE('',#599,#601,#304,.T.);
#737=EDGE_CURVE('',#602,#601,#305,.T.);
#738=EDGE_CURVE('',#600,#602,#306,.T.);
#739=EDGE_CURVE('',#603,#595,#307,.T.);
#740=EDGE_CURVE('',#604,#603,#308,.T.);
#741=EDGE_CURVE('',#597,#604,#309,.T.);
#742=EDGE_CURVE('',#600,#605,#310,.T.);
#743=EDGE_CURVE('',#606,#602,#311,.T.);
#744=EDGE_CURVE('',#605,#606,#312,.T.);
#745=EDGE_CURVE('',#596,#607,#313,.T.);
#746=EDGE_CURVE('',#608,#598,#314,.T.);
#747=EDGE_CURVE('',#608,#607,#315,.T.);
#748=EDGE_CURVE('',#607,#603,#316,.T.);
#749=EDGE_CURVE('',#604,#608,#317,.T.);
#750=EDGE_CURVE('',#605,#609,#318,.T.);
#751=EDGE_CURVE('',#610,#606,#319,.T.);
#752=EDGE_CURVE('',#609,#610,#320,.T.);
#753=EDGE_CURVE('',#609,#599,#321,.T.);
#754=EDGE_CURVE('',#601,#610,#322,.T.);
#755=EDGE_CURVE('',#611,#612,#323,.T.);
#756=EDGE_CURVE('',#613,#611,#324,.T.);
#757=EDGE_CURVE('',#614,#613,#325,.T.);
#758=EDGE_CURVE('',#614,#612,#326,.T.);
#759=EDGE_CURVE('',#615,#616,#327,.T.);
#760=EDGE_CURVE('',#615,#617,#328,.T.);
#761=EDGE_CURVE('',#618,#617,#329,.T.);
#762=EDGE_CURVE('',#616,#618,#330,.T.);
#763=EDGE_CURVE('',#619,#611,#331,.T.);
#764=EDGE_CURVE('',#620,#619,#332,.T.);
#765=EDGE_CURVE('',#613,#620,#333,.T.);
#766=EDGE_CURVE('',#616,#621,#334,.T.);
#767=EDGE_CURVE('',#622,#618,#335,.T.);
#768=EDGE_CURVE('',#621,#622,#336,.T.);
#769=EDGE_CURVE('',#612,#623,#337,.T.);
#770=EDGE_CURVE('',#624,#614,#338,.T.);
#771=EDGE_CURVE('',#624,#623,#339,.T.);
#772=EDGE_CURVE('',#623,#619,#340,.T.);
#773=EDGE_CURVE('',#620,#624,#341,.T.);
#774=EDGE_CURVE('',#621,#625,#342,.T.);
#775=EDGE_CURVE('',#626,#622,#343,.T.);
#776=EDGE_CURVE('',#625,#626,#344,.T.);
#777=EDGE_CURVE('',#625,#615,#345,.T.);
#778=EDGE_CURVE('',#617,#626,#346,.T.);
#779=EDGE_CURVE('',#627,#628,#347,.T.);
#780=EDGE_CURVE('',#629,#627,#348,.T.);
#781=EDGE_CURVE('',#630,#629,#349,.T.);
#782=EDGE_CURVE('',#630,#628,#350,.T.);
#783=EDGE_CURVE('',#631,#632,#351,.T.);
#784=EDGE_CURVE('',#631,#633,#352,.T.);
#785=EDGE_CURVE('',#634,#633,#353,.T.);
#786=EDGE_CURVE('',#632,#634,#354,.T.);
#787=EDGE_CURVE('',#635,#627,#355,.T.);
#788=EDGE_CURVE('',#636,#635,#356,.T.);
#789=EDGE_CURVE('',#629,#636,#357,.T.);
#790=EDGE_CURVE('',#632,#637,#358,.T.);
#791=EDGE_CURVE('',#638,#634,#359,.T.);
#792=EDGE_CURVE('',#637,#638,#360,.T.);
#793=EDGE_CURVE('',#628,#639,#361,.T.);
#794=EDGE_CURVE('',#640,#630,#362,.T.);
#795=EDGE_CURVE('',#640,#639,#363,.T.);
#796=EDGE_CURVE('',#639,#635,#364,.T.);
#797=EDGE_CURVE('',#636,#640,#365,.T.);
#798=EDGE_CURVE('',#637,#641,#366,.T.);
#799=EDGE_CURVE('',#642,#638,#367,.T.);
#800=EDGE_CURVE('',#641,#642,#368,.T.);
#801=EDGE_CURVE('',#641,#631,#369,.T.);
#802=EDGE_CURVE('',#633,#642,#370,.T.);
#803=EDGE_CURVE('',#643,#644,#52,.T.);
#804=EDGE_CURVE('',#644,#645,#371,.T.);
#805=EDGE_CURVE('',#645,#646,#53,.T.);
#806=EDGE_CURVE('',#646,#643,#372,.T.);
#807=EDGE_CURVE('',#647,#646,#373,.T.);
#808=EDGE_CURVE('',#648,#647,#374,.T.);
#809=EDGE_CURVE('',#643,#648,#375,.T.);
#810=EDGE_CURVE('',#645,#649,#376,.T.);
#811=EDGE_CURVE('',#650,#649,#54,.T.);
#812=EDGE_CURVE('',#650,#651,#377,.T.);
#813=EDGE_CURVE('',#652,#651,#55,.T.);
#814=EDGE_CURVE('',#652,#653,#378,.T.);
#815=EDGE_CURVE('',#647,#653,#56,.T.);
#816=EDGE_CURVE('',#654,#654,#57,.T.);
#817=EDGE_CURVE('',#655,#655,#58,.T.);
#818=EDGE_CURVE('',#656,#656,#59,.T.);
#819=EDGE_CURVE('',#657,#657,#60,.T.);
#820=EDGE_CURVE('',#658,#658,#61,.T.);
#821=EDGE_CURVE('',#659,#659,#62,.T.);
#822=EDGE_CURVE('',#660,#660,#63,.T.);
#823=EDGE_CURVE('',#661,#661,#64,.T.);
#824=EDGE_CURVE('',#662,#648,#65,.T.);
#825=EDGE_CURVE('',#653,#662,#379,.T.);
#826=EDGE_CURVE('',#663,#652,#380,.T.);
#827=EDGE_CURVE('',#662,#663,#381,.T.);
#828=EDGE_CURVE('',#664,#663,#66,.T.);
#829=EDGE_CURVE('',#651,#664,#382,.T.);
#830=EDGE_CURVE('',#665,#650,#383,.T.);
#831=EDGE_CURVE('',#664,#665,#384,.T.);
#832=EDGE_CURVE('',#666,#665,#67,.T.);
#833=EDGE_CURVE('',#649,#666,#385,.T.);
#834=EDGE_CURVE('',#667,#668,#386,.T.);
#835=EDGE_CURVE('',#667,#669,#387,.T.);
#836=EDGE_CURVE('',#670,#669,#388,.T.);
#837=EDGE_CURVE('',#668,#670,#389,.T.);
#838=EDGE_CURVE('',#671,#667,#390,.T.);
#839=EDGE_CURVE('',#671,#672,#391,.T.);
#840=EDGE_CURVE('',#669,#672,#392,.T.);
#841=EDGE_CURVE('',#668,#673,#393,.T.);
#842=EDGE_CURVE('',#674,#670,#394,.T.);
#843=EDGE_CURVE('',#673,#674,#395,.T.);
#844=EDGE_CURVE('',#673,#671,#396,.T.);
#845=EDGE_CURVE('',#672,#674,#397,.T.);
#846=EDGE_CURVE('',#666,#644,#398,.T.);
#847=EDGE_CURVE('',#675,#675,#68,.T.);
#848=EDGE_CURVE('',#675,#661,#399,.T.);
#849=EDGE_CURVE('',#676,#676,#69,.T.);
#850=EDGE_CURVE('',#676,#660,#400,.T.);
#851=EDGE_CURVE('',#677,#677,#70,.T.);
#852=EDGE_CURVE('',#677,#659,#401,.T.);
#853=EDGE_CURVE('',#678,#678,#71,.T.);
#854=EDGE_CURVE('',#678,#658,#402,.T.);
#855=EDGE_CURVE('',#679,#679,#72,.T.);
#856=EDGE_CURVE('',#679,#657,#403,.T.);
#857=EDGE_CURVE('',#680,#680,#73,.T.);
#858=EDGE_CURVE('',#680,#656,#404,.T.);
#859=EDGE_CURVE('',#681,#681,#74,.T.);
#860=EDGE_CURVE('',#681,#655,#405,.T.);
#861=EDGE_CURVE('',#682,#682,#75,.T.);
#862=EDGE_CURVE('',#682,#654,#406,.T.);
#863=ORIENTED_EDGE('',*,*,#683,.F.);
#864=ORIENTED_EDGE('',*,*,#684,.F.);
#865=ORIENTED_EDGE('',*,*,#685,.F.);
#866=ORIENTED_EDGE('',*,*,#686,.T.);
#867=ORIENTED_EDGE('',*,*,#687,.F.);
#868=ORIENTED_EDGE('',*,*,#688,.T.);
#869=ORIENTED_EDGE('',*,*,#689,.F.);
#870=ORIENTED_EDGE('',*,*,#690,.F.);
#871=ORIENTED_EDGE('',*,*,#691,.F.);
#872=ORIENTED_EDGE('',*,*,#692,.F.);
#873=ORIENTED_EDGE('',*,*,#693,.F.);
#874=ORIENTED_EDGE('',*,*,#684,.T.);
#875=ORIENTED_EDGE('',*,*,#694,.F.);
#876=ORIENTED_EDGE('',*,*,#690,.T.);
#877=ORIENTED_EDGE('',*,*,#695,.F.);
#878=ORIENTED_EDGE('',*,*,#696,.F.);
#879=ORIENTED_EDGE('',*,*,#697,.F.);
#880=ORIENTED_EDGE('',*,*,#686,.F.);
#881=ORIENTED_EDGE('',*,*,#698,.F.);
#882=ORIENTED_EDGE('',*,*,#699,.T.);
#883=ORIENTED_EDGE('',*,*,#700,.F.);
#884=ORIENTED_EDGE('',*,*,#699,.F.);
#885=ORIENTED_EDGE('',*,*,#701,.F.);
#886=ORIENTED_EDGE('',*,*,#692,.T.);
#887=ORIENTED_EDGE('',*,*,#702,.F.);
#888=ORIENTED_EDGE('',*,*,#696,.T.);
#889=ORIENTED_EDGE('',*,*,#703,.F.);
#890=ORIENTED_EDGE('',*,*,#704,.F.);
#891=ORIENTED_EDGE('',*,*,#705,.F.);
#892=ORIENTED_EDGE('',*,*,#704,.T.);
#893=ORIENTED_EDGE('',*,*,#706,.F.);
#894=ORIENTED_EDGE('',*,*,#688,.F.);
#895=ORIENTED_EDGE('',*,*,#707,.F.);
#896=ORIENTED_EDGE('',*,*,#708,.F.);
#897=ORIENTED_EDGE('',*,*,#709,.F.);
#898=ORIENTED_EDGE('',*,*,#710,.T.);
#899=ORIENTED_EDGE('',*,*,#711,.F.);
#900=ORIENTED_EDGE('',*,*,#712,.T.);
#901=ORIENTED_EDGE('',*,*,#713,.F.);
#902=ORIENTED_EDGE('',*,*,#714,.F.);
#903=ORIENTED_EDGE('',*,*,#715,.F.);
#904=ORIENTED_EDGE('',*,*,#716,.F.);
#905=ORIENTED_EDGE('',*,*,#717,.F.);
#906=ORIENTED_EDGE('',*,*,#708,.T.);
#907=ORIENTED_EDGE('',*,*,#718,.F.);
#908=ORIENTED_EDGE('',*,*,#714,.T.);
#909=ORIENTED_EDGE('',*,*,#719,.F.);
#910=ORIENTED_EDGE('',*,*,#720,.F.);
#911=ORIENTED_EDGE('',*,*,#721,.F.);
#912=ORIENTED_EDGE('',*,*,#710,.F.);
#913=ORIENTED_EDGE('',*,*,#722,.F.);
#914=ORIENTED_EDGE('',*,*,#723,.T.);
#915=ORIENTED_EDGE('',*,*,#724,.F.);
#916=ORIENTED_EDGE('',*,*,#723,.F.);
#917=ORIENTED_EDGE('',*,*,#725,.F.);
#918=ORIENTED_EDGE('',*,*,#716,.T.);
#919=ORIENTED_EDGE('',*,*,#726,.F.);
#920=ORIENTED_EDGE('',*,*,#720,.T.);
#921=ORIENTED_EDGE('',*,*,#727,.F.);
#922=ORIENTED_EDGE('',*,*,#728,.F.);
#923=ORIENTED_EDGE('',*,*,#729,.F.);
#924=ORIENTED_EDGE('',*,*,#728,.T.);
#925=ORIENTED_EDGE('',*,*,#730,.F.);
#926=ORIENTED_EDGE('',*,*,#712,.F.);
#927=ORIENTED_EDGE('',*,*,#731,.F.);
#928=ORIENTED_EDGE('',*,*,#732,.F.);
#929=ORIENTED_EDGE('',*,*,#733,.F.);
#930=ORIENTED_EDGE('',*,*,#734,.T.);
#931=ORIENTED_EDGE('',*,*,#735,.F.);
#932=ORIENTED_EDGE('',*,*,#736,.T.);
#933=ORIENTED_EDGE('',*,*,#737,.F.);
#934=ORIENTED_EDGE('',*,*,#738,.F.);
#935=ORIENTED_EDGE('',*,*,#739,.F.);
#936=ORIENTED_EDGE('',*,*,#740,.F.);
#937=ORIENTED_EDGE('',*,*,#741,.F.);
#938=ORIENTED_EDGE('',*,*,#732,.T.);
#939=ORIENTED_EDGE('',*,*,#742,.F.);
#940=ORIENTED_EDGE('',*,*,#738,.T.);
#941=ORIENTED_EDGE('',*,*,#743,.F.);
#942=ORIENTED_EDGE('',*,*,#744,.F.);
#943=ORIENTED_EDGE('',*,*,#745,.F.);
#944=ORIENTED_EDGE('',*,*,#734,.F.);
#945=ORIENTED_EDGE('',*,*,#746,.F.);
#946=ORIENTED_EDGE('',*,*,#747,.T.);
#947=ORIENTED_EDGE('',*,*,#748,.F.);
#948=ORIENTED_EDGE('',*,*,#747,.F.);
#949=ORIENTED_EDGE('',*,*,#749,.F.);
#950=ORIENTED_EDGE('',*,*,#740,.T.);
#951=ORIENTED_EDGE('',*,*,#750,.F.);
#952=ORIENTED_EDGE('',*,*,#744,.T.);
#953=ORIENTED_EDGE('',*,*,#751,.F.);
#954=ORIENTED_EDGE('',*,*,#752,.F.);
#955=ORIENTED_EDGE('',*,*,#753,.F.);
#956=ORIENTED_EDGE('',*,*,#752,.T.);
#957=ORIENTED_EDGE('',*,*,#754,.F.);
#958=ORIENTED_EDGE('',*,*,#736,.F.);
#959=ORIENTED_EDGE('',*,*,#755,.F.);
#960=ORIENTED_EDGE('',*,*,#756,.F.);
#961=ORIENTED_EDGE('',*,*,#757,.F.);
#962=ORIENTED_EDGE('',*,*,#758,.T.);
#963=ORIENTED_EDGE('',*,*,#759,.F.);
#964=ORIENTED_EDGE('',*,*,#760,.T.);
#965=ORIENTED_EDGE('',*,*,#761,.F.);
#966=ORIENTED_EDGE('',*,*,#762,.F.);
#967=ORIENTED_EDGE('',*,*,#763,.F.);
#968=ORIENTED_EDGE('',*,*,#764,.F.);
#969=ORIENTED_EDGE('',*,*,#765,.F.);
#970=ORIENTED_EDGE('',*,*,#756,.T.);
#971=ORIENTED_EDGE('',*,*,#766,.F.);
#972=ORIENTED_EDGE('',*,*,#762,.T.);
#973=ORIENTED_EDGE('',*,*,#767,.F.);
#974=ORIENTED_EDGE('',*,*,#768,.F.);
#975=ORIENTED_EDGE('',*,*,#769,.F.);
#976=ORIENTED_EDGE('',*,*,#758,.F.);
#977=ORIENTED_EDGE('',*,*,#770,.F.);
#978=ORIENTED_EDGE('',*,*,#771,.T.);
#979=ORIENTED_EDGE('',*,*,#772,.F.);
#980=ORIENTED_EDGE('',*,*,#771,.F.);
#981=ORIENTED_EDGE('',*,*,#773,.F.);
#982=ORIENTED_EDGE('',*,*,#764,.T.);
#983=ORIENTED_EDGE('',*,*,#774,.F.);
#984=ORIENTED_EDGE('',*,*,#768,.T.);
#985=ORIENTED_EDGE('',*,*,#775,.F.);
#986=ORIENTED_EDGE('',*,*,#776,.F.);
#987=ORIENTED_EDGE('',*,*,#777,.F.);
#988=ORIENTED_EDGE('',*,*,#776,.T.);
#989=ORIENTED_EDGE('',*,*,#778,.F.);
#990=ORIENTED_EDGE('',*,*,#760,.F.);
#991=ORIENTED_EDGE('',*,*,#779,.F.);
#992=ORIENTED_EDGE('',*,*,#780,.F.);
#993=ORIENTED_EDGE('',*,*,#781,.F.);
#994=ORIENTED_EDGE('',*,*,#782,.T.);
#995=ORIENTED_EDGE('',*,*,#783,.F.);
#996=ORIENTED_EDGE('',*,*,#784,.T.);
#997=ORIENTED_EDGE('',*,*,#785,.F.);
#998=ORIENTED_EDGE('',*,*,#786,.F.);
#999=ORIENTED_EDGE('',*,*,#787,.F.);
#1000=ORIENTED_EDGE('',*,*,#788,.F.);
#1001=ORIENTED_EDGE('',*,*,#789,.F.);
#1002=ORIENTED_EDGE('',*,*,#780,.T.);
#1003=ORIENTED_EDGE('',*,*,#790,.F.);
#1004=ORIENTED_EDGE('',*,*,#786,.T.);
#1005=ORIENTED_EDGE('',*,*,#791,.F.);
#1006=ORIENTED_EDGE('',*,*,#792,.F.);
#1007=ORIENTED_EDGE('',*,*,#793,.F.);
#1008=ORIENTED_EDGE('',*,*,#782,.F.);
#1009=ORIENTED_EDGE('',*,*,#794,.F.);
#1010=ORIENTED_EDGE('',*,*,#795,.T.);
#1011=ORIENTED_EDGE('',*,*,#796,.F.);
#1012=ORIENTED_EDGE('',*,*,#795,.F.);
#1013=ORIENTED_EDGE('',*,*,#797,.F.);
#1014=ORIENTED_EDGE('',*,*,#788,.T.);
#1015=ORIENTED_EDGE('',*,*,#798,.F.);
#1016=ORIENTED_EDGE('',*,*,#792,.T.);
#1017=ORIENTED_EDGE('',*,*,#799,.F.);
#1018=ORIENTED_EDGE('',*,*,#800,.F.);
#1019=ORIENTED_EDGE('',*,*,#801,.F.);
#1020=ORIENTED_EDGE('',*,*,#800,.T.);
#1021=ORIENTED_EDGE('',*,*,#802,.F.);
#1022=ORIENTED_EDGE('',*,*,#784,.F.);
#1023=ORIENTED_EDGE('',*,*,#803,.T.);
#1024=ORIENTED_EDGE('',*,*,#804,.T.);
#1025=ORIENTED_EDGE('',*,*,#805,.T.);
#1026=ORIENTED_EDGE('',*,*,#806,.T.);
#1027=ORIENTED_EDGE('',*,*,#806,.F.);
#1028=ORIENTED_EDGE('',*,*,#807,.F.);
#1029=ORIENTED_EDGE('',*,*,#808,.F.);
#1030=ORIENTED_EDGE('',*,*,#809,.F.);
#1031=ORIENTED_EDGE('',*,*,#701,.T.);
#1032=ORIENTED_EDGE('',*,*,#698,.T.);
#1033=ORIENTED_EDGE('',*,*,#685,.T.);
#1034=ORIENTED_EDGE('',*,*,#693,.T.);
#1035=ORIENTED_EDGE('',*,*,#805,.F.);
#1036=ORIENTED_EDGE('',*,*,#810,.T.);
#1037=ORIENTED_EDGE('',*,*,#811,.F.);
#1038=ORIENTED_EDGE('',*,*,#812,.T.);
#1039=ORIENTED_EDGE('',*,*,#813,.F.);
#1040=ORIENTED_EDGE('',*,*,#814,.T.);
#1041=ORIENTED_EDGE('',*,*,#815,.F.);
#1042=ORIENTED_EDGE('',*,*,#807,.T.);
#1043=ORIENTED_EDGE('',*,*,#816,.F.);
#1044=ORIENTED_EDGE('',*,*,#817,.F.);
#1045=ORIENTED_EDGE('',*,*,#818,.F.);
#1046=ORIENTED_EDGE('',*,*,#819,.F.);
#1047=ORIENTED_EDGE('',*,*,#820,.F.);
#1048=ORIENTED_EDGE('',*,*,#821,.F.);
#1049=ORIENTED_EDGE('',*,*,#822,.F.);
#1050=ORIENTED_EDGE('',*,*,#823,.F.);
#1051=ORIENTED_EDGE('',*,*,#824,.T.);
#1052=ORIENTED_EDGE('',*,*,#808,.T.);
#1053=ORIENTED_EDGE('',*,*,#815,.T.);
#1054=ORIENTED_EDGE('',*,*,#825,.T.);
#1055=ORIENTED_EDGE('',*,*,#825,.F.);
#1056=ORIENTED_EDGE('',*,*,#814,.F.);
#1057=ORIENTED_EDGE('',*,*,#826,.F.);
#1058=ORIENTED_EDGE('',*,*,#827,.F.);
#1059=ORIENTED_EDGE('',*,*,#725,.T.);
#1060=ORIENTED_EDGE('',*,*,#722,.T.);
#1061=ORIENTED_EDGE('',*,*,#709,.T.);
#1062=ORIENTED_EDGE('',*,*,#717,.T.);
#1063=ORIENTED_EDGE('',*,*,#749,.T.);
#1064=ORIENTED_EDGE('',*,*,#746,.T.);
#1065=ORIENTED_EDGE('',*,*,#733,.T.);
#1066=ORIENTED_EDGE('',*,*,#741,.T.);
#1067=ORIENTED_EDGE('',*,*,#773,.T.);
#1068=ORIENTED_EDGE('',*,*,#770,.T.);
#1069=ORIENTED_EDGE('',*,*,#757,.T.);
#1070=ORIENTED_EDGE('',*,*,#765,.T.);
#1071=ORIENTED_EDGE('',*,*,#797,.T.);
#1072=ORIENTED_EDGE('',*,*,#794,.T.);
#1073=ORIENTED_EDGE('',*,*,#781,.T.);
#1074=ORIENTED_EDGE('',*,*,#789,.T.);
#1075=ORIENTED_EDGE('',*,*,#828,.T.);
#1076=ORIENTED_EDGE('',*,*,#826,.T.);
#1077=ORIENTED_EDGE('',*,*,#813,.T.);
#1078=ORIENTED_EDGE('',*,*,#829,.T.);
#1079=ORIENTED_EDGE('',*,*,#829,.F.);
#1080=ORIENTED_EDGE('',*,*,#812,.F.);
#1081=ORIENTED_EDGE('',*,*,#830,.F.);
#1082=ORIENTED_EDGE('',*,*,#831,.F.);
#1083=ORIENTED_EDGE('',*,*,#703,.T.);
#1084=ORIENTED_EDGE('',*,*,#695,.T.);
#1085=ORIENTED_EDGE('',*,*,#689,.T.);
#1086=ORIENTED_EDGE('',*,*,#706,.T.);
#1087=ORIENTED_EDGE('',*,*,#832,.T.);
#1088=ORIENTED_EDGE('',*,*,#830,.T.);
#1089=ORIENTED_EDGE('',*,*,#811,.T.);
#1090=ORIENTED_EDGE('',*,*,#833,.T.);
#1091=ORIENTED_EDGE('',*,*,#834,.F.);
#1092=ORIENTED_EDGE('',*,*,#835,.T.);
#1093=ORIENTED_EDGE('',*,*,#836,.F.);
#1094=ORIENTED_EDGE('',*,*,#837,.F.);
#1095=ORIENTED_EDGE('',*,*,#726,.T.);
#1096=ORIENTED_EDGE('',*,*,#729,.T.);
#1097=ORIENTED_EDGE('',*,*,#711,.T.);
#1098=ORIENTED_EDGE('',*,*,#718,.T.);
#1099=ORIENTED_EDGE('',*,*,#750,.T.);
#1100=ORIENTED_EDGE('',*,*,#753,.T.);
#1101=ORIENTED_EDGE('',*,*,#735,.T.);
#1102=ORIENTED_EDGE('',*,*,#742,.T.);
#1103=ORIENTED_EDGE('',*,*,#774,.T.);
#1104=ORIENTED_EDGE('',*,*,#777,.T.);
#1105=ORIENTED_EDGE('',*,*,#759,.T.);
#1106=ORIENTED_EDGE('',*,*,#766,.T.);
#1107=ORIENTED_EDGE('',*,*,#798,.T.);
#1108=ORIENTED_EDGE('',*,*,#801,.T.);
#1109=ORIENTED_EDGE('',*,*,#783,.T.);
#1110=ORIENTED_EDGE('',*,*,#790,.T.);
#1111=ORIENTED_EDGE('',*,*,#838,.F.);
#1112=ORIENTED_EDGE('',*,*,#839,.T.);
#1113=ORIENTED_EDGE('',*,*,#840,.F.);
#1114=ORIENTED_EDGE('',*,*,#835,.F.);
#1115=ORIENTED_EDGE('',*,*,#702,.T.);
#1116=ORIENTED_EDGE('',*,*,#705,.T.);
#1117=ORIENTED_EDGE('',*,*,#687,.T.);
#1118=ORIENTED_EDGE('',*,*,#694,.T.);
#1119=ORIENTED_EDGE('',*,*,#841,.F.);
#1120=ORIENTED_EDGE('',*,*,#837,.T.);
#1121=ORIENTED_EDGE('',*,*,#842,.F.);
#1122=ORIENTED_EDGE('',*,*,#843,.F.);
#1123=ORIENTED_EDGE('',*,*,#700,.T.);
#1124=ORIENTED_EDGE('',*,*,#691,.T.);
#1125=ORIENTED_EDGE('',*,*,#683,.T.);
#1126=ORIENTED_EDGE('',*,*,#697,.T.);
#1127=ORIENTED_EDGE('',*,*,#844,.F.);
#1128=ORIENTED_EDGE('',*,*,#843,.T.);
#1129=ORIENTED_EDGE('',*,*,#845,.F.);
#1130=ORIENTED_EDGE('',*,*,#839,.F.);
#1131=ORIENTED_EDGE('',*,*,#724,.T.);
#1132=ORIENTED_EDGE('',*,*,#715,.T.);
#1133=ORIENTED_EDGE('',*,*,#707,.T.);
#1134=ORIENTED_EDGE('',*,*,#721,.T.);
#1135=ORIENTED_EDGE('',*,*,#748,.T.);
#1136=ORIENTED_EDGE('',*,*,#739,.T.);
#1137=ORIENTED_EDGE('',*,*,#731,.T.);
#1138=ORIENTED_EDGE('',*,*,#745,.T.);
#1139=ORIENTED_EDGE('',*,*,#772,.T.);
#1140=ORIENTED_EDGE('',*,*,#763,.T.);
#1141=ORIENTED_EDGE('',*,*,#755,.T.);
#1142=ORIENTED_EDGE('',*,*,#769,.T.);
#1143=ORIENTED_EDGE('',*,*,#796,.T.);
#1144=ORIENTED_EDGE('',*,*,#787,.T.);
#1145=ORIENTED_EDGE('',*,*,#779,.T.);
#1146=ORIENTED_EDGE('',*,*,#793,.T.);
#1147=ORIENTED_EDGE('',*,*,#804,.F.);
#1148=ORIENTED_EDGE('',*,*,#846,.F.);
#1149=ORIENTED_EDGE('',*,*,#833,.F.);
#1150=ORIENTED_EDGE('',*,*,#810,.F.);
#1151=ORIENTED_EDGE('',*,*,#727,.T.);
#1152=ORIENTED_EDGE('',*,*,#719,.T.);
#1153=ORIENTED_EDGE('',*,*,#713,.T.);
#1154=ORIENTED_EDGE('',*,*,#730,.T.);
#1155=ORIENTED_EDGE('',*,*,#751,.T.);
#1156=ORIENTED_EDGE('',*,*,#743,.T.);
#1157=ORIENTED_EDGE('',*,*,#737,.T.);
#1158=ORIENTED_EDGE('',*,*,#754,.T.);
#1159=ORIENTED_EDGE('',*,*,#775,.T.);
#1160=ORIENTED_EDGE('',*,*,#767,.T.);
#1161=ORIENTED_EDGE('',*,*,#761,.T.);
#1162=ORIENTED_EDGE('',*,*,#778,.T.);
#1163=ORIENTED_EDGE('',*,*,#799,.T.);
#1164=ORIENTED_EDGE('',*,*,#791,.T.);
#1165=ORIENTED_EDGE('',*,*,#785,.T.);
#1166=ORIENTED_EDGE('',*,*,#802,.T.);
#1167=ORIENTED_EDGE('',*,*,#803,.F.);
#1168=ORIENTED_EDGE('',*,*,#809,.T.);
#1169=ORIENTED_EDGE('',*,*,#824,.F.);
#1170=ORIENTED_EDGE('',*,*,#827,.T.);
#1171=ORIENTED_EDGE('',*,*,#828,.F.);
#1172=ORIENTED_EDGE('',*,*,#831,.T.);
#1173=ORIENTED_EDGE('',*,*,#832,.F.);
#1174=ORIENTED_EDGE('',*,*,#846,.T.);
#1175=ORIENTED_EDGE('',*,*,#840,.T.);
#1176=ORIENTED_EDGE('',*,*,#845,.T.);
#1177=ORIENTED_EDGE('',*,*,#842,.T.);
#1178=ORIENTED_EDGE('',*,*,#836,.T.);
#1179=ORIENTED_EDGE('',*,*,#847,.F.);
#1180=ORIENTED_EDGE('',*,*,#848,.T.);
#1181=ORIENTED_EDGE('',*,*,#823,.T.);
#1182=ORIENTED_EDGE('',*,*,#848,.F.);
#1183=ORIENTED_EDGE('',*,*,#849,.F.);
#1184=ORIENTED_EDGE('',*,*,#850,.T.);
#1185=ORIENTED_EDGE('',*,*,#822,.T.);
#1186=ORIENTED_EDGE('',*,*,#850,.F.);
#1187=ORIENTED_EDGE('',*,*,#851,.F.);
#1188=ORIENTED_EDGE('',*,*,#852,.T.);
#1189=ORIENTED_EDGE('',*,*,#821,.T.);
#1190=ORIENTED_EDGE('',*,*,#852,.F.);
#1191=ORIENTED_EDGE('',*,*,#853,.F.);
#1192=ORIENTED_EDGE('',*,*,#854,.T.);
#1193=ORIENTED_EDGE('',*,*,#820,.T.);
#1194=ORIENTED_EDGE('',*,*,#854,.F.);
#1195=ORIENTED_EDGE('',*,*,#855,.F.);
#1196=ORIENTED_EDGE('',*,*,#856,.T.);
#1197=ORIENTED_EDGE('',*,*,#819,.T.);
#1198=ORIENTED_EDGE('',*,*,#856,.F.);
#1199=ORIENTED_EDGE('',*,*,#857,.F.);
#1200=ORIENTED_EDGE('',*,*,#858,.T.);
#1201=ORIENTED_EDGE('',*,*,#818,.T.);
#1202=ORIENTED_EDGE('',*,*,#858,.F.);
#1203=ORIENTED_EDGE('',*,*,#859,.F.);
#1204=ORIENTED_EDGE('',*,*,#860,.T.);
#1205=ORIENTED_EDGE('',*,*,#817,.T.);
#1206=ORIENTED_EDGE('',*,*,#860,.F.);
#1207=ORIENTED_EDGE('',*,*,#861,.F.);
#1208=ORIENTED_EDGE('',*,*,#862,.T.);
#1209=ORIENTED_EDGE('',*,*,#816,.T.);
#1210=ORIENTED_EDGE('',*,*,#862,.F.);
#1211=ORIENTED_EDGE('',*,*,#838,.T.);
#1212=ORIENTED_EDGE('',*,*,#834,.T.);
#1213=ORIENTED_EDGE('',*,*,#841,.T.);
#1214=ORIENTED_EDGE('',*,*,#844,.T.);
#1215=ORIENTED_EDGE('',*,*,#861,.T.);
#1216=ORIENTED_EDGE('',*,*,#859,.T.);
#1217=ORIENTED_EDGE('',*,*,#857,.T.);
#1218=ORIENTED_EDGE('',*,*,#855,.T.);
#1219=ORIENTED_EDGE('',*,*,#853,.T.);
#1220=ORIENTED_EDGE('',*,*,#851,.T.);
#1221=ORIENTED_EDGE('',*,*,#849,.T.);
#1222=ORIENTED_EDGE('',*,*,#847,.T.);
#1223=PLANE('',#1351);
#1224=PLANE('',#1352);
#1225=PLANE('',#1353);
#1226=PLANE('',#1354);
#1227=PLANE('',#1355);
#1228=PLANE('',#1356);
#1229=PLANE('',#1357);
#1230=PLANE('',#1358);
#1231=PLANE('',#1359);
#1232=PLANE('',#1360);
#1233=PLANE('',#1361);
#1234=PLANE('',#1362);
#1235=PLANE('',#1363);
#1236=PLANE('',#1364);
#1237=PLANE('',#1365);
#1238=PLANE('',#1366);
#1239=PLANE('',#1367);
#1240=PLANE('',#1368);
#1241=PLANE('',#1369);
#1242=PLANE('',#1370);
#1243=PLANE('',#1371);
#1244=PLANE('',#1372);
#1245=PLANE('',#1373);
#1246=PLANE('',#1374);
#1247=PLANE('',#1375);
#1248=PLANE('',#1376);
#1249=PLANE('',#1377);
#1250=PLANE('',#1378);
#1251=PLANE('',#1379);
#1252=PLANE('',#1380);
#1253=PLANE('',#1381);
#1254=PLANE('',#1382);
#1255=PLANE('',#1383);
#1256=PLANE('',#1384);
#1257=PLANE('',#1385);
#1258=PLANE('',#1386);
#1259=PLANE('',#1387);
#1260=PLANE('',#1388);
#1261=PLANE('',#1389);
#1262=PLANE('',#1390);
#1263=PLANE('',#1394);
#1264=PLANE('',#1395);
#1265=PLANE('',#1409);
#1266=PLANE('',#1412);
#1267=PLANE('',#1415);
#1268=PLANE('',#1416);
#1269=PLANE('',#1417);
#1270=PLANE('',#1418);
#1271=PLANE('',#1419);
#1272=PLANE('',#1420);
#1273=PLANE('',#1437);
#1274=ADVANCED_FACE('',(#88),#1223,.F.);
#1275=ADVANCED_FACE('',(#89),#1224,.F.);
#1276=ADVANCED_FACE('',(#90),#1225,.F.);
#1277=ADVANCED_FACE('',(#91),#1226,.F.);
#1278=ADVANCED_FACE('',(#92),#1227,.F.);
#1279=ADVANCED_FACE('',(#93),#1228,.F.);
#1280=ADVANCED_FACE('',(#94),#1229,.F.);
#1281=ADVANCED_FACE('',(#95),#1230,.F.);
#1282=ADVANCED_FACE('',(#96),#1231,.F.);
#1283=ADVANCED_FACE('',(#97),#1232,.F.);
#1284=ADVANCED_FACE('',(#98),#1233,.F.);
#1285=ADVANCED_FACE('',(#99),#1234,.F.);
#1286=ADVANCED_FACE('',(#100),#1235,.F.);
#1287=ADVANCED_FACE('',(#101),#1236,.F.);
#1288=ADVANCED_FACE('',(#102),#1237,.F.);
#1289=ADVANCED_FACE('',(#103),#1238,.F.);
#1290=ADVANCED_FACE('',(#104),#1239,.F.);
#1291=ADVANCED_FACE('',(#105),#1240,.F.);
#1292=ADVANCED_FACE('',(#106),#1241,.F.);
#1293=ADVANCED_FACE('',(#107),#1242,.F.);
#1294=ADVANCED_FACE('',(#108),#1243,.F.);
#1295=ADVANCED_FACE('',(#109),#1244,.F.);
#1296=ADVANCED_FACE('',(#110),#1245,.F.);
#1297=ADVANCED_FACE('',(#111),#1246,.F.);
#1298=ADVANCED_FACE('',(#112),#1247,.F.);
#1299=ADVANCED_FACE('',(#113),#1248,.F.);
#1300=ADVANCED_FACE('',(#114),#1249,.F.);
#1301=ADVANCED_FACE('',(#115),#1250,.F.);
#1302=ADVANCED_FACE('',(#116),#1251,.F.);
#1303=ADVANCED_FACE('',(#117),#1252,.F.);
#1304=ADVANCED_FACE('',(#118),#1253,.F.);
#1305=ADVANCED_FACE('',(#119),#1254,.F.);
#1306=ADVANCED_FACE('',(#120),#1255,.F.);
#1307=ADVANCED_FACE('',(#121),#1256,.F.);
#1308=ADVANCED_FACE('',(#122),#1257,.F.);
#1309=ADVANCED_FACE('',(#123),#1258,.F.);
#1310=ADVANCED_FACE('',(#124),#1259,.F.);
#1311=ADVANCED_FACE('',(#125),#1260,.F.);
#1312=ADVANCED_FACE('',(#126),#1261,.F.);
#1313=ADVANCED_FACE('',(#127),#1262,.F.);
#1314=ADVANCED_FACE('',(#128),#76,.T.);
#1315=ADVANCED_FACE('',(#129,#15),#1263,.T.);
#1316=ADVANCED_FACE('',(#130,#16,#17,#18,#19,#20,#21,#22,#23),#1264,.F.);
#1317=ADVANCED_FACE('',(#131),#77,.T.);
#1318=ADVANCED_FACE('',(#132,#24,#25,#26,#27),#1265,.T.);
#1319=ADVANCED_FACE('',(#133),#78,.T.);
#1320=ADVANCED_FACE('',(#134,#28),#1266,.T.);
#1321=ADVANCED_FACE('',(#135),#79,.T.);
#1322=ADVANCED_FACE('',(#136,#29,#30,#31,#32),#1267,.T.);
#1323=ADVANCED_FACE('',(#137,#33),#1268,.T.);
#1324=ADVANCED_FACE('',(#138,#34),#1269,.T.);
#1325=ADVANCED_FACE('',(#139,#35,#36,#37,#38),#1270,.T.);
#1326=ADVANCED_FACE('',(#140,#39,#40,#41,#42),#1271,.T.);
#1327=ADVANCED_FACE('',(#141,#43),#1272,.T.);
#1328=ADVANCED_FACE('',(#142),#80,.F.);
#1329=ADVANCED_FACE('',(#143),#81,.F.);
#1330=ADVANCED_FACE('',(#144),#82,.F.);
#1331=ADVANCED_FACE('',(#145),#83,.F.);
#1332=ADVANCED_FACE('',(#146),#84,.F.);
#1333=ADVANCED_FACE('',(#147),#85,.F.);
#1334=ADVANCED_FACE('',(#148),#86,.F.);
#1335=ADVANCED_FACE('',(#149),#87,.F.);
#1336=ADVANCED_FACE('',(#150,#44,#45,#46,#47,#48,#49,#50,#51),#1273,.T.);
#1337=CLOSED_SHELL('',(#1274,#1275,#1276,#1277,#1278,#1279,#1280,#1281,
#1282,#1283,#1284,#1285,#1286,#1287,#1288,#1289,#1290,#1291,#1292,#1293,
#1294,#1295,#1296,#1297,#1298,#1299,#1300,#1301,#1302,#1303,#1304,#1305,
#1306,#1307,#1308,#1309,#1310,#1311,#1312,#1313,#1314,#1315,#1316,#1317,
#1318,#1319,#1320,#1321,#1322,#1323,#1324,#1325,#1326,#1327,#1328,#1329,
#1330,#1331,#1332,#1333,#1334,#1335,#1336));
#1338=DERIVED_UNIT_ELEMENT(#1340,1.);
#1339=DERIVED_UNIT_ELEMENT(#2139,-3.);
#1340=(
MASS_UNIT()
NAMED_UNIT(*)
SI_UNIT(.KILO.,.GRAM.)
);
#1341=DERIVED_UNIT((#1338,#1339));
#1342=MEASURE_REPRESENTATION_ITEM('density measure',
POSITIVE_RATIO_MEASURE(7850.),#1341);
#1343=PROPERTY_DEFINITION_REPRESENTATION(#1348,#1345);
#1344=PROPERTY_DEFINITION_REPRESENTATION(#1349,#1346);
#1345=REPRESENTATION('material name',(#1347),#2136);
#1346=REPRESENTATION('density',(#1342),#2136);
#1347=DESCRIPTIVE_REPRESENTATION_ITEM('Steel','Steel');
#1348=PROPERTY_DEFINITION('material property','material name',#2146);
#1349=PROPERTY_DEFINITION('material property','density of part',#2146);
#1350=AXIS2_PLACEMENT_3D('',#1770,#1438,#1439);
#1351=AXIS2_PLACEMENT_3D('',#1771,#1440,#1441);
#1352=AXIS2_PLACEMENT_3D('',#1780,#1446,#1447);
#1353=AXIS2_PLACEMENT_3D('',#1789,#1452,#1453);
#1354=AXIS2_PLACEMENT_3D('',#1795,#1457,#1458);
#1355=AXIS2_PLACEMENT_3D('',#1801,#1462,#1463);
#1356=AXIS2_PLACEMENT_3D('',#1807,#1467,#1468);
#1357=AXIS2_PLACEMENT_3D('',#1810,#1471,#1472);
#1358=AXIS2_PLACEMENT_3D('',#1816,#1476,#1477);
#1359=AXIS2_PLACEMENT_3D('',#1819,#1480,#1481);
#1360=AXIS2_PLACEMENT_3D('',#1828,#1486,#1487);
#1361=AXIS2_PLACEMENT_3D('',#1837,#1492,#1493);
#1362=AXIS2_PLACEMENT_3D('',#1843,#1497,#1498);
#1363=AXIS2_PLACEMENT_3D('',#1849,#1502,#1503);
#1364=AXIS2_PLACEMENT_3D('',#1855,#1507,#1508);
#1365=AXIS2_PLACEMENT_3D('',#1858,#1511,#1512);
#1366=AXIS2_PLACEMENT_3D('',#1864,#1516,#1517);
#1367=AXIS2_PLACEMENT_3D('',#1867,#1520,#1521);
#1368=AXIS2_PLACEMENT_3D('',#1876,#1526,#1527);
#1369=AXIS2_PLACEMENT_3D('',#1885,#1532,#1533);
#1370=AXIS2_PLACEMENT_3D('',#1891,#1537,#1538);
#1371=AXIS2_PLACEMENT_3D('',#1897,#1542,#1543);
#1372=AXIS2_PLACEMENT_3D('',#1903,#1547,#1548);
#1373=AXIS2_PLACEMENT_3D('',#1906,#1551,#1552);
#1374=AXIS2_PLACEMENT_3D('',#1912,#1556,#1557);
#1375=AXIS2_PLACEMENT_3D('',#1915,#1560,#1561);
#1376=AXIS2_PLACEMENT_3D('',#1924,#1566,#1567);
#1377=AXIS2_PLACEMENT_3D('',#1933,#1572,#1573);
#1378=AXIS2_PLACEMENT_3D('',#1939,#1577,#1578);
#1379=AXIS2_PLACEMENT_3D('',#1945,#1582,#1583);
#1380=AXIS2_PLACEMENT_3D('',#1951,#1587,#1588);
#1381=AXIS2_PLACEMENT_3D('',#1954,#1591,#1592);
#1382=AXIS2_PLACEMENT_3D('',#1960,#1596,#1597);
#1383=AXIS2_PLACEMENT_3D('',#1963,#1600,#1601);
#1384=AXIS2_PLACEMENT_3D('',#1972,#1606,#1607);
#1385=AXIS2_PLACEMENT_3D('',#1981,#1612,#1613);
#1386=AXIS2_PLACEMENT_3D('',#1987,#1617,#1618);
#1387=AXIS2_PLACEMENT_3D('',#1993,#1622,#1623);
#1388=AXIS2_PLACEMENT_3D('',#1999,#1627,#1628);
#1389=AXIS2_PLACEMENT_3D('',#2002,#1631,#1632);
#1390=AXIS2_PLACEMENT_3D('',#2008,#1636,#1637);
#1391=AXIS2_PLACEMENT_3D('',#2011,#1640,#1641);
#1392=AXIS2_PLACEMENT_3D('',#2014,#1642,#1643);
#1393=AXIS2_PLACEMENT_3D('',#2018,#1645,#1646);
#1394=AXIS2_PLACEMENT_3D('',#2020,#1648,#1649);
#1395=AXIS2_PLACEMENT_3D('',#2026,#1653,#1654);
#1396=AXIS2_PLACEMENT_3D('',#2030,#1656,#1657);
#1397=AXIS2_PLACEMENT_3D('',#2034,#1659,#1660);
#1398=AXIS2_PLACEMENT_3D('',#2037,#1662,#1663);
#1399=AXIS2_PLACEMENT_3D('',#2039,#1664,#1665);
#1400=AXIS2_PLACEMENT_3D('',#2041,#1666,#1667);
#1401=AXIS2_PLACEMENT_3D('',#2043,#1668,#1669);
#1402=AXIS2_PLACEMENT_3D('',#2045,#1670,#1671);
#1403=AXIS2_PLACEMENT_3D('',#2047,#1672,#1673);
#1404=AXIS2_PLACEMENT_3D('',#2049,#1674,#1675);
#1405=AXIS2_PLACEMENT_3D('',#2051,#1676,#1677);
#1406=AXIS2_PLACEMENT_3D('',#2053,#1678,#1679);
#1407=AXIS2_PLACEMENT_3D('',#2054,#1680,#1681);
#1408=AXIS2_PLACEMENT_3D('',#2056,#1682,#1683);
#1409=AXIS2_PLACEMENT_3D('',#2058,#1685,#1686);
#1410=AXIS2_PLACEMENT_3D('',#2062,#1689,#1690);
#1411=AXIS2_PLACEMENT_3D('',#2064,#1691,#1692);
#1412=AXIS2_PLACEMENT_3D('',#2066,#1694,#1695);
#1413=AXIS2_PLACEMENT_3D('',#2070,#1698,#1699);
#1414=AXIS2_PLACEMENT_3D('',#2072,#1700,#1701);
#1415=AXIS2_PLACEMENT_3D('',#2074,#1703,#1704);
#1416=AXIS2_PLACEMENT_3D('',#2083,#1709,#1710);
#1417=AXIS2_PLACEMENT_3D('',#2089,#1714,#1715);
#1418=AXIS2_PLACEMENT_3D('',#2095,#1719,#1720);
#1419=AXIS2_PLACEMENT_3D('',#2098,#1723,#1724);
#1420=AXIS2_PLACEMENT_3D('',#2100,#1726,#1727);
#1421=AXIS2_PLACEMENT_3D('',#2101,#1728,#1729);
#1422=AXIS2_PLACEMENT_3D('',#2103,#1730,#1731);
#1423=AXIS2_PLACEMENT_3D('',#2105,#1733,#1734);
#1424=AXIS2_PLACEMENT_3D('',#2107,#1735,#1736);
#1425=AXIS2_PLACEMENT_3D('',#2109,#1738,#1739);
#1426=AXIS2_PLACEMENT_3D('',#2111,#1740,#1741);
#1427=AXIS2_PLACEMENT_3D('',#2113,#1743,#1744);
#1428=AXIS2_PLACEMENT_3D('',#2115,#1745,#1746);
#1429=AXIS2_PLACEMENT_3D('',#2117,#1748,#1749);
#1430=AXIS2_PLACEMENT_3D('',#2119,#1750,#1751);
#1431=AXIS2_PLACEMENT_3D('',#2121,#1753,#1754);
#1432=AXIS2_PLACEMENT_3D('',#2123,#1755,#1756);
#1433=AXIS2_PLACEMENT_3D('',#2125,#1758,#1759);
#1434=AXIS2_PLACEMENT_3D('',#2127,#1760,#1761);
#1435=AXIS2_PLACEMENT_3D('',#2129,#1763,#1764);
#1436=AXIS2_PLACEMENT_3D('',#2131,#1765,#1766);
#1437=AXIS2_PLACEMENT_3D('',#2133,#1768,#1769);
#1438=DIRECTION('axis',(0.,0.,1.));
#1439=DIRECTION('refdir',(1.,0.,0.));
#1440=DIRECTION('center_axis',(0.,-1.,3.72525499336973E-9));
#1441=DIRECTION('ref_axis',(0.,-3.72525499336973E-9,-1.));
#1442=DIRECTION('',(1.11758933126386E-8,3.72525499336973E-9,1.));
#1443=DIRECTION('',(1.,0.,0.));
#1444=DIRECTION('',(-1.36642833800019E-16,-3.72525499336973E-9,-1.));
#1445=DIRECTION('',(1.,0.,0.));
#1446=DIRECTION('center_axis',(0.,-1.,3.72525499336973E-9));
#1447=DIRECTION('ref_axis',(0.,-3.72525499336973E-9,-1.));
#1448=DIRECTION('',(0.,-3.72525499336973E-9,-1.));
#1449=DIRECTION('',(1.,0.,0.));
#1450=DIRECTION('',(0.,3.72525499336973E-9,1.));
#1451=DIRECTION('',(1.,0.,0.));
#1452=DIRECTION('center_axis',(0.,-1.77635682351853E-15,-1.));
#1453=DIRECTION('ref_axis',(0.,1.,-1.77635682351853E-15));
#1454=DIRECTION('',(1.98523743448208E-23,-1.,1.77635682351853E-15));
#1455=DIRECTION('',(1.,0.,0.));
#1456=DIRECTION('',(-2.42726430205573E-31,1.,-1.77635682351853E-15));
#1457=DIRECTION('center_axis',(0.,-1.77635682351853E-15,-1.));
#1458=DIRECTION('ref_axis',(0.,1.,-1.77635682351853E-15));
#1459=DIRECTION('',(0.,1.,-1.77635682351853E-15));
#1460=DIRECTION('',(0.,-1.,1.77635682351853E-15));
#1461=DIRECTION('',(1.,0.,0.));
#1462=DIRECTION('center_axis',(0.,0.,1.));
#1463=DIRECTION('ref_axis',(0.,-1.,0.));
#1464=DIRECTION('',(0.,1.,0.));
#1465=DIRECTION('',(0.,-1.,0.));
#1466=DIRECTION('',(1.,0.,0.));
#1467=DIRECTION('center_axis',(0.,1.,-2.96059473233375E-16));
#1468=DIRECTION('ref_axis',(0.,2.96059473233375E-16,1.));
#1469=DIRECTION('',(-1.11758933126386E-8,-2.96059473233375E-16,-1.));
#1470=DIRECTION('',(1.36642833800019E-16,2.96059473233375E-16,1.));
#1471=DIRECTION('center_axis',(0.,1.,-2.96059473233375E-16));
#1472=DIRECTION('ref_axis',(0.,2.96059473233375E-16,1.));
#1473=DIRECTION('',(0.,2.96059473233375E-16,1.));
#1474=DIRECTION('',(0.,-2.96059473233375E-16,-1.));
#1475=DIRECTION('',(1.,0.,0.));
#1476=DIRECTION('center_axis',(0.,0.,1.));
#1477=DIRECTION('ref_axis',(0.,-1.,0.));
#1478=DIRECTION('',(0.,-1.,0.));
#1479=DIRECTION('',(0.,1.,0.));
#1480=DIRECTION('center_axis',(1.,3.9333615729577E-14,0.));
#1481=DIRECTION('ref_axis',(3.9333615729577E-14,-1.,0.));
#1482=DIRECTION('',(-3.9333615729577E-14,1.,1.95372601997653E-22));
#1483=DIRECTION('',(0.,0.,-1.));
#1484=DIRECTION('',(3.9333615729577E-14,-1.,0.));
#1485=DIRECTION('',(0.,0.,-1.));
#1486=DIRECTION('center_axis',(1.,3.9333615729577E-14,0.));
#1487=DIRECTION('ref_axis',(3.9333615729577E-14,-1.,0.));
#1488=DIRECTION('',(3.9333615729577E-14,-1.,0.));
#1489=DIRECTION('',(0.,0.,-1.));
#1490=DIRECTION('',(-3.9333615729577E-14,1.,0.));
#1491=DIRECTION('',(0.,0.,-1.));
#1492=DIRECTION('center_axis',(3.90798504668055E-14,-1.,0.));
#1493=DIRECTION('ref_axis',(-1.,-3.90798504668055E-14,0.));
#1494=DIRECTION('',(1.,3.90798504668055E-14,-4.96706438942359E-9));
#1495=DIRECTION('',(0.,0.,-1.));
#1496=DIRECTION('',(-1.,-3.90798504668055E-14,0.));
#1497=DIRECTION('center_axis',(3.90798504668055E-14,-1.,0.));
#1498=DIRECTION('ref_axis',(-1.,-3.90798504668055E-14,0.));
#1499=DIRECTION('',(-1.,-3.90798504668055E-14,0.));
#1500=DIRECTION('',(1.,3.90798504668055E-14,0.));
#1501=DIRECTION('',(0.,0.,-1.));
#1502=DIRECTION('center_axis',(-3.90798504668055E-14,1.,0.));
#1503=DIRECTION('ref_axis',(1.,3.90798504668055E-14,0.));
#1504=DIRECTION('',(-1.,-3.90798504668055E-14,4.96706438942359E-9));
#1505=DIRECTION('',(1.,3.90798504668055E-14,0.));
#1506=DIRECTION('',(0.,0.,-1.));
#1507=DIRECTION('center_axis',(-1.,-3.9333615729577E-14,0.));
#1508=DIRECTION('ref_axis',(-3.9333615729577E-14,1.,0.));
#1509=DIRECTION('',(3.9333615729577E-14,-1.,-1.95372601997653E-22));
#1510=DIRECTION('',(-3.9333615729577E-14,1.,0.));
#1511=DIRECTION('center_axis',(-1.,-3.9333615729577E-14,0.));
#1512=DIRECTION('ref_axis',(-3.9333615729577E-14,1.,0.));
#1513=DIRECTION('',(-3.9333615729577E-14,1.,0.));
#1514=DIRECTION('',(3.9333615729577E-14,-1.,0.));
#1515=DIRECTION('',(0.,0.,-1.));
#1516=DIRECTION('center_axis',(-3.90798504668055E-14,1.,0.));
#1517=DIRECTION('ref_axis',(1.,3.90798504668055E-14,0.));
#1518=DIRECTION('',(1.,3.90798504668055E-14,0.));
#1519=DIRECTION('',(-1.,-3.90798504668055E-14,0.));
#1520=DIRECTION('center_axis',(-1.,6.3441315692866E-16,0.));
#1521=DIRECTION('ref_axis',(6.3441315692866E-16,1.,0.));
#1522=DIRECTION('',(-6.3441315692866E-16,-1.,3.15117099996215E-24));
#1523=DIRECTION('',(0.,0.,-1.));
#1524=DIRECTION('',(6.3441315692866E-16,1.,0.));
#1525=DIRECTION('',(0.,0.,-1.));
#1526=DIRECTION('center_axis',(-1.,6.3441315692866E-16,0.));
#1527=DIRECTION('ref_axis',(6.3441315692866E-16,1.,0.));
#1528=DIRECTION('',(6.3441315692866E-16,1.,0.));
#1529=DIRECTION('',(0.,0.,-1.));
#1530=DIRECTION('',(-6.3441315692866E-16,-1.,0.));
#1531=DIRECTION('',(0.,0.,-1.));
#1532=DIRECTION('center_axis',(0.,1.,0.));
#1533=DIRECTION('ref_axis',(1.,0.,0.));
#1534=DIRECTION('',(-1.,0.,4.96706438942359E-9));
#1535=DIRECTION('',(0.,0.,-1.));
#1536=DIRECTION('',(1.,0.,0.));
#1537=DIRECTION('center_axis',(0.,1.,0.));
#1538=DIRECTION('ref_axis',(1.,0.,0.));
#1539=DIRECTION('',(1.,0.,0.));
#1540=DIRECTION('',(-1.,0.,0.));
#1541=DIRECTION('',(0.,0.,-1.));
#1542=DIRECTION('center_axis',(0.,-1.,0.));
#1543=DIRECTION('ref_axis',(-1.,0.,0.));
#1544=DIRECTION('',(1.,0.,-4.96706438942359E-9));
#1545=DIRECTION('',(-1.,0.,0.));
#1546=DIRECTION('',(0.,0.,-1.));
#1547=DIRECTION('center_axis',(1.,0.,0.));
#1548=DIRECTION('ref_axis',(0.,-1.,0.));
#1549=DIRECTION('',(0.,1.,0.));
#1550=DIRECTION('',(0.,-1.,0.));
#1551=DIRECTION('center_axis',(1.,0.,0.));
#1552=DIRECTION('ref_axis',(0.,-1.,0.));
#1553=DIRECTION('',(0.,-1.,0.));
#1554=DIRECTION('',(0.,1.,0.));
#1555=DIRECTION('',(0.,0.,-1.));
#1556=DIRECTION('center_axis',(0.,-1.,0.));
#1557=DIRECTION('ref_axis',(-1.,0.,0.));
#1558=DIRECTION('',(-1.,0.,0.));
#1559=DIRECTION('',(1.,0.,0.));
#1560=DIRECTION('center_axis',(1.,0.,0.));
#1561=DIRECTION('ref_axis',(0.,-1.,0.));
#1562=DIRECTION('',(0.,1.,0.));
#1563=DIRECTION('',(0.,0.,-1.));
#1564=DIRECTION('',(0.,-1.,0.));
#1565=DIRECTION('',(0.,0.,-1.));
#1566=DIRECTION('center_axis',(1.,0.,0.));
#1567=DIRECTION('ref_axis',(0.,-1.,0.));
#1568=DIRECTION('',(0.,-1.,0.));
#1569=DIRECTION('',(0.,0.,-1.));
#1570=DIRECTION('',(0.,1.,0.));
#1571=DIRECTION('',(0.,0.,-1.));
#1572=DIRECTION('center_axis',(0.,-1.,0.));
#1573=DIRECTION('ref_axis',(-1.,0.,0.));
#1574=DIRECTION('',(1.,0.,-4.96706438942359E-9));
#1575=DIRECTION('',(0.,0.,-1.));
#1576=DIRECTION('',(-1.,0.,0.));
#1577=DIRECTION('center_axis',(0.,-1.,0.));
#1578=DIRECTION('ref_axis',(-1.,0.,0.));
#1579=DIRECTION('',(-1.,0.,0.));
#1580=DIRECTION('',(1.,0.,0.));
#1581=DIRECTION('',(0.,0.,-1.));
#1582=DIRECTION('center_axis',(0.,1.,0.));
#1583=DIRECTION('ref_axis',(1.,0.,0.));
#1584=DIRECTION('',(-1.,0.,4.96706438942359E-9));
#1585=DIRECTION('',(1.,0.,0.));
#1586=DIRECTION('',(0.,0.,-1.));
#1587=DIRECTION('center_axis',(-1.,0.,0.));
#1588=DIRECTION('ref_axis',(0.,1.,0.));
#1589=DIRECTION('',(0.,-1.,0.));
#1590=DIRECTION('',(0.,1.,0.));
#1591=DIRECTION('center_axis',(-1.,0.,0.));
#1592=DIRECTION('ref_axis',(0.,1.,0.));
#1593=DIRECTION('',(0.,1.,0.));
#1594=DIRECTION('',(0.,-1.,0.));
#1595=DIRECTION('',(0.,0.,-1.));
#1596=DIRECTION('center_axis',(0.,1.,0.));
#1597=DIRECTION('ref_axis',(1.,0.,0.));
#1598=DIRECTION('',(1.,0.,0.));
#1599=DIRECTION('',(-1.,0.,0.));
#1600=DIRECTION('center_axis',(1.,3.86992025726483E-14,0.));
#1601=DIRECTION('ref_axis',(3.86992025726483E-14,-1.,0.));
#1602=DIRECTION('',(-3.86992025726483E-14,1.,1.92221430997691E-22));
#1603=DIRECTION('',(0.,0.,-1.));
#1604=DIRECTION('',(3.86992025726483E-14,-1.,0.));
#1605=DIRECTION('',(0.,0.,-1.));
#1606=DIRECTION('center_axis',(1.,3.86992025726483E-14,0.));
#1607=DIRECTION('ref_axis',(3.86992025726483E-14,-1.,0.));
#1608=DIRECTION('',(3.86992025726483E-14,-1.,0.));
#1609=DIRECTION('',(0.,0.,-1.));
#1610=DIRECTION('',(-3.86992025726483E-14,1.,0.));
#1611=DIRECTION('',(0.,0.,-1.));
#1612=DIRECTION('center_axis',(3.90798504668055E-14,-1.,0.));
#1613=DIRECTION('ref_axis',(-1.,-3.90798504668055E-14,0.));
#1614=DIRECTION('',(1.,3.90798504668055E-14,-4.96706438942359E-9));
#1615=DIRECTION('',(0.,0.,-1.));
#1616=DIRECTION('',(-1.,-3.90798504668055E-14,0.));
#1617=DIRECTION('center_axis',(3.90798504668055E-14,-1.,0.));
#1618=DIRECTION('ref_axis',(-1.,-3.90798504668055E-14,0.));
#1619=DIRECTION('',(-1.,-3.90798504668055E-14,0.));
#1620=DIRECTION('',(1.,3.90798504668055E-14,0.));
#1621=DIRECTION('',(0.,0.,-1.));
#1622=DIRECTION('center_axis',(-3.90798504668055E-14,1.,0.));
#1623=DIRECTION('ref_axis',(1.,3.90798504668055E-14,0.));
#1624=DIRECTION('',(-1.,-3.90798504668055E-14,4.96706438942359E-9));
#1625=DIRECTION('',(1.,3.90798504668055E-14,0.));
#1626=DIRECTION('',(0.,0.,-1.));
#1627=DIRECTION('center_axis',(-1.,-3.9333615729577E-14,0.));
#1628=DIRECTION('ref_axis',(-3.9333615729577E-14,1.,0.));
#1629=DIRECTION('',(3.9333615729577E-14,-1.,-1.95372601997653E-22));
#1630=DIRECTION('',(-3.9333615729577E-14,1.,0.));
#1631=DIRECTION('center_axis',(-1.,-3.9333615729577E-14,0.));
#1632=DIRECTION('ref_axis',(-3.9333615729577E-14,1.,0.));
#1633=DIRECTION('',(-3.9333615729577E-14,1.,0.));
#1634=DIRECTION('',(3.9333615729577E-14,-1.,0.));
#1635=DIRECTION('',(0.,0.,-1.));
#1636=DIRECTION('center_axis',(-3.90798504668055E-14,1.,0.));
#1637=DIRECTION('ref_axis',(1.,3.90798504668055E-14,0.));
#1638=DIRECTION('',(1.,3.90798504668055E-14,0.));
#1639=DIRECTION('',(-1.,-3.90798504668055E-14,0.));
#1640=DIRECTION('center_axis',(0.,1.,0.));
#1641=DIRECTION('ref_axis',(-0.707106781186549,0.,-0.707106781186546));
#1642=DIRECTION('center_axis',(0.,-1.,0.));
#1643=DIRECTION('ref_axis',(-0.707106781186549,0.,-0.707106781186546));
#1644=DIRECTION('',(0.,-1.,0.));
#1645=DIRECTION('center_axis',(0.,1.,0.));
#1646=DIRECTION('ref_axis',(-0.707106781186549,0.,-0.707106781186546));
#1647=DIRECTION('',(0.,1.,0.));
#1648=DIRECTION('center_axis',(-1.,0.,1.36642833800019E-16));
#1649=DIRECTION('ref_axis',(1.36642833800019E-16,0.,1.));
#1650=DIRECTION('',(-1.36642833800019E-16,0.,-1.));
#1651=DIRECTION('',(0.,-1.,0.));
#1652=DIRECTION('',(1.36642833800019E-16,0.,1.));
#1653=DIRECTION('center_axis',(0.,1.,0.));
#1654=DIRECTION('ref_axis',(1.,0.,0.));
#1655=DIRECTION('',(1.,0.,0.));
#1656=DIRECTION('center_axis',(0.,1.,0.));
#1657=DIRECTION('ref_axis',(0.707106781186549,0.,-0.707106781186546));
#1658=DIRECTION('',(0.,0.,1.));
#1659=DIRECTION('center_axis',(0.,1.,0.));
#1660=DIRECTION('ref_axis',(0.707106781186549,0.,0.707106781186546));
#1661=DIRECTION('',(-1.,0.,0.));
#1662=DIRECTION('center_axis',(0.,1.,0.));
#1663=DIRECTION('ref_axis',(-0.707106781186547,0.,0.707106781186548));
#1664=DIRECTION('center_axis',(0.,-1.,0.));
#1665=DIRECTION('ref_axis',(1.,0.,0.));
#1666=DIRECTION('center_axis',(0.,-1.,0.));
#1667=DIRECTION('ref_axis',(1.,0.,0.));
#1668=DIRECTION('center_axis',(0.,-1.,0.));
#1669=DIRECTION('ref_axis',(1.,0.,0.));
#1670=DIRECTION('center_axis',(0.,-1.,0.));
#1671=DIRECTION('ref_axis',(1.,0.,0.));
#1672=DIRECTION('center_axis',(0.,-1.,0.));
#1673=DIRECTION('ref_axis',(1.,0.,0.));
#1674=DIRECTION('center_axis',(0.,-1.,0.));
#1675=DIRECTION('ref_axis',(1.,0.,0.));
#1676=DIRECTION('center_axis',(0.,-1.,0.));
#1677=DIRECTION('ref_axis',(1.,0.,0.));
#1678=DIRECTION('center_axis',(0.,-1.,0.));
#1679=DIRECTION('ref_axis',(1.,0.,0.));
#1680=DIRECTION('center_axis',(0.,1.,0.));
#1681=DIRECTION('ref_axis',(-0.707106781186547,0.,0.707106781186548));
#1682=DIRECTION('center_axis',(0.,-1.,0.));
#1683=DIRECTION('ref_axis',(-0.707106781186547,0.,0.707106781186548));
#1684=DIRECTION('',(0.,1.,0.));
#1685=DIRECTION('center_axis',(0.,0.,1.));
#1686=DIRECTION('ref_axis',(1.,0.,0.));
#1687=DIRECTION('',(0.,-1.,0.));
#1688=DIRECTION('',(1.,0.,0.));
#1689=DIRECTION('center_axis',(0.,1.,0.));
#1690=DIRECTION('ref_axis',(0.707106781186549,0.,0.707106781186546));
#1691=DIRECTION('center_axis',(0.,-1.,0.));
#1692=DIRECTION('ref_axis',(0.707106781186549,0.,0.707106781186546));
#1693=DIRECTION('',(0.,1.,0.));
#1694=DIRECTION('center_axis',(1.,0.,0.));
#1695=DIRECTION('ref_axis',(0.,0.,-1.));
#1696=DIRECTION('',(0.,-1.,0.));
#1697=DIRECTION('',(0.,0.,-1.));
#1698=DIRECTION('center_axis',(0.,1.,0.));
#1699=DIRECTION('ref_axis',(0.707106781186549,0.,-0.707106781186546));
#1700=DIRECTION('center_axis',(0.,-1.,0.));
#1701=DIRECTION('ref_axis',(0.707106781186549,0.,-0.707106781186546));
#1702=DIRECTION('',(0.,1.,0.));
#1703=DIRECTION('center_axis',(0.,0.,1.));
#1704=DIRECTION('ref_axis',(1.,0.,0.));
#1705=DIRECTION('',(-1.,0.,0.));
#1706=DIRECTION('',(0.,1.,0.));
#1707=DIRECTION('',(1.,0.,0.));
#1708=DIRECTION('',(0.,1.,0.));
#1709=DIRECTION('center_axis',(-1.,0.,0.));
#1710=DIRECTION('ref_axis',(0.,0.,1.));
#1711=DIRECTION('',(0.,0.,-1.));
#1712=DIRECTION('',(0.,1.,0.));
#1713=DIRECTION('',(0.,0.,1.));
#1714=DIRECTION('center_axis',(1.,0.,-1.11758933126386E-8));
#1715=DIRECTION('ref_axis',(-1.11758933126386E-8,0.,-1.));
#1716=DIRECTION('',(1.11758933126386E-8,0.,1.));
#1717=DIRECTION('',(-1.11758933126386E-8,0.,-1.));
#1718=DIRECTION('',(0.,1.,0.));
#1719=DIRECTION('center_axis',(-4.96706438942359E-9,0.,-1.));
#1720=DIRECTION('ref_axis',(-1.,0.,4.96706438942359E-9));
#1721=DIRECTION('',(1.,0.,-4.96706438942359E-9));
#1722=DIRECTION('',(-1.,0.,4.96706438942359E-9));
#1723=DIRECTION('center_axis',(0.,0.,-1.));
#1724=DIRECTION('ref_axis',(-1.,0.,0.));
#1725=DIRECTION('',(-1.,0.,0.));
#1726=DIRECTION('center_axis',(0.,1.,0.));
#1727=DIRECTION('ref_axis',(0.,0.,1.));
#1728=DIRECTION('center_axis',(0.,1.,0.));
#1729=DIRECTION('ref_axis',(1.,0.,0.));
#1730=DIRECTION('center_axis',(0.,-1.,0.));
#1731=DIRECTION('ref_axis',(1.,0.,0.));
#1732=DIRECTION('',(0.,-1.,0.));
#1733=DIRECTION('center_axis',(0.,1.,0.));
#1734=DIRECTION('ref_axis',(1.,0.,0.));
#1735=DIRECTION('center_axis',(0.,-1.,0.));
#1736=DIRECTION('ref_axis',(1.,0.,0.));
#1737=DIRECTION('',(0.,-1.,0.));
#1738=DIRECTION('center_axis',(0.,1.,0.));
#1739=DIRECTION('ref_axis',(1.,0.,0.));
#1740=DIRECTION('center_axis',(0.,-1.,0.));
#1741=DIRECTION('ref_axis',(1.,0.,0.));
#1742=DIRECTION('',(0.,-1.,0.));
#1743=DIRECTION('center_axis',(0.,1.,0.));
#1744=DIRECTION('ref_axis',(1.,0.,0.));
#1745=DIRECTION('center_axis',(0.,-1.,0.));
#1746=DIRECTION('ref_axis',(1.,0.,0.));
#1747=DIRECTION('',(0.,-1.,0.));
#1748=DIRECTION('center_axis',(0.,1.,0.));
#1749=DIRECTION('ref_axis',(1.,0.,0.));
#1750=DIRECTION('center_axis',(0.,-1.,0.));
#1751=DIRECTION('ref_axis',(1.,0.,0.));
#1752=DIRECTION('',(0.,-1.,0.));
#1753=DIRECTION('center_axis',(0.,1.,0.));
#1754=DIRECTION('ref_axis',(1.,0.,0.));
#1755=DIRECTION('center_axis',(0.,-1.,0.));
#1756=DIRECTION('ref_axis',(1.,0.,0.));
#1757=DIRECTION('',(0.,-1.,0.));
#1758=DIRECTION('center_axis',(0.,1.,0.));
#1759=DIRECTION('ref_axis',(1.,0.,0.));
#1760=DIRECTION('center_axis',(0.,-1.,0.));
#1761=DIRECTION('ref_axis',(1.,0.,0.));
#1762=DIRECTION('',(0.,-1.,0.));
#1763=DIRECTION('center_axis',(0.,1.,0.));
#1764=DIRECTION('ref_axis',(1.,0.,0.));
#1765=DIRECTION('center_axis',(0.,-1.,0.));
#1766=DIRECTION('ref_axis',(1.,0.,0.));
#1767=DIRECTION('',(0.,-1.,0.));
#1768=DIRECTION('center_axis',(0.,1.,0.));
#1769=DIRECTION('ref_axis',(1.,0.,0.));
#1770=CARTESIAN_POINT('',(0.,0.,0.));
#1771=CARTESIAN_POINT('Origin',(-47.5000000000006,12.5000001117575,15.0000000109969));
#1772=CARTESIAN_POINT('',(-45.0000005029152,12.4999999999999,-14.9999999890031));
#1773=CARTESIAN_POINT('',(-45.0000001676384,12.5000001117575,15.0000000109969));
#1774=CARTESIAN_POINT('',(-45.0000000838192,12.5000001396969,22.4999999682458));
#1775=CARTESIAN_POINT('',(-47.5000000000006,12.4999999999999,-14.9999999890031));
#1776=CARTESIAN_POINT('',(-47.5000000000006,12.4999999999999,-14.9999999890031));
#1777=CARTESIAN_POINT('',(-47.5000000000006,12.5000001117575,15.0000000109969));
#1778=CARTESIAN_POINT('',(-47.5000000000006,12.5000000232827,-8.75000001778458));
#1779=CARTESIAN_POINT('',(-47.5000000000006,12.5000001117575,15.0000000109969));
#1780=CARTESIAN_POINT('Origin',(-47.5000000000006,12.5000001117575,15.0000000109969));
#1781=CARTESIAN_POINT('',(45.,12.5000001117575,15.0000000109969));
#1782=CARTESIAN_POINT('',(45.,12.4999999999999,-14.9999999890031));
#1783=CARTESIAN_POINT('',(45.,12.5000000279393,-7.50000024130226));
#1784=CARTESIAN_POINT('',(47.4999999999994,12.5000001117575,15.0000000109969));
#1785=CARTESIAN_POINT('',(-47.5000000000006,12.5000001117575,15.0000000109969));
#1786=CARTESIAN_POINT('',(47.4999999999994,12.4999999999999,-14.9999999890031));
#1787=CARTESIAN_POINT('',(47.4999999999994,12.5000001443535,23.7499999822154));
#1788=CARTESIAN_POINT('',(-47.5000000000006,12.4999999999999,-14.9999999890031));
#1789=CARTESIAN_POINT('Origin',(-47.5000000000006,12.4999999999999,-14.9999999890031));
#1790=CARTESIAN_POINT('',(-45.0000005029152,25.0000001117575,-14.9999999890031));
#1791=CARTESIAN_POINT('',(-45.0000005029152,6.2499999999999,-14.999999989003));
#1792=CARTESIAN_POINT('',(-47.5000000000006,25.0000001117575,-14.9999999890031));
#1793=CARTESIAN_POINT('',(-47.5000000000006,25.0000001117575,-14.9999999890031));
#1794=CARTESIAN_POINT('',(-47.5000000000006,6.24999999999995,-14.999999989003));
#1795=CARTESIAN_POINT('Origin',(-47.5000000000006,12.4999999999999,-14.9999999890031));
#1796=CARTESIAN_POINT('',(45.,25.0000001117575,-14.9999999890031));
#1797=CARTESIAN_POINT('',(45.,6.24999999999995,-14.999999989003));
#1798=CARTESIAN_POINT('',(47.4999999999994,25.0000001117575,-14.9999999890031));
#1799=CARTESIAN_POINT('',(47.4999999999994,6.24999999999989,-14.999999989003));
#1800=CARTESIAN_POINT('',(-47.5000000000006,25.0000001117575,-14.9999999890031));
#1801=CARTESIAN_POINT('Origin',(-47.5000000000006,25.0000001117575,15.0000000109969));
#1802=CARTESIAN_POINT('',(-45.0000001676384,25.0000001117575,15.0000000109969));
#1803=CARTESIAN_POINT('',(-45.0000001676384,12.5000000558788,15.0000000109969));
#1804=CARTESIAN_POINT('',(-47.5000000000006,25.0000001117575,15.0000000109969));
#1805=CARTESIAN_POINT('',(-47.5000000000006,12.5000000558788,15.0000000109969));
#1806=CARTESIAN_POINT('',(-47.5000000000006,25.0000001117575,15.0000000109969));
#1807=CARTESIAN_POINT('Origin',(-47.5000000000006,25.0000001117575,-14.9999999890031));
#1808=CARTESIAN_POINT('',(-45.0000002514576,25.0000001117575,7.49999999152862));
#1809=CARTESIAN_POINT('',(-47.5000000000006,25.0000001117575,-23.7499999945017));
#1810=CARTESIAN_POINT('Origin',(-47.5000000000006,25.0000001117575,-14.9999999890031));
#1811=CARTESIAN_POINT('',(45.,25.0000001117575,15.0000000109969));
#1812=CARTESIAN_POINT('',(45.,25.0000001117575,-22.5000002180194));
#1813=CARTESIAN_POINT('',(47.4999999999994,25.0000001117575,15.0000000109969));
#1814=CARTESIAN_POINT('',(47.4999999999994,25.0000001117575,8.75000000549825));
#1815=CARTESIAN_POINT('',(-47.5000000000006,25.0000001117575,15.0000000109969));
#1816=CARTESIAN_POINT('Origin',(-47.5000000000006,25.0000001117575,15.0000000109969));
#1817=CARTESIAN_POINT('',(45.,12.5000000558788,15.0000000109969));
#1818=CARTESIAN_POINT('',(47.4999999999994,12.5000000558788,15.0000000109969));
#1819=CARTESIAN_POINT('Origin',(34.9999999999995,25.0000000000007,32.4999999999996));
#1820=CARTESIAN_POINT('',(34.9999999999998,18.0000000000007,29.9999996026349));
#1821=CARTESIAN_POINT('',(34.9999999999995,25.0000000000007,29.9999996026349));
#1822=CARTESIAN_POINT('',(35.,12.5000000000001,29.9999996026349));
#1823=CARTESIAN_POINT('',(34.9999999999998,18.0000000000007,32.4999999999996));
#1824=CARTESIAN_POINT('',(34.9999999999998,18.0000000000007,32.4999999999996));
#1825=CARTESIAN_POINT('',(34.9999999999995,25.0000000000007,32.4999999999996));
#1826=CARTESIAN_POINT('',(35.,12.500000000002,32.4999999999996));
#1827=CARTESIAN_POINT('',(34.9999999999995,25.0000000000007,32.4999999999996));
#1828=CARTESIAN_POINT('Origin',(34.9999999999995,25.0000000000007,32.4999999999996));
#1829=CARTESIAN_POINT('',(34.9999999999995,25.0000000000007,-30.0000004470358));
#1830=CARTESIAN_POINT('',(34.9999999999998,18.0000000000007,-30.0000004470358));
#1831=CARTESIAN_POINT('',(35.,12.5000000000019,-30.0000004470358));
#1832=CARTESIAN_POINT('',(34.9999999999995,25.0000000000007,-32.5000000000004));
#1833=CARTESIAN_POINT('',(34.9999999999995,25.0000000000007,32.4999999999996));
#1834=CARTESIAN_POINT('',(34.9999999999998,18.0000000000007,-32.5000000000004));
#1835=CARTESIAN_POINT('',(35.,12.5000000000001,-32.5000000000004));
#1836=CARTESIAN_POINT('',(34.9999999999998,18.0000000000007,32.4999999999996));
#1837=CARTESIAN_POINT('Origin',(34.9999999999998,18.0000000000007,32.4999999999996));
#1838=CARTESIAN_POINT('',(14.9999999999998,17.9999999999999,29.9999997019762));
#1839=CARTESIAN_POINT('',(39.9999999937907,18.0000000000009,29.9999995777996));
#1840=CARTESIAN_POINT('',(14.9999999999998,17.9999999999999,32.4999999999996));
#1841=CARTESIAN_POINT('',(14.9999999999998,17.9999999999999,32.4999999999996));
#1842=CARTESIAN_POINT('',(-6.25000000000076,17.9999999999991,32.4999999999996));
#1843=CARTESIAN_POINT('Origin',(34.9999999999998,18.0000000000007,32.4999999999996));
#1844=CARTESIAN_POINT('',(14.9999999999998,17.9999999999999,-30.0000004470358));
#1845=CARTESIAN_POINT('',(-5.00000033527729,17.9999999999991,-30.0000004470358));
#1846=CARTESIAN_POINT('',(14.9999999999998,17.9999999999999,-32.5000000000004));
#1847=CARTESIAN_POINT('',(41.2499999999992,18.0000000000009,-32.5000000000004));
#1848=CARTESIAN_POINT('',(14.9999999999998,17.9999999999999,32.4999999999996));
#1849=CARTESIAN_POINT('Origin',(14.9999999999995,24.9999999999999,32.4999999999996));
#1850=CARTESIAN_POINT('',(14.9999999999995,24.9999999999999,29.9999997019762));
#1851=CARTESIAN_POINT('',(29.9999999937904,25.0000000000005,29.9999996274702));
#1852=CARTESIAN_POINT('',(14.9999999999995,24.9999999999999,32.4999999999996));
#1853=CARTESIAN_POINT('',(-16.250000000001,24.9999999999987,32.4999999999996));
#1854=CARTESIAN_POINT('',(14.9999999999995,24.9999999999999,32.4999999999996));
#1855=CARTESIAN_POINT('Origin',(14.9999999999998,17.9999999999999,32.4999999999996));
#1856=CARTESIAN_POINT('',(15.0000000000001,8.99999999999936,29.9999997019762));
#1857=CARTESIAN_POINT('',(15.0000000000001,9.00000000000118,32.4999999999996));
#1858=CARTESIAN_POINT('Origin',(14.9999999999998,17.9999999999999,32.4999999999996));
#1859=CARTESIAN_POINT('',(14.9999999999995,24.9999999999999,-30.0000004470358));
#1860=CARTESIAN_POINT('',(15.0000000000001,9.00000000000113,-30.0000004470358));
#1861=CARTESIAN_POINT('',(14.9999999999995,24.9999999999999,-32.5000000000004));
#1862=CARTESIAN_POINT('',(15.0000000000001,8.99999999999931,-32.5000000000004));
#1863=CARTESIAN_POINT('',(14.9999999999995,24.9999999999999,32.4999999999996));
#1864=CARTESIAN_POINT('Origin',(14.9999999999995,24.9999999999999,32.4999999999996));
#1865=CARTESIAN_POINT('',(-15.0000003352776,24.9999999999987,-30.0000004470358));
#1866=CARTESIAN_POINT('',(31.249999999999,25.0000000000005,-32.5000000000004));
#1867=CARTESIAN_POINT('Origin',(14.9999999999998,5.00000000000028,32.4999999999996));
#1868=CARTESIAN_POINT('',(14.9999999999998,12.0000000000003,29.9999997019762));
#1869=CARTESIAN_POINT('',(14.9999999999998,5.00000000000028,29.9999997019762));
#1870=CARTESIAN_POINT('',(14.9999999999998,2.50000000000015,29.9999997019762));
#1871=CARTESIAN_POINT('',(14.9999999999998,12.0000000000003,32.4999999999996));
#1872=CARTESIAN_POINT('',(14.9999999999998,12.0000000000003,32.4999999999996));
#1873=CARTESIAN_POINT('',(14.9999999999998,5.00000000000028,32.4999999999996));
#1874=CARTESIAN_POINT('',(14.9999999999998,2.50000000000012,32.4999999999996));
#1875=CARTESIAN_POINT('',(14.9999999999998,5.00000000000028,32.4999999999996));
#1876=CARTESIAN_POINT('Origin',(14.9999999999998,5.00000000000028,32.4999999999996));
#1877=CARTESIAN_POINT('',(14.9999999999998,5.00000000000028,-30.0000004470358));
#1878=CARTESIAN_POINT('',(14.9999999999998,12.0000000000003,-30.0000004470358));
#1879=CARTESIAN_POINT('',(14.9999999999998,2.50000000000012,-30.0000004470358));
#1880=CARTESIAN_POINT('',(14.9999999999998,5.00000000000028,-32.5000000000004));
#1881=CARTESIAN_POINT('',(14.9999999999998,5.00000000000028,32.4999999999996));
#1882=CARTESIAN_POINT('',(14.9999999999998,12.0000000000003,-32.5000000000004));
#1883=CARTESIAN_POINT('',(14.9999999999998,2.50000000000015,-32.5000000000004));
#1884=CARTESIAN_POINT('',(14.9999999999998,12.0000000000003,32.4999999999996));
#1885=CARTESIAN_POINT('Origin',(14.9999999999998,12.0000000000003,32.4999999999996));
#1886=CARTESIAN_POINT('',(34.9999999999998,12.0000000000003,29.9999996026349));
#1887=CARTESIAN_POINT('',(29.9999999937911,12.0000000000003,29.9999996274702));
#1888=CARTESIAN_POINT('',(34.9999999999998,12.0000000000003,32.4999999999996));
#1889=CARTESIAN_POINT('',(34.9999999999998,12.0000000000003,32.4999999999996));
#1890=CARTESIAN_POINT('',(-16.2500000000004,12.0000000000003,32.4999999999996));
#1891=CARTESIAN_POINT('Origin',(14.9999999999998,12.0000000000003,32.4999999999996));
#1892=CARTESIAN_POINT('',(34.9999999999998,12.0000000000003,-30.0000004470358));
#1893=CARTESIAN_POINT('',(-15.0000003352769,12.0000000000003,-30.0000004470358));
#1894=CARTESIAN_POINT('',(34.9999999999998,12.0000000000003,-32.5000000000004));
#1895=CARTESIAN_POINT('',(31.2499999999996,12.0000000000003,-32.5000000000004));
#1896=CARTESIAN_POINT('',(34.9999999999998,12.0000000000003,32.4999999999996));
#1897=CARTESIAN_POINT('Origin',(34.9999999999998,5.00000000000028,32.4999999999996));
#1898=CARTESIAN_POINT('',(34.9999999999998,5.00000000000028,29.9999996026349));
#1899=CARTESIAN_POINT('',(39.9999999937911,5.00000000000028,29.9999995777996));
#1900=CARTESIAN_POINT('',(34.9999999999998,5.00000000000028,32.4999999999996));
#1901=CARTESIAN_POINT('',(-6.25000000000037,5.00000000000028,32.4999999999996));
#1902=CARTESIAN_POINT('',(34.9999999999998,5.00000000000028,32.4999999999996));
#1903=CARTESIAN_POINT('Origin',(34.9999999999998,12.0000000000003,32.4999999999996));
#1904=CARTESIAN_POINT('',(34.9999999999998,6.00000000000014,29.9999996026349));
#1905=CARTESIAN_POINT('',(34.9999999999998,6.00000000000014,32.4999999999996));
#1906=CARTESIAN_POINT('Origin',(34.9999999999998,12.0000000000003,32.4999999999996));
#1907=CARTESIAN_POINT('',(34.9999999999998,5.00000000000028,-30.0000004470358));
#1908=CARTESIAN_POINT('',(34.9999999999998,6.00000000000014,-30.0000004470358));
#1909=CARTESIAN_POINT('',(34.9999999999998,5.00000000000028,-32.5000000000004));
#1910=CARTESIAN_POINT('',(34.9999999999998,6.00000000000014,-32.5000000000004));
#1911=CARTESIAN_POINT('',(34.9999999999998,5.00000000000028,32.4999999999996));
#1912=CARTESIAN_POINT('Origin',(34.9999999999998,5.00000000000028,32.4999999999996));
#1913=CARTESIAN_POINT('',(-5.0000003352769,5.00000000000028,-30.0000004470358));
#1914=CARTESIAN_POINT('',(41.2499999999996,5.00000000000028,-32.5000000000004));
#1915=CARTESIAN_POINT('Origin',(-15.0000000000005,24.9999999999993,32.4999999999996));
#1916=CARTESIAN_POINT('',(-15.0000000000005,17.9999999999993,29.9999998509881));
#1917=CARTESIAN_POINT('',(-15.0000000000005,24.9999999999993,29.9999998509881));
#1918=CARTESIAN_POINT('',(-15.0000000000005,12.4999999999997,29.9999998509881));
#1919=CARTESIAN_POINT('',(-15.0000000000005,17.9999999999993,32.4999999999996));
#1920=CARTESIAN_POINT('',(-15.0000000000005,17.9999999999993,32.4999999999996));
#1921=CARTESIAN_POINT('',(-15.0000000000005,24.9999999999993,32.4999999999996));
#1922=CARTESIAN_POINT('',(-15.0000000000005,12.4999999999997,32.4999999999996));
#1923=CARTESIAN_POINT('',(-15.0000000000005,24.9999999999993,32.4999999999996));
#1924=CARTESIAN_POINT('Origin',(-15.0000000000005,24.9999999999993,32.4999999999996));
#1925=CARTESIAN_POINT('',(-15.0000000000005,24.9999999999993,-30.0000004470358));
#1926=CARTESIAN_POINT('',(-15.0000000000005,17.9999999999993,-30.0000004470358));
#1927=CARTESIAN_POINT('',(-15.0000000000005,12.4999999999997,-30.0000004470358));
#1928=CARTESIAN_POINT('',(-15.0000000000005,24.9999999999993,-32.5000000000004));
#1929=CARTESIAN_POINT('',(-15.0000000000005,24.9999999999993,32.4999999999996));
#1930=CARTESIAN_POINT('',(-15.0000000000005,17.9999999999993,-32.5000000000004));
#1931=CARTESIAN_POINT('',(-15.0000000000005,12.4999999999997,-32.5000000000004));
#1932=CARTESIAN_POINT('',(-15.0000000000005,17.9999999999993,32.4999999999996));
#1933=CARTESIAN_POINT('Origin',(-15.0000000000005,17.9999999999993,32.4999999999996));
#1934=CARTESIAN_POINT('',(-35.0000000000005,17.9999999999993,29.9999999503294));
#1935=CARTESIAN_POINT('',(14.9999999937909,17.9999999999993,29.9999997019762));
#1936=CARTESIAN_POINT('',(-35.0000000000005,17.9999999999993,32.4999999999996));
#1937=CARTESIAN_POINT('',(-35.0000000000005,17.9999999999993,32.4999999999996));
#1938=CARTESIAN_POINT('',(-31.2500000000005,17.9999999999993,32.4999999999996));
#1939=CARTESIAN_POINT('Origin',(-15.0000000000005,17.9999999999993,32.4999999999996));
#1940=CARTESIAN_POINT('',(-35.0000000000005,17.9999999999993,-30.0000004470358));
#1941=CARTESIAN_POINT('',(-30.000000335277,17.9999999999993,-30.0000004470358));
#1942=CARTESIAN_POINT('',(-35.0000000000005,17.9999999999993,-32.5000000000004));
#1943=CARTESIAN_POINT('',(16.2499999999995,17.9999999999993,-32.5000000000004));
#1944=CARTESIAN_POINT('',(-35.0000000000005,17.9999999999993,32.4999999999996));
#1945=CARTESIAN_POINT('Origin',(-35.0000000000005,24.9999999999993,32.4999999999996));
#1946=CARTESIAN_POINT('',(-35.0000000000005,24.9999999999993,29.9999999503294));
#1947=CARTESIAN_POINT('',(4.99999999379094,24.9999999999993,29.9999997516468));
#1948=CARTESIAN_POINT('',(-35.0000000000005,24.9999999999993,32.4999999999996));
#1949=CARTESIAN_POINT('',(-41.2500000000005,24.9999999999993,32.4999999999996));
#1950=CARTESIAN_POINT('',(-35.0000000000005,24.9999999999993,32.4999999999996));
#1951=CARTESIAN_POINT('Origin',(-35.0000000000005,17.9999999999993,32.4999999999996));
#1952=CARTESIAN_POINT('',(-35.0000000000005,8.99999999999966,29.9999999503294));
#1953=CARTESIAN_POINT('',(-35.0000000000005,8.99999999999966,32.4999999999996));
#1954=CARTESIAN_POINT('Origin',(-35.0000000000005,17.9999999999993,32.4999999999996));
#1955=CARTESIAN_POINT('',(-35.0000000000005,24.9999999999993,-30.0000004470358));
#1956=CARTESIAN_POINT('',(-35.0000000000005,8.99999999999966,-30.0000004470358));
#1957=CARTESIAN_POINT('',(-35.0000000000005,24.9999999999993,-32.5000000000004));
#1958=CARTESIAN_POINT('',(-35.0000000000005,8.99999999999966,-32.5000000000004));
#1959=CARTESIAN_POINT('',(-35.0000000000005,24.9999999999993,32.4999999999996));
#1960=CARTESIAN_POINT('Origin',(-35.0000000000005,24.9999999999993,32.4999999999996));
#1961=CARTESIAN_POINT('',(-40.000000335277,24.9999999999993,-30.0000004470358));
#1962=CARTESIAN_POINT('',(6.24999999999948,24.9999999999993,-32.5000000000004));
#1963=CARTESIAN_POINT('Origin',(-15.0000000000003,11.9999999999997,32.4999999999996));
#1964=CARTESIAN_POINT('',(-15.,4.9999999999997,29.9999998509881));
#1965=CARTESIAN_POINT('',(-15.0000000000003,11.9999999999997,29.9999998509881));
#1966=CARTESIAN_POINT('',(-15.0000000000001,5.99999999999869,29.9999998509881));
#1967=CARTESIAN_POINT('',(-15.,4.9999999999997,32.4999999999996));
#1968=CARTESIAN_POINT('',(-15.,4.9999999999997,32.4999999999996));
#1969=CARTESIAN_POINT('',(-15.0000000000003,11.9999999999997,32.4999999999996));
#1970=CARTESIAN_POINT('',(-15.0000000000001,6.00000000000048,32.4999999999996));
#1971=CARTESIAN_POINT('',(-15.0000000000003,11.9999999999997,32.4999999999996));
#1972=CARTESIAN_POINT('Origin',(-15.0000000000003,11.9999999999997,32.4999999999996));
#1973=CARTESIAN_POINT('',(-15.0000000000003,11.9999999999997,-30.0000004470358));
#1974=CARTESIAN_POINT('',(-15.,4.9999999999997,-30.0000004470358));
#1975=CARTESIAN_POINT('',(-15.0000000000001,6.00000000000043,-30.0000004470358));
#1976=CARTESIAN_POINT('',(-15.0000000000003,11.9999999999997,-32.5000000000004));
#1977=CARTESIAN_POINT('',(-15.0000000000003,11.9999999999997,32.4999999999996));
#1978=CARTESIAN_POINT('',(-15.,4.9999999999997,-32.5000000000004));
#1979=CARTESIAN_POINT('',(-15.0000000000001,5.99999999999864,-32.5000000000004));
#1980=CARTESIAN_POINT('',(-15.,4.9999999999997,32.4999999999996));
#1981=CARTESIAN_POINT('Origin',(-15.,4.9999999999997,32.4999999999996));
#1982=CARTESIAN_POINT('',(-35.,4.99999999999892,29.9999999503294));
#1983=CARTESIAN_POINT('',(14.9999999937911,5.00000000000087,29.9999997019762));
#1984=CARTESIAN_POINT('',(-35.,4.99999999999892,32.4999999999996));
#1985=CARTESIAN_POINT('',(-35.,4.99999999999892,32.4999999999996));
#1986=CARTESIAN_POINT('',(-31.2500000000004,4.99999999999907,32.4999999999996));
#1987=CARTESIAN_POINT('Origin',(-15.,4.9999999999997,32.4999999999996));
#1988=CARTESIAN_POINT('',(-35.,4.99999999999892,-30.0000004470358));
#1989=CARTESIAN_POINT('',(-30.0000003352769,4.99999999999912,-30.0000004470358));
#1990=CARTESIAN_POINT('',(-35.,4.99999999999892,-32.5000000000004));
#1991=CARTESIAN_POINT('',(16.2499999999996,5.00000000000092,-32.5000000000004));
#1992=CARTESIAN_POINT('',(-35.,4.99999999999892,32.4999999999996));
#1993=CARTESIAN_POINT('Origin',(-35.0000000000003,11.9999999999989,32.4999999999996));
#1994=CARTESIAN_POINT('',(-35.0000000000003,11.9999999999989,29.9999999503294));
#1995=CARTESIAN_POINT('',(4.99999999379078,12.0000000000005,29.9999997516468));
#1996=CARTESIAN_POINT('',(-35.0000000000003,11.9999999999989,32.4999999999996));
#1997=CARTESIAN_POINT('',(-41.2500000000007,11.9999999999987,32.4999999999996));
#1998=CARTESIAN_POINT('',(-35.0000000000003,11.9999999999989,32.4999999999996));
#1999=CARTESIAN_POINT('Origin',(-35.,4.99999999999892,32.4999999999996));
#2000=CARTESIAN_POINT('',(-34.9999999999999,2.49999999999789,29.9999999503294));
#2001=CARTESIAN_POINT('',(-34.9999999999999,2.49999999999971,32.4999999999996));
#2002=CARTESIAN_POINT('Origin',(-35.,4.99999999999892,32.4999999999996));
#2003=CARTESIAN_POINT('',(-35.0000000000003,11.9999999999989,-30.0000004470358));
#2004=CARTESIAN_POINT('',(-34.9999999999999,2.49999999999966,-30.0000004470358));
#2005=CARTESIAN_POINT('',(-35.0000000000003,11.9999999999989,-32.5000000000004));
#2006=CARTESIAN_POINT('',(-34.9999999999999,2.49999999999784,-32.5000000000004));
#2007=CARTESIAN_POINT('',(-35.0000000000003,11.9999999999989,32.4999999999996));
#2008=CARTESIAN_POINT('Origin',(-35.0000000000003,11.9999999999989,32.4999999999996));
#2009=CARTESIAN_POINT('',(-40.0000003352772,11.9999999999987,-30.0000004470358));
#2010=CARTESIAN_POINT('',(6.24999999999932,12.0000000000005,-32.5000000000004));
#2011=CARTESIAN_POINT('Origin',(-44.5000000000006,0.,-29.5000000000004));
#2012=CARTESIAN_POINT('',(-47.5000000000006,30.,-29.5000000000004));
#2013=CARTESIAN_POINT('',(-44.5000000000006,30.,-32.5000000000004));
#2014=CARTESIAN_POINT('Origin',(-44.5000000000006,30.,-29.5000000000004));
#2015=CARTESIAN_POINT('',(-44.5000000000006,0.,-32.5000000000004));
#2016=CARTESIAN_POINT('',(-44.5000000000006,0.,-32.5000000000004));
#2017=CARTESIAN_POINT('',(-47.5000000000006,0.,-29.5000000000004));
#2018=CARTESIAN_POINT('Origin',(-44.5000000000006,0.,-29.5000000000004));
#2019=CARTESIAN_POINT('',(-47.5000000000006,0.,-29.5000000000004));
#2020=CARTESIAN_POINT('Origin',(-47.5000000000006,0.,-32.5000000000004));
#2021=CARTESIAN_POINT('',(-47.5000000000006,0.,29.4999999999996));
#2022=CARTESIAN_POINT('',(-47.5000000000006,0.,32.4999999999996));
#2023=CARTESIAN_POINT('',(-47.5000000000006,30.,29.4999999999996));
#2024=CARTESIAN_POINT('',(-47.5000000000006,0.,29.4999999999996));
#2025=CARTESIAN_POINT('',(-47.5000000000006,30.,32.4999999999996));
#2026=CARTESIAN_POINT('Origin',(-3.3527681964074E-7,0.,-2.23517857556033E-7));
#2027=CARTESIAN_POINT('',(44.4999999999994,0.,-32.5000000000004));
#2028=CARTESIAN_POINT('',(-47.5000000000006,0.,-32.5000000000004));
#2029=CARTESIAN_POINT('',(47.4999999999994,0.,-29.5000000000004));
#2030=CARTESIAN_POINT('Origin',(44.4999999999994,0.,-29.5000000000004));
#2031=CARTESIAN_POINT('',(47.4999999999994,0.,29.4999999999996));
#2032=CARTESIAN_POINT('',(47.4999999999994,0.,-32.5000000000004));
#2033=CARTESIAN_POINT('',(44.4999999999994,0.,32.4999999999996));
#2034=CARTESIAN_POINT('Origin',(44.4999999999994,0.,29.4999999999996));
#2035=CARTESIAN_POINT('',(-44.5000000000006,0.,32.4999999999996));
#2036=CARTESIAN_POINT('',(47.4999999999994,0.,32.4999999999996));
#2037=CARTESIAN_POINT('Origin',(-44.5000000000006,0.,29.4999999999996));
#2038=CARTESIAN_POINT('',(15.35,0.,4.99999962747099));
#2039=CARTESIAN_POINT('Origin',(17.5,0.,4.99999962747099));
#2040=CARTESIAN_POINT('',(15.35,0.,-5.00000037252901));
#2041=CARTESIAN_POINT('Origin',(17.5,0.,-5.00000037252901));
#2042=CARTESIAN_POINT('',(-19.65,0.,24.9999995529627));
#2043=CARTESIAN_POINT('Origin',(-17.5,0.,24.9999995529627));
#2044=CARTESIAN_POINT('',(15.35,0.,24.9999995529639));
#2045=CARTESIAN_POINT('Origin',(17.5,0.,24.9999995529639));
#2046=CARTESIAN_POINT('',(-19.65,0.,-25.0000003725291));
#2047=CARTESIAN_POINT('Origin',(-17.5,0.,-25.0000003725291));
#2048=CARTESIAN_POINT('',(-19.65,0.,4.99999962747101));
#2049=CARTESIAN_POINT('Origin',(-17.5,0.,4.99999962747101));
#2050=CARTESIAN_POINT('',(-19.65,0.,-5.000000372529));
#2051=CARTESIAN_POINT('Origin',(-17.5,0.,-5.000000372529));
#2052=CARTESIAN_POINT('',(15.35,0.,-25.0000003725291));
#2053=CARTESIAN_POINT('Origin',(17.5,0.,-25.0000003725291));
#2054=CARTESIAN_POINT('Origin',(-44.5000000000006,0.,29.4999999999996));
#2055=CARTESIAN_POINT('',(-44.5000000000006,30.,32.4999999999996));
#2056=CARTESIAN_POINT('Origin',(-44.5000000000006,30.,29.4999999999996));
#2057=CARTESIAN_POINT('',(-44.5000000000006,0.,32.4999999999996));
#2058=CARTESIAN_POINT('Origin',(-47.5000000000006,0.,32.4999999999996));
#2059=CARTESIAN_POINT('',(44.4999999999994,30.,32.4999999999996));
#2060=CARTESIAN_POINT('',(44.4999999999994,0.,32.4999999999996));
#2061=CARTESIAN_POINT('',(47.4999999999994,30.,32.4999999999996));
#2062=CARTESIAN_POINT('Origin',(44.4999999999994,0.,29.4999999999996));
#2063=CARTESIAN_POINT('',(47.4999999999994,30.,29.4999999999996));
#2064=CARTESIAN_POINT('Origin',(44.4999999999994,30.,29.4999999999996));
#2065=CARTESIAN_POINT('',(47.4999999999994,0.,29.4999999999996));
#2066=CARTESIAN_POINT('Origin',(47.4999999999994,0.,32.4999999999996));
#2067=CARTESIAN_POINT('',(47.4999999999994,30.,-29.5000000000004));
#2068=CARTESIAN_POINT('',(47.4999999999994,0.,-29.5000000000004));
#2069=CARTESIAN_POINT('',(47.4999999999994,30.,-32.5000000000004));
#2070=CARTESIAN_POINT('Origin',(44.4999999999994,0.,-29.5000000000004));
#2071=CARTESIAN_POINT('',(44.4999999999994,30.,-32.5000000000004));
#2072=CARTESIAN_POINT('Origin',(44.4999999999994,30.,-29.5000000000004));
#2073=CARTESIAN_POINT('',(44.4999999999994,0.,-32.5000000000004));
#2074=CARTESIAN_POINT('Origin',(-45.0000006705536,0.,-30.0000004470358));
#2075=CARTESIAN_POINT('',(45.,3.,-30.0000004470358));
#2076=CARTESIAN_POINT('',(-45.0000006705536,3.,-30.0000004470358));
#2077=CARTESIAN_POINT('',(45.,3.,-30.0000004470358));
#2078=CARTESIAN_POINT('',(45.,30.,-30.0000004470358));
#2079=CARTESIAN_POINT('',(45.,0.,-30.0000004470358));
#2080=CARTESIAN_POINT('',(-45.0000006705536,30.,-30.0000004470358));
#2081=CARTESIAN_POINT('',(45.,30.,-30.0000004470358));
#2082=CARTESIAN_POINT('',(-45.0000006705536,0.,-30.0000004470358));
#2083=CARTESIAN_POINT('Origin',(45.,0.,-30.0000004470358));
#2084=CARTESIAN_POINT('',(45.,3.,29.9999995529642));
#2085=CARTESIAN_POINT('',(45.,3.,29.9999995529642));
#2086=CARTESIAN_POINT('',(45.,30.,29.9999995529642));
#2087=CARTESIAN_POINT('',(45.,0.,29.9999995529642));
#2088=CARTESIAN_POINT('',(45.,30.,29.9999995529642));
#2089=CARTESIAN_POINT('Origin',(-45.,0.,30.));
#2090=CARTESIAN_POINT('',(-45.,3.,30.));
#2091=CARTESIAN_POINT('',(-45.0000006705536,3.,-30.0000004470358));
#2092=CARTESIAN_POINT('',(-45.,30.,30.));
#2093=CARTESIAN_POINT('',(-45.0000006705536,30.,-30.0000004470358));
#2094=CARTESIAN_POINT('',(-45.,0.,30.));
#2095=CARTESIAN_POINT('Origin',(45.,0.,29.9999995529642));
#2096=CARTESIAN_POINT('',(-45.,3.,30.));
#2097=CARTESIAN_POINT('',(-45.,30.,30.));
#2098=CARTESIAN_POINT('Origin',(47.4999999999994,0.,-32.5000000000004));
#2099=CARTESIAN_POINT('',(-47.5000000000006,30.,-32.5000000000004));
#2100=CARTESIAN_POINT('Origin',(-5.86197757002083E-13,30.,-4.08562073062058E-13));
#2101=CARTESIAN_POINT('Origin',(17.5,0.,-25.0000003725291));
#2102=CARTESIAN_POINT('',(15.35,3.,-25.0000003725291));
#2103=CARTESIAN_POINT('Origin',(17.5,3.,-25.0000003725291));
#2104=CARTESIAN_POINT('',(15.35,0.,-25.0000003725291));
#2105=CARTESIAN_POINT('Origin',(-17.5,0.,-5.000000372529));
#2106=CARTESIAN_POINT('',(-19.65,3.,-5.000000372529));
#2107=CARTESIAN_POINT('Origin',(-17.5,3.,-5.000000372529));
#2108=CARTESIAN_POINT('',(-19.65,0.,-5.000000372529));
#2109=CARTESIAN_POINT('Origin',(-17.5,0.,4.99999962747101));
#2110=CARTESIAN_POINT('',(-19.65,3.,4.99999962747101));
#2111=CARTESIAN_POINT('Origin',(-17.5,3.,4.99999962747101));
#2112=CARTESIAN_POINT('',(-19.65,0.,4.99999962747101));
#2113=CARTESIAN_POINT('Origin',(-17.5,0.,-25.0000003725291));
#2114=CARTESIAN_POINT('',(-19.65,3.,-25.0000003725291));
#2115=CARTESIAN_POINT('Origin',(-17.5,3.,-25.0000003725291));
#2116=CARTESIAN_POINT('',(-19.65,0.,-25.0000003725291));
#2117=CARTESIAN_POINT('Origin',(17.5,0.,24.9999995529639));
#2118=CARTESIAN_POINT('',(15.35,3.,24.9999995529639));
#2119=CARTESIAN_POINT('Origin',(17.5,3.,24.9999995529639));
#2120=CARTESIAN_POINT('',(15.35,0.,24.9999995529639));
#2121=CARTESIAN_POINT('Origin',(-17.5,0.,24.9999995529627));
#2122=CARTESIAN_POINT('',(-19.65,3.,24.9999995529627));
#2123=CARTESIAN_POINT('Origin',(-17.5,3.,24.9999995529627));
#2124=CARTESIAN_POINT('',(-19.65,0.,24.9999995529627));
#2125=CARTESIAN_POINT('Origin',(17.5,0.,-5.00000037252901));
#2126=CARTESIAN_POINT('',(15.35,3.,-5.00000037252901));
#2127=CARTESIAN_POINT('Origin',(17.5,3.,-5.00000037252901));
#2128=CARTESIAN_POINT('',(15.35,0.,-5.00000037252901));
#2129=CARTESIAN_POINT('Origin',(17.5,0.,4.99999962747099));
#2130=CARTESIAN_POINT('',(15.35,3.,4.99999962747099));
#2131=CARTESIAN_POINT('Origin',(17.5,3.,4.99999962747099));
#2132=CARTESIAN_POINT('',(15.35,0.,4.99999962747099));
#2133=CARTESIAN_POINT('Origin',(-3.3527681964074E-7,3.,-2.23517857556033E-7));
#2134=UNCERTAINTY_MEASURE_WITH_UNIT(LENGTH_MEASURE(0.01),#2138,
'DISTANCE_ACCURACY_VALUE',
'Maximum model space distance between geometric entities at asserted c
onnectivities');
#2135=UNCERTAINTY_MEASURE_WITH_UNIT(LENGTH_MEASURE(0.01),#2138,
'DISTANCE_ACCURACY_VALUE',
'Maximum model space distance between geometric entities at asserted c
onnectivities');
#2136=(
GEOMETRIC_REPRESENTATION_CONTEXT(3)
GLOBAL_UNCERTAINTY_ASSIGNED_CONTEXT((#2134))
GLOBAL_UNIT_ASSIGNED_CONTEXT((#2138,#2140,#2141))
REPRESENTATION_CONTEXT('','3D')
);
#2137=(
GEOMETRIC_REPRESENTATION_CONTEXT(3)
GLOBAL_UNCERTAINTY_ASSIGNED_CONTEXT((#2135))
GLOBAL_UNIT_ASSIGNED_CONTEXT((#2138,#2140,#2141))
REPRESENTATION_CONTEXT('','3D')
);
#2138=(
LENGTH_UNIT()
NAMED_UNIT(*)
SI_UNIT(.MILLI.,.METRE.)
);
#2139=(
LENGTH_UNIT()
NAMED_UNIT(*)
SI_UNIT($,.METRE.)
);
#2140=(
NAMED_UNIT(*)
PLANE_ANGLE_UNIT()
SI_UNIT($,.RADIAN.)
);
#2141=(
NAMED_UNIT(*)
SI_UNIT($,.STERADIAN.)
SOLID_ANGLE_UNIT()
);
#2142=SHAPE_DEFINITION_REPRESENTATION(#2143,#2144);
#2143=PRODUCT_DEFINITION_SHAPE('',$,#2146);
#2144=SHAPE_REPRESENTATION('',(#1350),#2136);
#2145=PRODUCT_DEFINITION_CONTEXT('part definition',#2150,'design');
#2146=PRODUCT_DEFINITION('2026-05-10-22-01-20-719',
'Stepperobot battery holder',#2147,#2145);
#2147=PRODUCT_DEFINITION_FORMATION('',$,#2152);
#2148=PRODUCT_RELATED_PRODUCT_CATEGORY('Stepperobot battery holder',
'Stepperobot battery holder',(#2152));
#2149=APPLICATION_PROTOCOL_DEFINITION('international standard',
'automotive_design',2009,#2150);
#2150=APPLICATION_CONTEXT(
'Core Data for Automotive Mechanical Design Process');
#2151=PRODUCT_CONTEXT('part definition',#2150,'mechanical');
#2152=PRODUCT('2026-05-10-22-01-20-719','Stepperobot battery holder',$,
(#2151));
#2153=PRESENTATION_STYLE_ASSIGNMENT((#2154));
#2154=SURFACE_STYLE_USAGE(.BOTH.,#2155);
#2155=SURFACE_SIDE_STYLE('',(#2156));
#2156=SURFACE_STYLE_FILL_AREA(#2157);
#2157=FILL_AREA_STYLE('Steel - Satin',(#2158));
#2158=FILL_AREA_STYLE_COLOUR('Steel - Satin',#2159);
#2159=COLOUR_RGB('Steel - Satin',0.627450980392157,0.627450980392157,0.627450980392157);
ENDSEC;
END-ISO-10303-21;
