ISO-10303-21;
HEADER;
/* Generated by software containing ST-Developer
 * from STEP Tools, Inc. (www.steptools.com) 
 */

FILE_DESCRIPTION(
/* description */ (''),
/* implementation_level */ '2;1');

FILE_NAME(
/* name */ 'Microcontroller holder.step',
/* time_stamp */ '2026-05-12T19:52:55-04:00',
/* author */ (''),
/* organization */ (''),
/* preprocessor_version */ 'ST-DEVELOPER v20.1',
/* originating_system */ 'Autodesk Translation Framework v15.8.0.0',
/* authorisation */ '');

FILE_SCHEMA (('AUTOMOTIVE_DESIGN { 1 0 10303 214 3 1 1 }'));
ENDSEC;

DATA;
#10=MECHANICAL_DESIGN_GEOMETRIC_PRESENTATION_REPRESENTATION('',(#13),#1755);
#11=SHAPE_REPRESENTATION_RELATIONSHIP('SRR','None',#1762,#12);
#12=ADVANCED_BREP_SHAPE_REPRESENTATION('',(#14),#1754);
#13=STYLED_ITEM('',(#1771),#14);
#14=MANIFOLD_SOLID_BREP('Body1',#991);
#15=FACE_BOUND('',#166,.T.);
#16=FACE_BOUND('',#171,.T.);
#17=FACE_BOUND('',#176,.T.);
#18=FACE_BOUND('',#181,.T.);
#19=FACE_BOUND('',#186,.T.);
#20=FACE_BOUND('',#191,.T.);
#21=FACE_BOUND('',#196,.T.);
#22=FACE_BOUND('',#201,.T.);
#23=FACE_BOUND('',#206,.T.);
#24=FACE_BOUND('',#211,.T.);
#25=FACE_BOUND('',#216,.T.);
#26=FACE_BOUND('',#221,.T.);
#27=FACE_BOUND('',#226,.T.);
#28=FACE_BOUND('',#231,.T.);
#29=FACE_BOUND('',#246,.T.);
#30=FACE_BOUND('',#247,.T.);
#31=FACE_BOUND('',#248,.T.);
#32=FACE_BOUND('',#249,.T.);
#33=FACE_BOUND('',#250,.T.);
#34=FACE_BOUND('',#251,.T.);
#35=FACE_BOUND('',#252,.T.);
#36=FACE_BOUND('',#253,.T.);
#37=FACE_BOUND('',#254,.T.);
#38=FACE_BOUND('',#255,.T.);
#39=FACE_BOUND('',#256,.T.);
#40=FACE_BOUND('',#257,.T.);
#41=FACE_BOUND('',#258,.T.);
#42=FACE_BOUND('',#259,.T.);
#43=FACE_BOUND('',#260,.T.);
#44=FACE_BOUND('',#261,.T.);
#45=FACE_BOUND('',#262,.T.);
#46=FACE_BOUND('',#263,.T.);
#47=FACE_BOUND('',#264,.T.);
#48=FACE_BOUND('',#265,.T.);
#49=FACE_BOUND('',#266,.T.);
#50=FACE_BOUND('',#267,.T.);
#51=FACE_BOUND('',#269,.T.);
#52=FACE_BOUND('',#270,.T.);
#53=FACE_BOUND('',#271,.T.);
#54=FACE_BOUND('',#272,.T.);
#55=FACE_BOUND('',#273,.T.);
#56=FACE_BOUND('',#274,.T.);
#57=FACE_BOUND('',#275,.T.);
#58=FACE_BOUND('',#276,.T.);
#59=PLANE('',#1011);
#60=PLANE('',#1012);
#61=PLANE('',#1019);
#62=PLANE('',#1020);
#63=PLANE('',#1027);
#64=PLANE('',#1028);
#65=PLANE('',#1035);
#66=PLANE('',#1036);
#67=PLANE('',#1043);
#68=PLANE('',#1044);
#69=PLANE('',#1051);
#70=PLANE('',#1052);
#71=PLANE('',#1059);
#72=PLANE('',#1060);
#73=PLANE('',#1067);
#74=PLANE('',#1068);
#75=PLANE('',#1075);
#76=PLANE('',#1076);
#77=PLANE('',#1083);
#78=PLANE('',#1084);
#79=PLANE('',#1091);
#80=PLANE('',#1092);
#81=PLANE('',#1099);
#82=PLANE('',#1100);
#83=PLANE('',#1107);
#84=PLANE('',#1108);
#85=PLANE('',#1115);
#86=PLANE('',#1116);
#87=PLANE('',#1141);
#88=PLANE('',#1142);
#89=PLANE('',#1143);
#90=PLANE('',#1144);
#91=PLANE('',#1145);
#92=PLANE('',#1146);
#93=FACE_OUTER_BOUND('',#163,.T.);
#94=FACE_OUTER_BOUND('',#164,.T.);
#95=FACE_OUTER_BOUND('',#165,.T.);
#96=FACE_OUTER_BOUND('',#167,.T.);
#97=FACE_OUTER_BOUND('',#168,.T.);
#98=FACE_OUTER_BOUND('',#169,.T.);
#99=FACE_OUTER_BOUND('',#170,.T.);
#100=FACE_OUTER_BOUND('',#172,.T.);
#101=FACE_OUTER_BOUND('',#173,.T.);
#102=FACE_OUTER_BOUND('',#174,.T.);
#103=FACE_OUTER_BOUND('',#175,.T.);
#104=FACE_OUTER_BOUND('',#177,.T.);
#105=FACE_OUTER_BOUND('',#178,.T.);
#106=FACE_OUTER_BOUND('',#179,.T.);
#107=FACE_OUTER_BOUND('',#180,.T.);
#108=FACE_OUTER_BOUND('',#182,.T.);
#109=FACE_OUTER_BOUND('',#183,.T.);
#110=FACE_OUTER_BOUND('',#184,.T.);
#111=FACE_OUTER_BOUND('',#185,.T.);
#112=FACE_OUTER_BOUND('',#187,.T.);
#113=FACE_OUTER_BOUND('',#188,.T.);
#114=FACE_OUTER_BOUND('',#189,.T.);
#115=FACE_OUTER_BOUND('',#190,.T.);
#116=FACE_OUTER_BOUND('',#192,.T.);
#117=FACE_OUTER_BOUND('',#193,.T.);
#118=FACE_OUTER_BOUND('',#194,.T.);
#119=FACE_OUTER_BOUND('',#195,.T.);
#120=FACE_OUTER_BOUND('',#197,.T.);
#121=FACE_OUTER_BOUND('',#198,.T.);
#122=FACE_OUTER_BOUND('',#199,.T.);
#123=FACE_OUTER_BOUND('',#200,.T.);
#124=FACE_OUTER_BOUND('',#202,.T.);
#125=FACE_OUTER_BOUND('',#203,.T.);
#126=FACE_OUTER_BOUND('',#204,.T.);
#127=FACE_OUTER_BOUND('',#205,.T.);
#128=FACE_OUTER_BOUND('',#207,.T.);
#129=FACE_OUTER_BOUND('',#208,.T.);
#130=FACE_OUTER_BOUND('',#209,.T.);
#131=FACE_OUTER_BOUND('',#210,.T.);
#132=FACE_OUTER_BOUND('',#212,.T.);
#133=FACE_OUTER_BOUND('',#213,.T.);
#134=FACE_OUTER_BOUND('',#214,.T.);
#135=FACE_OUTER_BOUND('',#215,.T.);
#136=FACE_OUTER_BOUND('',#217,.T.);
#137=FACE_OUTER_BOUND('',#218,.T.);
#138=FACE_OUTER_BOUND('',#219,.T.);
#139=FACE_OUTER_BOUND('',#220,.T.);
#140=FACE_OUTER_BOUND('',#222,.T.);
#141=FACE_OUTER_BOUND('',#223,.T.);
#142=FACE_OUTER_BOUND('',#224,.T.);
#143=FACE_OUTER_BOUND('',#225,.T.);
#144=FACE_OUTER_BOUND('',#227,.T.);
#145=FACE_OUTER_BOUND('',#228,.T.);
#146=FACE_OUTER_BOUND('',#229,.T.);
#147=FACE_OUTER_BOUND('',#230,.T.);
#148=FACE_OUTER_BOUND('',#232,.T.);
#149=FACE_OUTER_BOUND('',#233,.T.);
#150=FACE_OUTER_BOUND('',#234,.T.);
#151=FACE_OUTER_BOUND('',#235,.T.);
#152=FACE_OUTER_BOUND('',#236,.T.);
#153=FACE_OUTER_BOUND('',#237,.T.);
#154=FACE_OUTER_BOUND('',#238,.T.);
#155=FACE_OUTER_BOUND('',#239,.T.);
#156=FACE_OUTER_BOUND('',#240,.T.);
#157=FACE_OUTER_BOUND('',#241,.T.);
#158=FACE_OUTER_BOUND('',#242,.T.);
#159=FACE_OUTER_BOUND('',#243,.T.);
#160=FACE_OUTER_BOUND('',#244,.T.);
#161=FACE_OUTER_BOUND('',#245,.T.);
#162=FACE_OUTER_BOUND('',#268,.T.);
#163=EDGE_LOOP('',(#645,#646,#647,#648));
#164=EDGE_LOOP('',(#649,#650,#651,#652));
#165=EDGE_LOOP('',(#653));
#166=EDGE_LOOP('',(#654));
#167=EDGE_LOOP('',(#655));
#168=EDGE_LOOP('',(#656,#657,#658,#659));
#169=EDGE_LOOP('',(#660,#661,#662,#663));
#170=EDGE_LOOP('',(#664));
#171=EDGE_LOOP('',(#665));
#172=EDGE_LOOP('',(#666));
#173=EDGE_LOOP('',(#667,#668,#669,#670));
#174=EDGE_LOOP('',(#671,#672,#673,#674));
#175=EDGE_LOOP('',(#675));
#176=EDGE_LOOP('',(#676));
#177=EDGE_LOOP('',(#677));
#178=EDGE_LOOP('',(#678,#679,#680,#681));
#179=EDGE_LOOP('',(#682,#683,#684,#685));
#180=EDGE_LOOP('',(#686));
#181=EDGE_LOOP('',(#687));
#182=EDGE_LOOP('',(#688));
#183=EDGE_LOOP('',(#689,#690,#691,#692));
#184=EDGE_LOOP('',(#693,#694,#695,#696));
#185=EDGE_LOOP('',(#697));
#186=EDGE_LOOP('',(#698));
#187=EDGE_LOOP('',(#699));
#188=EDGE_LOOP('',(#700,#701,#702,#703));
#189=EDGE_LOOP('',(#704,#705,#706,#707));
#190=EDGE_LOOP('',(#708));
#191=EDGE_LOOP('',(#709));
#192=EDGE_LOOP('',(#710));
#193=EDGE_LOOP('',(#711,#712,#713,#714));
#194=EDGE_LOOP('',(#715,#716,#717,#718));
#195=EDGE_LOOP('',(#719));
#196=EDGE_LOOP('',(#720));
#197=EDGE_LOOP('',(#721));
#198=EDGE_LOOP('',(#722,#723,#724,#725));
#199=EDGE_LOOP('',(#726,#727,#728,#729));
#200=EDGE_LOOP('',(#730));
#201=EDGE_LOOP('',(#731));
#202=EDGE_LOOP('',(#732));
#203=EDGE_LOOP('',(#733,#734,#735,#736));
#204=EDGE_LOOP('',(#737,#738,#739,#740));
#205=EDGE_LOOP('',(#741));
#206=EDGE_LOOP('',(#742));
#207=EDGE_LOOP('',(#743));
#208=EDGE_LOOP('',(#744,#745,#746,#747));
#209=EDGE_LOOP('',(#748,#749,#750,#751));
#210=EDGE_LOOP('',(#752));
#211=EDGE_LOOP('',(#753));
#212=EDGE_LOOP('',(#754));
#213=EDGE_LOOP('',(#755,#756,#757,#758));
#214=EDGE_LOOP('',(#759,#760,#761,#762));
#215=EDGE_LOOP('',(#763));
#216=EDGE_LOOP('',(#764));
#217=EDGE_LOOP('',(#765));
#218=EDGE_LOOP('',(#766,#767,#768,#769));
#219=EDGE_LOOP('',(#770,#771,#772,#773));
#220=EDGE_LOOP('',(#774));
#221=EDGE_LOOP('',(#775));
#222=EDGE_LOOP('',(#776));
#223=EDGE_LOOP('',(#777,#778,#779,#780));
#224=EDGE_LOOP('',(#781,#782,#783,#784));
#225=EDGE_LOOP('',(#785));
#226=EDGE_LOOP('',(#786));
#227=EDGE_LOOP('',(#787));
#228=EDGE_LOOP('',(#788,#789,#790,#791));
#229=EDGE_LOOP('',(#792,#793,#794,#795));
#230=EDGE_LOOP('',(#796));
#231=EDGE_LOOP('',(#797));
#232=EDGE_LOOP('',(#798));
#233=EDGE_LOOP('',(#799,#800,#801,#802));
#234=EDGE_LOOP('',(#803,#804,#805,#806));
#235=EDGE_LOOP('',(#807,#808,#809,#810));
#236=EDGE_LOOP('',(#811,#812,#813,#814));
#237=EDGE_LOOP('',(#815,#816,#817,#818));
#238=EDGE_LOOP('',(#819,#820,#821,#822));
#239=EDGE_LOOP('',(#823,#824,#825,#826));
#240=EDGE_LOOP('',(#827,#828,#829,#830));
#241=EDGE_LOOP('',(#831,#832,#833,#834));
#242=EDGE_LOOP('',(#835,#836,#837,#838));
#243=EDGE_LOOP('',(#839,#840,#841,#842));
#244=EDGE_LOOP('',(#843,#844,#845,#846));
#245=EDGE_LOOP('',(#847,#848,#849,#850));
#246=EDGE_LOOP('',(#851));
#247=EDGE_LOOP('',(#852));
#248=EDGE_LOOP('',(#853));
#249=EDGE_LOOP('',(#854));
#250=EDGE_LOOP('',(#855));
#251=EDGE_LOOP('',(#856));
#252=EDGE_LOOP('',(#857));
#253=EDGE_LOOP('',(#858));
#254=EDGE_LOOP('',(#859));
#255=EDGE_LOOP('',(#860));
#256=EDGE_LOOP('',(#861));
#257=EDGE_LOOP('',(#862));
#258=EDGE_LOOP('',(#863));
#259=EDGE_LOOP('',(#864));
#260=EDGE_LOOP('',(#865));
#261=EDGE_LOOP('',(#866));
#262=EDGE_LOOP('',(#867));
#263=EDGE_LOOP('',(#868));
#264=EDGE_LOOP('',(#869));
#265=EDGE_LOOP('',(#870));
#266=EDGE_LOOP('',(#871));
#267=EDGE_LOOP('',(#872));
#268=EDGE_LOOP('',(#873,#874,#875,#876));
#269=EDGE_LOOP('',(#877));
#270=EDGE_LOOP('',(#878));
#271=EDGE_LOOP('',(#879));
#272=EDGE_LOOP('',(#880));
#273=EDGE_LOOP('',(#881));
#274=EDGE_LOOP('',(#882));
#275=EDGE_LOOP('',(#883));
#276=EDGE_LOOP('',(#884));
#277=LINE('',#1486,#325);
#278=LINE('',#1492,#326);
#279=LINE('',#1500,#327);
#280=LINE('',#1506,#328);
#281=LINE('',#1514,#329);
#282=LINE('',#1520,#330);
#283=LINE('',#1528,#331);
#284=LINE('',#1534,#332);
#285=LINE('',#1542,#333);
#286=LINE('',#1548,#334);
#287=LINE('',#1556,#335);
#288=LINE('',#1562,#336);
#289=LINE('',#1570,#337);
#290=LINE('',#1576,#338);
#291=LINE('',#1584,#339);
#292=LINE('',#1590,#340);
#293=LINE('',#1598,#341);
#294=LINE('',#1604,#342);
#295=LINE('',#1612,#343);
#296=LINE('',#1618,#344);
#297=LINE('',#1626,#345);
#298=LINE('',#1632,#346);
#299=LINE('',#1640,#347);
#300=LINE('',#1646,#348);
#301=LINE('',#1654,#349);
#302=LINE('',#1660,#350);
#303=LINE('',#1668,#351);
#304=LINE('',#1674,#352);
#305=LINE('',#1682,#353);
#306=LINE('',#1688,#354);
#307=LINE('',#1694,#355);
#308=LINE('',#1700,#356);
#309=LINE('',#1706,#357);
#310=LINE('',#1712,#358);
#311=LINE('',#1718,#359);
#312=LINE('',#1724,#360);
#313=LINE('',#1729,#361);
#314=LINE('',#1731,#362);
#315=LINE('',#1733,#363);
#316=LINE('',#1734,#364);
#317=LINE('',#1737,#365);
#318=LINE('',#1739,#366);
#319=LINE('',#1740,#367);
#320=LINE('',#1743,#368);
#321=LINE('',#1745,#369);
#322=LINE('',#1746,#370);
#323=LINE('',#1748,#371);
#324=LINE('',#1749,#372);
#325=VECTOR('',#1153,1.5);
#326=VECTOR('',#1160,2.5);
#327=VECTOR('',#1171,1.5);
#328=VECTOR('',#1178,2.5);
#329=VECTOR('',#1189,1.);
#330=VECTOR('',#1196,2.);
#331=VECTOR('',#1207,1.);
#332=VECTOR('',#1214,2.);
#333=VECTOR('',#1225,1.5);
#334=VECTOR('',#1232,2.5);
#335=VECTOR('',#1243,1.5);
#336=VECTOR('',#1250,2.5);
#337=VECTOR('',#1261,1.5);
#338=VECTOR('',#1268,2.5);
#339=VECTOR('',#1279,1.5);
#340=VECTOR('',#1286,2.5);
#341=VECTOR('',#1297,1.5);
#342=VECTOR('',#1304,2.5);
#343=VECTOR('',#1315,1.);
#344=VECTOR('',#1322,2.);
#345=VECTOR('',#1333,1.);
#346=VECTOR('',#1340,2.);
#347=VECTOR('',#1351,1.5);
#348=VECTOR('',#1358,2.5);
#349=VECTOR('',#1369,1.5);
#350=VECTOR('',#1376,2.5);
#351=VECTOR('',#1387,1.5);
#352=VECTOR('',#1394,2.5);
#353=VECTOR('',#1405,2.15);
#354=VECTOR('',#1412,2.15);
#355=VECTOR('',#1419,2.15);
#356=VECTOR('',#1426,2.15);
#357=VECTOR('',#1433,2.15);
#358=VECTOR('',#1440,2.15);
#359=VECTOR('',#1447,2.15);
#360=VECTOR('',#1454,2.15);
#361=VECTOR('',#1459,10.);
#362=VECTOR('',#1460,10.);
#363=VECTOR('',#1461,10.);
#364=VECTOR('',#1462,10.);
#365=VECTOR('',#1465,10.);
#366=VECTOR('',#1466,10.);
#367=VECTOR('',#1467,10.);
#368=VECTOR('',#1470,10.);
#369=VECTOR('',#1471,10.);
#370=VECTOR('',#1472,10.);
#371=VECTOR('',#1475,10.);
#372=VECTOR('',#1476,10.);
#373=CIRCLE('',#1006,1.5);
#374=CIRCLE('',#1007,1.5);
#375=CIRCLE('',#1009,2.5);
#376=CIRCLE('',#1010,2.5);
#377=CIRCLE('',#1014,1.5);
#378=CIRCLE('',#1015,1.5);
#379=CIRCLE('',#1017,2.5);
#380=CIRCLE('',#1018,2.5);
#381=CIRCLE('',#1022,1.);
#382=CIRCLE('',#1023,1.);
#383=CIRCLE('',#1025,2.);
#384=CIRCLE('',#1026,2.);
#385=CIRCLE('',#1030,1.);
#386=CIRCLE('',#1031,1.);
#387=CIRCLE('',#1033,2.);
#388=CIRCLE('',#1034,2.);
#389=CIRCLE('',#1038,1.5);
#390=CIRCLE('',#1039,1.5);
#391=CIRCLE('',#1041,2.5);
#392=CIRCLE('',#1042,2.5);
#393=CIRCLE('',#1046,1.5);
#394=CIRCLE('',#1047,1.5);
#395=CIRCLE('',#1049,2.5);
#396=CIRCLE('',#1050,2.5);
#397=CIRCLE('',#1054,1.5);
#398=CIRCLE('',#1055,1.5);
#399=CIRCLE('',#1057,2.5);
#400=CIRCLE('',#1058,2.5);
#401=CIRCLE('',#1062,1.5);
#402=CIRCLE('',#1063,1.5);
#403=CIRCLE('',#1065,2.5);
#404=CIRCLE('',#1066,2.5);
#405=CIRCLE('',#1070,1.5);
#406=CIRCLE('',#1071,1.5);
#407=CIRCLE('',#1073,2.5);
#408=CIRCLE('',#1074,2.5);
#409=CIRCLE('',#1078,1.);
#410=CIRCLE('',#1079,1.);
#411=CIRCLE('',#1081,2.);
#412=CIRCLE('',#1082,2.);
#413=CIRCLE('',#1086,1.);
#414=CIRCLE('',#1087,1.);
#415=CIRCLE('',#1089,2.);
#416=CIRCLE('',#1090,2.);
#417=CIRCLE('',#1094,1.5);
#418=CIRCLE('',#1095,1.5);
#419=CIRCLE('',#1097,2.5);
#420=CIRCLE('',#1098,2.5);
#421=CIRCLE('',#1102,1.5);
#422=CIRCLE('',#1103,1.5);
#423=CIRCLE('',#1105,2.5);
#424=CIRCLE('',#1106,2.5);
#425=CIRCLE('',#1110,1.5);
#426=CIRCLE('',#1111,1.5);
#427=CIRCLE('',#1113,2.5);
#428=CIRCLE('',#1114,2.5);
#429=CIRCLE('',#1118,2.15);
#430=CIRCLE('',#1119,2.15);
#431=CIRCLE('',#1121,2.15);
#432=CIRCLE('',#1122,2.15);
#433=CIRCLE('',#1124,2.15);
#434=CIRCLE('',#1125,2.15);
#435=CIRCLE('',#1127,2.15);
#436=CIRCLE('',#1128,2.15);
#437=CIRCLE('',#1130,2.15);
#438=CIRCLE('',#1131,2.15);
#439=CIRCLE('',#1133,2.15);
#440=CIRCLE('',#1134,2.15);
#441=CIRCLE('',#1136,2.15);
#442=CIRCLE('',#1137,2.15);
#443=CIRCLE('',#1139,2.15);
#444=CIRCLE('',#1140,2.15);
#445=VERTEX_POINT('',#1483);
#446=VERTEX_POINT('',#1485);
#447=VERTEX_POINT('',#1489);
#448=VERTEX_POINT('',#1491);
#449=VERTEX_POINT('',#1497);
#450=VERTEX_POINT('',#1499);
#451=VERTEX_POINT('',#1503);
#452=VERTEX_POINT('',#1505);
#453=VERTEX_POINT('',#1511);
#454=VERTEX_POINT('',#1513);
#455=VERTEX_POINT('',#1517);
#456=VERTEX_POINT('',#1519);
#457=VERTEX_POINT('',#1525);
#458=VERTEX_POINT('',#1527);
#459=VERTEX_POINT('',#1531);
#460=VERTEX_POINT('',#1533);
#461=VERTEX_POINT('',#1539);
#462=VERTEX_POINT('',#1541);
#463=VERTEX_POINT('',#1545);
#464=VERTEX_POINT('',#1547);
#465=VERTEX_POINT('',#1553);
#466=VERTEX_POINT('',#1555);
#467=VERTEX_POINT('',#1559);
#468=VERTEX_POINT('',#1561);
#469=VERTEX_POINT('',#1567);
#470=VERTEX_POINT('',#1569);
#471=VERTEX_POINT('',#1573);
#472=VERTEX_POINT('',#1575);
#473=VERTEX_POINT('',#1581);
#474=VERTEX_POINT('',#1583);
#475=VERTEX_POINT('',#1587);
#476=VERTEX_POINT('',#1589);
#477=VERTEX_POINT('',#1595);
#478=VERTEX_POINT('',#1597);
#479=VERTEX_POINT('',#1601);
#480=VERTEX_POINT('',#1603);
#481=VERTEX_POINT('',#1609);
#482=VERTEX_POINT('',#1611);
#483=VERTEX_POINT('',#1615);
#484=VERTEX_POINT('',#1617);
#485=VERTEX_POINT('',#1623);
#486=VERTEX_POINT('',#1625);
#487=VERTEX_POINT('',#1629);
#488=VERTEX_POINT('',#1631);
#489=VERTEX_POINT('',#1637);
#490=VERTEX_POINT('',#1639);
#491=VERTEX_POINT('',#1643);
#492=VERTEX_POINT('',#1645);
#493=VERTEX_POINT('',#1651);
#494=VERTEX_POINT('',#1653);
#495=VERTEX_POINT('',#1657);
#496=VERTEX_POINT('',#1659);
#497=VERTEX_POINT('',#1665);
#498=VERTEX_POINT('',#1667);
#499=VERTEX_POINT('',#1671);
#500=VERTEX_POINT('',#1673);
#501=VERTEX_POINT('',#1679);
#502=VERTEX_POINT('',#1681);
#503=VERTEX_POINT('',#1685);
#504=VERTEX_POINT('',#1687);
#505=VERTEX_POINT('',#1691);
#506=VERTEX_POINT('',#1693);
#507=VERTEX_POINT('',#1697);
#508=VERTEX_POINT('',#1699);
#509=VERTEX_POINT('',#1703);
#510=VERTEX_POINT('',#1705);
#511=VERTEX_POINT('',#1709);
#512=VERTEX_POINT('',#1711);
#513=VERTEX_POINT('',#1715);
#514=VERTEX_POINT('',#1717);
#515=VERTEX_POINT('',#1721);
#516=VERTEX_POINT('',#1723);
#517=VERTEX_POINT('',#1727);
#518=VERTEX_POINT('',#1728);
#519=VERTEX_POINT('',#1730);
#520=VERTEX_POINT('',#1732);
#521=VERTEX_POINT('',#1736);
#522=VERTEX_POINT('',#1738);
#523=VERTEX_POINT('',#1742);
#524=VERTEX_POINT('',#1744);
#525=EDGE_CURVE('',#445,#445,#373,.T.);
#526=EDGE_CURVE('',#445,#446,#277,.T.);
#527=EDGE_CURVE('',#446,#446,#374,.T.);
#528=EDGE_CURVE('',#447,#447,#375,.T.);
#529=EDGE_CURVE('',#447,#448,#278,.T.);
#530=EDGE_CURVE('',#448,#448,#376,.T.);
#531=EDGE_CURVE('',#449,#449,#377,.T.);
#532=EDGE_CURVE('',#449,#450,#279,.T.);
#533=EDGE_CURVE('',#450,#450,#378,.T.);
#534=EDGE_CURVE('',#451,#451,#379,.T.);
#535=EDGE_CURVE('',#451,#452,#280,.T.);
#536=EDGE_CURVE('',#452,#452,#380,.T.);
#537=EDGE_CURVE('',#453,#453,#381,.T.);
#538=EDGE_CURVE('',#453,#454,#281,.T.);
#539=EDGE_CURVE('',#454,#454,#382,.T.);
#540=EDGE_CURVE('',#455,#455,#383,.T.);
#541=EDGE_CURVE('',#455,#456,#282,.T.);
#542=EDGE_CURVE('',#456,#456,#384,.T.);
#543=EDGE_CURVE('',#457,#457,#385,.T.);
#544=EDGE_CURVE('',#457,#458,#283,.T.);
#545=EDGE_CURVE('',#458,#458,#386,.T.);
#546=EDGE_CURVE('',#459,#459,#387,.T.);
#547=EDGE_CURVE('',#459,#460,#284,.T.);
#548=EDGE_CURVE('',#460,#460,#388,.T.);
#549=EDGE_CURVE('',#461,#461,#389,.T.);
#550=EDGE_CURVE('',#461,#462,#285,.T.);
#551=EDGE_CURVE('',#462,#462,#390,.T.);
#552=EDGE_CURVE('',#463,#463,#391,.T.);
#553=EDGE_CURVE('',#463,#464,#286,.T.);
#554=EDGE_CURVE('',#464,#464,#392,.T.);
#555=EDGE_CURVE('',#465,#465,#393,.T.);
#556=EDGE_CURVE('',#465,#466,#287,.T.);
#557=EDGE_CURVE('',#466,#466,#394,.T.);
#558=EDGE_CURVE('',#467,#467,#395,.T.);
#559=EDGE_CURVE('',#467,#468,#288,.T.);
#560=EDGE_CURVE('',#468,#468,#396,.T.);
#561=EDGE_CURVE('',#469,#469,#397,.T.);
#562=EDGE_CURVE('',#469,#470,#289,.T.);
#563=EDGE_CURVE('',#470,#470,#398,.T.);
#564=EDGE_CURVE('',#471,#471,#399,.T.);
#565=EDGE_CURVE('',#471,#472,#290,.T.);
#566=EDGE_CURVE('',#472,#472,#400,.T.);
#567=EDGE_CURVE('',#473,#473,#401,.T.);
#568=EDGE_CURVE('',#473,#474,#291,.T.);
#569=EDGE_CURVE('',#474,#474,#402,.T.);
#570=EDGE_CURVE('',#475,#475,#403,.T.);
#571=EDGE_CURVE('',#475,#476,#292,.T.);
#572=EDGE_CURVE('',#476,#476,#404,.T.);
#573=EDGE_CURVE('',#477,#477,#405,.T.);
#574=EDGE_CURVE('',#477,#478,#293,.T.);
#575=EDGE_CURVE('',#478,#478,#406,.T.);
#576=EDGE_CURVE('',#479,#479,#407,.T.);
#577=EDGE_CURVE('',#479,#480,#294,.T.);
#578=EDGE_CURVE('',#480,#480,#408,.T.);
#579=EDGE_CURVE('',#481,#481,#409,.T.);
#580=EDGE_CURVE('',#481,#482,#295,.T.);
#581=EDGE_CURVE('',#482,#482,#410,.T.);
#582=EDGE_CURVE('',#483,#483,#411,.T.);
#583=EDGE_CURVE('',#483,#484,#296,.T.);
#584=EDGE_CURVE('',#484,#484,#412,.T.);
#585=EDGE_CURVE('',#485,#485,#413,.T.);
#586=EDGE_CURVE('',#485,#486,#297,.T.);
#587=EDGE_CURVE('',#486,#486,#414,.T.);
#588=EDGE_CURVE('',#487,#487,#415,.T.);
#589=EDGE_CURVE('',#487,#488,#298,.T.);
#590=EDGE_CURVE('',#488,#488,#416,.T.);
#591=EDGE_CURVE('',#489,#489,#417,.T.);
#592=EDGE_CURVE('',#489,#490,#299,.T.);
#593=EDGE_CURVE('',#490,#490,#418,.T.);
#594=EDGE_CURVE('',#491,#491,#419,.T.);
#595=EDGE_CURVE('',#491,#492,#300,.T.);
#596=EDGE_CURVE('',#492,#492,#420,.T.);
#597=EDGE_CURVE('',#493,#493,#421,.T.);
#598=EDGE_CURVE('',#493,#494,#301,.T.);
#599=EDGE_CURVE('',#494,#494,#422,.T.);
#600=EDGE_CURVE('',#495,#495,#423,.T.);
#601=EDGE_CURVE('',#495,#496,#302,.T.);
#602=EDGE_CURVE('',#496,#496,#424,.T.);
#603=EDGE_CURVE('',#497,#497,#425,.T.);
#604=EDGE_CURVE('',#497,#498,#303,.T.);
#605=EDGE_CURVE('',#498,#498,#426,.T.);
#606=EDGE_CURVE('',#499,#499,#427,.T.);
#607=EDGE_CURVE('',#499,#500,#304,.T.);
#608=EDGE_CURVE('',#500,#500,#428,.T.);
#609=EDGE_CURVE('',#501,#501,#429,.T.);
#610=EDGE_CURVE('',#501,#502,#305,.T.);
#611=EDGE_CURVE('',#502,#502,#430,.T.);
#612=EDGE_CURVE('',#503,#503,#431,.T.);
#613=EDGE_CURVE('',#503,#504,#306,.T.);
#614=EDGE_CURVE('',#504,#504,#432,.T.);
#615=EDGE_CURVE('',#505,#505,#433,.T.);
#616=EDGE_CURVE('',#505,#506,#307,.T.);
#617=EDGE_CURVE('',#506,#506,#434,.T.);
#618=EDGE_CURVE('',#507,#507,#435,.T.);
#619=EDGE_CURVE('',#507,#508,#308,.T.);
#620=EDGE_CURVE('',#508,#508,#436,.T.);
#621=EDGE_CURVE('',#509,#509,#437,.T.);
#622=EDGE_CURVE('',#509,#510,#309,.T.);
#623=EDGE_CURVE('',#510,#510,#438,.T.);
#624=EDGE_CURVE('',#511,#511,#439,.T.);
#625=EDGE_CURVE('',#511,#512,#310,.T.);
#626=EDGE_CURVE('',#512,#512,#440,.T.);
#627=EDGE_CURVE('',#513,#513,#441,.T.);
#628=EDGE_CURVE('',#513,#514,#311,.T.);
#629=EDGE_CURVE('',#514,#514,#442,.T.);
#630=EDGE_CURVE('',#515,#515,#443,.T.);
#631=EDGE_CURVE('',#515,#516,#312,.T.);
#632=EDGE_CURVE('',#516,#516,#444,.T.);
#633=EDGE_CURVE('',#517,#518,#313,.T.);
#634=EDGE_CURVE('',#517,#519,#314,.T.);
#635=EDGE_CURVE('',#520,#519,#315,.T.);
#636=EDGE_CURVE('',#518,#520,#316,.T.);
#637=EDGE_CURVE('',#518,#521,#317,.T.);
#638=EDGE_CURVE('',#522,#520,#318,.T.);
#639=EDGE_CURVE('',#521,#522,#319,.T.);
#640=EDGE_CURVE('',#521,#523,#320,.T.);
#641=EDGE_CURVE('',#524,#522,#321,.T.);
#642=EDGE_CURVE('',#523,#524,#322,.T.);
#643=EDGE_CURVE('',#523,#517,#323,.T.);
#644=EDGE_CURVE('',#519,#524,#324,.T.);
#645=ORIENTED_EDGE('',*,*,#525,.F.);
#646=ORIENTED_EDGE('',*,*,#526,.T.);
#647=ORIENTED_EDGE('',*,*,#527,.F.);
#648=ORIENTED_EDGE('',*,*,#526,.F.);
#649=ORIENTED_EDGE('',*,*,#528,.F.);
#650=ORIENTED_EDGE('',*,*,#529,.T.);
#651=ORIENTED_EDGE('',*,*,#530,.F.);
#652=ORIENTED_EDGE('',*,*,#529,.F.);
#653=ORIENTED_EDGE('',*,*,#528,.T.);
#654=ORIENTED_EDGE('',*,*,#525,.T.);
#655=ORIENTED_EDGE('',*,*,#527,.T.);
#656=ORIENTED_EDGE('',*,*,#531,.F.);
#657=ORIENTED_EDGE('',*,*,#532,.T.);
#658=ORIENTED_EDGE('',*,*,#533,.F.);
#659=ORIENTED_EDGE('',*,*,#532,.F.);
#660=ORIENTED_EDGE('',*,*,#534,.F.);
#661=ORIENTED_EDGE('',*,*,#535,.T.);
#662=ORIENTED_EDGE('',*,*,#536,.F.);
#663=ORIENTED_EDGE('',*,*,#535,.F.);
#664=ORIENTED_EDGE('',*,*,#534,.T.);
#665=ORIENTED_EDGE('',*,*,#531,.T.);
#666=ORIENTED_EDGE('',*,*,#533,.T.);
#667=ORIENTED_EDGE('',*,*,#537,.F.);
#668=ORIENTED_EDGE('',*,*,#538,.T.);
#669=ORIENTED_EDGE('',*,*,#539,.F.);
#670=ORIENTED_EDGE('',*,*,#538,.F.);
#671=ORIENTED_EDGE('',*,*,#540,.F.);
#672=ORIENTED_EDGE('',*,*,#541,.T.);
#673=ORIENTED_EDGE('',*,*,#542,.F.);
#674=ORIENTED_EDGE('',*,*,#541,.F.);
#675=ORIENTED_EDGE('',*,*,#540,.T.);
#676=ORIENTED_EDGE('',*,*,#537,.T.);
#677=ORIENTED_EDGE('',*,*,#539,.T.);
#678=ORIENTED_EDGE('',*,*,#543,.F.);
#679=ORIENTED_EDGE('',*,*,#544,.T.);
#680=ORIENTED_EDGE('',*,*,#545,.F.);
#681=ORIENTED_EDGE('',*,*,#544,.F.);
#682=ORIENTED_EDGE('',*,*,#546,.F.);
#683=ORIENTED_EDGE('',*,*,#547,.T.);
#684=ORIENTED_EDGE('',*,*,#548,.F.);
#685=ORIENTED_EDGE('',*,*,#547,.F.);
#686=ORIENTED_EDGE('',*,*,#546,.T.);
#687=ORIENTED_EDGE('',*,*,#543,.T.);
#688=ORIENTED_EDGE('',*,*,#545,.T.);
#689=ORIENTED_EDGE('',*,*,#549,.F.);
#690=ORIENTED_EDGE('',*,*,#550,.T.);
#691=ORIENTED_EDGE('',*,*,#551,.F.);
#692=ORIENTED_EDGE('',*,*,#550,.F.);
#693=ORIENTED_EDGE('',*,*,#552,.F.);
#694=ORIENTED_EDGE('',*,*,#553,.T.);
#695=ORIENTED_EDGE('',*,*,#554,.F.);
#696=ORIENTED_EDGE('',*,*,#553,.F.);
#697=ORIENTED_EDGE('',*,*,#552,.T.);
#698=ORIENTED_EDGE('',*,*,#549,.T.);
#699=ORIENTED_EDGE('',*,*,#551,.T.);
#700=ORIENTED_EDGE('',*,*,#555,.F.);
#701=ORIENTED_EDGE('',*,*,#556,.T.);
#702=ORIENTED_EDGE('',*,*,#557,.F.);
#703=ORIENTED_EDGE('',*,*,#556,.F.);
#704=ORIENTED_EDGE('',*,*,#558,.F.);
#705=ORIENTED_EDGE('',*,*,#559,.T.);
#706=ORIENTED_EDGE('',*,*,#560,.F.);
#707=ORIENTED_EDGE('',*,*,#559,.F.);
#708=ORIENTED_EDGE('',*,*,#558,.T.);
#709=ORIENTED_EDGE('',*,*,#555,.T.);
#710=ORIENTED_EDGE('',*,*,#557,.T.);
#711=ORIENTED_EDGE('',*,*,#561,.F.);
#712=ORIENTED_EDGE('',*,*,#562,.T.);
#713=ORIENTED_EDGE('',*,*,#563,.F.);
#714=ORIENTED_EDGE('',*,*,#562,.F.);
#715=ORIENTED_EDGE('',*,*,#564,.F.);
#716=ORIENTED_EDGE('',*,*,#565,.T.);
#717=ORIENTED_EDGE('',*,*,#566,.F.);
#718=ORIENTED_EDGE('',*,*,#565,.F.);
#719=ORIENTED_EDGE('',*,*,#564,.T.);
#720=ORIENTED_EDGE('',*,*,#561,.T.);
#721=ORIENTED_EDGE('',*,*,#563,.T.);
#722=ORIENTED_EDGE('',*,*,#567,.F.);
#723=ORIENTED_EDGE('',*,*,#568,.T.);
#724=ORIENTED_EDGE('',*,*,#569,.F.);
#725=ORIENTED_EDGE('',*,*,#568,.F.);
#726=ORIENTED_EDGE('',*,*,#570,.F.);
#727=ORIENTED_EDGE('',*,*,#571,.T.);
#728=ORIENTED_EDGE('',*,*,#572,.F.);
#729=ORIENTED_EDGE('',*,*,#571,.F.);
#730=ORIENTED_EDGE('',*,*,#570,.T.);
#731=ORIENTED_EDGE('',*,*,#567,.T.);
#732=ORIENTED_EDGE('',*,*,#569,.T.);
#733=ORIENTED_EDGE('',*,*,#573,.F.);
#734=ORIENTED_EDGE('',*,*,#574,.T.);
#735=ORIENTED_EDGE('',*,*,#575,.F.);
#736=ORIENTED_EDGE('',*,*,#574,.F.);
#737=ORIENTED_EDGE('',*,*,#576,.F.);
#738=ORIENTED_EDGE('',*,*,#577,.T.);
#739=ORIENTED_EDGE('',*,*,#578,.F.);
#740=ORIENTED_EDGE('',*,*,#577,.F.);
#741=ORIENTED_EDGE('',*,*,#576,.T.);
#742=ORIENTED_EDGE('',*,*,#573,.T.);
#743=ORIENTED_EDGE('',*,*,#575,.T.);
#744=ORIENTED_EDGE('',*,*,#579,.F.);
#745=ORIENTED_EDGE('',*,*,#580,.T.);
#746=ORIENTED_EDGE('',*,*,#581,.F.);
#747=ORIENTED_EDGE('',*,*,#580,.F.);
#748=ORIENTED_EDGE('',*,*,#582,.F.);
#749=ORIENTED_EDGE('',*,*,#583,.T.);
#750=ORIENTED_EDGE('',*,*,#584,.F.);
#751=ORIENTED_EDGE('',*,*,#583,.F.);
#752=ORIENTED_EDGE('',*,*,#582,.T.);
#753=ORIENTED_EDGE('',*,*,#579,.T.);
#754=ORIENTED_EDGE('',*,*,#581,.T.);
#755=ORIENTED_EDGE('',*,*,#585,.F.);
#756=ORIENTED_EDGE('',*,*,#586,.T.);
#757=ORIENTED_EDGE('',*,*,#587,.F.);
#758=ORIENTED_EDGE('',*,*,#586,.F.);
#759=ORIENTED_EDGE('',*,*,#588,.F.);
#760=ORIENTED_EDGE('',*,*,#589,.T.);
#761=ORIENTED_EDGE('',*,*,#590,.F.);
#762=ORIENTED_EDGE('',*,*,#589,.F.);
#763=ORIENTED_EDGE('',*,*,#588,.T.);
#764=ORIENTED_EDGE('',*,*,#585,.T.);
#765=ORIENTED_EDGE('',*,*,#587,.T.);
#766=ORIENTED_EDGE('',*,*,#591,.F.);
#767=ORIENTED_EDGE('',*,*,#592,.T.);
#768=ORIENTED_EDGE('',*,*,#593,.F.);
#769=ORIENTED_EDGE('',*,*,#592,.F.);
#770=ORIENTED_EDGE('',*,*,#594,.F.);
#771=ORIENTED_EDGE('',*,*,#595,.T.);
#772=ORIENTED_EDGE('',*,*,#596,.F.);
#773=ORIENTED_EDGE('',*,*,#595,.F.);
#774=ORIENTED_EDGE('',*,*,#594,.T.);
#775=ORIENTED_EDGE('',*,*,#591,.T.);
#776=ORIENTED_EDGE('',*,*,#593,.T.);
#777=ORIENTED_EDGE('',*,*,#597,.F.);
#778=ORIENTED_EDGE('',*,*,#598,.T.);
#779=ORIENTED_EDGE('',*,*,#599,.F.);
#780=ORIENTED_EDGE('',*,*,#598,.F.);
#781=ORIENTED_EDGE('',*,*,#600,.F.);
#782=ORIENTED_EDGE('',*,*,#601,.T.);
#783=ORIENTED_EDGE('',*,*,#602,.F.);
#784=ORIENTED_EDGE('',*,*,#601,.F.);
#785=ORIENTED_EDGE('',*,*,#600,.T.);
#786=ORIENTED_EDGE('',*,*,#597,.T.);
#787=ORIENTED_EDGE('',*,*,#599,.T.);
#788=ORIENTED_EDGE('',*,*,#603,.F.);
#789=ORIENTED_EDGE('',*,*,#604,.T.);
#790=ORIENTED_EDGE('',*,*,#605,.F.);
#791=ORIENTED_EDGE('',*,*,#604,.F.);
#792=ORIENTED_EDGE('',*,*,#606,.F.);
#793=ORIENTED_EDGE('',*,*,#607,.T.);
#794=ORIENTED_EDGE('',*,*,#608,.F.);
#795=ORIENTED_EDGE('',*,*,#607,.F.);
#796=ORIENTED_EDGE('',*,*,#606,.T.);
#797=ORIENTED_EDGE('',*,*,#603,.T.);
#798=ORIENTED_EDGE('',*,*,#605,.T.);
#799=ORIENTED_EDGE('',*,*,#609,.F.);
#800=ORIENTED_EDGE('',*,*,#610,.T.);
#801=ORIENTED_EDGE('',*,*,#611,.T.);
#802=ORIENTED_EDGE('',*,*,#610,.F.);
#803=ORIENTED_EDGE('',*,*,#612,.F.);
#804=ORIENTED_EDGE('',*,*,#613,.T.);
#805=ORIENTED_EDGE('',*,*,#614,.T.);
#806=ORIENTED_EDGE('',*,*,#613,.F.);
#807=ORIENTED_EDGE('',*,*,#615,.F.);
#808=ORIENTED_EDGE('',*,*,#616,.T.);
#809=ORIENTED_EDGE('',*,*,#617,.T.);
#810=ORIENTED_EDGE('',*,*,#616,.F.);
#811=ORIENTED_EDGE('',*,*,#618,.F.);
#812=ORIENTED_EDGE('',*,*,#619,.T.);
#813=ORIENTED_EDGE('',*,*,#620,.T.);
#814=ORIENTED_EDGE('',*,*,#619,.F.);
#815=ORIENTED_EDGE('',*,*,#621,.F.);
#816=ORIENTED_EDGE('',*,*,#622,.T.);
#817=ORIENTED_EDGE('',*,*,#623,.T.);
#818=ORIENTED_EDGE('',*,*,#622,.F.);
#819=ORIENTED_EDGE('',*,*,#624,.F.);
#820=ORIENTED_EDGE('',*,*,#625,.T.);
#821=ORIENTED_EDGE('',*,*,#626,.T.);
#822=ORIENTED_EDGE('',*,*,#625,.F.);
#823=ORIENTED_EDGE('',*,*,#627,.F.);
#824=ORIENTED_EDGE('',*,*,#628,.T.);
#825=ORIENTED_EDGE('',*,*,#629,.T.);
#826=ORIENTED_EDGE('',*,*,#628,.F.);
#827=ORIENTED_EDGE('',*,*,#630,.F.);
#828=ORIENTED_EDGE('',*,*,#631,.T.);
#829=ORIENTED_EDGE('',*,*,#632,.T.);
#830=ORIENTED_EDGE('',*,*,#631,.F.);
#831=ORIENTED_EDGE('',*,*,#633,.F.);
#832=ORIENTED_EDGE('',*,*,#634,.T.);
#833=ORIENTED_EDGE('',*,*,#635,.F.);
#834=ORIENTED_EDGE('',*,*,#636,.F.);
#835=ORIENTED_EDGE('',*,*,#637,.F.);
#836=ORIENTED_EDGE('',*,*,#636,.T.);
#837=ORIENTED_EDGE('',*,*,#638,.F.);
#838=ORIENTED_EDGE('',*,*,#639,.F.);
#839=ORIENTED_EDGE('',*,*,#640,.F.);
#840=ORIENTED_EDGE('',*,*,#639,.T.);
#841=ORIENTED_EDGE('',*,*,#641,.F.);
#842=ORIENTED_EDGE('',*,*,#642,.F.);
#843=ORIENTED_EDGE('',*,*,#643,.F.);
#844=ORIENTED_EDGE('',*,*,#642,.T.);
#845=ORIENTED_EDGE('',*,*,#644,.F.);
#846=ORIENTED_EDGE('',*,*,#634,.F.);
#847=ORIENTED_EDGE('',*,*,#644,.T.);
#848=ORIENTED_EDGE('',*,*,#641,.T.);
#849=ORIENTED_EDGE('',*,*,#638,.T.);
#850=ORIENTED_EDGE('',*,*,#635,.T.);
#851=ORIENTED_EDGE('',*,*,#536,.T.);
#852=ORIENTED_EDGE('',*,*,#548,.T.);
#853=ORIENTED_EDGE('',*,*,#560,.T.);
#854=ORIENTED_EDGE('',*,*,#572,.T.);
#855=ORIENTED_EDGE('',*,*,#584,.T.);
#856=ORIENTED_EDGE('',*,*,#596,.T.);
#857=ORIENTED_EDGE('',*,*,#608,.T.);
#858=ORIENTED_EDGE('',*,*,#630,.T.);
#859=ORIENTED_EDGE('',*,*,#627,.T.);
#860=ORIENTED_EDGE('',*,*,#624,.T.);
#861=ORIENTED_EDGE('',*,*,#621,.T.);
#862=ORIENTED_EDGE('',*,*,#618,.T.);
#863=ORIENTED_EDGE('',*,*,#615,.T.);
#864=ORIENTED_EDGE('',*,*,#612,.T.);
#865=ORIENTED_EDGE('',*,*,#609,.T.);
#866=ORIENTED_EDGE('',*,*,#602,.T.);
#867=ORIENTED_EDGE('',*,*,#590,.T.);
#868=ORIENTED_EDGE('',*,*,#578,.T.);
#869=ORIENTED_EDGE('',*,*,#566,.T.);
#870=ORIENTED_EDGE('',*,*,#554,.T.);
#871=ORIENTED_EDGE('',*,*,#542,.T.);
#872=ORIENTED_EDGE('',*,*,#530,.T.);
#873=ORIENTED_EDGE('',*,*,#643,.T.);
#874=ORIENTED_EDGE('',*,*,#633,.T.);
#875=ORIENTED_EDGE('',*,*,#637,.T.);
#876=ORIENTED_EDGE('',*,*,#640,.T.);
#877=ORIENTED_EDGE('',*,*,#632,.F.);
#878=ORIENTED_EDGE('',*,*,#629,.F.);
#879=ORIENTED_EDGE('',*,*,#626,.F.);
#880=ORIENTED_EDGE('',*,*,#623,.F.);
#881=ORIENTED_EDGE('',*,*,#620,.F.);
#882=ORIENTED_EDGE('',*,*,#617,.F.);
#883=ORIENTED_EDGE('',*,*,#614,.F.);
#884=ORIENTED_EDGE('',*,*,#611,.F.);
#885=CYLINDRICAL_SURFACE('',#1005,1.5);
#886=CYLINDRICAL_SURFACE('',#1008,2.5);
#887=CYLINDRICAL_SURFACE('',#1013,1.5);
#888=CYLINDRICAL_SURFACE('',#1016,2.5);
#889=CYLINDRICAL_SURFACE('',#1021,1.);
#890=CYLINDRICAL_SURFACE('',#1024,2.);
#891=CYLINDRICAL_SURFACE('',#1029,1.);
#892=CYLINDRICAL_SURFACE('',#1032,2.);
#893=CYLINDRICAL_SURFACE('',#1037,1.5);
#894=CYLINDRICAL_SURFACE('',#1040,2.5);
#895=CYLINDRICAL_SURFACE('',#1045,1.5);
#896=CYLINDRICAL_SURFACE('',#1048,2.5);
#897=CYLINDRICAL_SURFACE('',#1053,1.5);
#898=CYLINDRICAL_SURFACE('',#1056,2.5);
#899=CYLINDRICAL_SURFACE('',#1061,1.5);
#900=CYLINDRICAL_SURFACE('',#1064,2.5);
#901=CYLINDRICAL_SURFACE('',#1069,1.5);
#902=CYLINDRICAL_SURFACE('',#1072,2.5);
#903=CYLINDRICAL_SURFACE('',#1077,1.);
#904=CYLINDRICAL_SURFACE('',#1080,2.);
#905=CYLINDRICAL_SURFACE('',#1085,1.);
#906=CYLINDRICAL_SURFACE('',#1088,2.);
#907=CYLINDRICAL_SURFACE('',#1093,1.5);
#908=CYLINDRICAL_SURFACE('',#1096,2.5);
#909=CYLINDRICAL_SURFACE('',#1101,1.5);
#910=CYLINDRICAL_SURFACE('',#1104,2.5);
#911=CYLINDRICAL_SURFACE('',#1109,1.5);
#912=CYLINDRICAL_SURFACE('',#1112,2.5);
#913=CYLINDRICAL_SURFACE('',#1117,2.15);
#914=CYLINDRICAL_SURFACE('',#1120,2.15);
#915=CYLINDRICAL_SURFACE('',#1123,2.15);
#916=CYLINDRICAL_SURFACE('',#1126,2.15);
#917=CYLINDRICAL_SURFACE('',#1129,2.15);
#918=CYLINDRICAL_SURFACE('',#1132,2.15);
#919=CYLINDRICAL_SURFACE('',#1135,2.15);
#920=CYLINDRICAL_SURFACE('',#1138,2.15);
#921=ADVANCED_FACE('',(#93),#885,.F.);
#922=ADVANCED_FACE('',(#94),#886,.T.);
#923=ADVANCED_FACE('',(#95,#15),#59,.T.);
#924=ADVANCED_FACE('',(#96),#60,.T.);
#925=ADVANCED_FACE('',(#97),#887,.F.);
#926=ADVANCED_FACE('',(#98),#888,.T.);
#927=ADVANCED_FACE('',(#99,#16),#61,.T.);
#928=ADVANCED_FACE('',(#100),#62,.T.);
#929=ADVANCED_FACE('',(#101),#889,.F.);
#930=ADVANCED_FACE('',(#102),#890,.T.);
#931=ADVANCED_FACE('',(#103,#17),#63,.T.);
#932=ADVANCED_FACE('',(#104),#64,.T.);
#933=ADVANCED_FACE('',(#105),#891,.F.);
#934=ADVANCED_FACE('',(#106),#892,.T.);
#935=ADVANCED_FACE('',(#107,#18),#65,.T.);
#936=ADVANCED_FACE('',(#108),#66,.T.);
#937=ADVANCED_FACE('',(#109),#893,.F.);
#938=ADVANCED_FACE('',(#110),#894,.T.);
#939=ADVANCED_FACE('',(#111,#19),#67,.T.);
#940=ADVANCED_FACE('',(#112),#68,.T.);
#941=ADVANCED_FACE('',(#113),#895,.F.);
#942=ADVANCED_FACE('',(#114),#896,.T.);
#943=ADVANCED_FACE('',(#115,#20),#69,.T.);
#944=ADVANCED_FACE('',(#116),#70,.T.);
#945=ADVANCED_FACE('',(#117),#897,.F.);
#946=ADVANCED_FACE('',(#118),#898,.T.);
#947=ADVANCED_FACE('',(#119,#21),#71,.T.);
#948=ADVANCED_FACE('',(#120),#72,.T.);
#949=ADVANCED_FACE('',(#121),#899,.F.);
#950=ADVANCED_FACE('',(#122),#900,.T.);
#951=ADVANCED_FACE('',(#123,#22),#73,.T.);
#952=ADVANCED_FACE('',(#124),#74,.T.);
#953=ADVANCED_FACE('',(#125),#901,.F.);
#954=ADVANCED_FACE('',(#126),#902,.T.);
#955=ADVANCED_FACE('',(#127,#23),#75,.T.);
#956=ADVANCED_FACE('',(#128),#76,.T.);
#957=ADVANCED_FACE('',(#129),#903,.F.);
#958=ADVANCED_FACE('',(#130),#904,.T.);
#959=ADVANCED_FACE('',(#131,#24),#77,.T.);
#960=ADVANCED_FACE('',(#132),#78,.T.);
#961=ADVANCED_FACE('',(#133),#905,.F.);
#962=ADVANCED_FACE('',(#134),#906,.T.);
#963=ADVANCED_FACE('',(#135,#25),#79,.T.);
#964=ADVANCED_FACE('',(#136),#80,.T.);
#965=ADVANCED_FACE('',(#137),#907,.F.);
#966=ADVANCED_FACE('',(#138),#908,.T.);
#967=ADVANCED_FACE('',(#139,#26),#81,.T.);
#968=ADVANCED_FACE('',(#140),#82,.T.);
#969=ADVANCED_FACE('',(#141),#909,.F.);
#970=ADVANCED_FACE('',(#142),#910,.T.);
#971=ADVANCED_FACE('',(#143,#27),#83,.T.);
#972=ADVANCED_FACE('',(#144),#84,.T.);
#973=ADVANCED_FACE('',(#145),#911,.F.);
#974=ADVANCED_FACE('',(#146),#912,.T.);
#975=ADVANCED_FACE('',(#147,#28),#85,.T.);
#976=ADVANCED_FACE('',(#148),#86,.T.);
#977=ADVANCED_FACE('',(#149),#913,.F.);
#978=ADVANCED_FACE('',(#150),#914,.F.);
#979=ADVANCED_FACE('',(#151),#915,.F.);
#980=ADVANCED_FACE('',(#152),#916,.F.);
#981=ADVANCED_FACE('',(#153),#917,.F.);
#982=ADVANCED_FACE('',(#154),#918,.F.);
#983=ADVANCED_FACE('',(#155),#919,.F.);
#984=ADVANCED_FACE('',(#156),#920,.F.);
#985=ADVANCED_FACE('',(#157),#87,.T.);
#986=ADVANCED_FACE('',(#158),#88,.T.);
#987=ADVANCED_FACE('',(#159),#89,.T.);
#988=ADVANCED_FACE('',(#160),#90,.T.);
#989=ADVANCED_FACE('',(#161,#29,#30,#31,#32,#33,#34,#35,#36,#37,#38,#39,
#40,#41,#42,#43,#44,#45,#46,#47,#48,#49,#50),#91,.T.);
#990=ADVANCED_FACE('',(#162,#51,#52,#53,#54,#55,#56,#57,#58),#92,.F.);
#991=CLOSED_SHELL('',(#921,#922,#923,#924,#925,#926,#927,#928,#929,#930,
#931,#932,#933,#934,#935,#936,#937,#938,#939,#940,#941,#942,#943,#944,#945,
#946,#947,#948,#949,#950,#951,#952,#953,#954,#955,#956,#957,#958,#959,#960,
#961,#962,#963,#964,#965,#966,#967,#968,#969,#970,#971,#972,#973,#974,#975,
#976,#977,#978,#979,#980,#981,#982,#983,#984,#985,#986,#987,#988,#989,#990));
#992=DERIVED_UNIT_ELEMENT(#994,1.);
#993=DERIVED_UNIT_ELEMENT(#1757,-3.);
#994=(
MASS_UNIT()
NAMED_UNIT(*)
SI_UNIT(.KILO.,.GRAM.)
);
#995=DERIVED_UNIT((#992,#993));
#996=MEASURE_REPRESENTATION_ITEM('density measure',
POSITIVE_RATIO_MEASURE(7850.),#995);
#997=PROPERTY_DEFINITION_REPRESENTATION(#1002,#999);
#998=PROPERTY_DEFINITION_REPRESENTATION(#1003,#1000);
#999=REPRESENTATION('material name',(#1001),#1754);
#1000=REPRESENTATION('density',(#996),#1754);
#1001=DESCRIPTIVE_REPRESENTATION_ITEM('Steel','Steel');
#1002=PROPERTY_DEFINITION('material property','material name',#1764);
#1003=PROPERTY_DEFINITION('material property','density of part',#1764);
#1004=AXIS2_PLACEMENT_3D('',#1481,#1147,#1148);
#1005=AXIS2_PLACEMENT_3D('',#1482,#1149,#1150);
#1006=AXIS2_PLACEMENT_3D('',#1484,#1151,#1152);
#1007=AXIS2_PLACEMENT_3D('',#1487,#1154,#1155);
#1008=AXIS2_PLACEMENT_3D('',#1488,#1156,#1157);
#1009=AXIS2_PLACEMENT_3D('',#1490,#1158,#1159);
#1010=AXIS2_PLACEMENT_3D('',#1493,#1161,#1162);
#1011=AXIS2_PLACEMENT_3D('',#1494,#1163,#1164);
#1012=AXIS2_PLACEMENT_3D('',#1495,#1165,#1166);
#1013=AXIS2_PLACEMENT_3D('',#1496,#1167,#1168);
#1014=AXIS2_PLACEMENT_3D('',#1498,#1169,#1170);
#1015=AXIS2_PLACEMENT_3D('',#1501,#1172,#1173);
#1016=AXIS2_PLACEMENT_3D('',#1502,#1174,#1175);
#1017=AXIS2_PLACEMENT_3D('',#1504,#1176,#1177);
#1018=AXIS2_PLACEMENT_3D('',#1507,#1179,#1180);
#1019=AXIS2_PLACEMENT_3D('',#1508,#1181,#1182);
#1020=AXIS2_PLACEMENT_3D('',#1509,#1183,#1184);
#1021=AXIS2_PLACEMENT_3D('',#1510,#1185,#1186);
#1022=AXIS2_PLACEMENT_3D('',#1512,#1187,#1188);
#1023=AXIS2_PLACEMENT_3D('',#1515,#1190,#1191);
#1024=AXIS2_PLACEMENT_3D('',#1516,#1192,#1193);
#1025=AXIS2_PLACEMENT_3D('',#1518,#1194,#1195);
#1026=AXIS2_PLACEMENT_3D('',#1521,#1197,#1198);
#1027=AXIS2_PLACEMENT_3D('',#1522,#1199,#1200);
#1028=AXIS2_PLACEMENT_3D('',#1523,#1201,#1202);
#1029=AXIS2_PLACEMENT_3D('',#1524,#1203,#1204);
#1030=AXIS2_PLACEMENT_3D('',#1526,#1205,#1206);
#1031=AXIS2_PLACEMENT_3D('',#1529,#1208,#1209);
#1032=AXIS2_PLACEMENT_3D('',#1530,#1210,#1211);
#1033=AXIS2_PLACEMENT_3D('',#1532,#1212,#1213);
#1034=AXIS2_PLACEMENT_3D('',#1535,#1215,#1216);
#1035=AXIS2_PLACEMENT_3D('',#1536,#1217,#1218);
#1036=AXIS2_PLACEMENT_3D('',#1537,#1219,#1220);
#1037=AXIS2_PLACEMENT_3D('',#1538,#1221,#1222);
#1038=AXIS2_PLACEMENT_3D('',#1540,#1223,#1224);
#1039=AXIS2_PLACEMENT_3D('',#1543,#1226,#1227);
#1040=AXIS2_PLACEMENT_3D('',#1544,#1228,#1229);
#1041=AXIS2_PLACEMENT_3D('',#1546,#1230,#1231);
#1042=AXIS2_PLACEMENT_3D('',#1549,#1233,#1234);
#1043=AXIS2_PLACEMENT_3D('',#1550,#1235,#1236);
#1044=AXIS2_PLACEMENT_3D('',#1551,#1237,#1238);
#1045=AXIS2_PLACEMENT_3D('',#1552,#1239,#1240);
#1046=AXIS2_PLACEMENT_3D('',#1554,#1241,#1242);
#1047=AXIS2_PLACEMENT_3D('',#1557,#1244,#1245);
#1048=AXIS2_PLACEMENT_3D('',#1558,#1246,#1247);
#1049=AXIS2_PLACEMENT_3D('',#1560,#1248,#1249);
#1050=AXIS2_PLACEMENT_3D('',#1563,#1251,#1252);
#1051=AXIS2_PLACEMENT_3D('',#1564,#1253,#1254);
#1052=AXIS2_PLACEMENT_3D('',#1565,#1255,#1256);
#1053=AXIS2_PLACEMENT_3D('',#1566,#1257,#1258);
#1054=AXIS2_PLACEMENT_3D('',#1568,#1259,#1260);
#1055=AXIS2_PLACEMENT_3D('',#1571,#1262,#1263);
#1056=AXIS2_PLACEMENT_3D('',#1572,#1264,#1265);
#1057=AXIS2_PLACEMENT_3D('',#1574,#1266,#1267);
#1058=AXIS2_PLACEMENT_3D('',#1577,#1269,#1270);
#1059=AXIS2_PLACEMENT_3D('',#1578,#1271,#1272);
#1060=AXIS2_PLACEMENT_3D('',#1579,#1273,#1274);
#1061=AXIS2_PLACEMENT_3D('',#1580,#1275,#1276);
#1062=AXIS2_PLACEMENT_3D('',#1582,#1277,#1278);
#1063=AXIS2_PLACEMENT_3D('',#1585,#1280,#1281);
#1064=AXIS2_PLACEMENT_3D('',#1586,#1282,#1283);
#1065=AXIS2_PLACEMENT_3D('',#1588,#1284,#1285);
#1066=AXIS2_PLACEMENT_3D('',#1591,#1287,#1288);
#1067=AXIS2_PLACEMENT_3D('',#1592,#1289,#1290);
#1068=AXIS2_PLACEMENT_3D('',#1593,#1291,#1292);
#1069=AXIS2_PLACEMENT_3D('',#1594,#1293,#1294);
#1070=AXIS2_PLACEMENT_3D('',#1596,#1295,#1296);
#1071=AXIS2_PLACEMENT_3D('',#1599,#1298,#1299);
#1072=AXIS2_PLACEMENT_3D('',#1600,#1300,#1301);
#1073=AXIS2_PLACEMENT_3D('',#1602,#1302,#1303);
#1074=AXIS2_PLACEMENT_3D('',#1605,#1305,#1306);
#1075=AXIS2_PLACEMENT_3D('',#1606,#1307,#1308);
#1076=AXIS2_PLACEMENT_3D('',#1607,#1309,#1310);
#1077=AXIS2_PLACEMENT_3D('',#1608,#1311,#1312);
#1078=AXIS2_PLACEMENT_3D('',#1610,#1313,#1314);
#1079=AXIS2_PLACEMENT_3D('',#1613,#1316,#1317);
#1080=AXIS2_PLACEMENT_3D('',#1614,#1318,#1319);
#1081=AXIS2_PLACEMENT_3D('',#1616,#1320,#1321);
#1082=AXIS2_PLACEMENT_3D('',#1619,#1323,#1324);
#1083=AXIS2_PLACEMENT_3D('',#1620,#1325,#1326);
#1084=AXIS2_PLACEMENT_3D('',#1621,#1327,#1328);
#1085=AXIS2_PLACEMENT_3D('',#1622,#1329,#1330);
#1086=AXIS2_PLACEMENT_3D('',#1624,#1331,#1332);
#1087=AXIS2_PLACEMENT_3D('',#1627,#1334,#1335);
#1088=AXIS2_PLACEMENT_3D('',#1628,#1336,#1337);
#1089=AXIS2_PLACEMENT_3D('',#1630,#1338,#1339);
#1090=AXIS2_PLACEMENT_3D('',#1633,#1341,#1342);
#1091=AXIS2_PLACEMENT_3D('',#1634,#1343,#1344);
#1092=AXIS2_PLACEMENT_3D('',#1635,#1345,#1346);
#1093=AXIS2_PLACEMENT_3D('',#1636,#1347,#1348);
#1094=AXIS2_PLACEMENT_3D('',#1638,#1349,#1350);
#1095=AXIS2_PLACEMENT_3D('',#1641,#1352,#1353);
#1096=AXIS2_PLACEMENT_3D('',#1642,#1354,#1355);
#1097=AXIS2_PLACEMENT_3D('',#1644,#1356,#1357);
#1098=AXIS2_PLACEMENT_3D('',#1647,#1359,#1360);
#1099=AXIS2_PLACEMENT_3D('',#1648,#1361,#1362);
#1100=AXIS2_PLACEMENT_3D('',#1649,#1363,#1364);
#1101=AXIS2_PLACEMENT_3D('',#1650,#1365,#1366);
#1102=AXIS2_PLACEMENT_3D('',#1652,#1367,#1368);
#1103=AXIS2_PLACEMENT_3D('',#1655,#1370,#1371);
#1104=AXIS2_PLACEMENT_3D('',#1656,#1372,#1373);
#1105=AXIS2_PLACEMENT_3D('',#1658,#1374,#1375);
#1106=AXIS2_PLACEMENT_3D('',#1661,#1377,#1378);
#1107=AXIS2_PLACEMENT_3D('',#1662,#1379,#1380);
#1108=AXIS2_PLACEMENT_3D('',#1663,#1381,#1382);
#1109=AXIS2_PLACEMENT_3D('',#1664,#1383,#1384);
#1110=AXIS2_PLACEMENT_3D('',#1666,#1385,#1386);
#1111=AXIS2_PLACEMENT_3D('',#1669,#1388,#1389);
#1112=AXIS2_PLACEMENT_3D('',#1670,#1390,#1391);
#1113=AXIS2_PLACEMENT_3D('',#1672,#1392,#1393);
#1114=AXIS2_PLACEMENT_3D('',#1675,#1395,#1396);
#1115=AXIS2_PLACEMENT_3D('',#1676,#1397,#1398);
#1116=AXIS2_PLACEMENT_3D('',#1677,#1399,#1400);
#1117=AXIS2_PLACEMENT_3D('',#1678,#1401,#1402);
#1118=AXIS2_PLACEMENT_3D('',#1680,#1403,#1404);
#1119=AXIS2_PLACEMENT_3D('',#1683,#1406,#1407);
#1120=AXIS2_PLACEMENT_3D('',#1684,#1408,#1409);
#1121=AXIS2_PLACEMENT_3D('',#1686,#1410,#1411);
#1122=AXIS2_PLACEMENT_3D('',#1689,#1413,#1414);
#1123=AXIS2_PLACEMENT_3D('',#1690,#1415,#1416);
#1124=AXIS2_PLACEMENT_3D('',#1692,#1417,#1418);
#1125=AXIS2_PLACEMENT_3D('',#1695,#1420,#1421);
#1126=AXIS2_PLACEMENT_3D('',#1696,#1422,#1423);
#1127=AXIS2_PLACEMENT_3D('',#1698,#1424,#1425);
#1128=AXIS2_PLACEMENT_3D('',#1701,#1427,#1428);
#1129=AXIS2_PLACEMENT_3D('',#1702,#1429,#1430);
#1130=AXIS2_PLACEMENT_3D('',#1704,#1431,#1432);
#1131=AXIS2_PLACEMENT_3D('',#1707,#1434,#1435);
#1132=AXIS2_PLACEMENT_3D('',#1708,#1436,#1437);
#1133=AXIS2_PLACEMENT_3D('',#1710,#1438,#1439);
#1134=AXIS2_PLACEMENT_3D('',#1713,#1441,#1442);
#1135=AXIS2_PLACEMENT_3D('',#1714,#1443,#1444);
#1136=AXIS2_PLACEMENT_3D('',#1716,#1445,#1446);
#1137=AXIS2_PLACEMENT_3D('',#1719,#1448,#1449);
#1138=AXIS2_PLACEMENT_3D('',#1720,#1450,#1451);
#1139=AXIS2_PLACEMENT_3D('',#1722,#1452,#1453);
#1140=AXIS2_PLACEMENT_3D('',#1725,#1455,#1456);
#1141=AXIS2_PLACEMENT_3D('',#1726,#1457,#1458);
#1142=AXIS2_PLACEMENT_3D('',#1735,#1463,#1464);
#1143=AXIS2_PLACEMENT_3D('',#1741,#1468,#1469);
#1144=AXIS2_PLACEMENT_3D('',#1747,#1473,#1474);
#1145=AXIS2_PLACEMENT_3D('',#1750,#1477,#1478);
#1146=AXIS2_PLACEMENT_3D('',#1751,#1479,#1480);
#1147=DIRECTION('axis',(0.,0.,1.));
#1148=DIRECTION('refdir',(1.,0.,0.));
#1149=DIRECTION('center_axis',(0.,1.,0.));
#1150=DIRECTION('ref_axis',(-1.,0.,0.));
#1151=DIRECTION('center_axis',(0.,-1.,0.));
#1152=DIRECTION('ref_axis',(-1.,0.,0.));
#1153=DIRECTION('',(0.,-1.,0.));
#1154=DIRECTION('center_axis',(0.,1.,0.));
#1155=DIRECTION('ref_axis',(-1.,0.,0.));
#1156=DIRECTION('center_axis',(0.,1.,0.));
#1157=DIRECTION('ref_axis',(-1.,0.,0.));
#1158=DIRECTION('center_axis',(0.,1.,0.));
#1159=DIRECTION('ref_axis',(-1.,0.,0.));
#1160=DIRECTION('',(0.,-1.,0.));
#1161=DIRECTION('center_axis',(0.,-1.,0.));
#1162=DIRECTION('ref_axis',(-1.,0.,0.));
#1163=DIRECTION('center_axis',(0.,1.,0.));
#1164=DIRECTION('ref_axis',(-1.,0.,0.));
#1165=DIRECTION('center_axis',(0.,1.,0.));
#1166=DIRECTION('ref_axis',(1.,0.,0.));
#1167=DIRECTION('center_axis',(0.,1.,0.));
#1168=DIRECTION('ref_axis',(-1.,0.,0.));
#1169=DIRECTION('center_axis',(0.,-1.,0.));
#1170=DIRECTION('ref_axis',(-1.,0.,0.));
#1171=DIRECTION('',(0.,-1.,0.));
#1172=DIRECTION('center_axis',(0.,1.,0.));
#1173=DIRECTION('ref_axis',(-1.,0.,0.));
#1174=DIRECTION('center_axis',(0.,1.,0.));
#1175=DIRECTION('ref_axis',(-1.,0.,0.));
#1176=DIRECTION('center_axis',(0.,1.,0.));
#1177=DIRECTION('ref_axis',(-1.,0.,0.));
#1178=DIRECTION('',(0.,-1.,0.));
#1179=DIRECTION('center_axis',(0.,-1.,0.));
#1180=DIRECTION('ref_axis',(-1.,0.,0.));
#1181=DIRECTION('center_axis',(0.,1.,0.));
#1182=DIRECTION('ref_axis',(-1.,0.,0.));
#1183=DIRECTION('center_axis',(0.,1.,0.));
#1184=DIRECTION('ref_axis',(1.,0.,0.));
#1185=DIRECTION('center_axis',(0.,1.,0.));
#1186=DIRECTION('ref_axis',(-1.,0.,0.));
#1187=DIRECTION('center_axis',(0.,-1.,0.));
#1188=DIRECTION('ref_axis',(-1.,0.,0.));
#1189=DIRECTION('',(0.,-1.,0.));
#1190=DIRECTION('center_axis',(0.,1.,0.));
#1191=DIRECTION('ref_axis',(-1.,0.,0.));
#1192=DIRECTION('center_axis',(0.,1.,0.));
#1193=DIRECTION('ref_axis',(-1.,0.,0.));
#1194=DIRECTION('center_axis',(0.,1.,0.));
#1195=DIRECTION('ref_axis',(-1.,0.,0.));
#1196=DIRECTION('',(0.,-1.,0.));
#1197=DIRECTION('center_axis',(0.,-1.,0.));
#1198=DIRECTION('ref_axis',(-1.,0.,0.));
#1199=DIRECTION('center_axis',(0.,1.,0.));
#1200=DIRECTION('ref_axis',(-1.,0.,0.));
#1201=DIRECTION('center_axis',(0.,1.,0.));
#1202=DIRECTION('ref_axis',(1.,0.,0.));
#1203=DIRECTION('center_axis',(0.,1.,0.));
#1204=DIRECTION('ref_axis',(-1.,0.,0.));
#1205=DIRECTION('center_axis',(0.,-1.,0.));
#1206=DIRECTION('ref_axis',(-1.,0.,0.));
#1207=DIRECTION('',(0.,-1.,0.));
#1208=DIRECTION('center_axis',(0.,1.,0.));
#1209=DIRECTION('ref_axis',(-1.,0.,0.));
#1210=DIRECTION('center_axis',(0.,1.,0.));
#1211=DIRECTION('ref_axis',(-1.,0.,0.));
#1212=DIRECTION('center_axis',(0.,1.,0.));
#1213=DIRECTION('ref_axis',(-1.,0.,0.));
#1214=DIRECTION('',(0.,-1.,0.));
#1215=DIRECTION('center_axis',(0.,-1.,0.));
#1216=DIRECTION('ref_axis',(-1.,0.,0.));
#1217=DIRECTION('center_axis',(0.,1.,0.));
#1218=DIRECTION('ref_axis',(-1.,0.,0.));
#1219=DIRECTION('center_axis',(0.,1.,0.));
#1220=DIRECTION('ref_axis',(1.,0.,0.));
#1221=DIRECTION('center_axis',(0.,1.,0.));
#1222=DIRECTION('ref_axis',(-1.,0.,0.));
#1223=DIRECTION('center_axis',(0.,-1.,0.));
#1224=DIRECTION('ref_axis',(-1.,0.,0.));
#1225=DIRECTION('',(0.,-1.,0.));
#1226=DIRECTION('center_axis',(0.,1.,0.));
#1227=DIRECTION('ref_axis',(-1.,0.,0.));
#1228=DIRECTION('center_axis',(0.,1.,0.));
#1229=DIRECTION('ref_axis',(-1.,0.,0.));
#1230=DIRECTION('center_axis',(0.,1.,0.));
#1231=DIRECTION('ref_axis',(-1.,0.,0.));
#1232=DIRECTION('',(0.,-1.,0.));
#1233=DIRECTION('center_axis',(0.,-1.,0.));
#1234=DIRECTION('ref_axis',(-1.,0.,0.));
#1235=DIRECTION('center_axis',(0.,1.,0.));
#1236=DIRECTION('ref_axis',(-1.,0.,0.));
#1237=DIRECTION('center_axis',(0.,1.,0.));
#1238=DIRECTION('ref_axis',(1.,0.,0.));
#1239=DIRECTION('center_axis',(0.,1.,0.));
#1240=DIRECTION('ref_axis',(-1.,0.,0.));
#1241=DIRECTION('center_axis',(0.,-1.,0.));
#1242=DIRECTION('ref_axis',(-1.,0.,0.));
#1243=DIRECTION('',(0.,-1.,0.));
#1244=DIRECTION('center_axis',(0.,1.,0.));
#1245=DIRECTION('ref_axis',(-1.,0.,0.));
#1246=DIRECTION('center_axis',(0.,1.,0.));
#1247=DIRECTION('ref_axis',(-1.,0.,0.));
#1248=DIRECTION('center_axis',(0.,1.,0.));
#1249=DIRECTION('ref_axis',(-1.,0.,0.));
#1250=DIRECTION('',(0.,-1.,0.));
#1251=DIRECTION('center_axis',(0.,-1.,0.));
#1252=DIRECTION('ref_axis',(-1.,0.,0.));
#1253=DIRECTION('center_axis',(0.,1.,0.));
#1254=DIRECTION('ref_axis',(-1.,0.,0.));
#1255=DIRECTION('center_axis',(0.,1.,0.));
#1256=DIRECTION('ref_axis',(1.,0.,0.));
#1257=DIRECTION('center_axis',(0.,1.,0.));
#1258=DIRECTION('ref_axis',(-1.,0.,0.));
#1259=DIRECTION('center_axis',(0.,-1.,0.));
#1260=DIRECTION('ref_axis',(-1.,0.,0.));
#1261=DIRECTION('',(0.,-1.,0.));
#1262=DIRECTION('center_axis',(0.,1.,0.));
#1263=DIRECTION('ref_axis',(-1.,0.,0.));
#1264=DIRECTION('center_axis',(0.,1.,0.));
#1265=DIRECTION('ref_axis',(-1.,0.,0.));
#1266=DIRECTION('center_axis',(0.,1.,0.));
#1267=DIRECTION('ref_axis',(-1.,0.,0.));
#1268=DIRECTION('',(0.,-1.,0.));
#1269=DIRECTION('center_axis',(0.,-1.,0.));
#1270=DIRECTION('ref_axis',(-1.,0.,0.));
#1271=DIRECTION('center_axis',(0.,1.,0.));
#1272=DIRECTION('ref_axis',(-1.,0.,0.));
#1273=DIRECTION('center_axis',(0.,1.,0.));
#1274=DIRECTION('ref_axis',(1.,0.,0.));
#1275=DIRECTION('center_axis',(0.,1.,0.));
#1276=DIRECTION('ref_axis',(-1.,0.,0.));
#1277=DIRECTION('center_axis',(0.,-1.,0.));
#1278=DIRECTION('ref_axis',(-1.,0.,0.));
#1279=DIRECTION('',(0.,-1.,0.));
#1280=DIRECTION('center_axis',(0.,1.,0.));
#1281=DIRECTION('ref_axis',(-1.,0.,0.));
#1282=DIRECTION('center_axis',(0.,1.,0.));
#1283=DIRECTION('ref_axis',(-1.,0.,0.));
#1284=DIRECTION('center_axis',(0.,1.,0.));
#1285=DIRECTION('ref_axis',(-1.,0.,0.));
#1286=DIRECTION('',(0.,-1.,0.));
#1287=DIRECTION('center_axis',(0.,-1.,0.));
#1288=DIRECTION('ref_axis',(-1.,0.,0.));
#1289=DIRECTION('center_axis',(0.,1.,0.));
#1290=DIRECTION('ref_axis',(-1.,0.,0.));
#1291=DIRECTION('center_axis',(0.,1.,0.));
#1292=DIRECTION('ref_axis',(1.,0.,0.));
#1293=DIRECTION('center_axis',(0.,1.,0.));
#1294=DIRECTION('ref_axis',(-1.,0.,0.));
#1295=DIRECTION('center_axis',(0.,-1.,0.));
#1296=DIRECTION('ref_axis',(-1.,0.,0.));
#1297=DIRECTION('',(0.,-1.,0.));
#1298=DIRECTION('center_axis',(0.,1.,0.));
#1299=DIRECTION('ref_axis',(-1.,0.,0.));
#1300=DIRECTION('center_axis',(0.,1.,0.));
#1301=DIRECTION('ref_axis',(-1.,0.,0.));
#1302=DIRECTION('center_axis',(0.,1.,0.));
#1303=DIRECTION('ref_axis',(-1.,0.,0.));
#1304=DIRECTION('',(0.,-1.,0.));
#1305=DIRECTION('center_axis',(0.,-1.,0.));
#1306=DIRECTION('ref_axis',(-1.,0.,0.));
#1307=DIRECTION('center_axis',(0.,1.,0.));
#1308=DIRECTION('ref_axis',(-1.,0.,0.));
#1309=DIRECTION('center_axis',(0.,1.,0.));
#1310=DIRECTION('ref_axis',(1.,0.,0.));
#1311=DIRECTION('center_axis',(0.,1.,0.));
#1312=DIRECTION('ref_axis',(-1.,0.,0.));
#1313=DIRECTION('center_axis',(0.,-1.,0.));
#1314=DIRECTION('ref_axis',(-1.,0.,0.));
#1315=DIRECTION('',(0.,-1.,0.));
#1316=DIRECTION('center_axis',(0.,1.,0.));
#1317=DIRECTION('ref_axis',(-1.,0.,0.));
#1318=DIRECTION('center_axis',(0.,1.,0.));
#1319=DIRECTION('ref_axis',(-1.,0.,0.));
#1320=DIRECTION('center_axis',(0.,1.,0.));
#1321=DIRECTION('ref_axis',(-1.,0.,0.));
#1322=DIRECTION('',(0.,-1.,0.));
#1323=DIRECTION('center_axis',(0.,-1.,0.));
#1324=DIRECTION('ref_axis',(-1.,0.,0.));
#1325=DIRECTION('center_axis',(0.,1.,0.));
#1326=DIRECTION('ref_axis',(-1.,0.,0.));
#1327=DIRECTION('center_axis',(0.,1.,0.));
#1328=DIRECTION('ref_axis',(1.,0.,0.));
#1329=DIRECTION('center_axis',(0.,1.,0.));
#1330=DIRECTION('ref_axis',(-1.,0.,0.));
#1331=DIRECTION('center_axis',(0.,-1.,0.));
#1332=DIRECTION('ref_axis',(-1.,0.,0.));
#1333=DIRECTION('',(0.,-1.,0.));
#1334=DIRECTION('center_axis',(0.,1.,0.));
#1335=DIRECTION('ref_axis',(-1.,0.,0.));
#1336=DIRECTION('center_axis',(0.,1.,0.));
#1337=DIRECTION('ref_axis',(-1.,0.,0.));
#1338=DIRECTION('center_axis',(0.,1.,0.));
#1339=DIRECTION('ref_axis',(-1.,0.,0.));
#1340=DIRECTION('',(0.,-1.,0.));
#1341=DIRECTION('center_axis',(0.,-1.,0.));
#1342=DIRECTION('ref_axis',(-1.,0.,0.));
#1343=DIRECTION('center_axis',(0.,1.,0.));
#1344=DIRECTION('ref_axis',(-1.,0.,0.));
#1345=DIRECTION('center_axis',(0.,1.,0.));
#1346=DIRECTION('ref_axis',(1.,0.,0.));
#1347=DIRECTION('center_axis',(0.,1.,0.));
#1348=DIRECTION('ref_axis',(-1.,0.,0.));
#1349=DIRECTION('center_axis',(0.,-1.,0.));
#1350=DIRECTION('ref_axis',(-1.,0.,0.));
#1351=DIRECTION('',(0.,-1.,0.));
#1352=DIRECTION('center_axis',(0.,1.,0.));
#1353=DIRECTION('ref_axis',(-1.,0.,0.));
#1354=DIRECTION('center_axis',(0.,1.,0.));
#1355=DIRECTION('ref_axis',(-1.,0.,0.));
#1356=DIRECTION('center_axis',(0.,1.,0.));
#1357=DIRECTION('ref_axis',(-1.,0.,0.));
#1358=DIRECTION('',(0.,-1.,0.));
#1359=DIRECTION('center_axis',(0.,-1.,0.));
#1360=DIRECTION('ref_axis',(-1.,0.,0.));
#1361=DIRECTION('center_axis',(0.,1.,0.));
#1362=DIRECTION('ref_axis',(-1.,0.,0.));
#1363=DIRECTION('center_axis',(0.,1.,0.));
#1364=DIRECTION('ref_axis',(1.,0.,0.));
#1365=DIRECTION('center_axis',(0.,1.,0.));
#1366=DIRECTION('ref_axis',(-1.,0.,0.));
#1367=DIRECTION('center_axis',(0.,-1.,0.));
#1368=DIRECTION('ref_axis',(-1.,0.,0.));
#1369=DIRECTION('',(0.,-1.,0.));
#1370=DIRECTION('center_axis',(0.,1.,0.));
#1371=DIRECTION('ref_axis',(-1.,0.,0.));
#1372=DIRECTION('center_axis',(0.,1.,0.));
#1373=DIRECTION('ref_axis',(-1.,0.,0.));
#1374=DIRECTION('center_axis',(0.,1.,0.));
#1375=DIRECTION('ref_axis',(-1.,0.,0.));
#1376=DIRECTION('',(0.,-1.,0.));
#1377=DIRECTION('center_axis',(0.,-1.,0.));
#1378=DIRECTION('ref_axis',(-1.,0.,0.));
#1379=DIRECTION('center_axis',(0.,1.,0.));
#1380=DIRECTION('ref_axis',(-1.,0.,0.));
#1381=DIRECTION('center_axis',(0.,1.,0.));
#1382=DIRECTION('ref_axis',(1.,0.,0.));
#1383=DIRECTION('center_axis',(0.,1.,0.));
#1384=DIRECTION('ref_axis',(-1.,0.,0.));
#1385=DIRECTION('center_axis',(0.,-1.,0.));
#1386=DIRECTION('ref_axis',(-1.,0.,0.));
#1387=DIRECTION('',(0.,-1.,0.));
#1388=DIRECTION('center_axis',(0.,1.,0.));
#1389=DIRECTION('ref_axis',(-1.,0.,0.));
#1390=DIRECTION('center_axis',(0.,1.,0.));
#1391=DIRECTION('ref_axis',(-1.,0.,0.));
#1392=DIRECTION('center_axis',(0.,1.,0.));
#1393=DIRECTION('ref_axis',(-1.,0.,0.));
#1394=DIRECTION('',(0.,-1.,0.));
#1395=DIRECTION('center_axis',(0.,-1.,0.));
#1396=DIRECTION('ref_axis',(-1.,0.,0.));
#1397=DIRECTION('center_axis',(0.,1.,0.));
#1398=DIRECTION('ref_axis',(-1.,0.,0.));
#1399=DIRECTION('center_axis',(0.,1.,0.));
#1400=DIRECTION('ref_axis',(1.,0.,0.));
#1401=DIRECTION('center_axis',(0.,1.,0.));
#1402=DIRECTION('ref_axis',(1.,0.,0.));
#1403=DIRECTION('center_axis',(0.,-1.,0.));
#1404=DIRECTION('ref_axis',(1.,0.,0.));
#1405=DIRECTION('',(0.,-1.,0.));
#1406=DIRECTION('center_axis',(0.,-1.,0.));
#1407=DIRECTION('ref_axis',(1.,0.,0.));
#1408=DIRECTION('center_axis',(0.,1.,0.));
#1409=DIRECTION('ref_axis',(1.,0.,0.));
#1410=DIRECTION('center_axis',(0.,-1.,0.));
#1411=DIRECTION('ref_axis',(1.,0.,0.));
#1412=DIRECTION('',(0.,-1.,0.));
#1413=DIRECTION('center_axis',(0.,-1.,0.));
#1414=DIRECTION('ref_axis',(1.,0.,0.));
#1415=DIRECTION('center_axis',(0.,1.,0.));
#1416=DIRECTION('ref_axis',(1.,0.,0.));
#1417=DIRECTION('center_axis',(0.,-1.,0.));
#1418=DIRECTION('ref_axis',(1.,0.,0.));
#1419=DIRECTION('',(0.,-1.,0.));
#1420=DIRECTION('center_axis',(0.,-1.,0.));
#1421=DIRECTION('ref_axis',(1.,0.,0.));
#1422=DIRECTION('center_axis',(0.,1.,0.));
#1423=DIRECTION('ref_axis',(1.,0.,0.));
#1424=DIRECTION('center_axis',(0.,-1.,0.));
#1425=DIRECTION('ref_axis',(1.,0.,0.));
#1426=DIRECTION('',(0.,-1.,0.));
#1427=DIRECTION('center_axis',(0.,-1.,0.));
#1428=DIRECTION('ref_axis',(1.,0.,0.));
#1429=DIRECTION('center_axis',(0.,1.,0.));
#1430=DIRECTION('ref_axis',(1.,0.,0.));
#1431=DIRECTION('center_axis',(0.,-1.,0.));
#1432=DIRECTION('ref_axis',(1.,0.,0.));
#1433=DIRECTION('',(0.,-1.,0.));
#1434=DIRECTION('center_axis',(0.,-1.,0.));
#1435=DIRECTION('ref_axis',(1.,0.,0.));
#1436=DIRECTION('center_axis',(0.,1.,0.));
#1437=DIRECTION('ref_axis',(1.,0.,0.));
#1438=DIRECTION('center_axis',(0.,-1.,0.));
#1439=DIRECTION('ref_axis',(1.,0.,0.));
#1440=DIRECTION('',(0.,-1.,0.));
#1441=DIRECTION('center_axis',(0.,-1.,0.));
#1442=DIRECTION('ref_axis',(1.,0.,0.));
#1443=DIRECTION('center_axis',(0.,1.,0.));
#1444=DIRECTION('ref_axis',(1.,0.,0.));
#1445=DIRECTION('center_axis',(0.,-1.,0.));
#1446=DIRECTION('ref_axis',(1.,0.,0.));
#1447=DIRECTION('',(0.,-1.,0.));
#1448=DIRECTION('center_axis',(0.,-1.,0.));
#1449=DIRECTION('ref_axis',(1.,0.,0.));
#1450=DIRECTION('center_axis',(0.,1.,0.));
#1451=DIRECTION('ref_axis',(1.,0.,0.));
#1452=DIRECTION('center_axis',(0.,-1.,0.));
#1453=DIRECTION('ref_axis',(1.,0.,0.));
#1454=DIRECTION('',(0.,-1.,0.));
#1455=DIRECTION('center_axis',(0.,-1.,0.));
#1456=DIRECTION('ref_axis',(1.,0.,0.));
#1457=DIRECTION('center_axis',(-1.,0.,0.));
#1458=DIRECTION('ref_axis',(0.,0.,1.));
#1459=DIRECTION('',(0.,0.,-1.));
#1460=DIRECTION('',(0.,1.,0.));
#1461=DIRECTION('',(0.,0.,1.));
#1462=DIRECTION('',(0.,1.,0.));
#1463=DIRECTION('center_axis',(-1.70803542250024E-17,0.,-1.));
#1464=DIRECTION('ref_axis',(-1.,0.,1.70803542250024E-17));
#1465=DIRECTION('',(1.,0.,-1.70803542250024E-17));
#1466=DIRECTION('',(-1.,0.,1.70803542250024E-17));
#1467=DIRECTION('',(0.,1.,0.));
#1468=DIRECTION('center_axis',(1.,0.,0.));
#1469=DIRECTION('ref_axis',(0.,0.,-1.));
#1470=DIRECTION('',(0.,0.,1.));
#1471=DIRECTION('',(0.,0.,-1.));
#1472=DIRECTION('',(0.,1.,0.));
#1473=DIRECTION('center_axis',(-3.41607084500048E-17,0.,1.));
#1474=DIRECTION('ref_axis',(1.,0.,3.41607084500048E-17));
#1475=DIRECTION('',(-1.,0.,-3.41607084500048E-17));
#1476=DIRECTION('',(1.,0.,3.41607084500048E-17));
#1477=DIRECTION('center_axis',(0.,1.,0.));
#1478=DIRECTION('ref_axis',(1.,0.,0.));
#1479=DIRECTION('center_axis',(0.,1.,0.));
#1480=DIRECTION('ref_axis',(1.,0.,0.));
#1481=CARTESIAN_POINT('',(0.,0.,0.));
#1482=CARTESIAN_POINT('Origin',(59.7499999784761,3.,13.0000001055498));
#1483=CARTESIAN_POINT('',(61.2499999784761,13.,13.0000001055498));
#1484=CARTESIAN_POINT('Origin',(59.7499999784761,13.,13.0000001055498));
#1485=CARTESIAN_POINT('',(61.2499999784761,3.,13.0000001055498));
#1486=CARTESIAN_POINT('',(61.2499999784761,3.,13.0000001055498));
#1487=CARTESIAN_POINT('Origin',(59.7499999784761,3.,13.0000001055498));
#1488=CARTESIAN_POINT('Origin',(59.7499999784761,3.,13.0000001055498));
#1489=CARTESIAN_POINT('',(62.2499999784761,13.,13.0000001055498));
#1490=CARTESIAN_POINT('Origin',(59.7499999784761,13.,13.0000001055498));
#1491=CARTESIAN_POINT('',(62.2499999784761,3.,13.0000001055498));
#1492=CARTESIAN_POINT('',(62.2499999784761,3.,13.0000001055498));
#1493=CARTESIAN_POINT('Origin',(59.7499999784761,3.,13.0000001055498));
#1494=CARTESIAN_POINT('Origin',(59.7499999784761,13.,13.0000001055498));
#1495=CARTESIAN_POINT('Origin',(8.88178419700125E-15,3.,8.88178419700125E-15));
#1496=CARTESIAN_POINT('Origin',(-29.2499999784761,3.,13.0000000550515));
#1497=CARTESIAN_POINT('',(-27.7499999784761,13.,13.0000000550515));
#1498=CARTESIAN_POINT('Origin',(-29.2499999784761,13.,13.0000000550515));
#1499=CARTESIAN_POINT('',(-27.7499999784761,3.,13.0000000550515));
#1500=CARTESIAN_POINT('',(-27.7499999784761,3.,13.0000000550515));
#1501=CARTESIAN_POINT('Origin',(-29.2499999784761,3.,13.0000000550515));
#1502=CARTESIAN_POINT('Origin',(-29.2499999784761,3.,13.0000000550515));
#1503=CARTESIAN_POINT('',(-26.7499999784761,13.,13.0000000550515));
#1504=CARTESIAN_POINT('Origin',(-29.2499999784761,13.,13.0000000550515));
#1505=CARTESIAN_POINT('',(-26.7499999784761,3.,13.0000000550515));
#1506=CARTESIAN_POINT('',(-26.7499999784761,3.,13.0000000550515));
#1507=CARTESIAN_POINT('Origin',(-29.2499999784761,3.,13.0000000550515));
#1508=CARTESIAN_POINT('Origin',(-29.2499999784761,13.,13.0000000550515));
#1509=CARTESIAN_POINT('Origin',(8.88178419700125E-15,3.,8.88178419700125E-15));
#1510=CARTESIAN_POINT('Origin',(22.25,3.,16.));
#1511=CARTESIAN_POINT('',(23.25,13.,16.));
#1512=CARTESIAN_POINT('Origin',(22.25,13.,16.));
#1513=CARTESIAN_POINT('',(23.25,3.,16.));
#1514=CARTESIAN_POINT('',(23.25,3.,16.));
#1515=CARTESIAN_POINT('Origin',(22.25,3.,16.));
#1516=CARTESIAN_POINT('Origin',(22.25,3.,16.));
#1517=CARTESIAN_POINT('',(24.25,13.,16.));
#1518=CARTESIAN_POINT('Origin',(22.25,13.,16.));
#1519=CARTESIAN_POINT('',(24.25,3.,16.));
#1520=CARTESIAN_POINT('',(24.25,3.,16.));
#1521=CARTESIAN_POINT('Origin',(22.25,3.,16.));
#1522=CARTESIAN_POINT('Origin',(22.25,13.,16.));
#1523=CARTESIAN_POINT('Origin',(8.88178419700125E-15,3.,8.88178419700125E-15));
#1524=CARTESIAN_POINT('Origin',(22.25,3.,-16.));
#1525=CARTESIAN_POINT('',(23.25,13.,-16.));
#1526=CARTESIAN_POINT('Origin',(22.25,13.,-16.));
#1527=CARTESIAN_POINT('',(23.25,3.,-16.));
#1528=CARTESIAN_POINT('',(23.25,3.,-16.));
#1529=CARTESIAN_POINT('Origin',(22.25,3.,-16.));
#1530=CARTESIAN_POINT('Origin',(22.25,3.,-16.));
#1531=CARTESIAN_POINT('',(24.25,13.,-16.));
#1532=CARTESIAN_POINT('Origin',(22.25,13.,-16.));
#1533=CARTESIAN_POINT('',(24.25,3.,-16.));
#1534=CARTESIAN_POINT('',(24.25,3.,-16.));
#1535=CARTESIAN_POINT('Origin',(22.25,3.,-16.));
#1536=CARTESIAN_POINT('Origin',(22.25,13.,-16.));
#1537=CARTESIAN_POINT('Origin',(8.88178419700125E-15,3.,8.88178419700125E-15));
#1538=CARTESIAN_POINT('Origin',(20.,3.,0.));
#1539=CARTESIAN_POINT('',(21.5,13.,-1.83697019872103E-16));
#1540=CARTESIAN_POINT('Origin',(20.,13.,0.));
#1541=CARTESIAN_POINT('',(21.5,3.,-1.83697019872103E-16));
#1542=CARTESIAN_POINT('',(21.5,3.,-1.83697019872103E-16));
#1543=CARTESIAN_POINT('Origin',(20.,3.,0.));
#1544=CARTESIAN_POINT('Origin',(20.,3.,0.));
#1545=CARTESIAN_POINT('',(22.5,13.,-3.06161699786838E-16));
#1546=CARTESIAN_POINT('Origin',(20.,13.,0.));
#1547=CARTESIAN_POINT('',(22.5,3.,-3.06161699786838E-16));
#1548=CARTESIAN_POINT('',(22.5,3.,-3.06161699786838E-16));
#1549=CARTESIAN_POINT('Origin',(20.,3.,0.));
#1550=CARTESIAN_POINT('Origin',(20.,13.,0.));
#1551=CARTESIAN_POINT('Origin',(8.88178419700125E-15,3.,8.88178419700125E-15));
#1552=CARTESIAN_POINT('Origin',(-59.7500000215239,3.,-12.999999973923));
#1553=CARTESIAN_POINT('',(-58.2500000215239,13.,-12.999999973923));
#1554=CARTESIAN_POINT('Origin',(-59.7500000215239,13.,-12.999999973923));
#1555=CARTESIAN_POINT('',(-58.2500000215239,3.,-12.999999973923));
#1556=CARTESIAN_POINT('',(-58.2500000215239,3.,-12.999999973923));
#1557=CARTESIAN_POINT('Origin',(-59.7500000215239,3.,-12.999999973923));
#1558=CARTESIAN_POINT('Origin',(-59.7500000215239,3.,-12.999999973923));
#1559=CARTESIAN_POINT('',(-57.2500000215239,13.,-12.999999973923));
#1560=CARTESIAN_POINT('Origin',(-59.7500000215239,13.,-12.999999973923));
#1561=CARTESIAN_POINT('',(-57.2500000215239,3.,-12.999999973923));
#1562=CARTESIAN_POINT('',(-57.2500000215239,3.,-12.999999973923));
#1563=CARTESIAN_POINT('Origin',(-59.7500000215239,3.,-12.999999973923));
#1564=CARTESIAN_POINT('Origin',(-59.7500000215239,13.,-12.999999973923));
#1565=CARTESIAN_POINT('Origin',(8.88178419700125E-15,3.,8.88178419700125E-15));
#1566=CARTESIAN_POINT('Origin',(29.2500000215239,3.,-13.0000000244214));
#1567=CARTESIAN_POINT('',(30.7500000215239,13.,-13.0000000244214));
#1568=CARTESIAN_POINT('Origin',(29.2500000215239,13.,-13.0000000244214));
#1569=CARTESIAN_POINT('',(30.7500000215239,3.,-13.0000000244214));
#1570=CARTESIAN_POINT('',(30.7500000215239,3.,-13.0000000244214));
#1571=CARTESIAN_POINT('Origin',(29.2500000215239,3.,-13.0000000244214));
#1572=CARTESIAN_POINT('Origin',(29.2500000215239,3.,-13.0000000244214));
#1573=CARTESIAN_POINT('',(31.7500000215239,13.,-13.0000000244214));
#1574=CARTESIAN_POINT('Origin',(29.2500000215239,13.,-13.0000000244214));
#1575=CARTESIAN_POINT('',(31.7500000215239,3.,-13.0000000244214));
#1576=CARTESIAN_POINT('',(31.7500000215239,3.,-13.0000000244214));
#1577=CARTESIAN_POINT('Origin',(29.2500000215239,3.,-13.0000000244214));
#1578=CARTESIAN_POINT('Origin',(29.2500000215239,13.,-13.0000000244214));
#1579=CARTESIAN_POINT('Origin',(8.88178419700125E-15,3.,8.88178419700125E-15));
#1580=CARTESIAN_POINT('Origin',(59.7500000215239,3.,-12.999999973923));
#1581=CARTESIAN_POINT('',(61.2500000215239,13.,-12.999999973923));
#1582=CARTESIAN_POINT('Origin',(59.7500000215239,13.,-12.999999973923));
#1583=CARTESIAN_POINT('',(61.2500000215239,3.,-12.999999973923));
#1584=CARTESIAN_POINT('',(61.2500000215239,3.,-12.999999973923));
#1585=CARTESIAN_POINT('Origin',(59.7500000215239,3.,-12.999999973923));
#1586=CARTESIAN_POINT('Origin',(59.7500000215239,3.,-12.999999973923));
#1587=CARTESIAN_POINT('',(62.2500000215239,13.,-12.999999973923));
#1588=CARTESIAN_POINT('Origin',(59.7500000215239,13.,-12.999999973923));
#1589=CARTESIAN_POINT('',(62.2500000215239,3.,-12.999999973923));
#1590=CARTESIAN_POINT('',(62.2500000215239,3.,-12.999999973923));
#1591=CARTESIAN_POINT('Origin',(59.7500000215239,3.,-12.999999973923));
#1592=CARTESIAN_POINT('Origin',(59.7500000215239,13.,-12.999999973923));
#1593=CARTESIAN_POINT('Origin',(8.88178419700125E-15,3.,8.88178419700125E-15));
#1594=CARTESIAN_POINT('Origin',(-29.2500000215239,3.,-13.0000000244214));
#1595=CARTESIAN_POINT('',(-27.7500000215239,13.,-13.0000000244214));
#1596=CARTESIAN_POINT('Origin',(-29.2500000215239,13.,-13.0000000244214));
#1597=CARTESIAN_POINT('',(-27.7500000215239,3.,-13.0000000244214));
#1598=CARTESIAN_POINT('',(-27.7500000215239,3.,-13.0000000244214));
#1599=CARTESIAN_POINT('Origin',(-29.2500000215239,3.,-13.0000000244214));
#1600=CARTESIAN_POINT('Origin',(-29.2500000215239,3.,-13.0000000244214));
#1601=CARTESIAN_POINT('',(-26.7500000215239,13.,-13.0000000244214));
#1602=CARTESIAN_POINT('Origin',(-29.2500000215239,13.,-13.0000000244214));
#1603=CARTESIAN_POINT('',(-26.7500000215239,3.,-13.0000000244214));
#1604=CARTESIAN_POINT('',(-26.7500000215239,3.,-13.0000000244214));
#1605=CARTESIAN_POINT('Origin',(-29.2500000215239,3.,-13.0000000244214));
#1606=CARTESIAN_POINT('Origin',(-29.2500000215239,13.,-13.0000000244214));
#1607=CARTESIAN_POINT('Origin',(8.88178419700125E-15,3.,8.88178419700125E-15));
#1608=CARTESIAN_POINT('Origin',(-22.25,3.,16.));
#1609=CARTESIAN_POINT('',(-21.25,13.,16.));
#1610=CARTESIAN_POINT('Origin',(-22.25,13.,16.));
#1611=CARTESIAN_POINT('',(-21.25,3.,16.));
#1612=CARTESIAN_POINT('',(-21.25,3.,16.));
#1613=CARTESIAN_POINT('Origin',(-22.25,3.,16.));
#1614=CARTESIAN_POINT('Origin',(-22.25,3.,16.));
#1615=CARTESIAN_POINT('',(-20.25,13.,16.));
#1616=CARTESIAN_POINT('Origin',(-22.25,13.,16.));
#1617=CARTESIAN_POINT('',(-20.25,3.,16.));
#1618=CARTESIAN_POINT('',(-20.25,3.,16.));
#1619=CARTESIAN_POINT('Origin',(-22.25,3.,16.));
#1620=CARTESIAN_POINT('Origin',(-22.25,13.,16.));
#1621=CARTESIAN_POINT('Origin',(8.88178419700125E-15,3.,8.88178419700125E-15));
#1622=CARTESIAN_POINT('Origin',(-22.25,3.,-16.));
#1623=CARTESIAN_POINT('',(-21.25,13.,-16.));
#1624=CARTESIAN_POINT('Origin',(-22.25,13.,-16.));
#1625=CARTESIAN_POINT('',(-21.25,3.,-16.));
#1626=CARTESIAN_POINT('',(-21.25,3.,-16.));
#1627=CARTESIAN_POINT('Origin',(-22.25,3.,-16.));
#1628=CARTESIAN_POINT('Origin',(-22.25,3.,-16.));
#1629=CARTESIAN_POINT('',(-20.25,13.,-16.));
#1630=CARTESIAN_POINT('Origin',(-22.25,13.,-16.));
#1631=CARTESIAN_POINT('',(-20.25,3.,-16.));
#1632=CARTESIAN_POINT('',(-20.25,3.,-16.));
#1633=CARTESIAN_POINT('Origin',(-22.25,3.,-16.));
#1634=CARTESIAN_POINT('Origin',(-22.25,13.,-16.));
#1635=CARTESIAN_POINT('Origin',(8.88178419700125E-15,3.,8.88178419700125E-15));
#1636=CARTESIAN_POINT('Origin',(-20.,3.,0.));
#1637=CARTESIAN_POINT('',(-18.5,13.,-1.83697019872103E-16));
#1638=CARTESIAN_POINT('Origin',(-20.,13.,0.));
#1639=CARTESIAN_POINT('',(-18.5,3.,-1.83697019872103E-16));
#1640=CARTESIAN_POINT('',(-18.5,3.,-1.83697019872103E-16));
#1641=CARTESIAN_POINT('Origin',(-20.,3.,0.));
#1642=CARTESIAN_POINT('Origin',(-20.,3.,0.));
#1643=CARTESIAN_POINT('',(-17.5,13.,-3.06161699786838E-16));
#1644=CARTESIAN_POINT('Origin',(-20.,13.,0.));
#1645=CARTESIAN_POINT('',(-17.5,3.,-3.06161699786838E-16));
#1646=CARTESIAN_POINT('',(-17.5,3.,-3.06161699786838E-16));
#1647=CARTESIAN_POINT('Origin',(-20.,3.,0.));
#1648=CARTESIAN_POINT('Origin',(-20.,13.,0.));
#1649=CARTESIAN_POINT('Origin',(8.88178419700125E-15,3.,8.88178419700125E-15));
#1650=CARTESIAN_POINT('Origin',(-59.7499999784761,3.,13.0000001055499));
#1651=CARTESIAN_POINT('',(-58.2499999784761,13.,13.0000001055499));
#1652=CARTESIAN_POINT('Origin',(-59.7499999784761,13.,13.0000001055499));
#1653=CARTESIAN_POINT('',(-58.2499999784761,3.,13.0000001055499));
#1654=CARTESIAN_POINT('',(-58.2499999784761,3.,13.0000001055499));
#1655=CARTESIAN_POINT('Origin',(-59.7499999784761,3.,13.0000001055499));
#1656=CARTESIAN_POINT('Origin',(-59.7499999784761,3.,13.0000001055499));
#1657=CARTESIAN_POINT('',(-57.2499999784761,13.,13.0000001055499));
#1658=CARTESIAN_POINT('Origin',(-59.7499999784761,13.,13.0000001055499));
#1659=CARTESIAN_POINT('',(-57.2499999784761,3.,13.0000001055499));
#1660=CARTESIAN_POINT('',(-57.2499999784761,3.,13.0000001055499));
#1661=CARTESIAN_POINT('Origin',(-59.7499999784761,3.,13.0000001055499));
#1662=CARTESIAN_POINT('Origin',(-59.7499999784761,13.,13.0000001055499));
#1663=CARTESIAN_POINT('Origin',(8.88178419700125E-15,3.,8.88178419700125E-15));
#1664=CARTESIAN_POINT('Origin',(29.2499999784761,3.,13.0000000550515));
#1665=CARTESIAN_POINT('',(30.7499999784761,13.,13.0000000550515));
#1666=CARTESIAN_POINT('Origin',(29.2499999784761,13.,13.0000000550515));
#1667=CARTESIAN_POINT('',(30.7499999784761,3.,13.0000000550515));
#1668=CARTESIAN_POINT('',(30.7499999784761,3.,13.0000000550515));
#1669=CARTESIAN_POINT('Origin',(29.2499999784761,3.,13.0000000550515));
#1670=CARTESIAN_POINT('Origin',(29.2499999784761,3.,13.0000000550515));
#1671=CARTESIAN_POINT('',(31.7499999784761,13.,13.0000000550515));
#1672=CARTESIAN_POINT('Origin',(29.2499999784761,13.,13.0000000550515));
#1673=CARTESIAN_POINT('',(31.7499999784761,3.,13.0000000550515));
#1674=CARTESIAN_POINT('',(31.7499999784761,3.,13.0000000550515));
#1675=CARTESIAN_POINT('Origin',(29.2499999784761,3.,13.0000000550515));
#1676=CARTESIAN_POINT('Origin',(29.2499999784761,13.,13.0000000550515));
#1677=CARTESIAN_POINT('Origin',(8.88178419700125E-15,3.,8.88178419700125E-15));
#1678=CARTESIAN_POINT('Origin',(17.5,0.,-5.));
#1679=CARTESIAN_POINT('',(15.35,3.,-5.));
#1680=CARTESIAN_POINT('Origin',(17.5,3.,-5.));
#1681=CARTESIAN_POINT('',(15.35,0.,-5.));
#1682=CARTESIAN_POINT('',(15.35,0.,-5.));
#1683=CARTESIAN_POINT('Origin',(17.5,0.,-5.));
#1684=CARTESIAN_POINT('Origin',(-17.5,0.,15.));
#1685=CARTESIAN_POINT('',(-19.65,3.,15.));
#1686=CARTESIAN_POINT('Origin',(-17.5,3.,15.));
#1687=CARTESIAN_POINT('',(-19.65,0.,15.));
#1688=CARTESIAN_POINT('',(-19.65,0.,15.));
#1689=CARTESIAN_POINT('Origin',(-17.5,0.,15.));
#1690=CARTESIAN_POINT('Origin',(-17.5,0.,-15.));
#1691=CARTESIAN_POINT('',(-19.65,3.,-15.));
#1692=CARTESIAN_POINT('Origin',(-17.5,3.,-15.));
#1693=CARTESIAN_POINT('',(-19.65,0.,-15.));
#1694=CARTESIAN_POINT('',(-19.65,0.,-15.));
#1695=CARTESIAN_POINT('Origin',(-17.5,0.,-15.));
#1696=CARTESIAN_POINT('Origin',(17.5,0.,15.));
#1697=CARTESIAN_POINT('',(15.35,3.,15.));
#1698=CARTESIAN_POINT('Origin',(17.5,3.,15.));
#1699=CARTESIAN_POINT('',(15.35,0.,15.));
#1700=CARTESIAN_POINT('',(15.35,0.,15.));
#1701=CARTESIAN_POINT('Origin',(17.5,0.,15.));
#1702=CARTESIAN_POINT('Origin',(-17.5,0.,-5.));
#1703=CARTESIAN_POINT('',(-19.65,3.,-5.));
#1704=CARTESIAN_POINT('Origin',(-17.5,3.,-5.));
#1705=CARTESIAN_POINT('',(-19.65,0.,-5.));
#1706=CARTESIAN_POINT('',(-19.65,0.,-5.));
#1707=CARTESIAN_POINT('Origin',(-17.5,0.,-5.));
#1708=CARTESIAN_POINT('Origin',(17.5,0.,-15.));
#1709=CARTESIAN_POINT('',(15.35,3.,-15.));
#1710=CARTESIAN_POINT('Origin',(17.5,3.,-15.));
#1711=CARTESIAN_POINT('',(15.35,0.,-15.));
#1712=CARTESIAN_POINT('',(15.35,0.,-15.));
#1713=CARTESIAN_POINT('Origin',(17.5,0.,-15.));
#1714=CARTESIAN_POINT('Origin',(-17.5,0.,5.));
#1715=CARTESIAN_POINT('',(-19.65,3.,5.));
#1716=CARTESIAN_POINT('Origin',(-17.5,3.,5.));
#1717=CARTESIAN_POINT('',(-19.65,0.,5.));
#1718=CARTESIAN_POINT('',(-19.65,0.,5.));
#1719=CARTESIAN_POINT('Origin',(-17.5,0.,5.));
#1720=CARTESIAN_POINT('Origin',(17.5,0.,5.));
#1721=CARTESIAN_POINT('',(15.35,3.,5.));
#1722=CARTESIAN_POINT('Origin',(17.5,3.,5.));
#1723=CARTESIAN_POINT('',(15.35,0.,5.));
#1724=CARTESIAN_POINT('',(15.35,0.,5.));
#1725=CARTESIAN_POINT('Origin',(17.5,0.,5.));
#1726=CARTESIAN_POINT('Origin',(-65.,0.,-20.));
#1727=CARTESIAN_POINT('',(-65.,0.,20.));
#1728=CARTESIAN_POINT('',(-65.,0.,-20.));
#1729=CARTESIAN_POINT('',(-65.,0.,20.));
#1730=CARTESIAN_POINT('',(-65.,3.,20.));
#1731=CARTESIAN_POINT('',(-65.,0.,20.));
#1732=CARTESIAN_POINT('',(-65.,3.,-20.));
#1733=CARTESIAN_POINT('',(-65.,3.,20.));
#1734=CARTESIAN_POINT('',(-65.,0.,-20.));
#1735=CARTESIAN_POINT('Origin',(65.,0.,-20.));
#1736=CARTESIAN_POINT('',(65.,0.,-20.));
#1737=CARTESIAN_POINT('',(-65.,0.,-20.));
#1738=CARTESIAN_POINT('',(65.,3.,-20.));
#1739=CARTESIAN_POINT('',(-65.,3.,-20.));
#1740=CARTESIAN_POINT('',(65.,0.,-20.));
#1741=CARTESIAN_POINT('Origin',(65.,0.,20.));
#1742=CARTESIAN_POINT('',(65.,0.,20.));
#1743=CARTESIAN_POINT('',(65.,0.,-20.));
#1744=CARTESIAN_POINT('',(65.,3.,20.));
#1745=CARTESIAN_POINT('',(65.,3.,-20.));
#1746=CARTESIAN_POINT('',(65.,0.,20.));
#1747=CARTESIAN_POINT('Origin',(-65.,0.,20.));
#1748=CARTESIAN_POINT('',(65.,0.,20.));
#1749=CARTESIAN_POINT('',(65.,3.,20.));
#1750=CARTESIAN_POINT('Origin',(8.88178419700125E-15,3.,8.88178419700125E-15));
#1751=CARTESIAN_POINT('Origin',(8.88178419700125E-15,0.,8.88178419700125E-15));
#1752=UNCERTAINTY_MEASURE_WITH_UNIT(LENGTH_MEASURE(0.01),#1756,
'DISTANCE_ACCURACY_VALUE',
'Maximum model space distance between geometric entities at asserted c
onnectivities');
#1753=UNCERTAINTY_MEASURE_WITH_UNIT(LENGTH_MEASURE(0.01),#1756,
'DISTANCE_ACCURACY_VALUE',
'Maximum model space distance between geometric entities at asserted c
onnectivities');
#1754=(
GEOMETRIC_REPRESENTATION_CONTEXT(3)
GLOBAL_UNCERTAINTY_ASSIGNED_CONTEXT((#1752))
GLOBAL_UNIT_ASSIGNED_CONTEXT((#1756,#1758,#1759))
REPRESENTATION_CONTEXT('','3D')
);
#1755=(
GEOMETRIC_REPRESENTATION_CONTEXT(3)
GLOBAL_UNCERTAINTY_ASSIGNED_CONTEXT((#1753))
GLOBAL_UNIT_ASSIGNED_CONTEXT((#1756,#1758,#1759))
REPRESENTATION_CONTEXT('','3D')
);
#1756=(
LENGTH_UNIT()
NAMED_UNIT(*)
SI_UNIT(.MILLI.,.METRE.)
);
#1757=(
LENGTH_UNIT()
NAMED_UNIT(*)
SI_UNIT($,.METRE.)
);
#1758=(
NAMED_UNIT(*)
PLANE_ANGLE_UNIT()
SI_UNIT($,.RADIAN.)
);
#1759=(
NAMED_UNIT(*)
SI_UNIT($,.STERADIAN.)
SOLID_ANGLE_UNIT()
);
#1760=SHAPE_DEFINITION_REPRESENTATION(#1761,#1762);
#1761=PRODUCT_DEFINITION_SHAPE('',$,#1764);
#1762=SHAPE_REPRESENTATION('',(#1004),#1754);
#1763=PRODUCT_DEFINITION_CONTEXT('part definition',#1768,'design');
#1764=PRODUCT_DEFINITION('2026-05-12-12-32-37-139',
'Microcontroller holder',#1765,#1763);
#1765=PRODUCT_DEFINITION_FORMATION('',$,#1770);
#1766=PRODUCT_RELATED_PRODUCT_CATEGORY('Microcontroller holder',
'Microcontroller holder',(#1770));
#1767=APPLICATION_PROTOCOL_DEFINITION('international standard',
'automotive_design',2009,#1768);
#1768=APPLICATION_CONTEXT(
'Core Data for Automotive Mechanical Design Process');
#1769=PRODUCT_CONTEXT('part definition',#1768,'mechanical');
#1770=PRODUCT('2026-05-12-12-32-37-139','Microcontroller holder',$,(#1769));
#1771=PRESENTATION_STYLE_ASSIGNMENT((#1772));
#1772=SURFACE_STYLE_USAGE(.BOTH.,#1773);
#1773=SURFACE_SIDE_STYLE('',(#1774));
#1774=SURFACE_STYLE_FILL_AREA(#1775);
#1775=FILL_AREA_STYLE('Steel - Satin',(#1776));
#1776=FILL_AREA_STYLE_COLOUR('Steel - Satin',#1777);
#1777=COLOUR_RGB('Steel - Satin',0.627450980392157,0.627450980392157,0.627450980392157);
ENDSEC;
END-ISO-10303-21;
