ISO-10303-21;
HEADER;
/* Generated by software containing ST-Developer
 * from STEP Tools, Inc. (www.steptools.com) 
 */

FILE_DESCRIPTION(
/* description */ (''),
/* implementation_level */ '2;1');

FILE_NAME(
/* name */ 'Robot Chassis.step',
/* time_stamp */ '2026-05-10T22:57:06-04:00',
/* author */ (''),
/* organization */ (''),
/* preprocessor_version */ 'ST-DEVELOPER v20.1',
/* originating_system */ 'Autodesk Translation Framework v15.8.0.0',
/* authorisation */ '');

FILE_SCHEMA (('AUTOMOTIVE_DESIGN { 1 0 10303 214 3 1 1 }'));
ENDSEC;

DATA;
#10=MECHANICAL_DESIGN_GEOMETRIC_PRESENTATION_REPRESENTATION('',(#13),#1443);
#11=SHAPE_REPRESENTATION_RELATIONSHIP('SRR','None',#1450,#12);
#12=ADVANCED_BREP_SHAPE_REPRESENTATION('',(#14),#1442);
#13=STYLED_ITEM('',(#1459),#14);
#14=MANIFOLD_SOLID_BREP('Body1',#839);
#15=FACE_BOUND('',#158,.T.);
#16=FACE_BOUND('',#159,.T.);
#17=FACE_BOUND('',#160,.T.);
#18=FACE_BOUND('',#161,.T.);
#19=FACE_BOUND('',#162,.T.);
#20=FACE_BOUND('',#163,.T.);
#21=FACE_BOUND('',#164,.T.);
#22=FACE_BOUND('',#165,.T.);
#23=FACE_BOUND('',#166,.T.);
#24=FACE_BOUND('',#167,.T.);
#25=FACE_BOUND('',#168,.T.);
#26=FACE_BOUND('',#169,.T.);
#27=FACE_BOUND('',#170,.T.);
#28=FACE_BOUND('',#171,.T.);
#29=FACE_BOUND('',#172,.T.);
#30=FACE_BOUND('',#173,.T.);
#31=FACE_BOUND('',#174,.T.);
#32=FACE_BOUND('',#175,.T.);
#33=FACE_BOUND('',#176,.T.);
#34=FACE_BOUND('',#177,.T.);
#35=FACE_BOUND('',#178,.T.);
#36=FACE_BOUND('',#179,.T.);
#37=FACE_BOUND('',#180,.T.);
#38=FACE_BOUND('',#181,.T.);
#39=FACE_BOUND('',#182,.T.);
#40=FACE_BOUND('',#183,.T.);
#41=FACE_BOUND('',#184,.T.);
#42=FACE_BOUND('',#185,.T.);
#43=FACE_BOUND('',#186,.T.);
#44=FACE_BOUND('',#187,.T.);
#45=FACE_BOUND('',#188,.T.);
#46=FACE_BOUND('',#189,.T.);
#47=FACE_BOUND('',#190,.T.);
#48=FACE_BOUND('',#192,.T.);
#49=FACE_BOUND('',#193,.T.);
#50=FACE_BOUND('',#194,.T.);
#51=FACE_BOUND('',#195,.T.);
#52=FACE_BOUND('',#196,.T.);
#53=FACE_BOUND('',#197,.T.);
#54=FACE_BOUND('',#198,.T.);
#55=FACE_BOUND('',#199,.T.);
#56=FACE_BOUND('',#200,.T.);
#57=FACE_BOUND('',#201,.T.);
#58=FACE_BOUND('',#202,.T.);
#59=FACE_BOUND('',#203,.T.);
#60=FACE_BOUND('',#204,.T.);
#61=FACE_BOUND('',#205,.T.);
#62=FACE_BOUND('',#206,.T.);
#63=FACE_BOUND('',#207,.T.);
#64=FACE_BOUND('',#208,.T.);
#65=FACE_BOUND('',#209,.T.);
#66=FACE_BOUND('',#210,.T.);
#67=FACE_BOUND('',#211,.T.);
#68=FACE_BOUND('',#212,.T.);
#69=FACE_BOUND('',#213,.T.);
#70=FACE_BOUND('',#214,.T.);
#71=FACE_BOUND('',#215,.T.);
#72=FACE_BOUND('',#216,.T.);
#73=FACE_BOUND('',#217,.T.);
#74=FACE_BOUND('',#218,.T.);
#75=FACE_BOUND('',#219,.T.);
#76=FACE_BOUND('',#220,.T.);
#77=FACE_BOUND('',#221,.T.);
#78=FACE_BOUND('',#222,.T.);
#79=FACE_BOUND('',#223,.T.);
#80=FACE_BOUND('',#224,.T.);
#81=PLANE('',#961);
#82=PLANE('',#962);
#83=FACE_OUTER_BOUND('',#121,.T.);
#84=FACE_OUTER_BOUND('',#122,.T.);
#85=FACE_OUTER_BOUND('',#123,.T.);
#86=FACE_OUTER_BOUND('',#124,.T.);
#87=FACE_OUTER_BOUND('',#125,.T.);
#88=FACE_OUTER_BOUND('',#126,.T.);
#89=FACE_OUTER_BOUND('',#127,.T.);
#90=FACE_OUTER_BOUND('',#128,.T.);
#91=FACE_OUTER_BOUND('',#129,.T.);
#92=FACE_OUTER_BOUND('',#130,.T.);
#93=FACE_OUTER_BOUND('',#131,.T.);
#94=FACE_OUTER_BOUND('',#132,.T.);
#95=FACE_OUTER_BOUND('',#133,.T.);
#96=FACE_OUTER_BOUND('',#134,.T.);
#97=FACE_OUTER_BOUND('',#135,.T.);
#98=FACE_OUTER_BOUND('',#136,.T.);
#99=FACE_OUTER_BOUND('',#137,.T.);
#100=FACE_OUTER_BOUND('',#138,.T.);
#101=FACE_OUTER_BOUND('',#139,.T.);
#102=FACE_OUTER_BOUND('',#140,.T.);
#103=FACE_OUTER_BOUND('',#141,.T.);
#104=FACE_OUTER_BOUND('',#142,.T.);
#105=FACE_OUTER_BOUND('',#143,.T.);
#106=FACE_OUTER_BOUND('',#144,.T.);
#107=FACE_OUTER_BOUND('',#145,.T.);
#108=FACE_OUTER_BOUND('',#146,.T.);
#109=FACE_OUTER_BOUND('',#147,.T.);
#110=FACE_OUTER_BOUND('',#148,.T.);
#111=FACE_OUTER_BOUND('',#149,.T.);
#112=FACE_OUTER_BOUND('',#150,.T.);
#113=FACE_OUTER_BOUND('',#151,.T.);
#114=FACE_OUTER_BOUND('',#152,.T.);
#115=FACE_OUTER_BOUND('',#153,.T.);
#116=FACE_OUTER_BOUND('',#154,.T.);
#117=FACE_OUTER_BOUND('',#155,.T.);
#118=FACE_OUTER_BOUND('',#156,.T.);
#119=FACE_OUTER_BOUND('',#157,.T.);
#120=FACE_OUTER_BOUND('',#191,.T.);
#121=EDGE_LOOP('',(#549,#550,#551,#552));
#122=EDGE_LOOP('',(#553,#554,#555,#556));
#123=EDGE_LOOP('',(#557,#558,#559,#560));
#124=EDGE_LOOP('',(#561,#562,#563,#564));
#125=EDGE_LOOP('',(#565,#566,#567,#568));
#126=EDGE_LOOP('',(#569,#570,#571,#572));
#127=EDGE_LOOP('',(#573,#574,#575,#576));
#128=EDGE_LOOP('',(#577,#578,#579,#580));
#129=EDGE_LOOP('',(#581,#582,#583,#584));
#130=EDGE_LOOP('',(#585,#586,#587,#588));
#131=EDGE_LOOP('',(#589,#590,#591,#592));
#132=EDGE_LOOP('',(#593,#594,#595,#596));
#133=EDGE_LOOP('',(#597,#598,#599,#600));
#134=EDGE_LOOP('',(#601,#602,#603,#604));
#135=EDGE_LOOP('',(#605,#606,#607,#608));
#136=EDGE_LOOP('',(#609,#610,#611,#612));
#137=EDGE_LOOP('',(#613,#614,#615,#616));
#138=EDGE_LOOP('',(#617,#618,#619,#620));
#139=EDGE_LOOP('',(#621,#622,#623,#624));
#140=EDGE_LOOP('',(#625,#626,#627,#628));
#141=EDGE_LOOP('',(#629,#630,#631,#632));
#142=EDGE_LOOP('',(#633,#634,#635,#636));
#143=EDGE_LOOP('',(#637,#638,#639,#640));
#144=EDGE_LOOP('',(#641,#642,#643,#644));
#145=EDGE_LOOP('',(#645,#646,#647,#648));
#146=EDGE_LOOP('',(#649,#650,#651,#652));
#147=EDGE_LOOP('',(#653,#654,#655,#656));
#148=EDGE_LOOP('',(#657,#658,#659,#660));
#149=EDGE_LOOP('',(#661,#662,#663,#664));
#150=EDGE_LOOP('',(#665,#666,#667,#668));
#151=EDGE_LOOP('',(#669,#670,#671,#672));
#152=EDGE_LOOP('',(#673,#674,#675,#676));
#153=EDGE_LOOP('',(#677,#678,#679,#680));
#154=EDGE_LOOP('',(#681,#682,#683,#684));
#155=EDGE_LOOP('',(#685,#686,#687,#688));
#156=EDGE_LOOP('',(#689,#690,#691,#692));
#157=EDGE_LOOP('',(#693));
#158=EDGE_LOOP('',(#694));
#159=EDGE_LOOP('',(#695));
#160=EDGE_LOOP('',(#696));
#161=EDGE_LOOP('',(#697));
#162=EDGE_LOOP('',(#698));
#163=EDGE_LOOP('',(#699));
#164=EDGE_LOOP('',(#700));
#165=EDGE_LOOP('',(#701));
#166=EDGE_LOOP('',(#702));
#167=EDGE_LOOP('',(#703));
#168=EDGE_LOOP('',(#704));
#169=EDGE_LOOP('',(#705,#706));
#170=EDGE_LOOP('',(#707));
#171=EDGE_LOOP('',(#708));
#172=EDGE_LOOP('',(#709));
#173=EDGE_LOOP('',(#710));
#174=EDGE_LOOP('',(#711));
#175=EDGE_LOOP('',(#712));
#176=EDGE_LOOP('',(#713));
#177=EDGE_LOOP('',(#714));
#178=EDGE_LOOP('',(#715));
#179=EDGE_LOOP('',(#716));
#180=EDGE_LOOP('',(#717));
#181=EDGE_LOOP('',(#718,#719));
#182=EDGE_LOOP('',(#720));
#183=EDGE_LOOP('',(#721));
#184=EDGE_LOOP('',(#722));
#185=EDGE_LOOP('',(#723));
#186=EDGE_LOOP('',(#724));
#187=EDGE_LOOP('',(#725));
#188=EDGE_LOOP('',(#726));
#189=EDGE_LOOP('',(#727));
#190=EDGE_LOOP('',(#728));
#191=EDGE_LOOP('',(#729));
#192=EDGE_LOOP('',(#730));
#193=EDGE_LOOP('',(#731));
#194=EDGE_LOOP('',(#732));
#195=EDGE_LOOP('',(#733));
#196=EDGE_LOOP('',(#734));
#197=EDGE_LOOP('',(#735));
#198=EDGE_LOOP('',(#736));
#199=EDGE_LOOP('',(#737));
#200=EDGE_LOOP('',(#738));
#201=EDGE_LOOP('',(#739));
#202=EDGE_LOOP('',(#740));
#203=EDGE_LOOP('',(#741,#742));
#204=EDGE_LOOP('',(#743));
#205=EDGE_LOOP('',(#744));
#206=EDGE_LOOP('',(#745));
#207=EDGE_LOOP('',(#746));
#208=EDGE_LOOP('',(#747));
#209=EDGE_LOOP('',(#748));
#210=EDGE_LOOP('',(#749));
#211=EDGE_LOOP('',(#750));
#212=EDGE_LOOP('',(#751));
#213=EDGE_LOOP('',(#752));
#214=EDGE_LOOP('',(#753));
#215=EDGE_LOOP('',(#754,#755));
#216=EDGE_LOOP('',(#756));
#217=EDGE_LOOP('',(#757));
#218=EDGE_LOOP('',(#758));
#219=EDGE_LOOP('',(#759));
#220=EDGE_LOOP('',(#760));
#221=EDGE_LOOP('',(#761));
#222=EDGE_LOOP('',(#762));
#223=EDGE_LOOP('',(#763));
#224=EDGE_LOOP('',(#764));
#225=LINE('',#1226,#261);
#226=LINE('',#1232,#262);
#227=LINE('',#1238,#263);
#228=LINE('',#1244,#264);
#229=LINE('',#1250,#265);
#230=LINE('',#1256,#266);
#231=LINE('',#1262,#267);
#232=LINE('',#1268,#268);
#233=LINE('',#1274,#269);
#234=LINE('',#1281,#270);
#235=LINE('',#1284,#271);
#236=LINE('',#1292,#272);
#237=LINE('',#1298,#273);
#238=LINE('',#1304,#274);
#239=LINE('',#1310,#275);
#240=LINE('',#1316,#276);
#241=LINE('',#1322,#277);
#242=LINE('',#1328,#278);
#243=LINE('',#1334,#279);
#244=LINE('',#1340,#280);
#245=LINE('',#1346,#281);
#246=LINE('',#1352,#282);
#247=LINE('',#1359,#283);
#248=LINE('',#1362,#284);
#249=LINE('',#1370,#285);
#250=LINE('',#1376,#286);
#251=LINE('',#1382,#287);
#252=LINE('',#1388,#288);
#253=LINE('',#1394,#289);
#254=LINE('',#1400,#290);
#255=LINE('',#1406,#291);
#256=LINE('',#1412,#292);
#257=LINE('',#1418,#293);
#258=LINE('',#1424,#294);
#259=LINE('',#1430,#295);
#260=LINE('',#1436,#296);
#261=VECTOR('',#969,2.15);
#262=VECTOR('',#976,2.15);
#263=VECTOR('',#983,2.15);
#264=VECTOR('',#990,2.15);
#265=VECTOR('',#997,2.15);
#266=VECTOR('',#1004,2.15);
#267=VECTOR('',#1011,2.15000000000001);
#268=VECTOR('',#1018,2.15);
#269=VECTOR('',#1025,2.15);
#270=VECTOR('',#1032,10.);
#271=VECTOR('',#1035,10.);
#272=VECTOR('',#1046,2.15);
#273=VECTOR('',#1053,2.15);
#274=VECTOR('',#1060,2.15);
#275=VECTOR('',#1067,2.15);
#276=VECTOR('',#1074,2.15);
#277=VECTOR('',#1081,2.15);
#278=VECTOR('',#1088,2.15);
#279=VECTOR('',#1095,2.15);
#280=VECTOR('',#1102,2.15);
#281=VECTOR('',#1109,2.15);
#282=VECTOR('',#1116,2.15);
#283=VECTOR('',#1123,10.);
#284=VECTOR('',#1126,10.);
#285=VECTOR('',#1137,2.15);
#286=VECTOR('',#1144,12.5);
#287=VECTOR('',#1151,2.15);
#288=VECTOR('',#1158,2.15);
#289=VECTOR('',#1165,2.15);
#290=VECTOR('',#1172,2.15);
#291=VECTOR('',#1179,2.15000000000001);
#292=VECTOR('',#1186,2.15);
#293=VECTOR('',#1193,2.15000000000001);
#294=VECTOR('',#1200,2.15000000000001);
#295=VECTOR('',#1207,2.15);
#296=VECTOR('',#1214,67.5);
#297=CIRCLE('',#854,2.15);
#298=CIRCLE('',#855,2.15);
#299=CIRCLE('',#857,2.15);
#300=CIRCLE('',#858,2.15);
#301=CIRCLE('',#860,2.15);
#302=CIRCLE('',#861,2.15);
#303=CIRCLE('',#863,2.15);
#304=CIRCLE('',#864,2.15);
#305=CIRCLE('',#866,2.15);
#306=CIRCLE('',#867,2.15);
#307=CIRCLE('',#869,2.15);
#308=CIRCLE('',#870,2.15);
#309=CIRCLE('',#872,2.15000000000001);
#310=CIRCLE('',#873,2.15000000000001);
#311=CIRCLE('',#875,2.15);
#312=CIRCLE('',#876,2.15);
#313=CIRCLE('',#878,2.15);
#314=CIRCLE('',#879,2.15);
#315=CIRCLE('',#881,2.15);
#316=CIRCLE('',#882,2.15);
#317=CIRCLE('',#884,2.15);
#318=CIRCLE('',#885,2.15);
#319=CIRCLE('',#887,2.15);
#320=CIRCLE('',#888,2.15);
#321=CIRCLE('',#890,2.15);
#322=CIRCLE('',#891,2.15);
#323=CIRCLE('',#893,2.15);
#324=CIRCLE('',#894,2.15);
#325=CIRCLE('',#896,2.15);
#326=CIRCLE('',#897,2.15);
#327=CIRCLE('',#899,2.15);
#328=CIRCLE('',#900,2.15);
#329=CIRCLE('',#902,2.15);
#330=CIRCLE('',#903,2.15);
#331=CIRCLE('',#905,2.15);
#332=CIRCLE('',#906,2.15);
#333=CIRCLE('',#908,2.15);
#334=CIRCLE('',#909,2.15);
#335=CIRCLE('',#911,2.15);
#336=CIRCLE('',#912,2.15);
#337=CIRCLE('',#914,2.15);
#338=CIRCLE('',#915,2.15);
#339=CIRCLE('',#917,2.15);
#340=CIRCLE('',#918,2.15);
#341=CIRCLE('',#920,2.15);
#342=CIRCLE('',#921,2.15);
#343=CIRCLE('',#923,2.15);
#344=CIRCLE('',#924,2.15);
#345=CIRCLE('',#926,2.15);
#346=CIRCLE('',#927,2.15);
#347=CIRCLE('',#929,12.5);
#348=CIRCLE('',#930,12.5);
#349=CIRCLE('',#932,2.15);
#350=CIRCLE('',#933,2.15);
#351=CIRCLE('',#935,2.15);
#352=CIRCLE('',#936,2.15);
#353=CIRCLE('',#938,2.15);
#354=CIRCLE('',#939,2.15);
#355=CIRCLE('',#941,2.15);
#356=CIRCLE('',#942,2.15);
#357=CIRCLE('',#944,2.15000000000001);
#358=CIRCLE('',#945,2.15000000000001);
#359=CIRCLE('',#947,2.15);
#360=CIRCLE('',#948,2.15);
#361=CIRCLE('',#950,2.15000000000001);
#362=CIRCLE('',#951,2.15000000000001);
#363=CIRCLE('',#953,2.15000000000001);
#364=CIRCLE('',#954,2.15000000000001);
#365=CIRCLE('',#956,2.15);
#366=CIRCLE('',#957,2.15);
#367=CIRCLE('',#959,67.5);
#368=CIRCLE('',#960,67.5);
#369=VERTEX_POINT('',#1223);
#370=VERTEX_POINT('',#1225);
#371=VERTEX_POINT('',#1229);
#372=VERTEX_POINT('',#1231);
#373=VERTEX_POINT('',#1235);
#374=VERTEX_POINT('',#1237);
#375=VERTEX_POINT('',#1241);
#376=VERTEX_POINT('',#1243);
#377=VERTEX_POINT('',#1247);
#378=VERTEX_POINT('',#1249);
#379=VERTEX_POINT('',#1253);
#380=VERTEX_POINT('',#1255);
#381=VERTEX_POINT('',#1259);
#382=VERTEX_POINT('',#1261);
#383=VERTEX_POINT('',#1265);
#384=VERTEX_POINT('',#1267);
#385=VERTEX_POINT('',#1271);
#386=VERTEX_POINT('',#1273);
#387=VERTEX_POINT('',#1277);
#388=VERTEX_POINT('',#1278);
#389=VERTEX_POINT('',#1280);
#390=VERTEX_POINT('',#1282);
#391=VERTEX_POINT('',#1289);
#392=VERTEX_POINT('',#1291);
#393=VERTEX_POINT('',#1295);
#394=VERTEX_POINT('',#1297);
#395=VERTEX_POINT('',#1301);
#396=VERTEX_POINT('',#1303);
#397=VERTEX_POINT('',#1307);
#398=VERTEX_POINT('',#1309);
#399=VERTEX_POINT('',#1313);
#400=VERTEX_POINT('',#1315);
#401=VERTEX_POINT('',#1319);
#402=VERTEX_POINT('',#1321);
#403=VERTEX_POINT('',#1325);
#404=VERTEX_POINT('',#1327);
#405=VERTEX_POINT('',#1331);
#406=VERTEX_POINT('',#1333);
#407=VERTEX_POINT('',#1337);
#408=VERTEX_POINT('',#1339);
#409=VERTEX_POINT('',#1343);
#410=VERTEX_POINT('',#1345);
#411=VERTEX_POINT('',#1349);
#412=VERTEX_POINT('',#1351);
#413=VERTEX_POINT('',#1355);
#414=VERTEX_POINT('',#1356);
#415=VERTEX_POINT('',#1358);
#416=VERTEX_POINT('',#1360);
#417=VERTEX_POINT('',#1367);
#418=VERTEX_POINT('',#1369);
#419=VERTEX_POINT('',#1373);
#420=VERTEX_POINT('',#1375);
#421=VERTEX_POINT('',#1379);
#422=VERTEX_POINT('',#1381);
#423=VERTEX_POINT('',#1385);
#424=VERTEX_POINT('',#1387);
#425=VERTEX_POINT('',#1391);
#426=VERTEX_POINT('',#1393);
#427=VERTEX_POINT('',#1397);
#428=VERTEX_POINT('',#1399);
#429=VERTEX_POINT('',#1403);
#430=VERTEX_POINT('',#1405);
#431=VERTEX_POINT('',#1409);
#432=VERTEX_POINT('',#1411);
#433=VERTEX_POINT('',#1415);
#434=VERTEX_POINT('',#1417);
#435=VERTEX_POINT('',#1421);
#436=VERTEX_POINT('',#1423);
#437=VERTEX_POINT('',#1427);
#438=VERTEX_POINT('',#1429);
#439=VERTEX_POINT('',#1433);
#440=VERTEX_POINT('',#1435);
#441=EDGE_CURVE('',#369,#369,#297,.T.);
#442=EDGE_CURVE('',#369,#370,#225,.T.);
#443=EDGE_CURVE('',#370,#370,#298,.T.);
#444=EDGE_CURVE('',#371,#371,#299,.T.);
#445=EDGE_CURVE('',#371,#372,#226,.T.);
#446=EDGE_CURVE('',#372,#372,#300,.T.);
#447=EDGE_CURVE('',#373,#373,#301,.T.);
#448=EDGE_CURVE('',#373,#374,#227,.T.);
#449=EDGE_CURVE('',#374,#374,#302,.T.);
#450=EDGE_CURVE('',#375,#375,#303,.T.);
#451=EDGE_CURVE('',#375,#376,#228,.T.);
#452=EDGE_CURVE('',#376,#376,#304,.T.);
#453=EDGE_CURVE('',#377,#377,#305,.T.);
#454=EDGE_CURVE('',#377,#378,#229,.T.);
#455=EDGE_CURVE('',#378,#378,#306,.T.);
#456=EDGE_CURVE('',#379,#379,#307,.T.);
#457=EDGE_CURVE('',#379,#380,#230,.T.);
#458=EDGE_CURVE('',#380,#380,#308,.T.);
#459=EDGE_CURVE('',#381,#381,#309,.T.);
#460=EDGE_CURVE('',#381,#382,#231,.T.);
#461=EDGE_CURVE('',#382,#382,#310,.T.);
#462=EDGE_CURVE('',#383,#383,#311,.T.);
#463=EDGE_CURVE('',#383,#384,#232,.T.);
#464=EDGE_CURVE('',#384,#384,#312,.T.);
#465=EDGE_CURVE('',#385,#385,#313,.T.);
#466=EDGE_CURVE('',#385,#386,#233,.T.);
#467=EDGE_CURVE('',#386,#386,#314,.T.);
#468=EDGE_CURVE('',#387,#388,#315,.T.);
#469=EDGE_CURVE('',#388,#389,#234,.T.);
#470=EDGE_CURVE('',#390,#389,#316,.T.);
#471=EDGE_CURVE('',#387,#390,#235,.T.);
#472=EDGE_CURVE('',#388,#387,#317,.T.);
#473=EDGE_CURVE('',#389,#390,#318,.T.);
#474=EDGE_CURVE('',#391,#391,#319,.T.);
#475=EDGE_CURVE('',#391,#392,#236,.T.);
#476=EDGE_CURVE('',#392,#392,#320,.T.);
#477=EDGE_CURVE('',#393,#393,#321,.T.);
#478=EDGE_CURVE('',#393,#394,#237,.T.);
#479=EDGE_CURVE('',#394,#394,#322,.T.);
#480=EDGE_CURVE('',#395,#395,#323,.T.);
#481=EDGE_CURVE('',#395,#396,#238,.T.);
#482=EDGE_CURVE('',#396,#396,#324,.T.);
#483=EDGE_CURVE('',#397,#397,#325,.T.);
#484=EDGE_CURVE('',#397,#398,#239,.T.);
#485=EDGE_CURVE('',#398,#398,#326,.T.);
#486=EDGE_CURVE('',#399,#399,#327,.T.);
#487=EDGE_CURVE('',#399,#400,#240,.T.);
#488=EDGE_CURVE('',#400,#400,#328,.T.);
#489=EDGE_CURVE('',#401,#401,#329,.T.);
#490=EDGE_CURVE('',#401,#402,#241,.T.);
#491=EDGE_CURVE('',#402,#402,#330,.T.);
#492=EDGE_CURVE('',#403,#403,#331,.T.);
#493=EDGE_CURVE('',#403,#404,#242,.T.);
#494=EDGE_CURVE('',#404,#404,#332,.T.);
#495=EDGE_CURVE('',#405,#405,#333,.T.);
#496=EDGE_CURVE('',#405,#406,#243,.T.);
#497=EDGE_CURVE('',#406,#406,#334,.T.);
#498=EDGE_CURVE('',#407,#407,#335,.T.);
#499=EDGE_CURVE('',#407,#408,#244,.T.);
#500=EDGE_CURVE('',#408,#408,#336,.T.);
#501=EDGE_CURVE('',#409,#409,#337,.T.);
#502=EDGE_CURVE('',#409,#410,#245,.T.);
#503=EDGE_CURVE('',#410,#410,#338,.T.);
#504=EDGE_CURVE('',#411,#411,#339,.T.);
#505=EDGE_CURVE('',#411,#412,#246,.T.);
#506=EDGE_CURVE('',#412,#412,#340,.T.);
#507=EDGE_CURVE('',#413,#414,#341,.T.);
#508=EDGE_CURVE('',#414,#415,#247,.T.);
#509=EDGE_CURVE('',#416,#415,#342,.T.);
#510=EDGE_CURVE('',#413,#416,#248,.T.);
#511=EDGE_CURVE('',#414,#413,#343,.T.);
#512=EDGE_CURVE('',#415,#416,#344,.T.);
#513=EDGE_CURVE('',#417,#417,#345,.T.);
#514=EDGE_CURVE('',#417,#418,#249,.T.);
#515=EDGE_CURVE('',#418,#418,#346,.T.);
#516=EDGE_CURVE('',#419,#419,#347,.T.);
#517=EDGE_CURVE('',#419,#420,#250,.T.);
#518=EDGE_CURVE('',#420,#420,#348,.T.);
#519=EDGE_CURVE('',#421,#421,#349,.T.);
#520=EDGE_CURVE('',#421,#422,#251,.T.);
#521=EDGE_CURVE('',#422,#422,#350,.T.);
#522=EDGE_CURVE('',#423,#423,#351,.T.);
#523=EDGE_CURVE('',#423,#424,#252,.T.);
#524=EDGE_CURVE('',#424,#424,#352,.T.);
#525=EDGE_CURVE('',#425,#425,#353,.T.);
#526=EDGE_CURVE('',#425,#426,#253,.T.);
#527=EDGE_CURVE('',#426,#426,#354,.T.);
#528=EDGE_CURVE('',#427,#427,#355,.T.);
#529=EDGE_CURVE('',#427,#428,#254,.T.);
#530=EDGE_CURVE('',#428,#428,#356,.T.);
#531=EDGE_CURVE('',#429,#429,#357,.T.);
#532=EDGE_CURVE('',#429,#430,#255,.T.);
#533=EDGE_CURVE('',#430,#430,#358,.T.);
#534=EDGE_CURVE('',#431,#431,#359,.T.);
#535=EDGE_CURVE('',#431,#432,#256,.T.);
#536=EDGE_CURVE('',#432,#432,#360,.T.);
#537=EDGE_CURVE('',#433,#433,#361,.T.);
#538=EDGE_CURVE('',#433,#434,#257,.T.);
#539=EDGE_CURVE('',#434,#434,#362,.T.);
#540=EDGE_CURVE('',#435,#435,#363,.T.);
#541=EDGE_CURVE('',#435,#436,#258,.T.);
#542=EDGE_CURVE('',#436,#436,#364,.T.);
#543=EDGE_CURVE('',#437,#437,#365,.T.);
#544=EDGE_CURVE('',#437,#438,#259,.T.);
#545=EDGE_CURVE('',#438,#438,#366,.T.);
#546=EDGE_CURVE('',#439,#439,#367,.T.);
#547=EDGE_CURVE('',#439,#440,#260,.T.);
#548=EDGE_CURVE('',#440,#440,#368,.T.);
#549=ORIENTED_EDGE('',*,*,#441,.F.);
#550=ORIENTED_EDGE('',*,*,#442,.T.);
#551=ORIENTED_EDGE('',*,*,#443,.T.);
#552=ORIENTED_EDGE('',*,*,#442,.F.);
#553=ORIENTED_EDGE('',*,*,#444,.F.);
#554=ORIENTED_EDGE('',*,*,#445,.T.);
#555=ORIENTED_EDGE('',*,*,#446,.T.);
#556=ORIENTED_EDGE('',*,*,#445,.F.);
#557=ORIENTED_EDGE('',*,*,#447,.F.);
#558=ORIENTED_EDGE('',*,*,#448,.T.);
#559=ORIENTED_EDGE('',*,*,#449,.T.);
#560=ORIENTED_EDGE('',*,*,#448,.F.);
#561=ORIENTED_EDGE('',*,*,#450,.F.);
#562=ORIENTED_EDGE('',*,*,#451,.T.);
#563=ORIENTED_EDGE('',*,*,#452,.T.);
#564=ORIENTED_EDGE('',*,*,#451,.F.);
#565=ORIENTED_EDGE('',*,*,#453,.F.);
#566=ORIENTED_EDGE('',*,*,#454,.T.);
#567=ORIENTED_EDGE('',*,*,#455,.T.);
#568=ORIENTED_EDGE('',*,*,#454,.F.);
#569=ORIENTED_EDGE('',*,*,#456,.F.);
#570=ORIENTED_EDGE('',*,*,#457,.T.);
#571=ORIENTED_EDGE('',*,*,#458,.T.);
#572=ORIENTED_EDGE('',*,*,#457,.F.);
#573=ORIENTED_EDGE('',*,*,#459,.F.);
#574=ORIENTED_EDGE('',*,*,#460,.T.);
#575=ORIENTED_EDGE('',*,*,#461,.T.);
#576=ORIENTED_EDGE('',*,*,#460,.F.);
#577=ORIENTED_EDGE('',*,*,#462,.F.);
#578=ORIENTED_EDGE('',*,*,#463,.T.);
#579=ORIENTED_EDGE('',*,*,#464,.T.);
#580=ORIENTED_EDGE('',*,*,#463,.F.);
#581=ORIENTED_EDGE('',*,*,#465,.F.);
#582=ORIENTED_EDGE('',*,*,#466,.T.);
#583=ORIENTED_EDGE('',*,*,#467,.T.);
#584=ORIENTED_EDGE('',*,*,#466,.F.);
#585=ORIENTED_EDGE('',*,*,#468,.T.);
#586=ORIENTED_EDGE('',*,*,#469,.T.);
#587=ORIENTED_EDGE('',*,*,#470,.F.);
#588=ORIENTED_EDGE('',*,*,#471,.F.);
#589=ORIENTED_EDGE('',*,*,#472,.T.);
#590=ORIENTED_EDGE('',*,*,#471,.T.);
#591=ORIENTED_EDGE('',*,*,#473,.F.);
#592=ORIENTED_EDGE('',*,*,#469,.F.);
#593=ORIENTED_EDGE('',*,*,#474,.F.);
#594=ORIENTED_EDGE('',*,*,#475,.T.);
#595=ORIENTED_EDGE('',*,*,#476,.T.);
#596=ORIENTED_EDGE('',*,*,#475,.F.);
#597=ORIENTED_EDGE('',*,*,#477,.F.);
#598=ORIENTED_EDGE('',*,*,#478,.T.);
#599=ORIENTED_EDGE('',*,*,#479,.T.);
#600=ORIENTED_EDGE('',*,*,#478,.F.);
#601=ORIENTED_EDGE('',*,*,#480,.F.);
#602=ORIENTED_EDGE('',*,*,#481,.T.);
#603=ORIENTED_EDGE('',*,*,#482,.T.);
#604=ORIENTED_EDGE('',*,*,#481,.F.);
#605=ORIENTED_EDGE('',*,*,#483,.F.);
#606=ORIENTED_EDGE('',*,*,#484,.T.);
#607=ORIENTED_EDGE('',*,*,#485,.T.);
#608=ORIENTED_EDGE('',*,*,#484,.F.);
#609=ORIENTED_EDGE('',*,*,#486,.F.);
#610=ORIENTED_EDGE('',*,*,#487,.T.);
#611=ORIENTED_EDGE('',*,*,#488,.T.);
#612=ORIENTED_EDGE('',*,*,#487,.F.);
#613=ORIENTED_EDGE('',*,*,#489,.F.);
#614=ORIENTED_EDGE('',*,*,#490,.T.);
#615=ORIENTED_EDGE('',*,*,#491,.T.);
#616=ORIENTED_EDGE('',*,*,#490,.F.);
#617=ORIENTED_EDGE('',*,*,#492,.F.);
#618=ORIENTED_EDGE('',*,*,#493,.T.);
#619=ORIENTED_EDGE('',*,*,#494,.T.);
#620=ORIENTED_EDGE('',*,*,#493,.F.);
#621=ORIENTED_EDGE('',*,*,#495,.F.);
#622=ORIENTED_EDGE('',*,*,#496,.T.);
#623=ORIENTED_EDGE('',*,*,#497,.T.);
#624=ORIENTED_EDGE('',*,*,#496,.F.);
#625=ORIENTED_EDGE('',*,*,#498,.F.);
#626=ORIENTED_EDGE('',*,*,#499,.T.);
#627=ORIENTED_EDGE('',*,*,#500,.T.);
#628=ORIENTED_EDGE('',*,*,#499,.F.);
#629=ORIENTED_EDGE('',*,*,#501,.F.);
#630=ORIENTED_EDGE('',*,*,#502,.T.);
#631=ORIENTED_EDGE('',*,*,#503,.T.);
#632=ORIENTED_EDGE('',*,*,#502,.F.);
#633=ORIENTED_EDGE('',*,*,#504,.F.);
#634=ORIENTED_EDGE('',*,*,#505,.T.);
#635=ORIENTED_EDGE('',*,*,#506,.T.);
#636=ORIENTED_EDGE('',*,*,#505,.F.);
#637=ORIENTED_EDGE('',*,*,#507,.T.);
#638=ORIENTED_EDGE('',*,*,#508,.T.);
#639=ORIENTED_EDGE('',*,*,#509,.F.);
#640=ORIENTED_EDGE('',*,*,#510,.F.);
#641=ORIENTED_EDGE('',*,*,#511,.T.);
#642=ORIENTED_EDGE('',*,*,#510,.T.);
#643=ORIENTED_EDGE('',*,*,#512,.F.);
#644=ORIENTED_EDGE('',*,*,#508,.F.);
#645=ORIENTED_EDGE('',*,*,#513,.F.);
#646=ORIENTED_EDGE('',*,*,#514,.T.);
#647=ORIENTED_EDGE('',*,*,#515,.T.);
#648=ORIENTED_EDGE('',*,*,#514,.F.);
#649=ORIENTED_EDGE('',*,*,#516,.F.);
#650=ORIENTED_EDGE('',*,*,#517,.T.);
#651=ORIENTED_EDGE('',*,*,#518,.T.);
#652=ORIENTED_EDGE('',*,*,#517,.F.);
#653=ORIENTED_EDGE('',*,*,#519,.F.);
#654=ORIENTED_EDGE('',*,*,#520,.T.);
#655=ORIENTED_EDGE('',*,*,#521,.T.);
#656=ORIENTED_EDGE('',*,*,#520,.F.);
#657=ORIENTED_EDGE('',*,*,#522,.F.);
#658=ORIENTED_EDGE('',*,*,#523,.T.);
#659=ORIENTED_EDGE('',*,*,#524,.T.);
#660=ORIENTED_EDGE('',*,*,#523,.F.);
#661=ORIENTED_EDGE('',*,*,#525,.F.);
#662=ORIENTED_EDGE('',*,*,#526,.T.);
#663=ORIENTED_EDGE('',*,*,#527,.T.);
#664=ORIENTED_EDGE('',*,*,#526,.F.);
#665=ORIENTED_EDGE('',*,*,#528,.F.);
#666=ORIENTED_EDGE('',*,*,#529,.T.);
#667=ORIENTED_EDGE('',*,*,#530,.T.);
#668=ORIENTED_EDGE('',*,*,#529,.F.);
#669=ORIENTED_EDGE('',*,*,#531,.F.);
#670=ORIENTED_EDGE('',*,*,#532,.T.);
#671=ORIENTED_EDGE('',*,*,#533,.T.);
#672=ORIENTED_EDGE('',*,*,#532,.F.);
#673=ORIENTED_EDGE('',*,*,#534,.F.);
#674=ORIENTED_EDGE('',*,*,#535,.T.);
#675=ORIENTED_EDGE('',*,*,#536,.T.);
#676=ORIENTED_EDGE('',*,*,#535,.F.);
#677=ORIENTED_EDGE('',*,*,#537,.F.);
#678=ORIENTED_EDGE('',*,*,#538,.T.);
#679=ORIENTED_EDGE('',*,*,#539,.T.);
#680=ORIENTED_EDGE('',*,*,#538,.F.);
#681=ORIENTED_EDGE('',*,*,#540,.F.);
#682=ORIENTED_EDGE('',*,*,#541,.T.);
#683=ORIENTED_EDGE('',*,*,#542,.T.);
#684=ORIENTED_EDGE('',*,*,#541,.F.);
#685=ORIENTED_EDGE('',*,*,#543,.F.);
#686=ORIENTED_EDGE('',*,*,#544,.T.);
#687=ORIENTED_EDGE('',*,*,#545,.T.);
#688=ORIENTED_EDGE('',*,*,#544,.F.);
#689=ORIENTED_EDGE('',*,*,#546,.F.);
#690=ORIENTED_EDGE('',*,*,#547,.T.);
#691=ORIENTED_EDGE('',*,*,#548,.T.);
#692=ORIENTED_EDGE('',*,*,#547,.F.);
#693=ORIENTED_EDGE('',*,*,#546,.T.);
#694=ORIENTED_EDGE('',*,*,#543,.T.);
#695=ORIENTED_EDGE('',*,*,#540,.T.);
#696=ORIENTED_EDGE('',*,*,#537,.T.);
#697=ORIENTED_EDGE('',*,*,#534,.T.);
#698=ORIENTED_EDGE('',*,*,#531,.T.);
#699=ORIENTED_EDGE('',*,*,#528,.T.);
#700=ORIENTED_EDGE('',*,*,#525,.T.);
#701=ORIENTED_EDGE('',*,*,#522,.T.);
#702=ORIENTED_EDGE('',*,*,#519,.T.);
#703=ORIENTED_EDGE('',*,*,#516,.T.);
#704=ORIENTED_EDGE('',*,*,#513,.T.);
#705=ORIENTED_EDGE('',*,*,#512,.T.);
#706=ORIENTED_EDGE('',*,*,#509,.T.);
#707=ORIENTED_EDGE('',*,*,#504,.T.);
#708=ORIENTED_EDGE('',*,*,#501,.T.);
#709=ORIENTED_EDGE('',*,*,#498,.T.);
#710=ORIENTED_EDGE('',*,*,#495,.T.);
#711=ORIENTED_EDGE('',*,*,#492,.T.);
#712=ORIENTED_EDGE('',*,*,#489,.T.);
#713=ORIENTED_EDGE('',*,*,#486,.T.);
#714=ORIENTED_EDGE('',*,*,#483,.T.);
#715=ORIENTED_EDGE('',*,*,#480,.T.);
#716=ORIENTED_EDGE('',*,*,#477,.T.);
#717=ORIENTED_EDGE('',*,*,#474,.T.);
#718=ORIENTED_EDGE('',*,*,#473,.T.);
#719=ORIENTED_EDGE('',*,*,#470,.T.);
#720=ORIENTED_EDGE('',*,*,#465,.T.);
#721=ORIENTED_EDGE('',*,*,#462,.T.);
#722=ORIENTED_EDGE('',*,*,#459,.T.);
#723=ORIENTED_EDGE('',*,*,#456,.T.);
#724=ORIENTED_EDGE('',*,*,#453,.T.);
#725=ORIENTED_EDGE('',*,*,#450,.T.);
#726=ORIENTED_EDGE('',*,*,#447,.T.);
#727=ORIENTED_EDGE('',*,*,#444,.T.);
#728=ORIENTED_EDGE('',*,*,#441,.T.);
#729=ORIENTED_EDGE('',*,*,#548,.F.);
#730=ORIENTED_EDGE('',*,*,#545,.F.);
#731=ORIENTED_EDGE('',*,*,#542,.F.);
#732=ORIENTED_EDGE('',*,*,#539,.F.);
#733=ORIENTED_EDGE('',*,*,#536,.F.);
#734=ORIENTED_EDGE('',*,*,#533,.F.);
#735=ORIENTED_EDGE('',*,*,#530,.F.);
#736=ORIENTED_EDGE('',*,*,#527,.F.);
#737=ORIENTED_EDGE('',*,*,#524,.F.);
#738=ORIENTED_EDGE('',*,*,#521,.F.);
#739=ORIENTED_EDGE('',*,*,#518,.F.);
#740=ORIENTED_EDGE('',*,*,#515,.F.);
#741=ORIENTED_EDGE('',*,*,#511,.F.);
#742=ORIENTED_EDGE('',*,*,#507,.F.);
#743=ORIENTED_EDGE('',*,*,#506,.F.);
#744=ORIENTED_EDGE('',*,*,#503,.F.);
#745=ORIENTED_EDGE('',*,*,#500,.F.);
#746=ORIENTED_EDGE('',*,*,#497,.F.);
#747=ORIENTED_EDGE('',*,*,#494,.F.);
#748=ORIENTED_EDGE('',*,*,#491,.F.);
#749=ORIENTED_EDGE('',*,*,#488,.F.);
#750=ORIENTED_EDGE('',*,*,#485,.F.);
#751=ORIENTED_EDGE('',*,*,#482,.F.);
#752=ORIENTED_EDGE('',*,*,#479,.F.);
#753=ORIENTED_EDGE('',*,*,#476,.F.);
#754=ORIENTED_EDGE('',*,*,#472,.F.);
#755=ORIENTED_EDGE('',*,*,#468,.F.);
#756=ORIENTED_EDGE('',*,*,#467,.F.);
#757=ORIENTED_EDGE('',*,*,#464,.F.);
#758=ORIENTED_EDGE('',*,*,#461,.F.);
#759=ORIENTED_EDGE('',*,*,#458,.F.);
#760=ORIENTED_EDGE('',*,*,#455,.F.);
#761=ORIENTED_EDGE('',*,*,#452,.F.);
#762=ORIENTED_EDGE('',*,*,#449,.F.);
#763=ORIENTED_EDGE('',*,*,#446,.F.);
#764=ORIENTED_EDGE('',*,*,#443,.F.);
#765=CYLINDRICAL_SURFACE('',#853,2.15);
#766=CYLINDRICAL_SURFACE('',#856,2.15);
#767=CYLINDRICAL_SURFACE('',#859,2.15);
#768=CYLINDRICAL_SURFACE('',#862,2.15);
#769=CYLINDRICAL_SURFACE('',#865,2.15);
#770=CYLINDRICAL_SURFACE('',#868,2.15);
#771=CYLINDRICAL_SURFACE('',#871,2.15000000000001);
#772=CYLINDRICAL_SURFACE('',#874,2.15);
#773=CYLINDRICAL_SURFACE('',#877,2.15);
#774=CYLINDRICAL_SURFACE('',#880,2.15);
#775=CYLINDRICAL_SURFACE('',#883,2.15);
#776=CYLINDRICAL_SURFACE('',#886,2.15);
#777=CYLINDRICAL_SURFACE('',#889,2.15);
#778=CYLINDRICAL_SURFACE('',#892,2.15);
#779=CYLINDRICAL_SURFACE('',#895,2.15);
#780=CYLINDRICAL_SURFACE('',#898,2.15);
#781=CYLINDRICAL_SURFACE('',#901,2.15);
#782=CYLINDRICAL_SURFACE('',#904,2.15);
#783=CYLINDRICAL_SURFACE('',#907,2.15);
#784=CYLINDRICAL_SURFACE('',#910,2.15);
#785=CYLINDRICAL_SURFACE('',#913,2.15);
#786=CYLINDRICAL_SURFACE('',#916,2.15);
#787=CYLINDRICAL_SURFACE('',#919,2.15);
#788=CYLINDRICAL_SURFACE('',#922,2.15);
#789=CYLINDRICAL_SURFACE('',#925,2.15);
#790=CYLINDRICAL_SURFACE('',#928,12.5);
#791=CYLINDRICAL_SURFACE('',#931,2.15);
#792=CYLINDRICAL_SURFACE('',#934,2.15);
#793=CYLINDRICAL_SURFACE('',#937,2.15);
#794=CYLINDRICAL_SURFACE('',#940,2.15);
#795=CYLINDRICAL_SURFACE('',#943,2.15000000000001);
#796=CYLINDRICAL_SURFACE('',#946,2.15);
#797=CYLINDRICAL_SURFACE('',#949,2.15000000000001);
#798=CYLINDRICAL_SURFACE('',#952,2.15000000000001);
#799=CYLINDRICAL_SURFACE('',#955,2.15);
#800=CYLINDRICAL_SURFACE('',#958,67.5);
#801=ADVANCED_FACE('',(#83),#765,.F.);
#802=ADVANCED_FACE('',(#84),#766,.F.);
#803=ADVANCED_FACE('',(#85),#767,.F.);
#804=ADVANCED_FACE('',(#86),#768,.F.);
#805=ADVANCED_FACE('',(#87),#769,.F.);
#806=ADVANCED_FACE('',(#88),#770,.F.);
#807=ADVANCED_FACE('',(#89),#771,.F.);
#808=ADVANCED_FACE('',(#90),#772,.F.);
#809=ADVANCED_FACE('',(#91),#773,.F.);
#810=ADVANCED_FACE('',(#92),#774,.F.);
#811=ADVANCED_FACE('',(#93),#775,.F.);
#812=ADVANCED_FACE('',(#94),#776,.F.);
#813=ADVANCED_FACE('',(#95),#777,.F.);
#814=ADVANCED_FACE('',(#96),#778,.F.);
#815=ADVANCED_FACE('',(#97),#779,.F.);
#816=ADVANCED_FACE('',(#98),#780,.F.);
#817=ADVANCED_FACE('',(#99),#781,.F.);
#818=ADVANCED_FACE('',(#100),#782,.F.);
#819=ADVANCED_FACE('',(#101),#783,.F.);
#820=ADVANCED_FACE('',(#102),#784,.F.);
#821=ADVANCED_FACE('',(#103),#785,.F.);
#822=ADVANCED_FACE('',(#104),#786,.F.);
#823=ADVANCED_FACE('',(#105),#787,.F.);
#824=ADVANCED_FACE('',(#106),#788,.F.);
#825=ADVANCED_FACE('',(#107),#789,.F.);
#826=ADVANCED_FACE('',(#108),#790,.F.);
#827=ADVANCED_FACE('',(#109),#791,.F.);
#828=ADVANCED_FACE('',(#110),#792,.F.);
#829=ADVANCED_FACE('',(#111),#793,.F.);
#830=ADVANCED_FACE('',(#112),#794,.F.);
#831=ADVANCED_FACE('',(#113),#795,.F.);
#832=ADVANCED_FACE('',(#114),#796,.F.);
#833=ADVANCED_FACE('',(#115),#797,.F.);
#834=ADVANCED_FACE('',(#116),#798,.F.);
#835=ADVANCED_FACE('',(#117),#799,.F.);
#836=ADVANCED_FACE('',(#118),#800,.T.);
#837=ADVANCED_FACE('',(#119,#15,#16,#17,#18,#19,#20,#21,#22,#23,#24,#25,
#26,#27,#28,#29,#30,#31,#32,#33,#34,#35,#36,#37,#38,#39,#40,#41,#42,#43,
#44,#45,#46,#47),#81,.T.);
#838=ADVANCED_FACE('',(#120,#48,#49,#50,#51,#52,#53,#54,#55,#56,#57,#58,
#59,#60,#61,#62,#63,#64,#65,#66,#67,#68,#69,#70,#71,#72,#73,#74,#75,#76,
#77,#78,#79,#80),#82,.F.);
#839=CLOSED_SHELL('',(#801,#802,#803,#804,#805,#806,#807,#808,#809,#810,
#811,#812,#813,#814,#815,#816,#817,#818,#819,#820,#821,#822,#823,#824,#825,
#826,#827,#828,#829,#830,#831,#832,#833,#834,#835,#836,#837,#838));
#840=DERIVED_UNIT_ELEMENT(#842,1.);
#841=DERIVED_UNIT_ELEMENT(#1445,-3.);
#842=(
MASS_UNIT()
NAMED_UNIT(*)
SI_UNIT(.KILO.,.GRAM.)
);
#843=DERIVED_UNIT((#840,#841));
#844=MEASURE_REPRESENTATION_ITEM('density measure',
POSITIVE_RATIO_MEASURE(7850.),#843);
#845=PROPERTY_DEFINITION_REPRESENTATION(#850,#847);
#846=PROPERTY_DEFINITION_REPRESENTATION(#851,#848);
#847=REPRESENTATION('material name',(#849),#1442);
#848=REPRESENTATION('density',(#844),#1442);
#849=DESCRIPTIVE_REPRESENTATION_ITEM('Steel','Steel');
#850=PROPERTY_DEFINITION('material property','material name',#1452);
#851=PROPERTY_DEFINITION('material property','density of part',#1452);
#852=AXIS2_PLACEMENT_3D('',#1221,#963,#964);
#853=AXIS2_PLACEMENT_3D('',#1222,#965,#966);
#854=AXIS2_PLACEMENT_3D('',#1224,#967,#968);
#855=AXIS2_PLACEMENT_3D('',#1227,#970,#971);
#856=AXIS2_PLACEMENT_3D('',#1228,#972,#973);
#857=AXIS2_PLACEMENT_3D('',#1230,#974,#975);
#858=AXIS2_PLACEMENT_3D('',#1233,#977,#978);
#859=AXIS2_PLACEMENT_3D('',#1234,#979,#980);
#860=AXIS2_PLACEMENT_3D('',#1236,#981,#982);
#861=AXIS2_PLACEMENT_3D('',#1239,#984,#985);
#862=AXIS2_PLACEMENT_3D('',#1240,#986,#987);
#863=AXIS2_PLACEMENT_3D('',#1242,#988,#989);
#864=AXIS2_PLACEMENT_3D('',#1245,#991,#992);
#865=AXIS2_PLACEMENT_3D('',#1246,#993,#994);
#866=AXIS2_PLACEMENT_3D('',#1248,#995,#996);
#867=AXIS2_PLACEMENT_3D('',#1251,#998,#999);
#868=AXIS2_PLACEMENT_3D('',#1252,#1000,#1001);
#869=AXIS2_PLACEMENT_3D('',#1254,#1002,#1003);
#870=AXIS2_PLACEMENT_3D('',#1257,#1005,#1006);
#871=AXIS2_PLACEMENT_3D('',#1258,#1007,#1008);
#872=AXIS2_PLACEMENT_3D('',#1260,#1009,#1010);
#873=AXIS2_PLACEMENT_3D('',#1263,#1012,#1013);
#874=AXIS2_PLACEMENT_3D('',#1264,#1014,#1015);
#875=AXIS2_PLACEMENT_3D('',#1266,#1016,#1017);
#876=AXIS2_PLACEMENT_3D('',#1269,#1019,#1020);
#877=AXIS2_PLACEMENT_3D('',#1270,#1021,#1022);
#878=AXIS2_PLACEMENT_3D('',#1272,#1023,#1024);
#879=AXIS2_PLACEMENT_3D('',#1275,#1026,#1027);
#880=AXIS2_PLACEMENT_3D('',#1276,#1028,#1029);
#881=AXIS2_PLACEMENT_3D('',#1279,#1030,#1031);
#882=AXIS2_PLACEMENT_3D('',#1283,#1033,#1034);
#883=AXIS2_PLACEMENT_3D('',#1285,#1036,#1037);
#884=AXIS2_PLACEMENT_3D('',#1286,#1038,#1039);
#885=AXIS2_PLACEMENT_3D('',#1287,#1040,#1041);
#886=AXIS2_PLACEMENT_3D('',#1288,#1042,#1043);
#887=AXIS2_PLACEMENT_3D('',#1290,#1044,#1045);
#888=AXIS2_PLACEMENT_3D('',#1293,#1047,#1048);
#889=AXIS2_PLACEMENT_3D('',#1294,#1049,#1050);
#890=AXIS2_PLACEMENT_3D('',#1296,#1051,#1052);
#891=AXIS2_PLACEMENT_3D('',#1299,#1054,#1055);
#892=AXIS2_PLACEMENT_3D('',#1300,#1056,#1057);
#893=AXIS2_PLACEMENT_3D('',#1302,#1058,#1059);
#894=AXIS2_PLACEMENT_3D('',#1305,#1061,#1062);
#895=AXIS2_PLACEMENT_3D('',#1306,#1063,#1064);
#896=AXIS2_PLACEMENT_3D('',#1308,#1065,#1066);
#897=AXIS2_PLACEMENT_3D('',#1311,#1068,#1069);
#898=AXIS2_PLACEMENT_3D('',#1312,#1070,#1071);
#899=AXIS2_PLACEMENT_3D('',#1314,#1072,#1073);
#900=AXIS2_PLACEMENT_3D('',#1317,#1075,#1076);
#901=AXIS2_PLACEMENT_3D('',#1318,#1077,#1078);
#902=AXIS2_PLACEMENT_3D('',#1320,#1079,#1080);
#903=AXIS2_PLACEMENT_3D('',#1323,#1082,#1083);
#904=AXIS2_PLACEMENT_3D('',#1324,#1084,#1085);
#905=AXIS2_PLACEMENT_3D('',#1326,#1086,#1087);
#906=AXIS2_PLACEMENT_3D('',#1329,#1089,#1090);
#907=AXIS2_PLACEMENT_3D('',#1330,#1091,#1092);
#908=AXIS2_PLACEMENT_3D('',#1332,#1093,#1094);
#909=AXIS2_PLACEMENT_3D('',#1335,#1096,#1097);
#910=AXIS2_PLACEMENT_3D('',#1336,#1098,#1099);
#911=AXIS2_PLACEMENT_3D('',#1338,#1100,#1101);
#912=AXIS2_PLACEMENT_3D('',#1341,#1103,#1104);
#913=AXIS2_PLACEMENT_3D('',#1342,#1105,#1106);
#914=AXIS2_PLACEMENT_3D('',#1344,#1107,#1108);
#915=AXIS2_PLACEMENT_3D('',#1347,#1110,#1111);
#916=AXIS2_PLACEMENT_3D('',#1348,#1112,#1113);
#917=AXIS2_PLACEMENT_3D('',#1350,#1114,#1115);
#918=AXIS2_PLACEMENT_3D('',#1353,#1117,#1118);
#919=AXIS2_PLACEMENT_3D('',#1354,#1119,#1120);
#920=AXIS2_PLACEMENT_3D('',#1357,#1121,#1122);
#921=AXIS2_PLACEMENT_3D('',#1361,#1124,#1125);
#922=AXIS2_PLACEMENT_3D('',#1363,#1127,#1128);
#923=AXIS2_PLACEMENT_3D('',#1364,#1129,#1130);
#924=AXIS2_PLACEMENT_3D('',#1365,#1131,#1132);
#925=AXIS2_PLACEMENT_3D('',#1366,#1133,#1134);
#926=AXIS2_PLACEMENT_3D('',#1368,#1135,#1136);
#927=AXIS2_PLACEMENT_3D('',#1371,#1138,#1139);
#928=AXIS2_PLACEMENT_3D('',#1372,#1140,#1141);
#929=AXIS2_PLACEMENT_3D('',#1374,#1142,#1143);
#930=AXIS2_PLACEMENT_3D('',#1377,#1145,#1146);
#931=AXIS2_PLACEMENT_3D('',#1378,#1147,#1148);
#932=AXIS2_PLACEMENT_3D('',#1380,#1149,#1150);
#933=AXIS2_PLACEMENT_3D('',#1383,#1152,#1153);
#934=AXIS2_PLACEMENT_3D('',#1384,#1154,#1155);
#935=AXIS2_PLACEMENT_3D('',#1386,#1156,#1157);
#936=AXIS2_PLACEMENT_3D('',#1389,#1159,#1160);
#937=AXIS2_PLACEMENT_3D('',#1390,#1161,#1162);
#938=AXIS2_PLACEMENT_3D('',#1392,#1163,#1164);
#939=AXIS2_PLACEMENT_3D('',#1395,#1166,#1167);
#940=AXIS2_PLACEMENT_3D('',#1396,#1168,#1169);
#941=AXIS2_PLACEMENT_3D('',#1398,#1170,#1171);
#942=AXIS2_PLACEMENT_3D('',#1401,#1173,#1174);
#943=AXIS2_PLACEMENT_3D('',#1402,#1175,#1176);
#944=AXIS2_PLACEMENT_3D('',#1404,#1177,#1178);
#945=AXIS2_PLACEMENT_3D('',#1407,#1180,#1181);
#946=AXIS2_PLACEMENT_3D('',#1408,#1182,#1183);
#947=AXIS2_PLACEMENT_3D('',#1410,#1184,#1185);
#948=AXIS2_PLACEMENT_3D('',#1413,#1187,#1188);
#949=AXIS2_PLACEMENT_3D('',#1414,#1189,#1190);
#950=AXIS2_PLACEMENT_3D('',#1416,#1191,#1192);
#951=AXIS2_PLACEMENT_3D('',#1419,#1194,#1195);
#952=AXIS2_PLACEMENT_3D('',#1420,#1196,#1197);
#953=AXIS2_PLACEMENT_3D('',#1422,#1198,#1199);
#954=AXIS2_PLACEMENT_3D('',#1425,#1201,#1202);
#955=AXIS2_PLACEMENT_3D('',#1426,#1203,#1204);
#956=AXIS2_PLACEMENT_3D('',#1428,#1205,#1206);
#957=AXIS2_PLACEMENT_3D('',#1431,#1208,#1209);
#958=AXIS2_PLACEMENT_3D('',#1432,#1210,#1211);
#959=AXIS2_PLACEMENT_3D('',#1434,#1212,#1213);
#960=AXIS2_PLACEMENT_3D('',#1437,#1215,#1216);
#961=AXIS2_PLACEMENT_3D('',#1438,#1217,#1218);
#962=AXIS2_PLACEMENT_3D('',#1439,#1219,#1220);
#963=DIRECTION('axis',(0.,0.,1.));
#964=DIRECTION('refdir',(1.,0.,0.));
#965=DIRECTION('center_axis',(0.,1.,0.));
#966=DIRECTION('ref_axis',(1.,0.,0.));
#967=DIRECTION('center_axis',(0.,-1.,0.));
#968=DIRECTION('ref_axis',(1.,0.,0.));
#969=DIRECTION('',(0.,-1.,0.));
#970=DIRECTION('center_axis',(0.,-1.,0.));
#971=DIRECTION('ref_axis',(1.,0.,0.));
#972=DIRECTION('center_axis',(0.,1.,0.));
#973=DIRECTION('ref_axis',(1.,0.,0.));
#974=DIRECTION('center_axis',(0.,-1.,0.));
#975=DIRECTION('ref_axis',(1.,0.,0.));
#976=DIRECTION('',(0.,-1.,0.));
#977=DIRECTION('center_axis',(0.,-1.,0.));
#978=DIRECTION('ref_axis',(1.,0.,0.));
#979=DIRECTION('center_axis',(0.,1.,0.));
#980=DIRECTION('ref_axis',(1.,0.,0.));
#981=DIRECTION('center_axis',(0.,-1.,0.));
#982=DIRECTION('ref_axis',(1.,0.,0.));
#983=DIRECTION('',(0.,-1.,0.));
#984=DIRECTION('center_axis',(0.,-1.,0.));
#985=DIRECTION('ref_axis',(1.,0.,0.));
#986=DIRECTION('center_axis',(0.,1.,0.));
#987=DIRECTION('ref_axis',(1.,0.,0.));
#988=DIRECTION('center_axis',(0.,-1.,0.));
#989=DIRECTION('ref_axis',(1.,0.,0.));
#990=DIRECTION('',(0.,-1.,0.));
#991=DIRECTION('center_axis',(0.,-1.,0.));
#992=DIRECTION('ref_axis',(1.,0.,0.));
#993=DIRECTION('center_axis',(0.,1.,0.));
#994=DIRECTION('ref_axis',(1.,0.,0.));
#995=DIRECTION('center_axis',(0.,-1.,0.));
#996=DIRECTION('ref_axis',(1.,0.,0.));
#997=DIRECTION('',(0.,-1.,0.));
#998=DIRECTION('center_axis',(0.,-1.,0.));
#999=DIRECTION('ref_axis',(1.,0.,0.));
#1000=DIRECTION('center_axis',(0.,1.,0.));
#1001=DIRECTION('ref_axis',(1.,0.,0.));
#1002=DIRECTION('center_axis',(0.,-1.,0.));
#1003=DIRECTION('ref_axis',(1.,0.,0.));
#1004=DIRECTION('',(0.,-1.,0.));
#1005=DIRECTION('center_axis',(0.,-1.,0.));
#1006=DIRECTION('ref_axis',(1.,0.,0.));
#1007=DIRECTION('center_axis',(0.,1.,0.));
#1008=DIRECTION('ref_axis',(1.,0.,0.));
#1009=DIRECTION('center_axis',(0.,-1.,0.));
#1010=DIRECTION('ref_axis',(1.,0.,0.));
#1011=DIRECTION('',(0.,-1.,0.));
#1012=DIRECTION('center_axis',(0.,-1.,0.));
#1013=DIRECTION('ref_axis',(1.,0.,0.));
#1014=DIRECTION('center_axis',(0.,1.,0.));
#1015=DIRECTION('ref_axis',(1.,0.,0.));
#1016=DIRECTION('center_axis',(0.,-1.,0.));
#1017=DIRECTION('ref_axis',(1.,0.,0.));
#1018=DIRECTION('',(0.,-1.,0.));
#1019=DIRECTION('center_axis',(0.,-1.,0.));
#1020=DIRECTION('ref_axis',(1.,0.,0.));
#1021=DIRECTION('center_axis',(0.,1.,0.));
#1022=DIRECTION('ref_axis',(1.,0.,0.));
#1023=DIRECTION('center_axis',(0.,-1.,0.));
#1024=DIRECTION('ref_axis',(1.,0.,0.));
#1025=DIRECTION('',(0.,-1.,0.));
#1026=DIRECTION('center_axis',(0.,-1.,0.));
#1027=DIRECTION('ref_axis',(1.,0.,0.));
#1028=DIRECTION('center_axis',(0.,1.,0.));
#1029=DIRECTION('ref_axis',(-1.,0.,-1.22464679914735E-16));
#1030=DIRECTION('center_axis',(0.,-1.,0.));
#1031=DIRECTION('ref_axis',(1.,0.,0.));
#1032=DIRECTION('',(0.,1.,0.));
#1033=DIRECTION('center_axis',(0.,-1.,0.));
#1034=DIRECTION('ref_axis',(1.,0.,0.));
#1035=DIRECTION('',(0.,1.,0.));
#1036=DIRECTION('center_axis',(0.,1.,0.));
#1037=DIRECTION('ref_axis',(1.,0.,0.));
#1038=DIRECTION('center_axis',(0.,-1.,0.));
#1039=DIRECTION('ref_axis',(1.,0.,0.));
#1040=DIRECTION('center_axis',(0.,-1.,0.));
#1041=DIRECTION('ref_axis',(1.,0.,0.));
#1042=DIRECTION('center_axis',(0.,1.,0.));
#1043=DIRECTION('ref_axis',(1.,0.,0.));
#1044=DIRECTION('center_axis',(0.,-1.,0.));
#1045=DIRECTION('ref_axis',(1.,0.,0.));
#1046=DIRECTION('',(0.,-1.,0.));
#1047=DIRECTION('center_axis',(0.,-1.,0.));
#1048=DIRECTION('ref_axis',(1.,0.,0.));
#1049=DIRECTION('center_axis',(0.,1.,0.));
#1050=DIRECTION('ref_axis',(1.,0.,0.));
#1051=DIRECTION('center_axis',(0.,-1.,0.));
#1052=DIRECTION('ref_axis',(1.,0.,0.));
#1053=DIRECTION('',(0.,-1.,0.));
#1054=DIRECTION('center_axis',(0.,-1.,0.));
#1055=DIRECTION('ref_axis',(1.,0.,0.));
#1056=DIRECTION('center_axis',(0.,1.,0.));
#1057=DIRECTION('ref_axis',(1.,0.,0.));
#1058=DIRECTION('center_axis',(0.,-1.,0.));
#1059=DIRECTION('ref_axis',(1.,0.,0.));
#1060=DIRECTION('',(0.,-1.,0.));
#1061=DIRECTION('center_axis',(0.,-1.,0.));
#1062=DIRECTION('ref_axis',(1.,0.,0.));
#1063=DIRECTION('center_axis',(0.,1.,0.));
#1064=DIRECTION('ref_axis',(1.,0.,0.));
#1065=DIRECTION('center_axis',(0.,-1.,0.));
#1066=DIRECTION('ref_axis',(1.,0.,0.));
#1067=DIRECTION('',(0.,-1.,0.));
#1068=DIRECTION('center_axis',(0.,-1.,0.));
#1069=DIRECTION('ref_axis',(1.,0.,0.));
#1070=DIRECTION('center_axis',(0.,1.,0.));
#1071=DIRECTION('ref_axis',(1.,0.,0.));
#1072=DIRECTION('center_axis',(0.,-1.,0.));
#1073=DIRECTION('ref_axis',(1.,0.,0.));
#1074=DIRECTION('',(0.,-1.,0.));
#1075=DIRECTION('center_axis',(0.,-1.,0.));
#1076=DIRECTION('ref_axis',(1.,0.,0.));
#1077=DIRECTION('center_axis',(0.,1.,0.));
#1078=DIRECTION('ref_axis',(1.,0.,0.));
#1079=DIRECTION('center_axis',(0.,-1.,0.));
#1080=DIRECTION('ref_axis',(1.,0.,0.));
#1081=DIRECTION('',(0.,-1.,0.));
#1082=DIRECTION('center_axis',(0.,-1.,0.));
#1083=DIRECTION('ref_axis',(1.,0.,0.));
#1084=DIRECTION('center_axis',(0.,1.,0.));
#1085=DIRECTION('ref_axis',(1.,0.,0.));
#1086=DIRECTION('center_axis',(0.,-1.,0.));
#1087=DIRECTION('ref_axis',(1.,0.,0.));
#1088=DIRECTION('',(0.,-1.,0.));
#1089=DIRECTION('center_axis',(0.,-1.,0.));
#1090=DIRECTION('ref_axis',(1.,0.,0.));
#1091=DIRECTION('center_axis',(0.,1.,0.));
#1092=DIRECTION('ref_axis',(1.,0.,0.));
#1093=DIRECTION('center_axis',(0.,-1.,0.));
#1094=DIRECTION('ref_axis',(1.,0.,0.));
#1095=DIRECTION('',(0.,-1.,0.));
#1096=DIRECTION('center_axis',(0.,-1.,0.));
#1097=DIRECTION('ref_axis',(1.,0.,0.));
#1098=DIRECTION('center_axis',(0.,1.,0.));
#1099=DIRECTION('ref_axis',(1.,0.,0.));
#1100=DIRECTION('center_axis',(0.,-1.,0.));
#1101=DIRECTION('ref_axis',(1.,0.,0.));
#1102=DIRECTION('',(0.,-1.,0.));
#1103=DIRECTION('center_axis',(0.,-1.,0.));
#1104=DIRECTION('ref_axis',(1.,0.,0.));
#1105=DIRECTION('center_axis',(0.,1.,0.));
#1106=DIRECTION('ref_axis',(1.,0.,0.));
#1107=DIRECTION('center_axis',(0.,-1.,0.));
#1108=DIRECTION('ref_axis',(1.,0.,0.));
#1109=DIRECTION('',(0.,-1.,0.));
#1110=DIRECTION('center_axis',(0.,-1.,0.));
#1111=DIRECTION('ref_axis',(1.,0.,0.));
#1112=DIRECTION('center_axis',(0.,1.,0.));
#1113=DIRECTION('ref_axis',(1.,0.,0.));
#1114=DIRECTION('center_axis',(0.,-1.,0.));
#1115=DIRECTION('ref_axis',(1.,0.,0.));
#1116=DIRECTION('',(0.,-1.,0.));
#1117=DIRECTION('center_axis',(0.,-1.,0.));
#1118=DIRECTION('ref_axis',(1.,0.,0.));
#1119=DIRECTION('center_axis',(0.,1.,0.));
#1120=DIRECTION('ref_axis',(-1.,0.,-1.22464679914735E-16));
#1121=DIRECTION('center_axis',(0.,-1.,0.));
#1122=DIRECTION('ref_axis',(1.,0.,0.));
#1123=DIRECTION('',(0.,1.,0.));
#1124=DIRECTION('center_axis',(0.,-1.,0.));
#1125=DIRECTION('ref_axis',(1.,0.,0.));
#1126=DIRECTION('',(0.,1.,0.));
#1127=DIRECTION('center_axis',(0.,1.,0.));
#1128=DIRECTION('ref_axis',(1.,0.,0.));
#1129=DIRECTION('center_axis',(0.,-1.,0.));
#1130=DIRECTION('ref_axis',(1.,0.,0.));
#1131=DIRECTION('center_axis',(0.,-1.,0.));
#1132=DIRECTION('ref_axis',(1.,0.,0.));
#1133=DIRECTION('center_axis',(0.,1.,0.));
#1134=DIRECTION('ref_axis',(1.,0.,0.));
#1135=DIRECTION('center_axis',(0.,-1.,0.));
#1136=DIRECTION('ref_axis',(1.,0.,0.));
#1137=DIRECTION('',(0.,-1.,0.));
#1138=DIRECTION('center_axis',(0.,-1.,0.));
#1139=DIRECTION('ref_axis',(1.,0.,0.));
#1140=DIRECTION('center_axis',(0.,1.,0.));
#1141=DIRECTION('ref_axis',(1.,0.,0.));
#1142=DIRECTION('center_axis',(0.,-1.,0.));
#1143=DIRECTION('ref_axis',(1.,0.,0.));
#1144=DIRECTION('',(0.,-1.,0.));
#1145=DIRECTION('center_axis',(0.,-1.,0.));
#1146=DIRECTION('ref_axis',(1.,0.,0.));
#1147=DIRECTION('center_axis',(0.,1.,0.));
#1148=DIRECTION('ref_axis',(1.,0.,0.));
#1149=DIRECTION('center_axis',(0.,-1.,0.));
#1150=DIRECTION('ref_axis',(1.,0.,0.));
#1151=DIRECTION('',(0.,-1.,0.));
#1152=DIRECTION('center_axis',(0.,-1.,0.));
#1153=DIRECTION('ref_axis',(1.,0.,0.));
#1154=DIRECTION('center_axis',(0.,1.,0.));
#1155=DIRECTION('ref_axis',(1.,0.,0.));
#1156=DIRECTION('center_axis',(0.,-1.,0.));
#1157=DIRECTION('ref_axis',(1.,0.,0.));
#1158=DIRECTION('',(0.,-1.,0.));
#1159=DIRECTION('center_axis',(0.,-1.,0.));
#1160=DIRECTION('ref_axis',(1.,0.,0.));
#1161=DIRECTION('center_axis',(0.,1.,0.));
#1162=DIRECTION('ref_axis',(1.,0.,0.));
#1163=DIRECTION('center_axis',(0.,-1.,0.));
#1164=DIRECTION('ref_axis',(1.,0.,0.));
#1165=DIRECTION('',(0.,-1.,0.));
#1166=DIRECTION('center_axis',(0.,-1.,0.));
#1167=DIRECTION('ref_axis',(1.,0.,0.));
#1168=DIRECTION('center_axis',(0.,1.,0.));
#1169=DIRECTION('ref_axis',(1.,0.,0.));
#1170=DIRECTION('center_axis',(0.,-1.,0.));
#1171=DIRECTION('ref_axis',(1.,0.,0.));
#1172=DIRECTION('',(0.,-1.,0.));
#1173=DIRECTION('center_axis',(0.,-1.,0.));
#1174=DIRECTION('ref_axis',(1.,0.,0.));
#1175=DIRECTION('center_axis',(0.,1.,0.));
#1176=DIRECTION('ref_axis',(1.,0.,0.));
#1177=DIRECTION('center_axis',(0.,-1.,0.));
#1178=DIRECTION('ref_axis',(1.,0.,0.));
#1179=DIRECTION('',(0.,-1.,0.));
#1180=DIRECTION('center_axis',(0.,-1.,0.));
#1181=DIRECTION('ref_axis',(1.,0.,0.));
#1182=DIRECTION('center_axis',(0.,1.,0.));
#1183=DIRECTION('ref_axis',(1.,0.,0.));
#1184=DIRECTION('center_axis',(0.,-1.,0.));
#1185=DIRECTION('ref_axis',(1.,0.,0.));
#1186=DIRECTION('',(0.,-1.,0.));
#1187=DIRECTION('center_axis',(0.,-1.,0.));
#1188=DIRECTION('ref_axis',(1.,0.,0.));
#1189=DIRECTION('center_axis',(0.,1.,0.));
#1190=DIRECTION('ref_axis',(1.,0.,0.));
#1191=DIRECTION('center_axis',(0.,-1.,0.));
#1192=DIRECTION('ref_axis',(1.,0.,0.));
#1193=DIRECTION('',(0.,-1.,0.));
#1194=DIRECTION('center_axis',(0.,-1.,0.));
#1195=DIRECTION('ref_axis',(1.,0.,0.));
#1196=DIRECTION('center_axis',(0.,1.,0.));
#1197=DIRECTION('ref_axis',(1.,0.,0.));
#1198=DIRECTION('center_axis',(0.,-1.,0.));
#1199=DIRECTION('ref_axis',(1.,0.,0.));
#1200=DIRECTION('',(0.,-1.,0.));
#1201=DIRECTION('center_axis',(0.,-1.,0.));
#1202=DIRECTION('ref_axis',(1.,0.,0.));
#1203=DIRECTION('center_axis',(0.,1.,0.));
#1204=DIRECTION('ref_axis',(1.,0.,0.));
#1205=DIRECTION('center_axis',(0.,-1.,0.));
#1206=DIRECTION('ref_axis',(1.,0.,0.));
#1207=DIRECTION('',(0.,-1.,0.));
#1208=DIRECTION('center_axis',(0.,-1.,0.));
#1209=DIRECTION('ref_axis',(1.,0.,0.));
#1210=DIRECTION('center_axis',(0.,1.,0.));
#1211=DIRECTION('ref_axis',(1.,0.,0.));
#1212=DIRECTION('center_axis',(0.,1.,0.));
#1213=DIRECTION('ref_axis',(1.,0.,0.));
#1214=DIRECTION('',(0.,-1.,0.));
#1215=DIRECTION('center_axis',(0.,1.,0.));
#1216=DIRECTION('ref_axis',(1.,0.,0.));
#1217=DIRECTION('center_axis',(0.,1.,0.));
#1218=DIRECTION('ref_axis',(1.,0.,0.));
#1219=DIRECTION('center_axis',(0.,1.,0.));
#1220=DIRECTION('ref_axis',(1.,0.,0.));
#1221=CARTESIAN_POINT('',(0.,0.,0.));
#1222=CARTESIAN_POINT('Origin',(17.4999993624737,0.,57.5));
#1223=CARTESIAN_POINT('',(15.3499993624737,4.,57.5));
#1224=CARTESIAN_POINT('Origin',(17.4999993624737,4.,57.5));
#1225=CARTESIAN_POINT('',(15.3499993624737,0.,57.5));
#1226=CARTESIAN_POINT('',(15.3499993624737,0.,57.5));
#1227=CARTESIAN_POINT('Origin',(17.4999993624737,0.,57.5));
#1228=CARTESIAN_POINT('Origin',(-57.5,0.,-17.4999993624737));
#1229=CARTESIAN_POINT('',(-59.65,4.,-17.4999993624737));
#1230=CARTESIAN_POINT('Origin',(-57.5,4.,-17.4999993624737));
#1231=CARTESIAN_POINT('',(-59.65,0.,-17.4999993624737));
#1232=CARTESIAN_POINT('',(-59.65,0.,-17.4999993624737));
#1233=CARTESIAN_POINT('Origin',(-57.5,0.,-17.4999993624737));
#1234=CARTESIAN_POINT('Origin',(17.4999993624738,0.,-57.5000010355147));
#1235=CARTESIAN_POINT('',(15.3499993624738,4.,-57.5000010355147));
#1236=CARTESIAN_POINT('Origin',(17.4999993624738,4.,-57.5000010355147));
#1237=CARTESIAN_POINT('',(15.3499993624738,0.,-57.5000010355147));
#1238=CARTESIAN_POINT('',(15.3499993624738,0.,-57.5000010355147));
#1239=CARTESIAN_POINT('Origin',(17.4999993624738,0.,-57.5000010355147));
#1240=CARTESIAN_POINT('Origin',(17.4999993624738,0.,-47.5000010355147));
#1241=CARTESIAN_POINT('',(15.3499993624738,4.,-47.5000010355147));
#1242=CARTESIAN_POINT('Origin',(17.4999993624738,4.,-47.5000010355147));
#1243=CARTESIAN_POINT('',(15.3499993624738,0.,-47.5000010355147));
#1244=CARTESIAN_POINT('',(15.3499993624738,0.,-47.5000010355147));
#1245=CARTESIAN_POINT('Origin',(17.4999993624738,0.,-47.5000010355147));
#1246=CARTESIAN_POINT('Origin',(17.4999993624737,0.,27.5));
#1247=CARTESIAN_POINT('',(15.3499993624737,4.,27.5));
#1248=CARTESIAN_POINT('Origin',(17.4999993624737,4.,27.5));
#1249=CARTESIAN_POINT('',(15.3499993624737,0.,27.5));
#1250=CARTESIAN_POINT('',(15.3499993624737,0.,27.5));
#1251=CARTESIAN_POINT('Origin',(17.4999993624737,0.,27.5));
#1252=CARTESIAN_POINT('Origin',(-17.5000006375262,0.,-47.5000010355147));
#1253=CARTESIAN_POINT('',(-19.6500006375262,4.,-47.5000010355147));
#1254=CARTESIAN_POINT('Origin',(-17.5000006375262,4.,-47.5000010355147));
#1255=CARTESIAN_POINT('',(-19.6500006375262,0.,-47.5000010355147));
#1256=CARTESIAN_POINT('',(-19.6500006375262,0.,-47.5000010355147));
#1257=CARTESIAN_POINT('Origin',(-17.5000006375262,0.,-47.5000010355147));
#1258=CARTESIAN_POINT('Origin',(-57.5,0.,17.5000006375263));
#1259=CARTESIAN_POINT('',(-59.65,4.,17.5000006375263));
#1260=CARTESIAN_POINT('Origin',(-57.5,4.,17.5000006375263));
#1261=CARTESIAN_POINT('',(-59.65,0.,17.5000006375263));
#1262=CARTESIAN_POINT('',(-59.65,0.,17.5000006375263));
#1263=CARTESIAN_POINT('Origin',(-57.5,0.,17.5000006375263));
#1264=CARTESIAN_POINT('Origin',(57.4999987249475,0.,-17.4999993624737));
#1265=CARTESIAN_POINT('',(55.3499987249475,4.,-17.4999993624737));
#1266=CARTESIAN_POINT('Origin',(57.4999987249475,4.,-17.4999993624737));
#1267=CARTESIAN_POINT('',(55.3499987249475,0.,-17.4999993624737));
#1268=CARTESIAN_POINT('',(55.3499987249475,0.,-17.4999993624737));
#1269=CARTESIAN_POINT('Origin',(57.4999987249475,0.,-17.4999993624737));
#1270=CARTESIAN_POINT('Origin',(-17.5000006375263,0.,27.5));
#1271=CARTESIAN_POINT('',(-19.6500006375263,4.,27.5));
#1272=CARTESIAN_POINT('Origin',(-17.5000006375263,4.,27.5));
#1273=CARTESIAN_POINT('',(-19.6500006375263,0.,27.5));
#1274=CARTESIAN_POINT('',(-19.6500006375263,0.,27.5));
#1275=CARTESIAN_POINT('Origin',(-17.5000006375263,0.,27.5));
#1276=CARTESIAN_POINT('Origin',(17.4999231106839,0.,47.5));
#1277=CARTESIAN_POINT('',(17.4999612367076,0.,49.649999999662));
#1278=CARTESIAN_POINT('',(17.4999612367076,0.,45.350000000338));
#1279=CARTESIAN_POINT('Origin',(17.4999231106839,0.,47.5));
#1280=CARTESIAN_POINT('',(17.4999612367076,4.,45.350000000338));
#1281=CARTESIAN_POINT('',(17.4999612367076,0.,45.350000000338));
#1282=CARTESIAN_POINT('',(17.4999612367076,4.,49.649999999662));
#1283=CARTESIAN_POINT('Origin',(17.4999231106839,4.,47.5));
#1284=CARTESIAN_POINT('',(17.4999612367076,0.,49.649999999662));
#1285=CARTESIAN_POINT('Origin',(17.4999993624737,0.,47.5));
#1286=CARTESIAN_POINT('Origin',(17.4999993624737,0.,47.5));
#1287=CARTESIAN_POINT('Origin',(17.4999993624737,4.,47.5));
#1288=CARTESIAN_POINT('Origin',(-37.5000023105672,0.,17.5000006375262));
#1289=CARTESIAN_POINT('',(-39.6500023105672,4.,17.5000006375262));
#1290=CARTESIAN_POINT('Origin',(-37.5000023105672,4.,17.5000006375262));
#1291=CARTESIAN_POINT('',(-39.6500023105672,0.,17.5000006375262));
#1292=CARTESIAN_POINT('',(-39.6500023105672,0.,17.5000006375262));
#1293=CARTESIAN_POINT('Origin',(-37.5000023105672,0.,17.5000006375262));
#1294=CARTESIAN_POINT('Origin',(-27.5000012750525,0.,-17.4999993624737));
#1295=CARTESIAN_POINT('',(-29.6500012750525,4.,-17.4999993624737));
#1296=CARTESIAN_POINT('Origin',(-27.5000012750525,4.,-17.4999993624737));
#1297=CARTESIAN_POINT('',(-29.6500012750525,0.,-17.4999993624737));
#1298=CARTESIAN_POINT('',(-29.6500012750525,0.,-17.4999993624737));
#1299=CARTESIAN_POINT('Origin',(-27.5000012750525,0.,-17.4999993624737));
#1300=CARTESIAN_POINT('Origin',(17.4999993624738,0.,-37.5000010355147));
#1301=CARTESIAN_POINT('',(15.3499993624738,4.,-37.5000010355147));
#1302=CARTESIAN_POINT('Origin',(17.4999993624738,4.,-37.5000010355147));
#1303=CARTESIAN_POINT('',(15.3499993624738,0.,-37.5000010355147));
#1304=CARTESIAN_POINT('',(15.3499993624738,0.,-37.5000010355147));
#1305=CARTESIAN_POINT('Origin',(17.4999993624738,0.,-37.5000010355147));
#1306=CARTESIAN_POINT('Origin',(-17.5000006375263,0.,-27.5));
#1307=CARTESIAN_POINT('',(-19.6500006375263,4.,-27.5));
#1308=CARTESIAN_POINT('Origin',(-17.5000006375263,4.,-27.5));
#1309=CARTESIAN_POINT('',(-19.6500006375263,0.,-27.5));
#1310=CARTESIAN_POINT('',(-19.6500006375263,0.,-27.5));
#1311=CARTESIAN_POINT('Origin',(-17.5000006375263,0.,-27.5));
#1312=CARTESIAN_POINT('Origin',(17.4999993624737,0.,-27.5));
#1313=CARTESIAN_POINT('',(15.3499993624737,4.,-27.5));
#1314=CARTESIAN_POINT('Origin',(17.4999993624737,4.,-27.5));
#1315=CARTESIAN_POINT('',(15.3499993624737,0.,-27.5));
#1316=CARTESIAN_POINT('',(15.3499993624737,0.,-27.5));
#1317=CARTESIAN_POINT('Origin',(17.4999993624737,0.,-27.5));
#1318=CARTESIAN_POINT('Origin',(17.4999993624737,0.,37.5));
#1319=CARTESIAN_POINT('',(15.3499993624737,4.,37.5));
#1320=CARTESIAN_POINT('Origin',(17.4999993624737,4.,37.5));
#1321=CARTESIAN_POINT('',(15.3499993624737,0.,37.5));
#1322=CARTESIAN_POINT('',(15.3499993624737,0.,37.5));
#1323=CARTESIAN_POINT('Origin',(17.4999993624737,0.,37.5));
#1324=CARTESIAN_POINT('Origin',(-17.5000006375263,0.,37.5));
#1325=CARTESIAN_POINT('',(-19.6500006375263,4.,37.5));
#1326=CARTESIAN_POINT('Origin',(-17.5000006375263,4.,37.5));
#1327=CARTESIAN_POINT('',(-19.6500006375263,0.,37.5));
#1328=CARTESIAN_POINT('',(-19.6500006375263,0.,37.5));
#1329=CARTESIAN_POINT('Origin',(-17.5000006375263,0.,37.5));
#1330=CARTESIAN_POINT('Origin',(27.5,0.,17.5000006375263));
#1331=CARTESIAN_POINT('',(25.35,4.,17.5000006375263));
#1332=CARTESIAN_POINT('Origin',(27.5,4.,17.5000006375263));
#1333=CARTESIAN_POINT('',(25.35,0.,17.5000006375263));
#1334=CARTESIAN_POINT('',(25.35,0.,17.5000006375263));
#1335=CARTESIAN_POINT('Origin',(27.5,0.,17.5000006375263));
#1336=CARTESIAN_POINT('Origin',(27.5,0.,-17.4999993624737));
#1337=CARTESIAN_POINT('',(25.35,4.,-17.4999993624737));
#1338=CARTESIAN_POINT('Origin',(27.5,4.,-17.4999993624737));
#1339=CARTESIAN_POINT('',(25.35,0.,-17.4999993624737));
#1340=CARTESIAN_POINT('',(25.35,0.,-17.4999993624737));
#1341=CARTESIAN_POINT('Origin',(27.5,0.,-17.4999993624737));
#1342=CARTESIAN_POINT('Origin',(-17.5000006375262,0.,-37.5000010355147));
#1343=CARTESIAN_POINT('',(-19.6500006375262,4.,-37.5000010355147));
#1344=CARTESIAN_POINT('Origin',(-17.5000006375262,4.,-37.5000010355147));
#1345=CARTESIAN_POINT('',(-19.6500006375262,0.,-37.5000010355147));
#1346=CARTESIAN_POINT('',(-19.6500006375262,0.,-37.5000010355147));
#1347=CARTESIAN_POINT('Origin',(-17.5000006375262,0.,-37.5000010355147));
#1348=CARTESIAN_POINT('Origin',(37.5000010355147,0.,-17.4999993624738));
#1349=CARTESIAN_POINT('',(35.3500010355147,4.,-17.4999993624738));
#1350=CARTESIAN_POINT('Origin',(37.5000010355147,4.,-17.4999993624738));
#1351=CARTESIAN_POINT('',(35.3500010355147,0.,-17.4999993624738));
#1352=CARTESIAN_POINT('',(35.3500010355147,0.,-17.4999993624738));
#1353=CARTESIAN_POINT('Origin',(37.5000010355147,0.,-17.4999993624738));
#1354=CARTESIAN_POINT('Origin',(-17.5000768893161,0.,47.5));
#1355=CARTESIAN_POINT('',(-17.5000387635276,0.,49.649999999662));
#1356=CARTESIAN_POINT('',(-17.5000387635276,0.,45.350000000338));
#1357=CARTESIAN_POINT('Origin',(-17.5000768893161,0.,47.5));
#1358=CARTESIAN_POINT('',(-17.5000387635276,4.,45.350000000338));
#1359=CARTESIAN_POINT('',(-17.5000387635276,0.,45.350000000338));
#1360=CARTESIAN_POINT('',(-17.5000387635276,4.,49.649999999662));
#1361=CARTESIAN_POINT('Origin',(-17.5000768893161,4.,47.5));
#1362=CARTESIAN_POINT('',(-17.5000387635276,0.,49.649999999662));
#1363=CARTESIAN_POINT('Origin',(-17.5000006375263,0.,47.5));
#1364=CARTESIAN_POINT('Origin',(-17.5000006375263,0.,47.5));
#1365=CARTESIAN_POINT('Origin',(-17.5000006375263,4.,47.5));
#1366=CARTESIAN_POINT('Origin',(37.5000010355147,0.,17.5000006375262));
#1367=CARTESIAN_POINT('',(35.3500010355147,4.,17.5000006375262));
#1368=CARTESIAN_POINT('Origin',(37.5000010355147,4.,17.5000006375262));
#1369=CARTESIAN_POINT('',(35.3500010355147,0.,17.5000006375262));
#1370=CARTESIAN_POINT('',(35.3500010355147,0.,17.5000006375262));
#1371=CARTESIAN_POINT('Origin',(37.5000010355147,0.,17.5000006375262));
#1372=CARTESIAN_POINT('Origin',(0.,0.,0.));
#1373=CARTESIAN_POINT('',(-12.5,4.,0.));
#1374=CARTESIAN_POINT('Origin',(0.,4.,0.));
#1375=CARTESIAN_POINT('',(-12.5,0.,1.53080849893419E-15));
#1376=CARTESIAN_POINT('',(-12.5,0.,1.53080849893419E-15));
#1377=CARTESIAN_POINT('Origin',(0.,0.,0.));
#1378=CARTESIAN_POINT('Origin',(-37.5000023105672,0.,-17.4999993624738));
#1379=CARTESIAN_POINT('',(-39.6500023105672,4.,-17.4999993624738));
#1380=CARTESIAN_POINT('Origin',(-37.5000023105672,4.,-17.4999993624738));
#1381=CARTESIAN_POINT('',(-39.6500023105672,0.,-17.4999993624738));
#1382=CARTESIAN_POINT('',(-39.6500023105672,0.,-17.4999993624738));
#1383=CARTESIAN_POINT('Origin',(-37.5000023105672,0.,-17.4999993624738));
#1384=CARTESIAN_POINT('Origin',(-47.5,0.,-17.4999993624737));
#1385=CARTESIAN_POINT('',(-49.65,4.,-17.4999993624737));
#1386=CARTESIAN_POINT('Origin',(-47.5,4.,-17.4999993624737));
#1387=CARTESIAN_POINT('',(-49.65,0.,-17.4999993624737));
#1388=CARTESIAN_POINT('',(-49.65,0.,-17.4999993624737));
#1389=CARTESIAN_POINT('Origin',(-47.5,0.,-17.4999993624737));
#1390=CARTESIAN_POINT('Origin',(-17.5000006375262,0.,-57.5000010355147));
#1391=CARTESIAN_POINT('',(-19.6500006375262,4.,-57.5000010355147));
#1392=CARTESIAN_POINT('Origin',(-17.5000006375262,4.,-57.5000010355147));
#1393=CARTESIAN_POINT('',(-19.6500006375262,0.,-57.5000010355147));
#1394=CARTESIAN_POINT('',(-19.6500006375262,0.,-57.5000010355147));
#1395=CARTESIAN_POINT('Origin',(-17.5000006375262,0.,-57.5000010355147));
#1396=CARTESIAN_POINT('Origin',(47.4999987249475,0.,-17.4999993624737));
#1397=CARTESIAN_POINT('',(45.3499987249475,4.,-17.4999993624737));
#1398=CARTESIAN_POINT('Origin',(47.4999987249475,4.,-17.4999993624737));
#1399=CARTESIAN_POINT('',(45.3499987249475,0.,-17.4999993624737));
#1400=CARTESIAN_POINT('',(45.3499987249475,0.,-17.4999993624737));
#1401=CARTESIAN_POINT('Origin',(47.4999987249475,0.,-17.4999993624737));
#1402=CARTESIAN_POINT('Origin',(57.4999987249475,0.,17.5000006375263));
#1403=CARTESIAN_POINT('',(55.3499987249474,4.,17.5000006375263));
#1404=CARTESIAN_POINT('Origin',(57.4999987249475,4.,17.5000006375263));
#1405=CARTESIAN_POINT('',(55.3499987249474,0.,17.5000006375263));
#1406=CARTESIAN_POINT('',(55.3499987249474,0.,17.5000006375263));
#1407=CARTESIAN_POINT('Origin',(57.4999987249475,0.,17.5000006375263));
#1408=CARTESIAN_POINT('Origin',(-27.5000012750525,0.,17.5000006375263));
#1409=CARTESIAN_POINT('',(-29.6500012750525,4.,17.5000006375263));
#1410=CARTESIAN_POINT('Origin',(-27.5000012750525,4.,17.5000006375263));
#1411=CARTESIAN_POINT('',(-29.6500012750525,0.,17.5000006375263));
#1412=CARTESIAN_POINT('',(-29.6500012750525,0.,17.5000006375263));
#1413=CARTESIAN_POINT('Origin',(-27.5000012750525,0.,17.5000006375263));
#1414=CARTESIAN_POINT('Origin',(-47.5,0.,17.5000006375263));
#1415=CARTESIAN_POINT('',(-49.65,4.,17.5000006375263));
#1416=CARTESIAN_POINT('Origin',(-47.5,4.,17.5000006375263));
#1417=CARTESIAN_POINT('',(-49.65,0.,17.5000006375263));
#1418=CARTESIAN_POINT('',(-49.65,0.,17.5000006375263));
#1419=CARTESIAN_POINT('Origin',(-47.5,0.,17.5000006375263));
#1420=CARTESIAN_POINT('Origin',(47.4999987249475,0.,17.5000006375263));
#1421=CARTESIAN_POINT('',(45.3499987249475,4.,17.5000006375263));
#1422=CARTESIAN_POINT('Origin',(47.4999987249475,4.,17.5000006375263));
#1423=CARTESIAN_POINT('',(45.3499987249475,0.,17.5000006375263));
#1424=CARTESIAN_POINT('',(45.3499987249475,0.,17.5000006375263));
#1425=CARTESIAN_POINT('Origin',(47.4999987249475,0.,17.5000006375263));
#1426=CARTESIAN_POINT('Origin',(-17.5000006375263,0.,57.5));
#1427=CARTESIAN_POINT('',(-19.6500006375263,4.,57.5));
#1428=CARTESIAN_POINT('Origin',(-17.5000006375263,4.,57.5));
#1429=CARTESIAN_POINT('',(-19.6500006375263,0.,57.5));
#1430=CARTESIAN_POINT('',(-19.6500006375263,0.,57.5));
#1431=CARTESIAN_POINT('Origin',(-17.5000006375263,0.,57.5));
#1432=CARTESIAN_POINT('Origin',(0.,0.,0.));
#1433=CARTESIAN_POINT('',(-67.5,4.,8.88178419700125E-15));
#1434=CARTESIAN_POINT('Origin',(0.,4.,0.));
#1435=CARTESIAN_POINT('',(-67.5,0.,8.26636589424464E-15));
#1436=CARTESIAN_POINT('',(-67.5,0.,8.26636589424464E-15));
#1437=CARTESIAN_POINT('Origin',(0.,0.,0.));
#1438=CARTESIAN_POINT('Origin',(0.,4.,0.));
#1439=CARTESIAN_POINT('Origin',(0.,0.,0.));
#1440=UNCERTAINTY_MEASURE_WITH_UNIT(LENGTH_MEASURE(0.01),#1444,
'DISTANCE_ACCURACY_VALUE',
'Maximum model space distance between geometric entities at asserted c
onnectivities');
#1441=UNCERTAINTY_MEASURE_WITH_UNIT(LENGTH_MEASURE(0.01),#1444,
'DISTANCE_ACCURACY_VALUE',
'Maximum model space distance between geometric entities at asserted c
onnectivities');
#1442=(
GEOMETRIC_REPRESENTATION_CONTEXT(3)
GLOBAL_UNCERTAINTY_ASSIGNED_CONTEXT((#1440))
GLOBAL_UNIT_ASSIGNED_CONTEXT((#1444,#1446,#1447))
REPRESENTATION_CONTEXT('','3D')
);
#1443=(
GEOMETRIC_REPRESENTATION_CONTEXT(3)
GLOBAL_UNCERTAINTY_ASSIGNED_CONTEXT((#1441))
GLOBAL_UNIT_ASSIGNED_CONTEXT((#1444,#1446,#1447))
REPRESENTATION_CONTEXT('','3D')
);
#1444=(
LENGTH_UNIT()
NAMED_UNIT(*)
SI_UNIT(.MILLI.,.METRE.)
);
#1445=(
LENGTH_UNIT()
NAMED_UNIT(*)
SI_UNIT($,.METRE.)
);
#1446=(
NAMED_UNIT(*)
PLANE_ANGLE_UNIT()
SI_UNIT($,.RADIAN.)
);
#1447=(
NAMED_UNIT(*)
SI_UNIT($,.STERADIAN.)
SOLID_ANGLE_UNIT()
);
#1448=SHAPE_DEFINITION_REPRESENTATION(#1449,#1450);
#1449=PRODUCT_DEFINITION_SHAPE('',$,#1452);
#1450=SHAPE_REPRESENTATION('',(#852),#1442);
#1451=PRODUCT_DEFINITION_CONTEXT('part definition',#1456,'design');
#1452=PRODUCT_DEFINITION('2026-05-10-18-12-54-137','Robot Chassis',#1453,
#1451);
#1453=PRODUCT_DEFINITION_FORMATION('',$,#1458);
#1454=PRODUCT_RELATED_PRODUCT_CATEGORY('Robot Chassis','Robot Chassis',
(#1458));
#1455=APPLICATION_PROTOCOL_DEFINITION('international standard',
'automotive_design',2009,#1456);
#1456=APPLICATION_CONTEXT(
'Core Data for Automotive Mechanical Design Process');
#1457=PRODUCT_CONTEXT('part definition',#1456,'mechanical');
#1458=PRODUCT('2026-05-10-18-12-54-137','Robot Chassis',$,(#1457));
#1459=PRESENTATION_STYLE_ASSIGNMENT((#1460));
#1460=SURFACE_STYLE_USAGE(.BOTH.,#1461);
#1461=SURFACE_SIDE_STYLE('',(#1462));
#1462=SURFACE_STYLE_FILL_AREA(#1463);
#1463=FILL_AREA_STYLE('Steel - Satin',(#1464));
#1464=FILL_AREA_STYLE_COLOUR('Steel - Satin',#1465);
#1465=COLOUR_RGB('Steel - Satin',0.627450980392157,0.627450980392157,0.627450980392157);
ENDSEC;
END-ISO-10303-21;
