ISO-10303-21;
HEADER;
/* Generated by software containing ST-Developer
 * from STEP Tools, Inc. (www.steptools.com) 
 */

FILE_DESCRIPTION(
/* description */ (''),
/* implementation_level */ '2;1');

FILE_NAME(
/* name */ 'Unipolar stepperwheel.step',
/* time_stamp */ '2026-05-10T16:11:47-04:00',
/* author */ (''),
/* organization */ (''),
/* preprocessor_version */ 'ST-DEVELOPER v20.1',
/* originating_system */ 'Autodesk Translation Framework v15.8.0.0',
/* authorisation */ '');

FILE_SCHEMA (('AUTOMOTIVE_DESIGN { 1 0 10303 214 3 1 1 }'));
ENDSEC;

DATA;
#10=MECHANICAL_DESIGN_GEOMETRIC_PRESENTATION_REPRESENTATION('',(#13,#14),
#1244);
#11=SHAPE_REPRESENTATION_RELATIONSHIP('SRR','None',#1251,#12);
#12=ADVANCED_BREP_SHAPE_REPRESENTATION('',(#15,#16),#1243);
#13=STYLED_ITEM('',(#1260),#15);
#14=STYLED_ITEM('',(#1260),#16);
#15=MANIFOLD_SOLID_BREP('Body1',#711);
#16=MANIFOLD_SOLID_BREP('Body2',#712);
#17=FACE_BOUND('',#206,.T.);
#18=FACE_BOUND('',#209,.T.);
#19=FACE_BOUND('',#214,.T.);
#20=FACE_BOUND('',#218,.T.);
#21=FACE_BOUND('',#242,.T.);
#22=FACE_BOUND('',#244,.T.);
#23=FACE_BOUND('',#245,.T.);
#24=FACE_BOUND('',#246,.T.);
#25=FACE_BOUND('',#247,.T.);
#26=FACE_BOUND('',#248,.T.);
#27=PLANE('',#734);
#28=PLANE('',#739);
#29=PLANE('',#749);
#30=PLANE('',#769);
#31=PLANE('',#770);
#32=PLANE('',#774);
#33=PLANE('',#775);
#34=PLANE('',#777);
#35=PLANE('',#778);
#36=PLANE('',#779);
#37=PLANE('',#781);
#38=PLANE('',#782);
#39=PLANE('',#783);
#40=PLANE('',#785);
#41=PLANE('',#786);
#42=PLANE('',#787);
#43=PLANE('',#789);
#44=PLANE('',#790);
#45=PLANE('',#791);
#46=PLANE('',#793);
#47=PLANE('',#794);
#48=PLANE('',#795);
#49=PLANE('',#808);
#50=PLANE('',#809);
#51=LINE('',#1047,#105);
#52=LINE('',#1060,#106);
#53=LINE('',#1071,#107);
#54=LINE('',#1078,#108);
#55=LINE('',#1081,#109);
#56=LINE('',#1092,#110);
#57=LINE('',#1096,#111);
#58=LINE('',#1100,#112);
#59=LINE('',#1104,#113);
#60=LINE('',#1108,#114);
#61=LINE('',#1112,#115);
#62=LINE('',#1116,#116);
#63=LINE('',#1120,#117);
#64=LINE('',#1124,#118);
#65=LINE('',#1128,#119);
#66=LINE('',#1132,#120);
#67=LINE('',#1140,#121);
#68=LINE('',#1143,#122);
#69=LINE('',#1145,#123);
#70=LINE('',#1146,#124);
#71=LINE('',#1148,#125);
#72=LINE('',#1150,#126);
#73=LINE('',#1154,#127);
#74=LINE('',#1156,#128);
#75=LINE('',#1157,#129);
#76=LINE('',#1160,#130);
#77=LINE('',#1162,#131);
#78=LINE('',#1163,#132);
#79=LINE('',#1168,#133);
#80=LINE('',#1170,#134);
#81=LINE('',#1171,#135);
#82=LINE('',#1174,#136);
#83=LINE('',#1176,#137);
#84=LINE('',#1177,#138);
#85=LINE('',#1182,#139);
#86=LINE('',#1184,#140);
#87=LINE('',#1185,#141);
#88=LINE('',#1188,#142);
#89=LINE('',#1190,#143);
#90=LINE('',#1191,#144);
#91=LINE('',#1196,#145);
#92=LINE('',#1198,#146);
#93=LINE('',#1199,#147);
#94=LINE('',#1202,#148);
#95=LINE('',#1204,#149);
#96=LINE('',#1205,#150);
#97=LINE('',#1210,#151);
#98=LINE('',#1212,#152);
#99=LINE('',#1213,#153);
#100=LINE('',#1216,#154);
#101=LINE('',#1218,#155);
#102=LINE('',#1219,#156);
#103=LINE('',#1226,#157);
#104=LINE('',#1237,#158);
#105=VECTOR('',#826,33.5);
#106=VECTOR('',#845,25.8);
#107=VECTOR('',#858,4.8);
#108=VECTOR('',#865,10.);
#109=VECTOR('',#868,10.);
#110=VECTOR('',#881,9.15);
#111=VECTOR('',#884,10.);
#112=VECTOR('',#887,10.);
#113=VECTOR('',#890,10.);
#114=VECTOR('',#893,10.);
#115=VECTOR('',#896,10.);
#116=VECTOR('',#899,10.);
#117=VECTOR('',#902,10.);
#118=VECTOR('',#905,10.);
#119=VECTOR('',#908,10.);
#120=VECTOR('',#911,10.);
#121=VECTOR('',#920,10.);
#122=VECTOR('',#923,10.);
#123=VECTOR('',#926,10.);
#124=VECTOR('',#927,10.);
#125=VECTOR('',#930,10.);
#126=VECTOR('',#933,10.);
#127=VECTOR('',#938,10.);
#128=VECTOR('',#939,10.);
#129=VECTOR('',#940,10.);
#130=VECTOR('',#943,10.);
#131=VECTOR('',#944,10.);
#132=VECTOR('',#945,10.);
#133=VECTOR('',#952,10.);
#134=VECTOR('',#953,10.);
#135=VECTOR('',#954,10.);
#136=VECTOR('',#957,10.);
#137=VECTOR('',#958,10.);
#138=VECTOR('',#959,10.);
#139=VECTOR('',#966,10.);
#140=VECTOR('',#967,10.);
#141=VECTOR('',#968,10.);
#142=VECTOR('',#971,10.);
#143=VECTOR('',#972,10.);
#144=VECTOR('',#973,10.);
#145=VECTOR('',#980,10.);
#146=VECTOR('',#981,10.);
#147=VECTOR('',#982,10.);
#148=VECTOR('',#985,10.);
#149=VECTOR('',#986,10.);
#150=VECTOR('',#987,10.);
#151=VECTOR('',#994,10.);
#152=VECTOR('',#995,10.);
#153=VECTOR('',#996,10.);
#154=VECTOR('',#999,10.);
#155=VECTOR('',#1000,10.);
#156=VECTOR('',#1001,10.);
#157=VECTOR('',#1010,25.8);
#158=VECTOR('',#1027,27.5);
#159=CYLINDRICAL_SURFACE('',#731,33.5);
#160=CYLINDRICAL_SURFACE('',#741,25.8);
#161=CYLINDRICAL_SURFACE('',#747,4.8);
#162=CYLINDRICAL_SURFACE('',#757,9.15);
#163=CYLINDRICAL_SURFACE('',#773,2.7);
#164=CYLINDRICAL_SURFACE('',#776,2.7);
#165=CYLINDRICAL_SURFACE('',#797,25.8);
#166=CYLINDRICAL_SURFACE('',#805,27.5);
#167=FACE_OUTER_BOUND('',#203,.T.);
#168=FACE_OUTER_BOUND('',#204,.T.);
#169=FACE_OUTER_BOUND('',#205,.T.);
#170=FACE_OUTER_BOUND('',#207,.T.);
#171=FACE_OUTER_BOUND('',#208,.T.);
#172=FACE_OUTER_BOUND('',#210,.T.);
#173=FACE_OUTER_BOUND('',#211,.T.);
#174=FACE_OUTER_BOUND('',#212,.T.);
#175=FACE_OUTER_BOUND('',#213,.T.);
#176=FACE_OUTER_BOUND('',#215,.T.);
#177=FACE_OUTER_BOUND('',#216,.T.);
#178=FACE_OUTER_BOUND('',#217,.T.);
#179=FACE_OUTER_BOUND('',#219,.T.);
#180=FACE_OUTER_BOUND('',#220,.T.);
#181=FACE_OUTER_BOUND('',#221,.T.);
#182=FACE_OUTER_BOUND('',#222,.T.);
#183=FACE_OUTER_BOUND('',#223,.T.);
#184=FACE_OUTER_BOUND('',#224,.T.);
#185=FACE_OUTER_BOUND('',#225,.T.);
#186=FACE_OUTER_BOUND('',#226,.T.);
#187=FACE_OUTER_BOUND('',#227,.T.);
#188=FACE_OUTER_BOUND('',#228,.T.);
#189=FACE_OUTER_BOUND('',#229,.T.);
#190=FACE_OUTER_BOUND('',#230,.T.);
#191=FACE_OUTER_BOUND('',#231,.T.);
#192=FACE_OUTER_BOUND('',#232,.T.);
#193=FACE_OUTER_BOUND('',#233,.T.);
#194=FACE_OUTER_BOUND('',#234,.T.);
#195=FACE_OUTER_BOUND('',#235,.T.);
#196=FACE_OUTER_BOUND('',#236,.T.);
#197=FACE_OUTER_BOUND('',#237,.T.);
#198=FACE_OUTER_BOUND('',#238,.T.);
#199=FACE_OUTER_BOUND('',#239,.T.);
#200=FACE_OUTER_BOUND('',#240,.T.);
#201=FACE_OUTER_BOUND('',#241,.T.);
#202=FACE_OUTER_BOUND('',#243,.T.);
#203=EDGE_LOOP('',(#467,#468,#469,#470,#471));
#204=EDGE_LOOP('',(#472,#473,#474,#475,#476,#477));
#205=EDGE_LOOP('',(#478));
#206=EDGE_LOOP('',(#479));
#207=EDGE_LOOP('',(#480,#481,#482,#483,#484));
#208=EDGE_LOOP('',(#485));
#209=EDGE_LOOP('',(#486));
#210=EDGE_LOOP('',(#487,#488,#489,#490));
#211=EDGE_LOOP('',(#491,#492,#493,#494,#495));
#212=EDGE_LOOP('',(#496,#497,#498,#499,#500));
#213=EDGE_LOOP('',(#501));
#214=EDGE_LOOP('',(#502,#503,#504,#505));
#215=EDGE_LOOP('',(#506,#507,#508,#509,#510));
#216=EDGE_LOOP('',(#511,#512,#513,#514,#515,#516,#517,#518,#519,#520,#521,
#522,#523,#524,#525,#526,#527,#528,#529,#530,#531,#532,#533,#534,#535));
#217=EDGE_LOOP('',(#536));
#218=EDGE_LOOP('',(#537));
#219=EDGE_LOOP('',(#538,#539,#540,#541));
#220=EDGE_LOOP('',(#542,#543,#544,#545));
#221=EDGE_LOOP('',(#546,#547,#548,#549));
#222=EDGE_LOOP('',(#550,#551,#552,#553));
#223=EDGE_LOOP('',(#554,#555,#556,#557));
#224=EDGE_LOOP('',(#558,#559,#560,#561));
#225=EDGE_LOOP('',(#562,#563,#564,#565));
#226=EDGE_LOOP('',(#566,#567,#568,#569));
#227=EDGE_LOOP('',(#570,#571,#572,#573));
#228=EDGE_LOOP('',(#574,#575,#576,#577));
#229=EDGE_LOOP('',(#578,#579,#580,#581));
#230=EDGE_LOOP('',(#582,#583,#584,#585));
#231=EDGE_LOOP('',(#586,#587,#588,#589));
#232=EDGE_LOOP('',(#590,#591,#592,#593));
#233=EDGE_LOOP('',(#594,#595,#596,#597));
#234=EDGE_LOOP('',(#598,#599,#600,#601));
#235=EDGE_LOOP('',(#602,#603,#604,#605));
#236=EDGE_LOOP('',(#606,#607,#608,#609));
#237=EDGE_LOOP('',(#610,#611,#612,#613));
#238=EDGE_LOOP('',(#614,#615,#616,#617));
#239=EDGE_LOOP('',(#618,#619,#620,#621,#622,#623,#624,#625,#626,#627,#628,
#629,#630,#631,#632,#633,#634,#635,#636,#637,#638,#639,#640,#641));
#240=EDGE_LOOP('',(#642,#643,#644,#645));
#241=EDGE_LOOP('',(#646));
#242=EDGE_LOOP('',(#647));
#243=EDGE_LOOP('',(#648));
#244=EDGE_LOOP('',(#649,#650,#651,#652));
#245=EDGE_LOOP('',(#653,#654,#655,#656));
#246=EDGE_LOOP('',(#657,#658,#659,#660));
#247=EDGE_LOOP('',(#661,#662,#663,#664,#665,#666));
#248=EDGE_LOOP('',(#667,#668,#669,#670));
#249=CIRCLE('',#727,33.5);
#250=CIRCLE('',#728,5.);
#251=CIRCLE('',#729,28.5);
#252=CIRCLE('',#730,33.5);
#253=CIRCLE('',#732,33.5);
#254=CIRCLE('',#733,33.5);
#255=CIRCLE('',#735,25.8);
#256=CIRCLE('',#737,28.5);
#257=CIRCLE('',#738,5.);
#258=CIRCLE('',#740,25.8);
#259=CIRCLE('',#743,4.5);
#260=CIRCLE('',#744,0.3);
#261=CIRCLE('',#745,4.8);
#262=CIRCLE('',#746,4.8);
#263=CIRCLE('',#748,4.8);
#264=CIRCLE('',#750,2.7);
#265=CIRCLE('',#751,2.7);
#266=CIRCLE('',#753,7.15);
#267=CIRCLE('',#754,2.);
#268=CIRCLE('',#755,9.15);
#269=CIRCLE('',#756,9.15);
#270=CIRCLE('',#758,9.15);
#271=CIRCLE('',#759,9.15);
#272=CIRCLE('',#760,9.15);
#273=CIRCLE('',#761,9.15);
#274=CIRCLE('',#762,9.15);
#275=CIRCLE('',#763,9.15);
#276=CIRCLE('',#764,9.15);
#277=CIRCLE('',#765,9.15);
#278=CIRCLE('',#766,9.15);
#279=CIRCLE('',#767,9.15);
#280=CIRCLE('',#768,9.15);
#281=CIRCLE('',#771,2.7);
#282=CIRCLE('',#772,2.7);
#283=CIRCLE('',#780,25.8);
#284=CIRCLE('',#784,25.8);
#285=CIRCLE('',#788,25.8);
#286=CIRCLE('',#792,25.8);
#287=CIRCLE('',#796,25.8);
#288=CIRCLE('',#798,25.8);
#289=CIRCLE('',#799,25.8);
#290=CIRCLE('',#800,25.8);
#291=CIRCLE('',#801,25.8);
#292=CIRCLE('',#802,25.8);
#293=CIRCLE('',#803,25.8);
#294=CIRCLE('',#804,25.8);
#295=CIRCLE('',#806,27.5);
#296=CIRCLE('',#807,27.5);
#297=VERTEX_POINT('',#1036);
#298=VERTEX_POINT('',#1037);
#299=VERTEX_POINT('',#1039);
#300=VERTEX_POINT('',#1044);
#301=VERTEX_POINT('',#1045);
#302=VERTEX_POINT('',#1050);
#303=VERTEX_POINT('',#1053);
#304=VERTEX_POINT('',#1057);
#305=VERTEX_POINT('',#1062);
#306=VERTEX_POINT('',#1064);
#307=VERTEX_POINT('',#1066);
#308=VERTEX_POINT('',#1070);
#309=VERTEX_POINT('',#1074);
#310=VERTEX_POINT('',#1075);
#311=VERTEX_POINT('',#1077);
#312=VERTEX_POINT('',#1079);
#313=VERTEX_POINT('',#1083);
#314=VERTEX_POINT('',#1085);
#315=VERTEX_POINT('',#1087);
#316=VERTEX_POINT('',#1091);
#317=VERTEX_POINT('',#1093);
#318=VERTEX_POINT('',#1095);
#319=VERTEX_POINT('',#1097);
#320=VERTEX_POINT('',#1099);
#321=VERTEX_POINT('',#1101);
#322=VERTEX_POINT('',#1103);
#323=VERTEX_POINT('',#1105);
#324=VERTEX_POINT('',#1107);
#325=VERTEX_POINT('',#1109);
#326=VERTEX_POINT('',#1111);
#327=VERTEX_POINT('',#1113);
#328=VERTEX_POINT('',#1115);
#329=VERTEX_POINT('',#1117);
#330=VERTEX_POINT('',#1119);
#331=VERTEX_POINT('',#1121);
#332=VERTEX_POINT('',#1123);
#333=VERTEX_POINT('',#1125);
#334=VERTEX_POINT('',#1127);
#335=VERTEX_POINT('',#1129);
#336=VERTEX_POINT('',#1131);
#337=VERTEX_POINT('',#1136);
#338=VERTEX_POINT('',#1137);
#339=VERTEX_POINT('',#1139);
#340=VERTEX_POINT('',#1141);
#341=VERTEX_POINT('',#1153);
#342=VERTEX_POINT('',#1155);
#343=VERTEX_POINT('',#1159);
#344=VERTEX_POINT('',#1161);
#345=VERTEX_POINT('',#1167);
#346=VERTEX_POINT('',#1169);
#347=VERTEX_POINT('',#1173);
#348=VERTEX_POINT('',#1175);
#349=VERTEX_POINT('',#1181);
#350=VERTEX_POINT('',#1183);
#351=VERTEX_POINT('',#1187);
#352=VERTEX_POINT('',#1189);
#353=VERTEX_POINT('',#1195);
#354=VERTEX_POINT('',#1197);
#355=VERTEX_POINT('',#1201);
#356=VERTEX_POINT('',#1203);
#357=VERTEX_POINT('',#1209);
#358=VERTEX_POINT('',#1211);
#359=VERTEX_POINT('',#1215);
#360=VERTEX_POINT('',#1217);
#361=VERTEX_POINT('',#1223);
#362=VERTEX_POINT('',#1225);
#363=VERTEX_POINT('',#1234);
#364=VERTEX_POINT('',#1236);
#365=EDGE_CURVE('',#297,#298,#249,.T.);
#366=EDGE_CURVE('',#298,#299,#250,.T.);
#367=EDGE_CURVE('',#299,#299,#251,.T.);
#368=EDGE_CURVE('',#298,#297,#252,.T.);
#369=EDGE_CURVE('',#300,#301,#253,.T.);
#370=EDGE_CURVE('',#300,#297,#51,.T.);
#371=EDGE_CURVE('',#301,#300,#254,.T.);
#372=EDGE_CURVE('',#302,#302,#255,.T.);
#373=EDGE_CURVE('',#303,#303,#256,.T.);
#374=EDGE_CURVE('',#303,#301,#257,.T.);
#375=EDGE_CURVE('',#304,#304,#258,.T.);
#376=EDGE_CURVE('',#304,#302,#52,.T.);
#377=EDGE_CURVE('',#305,#305,#259,.T.);
#378=EDGE_CURVE('',#305,#306,#260,.T.);
#379=EDGE_CURVE('',#306,#307,#261,.T.);
#380=EDGE_CURVE('',#307,#306,#262,.T.);
#381=EDGE_CURVE('',#307,#308,#53,.T.);
#382=EDGE_CURVE('',#308,#308,#263,.T.);
#383=EDGE_CURVE('',#309,#310,#264,.T.);
#384=EDGE_CURVE('',#310,#311,#54,.T.);
#385=EDGE_CURVE('',#311,#312,#265,.T.);
#386=EDGE_CURVE('',#312,#309,#55,.T.);
#387=EDGE_CURVE('',#313,#313,#266,.T.);
#388=EDGE_CURVE('',#313,#314,#267,.T.);
#389=EDGE_CURVE('',#314,#315,#268,.T.);
#390=EDGE_CURVE('',#315,#314,#269,.T.);
#391=EDGE_CURVE('',#315,#316,#56,.T.);
#392=EDGE_CURVE('',#316,#317,#270,.T.);
#393=EDGE_CURVE('',#317,#318,#57,.T.);
#394=EDGE_CURVE('',#319,#318,#271,.T.);
#395=EDGE_CURVE('',#320,#319,#58,.T.);
#396=EDGE_CURVE('',#320,#321,#272,.T.);
#397=EDGE_CURVE('',#321,#322,#59,.T.);
#398=EDGE_CURVE('',#323,#322,#273,.T.);
#399=EDGE_CURVE('',#324,#323,#60,.T.);
#400=EDGE_CURVE('',#324,#325,#274,.T.);
#401=EDGE_CURVE('',#325,#326,#61,.T.);
#402=EDGE_CURVE('',#327,#326,#275,.T.);
#403=EDGE_CURVE('',#328,#327,#62,.T.);
#404=EDGE_CURVE('',#328,#329,#276,.T.);
#405=EDGE_CURVE('',#329,#330,#63,.T.);
#406=EDGE_CURVE('',#331,#330,#277,.T.);
#407=EDGE_CURVE('',#332,#331,#64,.T.);
#408=EDGE_CURVE('',#332,#333,#278,.T.);
#409=EDGE_CURVE('',#333,#334,#65,.T.);
#410=EDGE_CURVE('',#335,#334,#279,.T.);
#411=EDGE_CURVE('',#336,#335,#66,.T.);
#412=EDGE_CURVE('',#336,#316,#280,.T.);
#413=EDGE_CURVE('',#337,#338,#281,.T.);
#414=EDGE_CURVE('',#339,#337,#67,.T.);
#415=EDGE_CURVE('',#340,#339,#282,.T.);
#416=EDGE_CURVE('',#338,#340,#68,.T.);
#417=EDGE_CURVE('',#339,#312,#69,.T.);
#418=EDGE_CURVE('',#340,#311,#70,.T.);
#419=EDGE_CURVE('',#337,#309,#71,.T.);
#420=EDGE_CURVE('',#338,#310,#72,.T.);
#421=EDGE_CURVE('',#341,#320,#73,.T.);
#422=EDGE_CURVE('',#342,#319,#74,.T.);
#423=EDGE_CURVE('',#341,#342,#75,.T.);
#424=EDGE_CURVE('',#317,#343,#76,.T.);
#425=EDGE_CURVE('',#344,#343,#77,.T.);
#426=EDGE_CURVE('',#318,#344,#78,.T.);
#427=EDGE_CURVE('',#342,#344,#283,.T.);
#428=EDGE_CURVE('',#345,#332,#79,.T.);
#429=EDGE_CURVE('',#346,#331,#80,.T.);
#430=EDGE_CURVE('',#345,#346,#81,.T.);
#431=EDGE_CURVE('',#329,#347,#82,.T.);
#432=EDGE_CURVE('',#348,#347,#83,.T.);
#433=EDGE_CURVE('',#330,#348,#84,.T.);
#434=EDGE_CURVE('',#346,#348,#284,.T.);
#435=EDGE_CURVE('',#349,#324,#85,.T.);
#436=EDGE_CURVE('',#350,#323,#86,.T.);
#437=EDGE_CURVE('',#349,#350,#87,.T.);
#438=EDGE_CURVE('',#321,#351,#88,.T.);
#439=EDGE_CURVE('',#352,#351,#89,.T.);
#440=EDGE_CURVE('',#322,#352,#90,.T.);
#441=EDGE_CURVE('',#350,#352,#285,.T.);
#442=EDGE_CURVE('',#353,#336,#91,.T.);
#443=EDGE_CURVE('',#354,#335,#92,.T.);
#444=EDGE_CURVE('',#353,#354,#93,.T.);
#445=EDGE_CURVE('',#333,#355,#94,.T.);
#446=EDGE_CURVE('',#356,#355,#95,.T.);
#447=EDGE_CURVE('',#334,#356,#96,.T.);
#448=EDGE_CURVE('',#354,#356,#286,.T.);
#449=EDGE_CURVE('',#357,#328,#97,.T.);
#450=EDGE_CURVE('',#358,#327,#98,.T.);
#451=EDGE_CURVE('',#357,#358,#99,.T.);
#452=EDGE_CURVE('',#325,#359,#100,.T.);
#453=EDGE_CURVE('',#360,#359,#101,.T.);
#454=EDGE_CURVE('',#326,#360,#102,.T.);
#455=EDGE_CURVE('',#358,#360,#287,.T.);
#456=EDGE_CURVE('',#361,#361,#288,.T.);
#457=EDGE_CURVE('',#361,#362,#103,.T.);
#458=EDGE_CURVE('',#362,#353,#289,.T.);
#459=EDGE_CURVE('',#355,#345,#290,.T.);
#460=EDGE_CURVE('',#347,#357,#291,.T.);
#461=EDGE_CURVE('',#359,#349,#292,.T.);
#462=EDGE_CURVE('',#351,#341,#293,.T.);
#463=EDGE_CURVE('',#343,#362,#294,.T.);
#464=EDGE_CURVE('',#363,#363,#295,.T.);
#465=EDGE_CURVE('',#363,#364,#104,.T.);
#466=EDGE_CURVE('',#364,#364,#296,.T.);
#467=ORIENTED_EDGE('',*,*,#365,.T.);
#468=ORIENTED_EDGE('',*,*,#366,.T.);
#469=ORIENTED_EDGE('',*,*,#367,.T.);
#470=ORIENTED_EDGE('',*,*,#366,.F.);
#471=ORIENTED_EDGE('',*,*,#368,.T.);
#472=ORIENTED_EDGE('',*,*,#369,.F.);
#473=ORIENTED_EDGE('',*,*,#370,.T.);
#474=ORIENTED_EDGE('',*,*,#368,.F.);
#475=ORIENTED_EDGE('',*,*,#365,.F.);
#476=ORIENTED_EDGE('',*,*,#370,.F.);
#477=ORIENTED_EDGE('',*,*,#371,.F.);
#478=ORIENTED_EDGE('',*,*,#367,.F.);
#479=ORIENTED_EDGE('',*,*,#372,.F.);
#480=ORIENTED_EDGE('',*,*,#373,.T.);
#481=ORIENTED_EDGE('',*,*,#374,.T.);
#482=ORIENTED_EDGE('',*,*,#371,.T.);
#483=ORIENTED_EDGE('',*,*,#369,.T.);
#484=ORIENTED_EDGE('',*,*,#374,.F.);
#485=ORIENTED_EDGE('',*,*,#373,.F.);
#486=ORIENTED_EDGE('',*,*,#375,.T.);
#487=ORIENTED_EDGE('',*,*,#375,.F.);
#488=ORIENTED_EDGE('',*,*,#376,.T.);
#489=ORIENTED_EDGE('',*,*,#372,.T.);
#490=ORIENTED_EDGE('',*,*,#376,.F.);
#491=ORIENTED_EDGE('',*,*,#377,.T.);
#492=ORIENTED_EDGE('',*,*,#378,.T.);
#493=ORIENTED_EDGE('',*,*,#379,.T.);
#494=ORIENTED_EDGE('',*,*,#380,.T.);
#495=ORIENTED_EDGE('',*,*,#378,.F.);
#496=ORIENTED_EDGE('',*,*,#380,.F.);
#497=ORIENTED_EDGE('',*,*,#381,.T.);
#498=ORIENTED_EDGE('',*,*,#382,.F.);
#499=ORIENTED_EDGE('',*,*,#381,.F.);
#500=ORIENTED_EDGE('',*,*,#379,.F.);
#501=ORIENTED_EDGE('',*,*,#377,.F.);
#502=ORIENTED_EDGE('',*,*,#383,.T.);
#503=ORIENTED_EDGE('',*,*,#384,.T.);
#504=ORIENTED_EDGE('',*,*,#385,.T.);
#505=ORIENTED_EDGE('',*,*,#386,.T.);
#506=ORIENTED_EDGE('',*,*,#387,.T.);
#507=ORIENTED_EDGE('',*,*,#388,.T.);
#508=ORIENTED_EDGE('',*,*,#389,.T.);
#509=ORIENTED_EDGE('',*,*,#390,.T.);
#510=ORIENTED_EDGE('',*,*,#388,.F.);
#511=ORIENTED_EDGE('',*,*,#390,.F.);
#512=ORIENTED_EDGE('',*,*,#391,.T.);
#513=ORIENTED_EDGE('',*,*,#392,.T.);
#514=ORIENTED_EDGE('',*,*,#393,.T.);
#515=ORIENTED_EDGE('',*,*,#394,.F.);
#516=ORIENTED_EDGE('',*,*,#395,.F.);
#517=ORIENTED_EDGE('',*,*,#396,.T.);
#518=ORIENTED_EDGE('',*,*,#397,.T.);
#519=ORIENTED_EDGE('',*,*,#398,.F.);
#520=ORIENTED_EDGE('',*,*,#399,.F.);
#521=ORIENTED_EDGE('',*,*,#400,.T.);
#522=ORIENTED_EDGE('',*,*,#401,.T.);
#523=ORIENTED_EDGE('',*,*,#402,.F.);
#524=ORIENTED_EDGE('',*,*,#403,.F.);
#525=ORIENTED_EDGE('',*,*,#404,.T.);
#526=ORIENTED_EDGE('',*,*,#405,.T.);
#527=ORIENTED_EDGE('',*,*,#406,.F.);
#528=ORIENTED_EDGE('',*,*,#407,.F.);
#529=ORIENTED_EDGE('',*,*,#408,.T.);
#530=ORIENTED_EDGE('',*,*,#409,.T.);
#531=ORIENTED_EDGE('',*,*,#410,.F.);
#532=ORIENTED_EDGE('',*,*,#411,.F.);
#533=ORIENTED_EDGE('',*,*,#412,.T.);
#534=ORIENTED_EDGE('',*,*,#391,.F.);
#535=ORIENTED_EDGE('',*,*,#389,.F.);
#536=ORIENTED_EDGE('',*,*,#387,.F.);
#537=ORIENTED_EDGE('',*,*,#382,.T.);
#538=ORIENTED_EDGE('',*,*,#413,.F.);
#539=ORIENTED_EDGE('',*,*,#414,.F.);
#540=ORIENTED_EDGE('',*,*,#415,.F.);
#541=ORIENTED_EDGE('',*,*,#416,.F.);
#542=ORIENTED_EDGE('',*,*,#415,.T.);
#543=ORIENTED_EDGE('',*,*,#417,.T.);
#544=ORIENTED_EDGE('',*,*,#385,.F.);
#545=ORIENTED_EDGE('',*,*,#418,.F.);
#546=ORIENTED_EDGE('',*,*,#414,.T.);
#547=ORIENTED_EDGE('',*,*,#419,.T.);
#548=ORIENTED_EDGE('',*,*,#386,.F.);
#549=ORIENTED_EDGE('',*,*,#417,.F.);
#550=ORIENTED_EDGE('',*,*,#416,.T.);
#551=ORIENTED_EDGE('',*,*,#418,.T.);
#552=ORIENTED_EDGE('',*,*,#384,.F.);
#553=ORIENTED_EDGE('',*,*,#420,.F.);
#554=ORIENTED_EDGE('',*,*,#413,.T.);
#555=ORIENTED_EDGE('',*,*,#420,.T.);
#556=ORIENTED_EDGE('',*,*,#383,.F.);
#557=ORIENTED_EDGE('',*,*,#419,.F.);
#558=ORIENTED_EDGE('',*,*,#421,.T.);
#559=ORIENTED_EDGE('',*,*,#395,.T.);
#560=ORIENTED_EDGE('',*,*,#422,.F.);
#561=ORIENTED_EDGE('',*,*,#423,.F.);
#562=ORIENTED_EDGE('',*,*,#424,.T.);
#563=ORIENTED_EDGE('',*,*,#425,.F.);
#564=ORIENTED_EDGE('',*,*,#426,.F.);
#565=ORIENTED_EDGE('',*,*,#393,.F.);
#566=ORIENTED_EDGE('',*,*,#426,.T.);
#567=ORIENTED_EDGE('',*,*,#427,.F.);
#568=ORIENTED_EDGE('',*,*,#422,.T.);
#569=ORIENTED_EDGE('',*,*,#394,.T.);
#570=ORIENTED_EDGE('',*,*,#428,.T.);
#571=ORIENTED_EDGE('',*,*,#407,.T.);
#572=ORIENTED_EDGE('',*,*,#429,.F.);
#573=ORIENTED_EDGE('',*,*,#430,.F.);
#574=ORIENTED_EDGE('',*,*,#431,.T.);
#575=ORIENTED_EDGE('',*,*,#432,.F.);
#576=ORIENTED_EDGE('',*,*,#433,.F.);
#577=ORIENTED_EDGE('',*,*,#405,.F.);
#578=ORIENTED_EDGE('',*,*,#433,.T.);
#579=ORIENTED_EDGE('',*,*,#434,.F.);
#580=ORIENTED_EDGE('',*,*,#429,.T.);
#581=ORIENTED_EDGE('',*,*,#406,.T.);
#582=ORIENTED_EDGE('',*,*,#435,.T.);
#583=ORIENTED_EDGE('',*,*,#399,.T.);
#584=ORIENTED_EDGE('',*,*,#436,.F.);
#585=ORIENTED_EDGE('',*,*,#437,.F.);
#586=ORIENTED_EDGE('',*,*,#438,.T.);
#587=ORIENTED_EDGE('',*,*,#439,.F.);
#588=ORIENTED_EDGE('',*,*,#440,.F.);
#589=ORIENTED_EDGE('',*,*,#397,.F.);
#590=ORIENTED_EDGE('',*,*,#440,.T.);
#591=ORIENTED_EDGE('',*,*,#441,.F.);
#592=ORIENTED_EDGE('',*,*,#436,.T.);
#593=ORIENTED_EDGE('',*,*,#398,.T.);
#594=ORIENTED_EDGE('',*,*,#442,.T.);
#595=ORIENTED_EDGE('',*,*,#411,.T.);
#596=ORIENTED_EDGE('',*,*,#443,.F.);
#597=ORIENTED_EDGE('',*,*,#444,.F.);
#598=ORIENTED_EDGE('',*,*,#445,.T.);
#599=ORIENTED_EDGE('',*,*,#446,.F.);
#600=ORIENTED_EDGE('',*,*,#447,.F.);
#601=ORIENTED_EDGE('',*,*,#409,.F.);
#602=ORIENTED_EDGE('',*,*,#447,.T.);
#603=ORIENTED_EDGE('',*,*,#448,.F.);
#604=ORIENTED_EDGE('',*,*,#443,.T.);
#605=ORIENTED_EDGE('',*,*,#410,.T.);
#606=ORIENTED_EDGE('',*,*,#449,.T.);
#607=ORIENTED_EDGE('',*,*,#403,.T.);
#608=ORIENTED_EDGE('',*,*,#450,.F.);
#609=ORIENTED_EDGE('',*,*,#451,.F.);
#610=ORIENTED_EDGE('',*,*,#452,.T.);
#611=ORIENTED_EDGE('',*,*,#453,.F.);
#612=ORIENTED_EDGE('',*,*,#454,.F.);
#613=ORIENTED_EDGE('',*,*,#401,.F.);
#614=ORIENTED_EDGE('',*,*,#454,.T.);
#615=ORIENTED_EDGE('',*,*,#455,.F.);
#616=ORIENTED_EDGE('',*,*,#450,.T.);
#617=ORIENTED_EDGE('',*,*,#402,.T.);
#618=ORIENTED_EDGE('',*,*,#456,.F.);
#619=ORIENTED_EDGE('',*,*,#457,.T.);
#620=ORIENTED_EDGE('',*,*,#458,.T.);
#621=ORIENTED_EDGE('',*,*,#444,.T.);
#622=ORIENTED_EDGE('',*,*,#448,.T.);
#623=ORIENTED_EDGE('',*,*,#446,.T.);
#624=ORIENTED_EDGE('',*,*,#459,.T.);
#625=ORIENTED_EDGE('',*,*,#430,.T.);
#626=ORIENTED_EDGE('',*,*,#434,.T.);
#627=ORIENTED_EDGE('',*,*,#432,.T.);
#628=ORIENTED_EDGE('',*,*,#460,.T.);
#629=ORIENTED_EDGE('',*,*,#451,.T.);
#630=ORIENTED_EDGE('',*,*,#455,.T.);
#631=ORIENTED_EDGE('',*,*,#453,.T.);
#632=ORIENTED_EDGE('',*,*,#461,.T.);
#633=ORIENTED_EDGE('',*,*,#437,.T.);
#634=ORIENTED_EDGE('',*,*,#441,.T.);
#635=ORIENTED_EDGE('',*,*,#439,.T.);
#636=ORIENTED_EDGE('',*,*,#462,.T.);
#637=ORIENTED_EDGE('',*,*,#423,.T.);
#638=ORIENTED_EDGE('',*,*,#427,.T.);
#639=ORIENTED_EDGE('',*,*,#425,.T.);
#640=ORIENTED_EDGE('',*,*,#463,.T.);
#641=ORIENTED_EDGE('',*,*,#457,.F.);
#642=ORIENTED_EDGE('',*,*,#464,.F.);
#643=ORIENTED_EDGE('',*,*,#465,.T.);
#644=ORIENTED_EDGE('',*,*,#466,.T.);
#645=ORIENTED_EDGE('',*,*,#465,.F.);
#646=ORIENTED_EDGE('',*,*,#464,.T.);
#647=ORIENTED_EDGE('',*,*,#456,.T.);
#648=ORIENTED_EDGE('',*,*,#466,.F.);
#649=ORIENTED_EDGE('',*,*,#421,.F.);
#650=ORIENTED_EDGE('',*,*,#462,.F.);
#651=ORIENTED_EDGE('',*,*,#438,.F.);
#652=ORIENTED_EDGE('',*,*,#396,.F.);
#653=ORIENTED_EDGE('',*,*,#428,.F.);
#654=ORIENTED_EDGE('',*,*,#459,.F.);
#655=ORIENTED_EDGE('',*,*,#445,.F.);
#656=ORIENTED_EDGE('',*,*,#408,.F.);
#657=ORIENTED_EDGE('',*,*,#435,.F.);
#658=ORIENTED_EDGE('',*,*,#461,.F.);
#659=ORIENTED_EDGE('',*,*,#452,.F.);
#660=ORIENTED_EDGE('',*,*,#400,.F.);
#661=ORIENTED_EDGE('',*,*,#412,.F.);
#662=ORIENTED_EDGE('',*,*,#442,.F.);
#663=ORIENTED_EDGE('',*,*,#458,.F.);
#664=ORIENTED_EDGE('',*,*,#463,.F.);
#665=ORIENTED_EDGE('',*,*,#424,.F.);
#666=ORIENTED_EDGE('',*,*,#392,.F.);
#667=ORIENTED_EDGE('',*,*,#404,.F.);
#668=ORIENTED_EDGE('',*,*,#449,.F.);
#669=ORIENTED_EDGE('',*,*,#460,.F.);
#670=ORIENTED_EDGE('',*,*,#431,.F.);
#671=TOROIDAL_SURFACE('',#726,28.5,5.);
#672=TOROIDAL_SURFACE('',#736,28.5,5.);
#673=TOROIDAL_SURFACE('',#742,4.5,0.3);
#674=TOROIDAL_SURFACE('',#752,7.15,2.);
#675=ADVANCED_FACE('',(#167),#671,.T.);
#676=ADVANCED_FACE('',(#168),#159,.T.);
#677=ADVANCED_FACE('',(#169,#17),#27,.F.);
#678=ADVANCED_FACE('',(#170),#672,.T.);
#679=ADVANCED_FACE('',(#171,#18),#28,.T.);
#680=ADVANCED_FACE('',(#172),#160,.F.);
#681=ADVANCED_FACE('',(#173),#673,.T.);
#682=ADVANCED_FACE('',(#174),#161,.T.);
#683=ADVANCED_FACE('',(#175,#19),#29,.T.);
#684=ADVANCED_FACE('',(#176),#674,.T.);
#685=ADVANCED_FACE('',(#177),#162,.T.);
#686=ADVANCED_FACE('',(#178,#20),#30,.T.);
#687=ADVANCED_FACE('',(#179),#31,.T.);
#688=ADVANCED_FACE('',(#180),#163,.F.);
#689=ADVANCED_FACE('',(#181),#32,.T.);
#690=ADVANCED_FACE('',(#182),#33,.T.);
#691=ADVANCED_FACE('',(#183),#164,.F.);
#692=ADVANCED_FACE('',(#184),#34,.T.);
#693=ADVANCED_FACE('',(#185),#35,.T.);
#694=ADVANCED_FACE('',(#186),#36,.T.);
#695=ADVANCED_FACE('',(#187),#37,.T.);
#696=ADVANCED_FACE('',(#188),#38,.T.);
#697=ADVANCED_FACE('',(#189),#39,.T.);
#698=ADVANCED_FACE('',(#190),#40,.T.);
#699=ADVANCED_FACE('',(#191),#41,.T.);
#700=ADVANCED_FACE('',(#192),#42,.T.);
#701=ADVANCED_FACE('',(#193),#43,.T.);
#702=ADVANCED_FACE('',(#194),#44,.T.);
#703=ADVANCED_FACE('',(#195),#45,.T.);
#704=ADVANCED_FACE('',(#196),#46,.T.);
#705=ADVANCED_FACE('',(#197),#47,.T.);
#706=ADVANCED_FACE('',(#198),#48,.T.);
#707=ADVANCED_FACE('',(#199),#165,.F.);
#708=ADVANCED_FACE('',(#200),#166,.T.);
#709=ADVANCED_FACE('',(#201,#21),#49,.T.);
#710=ADVANCED_FACE('',(#202,#22,#23,#24,#25,#26),#50,.F.);
#711=CLOSED_SHELL('',(#675,#676,#677,#678,#679,#680));
#712=CLOSED_SHELL('',(#681,#682,#683,#684,#685,#686,#687,#688,#689,#690,
#691,#692,#693,#694,#695,#696,#697,#698,#699,#700,#701,#702,#703,#704,#705,
#706,#707,#708,#709,#710));
#713=DERIVED_UNIT_ELEMENT(#715,1.);
#714=DERIVED_UNIT_ELEMENT(#1246,-3.);
#715=(
MASS_UNIT()
NAMED_UNIT(*)
SI_UNIT(.KILO.,.GRAM.)
);
#716=DERIVED_UNIT((#713,#714));
#717=MEASURE_REPRESENTATION_ITEM('density measure',
POSITIVE_RATIO_MEASURE(7850.),#716);
#718=PROPERTY_DEFINITION_REPRESENTATION(#723,#720);
#719=PROPERTY_DEFINITION_REPRESENTATION(#724,#721);
#720=REPRESENTATION('material name',(#722),#1243);
#721=REPRESENTATION('density',(#717),#1243);
#722=DESCRIPTIVE_REPRESENTATION_ITEM('Steel','Steel');
#723=PROPERTY_DEFINITION('material property','material name',#1253);
#724=PROPERTY_DEFINITION('material property','density of part',#1253);
#725=AXIS2_PLACEMENT_3D('',#1034,#810,#811);
#726=AXIS2_PLACEMENT_3D('',#1035,#812,#813);
#727=AXIS2_PLACEMENT_3D('',#1038,#814,#815);
#728=AXIS2_PLACEMENT_3D('',#1040,#816,#817);
#729=AXIS2_PLACEMENT_3D('',#1041,#818,#819);
#730=AXIS2_PLACEMENT_3D('',#1042,#820,#821);
#731=AXIS2_PLACEMENT_3D('',#1043,#822,#823);
#732=AXIS2_PLACEMENT_3D('',#1046,#824,#825);
#733=AXIS2_PLACEMENT_3D('',#1048,#827,#828);
#734=AXIS2_PLACEMENT_3D('',#1049,#829,#830);
#735=AXIS2_PLACEMENT_3D('',#1051,#831,#832);
#736=AXIS2_PLACEMENT_3D('',#1052,#833,#834);
#737=AXIS2_PLACEMENT_3D('',#1054,#835,#836);
#738=AXIS2_PLACEMENT_3D('',#1055,#837,#838);
#739=AXIS2_PLACEMENT_3D('',#1056,#839,#840);
#740=AXIS2_PLACEMENT_3D('',#1058,#841,#842);
#741=AXIS2_PLACEMENT_3D('',#1059,#843,#844);
#742=AXIS2_PLACEMENT_3D('',#1061,#846,#847);
#743=AXIS2_PLACEMENT_3D('',#1063,#848,#849);
#744=AXIS2_PLACEMENT_3D('',#1065,#850,#851);
#745=AXIS2_PLACEMENT_3D('',#1067,#852,#853);
#746=AXIS2_PLACEMENT_3D('',#1068,#854,#855);
#747=AXIS2_PLACEMENT_3D('',#1069,#856,#857);
#748=AXIS2_PLACEMENT_3D('',#1072,#859,#860);
#749=AXIS2_PLACEMENT_3D('',#1073,#861,#862);
#750=AXIS2_PLACEMENT_3D('',#1076,#863,#864);
#751=AXIS2_PLACEMENT_3D('',#1080,#866,#867);
#752=AXIS2_PLACEMENT_3D('',#1082,#869,#870);
#753=AXIS2_PLACEMENT_3D('',#1084,#871,#872);
#754=AXIS2_PLACEMENT_3D('',#1086,#873,#874);
#755=AXIS2_PLACEMENT_3D('',#1088,#875,#876);
#756=AXIS2_PLACEMENT_3D('',#1089,#877,#878);
#757=AXIS2_PLACEMENT_3D('',#1090,#879,#880);
#758=AXIS2_PLACEMENT_3D('',#1094,#882,#883);
#759=AXIS2_PLACEMENT_3D('',#1098,#885,#886);
#760=AXIS2_PLACEMENT_3D('',#1102,#888,#889);
#761=AXIS2_PLACEMENT_3D('',#1106,#891,#892);
#762=AXIS2_PLACEMENT_3D('',#1110,#894,#895);
#763=AXIS2_PLACEMENT_3D('',#1114,#897,#898);
#764=AXIS2_PLACEMENT_3D('',#1118,#900,#901);
#765=AXIS2_PLACEMENT_3D('',#1122,#903,#904);
#766=AXIS2_PLACEMENT_3D('',#1126,#906,#907);
#767=AXIS2_PLACEMENT_3D('',#1130,#909,#910);
#768=AXIS2_PLACEMENT_3D('',#1133,#912,#913);
#769=AXIS2_PLACEMENT_3D('',#1134,#914,#915);
#770=AXIS2_PLACEMENT_3D('',#1135,#916,#917);
#771=AXIS2_PLACEMENT_3D('',#1138,#918,#919);
#772=AXIS2_PLACEMENT_3D('',#1142,#921,#922);
#773=AXIS2_PLACEMENT_3D('',#1144,#924,#925);
#774=AXIS2_PLACEMENT_3D('',#1147,#928,#929);
#775=AXIS2_PLACEMENT_3D('',#1149,#931,#932);
#776=AXIS2_PLACEMENT_3D('',#1151,#934,#935);
#777=AXIS2_PLACEMENT_3D('',#1152,#936,#937);
#778=AXIS2_PLACEMENT_3D('',#1158,#941,#942);
#779=AXIS2_PLACEMENT_3D('',#1164,#946,#947);
#780=AXIS2_PLACEMENT_3D('',#1165,#948,#949);
#781=AXIS2_PLACEMENT_3D('',#1166,#950,#951);
#782=AXIS2_PLACEMENT_3D('',#1172,#955,#956);
#783=AXIS2_PLACEMENT_3D('',#1178,#960,#961);
#784=AXIS2_PLACEMENT_3D('',#1179,#962,#963);
#785=AXIS2_PLACEMENT_3D('',#1180,#964,#965);
#786=AXIS2_PLACEMENT_3D('',#1186,#969,#970);
#787=AXIS2_PLACEMENT_3D('',#1192,#974,#975);
#788=AXIS2_PLACEMENT_3D('',#1193,#976,#977);
#789=AXIS2_PLACEMENT_3D('',#1194,#978,#979);
#790=AXIS2_PLACEMENT_3D('',#1200,#983,#984);
#791=AXIS2_PLACEMENT_3D('',#1206,#988,#989);
#792=AXIS2_PLACEMENT_3D('',#1207,#990,#991);
#793=AXIS2_PLACEMENT_3D('',#1208,#992,#993);
#794=AXIS2_PLACEMENT_3D('',#1214,#997,#998);
#795=AXIS2_PLACEMENT_3D('',#1220,#1002,#1003);
#796=AXIS2_PLACEMENT_3D('',#1221,#1004,#1005);
#797=AXIS2_PLACEMENT_3D('',#1222,#1006,#1007);
#798=AXIS2_PLACEMENT_3D('',#1224,#1008,#1009);
#799=AXIS2_PLACEMENT_3D('',#1227,#1011,#1012);
#800=AXIS2_PLACEMENT_3D('',#1228,#1013,#1014);
#801=AXIS2_PLACEMENT_3D('',#1229,#1015,#1016);
#802=AXIS2_PLACEMENT_3D('',#1230,#1017,#1018);
#803=AXIS2_PLACEMENT_3D('',#1231,#1019,#1020);
#804=AXIS2_PLACEMENT_3D('',#1232,#1021,#1022);
#805=AXIS2_PLACEMENT_3D('',#1233,#1023,#1024);
#806=AXIS2_PLACEMENT_3D('',#1235,#1025,#1026);
#807=AXIS2_PLACEMENT_3D('',#1238,#1028,#1029);
#808=AXIS2_PLACEMENT_3D('',#1239,#1030,#1031);
#809=AXIS2_PLACEMENT_3D('',#1240,#1032,#1033);
#810=DIRECTION('axis',(0.,0.,1.));
#811=DIRECTION('refdir',(1.,0.,0.));
#812=DIRECTION('center_axis',(0.,1.,0.));
#813=DIRECTION('ref_axis',(0.,0.,1.));
#814=DIRECTION('center_axis',(0.,-1.,0.));
#815=DIRECTION('ref_axis',(1.,0.,0.));
#816=DIRECTION('center_axis',(-1.,0.,1.22464679914735E-16));
#817=DIRECTION('ref_axis',(-1.22464679914735E-16,0.,-1.));
#818=DIRECTION('center_axis',(0.,1.,0.));
#819=DIRECTION('ref_axis',(1.,0.,0.));
#820=DIRECTION('center_axis',(0.,-1.,0.));
#821=DIRECTION('ref_axis',(1.,0.,0.));
#822=DIRECTION('center_axis',(0.,1.,0.));
#823=DIRECTION('ref_axis',(1.,0.,0.));
#824=DIRECTION('center_axis',(0.,1.,0.));
#825=DIRECTION('ref_axis',(1.,0.,0.));
#826=DIRECTION('',(0.,-1.,0.));
#827=DIRECTION('center_axis',(0.,1.,0.));
#828=DIRECTION('ref_axis',(1.,0.,0.));
#829=DIRECTION('center_axis',(0.,1.,0.));
#830=DIRECTION('ref_axis',(1.,0.,0.));
#831=DIRECTION('center_axis',(0.,-1.,0.));
#832=DIRECTION('ref_axis',(1.,0.,0.));
#833=DIRECTION('center_axis',(0.,1.,0.));
#834=DIRECTION('ref_axis',(0.,0.,1.));
#835=DIRECTION('center_axis',(0.,-1.,0.));
#836=DIRECTION('ref_axis',(1.,0.,0.));
#837=DIRECTION('center_axis',(-1.,0.,1.22464679914735E-16));
#838=DIRECTION('ref_axis',(-1.22464679914735E-16,0.,-1.));
#839=DIRECTION('center_axis',(0.,1.,0.));
#840=DIRECTION('ref_axis',(1.,0.,0.));
#841=DIRECTION('center_axis',(0.,-1.,0.));
#842=DIRECTION('ref_axis',(1.,0.,0.));
#843=DIRECTION('center_axis',(0.,1.,0.));
#844=DIRECTION('ref_axis',(1.,0.,0.));
#845=DIRECTION('',(0.,-1.,0.));
#846=DIRECTION('center_axis',(0.,1.,0.));
#847=DIRECTION('ref_axis',(0.,0.,1.));
#848=DIRECTION('center_axis',(0.,-1.,0.));
#849=DIRECTION('ref_axis',(1.,0.,0.));
#850=DIRECTION('center_axis',(-1.,0.,1.22464679914735E-16));
#851=DIRECTION('ref_axis',(-1.22464679914735E-16,0.,-1.));
#852=DIRECTION('center_axis',(0.,1.,0.));
#853=DIRECTION('ref_axis',(1.,0.,0.));
#854=DIRECTION('center_axis',(0.,1.,0.));
#855=DIRECTION('ref_axis',(1.,0.,0.));
#856=DIRECTION('center_axis',(0.,1.,0.));
#857=DIRECTION('ref_axis',(1.,0.,0.));
#858=DIRECTION('',(0.,-1.,0.));
#859=DIRECTION('center_axis',(0.,-1.,0.));
#860=DIRECTION('ref_axis',(1.,0.,0.));
#861=DIRECTION('center_axis',(0.,1.,0.));
#862=DIRECTION('ref_axis',(1.,0.,0.));
#863=DIRECTION('center_axis',(0.,-1.,0.));
#864=DIRECTION('ref_axis',(0.685185185185185,0.,-0.728368905159153));
#865=DIRECTION('',(0.,0.,1.));
#866=DIRECTION('center_axis',(0.,-1.,0.));
#867=DIRECTION('ref_axis',(-0.685185185185185,0.,0.728368905159154));
#868=DIRECTION('',(0.,0.,-1.));
#869=DIRECTION('center_axis',(0.,1.,0.));
#870=DIRECTION('ref_axis',(0.,0.,1.));
#871=DIRECTION('center_axis',(0.,-1.,0.));
#872=DIRECTION('ref_axis',(1.,0.,0.));
#873=DIRECTION('center_axis',(-1.,0.,1.22464679914735E-16));
#874=DIRECTION('ref_axis',(-1.22464679914735E-16,0.,-1.));
#875=DIRECTION('center_axis',(0.,1.,0.));
#876=DIRECTION('ref_axis',(1.,0.,0.));
#877=DIRECTION('center_axis',(0.,1.,0.));
#878=DIRECTION('ref_axis',(1.,0.,0.));
#879=DIRECTION('center_axis',(0.,1.,0.));
#880=DIRECTION('ref_axis',(1.,0.,0.));
#881=DIRECTION('',(0.,-1.,0.));
#882=DIRECTION('center_axis',(0.,1.,0.));
#883=DIRECTION('ref_axis',(1.,0.,0.));
#884=DIRECTION('',(0.,1.,0.));
#885=DIRECTION('center_axis',(0.,-1.,0.));
#886=DIRECTION('ref_axis',(1.,0.,0.));
#887=DIRECTION('',(0.,1.,0.));
#888=DIRECTION('center_axis',(0.,1.,0.));
#889=DIRECTION('ref_axis',(1.,0.,0.));
#890=DIRECTION('',(0.,1.,0.));
#891=DIRECTION('center_axis',(0.,-1.,0.));
#892=DIRECTION('ref_axis',(1.,0.,0.));
#893=DIRECTION('',(0.,1.,0.));
#894=DIRECTION('center_axis',(0.,1.,0.));
#895=DIRECTION('ref_axis',(1.,0.,0.));
#896=DIRECTION('',(0.,1.,0.));
#897=DIRECTION('center_axis',(0.,-1.,0.));
#898=DIRECTION('ref_axis',(1.,0.,0.));
#899=DIRECTION('',(0.,1.,0.));
#900=DIRECTION('center_axis',(0.,1.,0.));
#901=DIRECTION('ref_axis',(1.,0.,0.));
#902=DIRECTION('',(0.,1.,0.));
#903=DIRECTION('center_axis',(0.,-1.,0.));
#904=DIRECTION('ref_axis',(1.,0.,0.));
#905=DIRECTION('',(0.,1.,0.));
#906=DIRECTION('center_axis',(0.,1.,0.));
#907=DIRECTION('ref_axis',(1.,0.,0.));
#908=DIRECTION('',(0.,1.,0.));
#909=DIRECTION('center_axis',(0.,-1.,0.));
#910=DIRECTION('ref_axis',(1.,0.,0.));
#911=DIRECTION('',(0.,1.,0.));
#912=DIRECTION('center_axis',(0.,1.,0.));
#913=DIRECTION('ref_axis',(1.,0.,0.));
#914=DIRECTION('center_axis',(0.,1.,0.));
#915=DIRECTION('ref_axis',(1.,0.,0.));
#916=DIRECTION('center_axis',(0.,1.,0.));
#917=DIRECTION('ref_axis',(1.,0.,0.));
#918=DIRECTION('center_axis',(0.,-1.,0.));
#919=DIRECTION('ref_axis',(0.685185185185185,0.,-0.728368905159153));
#920=DIRECTION('',(0.,0.,-1.));
#921=DIRECTION('center_axis',(0.,-1.,0.));
#922=DIRECTION('ref_axis',(-0.685185185185185,0.,0.728368905159154));
#923=DIRECTION('',(0.,0.,1.));
#924=DIRECTION('center_axis',(0.,1.,0.));
#925=DIRECTION('ref_axis',(-0.685185185185185,0.,0.728368905159154));
#926=DIRECTION('',(0.,1.,0.));
#927=DIRECTION('',(0.,1.,0.));
#928=DIRECTION('center_axis',(1.,0.,0.));
#929=DIRECTION('ref_axis',(0.,0.,-1.));
#930=DIRECTION('',(0.,1.,0.));
#931=DIRECTION('center_axis',(-1.,0.,0.));
#932=DIRECTION('ref_axis',(0.,0.,1.));
#933=DIRECTION('',(0.,1.,0.));
#934=DIRECTION('center_axis',(0.,1.,0.));
#935=DIRECTION('ref_axis',(0.685185185185185,0.,-0.728368905159153));
#936=DIRECTION('center_axis',(0.809417789375714,0.,0.587233209416951));
#937=DIRECTION('ref_axis',(0.587233209416951,0.,-0.809417789375714));
#938=DIRECTION('',(0.587233209416951,0.,-0.809417789375714));
#939=DIRECTION('',(0.587233209416951,0.,-0.809417789375714));
#940=DIRECTION('',(0.,1.,0.));
#941=DIRECTION('center_axis',(-0.809417789375714,0.,-0.587233209416951));
#942=DIRECTION('ref_axis',(-0.587233209416951,0.,0.809417789375714));
#943=DIRECTION('',(-0.587233209416951,0.,0.809417789375714));
#944=DIRECTION('',(0.,-1.,0.));
#945=DIRECTION('',(-0.587233209416951,0.,0.809417789375714));
#946=DIRECTION('center_axis',(0.,1.,0.));
#947=DIRECTION('ref_axis',(1.,0.,0.));
#948=DIRECTION('center_axis',(0.,-1.,0.));
#949=DIRECTION('ref_axis',(1.,0.,0.));
#950=DIRECTION('center_axis',(-0.999999767306015,0.,0.000682193458564379));
#951=DIRECTION('ref_axis',(0.000682193458564379,0.,0.999999767306015));
#952=DIRECTION('',(0.000682193458564379,0.,0.999999767306015));
#953=DIRECTION('',(0.000682193458564379,0.,0.999999767306015));
#954=DIRECTION('',(0.,1.,0.));
#955=DIRECTION('center_axis',(0.999999767306015,0.,-0.000682193458564544));
#956=DIRECTION('ref_axis',(-0.000682193458564544,0.,-0.999999767306015));
#957=DIRECTION('',(-0.000682193458564544,0.,-0.999999767306015));
#958=DIRECTION('',(0.,-1.,0.));
#959=DIRECTION('',(-0.000682193458564544,0.,-0.999999767306015));
#960=DIRECTION('center_axis',(0.,1.,0.));
#961=DIRECTION('ref_axis',(1.,0.,0.));
#962=DIRECTION('center_axis',(0.,-1.,0.));
#963=DIRECTION('ref_axis',(1.,0.,0.));
#964=DIRECTION('center_axis',(0.808615822867405,0.,-0.588337021619811));
#965=DIRECTION('ref_axis',(-0.58833702161981,0.,-0.808615822867405));
#966=DIRECTION('',(-0.58833702161981,0.,-0.808615822867405));
#967=DIRECTION('',(-0.58833702161981,0.,-0.808615822867405));
#968=DIRECTION('',(0.,1.,0.));
#969=DIRECTION('center_axis',(-0.808615822867405,0.,0.588337021619811));
#970=DIRECTION('ref_axis',(0.588337021619811,0.,0.808615822867405));
#971=DIRECTION('',(0.588337021619811,0.,0.808615822867405));
#972=DIRECTION('',(0.,-1.,0.));
#973=DIRECTION('',(0.588337021619811,0.,0.808615822867405));
#974=DIRECTION('center_axis',(0.,1.,0.));
#975=DIRECTION('ref_axis',(1.,0.,0.));
#976=DIRECTION('center_axis',(0.,-1.,0.));
#977=DIRECTION('ref_axis',(1.,0.,0.));
#978=DIRECTION('center_axis',(-0.30836811793441,0.,0.951267104362171));
#979=DIRECTION('ref_axis',(0.951267104362171,0.,0.30836811793441));
#980=DIRECTION('',(0.951267104362171,0.,0.30836811793441));
#981=DIRECTION('',(0.951267104362171,0.,0.30836811793441));
#982=DIRECTION('',(0.,1.,0.));
#983=DIRECTION('center_axis',(0.30836811793441,0.,-0.951267104362171));
#984=DIRECTION('ref_axis',(-0.951267104362171,0.,-0.30836811793441));
#985=DIRECTION('',(-0.951267104362171,0.,-0.30836811793441));
#986=DIRECTION('',(0.,-1.,0.));
#987=DIRECTION('',(-0.951267104362171,0.,-0.30836811793441));
#988=DIRECTION('center_axis',(0.,1.,0.));
#989=DIRECTION('ref_axis',(1.,0.,0.));
#990=DIRECTION('center_axis',(0.,-1.,0.));
#991=DIRECTION('ref_axis',(1.,0.,0.));
#992=DIRECTION('center_axis',(-0.309665727002693,0.,-0.950845485617876));
#993=DIRECTION('ref_axis',(-0.950845485617876,0.,0.309665727002693));
#994=DIRECTION('',(-0.950845485617876,0.,0.309665727002693));
#995=DIRECTION('',(-0.950845485617876,0.,0.309665727002693));
#996=DIRECTION('',(0.,1.,0.));
#997=DIRECTION('center_axis',(0.309665727002693,0.,0.950845485617876));
#998=DIRECTION('ref_axis',(0.950845485617876,0.,-0.309665727002693));
#999=DIRECTION('',(0.950845485617876,0.,-0.309665727002693));
#1000=DIRECTION('',(0.,-1.,0.));
#1001=DIRECTION('',(0.950845485617876,0.,-0.309665727002693));
#1002=DIRECTION('center_axis',(0.,1.,0.));
#1003=DIRECTION('ref_axis',(1.,0.,0.));
#1004=DIRECTION('center_axis',(0.,-1.,0.));
#1005=DIRECTION('ref_axis',(1.,0.,0.));
#1006=DIRECTION('center_axis',(0.,1.,0.));
#1007=DIRECTION('ref_axis',(1.,0.,0.));
#1008=DIRECTION('center_axis',(0.,-1.,0.));
#1009=DIRECTION('ref_axis',(1.,0.,0.));
#1010=DIRECTION('',(0.,-1.,0.));
#1011=DIRECTION('center_axis',(0.,-1.,0.));
#1012=DIRECTION('ref_axis',(1.,0.,0.));
#1013=DIRECTION('center_axis',(0.,-1.,0.));
#1014=DIRECTION('ref_axis',(1.,0.,0.));
#1015=DIRECTION('center_axis',(0.,-1.,0.));
#1016=DIRECTION('ref_axis',(1.,0.,0.));
#1017=DIRECTION('center_axis',(0.,-1.,0.));
#1018=DIRECTION('ref_axis',(1.,0.,0.));
#1019=DIRECTION('center_axis',(0.,-1.,0.));
#1020=DIRECTION('ref_axis',(1.,0.,0.));
#1021=DIRECTION('center_axis',(0.,-1.,0.));
#1022=DIRECTION('ref_axis',(1.,0.,0.));
#1023=DIRECTION('center_axis',(0.,1.,0.));
#1024=DIRECTION('ref_axis',(1.,0.,0.));
#1025=DIRECTION('center_axis',(0.,1.,0.));
#1026=DIRECTION('ref_axis',(1.,0.,0.));
#1027=DIRECTION('',(0.,-1.,0.));
#1028=DIRECTION('center_axis',(0.,1.,0.));
#1029=DIRECTION('ref_axis',(1.,0.,0.));
#1030=DIRECTION('center_axis',(0.,1.,0.));
#1031=DIRECTION('ref_axis',(1.,0.,0.));
#1032=DIRECTION('center_axis',(0.,1.,0.));
#1033=DIRECTION('ref_axis',(1.,0.,0.));
#1034=CARTESIAN_POINT('',(0.,0.,0.));
#1035=CARTESIAN_POINT('Origin',(0.,5.,0.));
#1036=CARTESIAN_POINT('',(-33.5,5.,-4.10256677714363E-15));
#1037=CARTESIAN_POINT('',(-4.10256677714363E-15,5.,-33.5));
#1038=CARTESIAN_POINT('Origin',(0.,5.,0.));
#1039=CARTESIAN_POINT('',(-3.49024337756996E-15,0.,-28.5));
#1040=CARTESIAN_POINT('Origin',(-3.49024337756996E-15,5.,-28.5));
#1041=CARTESIAN_POINT('Origin',(0.,0.,0.));
#1042=CARTESIAN_POINT('Origin',(0.,5.,0.));
#1043=CARTESIAN_POINT('Origin',(0.,0.,0.));
#1044=CARTESIAN_POINT('',(-33.5,19.5,4.10256677714363E-15));
#1045=CARTESIAN_POINT('',(-4.10256677714363E-15,19.5,-33.5));
#1046=CARTESIAN_POINT('Origin',(0.,19.5,0.));
#1047=CARTESIAN_POINT('',(-33.5,0.,4.10256677714363E-15));
#1048=CARTESIAN_POINT('Origin',(0.,19.5,0.));
#1049=CARTESIAN_POINT('Origin',(0.,0.,0.));
#1050=CARTESIAN_POINT('',(-25.8,0.,3.15958874180017E-15));
#1051=CARTESIAN_POINT('Origin',(0.,0.,0.));
#1052=CARTESIAN_POINT('Origin',(0.,19.5,0.));
#1053=CARTESIAN_POINT('',(-3.49024337756996E-15,24.5,-28.5));
#1054=CARTESIAN_POINT('Origin',(0.,24.5,0.));
#1055=CARTESIAN_POINT('Origin',(-3.49024337756996E-15,19.5,-28.5));
#1056=CARTESIAN_POINT('Origin',(0.,24.5,0.));
#1057=CARTESIAN_POINT('',(-25.8,24.5,3.15958874180017E-15));
#1058=CARTESIAN_POINT('Origin',(0.,24.5,0.));
#1059=CARTESIAN_POINT('Origin',(0.,0.,0.));
#1060=CARTESIAN_POINT('',(-25.8,0.,3.15958874180017E-15));
#1061=CARTESIAN_POINT('Origin',(0.,20.7,0.));
#1062=CARTESIAN_POINT('',(-5.51091059616309E-16,21.,-4.5));
#1063=CARTESIAN_POINT('Origin',(0.,21.,0.));
#1064=CARTESIAN_POINT('',(-5.87830463590729E-16,20.7,-4.8));
#1065=CARTESIAN_POINT('Origin',(-5.51091059616309E-16,20.7,-4.5));
#1066=CARTESIAN_POINT('',(-4.8,20.7,5.87830463590729E-16));
#1067=CARTESIAN_POINT('Origin',(0.,20.7,0.));
#1068=CARTESIAN_POINT('Origin',(0.,20.7,0.));
#1069=CARTESIAN_POINT('Origin',(0.,0.,0.));
#1070=CARTESIAN_POINT('',(-4.8,7.,5.87830463590729E-16));
#1071=CARTESIAN_POINT('',(-4.8,0.,5.87830463590729E-16));
#1072=CARTESIAN_POINT('Origin',(0.,7.,0.));
#1073=CARTESIAN_POINT('Origin',(0.,21.,0.));
#1074=CARTESIAN_POINT('',(-1.85,21.,-1.96659604392972));
#1075=CARTESIAN_POINT('',(1.85,21.,-1.96659604392971));
#1076=CARTESIAN_POINT('Origin',(0.,21.,0.));
#1077=CARTESIAN_POINT('',(1.85,21.,1.96659604392971));
#1078=CARTESIAN_POINT('',(1.85,21.,-1.96659604392971));
#1079=CARTESIAN_POINT('',(-1.85,21.,1.96659604392971));
#1080=CARTESIAN_POINT('Origin',(0.,21.,0.));
#1081=CARTESIAN_POINT('',(-1.85,21.,1.96659604392971));
#1082=CARTESIAN_POINT('Origin',(0.,5.,0.));
#1083=CARTESIAN_POINT('',(-8.75622461390358E-16,7.,-7.15));
#1084=CARTESIAN_POINT('Origin',(0.,7.,0.));
#1085=CARTESIAN_POINT('',(-1.12055182121983E-15,5.,-9.15));
#1086=CARTESIAN_POINT('Origin',(-8.75622461390358E-16,5.,-7.15));
#1087=CARTESIAN_POINT('',(-9.15,5.,1.12055182121983E-15));
#1088=CARTESIAN_POINT('Origin',(0.,5.,0.));
#1089=CARTESIAN_POINT('Origin',(0.,5.,0.));
#1090=CARTESIAN_POINT('Origin',(0.,0.,0.));
#1091=CARTESIAN_POINT('',(-9.15,0.,1.12055182121983E-15));
#1092=CARTESIAN_POINT('',(-9.15,0.,1.12055182121983E-15));
#1093=CARTESIAN_POINT('',(-6.76350054357456,0.,6.16259364205255));
#1094=CARTESIAN_POINT('Origin',(0.,0.,0.));
#1095=CARTESIAN_POINT('',(-6.76350054357456,3.,6.16259364205255));
#1096=CARTESIAN_POINT('',(-6.76350054357456,0.,6.16259364205255));
#1097=CARTESIAN_POINT('',(-3.25450851463283,3.,8.55164746280988));
#1098=CARTESIAN_POINT('Origin',(0.,3.,0.));
#1099=CARTESIAN_POINT('',(-3.25450851463283,0.,8.55164746280988));
#1100=CARTESIAN_POINT('',(-3.25450851463283,0.,8.55164746280988));
#1101=CARTESIAN_POINT('',(3.77093823112443,0.,8.33681742975365));
#1102=CARTESIAN_POINT('Origin',(0.,0.,0.));
#1103=CARTESIAN_POINT('',(3.77093823112443,3.,8.33681742975365));
#1104=CARTESIAN_POINT('',(3.77093823112443,0.,8.33681742975365));
#1105=CARTESIAN_POINT('',(7.12740160520474,3.,5.73782592609127));
#1106=CARTESIAN_POINT('Origin',(0.,3.,0.));
#1107=CARTESIAN_POINT('',(7.12740160520474,0.,5.73782592609127));
#1108=CARTESIAN_POINT('',(7.12740160520474,0.,5.73782592609127));
#1109=CARTESIAN_POINT('',(9.09406853988587,0.,-1.01015711246226));
#1110=CARTESIAN_POINT('Origin',(0.,0.,0.));
#1111=CARTESIAN_POINT('',(9.09406853988587,3.,-1.01015711246226));
#1112=CARTESIAN_POINT('',(9.09406853988587,0.,-1.01015711246226));
#1113=CARTESIAN_POINT('',(7.65948495811992,3.,-5.00547601895513));
#1114=CARTESIAN_POINT('Origin',(0.,3.,0.));
#1115=CARTESIAN_POINT('',(7.65948495811992,0.,-5.00547601895513));
#1116=CARTESIAN_POINT('',(7.65948495811992,0.,-5.00547601895513));
#1117=CARTESIAN_POINT('',(1.84950522254617,0.,-8.96112885923277));
#1118=CARTESIAN_POINT('Origin',(0.,0.,0.));
#1119=CARTESIAN_POINT('',(1.84950522254617,3.,-8.96112885923277));
#1120=CARTESIAN_POINT('',(1.84950522254617,0.,-8.96112885923277));
#1121=CARTESIAN_POINT('',(-2.39357956476807,3.,-8.83138023567805));
#1122=CARTESIAN_POINT('Origin',(0.,3.,0.));
#1123=CARTESIAN_POINT('',(-2.39357956476807,0.,-8.83138023567805));
#1124=CARTESIAN_POINT('',(-2.39357956476807,0.,-8.83138023567805));
#1125=CARTESIAN_POINT('',(-7.9510114499819,0.,-4.52812510011116));
#1126=CARTESIAN_POINT('Origin',(0.,0.,0.));
#1127=CARTESIAN_POINT('',(-7.9510114499819,3.,-4.52812510011116));
#1128=CARTESIAN_POINT('',(-7.9510114499819,0.,-4.52812510011116));
#1129=CARTESIAN_POINT('',(-9.13879848392376,3.,-0.452617134267957));
#1130=CARTESIAN_POINT('Origin',(0.,3.,0.));
#1131=CARTESIAN_POINT('',(-9.13879848392376,0.,-0.452617134267957));
#1132=CARTESIAN_POINT('',(-9.13879848392376,0.,-0.452617134267957));
#1133=CARTESIAN_POINT('Origin',(0.,0.,0.));
#1134=CARTESIAN_POINT('Origin',(0.,7.,0.));
#1135=CARTESIAN_POINT('Origin',(2.77555756156289E-16,13.,-5.55111512312578E-16));
#1136=CARTESIAN_POINT('',(-1.85,13.,-1.96659604392972));
#1137=CARTESIAN_POINT('',(1.85,13.,-1.96659604392971));
#1138=CARTESIAN_POINT('Origin',(0.,13.,0.));
#1139=CARTESIAN_POINT('',(-1.85,13.,1.96659604392971));
#1140=CARTESIAN_POINT('',(-1.85,13.,0.983298021964857));
#1141=CARTESIAN_POINT('',(1.85,13.,1.96659604392971));
#1142=CARTESIAN_POINT('Origin',(0.,13.,0.));
#1143=CARTESIAN_POINT('',(1.85,13.,-0.983298021964858));
#1144=CARTESIAN_POINT('Origin',(0.,0.,0.));
#1145=CARTESIAN_POINT('',(-1.85,0.,1.96659604392971));
#1146=CARTESIAN_POINT('',(1.85,0.,1.96659604392971));
#1147=CARTESIAN_POINT('Origin',(-1.85,0.,1.96659604392971));
#1148=CARTESIAN_POINT('',(-1.85,0.,-1.96659604392972));
#1149=CARTESIAN_POINT('Origin',(1.85,0.,-1.96659604392971));
#1150=CARTESIAN_POINT('',(1.85,0.,-1.96659604392971));
#1151=CARTESIAN_POINT('Origin',(0.,0.,0.));
#1152=CARTESIAN_POINT('Origin',(-13.1530748783754,0.,22.1954189247207));
#1153=CARTESIAN_POINT('',(-13.1530748783754,0.,22.1954189247207));
#1154=CARTESIAN_POINT('',(-13.1530748783754,0.,22.1954189247207));
#1155=CARTESIAN_POINT('',(-13.1530748783754,3.,22.1954189247207));
#1156=CARTESIAN_POINT('',(-13.1530748783754,3.,22.1954189247207));
#1157=CARTESIAN_POINT('',(-13.1530748783754,0.,22.1954189247207));
#1158=CARTESIAN_POINT('Origin',(-6.76350054357456,0.,6.16259364205255));
#1159=CARTESIAN_POINT('',(-16.6133495824543,0.,19.739215173131));
#1160=CARTESIAN_POINT('',(-6.76350054357456,0.,6.16259364205255));
#1161=CARTESIAN_POINT('',(-16.6133495824543,3.,19.739215173131));
#1162=CARTESIAN_POINT('',(-16.6133495824543,0.,19.7392151731311));
#1163=CARTESIAN_POINT('',(-6.76350054357456,3.,6.16259364205255));
#1164=CARTESIAN_POINT('Origin',(-9.93392904854354,3.,14.1790062833866));
#1165=CARTESIAN_POINT('Origin',(0.,3.,0.));
#1166=CARTESIAN_POINT('Origin',(-2.40507880751222,0.,-25.6876545431781));
#1167=CARTESIAN_POINT('',(-2.40507880751222,0.,-25.6876545431781));
#1168=CARTESIAN_POINT('',(-2.40507880751222,0.,-25.6876545431781));
#1169=CARTESIAN_POINT('',(-2.40507880751222,3.,-25.6876545431781));
#1170=CARTESIAN_POINT('',(-2.40507880751222,3.,-25.6876545431781));
#1171=CARTESIAN_POINT('',(-2.40507880751222,0.,-25.687654543178));
#1172=CARTESIAN_POINT('Origin',(1.84950522254617,0.,-8.96112885923277));
#1173=CARTESIAN_POINT('',(1.83806257510318,0.,-25.7344424064328));
#1174=CARTESIAN_POINT('',(1.84950522254617,0.,-8.96112885923277));
#1175=CARTESIAN_POINT('',(1.83806257510318,3.,-25.7344424064328));
#1176=CARTESIAN_POINT('',(1.83806257510318,0.,-25.7344424064328));
#1177=CARTESIAN_POINT('',(1.84950522254617,3.,-8.96112885923277));
#1178=CARTESIAN_POINT('Origin',(-0.277786792483026,3.,-17.315690117839));
#1179=CARTESIAN_POINT('Origin',(0.,3.,0.));
#1180=CARTESIAN_POINT('Origin',(17.0445741345522,0.,19.368079217407));
#1181=CARTESIAN_POINT('',(17.0445741345522,0.,19.368079217407));
#1182=CARTESIAN_POINT('',(17.0445741345522,0.,19.368079217407));
#1183=CARTESIAN_POINT('',(17.0445741345522,3.,19.368079217407));
#1184=CARTESIAN_POINT('',(17.0445741345522,3.,19.368079217407));
#1185=CARTESIAN_POINT('',(17.0445741345522,0.,19.368079217407));
#1186=CARTESIAN_POINT('Origin',(3.77093823112443,0.,8.33681742975365));
#1187=CARTESIAN_POINT('',(13.6393018624882,0.,21.8999873220038));
#1188=CARTESIAN_POINT('',(3.77093823112443,0.,8.33681742975365));
#1189=CARTESIAN_POINT('',(13.6393018624882,3.,21.8999873220038));
#1190=CARTESIAN_POINT('',(13.6393018624881,0.,21.8999873220038));
#1191=CARTESIAN_POINT('',(3.77093823112443,3.,8.33681742975365));
#1192=CARTESIAN_POINT('Origin',(10.4077561828383,3.,13.8189066240475));
#1193=CARTESIAN_POINT('Origin',(0.,3.,0.));
#1194=CARTESIAN_POINT('Origin',(-25.1736214659606,0.,-5.65055592738697));
#1195=CARTESIAN_POINT('',(-25.1736214659606,0.,-5.65055592738697));
#1196=CARTESIAN_POINT('',(-25.1736214659606,0.,-5.65055592738697));
#1197=CARTESIAN_POINT('',(-25.1736214659606,3.,-5.65055592738697));
#1198=CARTESIAN_POINT('',(-25.1736214659606,3.,-5.65055592738697));
#1199=CARTESIAN_POINT('',(-25.1736214659606,0.,-5.65055592738697));
#1200=CARTESIAN_POINT('Origin',(-7.9510114499819,0.,-4.52812510011116));
#1201=CARTESIAN_POINT('',(-23.9069165714288,0.,-9.70048143376117));
#1202=CARTESIAN_POINT('',(-7.9510114499819,0.,-4.52812510011116));
#1203=CARTESIAN_POINT('',(-23.9069165714288,3.,-9.70048143376117));
#1204=CARTESIAN_POINT('',(-23.9069165714288,0.,-9.70048143376117));
#1205=CARTESIAN_POINT('',(-7.9510114499819,3.,-4.52812510011116));
#1206=CARTESIAN_POINT('Origin',(-16.5623164579712,3.,-5.07654928401457));
#1207=CARTESIAN_POINT('Origin',(0.,3.,0.));
#1208=CARTESIAN_POINT('Origin',(23.687201017296,0.,-10.2252876715627));
#1209=CARTESIAN_POINT('',(23.687201017296,0.,-10.2252876715627));
#1210=CARTESIAN_POINT('',(23.687201017296,0.,-10.2252876715627));
#1211=CARTESIAN_POINT('',(23.687201017296,3.,-10.2252876715627));
#1212=CARTESIAN_POINT('',(23.687201017296,3.,-10.2252876715627));
#1213=CARTESIAN_POINT('',(23.687201017296,0.,-10.2252876715627));
#1214=CARTESIAN_POINT('Origin',(9.09406853988587,0.,-1.01015711246226));
#1215=CARTESIAN_POINT('',(25.0429017162917,0.,-6.20427865494091));
#1216=CARTESIAN_POINT('',(9.09406853988587,0.,-1.01015711246226));
#1217=CARTESIAN_POINT('',(25.0429017162917,3.,-6.20427865494091));
#1218=CARTESIAN_POINT('',(25.0429017162917,0.,-6.2042786549409));
#1219=CARTESIAN_POINT('',(9.09406853988587,3.,-1.01015711246226));
#1220=CARTESIAN_POINT('Origin',(16.3511933372058,3.,-5.61772239201248));
#1221=CARTESIAN_POINT('Origin',(0.,3.,0.));
#1222=CARTESIAN_POINT('Origin',(0.,0.,0.));
#1223=CARTESIAN_POINT('',(-25.8,24.5,3.15958874180017E-15));
#1224=CARTESIAN_POINT('Origin',(0.,24.5,0.));
#1225=CARTESIAN_POINT('',(-25.8,0.,3.15958874180017E-15));
#1226=CARTESIAN_POINT('',(-25.8,0.,3.15958874180017E-15));
#1227=CARTESIAN_POINT('Origin',(0.,0.,0.));
#1228=CARTESIAN_POINT('Origin',(0.,0.,0.));
#1229=CARTESIAN_POINT('Origin',(0.,0.,0.));
#1230=CARTESIAN_POINT('Origin',(0.,0.,0.));
#1231=CARTESIAN_POINT('Origin',(0.,0.,0.));
#1232=CARTESIAN_POINT('Origin',(0.,0.,0.));
#1233=CARTESIAN_POINT('Origin',(0.,0.,0.));
#1234=CARTESIAN_POINT('',(-27.5,24.5,3.36777869765522E-15));
#1235=CARTESIAN_POINT('Origin',(0.,24.5,0.));
#1236=CARTESIAN_POINT('',(-27.5,0.,3.36777869765522E-15));
#1237=CARTESIAN_POINT('',(-27.5,0.,3.36777869765522E-15));
#1238=CARTESIAN_POINT('Origin',(0.,0.,0.));
#1239=CARTESIAN_POINT('Origin',(0.,24.5,0.));
#1240=CARTESIAN_POINT('Origin',(0.,0.,0.));
#1241=UNCERTAINTY_MEASURE_WITH_UNIT(LENGTH_MEASURE(0.01),#1245,
'DISTANCE_ACCURACY_VALUE',
'Maximum model space distance between geometric entities at asserted c
onnectivities');
#1242=UNCERTAINTY_MEASURE_WITH_UNIT(LENGTH_MEASURE(0.01),#1245,
'DISTANCE_ACCURACY_VALUE',
'Maximum model space distance between geometric entities at asserted c
onnectivities');
#1243=(
GEOMETRIC_REPRESENTATION_CONTEXT(3)
GLOBAL_UNCERTAINTY_ASSIGNED_CONTEXT((#1241))
GLOBAL_UNIT_ASSIGNED_CONTEXT((#1245,#1247,#1248))
REPRESENTATION_CONTEXT('','3D')
);
#1244=(
GEOMETRIC_REPRESENTATION_CONTEXT(3)
GLOBAL_UNCERTAINTY_ASSIGNED_CONTEXT((#1242))
GLOBAL_UNIT_ASSIGNED_CONTEXT((#1245,#1247,#1248))
REPRESENTATION_CONTEXT('','3D')
);
#1245=(
LENGTH_UNIT()
NAMED_UNIT(*)
SI_UNIT(.MILLI.,.METRE.)
);
#1246=(
LENGTH_UNIT()
NAMED_UNIT(*)
SI_UNIT($,.METRE.)
);
#1247=(
NAMED_UNIT(*)
PLANE_ANGLE_UNIT()
SI_UNIT($,.RADIAN.)
);
#1248=(
NAMED_UNIT(*)
SI_UNIT($,.STERADIAN.)
SOLID_ANGLE_UNIT()
);
#1249=SHAPE_DEFINITION_REPRESENTATION(#1250,#1251);
#1250=PRODUCT_DEFINITION_SHAPE('',$,#1253);
#1251=SHAPE_REPRESENTATION('',(#725),#1243);
#1252=PRODUCT_DEFINITION_CONTEXT('part definition',#1257,'design');
#1253=PRODUCT_DEFINITION('2026-05-10-15-36-43-294',
'Unipolar stepperwheel',#1254,#1252);
#1254=PRODUCT_DEFINITION_FORMATION('',$,#1259);
#1255=PRODUCT_RELATED_PRODUCT_CATEGORY('Unipolar stepperwheel',
'Unipolar stepperwheel',(#1259));
#1256=APPLICATION_PROTOCOL_DEFINITION('international standard',
'automotive_design',2009,#1257);
#1257=APPLICATION_CONTEXT(
'Core Data for Automotive Mechanical Design Process');
#1258=PRODUCT_CONTEXT('part definition',#1257,'mechanical');
#1259=PRODUCT('2026-05-10-15-36-43-294','Unipolar stepperwheel',$,(#1258));
#1260=PRESENTATION_STYLE_ASSIGNMENT((#1261));
#1261=SURFACE_STYLE_USAGE(.BOTH.,#1262);
#1262=SURFACE_SIDE_STYLE('',(#1263));
#1263=SURFACE_STYLE_FILL_AREA(#1264);
#1264=FILL_AREA_STYLE('Steel - Satin',(#1265));
#1265=FILL_AREA_STYLE_COLOUR('Steel - Satin',#1266);
#1266=COLOUR_RGB('Steel - Satin',0.627450980392157,0.627450980392157,0.627450980392157);
ENDSEC;
END-ISO-10303-21;
