ISO-10303-21;
HEADER;
/* Generated by software containing ST-Developer
 * from STEP Tools, Inc. (www.steptools.com) 
 */

FILE_DESCRIPTION(
/* description */ (''),
/* implementation_level */ '2;1');

FILE_NAME(
/* name */ 'Unipolar motor mount.step',
/* time_stamp */ '2026-05-18T01:57:25-04:00',
/* author */ (''),
/* organization */ (''),
/* preprocessor_version */ 'ST-DEVELOPER v20.1',
/* originating_system */ 'Autodesk Translation Framework v15.8.0.0',
/* authorisation */ '');

FILE_SCHEMA (('AUTOMOTIVE_DESIGN { 1 0 10303 214 3 1 1 }'));
ENDSEC;

DATA;
#10=MECHANICAL_DESIGN_GEOMETRIC_PRESENTATION_REPRESENTATION('',(#13),#468);
#11=SHAPE_REPRESENTATION_RELATIONSHIP('SRR','None',#475,#12);
#12=ADVANCED_BREP_SHAPE_REPRESENTATION('',(#14),#467);
#13=STYLED_ITEM('',(#484),#14);
#14=MANIFOLD_SOLID_BREP('Body1',#279);
#15=FACE_BOUND('',#53,.T.);
#16=FACE_BOUND('',#54,.T.);
#17=FACE_BOUND('',#56,.T.);
#18=FACE_BOUND('',#57,.T.);
#19=FACE_BOUND('',#65,.T.);
#20=FACE_BOUND('',#66,.T.);
#21=FACE_BOUND('',#67,.T.);
#22=FACE_BOUND('',#69,.T.);
#23=FACE_BOUND('',#70,.T.);
#24=FACE_BOUND('',#71,.T.);
#25=PLANE('',#299);
#26=PLANE('',#300);
#27=PLANE('',#301);
#28=PLANE('',#302);
#29=PLANE('',#312);
#30=PLANE('',#313);
#31=PLANE('',#314);
#32=PLANE('',#315);
#33=PLANE('',#316);
#34=FACE_OUTER_BOUND('',#48,.T.);
#35=FACE_OUTER_BOUND('',#49,.T.);
#36=FACE_OUTER_BOUND('',#50,.T.);
#37=FACE_OUTER_BOUND('',#51,.T.);
#38=FACE_OUTER_BOUND('',#52,.T.);
#39=FACE_OUTER_BOUND('',#55,.T.);
#40=FACE_OUTER_BOUND('',#58,.T.);
#41=FACE_OUTER_BOUND('',#59,.T.);
#42=FACE_OUTER_BOUND('',#60,.T.);
#43=FACE_OUTER_BOUND('',#61,.T.);
#44=FACE_OUTER_BOUND('',#62,.T.);
#45=FACE_OUTER_BOUND('',#63,.T.);
#46=FACE_OUTER_BOUND('',#64,.T.);
#47=FACE_OUTER_BOUND('',#68,.T.);
#48=EDGE_LOOP('',(#190,#191,#192,#193));
#49=EDGE_LOOP('',(#194,#195,#196,#197));
#50=EDGE_LOOP('',(#198,#199,#200,#201,#202));
#51=EDGE_LOOP('',(#203,#204,#205,#206));
#52=EDGE_LOOP('',(#207,#208,#209,#210));
#53=EDGE_LOOP('',(#211));
#54=EDGE_LOOP('',(#212));
#55=EDGE_LOOP('',(#213,#214,#215,#216));
#56=EDGE_LOOP('',(#217));
#57=EDGE_LOOP('',(#218));
#58=EDGE_LOOP('',(#219,#220,#221,#222));
#59=EDGE_LOOP('',(#223,#224,#225,#226));
#60=EDGE_LOOP('',(#227,#228,#229,#230));
#61=EDGE_LOOP('',(#231,#232,#233,#234));
#62=EDGE_LOOP('',(#235,#236,#237,#238,#239,#240));
#63=EDGE_LOOP('',(#241,#242,#243,#244));
#64=EDGE_LOOP('',(#245,#246,#247,#248));
#65=EDGE_LOOP('',(#249));
#66=EDGE_LOOP('',(#250));
#67=EDGE_LOOP('',(#251));
#68=EDGE_LOOP('',(#252,#253,#254,#255,#256));
#69=EDGE_LOOP('',(#257));
#70=EDGE_LOOP('',(#258));
#71=EDGE_LOOP('',(#259));
#72=LINE('',#397,#97);
#73=LINE('',#403,#98);
#74=LINE('',#408,#99);
#75=LINE('',#410,#100);
#76=LINE('',#412,#101);
#77=LINE('',#414,#102);
#78=LINE('',#415,#103);
#79=LINE('',#418,#104);
#80=LINE('',#420,#105);
#81=LINE('',#421,#106);
#82=LINE('',#424,#107);
#83=LINE('',#425,#108);
#84=LINE('',#428,#109);
#85=LINE('',#429,#110);
#86=LINE('',#434,#111);
#87=LINE('',#440,#112);
#88=LINE('',#446,#113);
#89=LINE('',#450,#114);
#90=LINE('',#452,#115);
#91=LINE('',#453,#116);
#92=LINE('',#456,#117);
#93=LINE('',#458,#118);
#94=LINE('',#459,#119);
#95=LINE('',#461,#120);
#96=LINE('',#462,#121);
#97=VECTOR('',#323,2.15);
#98=VECTOR('',#330,2.15);
#99=VECTOR('',#335,10.);
#100=VECTOR('',#336,10.);
#101=VECTOR('',#337,10.);
#102=VECTOR('',#338,10.);
#103=VECTOR('',#339,10.);
#104=VECTOR('',#342,10.);
#105=VECTOR('',#343,10.);
#106=VECTOR('',#344,10.);
#107=VECTOR('',#347,10.);
#108=VECTOR('',#348,10.);
#109=VECTOR('',#351,10.);
#110=VECTOR('',#352,10.);
#111=VECTOR('',#357,5.);
#112=VECTOR('',#364,2.15);
#113=VECTOR('',#371,2.15);
#114=VECTOR('',#376,10.);
#115=VECTOR('',#377,10.);
#116=VECTOR('',#378,10.);
#117=VECTOR('',#381,10.);
#118=VECTOR('',#382,10.);
#119=VECTOR('',#383,10.);
#120=VECTOR('',#386,10.);
#121=VECTOR('',#387,10.);
#122=CIRCLE('',#294,2.15);
#123=CIRCLE('',#295,2.15);
#124=CIRCLE('',#297,2.15);
#125=CIRCLE('',#298,2.15);
#126=CIRCLE('',#304,5.);
#127=CIRCLE('',#305,5.);
#128=CIRCLE('',#307,2.15);
#129=CIRCLE('',#308,2.15);
#130=CIRCLE('',#310,2.15);
#131=CIRCLE('',#311,2.15);
#132=VERTEX_POINT('',#394);
#133=VERTEX_POINT('',#396);
#134=VERTEX_POINT('',#400);
#135=VERTEX_POINT('',#402);
#136=VERTEX_POINT('',#406);
#137=VERTEX_POINT('',#407);
#138=VERTEX_POINT('',#409);
#139=VERTEX_POINT('',#411);
#140=VERTEX_POINT('',#413);
#141=VERTEX_POINT('',#417);
#142=VERTEX_POINT('',#419);
#143=VERTEX_POINT('',#423);
#144=VERTEX_POINT('',#427);
#145=VERTEX_POINT('',#431);
#146=VERTEX_POINT('',#433);
#147=VERTEX_POINT('',#437);
#148=VERTEX_POINT('',#439);
#149=VERTEX_POINT('',#443);
#150=VERTEX_POINT('',#445);
#151=VERTEX_POINT('',#449);
#152=VERTEX_POINT('',#451);
#153=VERTEX_POINT('',#455);
#154=VERTEX_POINT('',#457);
#155=EDGE_CURVE('',#132,#132,#122,.T.);
#156=EDGE_CURVE('',#132,#133,#72,.T.);
#157=EDGE_CURVE('',#133,#133,#123,.T.);
#158=EDGE_CURVE('',#134,#134,#124,.T.);
#159=EDGE_CURVE('',#134,#135,#73,.T.);
#160=EDGE_CURVE('',#135,#135,#125,.T.);
#161=EDGE_CURVE('',#136,#137,#74,.T.);
#162=EDGE_CURVE('',#136,#138,#75,.T.);
#163=EDGE_CURVE('',#139,#138,#76,.T.);
#164=EDGE_CURVE('',#140,#139,#77,.T.);
#165=EDGE_CURVE('',#140,#137,#78,.T.);
#166=EDGE_CURVE('',#141,#136,#79,.T.);
#167=EDGE_CURVE('',#141,#142,#80,.T.);
#168=EDGE_CURVE('',#138,#142,#81,.T.);
#169=EDGE_CURVE('',#142,#143,#82,.T.);
#170=EDGE_CURVE('',#143,#139,#83,.T.);
#171=EDGE_CURVE('',#144,#137,#84,.T.);
#172=EDGE_CURVE('',#144,#141,#85,.T.);
#173=EDGE_CURVE('',#145,#145,#126,.T.);
#174=EDGE_CURVE('',#145,#146,#86,.T.);
#175=EDGE_CURVE('',#146,#146,#127,.T.);
#176=EDGE_CURVE('',#147,#147,#128,.T.);
#177=EDGE_CURVE('',#147,#148,#87,.T.);
#178=EDGE_CURVE('',#148,#148,#129,.T.);
#179=EDGE_CURVE('',#149,#149,#130,.T.);
#180=EDGE_CURVE('',#149,#150,#88,.T.);
#181=EDGE_CURVE('',#150,#150,#131,.T.);
#182=EDGE_CURVE('',#151,#140,#89,.T.);
#183=EDGE_CURVE('',#151,#152,#90,.T.);
#184=EDGE_CURVE('',#137,#152,#91,.T.);
#185=EDGE_CURVE('',#143,#153,#92,.T.);
#186=EDGE_CURVE('',#154,#144,#93,.T.);
#187=EDGE_CURVE('',#153,#154,#94,.T.);
#188=EDGE_CURVE('',#153,#151,#95,.T.);
#189=EDGE_CURVE('',#152,#154,#96,.T.);
#190=ORIENTED_EDGE('',*,*,#155,.F.);
#191=ORIENTED_EDGE('',*,*,#156,.T.);
#192=ORIENTED_EDGE('',*,*,#157,.T.);
#193=ORIENTED_EDGE('',*,*,#156,.F.);
#194=ORIENTED_EDGE('',*,*,#158,.F.);
#195=ORIENTED_EDGE('',*,*,#159,.T.);
#196=ORIENTED_EDGE('',*,*,#160,.T.);
#197=ORIENTED_EDGE('',*,*,#159,.F.);
#198=ORIENTED_EDGE('',*,*,#161,.F.);
#199=ORIENTED_EDGE('',*,*,#162,.T.);
#200=ORIENTED_EDGE('',*,*,#163,.F.);
#201=ORIENTED_EDGE('',*,*,#164,.F.);
#202=ORIENTED_EDGE('',*,*,#165,.T.);
#203=ORIENTED_EDGE('',*,*,#166,.F.);
#204=ORIENTED_EDGE('',*,*,#167,.T.);
#205=ORIENTED_EDGE('',*,*,#168,.F.);
#206=ORIENTED_EDGE('',*,*,#162,.F.);
#207=ORIENTED_EDGE('',*,*,#168,.T.);
#208=ORIENTED_EDGE('',*,*,#169,.T.);
#209=ORIENTED_EDGE('',*,*,#170,.T.);
#210=ORIENTED_EDGE('',*,*,#163,.T.);
#211=ORIENTED_EDGE('',*,*,#158,.T.);
#212=ORIENTED_EDGE('',*,*,#155,.T.);
#213=ORIENTED_EDGE('',*,*,#171,.F.);
#214=ORIENTED_EDGE('',*,*,#172,.T.);
#215=ORIENTED_EDGE('',*,*,#166,.T.);
#216=ORIENTED_EDGE('',*,*,#161,.T.);
#217=ORIENTED_EDGE('',*,*,#160,.F.);
#218=ORIENTED_EDGE('',*,*,#157,.F.);
#219=ORIENTED_EDGE('',*,*,#173,.F.);
#220=ORIENTED_EDGE('',*,*,#174,.T.);
#221=ORIENTED_EDGE('',*,*,#175,.T.);
#222=ORIENTED_EDGE('',*,*,#174,.F.);
#223=ORIENTED_EDGE('',*,*,#176,.F.);
#224=ORIENTED_EDGE('',*,*,#177,.T.);
#225=ORIENTED_EDGE('',*,*,#178,.T.);
#226=ORIENTED_EDGE('',*,*,#177,.F.);
#227=ORIENTED_EDGE('',*,*,#179,.F.);
#228=ORIENTED_EDGE('',*,*,#180,.T.);
#229=ORIENTED_EDGE('',*,*,#181,.T.);
#230=ORIENTED_EDGE('',*,*,#180,.F.);
#231=ORIENTED_EDGE('',*,*,#182,.F.);
#232=ORIENTED_EDGE('',*,*,#183,.T.);
#233=ORIENTED_EDGE('',*,*,#184,.F.);
#234=ORIENTED_EDGE('',*,*,#165,.F.);
#235=ORIENTED_EDGE('',*,*,#185,.F.);
#236=ORIENTED_EDGE('',*,*,#169,.F.);
#237=ORIENTED_EDGE('',*,*,#167,.F.);
#238=ORIENTED_EDGE('',*,*,#172,.F.);
#239=ORIENTED_EDGE('',*,*,#186,.F.);
#240=ORIENTED_EDGE('',*,*,#187,.F.);
#241=ORIENTED_EDGE('',*,*,#188,.F.);
#242=ORIENTED_EDGE('',*,*,#187,.T.);
#243=ORIENTED_EDGE('',*,*,#189,.F.);
#244=ORIENTED_EDGE('',*,*,#183,.F.);
#245=ORIENTED_EDGE('',*,*,#189,.T.);
#246=ORIENTED_EDGE('',*,*,#186,.T.);
#247=ORIENTED_EDGE('',*,*,#171,.T.);
#248=ORIENTED_EDGE('',*,*,#184,.T.);
#249=ORIENTED_EDGE('',*,*,#179,.T.);
#250=ORIENTED_EDGE('',*,*,#176,.T.);
#251=ORIENTED_EDGE('',*,*,#173,.T.);
#252=ORIENTED_EDGE('',*,*,#188,.T.);
#253=ORIENTED_EDGE('',*,*,#182,.T.);
#254=ORIENTED_EDGE('',*,*,#164,.T.);
#255=ORIENTED_EDGE('',*,*,#170,.F.);
#256=ORIENTED_EDGE('',*,*,#185,.T.);
#257=ORIENTED_EDGE('',*,*,#181,.F.);
#258=ORIENTED_EDGE('',*,*,#178,.F.);
#259=ORIENTED_EDGE('',*,*,#175,.F.);
#260=CYLINDRICAL_SURFACE('',#293,2.15);
#261=CYLINDRICAL_SURFACE('',#296,2.15);
#262=CYLINDRICAL_SURFACE('',#303,5.);
#263=CYLINDRICAL_SURFACE('',#306,2.15);
#264=CYLINDRICAL_SURFACE('',#309,2.15);
#265=ADVANCED_FACE('',(#34),#260,.F.);
#266=ADVANCED_FACE('',(#35),#261,.F.);
#267=ADVANCED_FACE('',(#36),#25,.T.);
#268=ADVANCED_FACE('',(#37),#26,.T.);
#269=ADVANCED_FACE('',(#38,#15,#16),#27,.T.);
#270=ADVANCED_FACE('',(#39,#17,#18),#28,.F.);
#271=ADVANCED_FACE('',(#40),#262,.F.);
#272=ADVANCED_FACE('',(#41),#263,.F.);
#273=ADVANCED_FACE('',(#42),#264,.F.);
#274=ADVANCED_FACE('',(#43),#29,.T.);
#275=ADVANCED_FACE('',(#44),#30,.T.);
#276=ADVANCED_FACE('',(#45),#31,.T.);
#277=ADVANCED_FACE('',(#46,#19,#20,#21),#32,.T.);
#278=ADVANCED_FACE('',(#47,#22,#23,#24),#33,.F.);
#279=CLOSED_SHELL('',(#265,#266,#267,#268,#269,#270,#271,#272,#273,#274,
#275,#276,#277,#278));
#280=DERIVED_UNIT_ELEMENT(#282,1.);
#281=DERIVED_UNIT_ELEMENT(#470,-3.);
#282=(
MASS_UNIT()
NAMED_UNIT(*)
SI_UNIT(.KILO.,.GRAM.)
);
#283=DERIVED_UNIT((#280,#281));
#284=MEASURE_REPRESENTATION_ITEM('density measure',
POSITIVE_RATIO_MEASURE(7850.),#283);
#285=PROPERTY_DEFINITION_REPRESENTATION(#290,#287);
#286=PROPERTY_DEFINITION_REPRESENTATION(#291,#288);
#287=REPRESENTATION('material name',(#289),#467);
#288=REPRESENTATION('density',(#284),#467);
#289=DESCRIPTIVE_REPRESENTATION_ITEM('Steel','Steel');
#290=PROPERTY_DEFINITION('material property','material name',#477);
#291=PROPERTY_DEFINITION('material property','density of part',#477);
#292=AXIS2_PLACEMENT_3D('',#392,#317,#318);
#293=AXIS2_PLACEMENT_3D('',#393,#319,#320);
#294=AXIS2_PLACEMENT_3D('',#395,#321,#322);
#295=AXIS2_PLACEMENT_3D('',#398,#324,#325);
#296=AXIS2_PLACEMENT_3D('',#399,#326,#327);
#297=AXIS2_PLACEMENT_3D('',#401,#328,#329);
#298=AXIS2_PLACEMENT_3D('',#404,#331,#332);
#299=AXIS2_PLACEMENT_3D('',#405,#333,#334);
#300=AXIS2_PLACEMENT_3D('',#416,#340,#341);
#301=AXIS2_PLACEMENT_3D('',#422,#345,#346);
#302=AXIS2_PLACEMENT_3D('',#426,#349,#350);
#303=AXIS2_PLACEMENT_3D('',#430,#353,#354);
#304=AXIS2_PLACEMENT_3D('',#432,#355,#356);
#305=AXIS2_PLACEMENT_3D('',#435,#358,#359);
#306=AXIS2_PLACEMENT_3D('',#436,#360,#361);
#307=AXIS2_PLACEMENT_3D('',#438,#362,#363);
#308=AXIS2_PLACEMENT_3D('',#441,#365,#366);
#309=AXIS2_PLACEMENT_3D('',#442,#367,#368);
#310=AXIS2_PLACEMENT_3D('',#444,#369,#370);
#311=AXIS2_PLACEMENT_3D('',#447,#372,#373);
#312=AXIS2_PLACEMENT_3D('',#448,#374,#375);
#313=AXIS2_PLACEMENT_3D('',#454,#379,#380);
#314=AXIS2_PLACEMENT_3D('',#460,#384,#385);
#315=AXIS2_PLACEMENT_3D('',#463,#388,#389);
#316=AXIS2_PLACEMENT_3D('',#464,#390,#391);
#317=DIRECTION('axis',(0.,0.,1.));
#318=DIRECTION('refdir',(1.,0.,0.));
#319=DIRECTION('center_axis',(0.,0.,-1.));
#320=DIRECTION('ref_axis',(-1.,0.,0.));
#321=DIRECTION('center_axis',(0.,0.,1.));
#322=DIRECTION('ref_axis',(-1.,0.,0.));
#323=DIRECTION('',(0.,0.,1.));
#324=DIRECTION('center_axis',(0.,0.,1.));
#325=DIRECTION('ref_axis',(-1.,0.,0.));
#326=DIRECTION('center_axis',(0.,0.,-1.));
#327=DIRECTION('ref_axis',(-1.,0.,0.));
#328=DIRECTION('center_axis',(0.,0.,1.));
#329=DIRECTION('ref_axis',(-1.,0.,0.));
#330=DIRECTION('',(0.,0.,1.));
#331=DIRECTION('center_axis',(0.,0.,1.));
#332=DIRECTION('ref_axis',(-1.,0.,0.));
#333=DIRECTION('center_axis',(-1.,1.49011604833049E-8,0.));
#334=DIRECTION('ref_axis',(1.49011604833049E-8,1.,0.));
#335=DIRECTION('',(-1.49011604833049E-8,-1.,0.));
#336=DIRECTION('',(0.,0.,-1.));
#337=DIRECTION('',(1.49011604833049E-8,1.,0.));
#338=DIRECTION('',(0.,0.,-1.));
#339=DIRECTION('',(0.,1.,0.));
#340=DIRECTION('center_axis',(0.,1.,0.));
#341=DIRECTION('ref_axis',(1.,0.,0.));
#342=DIRECTION('',(-1.,0.,0.));
#343=DIRECTION('',(0.,0.,-1.));
#344=DIRECTION('',(1.,0.,0.));
#345=DIRECTION('center_axis',(0.,-1.16774872027068E-47,-1.));
#346=DIRECTION('ref_axis',(-1.,0.,0.));
#347=DIRECTION('',(0.,-1.,0.));
#348=DIRECTION('',(-1.,0.,0.));
#349=DIRECTION('center_axis',(0.,-1.16774872027068E-47,-1.));
#350=DIRECTION('ref_axis',(-1.,0.,0.));
#351=DIRECTION('',(-1.,0.,8.88178419700126E-17));
#352=DIRECTION('',(0.,1.,0.));
#353=DIRECTION('center_axis',(0.,1.,0.));
#354=DIRECTION('ref_axis',(1.,0.,0.));
#355=DIRECTION('center_axis',(0.,-1.,0.));
#356=DIRECTION('ref_axis',(1.,0.,0.));
#357=DIRECTION('',(0.,-1.,0.));
#358=DIRECTION('center_axis',(0.,-1.,0.));
#359=DIRECTION('ref_axis',(1.,0.,0.));
#360=DIRECTION('center_axis',(0.,1.,0.));
#361=DIRECTION('ref_axis',(1.,0.,0.));
#362=DIRECTION('center_axis',(0.,-1.,0.));
#363=DIRECTION('ref_axis',(1.,0.,0.));
#364=DIRECTION('',(0.,-1.,0.));
#365=DIRECTION('center_axis',(0.,-1.,0.));
#366=DIRECTION('ref_axis',(1.,0.,0.));
#367=DIRECTION('center_axis',(0.,1.,0.));
#368=DIRECTION('ref_axis',(1.,0.,0.));
#369=DIRECTION('center_axis',(0.,-1.,0.));
#370=DIRECTION('ref_axis',(1.,0.,0.));
#371=DIRECTION('',(0.,-1.,0.));
#372=DIRECTION('center_axis',(0.,-1.,0.));
#373=DIRECTION('ref_axis',(1.,0.,0.));
#374=DIRECTION('center_axis',(-1.,0.,0.));
#375=DIRECTION('ref_axis',(0.,0.,1.));
#376=DIRECTION('',(0.,0.,-1.));
#377=DIRECTION('',(0.,1.,0.));
#378=DIRECTION('',(0.,0.,1.));
#379=DIRECTION('center_axis',(1.,0.,-3.22973970800046E-16));
#380=DIRECTION('ref_axis',(-3.22973970800046E-16,0.,-1.));
#381=DIRECTION('',(3.22973970800046E-16,0.,1.));
#382=DIRECTION('',(-3.22973970800046E-16,0.,-1.));
#383=DIRECTION('',(0.,1.,0.));
#384=DIRECTION('center_axis',(0.,0.,1.));
#385=DIRECTION('ref_axis',(1.,0.,0.));
#386=DIRECTION('',(-1.,0.,0.));
#387=DIRECTION('',(1.,0.,0.));
#388=DIRECTION('center_axis',(0.,1.,0.));
#389=DIRECTION('ref_axis',(1.,0.,0.));
#390=DIRECTION('center_axis',(0.,1.,0.));
#391=DIRECTION('ref_axis',(1.,0.,0.));
#392=CARTESIAN_POINT('',(0.,0.,0.));
#393=CARTESIAN_POINT('Origin',(-17.5,17.,-27.5));
#394=CARTESIAN_POINT('',(-15.35,17.,-30.5));
#395=CARTESIAN_POINT('Origin',(-17.5,17.,-30.5));
#396=CARTESIAN_POINT('',(-15.35,17.,-27.5));
#397=CARTESIAN_POINT('',(-15.35,17.,-27.5));
#398=CARTESIAN_POINT('Origin',(-17.5,17.,-27.5));
#399=CARTESIAN_POINT('Origin',(17.5,17.,-27.5));
#400=CARTESIAN_POINT('',(19.65,17.,-30.5));
#401=CARTESIAN_POINT('Origin',(17.5,17.,-30.5));
#402=CARTESIAN_POINT('',(19.65,17.,-27.5));
#403=CARTESIAN_POINT('',(19.65,17.,-27.5));
#404=CARTESIAN_POINT('Origin',(17.5,17.,-27.5));
#405=CARTESIAN_POINT('Origin',(-25.,4.44089209850063E-15,-27.5));
#406=CARTESIAN_POINT('',(-24.999999627471,25.,-27.5));
#407=CARTESIAN_POINT('',(-25.,3.,-27.5));
#408=CARTESIAN_POINT('',(-24.999999627471,25.,-27.5));
#409=CARTESIAN_POINT('',(-24.999999627471,25.,-30.5));
#410=CARTESIAN_POINT('',(-24.999999627471,25.,-27.5));
#411=CARTESIAN_POINT('',(-25.,0.,-30.5));
#412=CARTESIAN_POINT('',(-24.999999627471,25.,-30.5));
#413=CARTESIAN_POINT('',(-25.,0.,-27.5));
#414=CARTESIAN_POINT('',(-25.,0.,-27.5));
#415=CARTESIAN_POINT('',(-25.,0.,-27.5));
#416=CARTESIAN_POINT('Origin',(-24.999999627471,25.,-27.5));
#417=CARTESIAN_POINT('',(25.000000372529,25.,-27.5));
#418=CARTESIAN_POINT('',(25.000000372529,25.,-27.5));
#419=CARTESIAN_POINT('',(25.000000372529,25.,-30.5));
#420=CARTESIAN_POINT('',(25.000000372529,25.,-27.5));
#421=CARTESIAN_POINT('',(25.000000372529,25.,-30.5));
#422=CARTESIAN_POINT('Origin',(1.8626452380488E-7,12.5,-30.5));
#423=CARTESIAN_POINT('',(25.000000372529,0.,-30.5));
#424=CARTESIAN_POINT('',(25.000000372529,0.,-30.5));
#425=CARTESIAN_POINT('',(-25.,0.,-30.5));
#426=CARTESIAN_POINT('Origin',(1.8626452380488E-7,12.5,-27.5));
#427=CARTESIAN_POINT('',(25.,3.,-27.5));
#428=CARTESIAN_POINT('',(-25.,3.,-27.5));
#429=CARTESIAN_POINT('',(25.000000372529,0.,-27.5));
#430=CARTESIAN_POINT('Origin',(1.36417949179616E-14,0.,19.65));
#431=CARTESIAN_POINT('',(-4.99999999999998,3.,19.65));
#432=CARTESIAN_POINT('Origin',(1.36417949179616E-14,3.,19.65));
#433=CARTESIAN_POINT('',(-4.99999999999999,0.,19.65));
#434=CARTESIAN_POINT('',(-4.99999999999999,0.,19.65));
#435=CARTESIAN_POINT('Origin',(1.36417949179616E-14,0.,19.65));
#436=CARTESIAN_POINT('Origin',(-17.5,0.,12.5));
#437=CARTESIAN_POINT('',(-19.65,3.,12.5));
#438=CARTESIAN_POINT('Origin',(-17.5,3.,12.5));
#439=CARTESIAN_POINT('',(-19.65,0.,12.5));
#440=CARTESIAN_POINT('',(-19.65,0.,12.5));
#441=CARTESIAN_POINT('Origin',(-17.5,0.,12.5));
#442=CARTESIAN_POINT('Origin',(17.5,0.,12.5));
#443=CARTESIAN_POINT('',(15.35,3.,12.5));
#444=CARTESIAN_POINT('Origin',(17.5,3.,12.5));
#445=CARTESIAN_POINT('',(15.35,0.,12.5));
#446=CARTESIAN_POINT('',(15.35,0.,12.5));
#447=CARTESIAN_POINT('Origin',(17.5,0.,12.5));
#448=CARTESIAN_POINT('Origin',(-25.,0.,-27.5));
#449=CARTESIAN_POINT('',(-25.,0.,27.5));
#450=CARTESIAN_POINT('',(-25.,0.,27.5));
#451=CARTESIAN_POINT('',(-25.,3.,27.5));
#452=CARTESIAN_POINT('',(-25.,0.,27.5));
#453=CARTESIAN_POINT('',(-25.,3.,27.5));
#454=CARTESIAN_POINT('Origin',(25.,0.,27.5));
#455=CARTESIAN_POINT('',(25.,0.,27.5));
#456=CARTESIAN_POINT('',(25.,0.,-27.5));
#457=CARTESIAN_POINT('',(25.,3.,27.5));
#458=CARTESIAN_POINT('',(25.,3.,-27.5));
#459=CARTESIAN_POINT('',(25.,0.,27.5));
#460=CARTESIAN_POINT('Origin',(-25.,0.,27.5));
#461=CARTESIAN_POINT('',(25.,0.,27.5));
#462=CARTESIAN_POINT('',(25.,3.,27.5));
#463=CARTESIAN_POINT('Origin',(8.88178419700125E-15,3.,0.));
#464=CARTESIAN_POINT('Origin',(8.88178419700125E-15,0.,0.));
#465=UNCERTAINTY_MEASURE_WITH_UNIT(LENGTH_MEASURE(0.01),#469,
'DISTANCE_ACCURACY_VALUE',
'Maximum model space distance between geometric entities at asserted c
onnectivities');
#466=UNCERTAINTY_MEASURE_WITH_UNIT(LENGTH_MEASURE(0.01),#469,
'DISTANCE_ACCURACY_VALUE',
'Maximum model space distance between geometric entities at asserted c
onnectivities');
#467=(
GEOMETRIC_REPRESENTATION_CONTEXT(3)
GLOBAL_UNCERTAINTY_ASSIGNED_CONTEXT((#465))
GLOBAL_UNIT_ASSIGNED_CONTEXT((#469,#471,#472))
REPRESENTATION_CONTEXT('','3D')
);
#468=(
GEOMETRIC_REPRESENTATION_CONTEXT(3)
GLOBAL_UNCERTAINTY_ASSIGNED_CONTEXT((#466))
GLOBAL_UNIT_ASSIGNED_CONTEXT((#469,#471,#472))
REPRESENTATION_CONTEXT('','3D')
);
#469=(
LENGTH_UNIT()
NAMED_UNIT(*)
SI_UNIT(.MILLI.,.METRE.)
);
#470=(
LENGTH_UNIT()
NAMED_UNIT(*)
SI_UNIT($,.METRE.)
);
#471=(
NAMED_UNIT(*)
PLANE_ANGLE_UNIT()
SI_UNIT($,.RADIAN.)
);
#472=(
NAMED_UNIT(*)
SI_UNIT($,.STERADIAN.)
SOLID_ANGLE_UNIT()
);
#473=SHAPE_DEFINITION_REPRESENTATION(#474,#475);
#474=PRODUCT_DEFINITION_SHAPE('',$,#477);
#475=SHAPE_REPRESENTATION('',(#292),#467);
#476=PRODUCT_DEFINITION_CONTEXT('part definition',#481,'design');
#477=PRODUCT_DEFINITION('2026-05-10-18-40-56-838',
'Unipolar motor mount',#478,#476);
#478=PRODUCT_DEFINITION_FORMATION('',$,#483);
#479=PRODUCT_RELATED_PRODUCT_CATEGORY('Unipolar motor mount',
'Unipolar motor mount',(#483));
#480=APPLICATION_PROTOCOL_DEFINITION('international standard',
'automotive_design',2009,#481);
#481=APPLICATION_CONTEXT(
'Core Data for Automotive Mechanical Design Process');
#482=PRODUCT_CONTEXT('part definition',#481,'mechanical');
#483=PRODUCT('2026-05-10-18-40-56-838','Unipolar motor mount',$,(#482));
#484=PRESENTATION_STYLE_ASSIGNMENT((#485));
#485=SURFACE_STYLE_USAGE(.BOTH.,#486);
#486=SURFACE_SIDE_STYLE('',(#487));
#487=SURFACE_STYLE_FILL_AREA(#488);
#488=FILL_AREA_STYLE('Steel - Satin',(#489));
#489=FILL_AREA_STYLE_COLOUR('Steel - Satin',#490);
#490=COLOUR_RGB('Steel - Satin',0.627450980392157,0.627450980392157,0.627450980392157);
ENDSEC;
END-ISO-10303-21;
