ISO-10303-21;
HEADER;
/* Generated by software containing ST-Developer
 * from STEP Tools, Inc. (www.steptools.com) 
 */

FILE_DESCRIPTION(
/* description */ (''),
/* implementation_level */ '2;1');

FILE_NAME(
/* name */ 'DC Wheel Spoke CAD.step',
/* time_stamp */ '2026-05-18T01:58:04-04:00',
/* author */ (''),
/* organization */ (''),
/* preprocessor_version */ 'ST-DEVELOPER v20.1',
/* originating_system */ 'Autodesk Translation Framework v15.8.0.0',
/* authorisation */ '');

FILE_SCHEMA (('AUTOMOTIVE_DESIGN { 1 0 10303 214 3 1 1 }'));
ENDSEC;

DATA;
#10=MECHANICAL_DESIGN_GEOMETRIC_PRESENTATION_REPRESENTATION('',(#13),#943);
#11=SHAPE_REPRESENTATION_RELATIONSHIP('SRR','None',#950,#12);
#12=ADVANCED_BREP_SHAPE_REPRESENTATION('',(#14),#942);
#13=STYLED_ITEM('',(#959),#14);
#14=MANIFOLD_SOLID_BREP('Body1',#531);
#15=FACE_BOUND('',#140,.T.);
#16=FACE_BOUND('',#145,.T.);
#17=SPHERICAL_SURFACE('',#563,2.);
#18=SPHERICAL_SURFACE('',#567,2.);
#19=SPHERICAL_SURFACE('',#571,2.);
#20=SPHERICAL_SURFACE('',#575,2.);
#21=SPHERICAL_SURFACE('',#580,2.);
#22=SPHERICAL_SURFACE('',#584,2.);
#23=SPHERICAL_SURFACE('',#589,2.);
#24=SPHERICAL_SURFACE('',#595,2.);
#25=CIRCLE('',#547,2.5000000372529);
#26=CIRCLE('',#548,2.5000000372529);
#27=CIRCLE('',#551,2.5000000372529);
#28=CIRCLE('',#552,2.5000000372529);
#29=CIRCLE('',#555,2.6);
#30=CIRCLE('',#556,2.6);
#31=CIRCLE('',#559,2.6);
#32=CIRCLE('',#560,2.6);
#33=CIRCLE('',#564,2.);
#34=CIRCLE('',#565,2.);
#35=CIRCLE('',#566,2.);
#36=CIRCLE('',#568,2.);
#37=CIRCLE('',#569,2.);
#38=CIRCLE('',#570,2.);
#39=CIRCLE('',#572,2.);
#40=CIRCLE('',#573,2.);
#41=CIRCLE('',#574,2.);
#42=CIRCLE('',#576,2.);
#43=CIRCLE('',#577,2.);
#44=CIRCLE('',#578,2.);
#45=CIRCLE('',#581,2.);
#46=CIRCLE('',#582,2.);
#47=CIRCLE('',#583,2.);
#48=CIRCLE('',#585,2.);
#49=CIRCLE('',#586,2.);
#50=CIRCLE('',#587,2.);
#51=CIRCLE('',#590,2.);
#52=CIRCLE('',#591,2.);
#53=CIRCLE('',#592,2.);
#54=CIRCLE('',#596,2.);
#55=CIRCLE('',#597,2.);
#56=CIRCLE('',#598,2.);
#57=CYLINDRICAL_SURFACE('',#546,2.5000000372529);
#58=CYLINDRICAL_SURFACE('',#550,2.5000000372529);
#59=CYLINDRICAL_SURFACE('',#554,2.6);
#60=CYLINDRICAL_SURFACE('',#558,2.6);
#61=CYLINDRICAL_SURFACE('',#579,2.);
#62=CYLINDRICAL_SURFACE('',#588,2.);
#63=CYLINDRICAL_SURFACE('',#593,2.);
#64=CYLINDRICAL_SURFACE('',#594,2.);
#65=CYLINDRICAL_SURFACE('',#599,2.);
#66=CYLINDRICAL_SURFACE('',#600,2.);
#67=CYLINDRICAL_SURFACE('',#601,2.);
#68=CYLINDRICAL_SURFACE('',#602,2.);
#69=CYLINDRICAL_SURFACE('',#603,2.);
#70=CYLINDRICAL_SURFACE('',#604,2.);
#71=CYLINDRICAL_SURFACE('',#605,2.);
#72=CYLINDRICAL_SURFACE('',#606,2.);
#73=FACE_OUTER_BOUND('',#109,.T.);
#74=FACE_OUTER_BOUND('',#110,.T.);
#75=FACE_OUTER_BOUND('',#111,.T.);
#76=FACE_OUTER_BOUND('',#112,.T.);
#77=FACE_OUTER_BOUND('',#113,.T.);
#78=FACE_OUTER_BOUND('',#114,.T.);
#79=FACE_OUTER_BOUND('',#115,.T.);
#80=FACE_OUTER_BOUND('',#116,.T.);
#81=FACE_OUTER_BOUND('',#117,.T.);
#82=FACE_OUTER_BOUND('',#118,.T.);
#83=FACE_OUTER_BOUND('',#119,.T.);
#84=FACE_OUTER_BOUND('',#120,.T.);
#85=FACE_OUTER_BOUND('',#121,.T.);
#86=FACE_OUTER_BOUND('',#122,.T.);
#87=FACE_OUTER_BOUND('',#123,.T.);
#88=FACE_OUTER_BOUND('',#124,.T.);
#89=FACE_OUTER_BOUND('',#125,.T.);
#90=FACE_OUTER_BOUND('',#126,.T.);
#91=FACE_OUTER_BOUND('',#127,.T.);
#92=FACE_OUTER_BOUND('',#128,.T.);
#93=FACE_OUTER_BOUND('',#129,.T.);
#94=FACE_OUTER_BOUND('',#130,.T.);
#95=FACE_OUTER_BOUND('',#131,.T.);
#96=FACE_OUTER_BOUND('',#132,.T.);
#97=FACE_OUTER_BOUND('',#133,.T.);
#98=FACE_OUTER_BOUND('',#134,.T.);
#99=FACE_OUTER_BOUND('',#135,.T.);
#100=FACE_OUTER_BOUND('',#136,.T.);
#101=FACE_OUTER_BOUND('',#137,.T.);
#102=FACE_OUTER_BOUND('',#138,.T.);
#103=FACE_OUTER_BOUND('',#139,.T.);
#104=FACE_OUTER_BOUND('',#141,.T.);
#105=FACE_OUTER_BOUND('',#142,.T.);
#106=FACE_OUTER_BOUND('',#143,.T.);
#107=FACE_OUTER_BOUND('',#144,.T.);
#108=FACE_OUTER_BOUND('',#146,.T.);
#109=EDGE_LOOP('',(#339,#340,#341,#342));
#110=EDGE_LOOP('',(#343,#344,#345,#346));
#111=EDGE_LOOP('',(#347,#348,#349,#350));
#112=EDGE_LOOP('',(#351,#352,#353,#354));
#113=EDGE_LOOP('',(#355,#356,#357,#358));
#114=EDGE_LOOP('',(#359,#360,#361,#362));
#115=EDGE_LOOP('',(#363,#364,#365,#366));
#116=EDGE_LOOP('',(#367,#368,#369,#370));
#117=EDGE_LOOP('',(#371,#372,#373,#374));
#118=EDGE_LOOP('',(#375,#376,#377,#378));
#119=EDGE_LOOP('',(#379,#380,#381));
#120=EDGE_LOOP('',(#382,#383,#384));
#121=EDGE_LOOP('',(#385,#386,#387));
#122=EDGE_LOOP('',(#388,#389,#390));
#123=EDGE_LOOP('',(#391,#392,#393,#394));
#124=EDGE_LOOP('',(#395,#396,#397));
#125=EDGE_LOOP('',(#398,#399,#400));
#126=EDGE_LOOP('',(#401,#402,#403,#404));
#127=EDGE_LOOP('',(#405,#406,#407));
#128=EDGE_LOOP('',(#408,#409,#410,#411));
#129=EDGE_LOOP('',(#412,#413,#414,#415));
#130=EDGE_LOOP('',(#416,#417,#418));
#131=EDGE_LOOP('',(#419,#420,#421,#422));
#132=EDGE_LOOP('',(#423,#424,#425,#426));
#133=EDGE_LOOP('',(#427,#428,#429,#430));
#134=EDGE_LOOP('',(#431,#432,#433,#434));
#135=EDGE_LOOP('',(#435,#436,#437,#438));
#136=EDGE_LOOP('',(#439,#440,#441,#442));
#137=EDGE_LOOP('',(#443,#444,#445,#446));
#138=EDGE_LOOP('',(#447,#448,#449,#450));
#139=EDGE_LOOP('',(#451,#452,#453,#454));
#140=EDGE_LOOP('',(#455,#456,#457,#458));
#141=EDGE_LOOP('',(#459,#460,#461,#462));
#142=EDGE_LOOP('',(#463,#464,#465,#466));
#143=EDGE_LOOP('',(#467,#468,#469,#470));
#144=EDGE_LOOP('',(#471,#472,#473,#474));
#145=EDGE_LOOP('',(#475,#476,#477,#478));
#146=EDGE_LOOP('',(#479,#480,#481,#482));
#147=LINE('',#795,#187);
#148=LINE('',#797,#188);
#149=LINE('',#799,#189);
#150=LINE('',#800,#190);
#151=LINE('',#806,#191);
#152=LINE('',#809,#192);
#153=LINE('',#811,#193);
#154=LINE('',#812,#194);
#155=LINE('',#819,#195);
#156=LINE('',#821,#196);
#157=LINE('',#823,#197);
#158=LINE('',#824,#198);
#159=LINE('',#829,#199);
#160=LINE('',#833,#200);
#161=LINE('',#835,#201);
#162=LINE('',#836,#202);
#163=LINE('',#871,#203);
#164=LINE('',#872,#204);
#165=LINE('',#888,#205);
#166=LINE('',#889,#206);
#167=LINE('',#898,#207);
#168=LINE('',#899,#208);
#169=LINE('',#901,#209);
#170=LINE('',#902,#210);
#171=LINE('',#911,#211);
#172=LINE('',#912,#212);
#173=LINE('',#914,#213);
#174=LINE('',#915,#214);
#175=LINE('',#917,#215);
#176=LINE('',#918,#216);
#177=LINE('',#920,#217);
#178=LINE('',#921,#218);
#179=LINE('',#923,#219);
#180=LINE('',#924,#220);
#181=LINE('',#926,#221);
#182=LINE('',#927,#222);
#183=LINE('',#929,#223);
#184=LINE('',#930,#224);
#185=LINE('',#932,#225);
#186=LINE('',#933,#226);
#187=VECTOR('',#617,10.);
#188=VECTOR('',#618,10.);
#189=VECTOR('',#619,10.);
#190=VECTOR('',#620,10.);
#191=VECTOR('',#627,10.);
#192=VECTOR('',#630,10.);
#193=VECTOR('',#631,10.);
#194=VECTOR('',#632,10.);
#195=VECTOR('',#641,10.);
#196=VECTOR('',#642,10.);
#197=VECTOR('',#643,10.);
#198=VECTOR('',#644,10.);
#199=VECTOR('',#649,10.);
#200=VECTOR('',#654,10.);
#201=VECTOR('',#655,10.);
#202=VECTOR('',#656,10.);
#203=VECTOR('',#701,10.);
#204=VECTOR('',#702,10.);
#205=VECTOR('',#721,10.);
#206=VECTOR('',#722,10.);
#207=VECTOR('',#733,10.);
#208=VECTOR('',#734,10.);
#209=VECTOR('',#737,10.);
#210=VECTOR('',#738,10.);
#211=VECTOR('',#749,10.);
#212=VECTOR('',#750,10.);
#213=VECTOR('',#753,10.);
#214=VECTOR('',#754,10.);
#215=VECTOR('',#757,10.);
#216=VECTOR('',#758,10.);
#217=VECTOR('',#761,10.);
#218=VECTOR('',#762,10.);
#219=VECTOR('',#765,10.);
#220=VECTOR('',#766,10.);
#221=VECTOR('',#769,10.);
#222=VECTOR('',#770,10.);
#223=VECTOR('',#773,10.);
#224=VECTOR('',#774,10.);
#225=VECTOR('',#777,10.);
#226=VECTOR('',#778,10.);
#227=VERTEX_POINT('',#793);
#228=VERTEX_POINT('',#794);
#229=VERTEX_POINT('',#796);
#230=VERTEX_POINT('',#798);
#231=VERTEX_POINT('',#802);
#232=VERTEX_POINT('',#804);
#233=VERTEX_POINT('',#808);
#234=VERTEX_POINT('',#810);
#235=VERTEX_POINT('',#817);
#236=VERTEX_POINT('',#818);
#237=VERTEX_POINT('',#820);
#238=VERTEX_POINT('',#822);
#239=VERTEX_POINT('',#826);
#240=VERTEX_POINT('',#828);
#241=VERTEX_POINT('',#832);
#242=VERTEX_POINT('',#834);
#243=VERTEX_POINT('',#843);
#244=VERTEX_POINT('',#844);
#245=VERTEX_POINT('',#846);
#246=VERTEX_POINT('',#850);
#247=VERTEX_POINT('',#851);
#248=VERTEX_POINT('',#853);
#249=VERTEX_POINT('',#857);
#250=VERTEX_POINT('',#858);
#251=VERTEX_POINT('',#860);
#252=VERTEX_POINT('',#864);
#253=VERTEX_POINT('',#865);
#254=VERTEX_POINT('',#867);
#255=VERTEX_POINT('',#874);
#256=VERTEX_POINT('',#875);
#257=VERTEX_POINT('',#877);
#258=VERTEX_POINT('',#881);
#259=VERTEX_POINT('',#882);
#260=VERTEX_POINT('',#884);
#261=VERTEX_POINT('',#891);
#262=VERTEX_POINT('',#892);
#263=VERTEX_POINT('',#894);
#264=VERTEX_POINT('',#904);
#265=VERTEX_POINT('',#905);
#266=VERTEX_POINT('',#907);
#267=EDGE_CURVE('',#227,#228,#147,.T.);
#268=EDGE_CURVE('',#227,#229,#148,.T.);
#269=EDGE_CURVE('',#230,#229,#149,.T.);
#270=EDGE_CURVE('',#228,#230,#150,.T.);
#271=EDGE_CURVE('',#228,#231,#25,.T.);
#272=EDGE_CURVE('',#232,#230,#26,.T.);
#273=EDGE_CURVE('',#231,#232,#151,.T.);
#274=EDGE_CURVE('',#231,#233,#152,.T.);
#275=EDGE_CURVE('',#234,#232,#153,.T.);
#276=EDGE_CURVE('',#233,#234,#154,.T.);
#277=EDGE_CURVE('',#233,#227,#27,.T.);
#278=EDGE_CURVE('',#229,#234,#28,.T.);
#279=EDGE_CURVE('',#235,#236,#155,.T.);
#280=EDGE_CURVE('',#235,#237,#156,.T.);
#281=EDGE_CURVE('',#238,#237,#157,.T.);
#282=EDGE_CURVE('',#236,#238,#158,.T.);
#283=EDGE_CURVE('',#239,#235,#29,.T.);
#284=EDGE_CURVE('',#239,#240,#159,.T.);
#285=EDGE_CURVE('',#237,#240,#30,.T.);
#286=EDGE_CURVE('',#241,#239,#160,.T.);
#287=EDGE_CURVE('',#241,#242,#161,.T.);
#288=EDGE_CURVE('',#240,#242,#162,.T.);
#289=EDGE_CURVE('',#236,#241,#31,.T.);
#290=EDGE_CURVE('',#242,#238,#32,.T.);
#291=EDGE_CURVE('',#243,#244,#33,.F.);
#292=EDGE_CURVE('',#245,#243,#34,.F.);
#293=EDGE_CURVE('',#244,#245,#35,.F.);
#294=EDGE_CURVE('',#246,#247,#36,.F.);
#295=EDGE_CURVE('',#248,#246,#37,.F.);
#296=EDGE_CURVE('',#247,#248,#38,.F.);
#297=EDGE_CURVE('',#249,#250,#39,.F.);
#298=EDGE_CURVE('',#251,#249,#40,.F.);
#299=EDGE_CURVE('',#250,#251,#41,.F.);
#300=EDGE_CURVE('',#252,#253,#42,.F.);
#301=EDGE_CURVE('',#254,#252,#43,.F.);
#302=EDGE_CURVE('',#253,#254,#44,.F.);
#303=EDGE_CURVE('',#252,#245,#163,.T.);
#304=EDGE_CURVE('',#243,#254,#164,.T.);
#305=EDGE_CURVE('',#255,#256,#45,.F.);
#306=EDGE_CURVE('',#257,#255,#46,.F.);
#307=EDGE_CURVE('',#256,#257,#47,.F.);
#308=EDGE_CURVE('',#258,#259,#48,.F.);
#309=EDGE_CURVE('',#260,#258,#49,.F.);
#310=EDGE_CURVE('',#259,#260,#50,.F.);
#311=EDGE_CURVE('',#258,#248,#165,.T.);
#312=EDGE_CURVE('',#246,#260,#166,.T.);
#313=EDGE_CURVE('',#261,#262,#51,.F.);
#314=EDGE_CURVE('',#263,#261,#52,.F.);
#315=EDGE_CURVE('',#262,#263,#53,.F.);
#316=EDGE_CURVE('',#261,#251,#167,.T.);
#317=EDGE_CURVE('',#249,#263,#168,.T.);
#318=EDGE_CURVE('',#253,#262,#169,.T.);
#319=EDGE_CURVE('',#263,#252,#170,.T.);
#320=EDGE_CURVE('',#264,#265,#54,.F.);
#321=EDGE_CURVE('',#266,#264,#55,.F.);
#322=EDGE_CURVE('',#265,#266,#56,.F.);
#323=EDGE_CURVE('',#255,#266,#171,.T.);
#324=EDGE_CURVE('',#264,#257,#172,.T.);
#325=EDGE_CURVE('',#262,#265,#173,.T.);
#326=EDGE_CURVE('',#266,#261,#174,.T.);
#327=EDGE_CURVE('',#265,#259,#175,.T.);
#328=EDGE_CURVE('',#260,#264,#176,.T.);
#329=EDGE_CURVE('',#259,#253,#177,.T.);
#330=EDGE_CURVE('',#254,#258,#178,.T.);
#331=EDGE_CURVE('',#247,#256,#179,.T.);
#332=EDGE_CURVE('',#257,#246,#180,.T.);
#333=EDGE_CURVE('',#256,#250,#181,.T.);
#334=EDGE_CURVE('',#251,#255,#182,.T.);
#335=EDGE_CURVE('',#250,#244,#183,.T.);
#336=EDGE_CURVE('',#245,#249,#184,.T.);
#337=EDGE_CURVE('',#244,#247,#185,.T.);
#338=EDGE_CURVE('',#248,#243,#186,.T.);
#339=ORIENTED_EDGE('',*,*,#267,.F.);
#340=ORIENTED_EDGE('',*,*,#268,.T.);
#341=ORIENTED_EDGE('',*,*,#269,.F.);
#342=ORIENTED_EDGE('',*,*,#270,.F.);
#343=ORIENTED_EDGE('',*,*,#271,.F.);
#344=ORIENTED_EDGE('',*,*,#270,.T.);
#345=ORIENTED_EDGE('',*,*,#272,.F.);
#346=ORIENTED_EDGE('',*,*,#273,.F.);
#347=ORIENTED_EDGE('',*,*,#274,.F.);
#348=ORIENTED_EDGE('',*,*,#273,.T.);
#349=ORIENTED_EDGE('',*,*,#275,.F.);
#350=ORIENTED_EDGE('',*,*,#276,.F.);
#351=ORIENTED_EDGE('',*,*,#277,.F.);
#352=ORIENTED_EDGE('',*,*,#276,.T.);
#353=ORIENTED_EDGE('',*,*,#278,.F.);
#354=ORIENTED_EDGE('',*,*,#268,.F.);
#355=ORIENTED_EDGE('',*,*,#279,.F.);
#356=ORIENTED_EDGE('',*,*,#280,.T.);
#357=ORIENTED_EDGE('',*,*,#281,.F.);
#358=ORIENTED_EDGE('',*,*,#282,.F.);
#359=ORIENTED_EDGE('',*,*,#283,.F.);
#360=ORIENTED_EDGE('',*,*,#284,.T.);
#361=ORIENTED_EDGE('',*,*,#285,.F.);
#362=ORIENTED_EDGE('',*,*,#280,.F.);
#363=ORIENTED_EDGE('',*,*,#286,.F.);
#364=ORIENTED_EDGE('',*,*,#287,.T.);
#365=ORIENTED_EDGE('',*,*,#288,.F.);
#366=ORIENTED_EDGE('',*,*,#284,.F.);
#367=ORIENTED_EDGE('',*,*,#289,.F.);
#368=ORIENTED_EDGE('',*,*,#282,.T.);
#369=ORIENTED_EDGE('',*,*,#290,.F.);
#370=ORIENTED_EDGE('',*,*,#287,.F.);
#371=ORIENTED_EDGE('',*,*,#267,.T.);
#372=ORIENTED_EDGE('',*,*,#271,.T.);
#373=ORIENTED_EDGE('',*,*,#274,.T.);
#374=ORIENTED_EDGE('',*,*,#277,.T.);
#375=ORIENTED_EDGE('',*,*,#290,.T.);
#376=ORIENTED_EDGE('',*,*,#281,.T.);
#377=ORIENTED_EDGE('',*,*,#285,.T.);
#378=ORIENTED_EDGE('',*,*,#288,.T.);
#379=ORIENTED_EDGE('',*,*,#291,.F.);
#380=ORIENTED_EDGE('',*,*,#292,.F.);
#381=ORIENTED_EDGE('',*,*,#293,.F.);
#382=ORIENTED_EDGE('',*,*,#294,.F.);
#383=ORIENTED_EDGE('',*,*,#295,.F.);
#384=ORIENTED_EDGE('',*,*,#296,.F.);
#385=ORIENTED_EDGE('',*,*,#297,.F.);
#386=ORIENTED_EDGE('',*,*,#298,.F.);
#387=ORIENTED_EDGE('',*,*,#299,.F.);
#388=ORIENTED_EDGE('',*,*,#300,.F.);
#389=ORIENTED_EDGE('',*,*,#301,.F.);
#390=ORIENTED_EDGE('',*,*,#302,.F.);
#391=ORIENTED_EDGE('',*,*,#301,.T.);
#392=ORIENTED_EDGE('',*,*,#303,.T.);
#393=ORIENTED_EDGE('',*,*,#292,.T.);
#394=ORIENTED_EDGE('',*,*,#304,.T.);
#395=ORIENTED_EDGE('',*,*,#305,.F.);
#396=ORIENTED_EDGE('',*,*,#306,.F.);
#397=ORIENTED_EDGE('',*,*,#307,.F.);
#398=ORIENTED_EDGE('',*,*,#308,.F.);
#399=ORIENTED_EDGE('',*,*,#309,.F.);
#400=ORIENTED_EDGE('',*,*,#310,.F.);
#401=ORIENTED_EDGE('',*,*,#309,.T.);
#402=ORIENTED_EDGE('',*,*,#311,.T.);
#403=ORIENTED_EDGE('',*,*,#295,.T.);
#404=ORIENTED_EDGE('',*,*,#312,.T.);
#405=ORIENTED_EDGE('',*,*,#313,.F.);
#406=ORIENTED_EDGE('',*,*,#314,.F.);
#407=ORIENTED_EDGE('',*,*,#315,.F.);
#408=ORIENTED_EDGE('',*,*,#314,.T.);
#409=ORIENTED_EDGE('',*,*,#316,.T.);
#410=ORIENTED_EDGE('',*,*,#298,.T.);
#411=ORIENTED_EDGE('',*,*,#317,.T.);
#412=ORIENTED_EDGE('',*,*,#300,.T.);
#413=ORIENTED_EDGE('',*,*,#318,.T.);
#414=ORIENTED_EDGE('',*,*,#315,.T.);
#415=ORIENTED_EDGE('',*,*,#319,.T.);
#416=ORIENTED_EDGE('',*,*,#320,.F.);
#417=ORIENTED_EDGE('',*,*,#321,.F.);
#418=ORIENTED_EDGE('',*,*,#322,.F.);
#419=ORIENTED_EDGE('',*,*,#306,.T.);
#420=ORIENTED_EDGE('',*,*,#323,.T.);
#421=ORIENTED_EDGE('',*,*,#321,.T.);
#422=ORIENTED_EDGE('',*,*,#324,.T.);
#423=ORIENTED_EDGE('',*,*,#313,.T.);
#424=ORIENTED_EDGE('',*,*,#325,.T.);
#425=ORIENTED_EDGE('',*,*,#322,.T.);
#426=ORIENTED_EDGE('',*,*,#326,.T.);
#427=ORIENTED_EDGE('',*,*,#320,.T.);
#428=ORIENTED_EDGE('',*,*,#327,.T.);
#429=ORIENTED_EDGE('',*,*,#310,.T.);
#430=ORIENTED_EDGE('',*,*,#328,.T.);
#431=ORIENTED_EDGE('',*,*,#308,.T.);
#432=ORIENTED_EDGE('',*,*,#329,.T.);
#433=ORIENTED_EDGE('',*,*,#302,.T.);
#434=ORIENTED_EDGE('',*,*,#330,.T.);
#435=ORIENTED_EDGE('',*,*,#294,.T.);
#436=ORIENTED_EDGE('',*,*,#331,.T.);
#437=ORIENTED_EDGE('',*,*,#307,.T.);
#438=ORIENTED_EDGE('',*,*,#332,.T.);
#439=ORIENTED_EDGE('',*,*,#305,.T.);
#440=ORIENTED_EDGE('',*,*,#333,.T.);
#441=ORIENTED_EDGE('',*,*,#299,.T.);
#442=ORIENTED_EDGE('',*,*,#334,.T.);
#443=ORIENTED_EDGE('',*,*,#297,.T.);
#444=ORIENTED_EDGE('',*,*,#335,.T.);
#445=ORIENTED_EDGE('',*,*,#293,.T.);
#446=ORIENTED_EDGE('',*,*,#336,.T.);
#447=ORIENTED_EDGE('',*,*,#291,.T.);
#448=ORIENTED_EDGE('',*,*,#337,.T.);
#449=ORIENTED_EDGE('',*,*,#296,.T.);
#450=ORIENTED_EDGE('',*,*,#338,.T.);
#451=ORIENTED_EDGE('',*,*,#311,.F.);
#452=ORIENTED_EDGE('',*,*,#330,.F.);
#453=ORIENTED_EDGE('',*,*,#304,.F.);
#454=ORIENTED_EDGE('',*,*,#338,.F.);
#455=ORIENTED_EDGE('',*,*,#278,.T.);
#456=ORIENTED_EDGE('',*,*,#275,.T.);
#457=ORIENTED_EDGE('',*,*,#272,.T.);
#458=ORIENTED_EDGE('',*,*,#269,.T.);
#459=ORIENTED_EDGE('',*,*,#317,.F.);
#460=ORIENTED_EDGE('',*,*,#336,.F.);
#461=ORIENTED_EDGE('',*,*,#303,.F.);
#462=ORIENTED_EDGE('',*,*,#319,.F.);
#463=ORIENTED_EDGE('',*,*,#318,.F.);
#464=ORIENTED_EDGE('',*,*,#329,.F.);
#465=ORIENTED_EDGE('',*,*,#327,.F.);
#466=ORIENTED_EDGE('',*,*,#325,.F.);
#467=ORIENTED_EDGE('',*,*,#324,.F.);
#468=ORIENTED_EDGE('',*,*,#328,.F.);
#469=ORIENTED_EDGE('',*,*,#312,.F.);
#470=ORIENTED_EDGE('',*,*,#332,.F.);
#471=ORIENTED_EDGE('',*,*,#323,.F.);
#472=ORIENTED_EDGE('',*,*,#334,.F.);
#473=ORIENTED_EDGE('',*,*,#316,.F.);
#474=ORIENTED_EDGE('',*,*,#326,.F.);
#475=ORIENTED_EDGE('',*,*,#286,.T.);
#476=ORIENTED_EDGE('',*,*,#283,.T.);
#477=ORIENTED_EDGE('',*,*,#279,.T.);
#478=ORIENTED_EDGE('',*,*,#289,.T.);
#479=ORIENTED_EDGE('',*,*,#331,.F.);
#480=ORIENTED_EDGE('',*,*,#337,.F.);
#481=ORIENTED_EDGE('',*,*,#335,.F.);
#482=ORIENTED_EDGE('',*,*,#333,.F.);
#483=PLANE('',#545);
#484=PLANE('',#549);
#485=PLANE('',#553);
#486=PLANE('',#557);
#487=PLANE('',#561);
#488=PLANE('',#562);
#489=PLANE('',#607);
#490=PLANE('',#608);
#491=PLANE('',#609);
#492=PLANE('',#610);
#493=PLANE('',#611);
#494=PLANE('',#612);
#495=ADVANCED_FACE('',(#73),#483,.T.);
#496=ADVANCED_FACE('',(#74),#57,.F.);
#497=ADVANCED_FACE('',(#75),#484,.T.);
#498=ADVANCED_FACE('',(#76),#58,.F.);
#499=ADVANCED_FACE('',(#77),#485,.T.);
#500=ADVANCED_FACE('',(#78),#59,.T.);
#501=ADVANCED_FACE('',(#79),#486,.T.);
#502=ADVANCED_FACE('',(#80),#60,.T.);
#503=ADVANCED_FACE('',(#81),#487,.T.);
#504=ADVANCED_FACE('',(#82),#488,.F.);
#505=ADVANCED_FACE('',(#83),#17,.T.);
#506=ADVANCED_FACE('',(#84),#18,.T.);
#507=ADVANCED_FACE('',(#85),#19,.T.);
#508=ADVANCED_FACE('',(#86),#20,.T.);
#509=ADVANCED_FACE('',(#87),#61,.T.);
#510=ADVANCED_FACE('',(#88),#21,.T.);
#511=ADVANCED_FACE('',(#89),#22,.T.);
#512=ADVANCED_FACE('',(#90),#62,.T.);
#513=ADVANCED_FACE('',(#91),#23,.T.);
#514=ADVANCED_FACE('',(#92),#63,.T.);
#515=ADVANCED_FACE('',(#93),#64,.T.);
#516=ADVANCED_FACE('',(#94),#24,.T.);
#517=ADVANCED_FACE('',(#95),#65,.T.);
#518=ADVANCED_FACE('',(#96),#66,.T.);
#519=ADVANCED_FACE('',(#97),#67,.T.);
#520=ADVANCED_FACE('',(#98),#68,.T.);
#521=ADVANCED_FACE('',(#99),#69,.T.);
#522=ADVANCED_FACE('',(#100),#70,.T.);
#523=ADVANCED_FACE('',(#101),#71,.T.);
#524=ADVANCED_FACE('',(#102),#72,.T.);
#525=ADVANCED_FACE('',(#103,#15),#489,.T.);
#526=ADVANCED_FACE('',(#104),#490,.T.);
#527=ADVANCED_FACE('',(#105),#491,.T.);
#528=ADVANCED_FACE('',(#106),#492,.T.);
#529=ADVANCED_FACE('',(#107,#16),#493,.T.);
#530=ADVANCED_FACE('',(#108),#494,.T.);
#531=CLOSED_SHELL('',(#495,#496,#497,#498,#499,#500,#501,#502,#503,#504,
#505,#506,#507,#508,#509,#510,#511,#512,#513,#514,#515,#516,#517,#518,#519,
#520,#521,#522,#523,#524,#525,#526,#527,#528,#529,#530));
#532=DERIVED_UNIT_ELEMENT(#534,1.);
#533=DERIVED_UNIT_ELEMENT(#945,-3.);
#534=(
MASS_UNIT()
NAMED_UNIT(*)
SI_UNIT(.KILO.,.GRAM.)
);
#535=DERIVED_UNIT((#532,#533));
#536=MEASURE_REPRESENTATION_ITEM('density measure',
POSITIVE_RATIO_MEASURE(7850.),#535);
#537=PROPERTY_DEFINITION_REPRESENTATION(#542,#539);
#538=PROPERTY_DEFINITION_REPRESENTATION(#543,#540);
#539=REPRESENTATION('material name',(#541),#942);
#540=REPRESENTATION('density',(#536),#942);
#541=DESCRIPTIVE_REPRESENTATION_ITEM('Steel','Steel');
#542=PROPERTY_DEFINITION('material property','material name',#952);
#543=PROPERTY_DEFINITION('material property','density of part',#952);
#544=AXIS2_PLACEMENT_3D('',#791,#613,#614);
#545=AXIS2_PLACEMENT_3D('',#792,#615,#616);
#546=AXIS2_PLACEMENT_3D('',#801,#621,#622);
#547=AXIS2_PLACEMENT_3D('',#803,#623,#624);
#548=AXIS2_PLACEMENT_3D('',#805,#625,#626);
#549=AXIS2_PLACEMENT_3D('',#807,#628,#629);
#550=AXIS2_PLACEMENT_3D('',#813,#633,#634);
#551=AXIS2_PLACEMENT_3D('',#814,#635,#636);
#552=AXIS2_PLACEMENT_3D('',#815,#637,#638);
#553=AXIS2_PLACEMENT_3D('',#816,#639,#640);
#554=AXIS2_PLACEMENT_3D('',#825,#645,#646);
#555=AXIS2_PLACEMENT_3D('',#827,#647,#648);
#556=AXIS2_PLACEMENT_3D('',#830,#650,#651);
#557=AXIS2_PLACEMENT_3D('',#831,#652,#653);
#558=AXIS2_PLACEMENT_3D('',#837,#657,#658);
#559=AXIS2_PLACEMENT_3D('',#838,#659,#660);
#560=AXIS2_PLACEMENT_3D('',#839,#661,#662);
#561=AXIS2_PLACEMENT_3D('',#840,#663,#664);
#562=AXIS2_PLACEMENT_3D('',#841,#665,#666);
#563=AXIS2_PLACEMENT_3D('',#842,#667,#668);
#564=AXIS2_PLACEMENT_3D('',#845,#669,#670);
#565=AXIS2_PLACEMENT_3D('',#847,#671,#672);
#566=AXIS2_PLACEMENT_3D('',#848,#673,#674);
#567=AXIS2_PLACEMENT_3D('',#849,#675,#676);
#568=AXIS2_PLACEMENT_3D('',#852,#677,#678);
#569=AXIS2_PLACEMENT_3D('',#854,#679,#680);
#570=AXIS2_PLACEMENT_3D('',#855,#681,#682);
#571=AXIS2_PLACEMENT_3D('',#856,#683,#684);
#572=AXIS2_PLACEMENT_3D('',#859,#685,#686);
#573=AXIS2_PLACEMENT_3D('',#861,#687,#688);
#574=AXIS2_PLACEMENT_3D('',#862,#689,#690);
#575=AXIS2_PLACEMENT_3D('',#863,#691,#692);
#576=AXIS2_PLACEMENT_3D('',#866,#693,#694);
#577=AXIS2_PLACEMENT_3D('',#868,#695,#696);
#578=AXIS2_PLACEMENT_3D('',#869,#697,#698);
#579=AXIS2_PLACEMENT_3D('',#870,#699,#700);
#580=AXIS2_PLACEMENT_3D('',#873,#703,#704);
#581=AXIS2_PLACEMENT_3D('',#876,#705,#706);
#582=AXIS2_PLACEMENT_3D('',#878,#707,#708);
#583=AXIS2_PLACEMENT_3D('',#879,#709,#710);
#584=AXIS2_PLACEMENT_3D('',#880,#711,#712);
#585=AXIS2_PLACEMENT_3D('',#883,#713,#714);
#586=AXIS2_PLACEMENT_3D('',#885,#715,#716);
#587=AXIS2_PLACEMENT_3D('',#886,#717,#718);
#588=AXIS2_PLACEMENT_3D('',#887,#719,#720);
#589=AXIS2_PLACEMENT_3D('',#890,#723,#724);
#590=AXIS2_PLACEMENT_3D('',#893,#725,#726);
#591=AXIS2_PLACEMENT_3D('',#895,#727,#728);
#592=AXIS2_PLACEMENT_3D('',#896,#729,#730);
#593=AXIS2_PLACEMENT_3D('',#897,#731,#732);
#594=AXIS2_PLACEMENT_3D('',#900,#735,#736);
#595=AXIS2_PLACEMENT_3D('',#903,#739,#740);
#596=AXIS2_PLACEMENT_3D('',#906,#741,#742);
#597=AXIS2_PLACEMENT_3D('',#908,#743,#744);
#598=AXIS2_PLACEMENT_3D('',#909,#745,#746);
#599=AXIS2_PLACEMENT_3D('',#910,#747,#748);
#600=AXIS2_PLACEMENT_3D('',#913,#751,#752);
#601=AXIS2_PLACEMENT_3D('',#916,#755,#756);
#602=AXIS2_PLACEMENT_3D('',#919,#759,#760);
#603=AXIS2_PLACEMENT_3D('',#922,#763,#764);
#604=AXIS2_PLACEMENT_3D('',#925,#767,#768);
#605=AXIS2_PLACEMENT_3D('',#928,#771,#772);
#606=AXIS2_PLACEMENT_3D('',#931,#775,#776);
#607=AXIS2_PLACEMENT_3D('',#934,#779,#780);
#608=AXIS2_PLACEMENT_3D('',#935,#781,#782);
#609=AXIS2_PLACEMENT_3D('',#936,#783,#784);
#610=AXIS2_PLACEMENT_3D('',#937,#785,#786);
#611=AXIS2_PLACEMENT_3D('',#938,#787,#788);
#612=AXIS2_PLACEMENT_3D('',#939,#789,#790);
#613=DIRECTION('axis',(0.,0.,1.));
#614=DIRECTION('refdir',(1.,0.,0.));
#615=DIRECTION('center_axis',(0.,8.32667249081823E-16,1.));
#616=DIRECTION('ref_axis',(0.,-1.,8.32667249081823E-16));
#617=DIRECTION('',(0.,1.,-8.32667249081823E-16));
#618=DIRECTION('',(1.,0.,0.));
#619=DIRECTION('',(0.,-1.,8.32667249081823E-16));
#620=DIRECTION('',(1.,0.,0.));
#621=DIRECTION('center_axis',(1.,0.,0.));
#622=DIRECTION('ref_axis',(0.,0.800000006705522,-0.599999991059304));
#623=DIRECTION('center_axis',(1.,0.,0.));
#624=DIRECTION('ref_axis',(0.,0.800000006705522,-0.599999991059304));
#625=DIRECTION('center_axis',(-1.,0.,0.));
#626=DIRECTION('ref_axis',(0.,0.800000006705522,-0.599999991059304));
#627=DIRECTION('',(1.,0.,0.));
#628=DIRECTION('center_axis',(0.,0.,-1.));
#629=DIRECTION('ref_axis',(0.,1.,0.));
#630=DIRECTION('',(0.,-1.,0.));
#631=DIRECTION('',(0.,1.,0.));
#632=DIRECTION('',(1.,0.,0.));
#633=DIRECTION('center_axis',(1.,0.,0.));
#634=DIRECTION('ref_axis',(0.,-0.800000006705522,0.599999991059304));
#635=DIRECTION('center_axis',(1.,0.,0.));
#636=DIRECTION('ref_axis',(0.,-0.800000006705522,0.599999991059304));
#637=DIRECTION('center_axis',(-1.,0.,0.));
#638=DIRECTION('ref_axis',(0.,-0.800000006705522,0.599999991059304));
#639=DIRECTION('center_axis',(0.,0.,-1.));
#640=DIRECTION('ref_axis',(0.,-1.,0.));
#641=DIRECTION('',(0.,1.,0.));
#642=DIRECTION('',(-1.,0.,0.));
#643=DIRECTION('',(0.,-1.,0.));
#644=DIRECTION('',(-1.,0.,0.));
#645=DIRECTION('center_axis',(-1.,0.,0.));
#646=DIRECTION('ref_axis',(0.,-0.682624590357648,0.730769230769231));
#647=DIRECTION('center_axis',(1.,0.,0.));
#648=DIRECTION('ref_axis',(0.,-0.682624590357648,0.730769230769231));
#649=DIRECTION('',(-1.,0.,0.));
#650=DIRECTION('center_axis',(-1.,0.,0.));
#651=DIRECTION('ref_axis',(0.,-0.682624590357648,0.730769230769231));
#652=DIRECTION('center_axis',(0.,0.,1.));
#653=DIRECTION('ref_axis',(0.,1.,0.));
#654=DIRECTION('',(0.,-1.,0.));
#655=DIRECTION('',(-1.,0.,0.));
#656=DIRECTION('',(0.,1.,0.));
#657=DIRECTION('center_axis',(-1.,0.,0.));
#658=DIRECTION('ref_axis',(0.,0.682624590357649,-0.73076923076923));
#659=DIRECTION('center_axis',(1.,0.,0.));
#660=DIRECTION('ref_axis',(0.,0.682624590357649,-0.73076923076923));
#661=DIRECTION('center_axis',(-1.,0.,0.));
#662=DIRECTION('ref_axis',(0.,0.682624590357649,-0.73076923076923));
#663=DIRECTION('center_axis',(1.,0.,0.));
#664=DIRECTION('ref_axis',(0.,0.,-1.));
#665=DIRECTION('center_axis',(1.,0.,0.));
#666=DIRECTION('ref_axis',(0.,0.,-1.));
#667=DIRECTION('center_axis',(0.408248290463863,-0.408248290463863,-0.816496580927726));
#668=DIRECTION('ref_axis',(0.577350269189626,-0.577350269189626,0.577350269189626));
#669=DIRECTION('center_axis',(0.,0.,1.));
#670=DIRECTION('ref_axis',(1.,0.,0.));
#671=DIRECTION('center_axis',(0.,-1.,0.));
#672=DIRECTION('ref_axis',(0.,0.,1.));
#673=DIRECTION('center_axis',(1.,0.,0.));
#674=DIRECTION('ref_axis',(0.,-1.,0.));
#675=DIRECTION('center_axis',(-0.408248290463863,-0.816496580927726,0.408248290463863));
#676=DIRECTION('ref_axis',(0.577350269189626,-0.577350269189626,-0.577350269189626));
#677=DIRECTION('center_axis',(1.,0.,0.));
#678=DIRECTION('ref_axis',(0.,0.,-1.));
#679=DIRECTION('center_axis',(0.,-1.,0.));
#680=DIRECTION('ref_axis',(1.,0.,0.));
#681=DIRECTION('center_axis',(0.,0.,-1.));
#682=DIRECTION('ref_axis',(0.,-1.,0.));
#683=DIRECTION('center_axis',(0.408248290463863,-0.816496580927726,-0.408248290463863));
#684=DIRECTION('ref_axis',(-0.577350269189626,-0.577350269189626,0.577350269189626));
#685=DIRECTION('center_axis',(-1.,0.,0.));
#686=DIRECTION('ref_axis',(0.,0.,1.));
#687=DIRECTION('center_axis',(0.,-1.,0.));
#688=DIRECTION('ref_axis',(-1.,0.,0.));
#689=DIRECTION('center_axis',(0.,0.,1.));
#690=DIRECTION('ref_axis',(0.,-1.,0.));
#691=DIRECTION('center_axis',(0.408248290463863,0.408248290463863,-0.816496580927726));
#692=DIRECTION('ref_axis',(0.577350269189626,0.577350269189626,0.577350269189626));
#693=DIRECTION('center_axis',(1.,0.,0.));
#694=DIRECTION('ref_axis',(0.,0.,1.));
#695=DIRECTION('center_axis',(0.,1.,0.));
#696=DIRECTION('ref_axis',(1.,0.,0.));
#697=DIRECTION('center_axis',(0.,0.,1.));
#698=DIRECTION('ref_axis',(0.,1.,0.));
#699=DIRECTION('center_axis',(0.,1.,0.));
#700=DIRECTION('ref_axis',(0.707106781186548,0.,0.707106781186548));
#701=DIRECTION('',(0.,-1.,0.));
#702=DIRECTION('',(0.,1.,0.));
#703=DIRECTION('center_axis',(0.408248290463863,-0.816496580927726,0.408248290463863));
#704=DIRECTION('ref_axis',(-0.577350269189626,-0.577350269189626,-0.577350269189626));
#705=DIRECTION('center_axis',(0.,0.,-1.));
#706=DIRECTION('ref_axis',(-1.,0.,0.));
#707=DIRECTION('center_axis',(0.,-1.,0.));
#708=DIRECTION('ref_axis',(0.,0.,-1.));
#709=DIRECTION('center_axis',(-1.,0.,0.));
#710=DIRECTION('ref_axis',(0.,-1.,0.));
#711=DIRECTION('center_axis',(0.408248290463863,-0.816496580927726,-0.408248290463863));
#712=DIRECTION('ref_axis',(0.577350269189626,0.577350269189626,-0.577350269189626));
#713=DIRECTION('center_axis',(0.,0.,-1.));
#714=DIRECTION('ref_axis',(1.,0.,0.));
#715=DIRECTION('center_axis',(0.,1.,0.));
#716=DIRECTION('ref_axis',(0.,0.,-1.));
#717=DIRECTION('center_axis',(1.,0.,0.));
#718=DIRECTION('ref_axis',(0.,1.,0.));
#719=DIRECTION('center_axis',(0.,1.,0.));
#720=DIRECTION('ref_axis',(0.707106781186547,0.,-0.707106781186548));
#721=DIRECTION('',(0.,-1.,0.));
#722=DIRECTION('',(0.,1.,0.));
#723=DIRECTION('center_axis',(-0.408248290463863,-0.816496580927726,0.408248290463863));
#724=DIRECTION('ref_axis',(-0.577350269189625,0.577350269189626,0.577350269189626));
#725=DIRECTION('center_axis',(0.,0.,1.));
#726=DIRECTION('ref_axis',(-1.,0.,0.));
#727=DIRECTION('center_axis',(0.,1.,0.));
#728=DIRECTION('ref_axis',(0.,0.,1.));
#729=DIRECTION('center_axis',(-1.,0.,0.));
#730=DIRECTION('ref_axis',(0.,1.,0.));
#731=DIRECTION('center_axis',(0.,1.,0.));
#732=DIRECTION('ref_axis',(-0.707106781186548,0.,0.707106781186547));
#733=DIRECTION('',(0.,-1.,0.));
#734=DIRECTION('',(0.,1.,0.));
#735=DIRECTION('center_axis',(1.,0.,0.));
#736=DIRECTION('ref_axis',(0.,0.707106781186547,0.707106781186548));
#737=DIRECTION('',(-1.,0.,0.));
#738=DIRECTION('',(1.,0.,0.));
#739=DIRECTION('center_axis',(-0.408248290463863,-0.816496580927726,-0.408248290463863));
#740=DIRECTION('ref_axis',(-0.577350269189625,0.577350269189626,-0.577350269189626));
#741=DIRECTION('center_axis',(-1.,0.,0.));
#742=DIRECTION('ref_axis',(0.,0.,-1.));
#743=DIRECTION('center_axis',(0.,1.,0.));
#744=DIRECTION('ref_axis',(-1.,0.,0.));
#745=DIRECTION('center_axis',(0.,0.,-1.));
#746=DIRECTION('ref_axis',(0.,1.,0.));
#747=DIRECTION('center_axis',(0.,-1.,0.));
#748=DIRECTION('ref_axis',(-0.707106781186548,0.,-0.707106781186548));
#749=DIRECTION('',(0.,1.,0.));
#750=DIRECTION('',(0.,-1.,0.));
#751=DIRECTION('center_axis',(0.,0.,1.));
#752=DIRECTION('ref_axis',(-0.707106781186548,0.707106781186547,0.));
#753=DIRECTION('',(0.,0.,-1.));
#754=DIRECTION('',(0.,0.,1.));
#755=DIRECTION('center_axis',(-1.,0.,0.));
#756=DIRECTION('ref_axis',(0.,0.707106781186547,-0.707106781186548));
#757=DIRECTION('',(1.,0.,0.));
#758=DIRECTION('',(-1.,0.,0.));
#759=DIRECTION('center_axis',(1.25775016776309E-32,0.,-1.));
#760=DIRECTION('ref_axis',(0.707106781186548,0.707106781186547,0.));
#761=DIRECTION('',(-1.25775016776309E-32,0.,1.));
#762=DIRECTION('',(1.25775016776309E-32,0.,-1.));
#763=DIRECTION('center_axis',(1.,0.,0.));
#764=DIRECTION('ref_axis',(0.,-0.707106781186547,-0.707106781186548));
#765=DIRECTION('',(-1.,0.,0.));
#766=DIRECTION('',(1.,0.,0.));
#767=DIRECTION('center_axis',(0.,0.,-1.));
#768=DIRECTION('ref_axis',(-0.707106781186548,-0.707106781186547,0.));
#769=DIRECTION('',(0.,0.,1.));
#770=DIRECTION('',(0.,0.,-1.));
#771=DIRECTION('center_axis',(-1.,0.,0.));
#772=DIRECTION('ref_axis',(0.,-0.707106781186547,0.707106781186548));
#773=DIRECTION('',(1.,0.,0.));
#774=DIRECTION('',(-1.,0.,0.));
#775=DIRECTION('center_axis',(-1.25775016776309E-32,0.,1.));
#776=DIRECTION('ref_axis',(0.707106781186548,-0.707106781186547,0.));
#777=DIRECTION('',(1.25775016776309E-32,0.,-1.));
#778=DIRECTION('',(-1.25775016776309E-32,0.,1.));
#779=DIRECTION('center_axis',(1.,0.,1.25775016776309E-32));
#780=DIRECTION('ref_axis',(1.25775016776309E-32,0.,-1.));
#781=DIRECTION('center_axis',(0.,0.,1.));
#782=DIRECTION('ref_axis',(1.,0.,0.));
#783=DIRECTION('center_axis',(0.,1.,0.));
#784=DIRECTION('ref_axis',(0.,0.,1.));
#785=DIRECTION('center_axis',(0.,0.,-1.));
#786=DIRECTION('ref_axis',(-1.,0.,0.));
#787=DIRECTION('center_axis',(-1.,0.,0.));
#788=DIRECTION('ref_axis',(0.,0.,1.));
#789=DIRECTION('center_axis',(0.,-1.,0.));
#790=DIRECTION('ref_axis',(0.,0.,-1.));
#791=CARTESIAN_POINT('',(0.,0.,0.));
#792=CARTESIAN_POINT('Origin',(-6.,2.00000004656613,-6.40000000000003));
#793=CARTESIAN_POINT('',(-6.,-2.00000004656613,-6.40000000000002));
#794=CARTESIAN_POINT('',(-6.,2.00000004656613,-6.40000000000003));
#795=CARTESIAN_POINT('',(-6.,1.00000002328306,-6.40000000000003));
#796=CARTESIAN_POINT('',(0.,-2.00000004656613,-6.40000000000002));
#797=CARTESIAN_POINT('',(-6.,-2.00000004656613,-6.40000000000002));
#798=CARTESIAN_POINT('',(0.,2.00000004656613,-6.40000000000003));
#799=CARTESIAN_POINT('',(0.,2.00000004656613,-6.40000000000003));
#800=CARTESIAN_POINT('',(-6.,2.00000004656613,-6.40000000000003));
#801=CARTESIAN_POINT('Origin',(-6.,-2.77555756156289E-16,-4.90000000000002));
#802=CARTESIAN_POINT('',(-6.,2.00000004656613,-3.40000000000002));
#803=CARTESIAN_POINT('Origin',(-6.,-2.77555756156289E-16,-4.90000000000002));
#804=CARTESIAN_POINT('',(0.,2.00000004656613,-3.40000000000002));
#805=CARTESIAN_POINT('Origin',(0.,-2.77555756156289E-16,-4.90000000000002));
#806=CARTESIAN_POINT('',(-6.,2.00000004656613,-3.40000000000002));
#807=CARTESIAN_POINT('Origin',(-6.,-2.00000004656613,-3.40000000000002));
#808=CARTESIAN_POINT('',(-6.,-2.00000004656613,-3.40000000000002));
#809=CARTESIAN_POINT('',(-6.,-1.00000002328306,-3.40000000000002));
#810=CARTESIAN_POINT('',(0.,-2.00000004656613,-3.40000000000002));
#811=CARTESIAN_POINT('',(0.,-2.00000004656613,-3.40000000000002));
#812=CARTESIAN_POINT('',(-6.,-2.00000004656613,-3.40000000000002));
#813=CARTESIAN_POINT('Origin',(-6.,-2.77555756156289E-16,-4.90000000000002));
#814=CARTESIAN_POINT('Origin',(-6.,-2.77555756156289E-16,-4.90000000000002));
#815=CARTESIAN_POINT('Origin',(0.,-2.77555756156289E-16,-4.90000000000002));
#816=CARTESIAN_POINT('Origin',(-6.,1.77482393492989,-6.80000000000002));
#817=CARTESIAN_POINT('',(-12.,-1.77482393492989,-6.80000000000002));
#818=CARTESIAN_POINT('',(-12.,1.77482393492989,-6.80000000000002));
#819=CARTESIAN_POINT('',(-12.,0.887411967464943,-6.80000000000002));
#820=CARTESIAN_POINT('',(-24.,-1.77482393492989,-6.80000000000002));
#821=CARTESIAN_POINT('',(-6.,-1.77482393492989,-6.80000000000002));
#822=CARTESIAN_POINT('',(-24.,1.77482393492989,-6.80000000000002));
#823=CARTESIAN_POINT('',(-24.,-1.77482393492989,-6.80000000000002));
#824=CARTESIAN_POINT('',(-6.,1.77482393492989,-6.80000000000002));
#825=CARTESIAN_POINT('Origin',(-6.,0.,-4.90000000000002));
#826=CARTESIAN_POINT('',(-12.,-1.77482393492989,-3.00000000000002));
#827=CARTESIAN_POINT('Origin',(-12.,0.,-4.90000000000002));
#828=CARTESIAN_POINT('',(-24.,-1.77482393492989,-3.00000000000002));
#829=CARTESIAN_POINT('',(-6.,-1.77482393492989,-3.00000000000002));
#830=CARTESIAN_POINT('Origin',(-24.,0.,-4.90000000000002));
#831=CARTESIAN_POINT('Origin',(-6.,-1.77482393492989,-3.00000000000002));
#832=CARTESIAN_POINT('',(-12.,1.77482393492989,-3.00000000000002));
#833=CARTESIAN_POINT('',(-12.,-0.887411967464944,-3.00000000000002));
#834=CARTESIAN_POINT('',(-24.,1.77482393492989,-3.00000000000002));
#835=CARTESIAN_POINT('',(-6.,1.77482393492989,-3.00000000000002));
#836=CARTESIAN_POINT('',(-24.,1.77482393492989,-3.00000000000002));
#837=CARTESIAN_POINT('Origin',(-6.,0.,-4.90000000000002));
#838=CARTESIAN_POINT('Origin',(-12.,0.,-4.90000000000002));
#839=CARTESIAN_POINT('Origin',(-24.,0.,-4.90000000000002));
#840=CARTESIAN_POINT('Origin',(-6.,-1.11022302462516E-15,-4.90000000000002));
#841=CARTESIAN_POINT('Origin',(-24.,-1.11022302462516E-15,-4.90000000000002));
#842=CARTESIAN_POINT('Origin',(-2.,-2.9,-2.));
#843=CARTESIAN_POINT('',(0.,-2.9,-2.));
#844=CARTESIAN_POINT('',(-2.,-4.9,-2.));
#845=CARTESIAN_POINT('Origin',(-2.,-2.9,-2.));
#846=CARTESIAN_POINT('',(-2.,-2.9,0.));
#847=CARTESIAN_POINT('Origin',(-2.,-2.9,-2.));
#848=CARTESIAN_POINT('Origin',(-2.,-2.9,-2.));
#849=CARTESIAN_POINT('Origin',(-2.,-2.9,-7.8));
#850=CARTESIAN_POINT('',(-2.,-2.9,-9.8));
#851=CARTESIAN_POINT('',(-2.,-4.9,-7.8));
#852=CARTESIAN_POINT('Origin',(-2.,-2.9,-7.8));
#853=CARTESIAN_POINT('',(6.72896339753254E-32,-2.9,-7.8));
#854=CARTESIAN_POINT('Origin',(-2.,-2.9,-7.8));
#855=CARTESIAN_POINT('Origin',(-2.,-2.9,-7.8));
#856=CARTESIAN_POINT('Origin',(-10.,-2.9,-2.));
#857=CARTESIAN_POINT('',(-10.,-2.9,0.));
#858=CARTESIAN_POINT('',(-10.,-4.9,-2.));
#859=CARTESIAN_POINT('Origin',(-10.,-2.9,-2.));
#860=CARTESIAN_POINT('',(-12.,-2.9,-2.));
#861=CARTESIAN_POINT('Origin',(-10.,-2.9,-2.));
#862=CARTESIAN_POINT('Origin',(-10.,-2.9,-2.));
#863=CARTESIAN_POINT('Origin',(-2.,2.9,-2.));
#864=CARTESIAN_POINT('',(-2.,2.9,0.));
#865=CARTESIAN_POINT('',(-2.,4.9,-2.));
#866=CARTESIAN_POINT('Origin',(-2.,2.9,-2.));
#867=CARTESIAN_POINT('',(-5.65987575493392E-33,2.9,-2.));
#868=CARTESIAN_POINT('Origin',(-2.,2.9,-2.));
#869=CARTESIAN_POINT('Origin',(-2.,2.9,-2.));
#870=CARTESIAN_POINT('Origin',(-2.,0.,-2.));
#871=CARTESIAN_POINT('',(-2.,0.,0.));
#872=CARTESIAN_POINT('',(0.,0.,-2.));
#873=CARTESIAN_POINT('Origin',(-10.,-2.9,-7.8));
#874=CARTESIAN_POINT('',(-12.,-2.9,-7.8));
#875=CARTESIAN_POINT('',(-10.,-4.9,-7.8));
#876=CARTESIAN_POINT('Origin',(-10.,-2.9,-7.8));
#877=CARTESIAN_POINT('',(-10.,-2.9,-9.8));
#878=CARTESIAN_POINT('Origin',(-10.,-2.9,-7.8));
#879=CARTESIAN_POINT('Origin',(-10.,-2.9,-7.8));
#880=CARTESIAN_POINT('Origin',(-2.,2.9,-7.8));
#881=CARTESIAN_POINT('',(0.,2.9,-7.8));
#882=CARTESIAN_POINT('',(-2.,4.9,-7.8));
#883=CARTESIAN_POINT('Origin',(-2.,2.9,-7.8));
#884=CARTESIAN_POINT('',(-2.,2.9,-9.8));
#885=CARTESIAN_POINT('Origin',(-2.,2.9,-7.8));
#886=CARTESIAN_POINT('Origin',(-2.,2.9,-7.8));
#887=CARTESIAN_POINT('Origin',(-2.,0.,-7.8));
#888=CARTESIAN_POINT('',(0.,0.,-7.8));
#889=CARTESIAN_POINT('',(-2.,0.,-9.8));
#890=CARTESIAN_POINT('Origin',(-10.,2.9,-2.));
#891=CARTESIAN_POINT('',(-12.,2.9,-2.));
#892=CARTESIAN_POINT('',(-10.,4.9,-2.));
#893=CARTESIAN_POINT('Origin',(-10.,2.9,-2.));
#894=CARTESIAN_POINT('',(-10.,2.9,0.));
#895=CARTESIAN_POINT('Origin',(-10.,2.9,-2.));
#896=CARTESIAN_POINT('Origin',(-10.,2.9,-2.));
#897=CARTESIAN_POINT('Origin',(-10.,0.,-2.));
#898=CARTESIAN_POINT('',(-12.,0.,-2.));
#899=CARTESIAN_POINT('',(-10.,0.,0.));
#900=CARTESIAN_POINT('Origin',(-9.,2.9,-2.));
#901=CARTESIAN_POINT('',(-9.,4.9,-2.));
#902=CARTESIAN_POINT('',(-9.,2.9,0.));
#903=CARTESIAN_POINT('Origin',(-10.,2.9,-7.8));
#904=CARTESIAN_POINT('',(-10.,2.9,-9.8));
#905=CARTESIAN_POINT('',(-10.,4.9,-7.8));
#906=CARTESIAN_POINT('Origin',(-10.,2.9,-7.8));
#907=CARTESIAN_POINT('',(-12.,2.9,-7.8));
#908=CARTESIAN_POINT('Origin',(-10.,2.9,-7.8));
#909=CARTESIAN_POINT('Origin',(-10.,2.9,-7.8));
#910=CARTESIAN_POINT('Origin',(-10.,0.,-7.8));
#911=CARTESIAN_POINT('',(-12.,0.,-7.8));
#912=CARTESIAN_POINT('',(-10.,0.,-9.8));
#913=CARTESIAN_POINT('Origin',(-10.,2.9,-7.35));
#914=CARTESIAN_POINT('',(-10.,4.9,-7.35));
#915=CARTESIAN_POINT('',(-12.,2.9,-7.35));
#916=CARTESIAN_POINT('Origin',(-3.,2.9,-7.8));
#917=CARTESIAN_POINT('',(-3.,4.9,-7.8));
#918=CARTESIAN_POINT('',(-3.,2.9,-9.8));
#919=CARTESIAN_POINT('Origin',(-2.,2.9,-2.45));
#920=CARTESIAN_POINT('',(-2.,4.9,-2.45));
#921=CARTESIAN_POINT('',(0.,2.9,-2.45));
#922=CARTESIAN_POINT('Origin',(-3.,-2.9,-7.8));
#923=CARTESIAN_POINT('',(-3.,-4.9,-7.8));
#924=CARTESIAN_POINT('',(-3.,-2.9,-9.8));
#925=CARTESIAN_POINT('Origin',(-10.,-2.9,-7.35));
#926=CARTESIAN_POINT('',(-10.,-4.9,-7.35));
#927=CARTESIAN_POINT('',(-12.,-2.9,-7.35));
#928=CARTESIAN_POINT('Origin',(-9.,-2.9,-2.));
#929=CARTESIAN_POINT('',(-9.,-4.9,-2.));
#930=CARTESIAN_POINT('',(-9.,-2.9,0.));
#931=CARTESIAN_POINT('Origin',(-2.,-2.9,-2.45));
#932=CARTESIAN_POINT('',(-2.,-4.9,-2.45));
#933=CARTESIAN_POINT('',(0.,-2.9,-2.45));
#934=CARTESIAN_POINT('Origin',(1.3684555315672E-47,0.,0.));
#935=CARTESIAN_POINT('Origin',(-12.,0.,0.));
#936=CARTESIAN_POINT('Origin',(-6.,4.9,-4.9));
#937=CARTESIAN_POINT('Origin',(0.,0.,-9.8));
#938=CARTESIAN_POINT('Origin',(-12.,0.,-9.8));
#939=CARTESIAN_POINT('Origin',(-6.,-4.9,-4.9));
#940=UNCERTAINTY_MEASURE_WITH_UNIT(LENGTH_MEASURE(0.01),#944,
'DISTANCE_ACCURACY_VALUE',
'Maximum model space distance between geometric entities at asserted c
onnectivities');
#941=UNCERTAINTY_MEASURE_WITH_UNIT(LENGTH_MEASURE(0.01),#944,
'DISTANCE_ACCURACY_VALUE',
'Maximum model space distance between geometric entities at asserted c
onnectivities');
#942=(
GEOMETRIC_REPRESENTATION_CONTEXT(3)
GLOBAL_UNCERTAINTY_ASSIGNED_CONTEXT((#940))
GLOBAL_UNIT_ASSIGNED_CONTEXT((#944,#946,#947))
REPRESENTATION_CONTEXT('','3D')
);
#943=(
GEOMETRIC_REPRESENTATION_CONTEXT(3)
GLOBAL_UNCERTAINTY_ASSIGNED_CONTEXT((#941))
GLOBAL_UNIT_ASSIGNED_CONTEXT((#944,#946,#947))
REPRESENTATION_CONTEXT('','3D')
);
#944=(
LENGTH_UNIT()
NAMED_UNIT(*)
SI_UNIT(.MILLI.,.METRE.)
);
#945=(
LENGTH_UNIT()
NAMED_UNIT(*)
SI_UNIT($,.METRE.)
);
#946=(
NAMED_UNIT(*)
PLANE_ANGLE_UNIT()
SI_UNIT($,.RADIAN.)
);
#947=(
NAMED_UNIT(*)
SI_UNIT($,.STERADIAN.)
SOLID_ANGLE_UNIT()
);
#948=SHAPE_DEFINITION_REPRESENTATION(#949,#950);
#949=PRODUCT_DEFINITION_SHAPE('',$,#952);
#950=SHAPE_REPRESENTATION('',(#544),#942);
#951=PRODUCT_DEFINITION_CONTEXT('part definition',#956,'design');
#952=PRODUCT_DEFINITION('2026-05-07-15-39-08-686','DC Wheel Spoke CAD',
#953,#951);
#953=PRODUCT_DEFINITION_FORMATION('',$,#958);
#954=PRODUCT_RELATED_PRODUCT_CATEGORY('DC Wheel Spoke CAD',
'DC Wheel Spoke CAD',(#958));
#955=APPLICATION_PROTOCOL_DEFINITION('international standard',
'automotive_design',2009,#956);
#956=APPLICATION_CONTEXT(
'Core Data for Automotive Mechanical Design Process');
#957=PRODUCT_CONTEXT('part definition',#956,'mechanical');
#958=PRODUCT('2026-05-07-15-39-08-686','DC Wheel Spoke CAD',$,(#957));
#959=PRESENTATION_STYLE_ASSIGNMENT((#960));
#960=SURFACE_STYLE_USAGE(.BOTH.,#961);
#961=SURFACE_SIDE_STYLE('',(#962));
#962=SURFACE_STYLE_FILL_AREA(#963);
#963=FILL_AREA_STYLE('Steel - Satin',(#964));
#964=FILL_AREA_STYLE_COLOUR('Steel - Satin',#965);
#965=COLOUR_RGB('Steel - Satin',0.627450980392157,0.627450980392157,0.627450980392157);
ENDSEC;
END-ISO-10303-21;
