0
SECTION
2
HEADER
9
$INSUNITS
70
4
9
$ACADVER
1
AC1014
9
$HANDSEED
5
FFFF
0
ENDSEC
0
SECTION
2
TABLES
0
TABLE
2
VPORT
5
8
100
AcDbSymbolTable
0
ENDTAB
0
TABLE
2
LTYPE
5
5
100
AcDbSymbolTable
0
LTYPE
5
14
100
AcDbSymbolTableRecord
100
AcDbLinetypeTableRecord
2
BYBLOCK
70
0
0
LTYPE
5
15
100
AcDbSymbolTableRecord
100
AcDbLinetypeTableRecord
2
BYLAYER
70
0
0
LTYPE
5
16
100
AcDbSymbolTableRecord
100
AcDbLinetypeTableRecord
2
DASHED
70
0
3
Dashed __ __ __ __ __ __ __ __ __ __ __ __ __ _
72
65
73
2
40
0.75
49
0.5
74
0
49
-0.25
74
0
0
ENDTAB
0
TABLE
2
LAYER
5
2
100
AcDbSymbolTable
70
2
0
LAYER
5
50
100
AcDbSymbolTableRecord
100
AcDbLayerTableRecord
2
0
70
0
62
7
6
CONTINUOUS
0
ENDTAB
0
TABLE
2
STYLE
5
3
100
AcDbSymbolTable
70
1
0
STYLE
5
11
100
AcDbSymbolTableRecord
100
AcDbTextStyleTableRecord
2
STANDARD
70
0
0
ENDTAB
0
TABLE
2
VIEW
5
6
100
AcDbSymbolTable
70
0
0
ENDTAB
0
TABLE
2
UCS
5
7
100
AcDbSymbolTable
70
0
0
ENDTAB
0
TABLE
2
APPID
5
9
100
AcDbSymbolTable
70
2
0
APPID
5
12
100
AcDbSymbolTableRecord
100
AcDbRegAppTableRecord
2
ACAD
70
0
0
ENDTAB
0
TABLE
2
DIMSTYLE
5
A
100
AcDbSymbolTable
70
1
0
ENDTAB
0
TABLE
2
BLOCK_RECORD
5
1
100
AcDbSymbolTable
70
1
0
BLOCK_RECORD
5
1F
100
AcDbSymbolTableRecord
100
AcDbBlockTableRecord
2
*MODEL_SPACE
0
BLOCK_RECORD
5
1B
100
AcDbSymbolTableRecord
100
AcDbBlockTableRecord
2
*PAPER_SPACE
0
ENDTAB
0
ENDSEC
0
SECTION
2
BLOCKS
0
BLOCK
5
20
100
AcDbEntity
100
AcDbBlockBegin
2
*MODEL_SPACE
0
ENDBLK
5
21
100
AcDbEntity
100
AcDbBlockEnd
0
BLOCK
5
1C
100
AcDbEntity
100
AcDbBlockBegin
2
*PAPER_SPACE
0
ENDBLK
5
1D
100
AcDbEntity
100
AcDbBlockEnd
0
ENDSEC
0
SECTION
2
ENTITIES
0
CIRCLE
5
100
100
AcDbEntity
8
0
100
AcDbCircle
10
-49.999999403953552
20
-9.9999994039535522
30
0
40
1.3999999999999968
210
0
220
0
230
1
0
ARC
5
101
100
AcDbEntity
8
0
100
AcDbCircle
10
-50
20
-20
30
0
40
12.686000000000002
210
-0
220
0
230
1
100
AcDbArc
50
345.6995947680773
51
350.3004052319227
0
ARC
5
102
100
AcDbEntity
8
0
100
AcDbCircle
10
-37.002498343647751
20
-22.221609032462855
30
0
40
0.50000000000000144
210
0
220
-0
230
1
100
AcDbArc
50
82.473525164799426
51
170.30040523192278
0
LINE
5
103
100
AcDbEntity
8
0
100
AcDbLine
10
-36.93700619454097
20
-21.725916811013519
30
0
11
-36.52250839180919
21
-21.780681341757155
31
0
0
SPLINE
5
104
100
AcDbEntity
8
0
100
AcDbSpline
70
4
71
5
72
81
73
75
74
0
42
0.000000001
43
0.0000000001
44
0.0000000001
40
0
40
0
40
0
40
0
40
0
40
0
40
0.014285714285714285
40
0.028571428571428571
40
0.042857142857142858
40
0.057142857142857141
40
0.071428571428571425
40
0.085714285714285715
40
0.10000000000000001
40
0.1142857142857143
40
0.12857142857142859
40
0.14285714285714288
40
0.15714285714285717
40
0.17142857142857146
40
0.18571428571428575
40
0.20000000000000004
40
0.21428571428571433
40
0.22857142857142862
40
0.24285714285714291
40
0.25714285714285717
40
0.27142857142857146
40
0.28571428571428575
40
0.30000000000000004
40
0.31428571428571433
40
0.32857142857142863
40
0.34285714285714292
40
0.35714285714285721
40
0.3714285714285715
40
0.38571428571428579
40
0.40000000000000008
40
0.41428571428571437
40
0.42857142857142866
40
0.44285714285714295
40
0.45714285714285724
40
0.47142857142857153
40
0.48571428571428582
40
0.50000000000000011
40
0.51428571428571435
40
0.52857142857142858
40
0.54285714285714282
40
0.55714285714285705
40
0.57142857142857129
40
0.58571428571428552
40
0.59999999999999976
40
0.61428571428571399
40
0.62857142857142823
40
0.64285714285714246
40
0.6571428571428567
40
0.67142857142857093
40
0.68571428571428517
40
0.6999999999999994
40
0.71428571428571364
40
0.72857142857142787
40
0.74285714285714211
40
0.75714285714285634
40
0.77142857142857058
40
0.78571428571428481
40
0.79999999999999905
40
0.81428571428571328
40
0.82857142857142752
40
0.84285714285714175
40
0.85714285714285599
40
0.87142857142857022
40
0.88571428571428445
40
0.89999999999999869
40
0.91428571428571292
40
0.92857142857142716
40
0.94285714285714139
40
0.95714285714285563
40
0.97142857142856986
40
0.9857142857142841
40
1
40
1
40
1
40
1
40
1
40
1
41
1
41
1
41
1
41
1
41
1
41
1
41
1
41
1
41
1
41
1
41
1
41
1
41
1
41
1
41
1
41
1
41
1
41
1
41
1
41
1
41
1
41
1
41
1
41
1
41
1
41
1
41
1
41
1
41
1
41
1
41
1
41
1
41
1
41
1
41
1
41
1
41
1
41
1
41
1
41
1
41
1
41
1
41
1
41
1
41
1
41
1
41
1
41
1
41
1
41
1
41
1
41
1
41
1
41
1
41
1
41
1
41
1
41
1
41
1
41
1
41
1
41
1
41
1
41
1
41
1
41
1
41
1
41
1
41
1
41
1
41
1
41
1
41
1
41
1
41
1
10
-36.52250839180919
20
-21.780681341757155
30
0
10
-36.512445834652425
20
-21.782010833052745
30
0
10
-36.492300036870724
20
-21.784340457929371
30
0
10
-36.462019290530293
20
-21.786846838377656
30
0
10
-36.421525953679783
20
-21.788311176574055
30
0
10
-36.370740956208266
20
-21.787583230658871
30
0
10
-36.319826626863318
20
-21.785019618617596
30
0
10
-36.268822956783815
20
-21.781330128522818
30
0
10
-36.21776220434068
20
-21.777030080322604
30
0
10
-36.166662304250877
20
-21.772306187366667
30
0
10
-36.115531544546727
20
-21.767131699464105
30
0
10
-36.064371925952656
20
-21.761352853690322
30
0
10
-36.013182826968169
20
-21.754780974073928
30
0
10
-35.96196499543592
20
-21.747294539889491
30
0
10
-35.910722896416814
20
-21.738896460526298
30
0
10
-35.859462969072389
20
-21.729661392352433
30
0
10
-35.80819266575854
20
-21.719703874673549
30
0
10
-35.756919270009632
20
-21.709141016535874
30
0
10
-35.705648595486124
20
-21.698050856196094
30
0
10
-35.654384504756926
20
-21.68645660794807
30
0
10
-35.603129667814187
20
-21.674349544592904
30
0
10
-35.551886030884532
20
-21.661702869668321
30
0
10
-35.500655358288135
20
-21.64848789972396
30
0
10
-35.449439848105968
20
-21.634692471363103
30
0
10
-35.398242294974345
20
-21.620325571524809
30
0
10
-35.347065790996844
20
-21.605407899847012
30
0
10
-35.295913546683224
20
-21.589966093560044
30
0
10
-35.244788681070119
20
-21.574026033720052
30
0
10
-35.19369397962528
20
-21.557605147077183
30
0
10
-35.142631862716193
20
-21.540711260814529
30
0
10
-35.091604518447156
20
-21.523346569224401
30
0
10
-35.04061399001337
20
-21.505510196139479
30
0
10
-34.989662273367102
20
-21.487201091678095
30
0
10
-34.938751429914404
20
-21.468421393172065
30
0
10
-34.887883600418917
20
-21.449176780641093
30
0
10
-34.837060953738742
20
-21.429474849464039
30
0
10
-34.786285653583192
20
-21.409324047579222
30
0
10
-34.735559821017844
20
-21.388732485207061
30
0
10
-34.684885489588709
20
-21.367706549943854
30
0
10
-34.634264604928703
20
-21.346250805490609
30
0
10
-34.583699051879421
20
-21.324368693608633
30
0
10
-34.533190673527443
20
-21.302063010568489
30
0
10
-34.482741291310063
20
-21.279336434349887
30
0
10
-34.432352728710718
20
-21.25619214431336
30
0
10
-34.382026812186403
20
-21.232633888954382
30
0
10
-34.331765357296746
20
-21.20866568884033
30
0
10
-34.281570158098148
20
-21.184291645241089
30
0
10
-34.231442976441954
20
-21.159515726758926
30
0
10
-34.181385526451621
20
-21.13434152248724
30
0
10
-34.131399479171627
20
-21.108772210724943
30
0
10
-34.08148648195283
20
-21.082810697476365
30
0
10
-34.031648174157027
20
-21.056459711837174
30
0
10
-33.981886201330568
20
-21.029721911918191
30
0
10
-33.932202235593294
20
-21.002600013123761
30
0
10
-33.882597968847421
20
-20.975096814298524
30
0
10
-33.833075080280317
20
-20.947215119642838
30
0
10
-33.783635208054896
20
-20.918957689253883
30
0
10
-33.734279923651243
20
-20.890327186239475
30
0
10
-33.685010692275313
20
-20.861326114560931
30
0
10
-33.635828881582583
20
-20.831956811345265
30
0
10
-33.586735838187423
20
-20.802221518450487
30
0
10
-33.537732950779066
20
-20.772122439908912
30
0
10
-33.488821710142282
20
-20.741661801240994
30
0
10
-33.440003788806806
20
-20.710841926089021
30
0
10
-33.391281050678572
20
-20.679665258175884
30
0
10
-33.342655390690339
20
-20.648134245028217
30
0
10
-33.294128604718765
20
-20.616251250260682
30
0
10
-33.245702252090737
20
-20.584018458810625
30
0
10
-33.197377507504669
20
-20.551437783333736
30
0
10
-33.149155054202964
20
-20.518510785031502
30
0
10
-33.101035223144649
20
-20.485238678970635
30
0
10
-33.062621525310192
20
-20.458345600171633
30
0
10
-33.033857453357442
20
-20.438021114841419
30
0
10
-33.014701932500515
20
-20.424402735787673
30
0
10
-33.005129303851923
20
-20.417576365719494
30
0
0
ARC
5
105
100
AcDbEntity
8
0
100
AcDbCircle
10
-50
20
-20
30
0
40
17.000000000000004
210
-0
220
0
230
1
100
AcDbArc
50
-1.4075158796523539
51
1.4075158796523528
0
SPLINE
5
106
100
AcDbEntity
8
0
100
AcDbSpline
70
4
71
5
72
81
73
75
74
0
42
0.000000001
43
0.0000000001
44
0.0000000001
40
-1
40
-1
40
-1
40
-1
40
-1
40
-1
40
-0.9857142857142841
40
-0.97142857142856986
40
-0.95714285714285563
40
-0.94285714285714139
40
-0.92857142857142716
40
-0.91428571428571292
40
-0.89999999999999869
40
-0.88571428571428445
40
-0.87142857142857022
40
-0.85714285714285599
40
-0.84285714285714175
40
-0.82857142857142752
40
-0.81428571428571328
40
-0.79999999999999905
40
-0.78571428571428481
40
-0.77142857142857058
40
-0.75714285714285634
40
-0.74285714285714211
40
-0.72857142857142787
40
-0.71428571428571364
40
-0.6999999999999994
40
-0.68571428571428517
40
-0.67142857142857093
40
-0.6571428571428567
40
-0.64285714285714246
40
-0.62857142857142823
40
-0.61428571428571399
40
-0.59999999999999976
40
-0.58571428571428552
40
-0.57142857142857129
40
-0.55714285714285705
40
-0.54285714285714282
40
-0.52857142857142858
40
-0.51428571428571435
40
-0.50000000000000011
40
-0.48571428571428582
40
-0.47142857142857153
40
-0.45714285714285724
40
-0.44285714285714295
40
-0.42857142857142866
40
-0.41428571428571437
40
-0.40000000000000008
40
-0.38571428571428579
40
-0.3714285714285715
40
-0.35714285714285721
40
-0.34285714285714292
40
-0.32857142857142863
40
-0.31428571428571433
40
-0.30000000000000004
40
-0.28571428571428575
40
-0.27142857142857146
40
-0.25714285714285717
40
-0.24285714285714291
40
-0.22857142857142862
40
-0.21428571428571433
40
-0.20000000000000004
40
-0.18571428571428575
40
-0.17142857142857146
40
-0.15714285714285717
40
-0.14285714285714288
40
-0.12857142857142859
40
-0.1142857142857143
40
-0.10000000000000001
40
-0.085714285714285715
40
-0.071428571428571425
40
-0.057142857142857141
40
-0.042857142857142858
40
-0.028571428571428571
40
-0.014285714285714285
40
0
40
0
40
0
40
0
40
0
40
0
41
1
41
1
41
1
41
1
41
1
41
1
41
1
41
1
41
1
41
1
41
1
41
1
41
1
41
1
41
1
41
1
41
1
41
1
41
1
41
1
41
1
41
1
41
1
41
1
41
1
41
1
41
1
41
1
41
1
41
1
41
1
41
1
41
1
41
1
41
1
41
1
41
1
41
1
41
1
41
1
41
1
41
1
41
1
41
1
41
1
41
1
41
1
41
1
41
1
41
1
41
1
41
1
41
1
41
1
41
1
41
1
41
1
41
1
41
1
41
1
41
1
41
1
41
1
41
1
41
1
41
1
41
1
41
1
41
1
41
1
41
1
41
1
41
1
41
1
41
1
10
-33.005129303851923
20
-19.582423634280506
30
0
10
-33.014701932500515
20
-19.575597264212327
30
0
10
-33.033857453357442
20
-19.561978885158581
30
0
10
-33.062621525310192
20
-19.541654399828367
30
0
10
-33.101035223144649
20
-19.514761321029365
30
0
10
-33.149155054202964
20
-19.481489214968498
30
0
10
-33.197377507504669
20
-19.448562216666264
30
0
10
-33.245702252090737
20
-19.415981541189375
30
0
10
-33.294128604718765
20
-19.383748749739318
30
0
10
-33.342655390690339
20
-19.351865754971783
30
0
10
-33.391281050678572
20
-19.320334741824116
30
0
10
-33.440003788806806
20
-19.289158073910979
30
0
10
-33.488821710142282
20
-19.258338198759006
30
0
10
-33.537732950779066
20
-19.227877560091088
30
0
10
-33.586735838187423
20
-19.197778481549513
30
0
10
-33.635828881582583
20
-19.168043188654735
30
0
10
-33.685010692275313
20
-19.138673885439069
30
0
10
-33.734279923651243
20
-19.109672813760525
30
0
10
-33.783635208054896
20
-19.081042310746117
30
0
10
-33.833075080280317
20
-19.052784880357162
30
0
10
-33.882597968847421
20
-19.024903185701476
30
0
10
-33.932202235593294
20
-18.997399986876239
30
0
10
-33.981886201330568
20
-18.970278088081809
30
0
10
-34.031648174157027
20
-18.943540288162826
30
0
10
-34.08148648195283
20
-18.917189302523635
30
0
10
-34.131399479171627
20
-18.891227789275057
30
0
10
-34.181385526451621
20
-18.86565847751276
30
0
10
-34.231442976441954
20
-18.840484273241074
30
0
10
-34.281570158098148
20
-18.815708354758911
30
0
10
-34.331765357296746
20
-18.79133431115967
30
0
10
-34.382026812186403
20
-18.767366111045618
30
0
10
-34.432352728710718
20
-18.74380785568664
30
0
10
-34.482741291310063
20
-18.720663565650113
30
0
10
-34.533190673527443
20
-18.697936989431511
30
0
10
-34.583699051879421
20
-18.675631306391367
30
0
10
-34.634264604928703
20
-18.653749194509391
30
0
10
-34.684885489588709
20
-18.632293450056146
30
0
10
-34.735559821017844
20
-18.611267514792939
30
0
10
-34.786285653583192
20
-18.590675952420778
30
0
10
-34.837060953738742
20
-18.570525150535961
30
0
10
-34.887883600418917
20
-18.550823219358907
30
0
10
-34.938751429914404
20
-18.531578606827935
30
0
10
-34.989662273367102
20
-18.512798908321905
30
0
10
-35.04061399001337
20
-18.494489803860521
30
0
10
-35.091604518447156
20
-18.476653430775599
30
0
10
-35.142631862716193
20
-18.459288739185471
30
0
10
-35.19369397962528
20
-18.442394852922817
30
0
10
-35.244788681070119
20
-18.425973966279948
30
0
10
-35.295913546683224
20
-18.410033906439956
30
0
10
-35.347065790996844
20
-18.394592100152988
30
0
10
-35.398242294974345
20
-18.379674428475191
30
0
10
-35.449439848105968
20
-18.365307528636897
30
0
10
-35.500655358288135
20
-18.35151210027604
30
0
10
-35.551886030884532
20
-18.338297130331679
30
0
10
-35.603129667814187
20
-18.325650455407096
30
0
10
-35.654384504756926
20
-18.31354339205193
30
0
10
-35.705648595486124
20
-18.301949143803906
30
0
10
-35.756919270009632
20
-18.290858983464126
30
0
10
-35.80819266575854
20
-18.280296125326451
30
0
10
-35.859462969072389
20
-18.270338607647567
30
0
10
-35.910722896416814
20
-18.261103539473702
30
0
10
-35.96196499543592
20
-18.252705460110509
30
0
10
-36.013182826968169
20
-18.245219025926072
30
0
10
-36.064371925952656
20
-18.238647146309678
30
0
10
-36.115531544546727
20
-18.232868300535895
30
0
10
-36.166662304250877
20
-18.227693812633333
30
0
10
-36.21776220434068
20
-18.222969919677396
30
0
10
-36.268822956783815
20
-18.218669871477182
30
0
10
-36.319826626863318
20
-18.214980381382404
30
0
10
-36.370740956208266
20
-18.212416769341129
30
0
10
-36.421525953679783
20
-18.211688823425945
30
0
10
-36.462019290530293
20
-18.213153161622344
30
0
10
-36.492300036870724
20
-18.215659542070629
30
0
10
-36.512445834652425
20
-18.217989166947255
30
0
10
-36.52250839180919
20
-18.219318658242845
30
0
0
LINE
5
107
100
AcDbEntity
8
0
100
AcDbLine
10
-36.522508391809197
20
-18.219318658242841
30
0
11
-36.937006194540977
21
-18.274083188986477
31
0
0
ARC
5
108
100
AcDbEntity
8
0
100
AcDbCircle
10
-37.002498343647751
20
-17.778390967537145
30
0
40
0.49999999999999817
210
0
220
0
230
1
100
AcDbArc
50
189.6995947680773
51
277.52647483519985
0
ARC
5
109
100
AcDbEntity
8
0
100
AcDbCircle
10
-50
20
-20
30
0
40
12.686000000000002
210
0
220
-0
230
1
100
AcDbArc
50
9.6995947680773398
51
14.30040523192266
0
ARC
5
110
100
AcDbEntity
8
0
100
AcDbCircle
10
-37.222581601046407
20
-16.742980648187352
30
0
40
0.49999999999999994
210
0
220
0
230
1
100
AcDbArc
50
106.47352516479921
51
194.30040523192193
0
LINE
5
111
100
AcDbEntity
8
0
100
AcDbLine
10
-37.364367735869742
20
-16.263505214018032
30
0
11
-36.963430409587005
21
-16.144943657473384
31
0
0
SPLINE
5
112
100
AcDbEntity
8
0
100
AcDbSpline
70
4
71
5
72
81
73
75
74
0
42
0.000000001
43
0.0000000001
44
0.0000000001
40
0
40
0
40
0
40
0
40
0
40
0
40
0.014285714285714285
40
0.028571428571428571
40
0.042857142857142858
40
0.057142857142857141
40
0.071428571428571425
40
0.085714285714285715
40
0.10000000000000001
40
0.1142857142857143
40
0.12857142857142859
40
0.14285714285714288
40
0.15714285714285717
40
0.17142857142857146
40
0.18571428571428575
40
0.20000000000000004
40
0.21428571428571433
40
0.22857142857142862
40
0.24285714285714291
40
0.25714285714285717
40
0.27142857142857146
40
0.28571428571428575
40
0.30000000000000004
40
0.31428571428571433
40
0.32857142857142863
40
0.34285714285714292
40
0.35714285714285721
40
0.3714285714285715
40
0.38571428571428579
40
0.40000000000000008
40
0.41428571428571437
40
0.42857142857142866
40
0.44285714285714295
40
0.45714285714285724
40
0.47142857142857153
40
0.48571428571428582
40
0.50000000000000011
40
0.51428571428571435
40
0.52857142857142858
40
0.54285714285714282
40
0.55714285714285705
40
0.57142857142857129
40
0.58571428571428552
40
0.59999999999999976
40
0.61428571428571399
40
0.62857142857142823
40
0.64285714285714246
40
0.6571428571428567
40
0.67142857142857093
40
0.68571428571428517
40
0.6999999999999994
40
0.71428571428571364
40
0.72857142857142787
40
0.74285714285714211
40
0.75714285714285634
40
0.77142857142857058
40
0.78571428571428481
40
0.79999999999999905
40
0.81428571428571328
40
0.82857142857142752
40
0.84285714285714175
40
0.85714285714285599
40
0.87142857142857022
40
0.88571428571428445
40
0.89999999999999869
40
0.91428571428571292
40
0.92857142857142716
40
0.94285714285714139
40
0.95714285714285563
40
0.97142857142856986
40
0.9857142857142841
40
1
40
1
40
1
40
1
40
1
40
1
41
1
41
1
41
1
41
1
41
1
41
1
41
1
41
1
41
1
41
1
41
1
41
1
41
1
41
1
41
1
41
1
41
1
41
1
41
1
41
1
41
1
41
1
41
1
41
1
41
1
41
1
41
1
41
1
41
1
41
1
41
1
41
1
41
1
41
1
41
1
41
1
41
1
41
1
41
1
41
1
41
1
41
1
41
1
41
1
41
1
41
1
41
1
41
1
41
1
41
1
41
1
41
1
41
1
41
1
41
1
41
1
41
1
41
1
41
1
41
1
41
1
41
1
41
1
41
1
41
1
41
1
41
1
41
1
41
1
41
1
41
1
41
1
41
1
41
1
41
1
10
-36.963430409587005
20
-16.144943657473384
30
0
10
-36.953697053377596
20
-16.142065397488739
30
0
10
-36.93434540752159
20
-16.135999581550983
30
0
10
-36.905663132478459
20
-16.125972984908302
30
0
10
-36.868075028531557
20
-16.110840600518557
30
0
10
-36.82197670705294
20
-16.089519469444159
30
0
10
-36.776506867706757
20
-16.066468769906479
30
0
10
-36.73141334739833
20
-16.042353191436685
30
0
10
-36.686516016110119
20
-16.017656622894094
30
0
10
-36.641755314860234
20
-15.992556930117768
30
0
10
-36.597149695425827
20
-15.967033046638779
30
0
10
-36.552763526575362
20
-15.940945316803731
30
0
10
-36.508672981971131
20
-15.914121123748973
30
0
10
-36.464928171733327
20
-15.886449756942795
30
0
10
-36.421531991542821
20
-15.857935690348439
30
0
10
-36.378459958385854
20
-15.828649744994806
30
0
10
-36.335672292995596
20
-15.798699588890512
30
0
10
-36.293128016671474
20
-15.768195168953106
30
0
10
-36.250800699438031
20
-15.737210141306255
30
0
10
-36.208684427823584
20
-15.705767284310955
30
0
10
-36.166785190658921
20
-15.673859711257965
30
0
10
-36.125115665013638
20
-15.641463733962571
30
0
10
-36.083689129284735
20
-15.608553866402639
30
0
10
-36.042512538818265
20
-15.575119890802437
30
0
10
-36.001584791324092
20
-15.541171153820308
30
0
10
-35.96090029227814
20
-15.506727823188289
30
0
10
-35.920451140289401
20
-15.471815539059115
30
0
10
-35.8802296579657
20
-15.436459213580562
30
0
10
-35.840231301860612
20
-15.400675899832867
30
0
10
-35.800455099487678
20
-15.364473732755748
30
0
10
-35.760902157280547
20
-15.327855606917158
30
0
10
-35.721574698160275
20
-15.290821552940791
30
0
10
-35.682474972545336
20
-15.25337142353894
30
0
10
-35.64360399429269
20
-15.215508009710748
30
0
10
-35.6049614088151
20
-15.177237371139437
30
0
10
-35.566546108144109
20
-15.13856732870293
30
0
10
-35.528356632840485
20
-15.099506480036769
30
0
10
-35.490391621870209
20
-15.060063096911062
30
0
10
-35.452650334900532
20
-15.020243841803076
30
0
10
-35.415132693131142
20
-14.980053675221336
30
0
10
-35.37783901856006
20
-14.939496508005394
30
0
10
-35.340769857584974
20
-14.898575644326364
30
0
10
-35.303925784939182
20
-14.857294271485749
30
0
10
-35.267307173295244
20
-14.815656035651452
30
0
10
-35.230914166554186
20
-14.773665104131455
30
0
10
-35.194746788000174
20
-14.731325888351465
30
0
10
-35.158805008448581
20
-14.688642864716437
30
0
10
-35.12308882325469
20
-14.645620375334442
30
0
10
-35.08759833853243
20
-14.602262396202281
30
0
10
-35.052333788126226
20
-14.558572510515489
30
0
10
-35.017295494987565
20
-14.514554043079094
30
0
10
-34.982483846724733
20
-14.470210153834566
30
0
10
-34.947899265468081
20
-14.425543940390963
30
0
10
-34.913542174320604
20
-14.380558563505996
30
0
10
-34.879412980519234
20
-14.335257268210109
30
0
10
-34.845512077506946
20
-14.289643299254822
30
0
10
-34.811839839187328
20
-14.243719844415278
30
0
10
-34.778396617995369
20
-14.19748997574005
30
0
10
-34.74518273401047
20
-14.150956576664576
30
0
10
-34.712198486052905
20
-14.104122338536227
30
0
10
-34.679444192470299
20
-14.056989857111603
30
0
10
-34.646920225432694
20
-14.009561710705224
30
0
10
-34.614627041639039
20
-13.961840538787985
30
0
10
-34.582565223910791
20
-13.913829144391855
30
0
10
-34.550735481059114
20
-13.865530518087636
30
0
10
-34.519138548692453
20
-13.816947666540758
30
0
10
-34.487775106057079
20
-13.768083479469496
30
0
10
-34.456645688974902
20
-13.718940587148829
30
0
10
-34.425750592639169
20
-13.669521214669555
30
0
10
-34.39508980622503
20
-13.619827066159926
30
0
10
-34.36466313786643
20
-13.569859386251784
30
0
10
-34.340508879291185
20
-13.52966707776762
30
0
10
-34.322498304950891
20
-13.499400334448017
30
0
10
-34.310537959663733
20
-13.479168073873304
30
0
10
-34.30456946309004
20
-13.469038335663397
30
0
0
ARC
5
113
100
AcDbEntity
8
0
100
AcDbCircle
10
-50
20
-20
30
0
40
17
210
0
220
-0
230
1
100
AcDbArc
50
22.592484120347642
51
25.407515879652273
0
SPLINE
5
114
100
AcDbEntity
8
0
100
AcDbSpline
70
4
71
5
72
81
73
75
74
0
42
0.000000001
43
0.0000000001
44
0.0000000001
40
-1
40
-1
40
-1
40
-1
40
-1
40
-1
40
-0.9857142857142841
40
-0.97142857142856986
40
-0.95714285714285563
40
-0.94285714285714139
40
-0.92857142857142716
40
-0.91428571428571292
40
-0.89999999999999869
40
-0.88571428571428445
40
-0.87142857142857022
40
-0.85714285714285599
40
-0.84285714285714175
40
-0.82857142857142752
40
-0.81428571428571328
40
-0.79999999999999905
40
-0.78571428571428481
40
-0.77142857142857058
40
-0.75714285714285634
40
-0.74285714285714211
40
-0.72857142857142787
40
-0.71428571428571364
40
-0.6999999999999994
40
-0.68571428571428517
40
-0.67142857142857093
40
-0.6571428571428567
40
-0.64285714285714246
40
-0.62857142857142823
40
-0.61428571428571399
40
-0.59999999999999976
40
-0.58571428571428552
40
-0.57142857142857129
40
-0.55714285714285705
40
-0.54285714285714282
40
-0.52857142857142858
40
-0.51428571428571435
40
-0.50000000000000011
40
-0.48571428571428582
40
-0.47142857142857153
40
-0.45714285714285724
40
-0.44285714285714295
40
-0.42857142857142866
40
-0.41428571428571437
40
-0.40000000000000008
40
-0.38571428571428579
40
-0.3714285714285715
40
-0.35714285714285721
40
-0.34285714285714292
40
-0.32857142857142863
40
-0.31428571428571433
40
-0.30000000000000004
40
-0.28571428571428575
40
-0.27142857142857146
40
-0.25714285714285717
40
-0.24285714285714291
40
-0.22857142857142862
40
-0.21428571428571433
40
-0.20000000000000004
40
-0.18571428571428575
40
-0.17142857142857146
40
-0.15714285714285717
40
-0.14285714285714288
40
-0.12857142857142859
40
-0.1142857142857143
40
-0.10000000000000001
40
-0.085714285714285715
40
-0.071428571428571425
40
-0.057142857142857141
40
-0.042857142857142858
40
-0.028571428571428571
40
-0.014285714285714285
40
0
40
0
40
0
40
0
40
0
40
0
41
1
41
1
41
1
41
1
41
1
41
1
41
1
41
1
41
1
41
1
41
1
41
1
41
1
41
1
41
1
41
1
41
1
41
1
41
1
41
1
41
1
41
1
41
1
41
1
41
1
41
1
41
1
41
1
41
1
41
1
41
1
41
1
41
1
41
1
41
1
41
1
41
1
41
1
41
1
41
1
41
1
41
1
41
1
41
1
41
1
41
1
41
1
41
1
41
1
41
1
41
1
41
1
41
1
41
1
41
1
41
1
41
1
41
1
41
1
41
1
41
1
41
1
41
1
41
1
41
1
41
1
41
1
41
1
41
1
41
1
41
1
41
1
41
1
41
1
41
1
10
-34.644256681531118
20
-12.706088351419496
30
0
10
-34.655778247796661
20
-12.703745690893458
30
0
10
-34.67881678064473
20
-12.699095934818168
30
0
10
-34.713360780855936
20
-12.692227995633081
30
0
10
-34.75939184061653
20
-12.683284204159545
30
0
10
-34.816884478429657
20
-12.672460721351477
30
0
10
-34.874330498355818
20
-12.661994250395479
30
0
10
-34.931729103836773
20
-12.651885766697069
30
0
10
-34.989079035701664
20
-12.642136418585057
30
0
10
-35.046378442862938
20
-12.63274747556447
30
0
10
-35.103625012110527
20
-12.623720299439505
30
0
10
-35.160816141460757
20
-12.615056319030771
30
0
10
-35.217949104307671
20
-12.6067569995265
30
0
10
-35.275021203936788
20
-12.598823815259808
30
0
10
-35.332029967305743
20
-12.591258208704424
30
0
10
-35.388973127314145
20
-12.584061606617647
30
0
10
-35.445848518870548
20
-12.577235457652399
30
0
10
-35.502653999935703
20
-12.57078126213047
30
0
10
-35.55938737049896
20
-12.564700598848022
30
0
10
-35.616046273575286
20
-12.558995159334607
30
0
10
-35.672628190362623
20
-12.553666737281723
30
0
10
-35.729130501692026
20
-12.548717187862746
30
0
10
-35.785550532978476
20
-12.544148389855124
30
0
10
-35.841885600199689
20
-12.539962211972044
30
0
10
-35.898133071343771
20
-12.536160454746398
30
0
10
-35.954290361978224
20
-12.532744877179255
30
0
10
-36.010354864448331
20
-12.529717305635057
30
0
10
-36.066323891845741
20
-12.527079724842892
30
0
10
-36.122194624864733
20
-12.524834358648276
30
0
10
-36.177964037759821
20
-12.522983788654368
30
0
10
-36.233628906823725
20
-12.52153092375023
30
0
10
-36.289185924967661
20
-12.520478780923865
30
0
10
-36.344631798283245
20
-12.519830294691712
30
0
10
-36.399963333568579
20
-12.519588146587779
30
0
10
-36.455177571826177
20
-12.51975449942492
30
0
10
-36.510271759857822
20
-12.520331058814058
30
0
10
-36.565243076574426
20
-12.521319629624594
30
0
10
-36.620088400197076
20
-12.522722589427797
30
0
10
-36.674804097077221
20
-12.524543316011801
30
0
10
-36.729385711408682
20
-12.526786817618504
30
0
10
-36.783828006777796
20
-12.529459640587843
30
0
10
-36.83812557045168
20
-12.532568622435626
30
0
10
-36.892273331760975
20
-12.536119819731661
30
0
10
-36.9462670247486
20
-12.540117550705103
30
0
10
-37.000103896895297
20
-12.544562929456378
30
0
10
-37.053782551833251
20
-12.549454185043913
30
0
10
-37.107301479380141
20
-12.554789686006682
30
0
10
-37.160657788104118
20
-12.560570546948258
30
0
10
-37.213846083287308
20
-12.566802933904055
30
0
10
-37.266856732180429
20
-12.573501634050714
30
0
10
-37.319676358627845
20
-12.580689022283025
30
0
10
-37.372291195345284
20
-12.588388127089797
30
0
10
-37.424689998254337
20
-12.596616600859409
30
0
10
-37.476866559010276
20
-12.605381516888228
30
0
10
-37.528823816865341
20
-12.61467086932036
30
0
10
-37.580571826643173
20
-12.624457736906338
30
0
10
-37.632119709480413
20
-12.634716848258108
30
0
10
-37.683468575889393
20
-12.645439144699093
30
0
10
-37.734605455133931
20
-12.656644262493701
30
0
10
-37.785493295152335
20
-12.668401128508119
30
0
10
-37.836077809564529
20
-12.680813764699241
30
0
10
-37.886305602971987
20
-12.693983776783266
30
0
10
-37.936140427427354
20
-12.707976747703182
30
0
10
-37.985577020539331
20
-12.722793519214481
30
0
10
-38.034664126051545
20
-12.73832277243541
30
0
10
-38.083479053164204
20
-12.754392396076382
30
0
10
-38.132082515140397
20
-12.770861106948136
30
0
10
-38.180477820768644
20
-12.787701096488826
30
0
10
-38.228572642708691
20
-12.805075641124404
30
0
10
-38.276127911966512
20
-12.823442388391166
30
0
10
-38.322818398000884
20
-12.843433496097116
30
0
10
-38.359215301943124
20
-12.861241359502401
30
0
10
-38.385858703446651
20
-12.87584734109239
30
0
10
-38.403315261698765
20
-12.886169593478263
30
0
10
-38.411967112255034
20
-12.891476954931026
30
0
0
LINE
5
115
100
AcDbEntity
8
0
100
AcDbLine
10
-38.411967112255027
20
-12.891476954931028
30
0
11
-38.768354955749203
21
-13.110098288077218
31
0
0
ARC
5
116
100
AcDbEntity
8
0
100
AcDbCircle
10
-39.02980120122804
20
-12.683898967658918
30
0
40
0.50000000000000155
210
0
220
0
230
1
100
AcDbArc
50
213.69959476807747
51
301.52647483520008
0
ARC
5
117
100
AcDbEntity
8
0
100
AcDbCircle
10
-50
20
-20
30
0
40
12.686000000000002
210
0
220
-0
230
1
100
AcDbArc
50
33.699594768077347
51
38.300405231922639
0
ARC
5
118
100
AcDbEntity
8
0
100
AcDbCircle
10
-39.651996578826143
20
-11.827520498932156
30
0
40
0.50000000000000033
210
0
220
0
230
1
100
AcDbArc
50
130.47352516480007
51
218.30040523192258
0
LINE
5
119
100
AcDbEntity
8
0
100
AcDbLine
10
-39.976544886782051
20
-11.447167510508297
30
0
11
-39.658493743063886
21
-11.175780236899868
31
0
0
SPLINE
5
120
100
AcDbEntity
8
0
100
AcDbSpline
70
4
71
5
72
81
73
75
74
0
42
0.000000001
43
0.0000000001
44
0.0000000001
40
0
40
0
40
0
40
0
40
0
40
0
40
0.014285714285714285
40
0.028571428571428571
40
0.042857142857142858
40
0.057142857142857141
40
0.071428571428571425
40
0.085714285714285715
40
0.10000000000000001
40
0.1142857142857143
40
0.12857142857142859
40
0.14285714285714288
40
0.15714285714285717
40
0.17142857142857146
40
0.18571428571428575
40
0.20000000000000004
40
0.21428571428571433
40
0.22857142857142862
40
0.24285714285714291
40
0.25714285714285717
40
0.27142857142857146
40
0.28571428571428575
40
0.30000000000000004
40
0.31428571428571433
40
0.32857142857142863
40
0.34285714285714292
40
0.35714285714285721
40
0.3714285714285715
40
0.38571428571428579
40
0.40000000000000008
40
0.41428571428571437
40
0.42857142857142866
40
0.44285714285714295
40
0.45714285714285724
40
0.47142857142857153
40
0.48571428571428582
40
0.50000000000000011
40
0.51428571428571435
40
0.52857142857142858
40
0.54285714285714282
40
0.55714285714285705
40
0.57142857142857129
40
0.58571428571428552
40
0.59999999999999976
40
0.61428571428571399
40
0.62857142857142823
40
0.64285714285714246
40
0.6571428571428567
40
0.67142857142857093
40
0.68571428571428517
40
0.6999999999999994
40
0.71428571428571364
40
0.72857142857142787
40
0.74285714285714211
40
0.75714285714285634
40
0.77142857142857058
40
0.78571428571428481
40
0.79999999999999905
40
0.81428571428571328
40
0.82857142857142752
40
0.84285714285714175
40
0.85714285714285599
40
0.87142857142857022
40
0.88571428571428445
40
0.89999999999999869
40
0.91428571428571292
40
0.92857142857142716
40
0.94285714285714139
40
0.95714285714285563
40
0.97142857142856986
40
0.9857142857142841
40
1
40
1
40
1
40
1
40
1
40
1
41
1
41
1
41
1
41
1
41
1
41
1
41
1
41
1
41
1
41
1
41
1
41
1
41
1
41
1
41
1
41
1
41
1
41
1
41
1
41
1
41
1
41
1
41
1
41
1
41
1
41
1
41
1
41
1
41
1
41
1
41
1
41
1
41
1
41
1
41
1
41
1
41
1
41
1
41
1
41
1
41
1
41
1
41
1
41
1
41
1
41
1
41
1
41
1
41
1
41
1
41
1
41
1
41
1
41
1
41
1
41
1
41
1
41
1
41
1
41
1
41
1
41
1
41
1
41
1
41
1
41
1
41
1
41
1
41
1
41
1
41
1
41
1
41
1
41
1
41
1
10
-39.658493743063886
20
-11.175780236899868
30
0
10
-39.650772573515226
20
-11.169191902934505
30
0
10
-39.6355611549576
20
-11.15577948086421
30
0
10
-39.613436777137004
20
-11.134953596778852
30
0
10
-39.585253230743334
20
-11.105841016537354
30
0
10
-39.551812403831377
20
-11.067613317562897
30
0
10
-39.519649202787441
20
-11.028061205887894
30
0
10
-39.488262911573202
20
-10.987689341643678
30
0
10
-39.45729215789909
20
-10.946866513821
30
0
10
-39.426610187373427
20
-10.905730986128868
30
0
10
-39.396242425038288
20
-10.864271018404166
30
0
10
-39.366304477761375
20
-10.822385209995922
30
0
10
-39.336936143249503
20
-10.779946850172113
30
0
10
-39.30822822940538
20
-10.736875181451456
30
0
10
-39.280181561840323
20
-10.693175468782261
30
0
10
-39.252744968700782
20
-10.64890245225496
30
0
10
-39.225838317293835
20
-10.604138311804316
30
0
10
-39.199379452273568
20
-10.558966821398315
30
0
10
-39.173314270011446
20
-10.513444519214667
30
0
10
-39.147628103488195
20
-10.467589809095973
30
0
10
-39.122329224849999
20
-10.421398835597229
30
0
10
-39.097438850028922
20
-10.374855114713601
30
0
10
-39.07297947554332
20
-10.327940764615974
30
0
10
-39.048961611361754
20
-10.280649279895835
30
0
10
-39.025380448863693
20
-10.232988750808673
30
0
10
-39.002222674241416
20
-10.184975325996541
30
0
10
-38.979470640425411
20
-10.136629215119243
30
0
10
-38.957107201085599
20
-10.087970053879509
30
0
10
-38.935121269464481
20
-10.039011573055166
30
0
10
-38.91350864837343
20
-9.9897608087375733
30
0
10
-38.892269171263024
20
-9.9402208552732496
30
0
10
-38.871404856416909
20
-9.8903926447817625
30
0
10
-38.850917819601975
20
-9.840276958036771
30
0
10
-38.830807851821007
20
-9.7898767571156231
30
0
10
-38.811072164447246
20
-9.739197433590796
30
0
10
-38.791706564263521
20
-9.6882456815384188
30
0
10
-38.772706221032308
20
-9.6370287616819539
30
0
10
-38.754066526955157
20
-9.58555367707703
30
0
10
-38.735784095830823
20
-9.5338262130790064
30
0
10
-38.717856838051048
20
-9.4818508692869496
30
0
10
-38.700283457093917
20
-9.4296313493989725
30
0
10
-38.683063108191078
20
-9.3771708941655518
30
0
10
-38.666195019995214
20
-9.3244726490965579
30
0
10
-38.649678049929548
20
-9.2715400967117301
30
0
10
-38.633510634457373
20
-9.2183771025661621
30
0
10
-38.617691000561337
20
-9.1649877061682972
30
0
10
-38.602217300862009
20
-9.111375985047081
30
0
10
-38.58708776502182
20
-9.0575459040264406
30
0
10
-38.572300872797022
20
-9.0035011385206332
30
0
10
-38.557855380398237
20
-8.9492450570547355
30
0
10
-38.543750230536283
20
-8.8947808283455032
30
0
10
-38.529984492044974
20
-8.8401114967976024
30
0
10
-38.516557290648436
20
-8.7852400639135908
30
0
10
-38.50346772727454
20
-8.7301695892808162
30
0
10
-38.490714854079933
20
-8.6749032030202766
30
0
10
-38.478297710733301
20
-8.6194440293876706
30
0
10
-38.466215342227642
20
-8.5637951326407791
30
0
10
-38.454466821013582
20
-8.5079594625838517
30
0
10
-38.443051266699385
20
-8.4519397835542609
30
0
10
-38.431967857601336
20
-8.3957386757613151
30
0
10
-38.421215828755138
20
-8.3393586400303121
30
0
10
-38.410794471460051
20
-8.2828021831439802
30
0
10
-38.400703129361801
20
-8.2260719021351392
30
0
10
-38.390941194798458
20
-8.1691705947557658
30
0
10
-38.381508098926524
20
-8.1121012813277105
30
0
10
-38.372403290836758
20
-8.0548670077754281
30
0
10
-38.36362621569716
20
-7.997470690262265
30
0
10
-38.355176293176221
20
-7.9399149496023913
30
0
10
-38.347052887920412
20
-7.8822019385833109
30
0
10
-38.339255296909343
20
-7.8243332096007734
30
0
10
-38.331782838627277
20
-7.7663098216435866
30
0
10
-38.326064510053456
20
-7.7197678987468255
30
0
10
-38.321921625249985
20
-7.6847922923225376
30
0
10
-38.319224507889061
20
-7.6614444918845326
30
0
10
-38.317892150669941
20
-7.649762909295168
30
0
0
ARC
5
121
100
AcDbEntity
8
0
100
AcDbCircle
10
-50
20
-20
30
0
40
17.000000000000007
210
0
220
-0
230
1
100
AcDbArc
50
46.592484120347635
51
49.407515879652273
0
SPLINE
5
122
100
AcDbEntity
8
0
100
AcDbSpline
70
4
71
5
72
81
73
75
74
0
42
0.000000001
43
0.0000000001
44
0.0000000001
40
-1
40
-1
40
-1
40
-1
40
-1
40
-1
40
-0.9857142857142841
40
-0.97142857142856986
40
-0.95714285714285563
40
-0.94285714285714139
40
-0.92857142857142716
40
-0.91428571428571292
40
-0.89999999999999869
40
-0.88571428571428445
40
-0.87142857142857022
40
-0.85714285714285599
40
-0.84285714285714175
40
-0.82857142857142752
40
-0.81428571428571328
40
-0.79999999999999905
40
-0.78571428571428481
40
-0.77142857142857058
40
-0.75714285714285634
40
-0.74285714285714211
40
-0.72857142857142787
40
-0.71428571428571364
40
-0.6999999999999994
40
-0.68571428571428517
40
-0.67142857142857093
40
-0.6571428571428567
40
-0.64285714285714246
40
-0.62857142857142823
40
-0.61428571428571399
40
-0.59999999999999976
40
-0.58571428571428552
40
-0.57142857142857129
40
-0.55714285714285705
40
-0.54285714285714282
40
-0.52857142857142858
40
-0.51428571428571435
40
-0.50000000000000011
40
-0.48571428571428582
40
-0.47142857142857153
40
-0.45714285714285724
40
-0.44285714285714295
40
-0.42857142857142866
40
-0.41428571428571437
40
-0.40000000000000008
40
-0.38571428571428579
40
-0.3714285714285715
40
-0.35714285714285721
40
-0.34285714285714292
40
-0.32857142857142863
40
-0.31428571428571433
40
-0.30000000000000004
40
-0.28571428571428575
40
-0.27142857142857146
40
-0.25714285714285717
40
-0.24285714285714291
40
-0.22857142857142862
40
-0.21428571428571433
40
-0.20000000000000004
40
-0.18571428571428575
40
-0.17142857142857146
40
-0.15714285714285717
40
-0.14285714285714288
40
-0.12857142857142859
40
-0.1142857142857143
40
-0.10000000000000001
40
-0.085714285714285715
40
-0.071428571428571425
40
-0.057142857142857141
40
-0.042857142857142858
40
-0.028571428571428571
40
-0.014285714285714285
40
0
40
0
40
0
40
0
40
0
40
0
41
1
41
1
41
1
41
1
41
1
41
1
41
1
41
1
41
1
41
1
41
1
41
1
41
1
41
1
41
1
41
1
41
1
41
1
41
1
41
1
41
1
41
1
41
1
41
1
41
1
41
1
41
1
41
1
41
1
41
1
41
1
41
1
41
1
41
1
41
1
41
1
41
1
41
1
41
1
41
1
41
1
41
1
41
1
41
1
41
1
41
1
41
1
41
1
41
1
41
1
41
1
41
1
41
1
41
1
41
1
41
1
41
1
41
1
41
1
41
1
41
1
41
1
41
1
41
1
41
1
41
1
41
1
41
1
41
1
41
1
41
1
41
1
41
1
41
1
41
1
10
-38.938531581522149
20
-7.0909366557051356
30
0
10
-38.950009901927189
20
-7.093482772008608
30
0
10
-38.972947875138466
20
-7.0986056239788908
30
0
10
-39.007298832149218
20
-7.1063817600172996
30
0
10
-39.052988065424302
20
-7.1169337186668002
30
0
10
-39.109912510610116
20
-7.1304303376173017
30
0
10
-39.166649158434801
20
-7.1442341419207267
30
0
10
-39.223196884473019
20
-7.1583456986649541
30
0
10
-39.279554071347562
20
-7.1727655447496019
30
0
10
-39.335718511651585
20
-7.187494087020081
30
0
10
-39.391687538266858
20
-7.2025316286791607
30
0
10
-39.447458193009339
20
-7.2178784166972765
30
0
10
-39.503027389054779
20
-7.2335346805799539
30
0
10
-39.558392063166622
20
-7.249500670344915
30
0
10
-39.613549369401326
20
-7.2657766978805149
30
0
10
-39.668496656345141
20
-7.2823631444816339
30
0
10
-39.723231356868389
20
-7.2992604529365046
30
0
10
-39.777750903885014
20
-7.316469122611462
30
0
10
-39.83205264543102
20
-7.3339897009836008
30
0
10
-39.886133740286354
20
-7.3518227746698894
30
0
10
-39.939991157850812
20
-7.3699689577999461
30
0
10
-39.993621750827522
20
-7.3884288798470088
30
0
10
-40.047022311693823
20
-7.407203169307941
30
0
10
-40.100189628399235
20
-7.4262924416469822
30
0
10
-40.15312056413854
20
-7.4456972711970693
30
0
10
-40.205812042464984
20
-7.4654182137022751
30
0
10
-40.258260938318102
20
-7.4854558770007884
30
0
10
-40.310463989822921
20
-7.5058109813687857
30
0
10
-40.362417716896061
20
-7.5264844116752805
30
0
10
-40.414118305348865
20
-7.5474772956505465
30
0
10
-40.465561627026425
20
-7.5687909794971198
30
0
10
-40.516743433633202
20
-7.5904268742564618
30
0
10
-40.56765952245884
20
-7.6123863209895237
30
0
10
-40.618305885690056
20
-7.634670470607281
30
0
10
-40.668678940452942
20
-7.6572800954049036
30
0
10
-40.718775477841291
20
-7.6802156337088867
30
0
10
-40.768592186555459
20
-7.7034775869091732
30
0
10
-40.81812524766314
20
-7.7270668572833401
30
0
10
-40.867369967791014
20
-7.7509850526563451
30
0
10
-40.916320239322069
20
-7.7752349359451944
30
0
10
-40.964968615918082
20
-7.7998203576876968
30
0
10
-41.013307371733262
20
-7.8247453627085406
30
0
10
-41.061329411051794
20
-7.8500134215325357
30
0
10
-41.109029080345927
20
-7.8756267439372518
30
0
10
-41.156403411918738
20
-7.9015852281536247
30
0
10
-41.20345185043157
20
-7.9278866883920784
30
0
10
-41.250173679839207
20
-7.9545290199923002
30
0
10
-41.296565805337124
20
-7.9815120651440541
30
0
10
-41.342620790652724
20
-8.0088392625715255
30
0
10
-41.388323821345097
20
-8.0365202030406735
30
0
10
-41.433653576998417
20
-8.0645698864623583
30
0
10
-41.478588114042445
20
-8.0930037507489239
30
0
10
-41.523109980627233
20
-8.1218333487809069
30
0
10
-41.567210628178827
20
-8.1510626171747624
30
0
10
-41.610897625059302
20
-8.1806817835369738
30
0
10
-41.654191106665728
20
-8.2106703437475836
30
0
10
-41.697109684370623
20
-8.2410089211453208
30
0
10
-41.739658057173173
20
-8.2716896919034255
30
0
10
-41.781816388927993
20
-8.3027253189683314
30
0
10
-41.823522795810256
20
-8.3341636997343826
30
0
10
-41.864685375202484
20
-8.3660777827277855
30
0
10
-41.905214021212942
20
-8.3985386715238963
30
0
10
-41.945048944707949
20
-8.4315915357539595
30
0
10
-41.98418499588098
20
-8.4652350039925039
30
0
10
-42.022711981825935
20
-8.4993872072474108
30
0
10
-42.060770531979642
20
-8.5339223585164348
30
0
10
-42.098473575717925
20
-8.5687360834926185
30
0
10
-42.135835446530628
20
-8.6038043235961226
30
0
10
-42.172705388690034
20
-8.6392386863517956
30
0
10
-42.208678859779987
20
-8.675360015467497
30
0
10
-42.243201625172127
20
-8.7126135326587129
30
0
10
-42.269208740859
20
-8.7436857799107504
30
0
10
-42.287607911357952
20
-8.7678658557343603
30
0
10
-42.29935683257083
20
-8.7843959244172343
30
0
10
-42.305101992965831
20
-8.7927634650161224
30
0
0
LINE
5
123
100
AcDbEntity
8
0
100
AcDbLine
10
-42.305101992965845
20
-8.7927634650161206
30
0
11
-42.541757181400335
21
-9.1374399859514455
31
0
0
ARC
5
124
100
AcDbEntity
8
0
100
AcDbCircle
10
-42.953951092243365
20
-8.8544273009637742
30
0
40
0.50000000000000022
210
0
220
0
230
1
100
AcDbArc
50
237.69959476807793
51
325.52647483519979
0
ARC
5
125
100
AcDbEntity
8
0
100
AcDbCircle
10
-50
20
-20
30
0
40
12.686000000000007
210
0
220
-0
230
1
100
AcDbArc
50
57.699594768077333
51
62.300405231922596
0
ARC
5
126
100
AcDbEntity
8
0
100
AcDbCircle
10
-43.870675356786663
20
-8.3251563000570528
30
0
40
0.49999999999999911
210
0
220
0
230
1
100
AcDbArc
50
154.47352516479955
51
242.30040523192443
0
LINE
5
127
100
AcDbEntity
8
0
100
AcDbLine
10
-44.321868487000735
20
-8.1096922444755641
30
0
11
-44.141697457999953
21
-7.732404578886225
31
0
0
SPLINE
5
128
100
AcDbEntity
8
0
100
AcDbSpline
70
4
71
5
72
81
73
75
74
0
42
0.000000001
43
0.0000000001
44
0.0000000001
40
0
40
0
40
0
40
0
40
0
40
0
40
0.014285714285714285
40
0.028571428571428571
40
0.042857142857142858
40
0.057142857142857141
40
0.071428571428571425
40
0.085714285714285715
40
0.10000000000000001
40
0.1142857142857143
40
0.12857142857142859
40
0.14285714285714288
40
0.15714285714285717
40
0.17142857142857146
40
0.18571428571428575
40
0.20000000000000004
40
0.21428571428571433
40
0.22857142857142862
40
0.24285714285714291
40
0.25714285714285717
40
0.27142857142857146
40
0.28571428571428575
40
0.30000000000000004
40
0.31428571428571433
40
0.32857142857142863
40
0.34285714285714292
40
0.35714285714285721
40
0.3714285714285715
40
0.38571428571428579
40
0.40000000000000008
40
0.41428571428571437
40
0.42857142857142866
40
0.44285714285714295
40
0.45714285714285724
40
0.47142857142857153
40
0.48571428571428582
40
0.50000000000000011
40
0.51428571428571435
40
0.52857142857142858
40
0.54285714285714282
40
0.55714285714285705
40
0.57142857142857129
40
0.58571428571428552
40
0.59999999999999976
40
0.61428571428571399
40
0.62857142857142823
40
0.64285714285714246
40
0.6571428571428567
40
0.67142857142857093
40
0.68571428571428517
40
0.6999999999999994
40
0.71428571428571364
40
0.72857142857142787
40
0.74285714285714211
40
0.75714285714285634
40
0.77142857142857058
40
0.78571428571428481
40
0.79999999999999905
40
0.81428571428571328
40
0.82857142857142752
40
0.84285714285714175
40
0.85714285714285599
40
0.87142857142857022
40
0.88571428571428445
40
0.89999999999999869
40
0.91428571428571292
40
0.92857142857142716
40
0.94285714285714139
40
0.95714285714285563
40
0.97142857142856986
40
0.9857142857142841
40
1
40
1
40
1
40
1
40
1
40
1
41
1
41
1
41
1
41
1
41
1
41
1
41
1
41
1
41
1
41
1
41
1
41
1
41
1
41
1
41
1
41
1
41
1
41
1
41
1
41
1
41
1
41
1
41
1
41
1
41
1
41
1
41
1
41
1
41
1
41
1
41
1
41
1
41
1
41
1
41
1
41
1
41
1
41
1
41
1
41
1
41
1
41
1
41
1
41
1
41
1
41
1
41
1
41
1
41
1
41
1
41
1
41
1
41
1
41
1
41
1
41
1
41
1
41
1
41
1
41
1
41
1
41
1
41
1
41
1
41
1
41
1
41
1
41
1
41
1
41
1
41
1
41
1
41
1
41
1
41
1
10
-44.141697457999953
20
-7.732404578886225
30
0
10
-44.137323535471623
20
-7.7232453537359014
30
0
10
-44.1288825366724
20
-7.7048054551570466
30
0
10
-44.117141561993179
20
-7.6767812681845893
30
0
10
-44.103235764363689
20
-7.6387223216945799
30
0
10
-44.08823465479184
20
-7.5901979712604817
30
0
10
-44.074939401704157
20
-7.5409833668764303
30
0
10
-44.062687314470551
20
-7.4913358789524853
30
0
10
-44.05099826308124
20
-7.441445429644018
30
0
10
-44.039700214720654
20
-7.3913867734785743
30
0
10
-44.028821171474988
20
-7.341159526579748
30
0
10
-44.018507988833505
20
-7.2907180763927126
30
0
10
-44.008939916254036
20
-7.2400035277537889
30
0
10
-44.00023275791046
20
-7.1889790399342779
30
0
10
-43.992385126588836
20
-7.1376497585101717
30
0
10
-43.98532800967417
20
-7.0860448775745155
30
0
10
-43.978954776718062
20
-7.0342068793308776
30
0
10
-43.973156301134878
20
-6.9821788795175799
30
0
10
-43.967860160651952
20
-6.9299905224018232
30
0
10
-43.963045470763277
20
-6.877652655116222
30
0
10
-43.958721356601188
20
-6.8251651201214703
30
0
10
-43.95491390453283
20
-6.7725214878268325
30
0
10
-43.951650939345512
20
-6.7197145725268737
30
0
10
-43.948944708361317
20
-6.6667427060245643
30
0
10
-43.946787528083398
20
-6.6136113232938509
30
0
10
-43.945160667498783
20
-6.5603297616398937
30
0
10
-43.944039785198036
20
-6.5069093057957872
30
0
10
-43.943401230669409
20
-6.4533609198278175
30
0
10
-43.943229290845487
20
-6.3996926380351926
30
0
10
-43.943517269567458
20
-6.345909181056788
30
0
10
-43.944263756100753
20
-6.2920133079770579
30
0
10
-43.945470215112046
20
-6.2380066912395193
30
0
10
-43.947138261881307
20
-6.1838909046763124
30
0
10
-43.949266500694662
20
-6.129668569272928
30
0
10
-43.95185019106475
20
-6.0753434762392278
30
0
10
-43.954882779571001
20
-6.0209200353829573
30
0
10
-43.958356900369573
20
-5.9664029150704945
30
0
10
-43.962265495627804
20
-5.9117966387509924
30
0
10
-43.966603118780895
20
-5.8571051143174557
30
0
10
-43.97136603072488
20
-5.8023316024379135
30
0
10
-43.976551540598329
20
-5.7474789592659814
30
0
10
-43.982157558534993
20
-5.6925498017762877
30
0
10
-43.988182100479889
20
-5.6375466897998727
30
0
10
-43.994622706168826
20
-5.5824723400489962
30
0
10
-44.001476374977024
20
-5.5273296479362699
30
0
10
-44.008739844156437
20
-5.4721215825851566
30
0
10
-44.016409767561555
20
-5.4168511176068002
30
0
10
-44.024482915269338
20
-5.3615211549869279
30
0
10
-44.032956403542379
20
-5.3061344340446936
30
0
10
-44.041827726019946
20
-5.2506935261861898
30
0
10
-44.051094627987091
20
-5.1952008961399265
30
0
10
-44.06075502051025
20
-5.1396589463685682
30
0
10
-44.070806884077598
20
-5.0840700632811053
30
0
10
-44.081248152899583
20
-5.0284366762640875
30
0
10
-44.092076687943297
20
-4.9727612593027093
30
0
10
-44.103290341153169
20
-4.917046275944621
30
0
10
-44.11488699374096
20
-4.8612941370922869
30
0
10
-44.126864598554683
20
-4.8055071602576405
30
0
10
-44.139221226959151
20
-4.7496875127009552
30
0
10
-44.151955078843272
20
-4.6938372173518417
30
0
10
-44.165064438200105
20
-4.637958247688907
30
0
10
-44.178547637998932
20
-4.5820526055175392
30
0
10
-44.192403022321834
20
-4.5261223963819575
30
0
10
-44.206628898093797
20
-4.4701699289973895
30
0
10
-44.221223517174849
20
-4.414197731195646
30
0
10
-44.236185137395267
20
-4.3582083614921885
30
0
10
-44.251512065780325
20
-4.3022042582643305
30
0
10
-44.267202706189636
20
-4.246187579702827
30
0
10
-44.283255602581299
20
-4.1901600340553813
30
0
10
-44.299669481297997
20
-4.1341227535619041
30
0
10
-44.316443289014572
20
-4.0780764284594184
30
0
10
-44.330149641401974
20
-4.0332324124390073
30
0
10
-44.340590788554799
20
-3.9995955430041885
30
0
10
-44.347623255214344
20
-3.9771692495067423
30
0
10
-44.351157414017081
20
-3.9659556742914681
30
0
0
ARC
5
129
100
AcDbEntity
8
0
100
AcDbCircle
10
-50
20
-20
30
0
40
17.000000000000007
210
0
220
-0
230
1
100
AcDbArc
50
70.592484120347621
51
73.407515879652294
0
SPLINE
5
130
100
AcDbEntity
8
0
100
AcDbSpline
70
4
71
5
72
81
73
75
74
0
42
0.000000001
43
0.0000000001
44
0.0000000001
40
-1
40
-1
40
-1
40
-1
40
-1
40
-1
40
-0.9857142857142841
40
-0.97142857142856986
40
-0.95714285714285563
40
-0.94285714285714139
40
-0.92857142857142716
40
-0.91428571428571292
40
-0.89999999999999869
40
-0.88571428571428445
40
-0.87142857142857022
40
-0.85714285714285599
40
-0.84285714285714175
40
-0.82857142857142752
40
-0.81428571428571328
40
-0.79999999999999905
40
-0.78571428571428481
40
-0.77142857142857058
40
-0.75714285714285634
40
-0.74285714285714211
40
-0.72857142857142787
40
-0.71428571428571364
40
-0.6999999999999994
40
-0.68571428571428517
40
-0.67142857142857093
40
-0.6571428571428567
40
-0.64285714285714246
40
-0.62857142857142823
40
-0.61428571428571399
40
-0.59999999999999976
40
-0.58571428571428552
40
-0.57142857142857129
40
-0.55714285714285705
40
-0.54285714285714282
40
-0.52857142857142858
40
-0.51428571428571435
40
-0.50000000000000011
40
-0.48571428571428582
40
-0.47142857142857153
40
-0.45714285714285724
40
-0.44285714285714295
40
-0.42857142857142866
40
-0.41428571428571437
40
-0.40000000000000008
40
-0.38571428571428579
40
-0.3714285714285715
40
-0.35714285714285721
40
-0.34285714285714292
40
-0.32857142857142863
40
-0.31428571428571433
40
-0.30000000000000004
40
-0.28571428571428575
40
-0.27142857142857146
40
-0.25714285714285717
40
-0.24285714285714291
40
-0.22857142857142862
40
-0.21428571428571433
40
-0.20000000000000004
40
-0.18571428571428575
40
-0.17142857142857146
40
-0.15714285714285717
40
-0.14285714285714288
40
-0.12857142857142859
40
-0.1142857142857143
40
-0.10000000000000001
40
-0.085714285714285715
40
-0.071428571428571425
40
-0.057142857142857141
40
-0.042857142857142858
40
-0.028571428571428571
40
-0.014285714285714285
40
0
40
0
40
0
40
0
40
0
40
0
41
1
41
1
41
1
41
1
41
1
41
1
41
1
41
1
41
1
41
1
41
1
41
1
41
1
41
1
41
1
41
1
41
1
41
1
41
1
41
1
41
1
41
1
41
1
41
1
41
1
41
1
41
1
41
1
41
1
41
1
41
1
41
1
41
1
41
1
41
1
41
1
41
1
41
1
41
1
41
1
41
1
41
1
41
1
41
1
41
1
41
1
41
1
41
1
41
1
41
1
41
1
41
1
41
1
41
1
41
1
41
1
41
1
41
1
41
1
41
1
41
1
41
1
41
1
41
1
41
1
41
1
41
1
41
1
41
1
41
1
41
1
41
1
41
1
41
1
41
1
10
-45.14543486135382
20
-3.7078792873781641
30
0
10
-45.154885230023055
20
-3.7148739338715231
30
0
10
-45.173756459644387
20
-3.7288836062420749
30
0
10
-45.201974780918867
20
-3.749959252938968
30
0
10
-45.239422104201523
20
-3.7781824321994684
30
0
10
-45.285935603045047
20
-3.8136654648790547
30
0
10
-45.332152596923109
20
-3.8493527412742257
30
0
10
-45.378071827966622
20
-3.8852443221005295
30
0
10
-45.423691600251239
20
-3.9213400399936127
30
0
10
-45.469009731731518
20
-3.9576393687920053
30
0
10
-45.514023662550059
20
-3.9941415006704784
30
0
10
-45.558730589819319
20
-4.030845458045933
30
0
10
-45.603127600236732
20
-4.067750195057549
30
0
10
-45.64721179370509
20
-4.1048546941773356
30
0
10
-45.690980443469158
20
-4.1421580827799609
30
0
10
-45.734430972255382
20
-4.1796596307684819
30
0
10
-45.777560854775871
20
-4.2173586985044142
30
0
10
-45.820367542770242
20
-4.2552546980535944
30
0
10
-45.86284839086985
20
-4.2933470509103167
30
0
10
-45.905000564892397
20
-4.3316351373475559
30
0
10
-45.946821046457814
20
-4.3701182857444731
30
0
10
-45.988306704337496
20
-4.4087957910325137
30
0
10
-46.029454352681
20
-4.447666922755138
30
0
10
-46.070260806802345
20
-4.4867309367082786
30
0
10
-46.110722967485088
20
-4.5259870817175596
30
0
10
-46.150837798213828
20
-4.5654346141768087
30
0
10
-46.190602196873698
20
-4.6050728182972733
30
0
10
-46.23001289063091
20
-4.6449010253598821
30
0
10
-46.269066340362457
20
-4.6849186282552768
30
0
10
-46.307758602944375
20
-4.7251251058460308
30
0
10
-46.346085359569628
20
-4.7655200088775018
30
0
10
-46.38404215530484
20
-4.8061028984627274
30
0
10
-46.421624605324425
20
-4.8468732903255507
30
0
10
-46.458828580191081
20
-4.8878306057509491
30
0
10
-46.495650492665916
20
-4.9289740929795478
30
0
10
-46.532087232983763
20
-4.9703028472627953
30
0
10
-46.568135572188218
20
-5.0118159798162942
30
0
10
-46.603791654521686
20
-5.0535127616119269
30
0
10
-46.639050538412938
20
-5.09539275250396
30
0
10
-46.673905520496618
20
-5.1374559923510432
30
0
10
-46.708348232049445
20
-5.1797029700958852
30
0
10
-46.742369969981674
20
-5.2221342384851255
30
0
10
-46.775962840444734
20
-5.2647500819132986
30
0
10
-46.809120779886541
20
-5.3075502196157931
30
0
10
-46.841841118574223
20
-5.350533351550828
30
0
10
-46.874124238221427
20
-5.3936972550236995
30
0
10
-46.905970340730732
20
-5.4370397160897177
30
0
10
-46.937376663044752
20
-5.4805593318116408
30
0
10
-46.968335013135302
20
-5.5242562190157773
30
0
10
-46.998827956421216
20
-5.5681331137268497
30
0
10
-47.028829914720085
20
-5.6121950472509141
30
0
10
-47.058314562418332
20
-5.6564471975685926
30
0
10
-47.087261257477884
20
-5.7008930204545383
30
0
10
-47.115660589221662
20
-5.7455326351685621
30
0
10
-47.143523446482988
20
-5.7903601925151449
30
0
10
-47.170876563639339
20
-5.8353651508524607
30
0
10
-47.197744824223676
20
-5.8805373786467818
30
0
10
-47.224135703222402
20
-5.92587163973187
30
0
10
-47.250025928930668
20
-5.9713714341977298
30
0
10
-47.275339486036039
20
-6.0170553480722333
30
0
10
-47.299962746481079
20
-6.0629526429880265
30
0
10
-47.32378447400815
20
-6.1090916259254602
30
0
10
-47.346731676381566
20
-6.1554892429644426
30
0
10
-47.368800206827999
20
-6.2021421466304716
30
0
10
-47.390105407329131
20
-6.249012073713569
30
0
10
-47.410826911451231
20
-6.2960413112142355
30
0
10
-47.431110338167869
20
-6.3431804409736969
30
0
10
-47.450978567279563
20
-6.3904133143411634
30
0
10
-47.470248481706072
20
-6.4377805719853853
30
0
10
-47.488420014667973
20
-6.4854107769939606
30
0
10
-47.504805759652101
20
-6.5334852321104986
30
0
10
-47.515926220514118
20
-6.5724491893769077
30
0
10
-47.52289977627801
20
-6.6020224046551412
30
0
10
-47.526909565238356
20
-6.6219020905887938
30
0
10
-47.528754645046632
20
-6.6318829865475415
30
0
0
LINE
5
131
100
AcDbEntity
8
0
100
AcDbLine
10
-47.528754645046646
20
-6.6318829865475397
30
0
11
-47.604757346396255
21
-7.0430169935143727
31
0
0
ARC
5
132
100
AcDbEntity
8
0
100
AcDbCircle
10
-48.096426850754597
20
-6.9521264082812362
30
0
40
0.49999999999999967
210
0
220
0
230
1
100
AcDbArc
50
261.69959476807776
51
349.52647483520053
0
ARC
5
133
100
AcDbEntity
8
0
100
AcDbCircle
10
-50
20
-20
30
0
40
12.686
210
0
220
-0
230
1
100
AcDbArc
50
81.699594768077347
51
86.300405231922682
0
ARC
5
134
100
AcDbEntity
8
0
100
AcDbCircle
10
-49.14917004872504
20
-6.8414786395274074
30
0
40
0.49999999999999606
210
0
220
0
230
1
100
AcDbArc
50
178.47352516479981
51
266.30040523192099
0
LINE
5
135
100
AcDbEntity
8
0
100
AcDbLine
10
-49.648992610022368
20
-6.8281592094278203
30
0
11
-49.637854903455633
21
-6.4102076167888189
31
0
0
SPLINE
5
136
100
AcDbEntity
8
0
100
AcDbSpline
70
4
71
5
72
81
73
75
74
0
42
0.000000001
43
0.0000000001
44
0.0000000001
40
0
40
0
40
0
40
0
40
0
40
0
40
0.014285714285714285
40
0.028571428571428571
40
0.042857142857142858
40
0.057142857142857141
40
0.071428571428571425
40
0.085714285714285715
40
0.10000000000000001
40
0.1142857142857143
40
0.12857142857142859
40
0.14285714285714288
40
0.15714285714285717
40
0.17142857142857146
40
0.18571428571428575
40
0.20000000000000004
40
0.21428571428571433
40
0.22857142857142862
40
0.24285714285714291
40
0.25714285714285717
40
0.27142857142857146
40
0.28571428571428575
40
0.30000000000000004
40
0.31428571428571433
40
0.32857142857142863
40
0.34285714285714292
40
0.35714285714285721
40
0.3714285714285715
40
0.38571428571428579
40
0.40000000000000008
40
0.41428571428571437
40
0.42857142857142866
40
0.44285714285714295
40
0.45714285714285724
40
0.47142857142857153
40
0.48571428571428582
40
0.50000000000000011
40
0.51428571428571435
40
0.52857142857142858
40
0.54285714285714282
40
0.55714285714285705
40
0.57142857142857129
40
0.58571428571428552
40
0.59999999999999976
40
0.61428571428571399
40
0.62857142857142823
40
0.64285714285714246
40
0.6571428571428567
40
0.67142857142857093
40
0.68571428571428517
40
0.6999999999999994
40
0.71428571428571364
40
0.72857142857142787
40
0.74285714285714211
40
0.75714285714285634
40
0.77142857142857058
40
0.78571428571428481
40
0.79999999999999905
40
0.81428571428571328
40
0.82857142857142752
40
0.84285714285714175
40
0.85714285714285599
40
0.87142857142857022
40
0.88571428571428445
40
0.89999999999999869
40
0.91428571428571292
40
0.92857142857142716
40
0.94285714285714139
40
0.95714285714285563
40
0.97142857142856986
40
0.9857142857142841
40
1
40
1
40
1
40
1
40
1
40
1
41
1
41
1
41
1
41
1
41
1
41
1
41
1
41
1
41
1
41
1
41
1
41
1
41
1
41
1
41
1
41
1
41
1
41
1
41
1
41
1
41
1
41
1
41
1
41
1
41
1
41
1
41
1
41
1
41
1
41
1
41
1
41
1
41
1
41
1
41
1
41
1
41
1
41
1
41
1
41
1
41
1
41
1
41
1
41
1
41
1
41
1
41
1
41
1
41
1
41
1
41
1
41
1
41
1
41
1
41
1
41
1
41
1
41
1
41
1
41
1
41
1
41
1
41
1
41
1
41
1
41
1
41
1
41
1
41
1
41
1
41
1
41
1
41
1
41
1
41
1
10
-49.637854903455633
20
-6.4102076167888189
30
0
10
-49.637584518888609
20
-6.4000612136909574
30
0
10
-49.637373465224229
20
-6.3797822645890534
30
0
10
-49.638046014871847
20
-6.3494054112487852
30
0
10
-49.640822404746878
20
-6.3089808361130473
30
0
10
-49.646854840640913
20
-6.2585501352392647
30
0
10
-49.654726405551919
20
-6.2081826903448079
30
0
10
-49.663727019488348
20
-6.1578440804364476
30
0
10
-49.67334081356077
20
-6.1075125215681236
30
0
10
-49.683380222566342
20
-6.0571863333489961
30
0
10
-49.693870983820347
20
-6.006876554565066
30
0
10
-49.704965808785317
20
-5.9566012475827712
30
0
10
-49.716852404810446
20
-5.906379516315603
30
0
10
-49.729651548747071
20
-5.8562248068841516
30
0
10
-49.743359880417884
20
-5.806141255775259
30
0
10
-49.757902479354534
20
-5.7561274631606274
30
0
10
-49.773164654726365
20
-5.7061788679537617
30
0
10
-49.789029177686103
20
-5.656290472560439
30
0
10
-49.805417829785796
20
-5.6064599015742189
30
0
10
-49.822307120153525
20
-5.5566885698499924
30
0
10
-49.839705449089507
20
-5.506980044994112
30
0
10
-49.857639262826119
20
-5.4573390635645769
30
0
10
-49.876136903261084
20
-5.4077703784534226
30
0
10
-49.895210237396761
20
-5.3582774471214911
30
0
10
-49.914850035406417
20
-5.3088621095048261
30
0
10
-49.935035387834077
20
-5.2595252770668122
30
0
10
-49.955739467781292
20
-5.2102673583809356
30
0
10
-49.976936209942963
20
-5.1610887500904212
30
0
10
-49.998607991873797
20
-5.1119904008124895
30
0
10
-50.020746776271565
20
-5.0629738994921958
30
0
10
-50.043350152145337
20
-5.0140411928811801
30
0
10
-50.066418777290636
20
-4.9651944045662155
30
0
10
-50.089953487203957
20
-4.9164356293080669
30
0
10
-50.113951940786386
20
-4.8677666938081465
30
0
10
-50.138408265363239
20
-4.8191891333790693
30
0
10
-50.16331468045653
20
-4.7707043110644065
30
0
10
-50.188662558237425
20
-4.7223134956704538
30
0
10
-50.214443611202412
20
-4.6740179488944733
30
0
10
-50.240651274183669
20
-4.625819025456881
30
0
10
-50.267280805106608
20
-4.5777181832955538
30
0
10
-50.294328584044649
20
-4.5297169371647072
30
0
10
-50.32179163739049
20
-4.4818168277644421
30
0
10
-50.349667111442635
20
-4.434019386628929
30
0
10
-50.377951653651479
20
-4.3863260949186866
30
0
10
-50.406641345139491
20
-4.3387383772607091
30
0
10
-50.435731997586693
20
-4.2912576190050977
30
0
10
-50.46521934466044
20
-4.2438851756807594
30
0
10
-50.495099255335276
20
-4.1966223846555639
30
0
10
-50.525367981004521
20
-4.1494705755003913
30
0
10
-50.556022186108635
20
-4.1024310778828266
30
0
10
-50.587058808367601
20
-4.0555052263692559
30
0
10
-50.618474962276068
20
-4.008694366072687
30
0
10
-50.650267832278182
20
-3.9619998556767477
30
0
10
-50.682434543060772
20
-3.9154230743041829
30
0
10
-50.714972134259597
20
-3.8689654120298655
30
0
10
-50.747877641513142
20
-3.8226282457236582
30
0
10
-50.781148148609681
20
-3.7764129160657145
30
0
10
-50.814780842765764
20
-3.7303207075568334
30
0
10
-50.848773080581331
20
-3.6843528156411764
30
0
10
-50.883122394773451
20
-3.638510356185769
30
0
10
-50.917826415005727
20
-3.5927944340901163
30
0
10
-50.952882804162201
20
-3.5472062000519688
30
0
10
-50.988289193084626
20
-3.501746904059182
30
0
10
-51.024043096032898
20
-3.4564179665924222
30
0
10
-51.060141887839876
20
-3.4112209859083542
30
0
10
-51.096582936312316
20
-3.3661575907229313
30
0
10
-51.13336370306348
20
-3.3212293200097598
30
0
10
-51.17048185213126
20
-3.2764374961654674
30
0
10
-51.207935358548298
20
-3.2317830875263631
30
0
10
-51.245722598247248
20
-3.187266610402002
30
0
10
-51.283842328223024
20
-3.1428882669292957
30
0
10
-51.31460340872556
20
-3.107496095550264
30
0
10
-51.337823218637091
20
-3.0810140834115707
30
0
10
-51.353369291943729
20
-3.063387006736864
30
0
10
-51.361158878604485
20
-3.0545803679225347
30
0
0
ARC
5
137
100
AcDbEntity
8
0
100
AcDbCircle
10
-50
20
-20
30
0
40
17.000000000000007
210
0
220
0
230
1
100
AcDbArc
50
94.592484120347677
51
97.407515879652308
0
SPLINE
5
138
100
AcDbEntity
8
0
100
AcDbSpline
70
4
71
5
72
81
73
75
74
0
42
0.000000001
43
0.0000000001
44
0.0000000001
40
-1
40
-1
40
-1
40
-1
40
-1
40
-1
40
-0.9857142857142841
40
-0.97142857142856986
40
-0.95714285714285563
40
-0.94285714285714139
40
-0.92857142857142716
40
-0.91428571428571292
40
-0.89999999999999869
40
-0.88571428571428445
40
-0.87142857142857022
40
-0.85714285714285599
40
-0.84285714285714175
40
-0.82857142857142752
40
-0.81428571428571328
40
-0.79999999999999905
40
-0.78571428571428481
40
-0.77142857142857058
40
-0.75714285714285634
40
-0.74285714285714211
40
-0.72857142857142787
40
-0.71428571428571364
40
-0.6999999999999994
40
-0.68571428571428517
40
-0.67142857142857093
40
-0.6571428571428567
40
-0.64285714285714246
40
-0.62857142857142823
40
-0.61428571428571399
40
-0.59999999999999976
40
-0.58571428571428552
40
-0.57142857142857129
40
-0.55714285714285705
40
-0.54285714285714282
40
-0.52857142857142858
40
-0.51428571428571435
40
-0.50000000000000011
40
-0.48571428571428582
40
-0.47142857142857153
40
-0.45714285714285724
40
-0.44285714285714295
40
-0.42857142857142866
40
-0.41428571428571437
40
-0.40000000000000008
40
-0.38571428571428579
40
-0.3714285714285715
40
-0.35714285714285721
40
-0.34285714285714292
40
-0.32857142857142863
40
-0.31428571428571433
40
-0.30000000000000004
40
-0.28571428571428575
40
-0.27142857142857146
40
-0.25714285714285717
40
-0.24285714285714291
40
-0.22857142857142862
40
-0.21428571428571433
40
-0.20000000000000004
40
-0.18571428571428575
40
-0.17142857142857146
40
-0.15714285714285717
40
-0.14285714285714288
40
-0.12857142857142859
40
-0.1142857142857143
40
-0.10000000000000001
40
-0.085714285714285715
40
-0.071428571428571425
40
-0.057142857142857141
40
-0.042857142857142858
40
-0.028571428571428571
40
-0.014285714285714285
40
0
40
0
40
0
40
0
40
0
40
0
41
1
41
1
41
1
41
1
41
1
41
1
41
1
41
1
41
1
41
1
41
1
41
1
41
1
41
1
41
1
41
1
41
1
41
1
41
1
41
1
41
1
41
1
41
1
41
1
41
1
41
1
41
1
41
1
41
1
41
1
41
1
41
1
41
1
41
1
41
1
41
1
41
1
41
1
41
1
41
1
41
1
41
1
41
1
41
1
41
1
41
1
41
1
41
1
41
1
41
1
41
1
41
1
41
1
41
1
41
1
41
1
41
1
41
1
41
1
41
1
41
1
41
1
41
1
41
1
41
1
41
1
41
1
41
1
41
1
41
1
41
1
41
1
41
1
41
1
41
1
10
-52.191736555997181
20
-3.1418775995336379
30
0
10
-52.197524918333798
20
-3.1521113382938104
30
0
10
-52.209066397323909
20
-3.1725854314378843
30
0
10
-52.226272878758365
20
-3.2033164180131291
30
0
10
-52.249003309654761
20
-3.244330773790951
30
0
10
-52.277063255644087
20
-3.2956648814960943
30
0
10
-52.304769257465793
20
-3.3470649756855586
30
0
10
-52.33212014130406
20
-3.3985306002043103
30
0
10
-52.359114425928119
20
-3.4500609123628045
30
0
10
-52.385750331949417
20
-3.5016545439708047
30
0
10
-52.41202584939397
20
-3.5533097158554305
30
0
10
-52.437938815315476
20
-3.6050243949130234
30
0
10
-52.463486993669513
20
-3.6567964407552545
30
0
10
-52.488668148951376
20
-3.7086237442482695
30
0
10
-52.513480145074908
20
-3.7605043991378651
30
0
10
-52.537920924540728
20
-3.8124366901757245
30
0
10
-52.561988440547978
20
-3.8644190058958827
30
0
10
-52.585680604279332
20
-3.9164497727228831
30
0
10
-52.608995234369722
20
-3.9685273861971204
30
0
10
-52.631929993730509
20
-4.0206501274039574
30
0
10
-52.654482398107078
20
-4.0728161551014797
30
0
10
-52.676649873756965
20
-4.1250235515920952
30
0
10
-52.698429807364427
20
-4.1772703537684208
30
0
10
-52.719819592269118
20
-4.2295545864377448
30
0
10
-52.740816702726072
20
-4.281874302803228
30
0
10
-52.761418667192316
20
-4.3342275884847403
30
0
10
-52.781622942882422
20
-4.3866125278329449
30
0
10
-52.801426811906495
20
-4.4390271787611368
30
0
10
-52.820827288048406
20
-4.4914695471563082
30
0
10
-52.839820981050863
20
-4.5439375531227277
30
0
10
-52.858404128215646
20
-4.5964290296287746
30
0
10
-52.876572838270008
20
-4.6489417637466257
30
0
10
-52.894323302449308
20
-4.7014735295987542
30
0
10
-52.911651983709476
20
-4.754022118909198
30
0
10
-52.928555910712774
20
-4.806585385850104
30
0
10
-52.945032610541773
20
-4.8591612390370997
30
0
10
-52.961079494899195
20
-4.9117475531903487
30
0
10
-52.976693337897643
20
-4.9643420940316041
30
0
10
-52.99186980421058
20
-5.0169424495496617
30
0
10
-53.00660275379704
20
-5.0695459296528789
30
0
10
-53.020884342576984
20
-5.1221495771462244
30
0
10
-53.034706395059992
20
-5.1747503571233899
30
0
10
-53.048061584182882
20
-5.2273453186742458
30
0
10
-53.060944484812431
20
-5.2799317390387035
30
0
10
-53.073353186800958
20
-5.3325073446913418
30
0
10
-53.085288942912577
20
-5.3850702603564216
30
0
10
-53.09675283808695
20
-5.4376185456160187
30
0
10
-53.107742918771493
20
-5.4901497949864897
30
0
10
-53.118251653658547
20
-5.5426607831959451
30
0
10
-53.128262002624176
20
-5.5951469184443248
30
0
10
-53.137748552419481
20
-5.6476023934743669
30
0
10
-53.146685147325314
20
-5.7000212310150644
30
0
10
-53.155051524311361
20
-5.7523981922003564
30
0
10
-53.162839037788991
20
-5.8047295583123315
30
0
10
-53.170060014284594
20
-5.8570144147324932
30
0
10
-53.176743164539253
20
-5.9092540050427722
30
0
10
-53.18291534165752
20
-5.9614491946712267
30
0
10
-53.188585504119942
20
-6.0135982404928523
30
0
10
-53.193730968551378
20
-6.0656948745438743
30
0
10
-53.198274731889875
20
-6.117725157792604
30
0
10
-53.202101087961481
20
-6.1696696053760025
30
0
10
-53.205096903902138
20
-6.221508833145375
30
0
10
-53.207188605394826
20
-6.2732286334981335
30
0
10
-53.20837376571415
20
-6.3248242617194617
30
0
10
-53.20877331805314
20
-6.3763076764381488
30
0
10
-53.208574839831968
20
-6.4276992177593861
30
0
10
-53.207931460778511
20
-6.4790129685211539
30
0
10
-53.206870650878592
20
-6.5302434822501709
30
0
10
-53.205208594306171
20
-6.5813534056182288
30
0
10
-53.202436166007715
20
-6.6322567913668617
30
0
10
-53.197851646416261
20
-6.6828396743763641
30
0
10
-53.192162623744167
20
-6.7229581194693466
30
0
10
-53.186504773628656
20
-6.7528109966163719
30
0
10
-53.182082101397427
20
-6.772602921501587
30
0
10
-53.179708069558124
20
-6.782471385235338
30
0
0
LINE
5
139
100
AcDbEntity
8
0
100
AcDbLine
10
-53.179708069558131
20
-6.782471385235338
30
0
11
-53.08191672629664
21
-7.1889740733939256
31
0
0
ARC
5
140
100
AcDbEntity
8
0
100
AcDbCircle
10
-53.56804770018951
20
-7.3059213958171654
30
0
40
0.50000000000000044
210
-0
220
0
230
1
100
AcDbArc
50
-74.300405231922397
51
13.526474835200057
0
ARC
5
141
100
AcDbEntity
8
0
100
AcDbCircle
10
-50
20
-20
30
0
40
12.686000000000002
210
0
220
0
230
1
100
AcDbArc
50
105.69959476807729
51
110.30040523192264
0
ARC
5
142
100
AcDbEntity
8
0
100
AcDbCircle
10
-54.574780968786321
20
-7.6330288636372057
30
0
40
0.49999999999999922
210
0
220
0
230
1
100
AcDbArc
50
202.4735251647995
51
290.30040523192281
0
LINE
5
143
100
AcDbEntity
8
0
100
AcDbLine
10
-55.036809099573176
20
-7.8241571094869631
30
0
11
-55.196630526088754
21
-7.4378092171365928
31
0
0
SPLINE
5
144
100
AcDbEntity
8
0
100
AcDbSpline
70
4
71
5
72
81
73
75
74
0
42
0.000000001
43
0.0000000001
44
0.0000000001
40
0
40
0
40
0
40
0
40
0
40
0
40
0.014285714285714285
40
0.028571428571428571
40
0.042857142857142858
40
0.057142857142857141
40
0.071428571428571425
40
0.085714285714285715
40
0.10000000000000001
40
0.1142857142857143
40
0.12857142857142859
40
0.14285714285714288
40
0.15714285714285717
40
0.17142857142857146
40
0.18571428571428575
40
0.20000000000000004
40
0.21428571428571433
40
0.22857142857142862
40
0.24285714285714291
40
0.25714285714285717
40
0.27142857142857146
40
0.28571428571428575
40
0.30000000000000004
40
0.31428571428571433
40
0.32857142857142863
40
0.34285714285714292
40
0.35714285714285721
40
0.3714285714285715
40
0.38571428571428579
40
0.40000000000000008
40
0.41428571428571437
40
0.42857142857142866
40
0.44285714285714295
40
0.45714285714285724
40
0.47142857142857153
40
0.48571428571428582
40
0.50000000000000011
40
0.51428571428571435
40
0.52857142857142858
40
0.54285714285714282
40
0.55714285714285705
40
0.57142857142857129
40
0.58571428571428552
40
0.59999999999999976
40
0.61428571428571399
40
0.62857142857142823
40
0.64285714285714246
40
0.6571428571428567
40
0.67142857142857093
40
0.68571428571428517
40
0.6999999999999994
40
0.71428571428571364
40
0.72857142857142787
40
0.74285714285714211
40
0.75714285714285634
40
0.77142857142857058
40
0.78571428571428481
40
0.79999999999999905
40
0.81428571428571328
40
0.82857142857142752
40
0.84285714285714175
40
0.85714285714285599
40
0.87142857142857022
40
0.88571428571428445
40
0.89999999999999869
40
0.91428571428571292
40
0.92857142857142716
40
0.94285714285714139
40
0.95714285714285563
40
0.97142857142856986
40
0.9857142857142841
40
1
40
1
40
1
40
1
40
1
40
1
41
1
41
1
41
1
41
1
41
1
41
1
41
1
41
1
41
1
41
1
41
1
41
1
41
1
41
1
41
1
41
1
41
1
41
1
41
1
41
1
41
1
41
1
41
1
41
1
41
1
41
1
41
1
41
1
41
1
41
1
41
1
41
1
41
1
41
1
41
1
41
1
41
1
41
1
41
1
41
1
41
1
41
1
41
1
41
1
41
1
41
1
41
1
41
1
41
1
41
1
41
1
41
1
41
1
41
1
41
1
41
1
41
1
41
1
41
1
41
1
41
1
41
1
41
1
41
1
41
1
41
1
41
1
41
1
41
1
41
1
41
1
41
1
41
1
41
1
41
1
10
-55.196630526088754
20
-7.4378092171365928
30
0
10
-55.200510431431042
20
-7.4284300413640025
30
0
10
-55.208565815997446
20
-7.4098184562672387
30
0
10
-55.221535600027892
20
-7.3823413704667296
30
0
10
-55.240514114375337
20
-7.3465409429719841
30
0
10
-55.266537032766223
20
-7.3029238179881162
30
0
10
-55.294214350591886
20
-7.2601125213793782
30
0
10
-55.322911377780734
20
-7.2177867924516725
30
0
10
-55.352165704981182
20
-7.1757169077996874
30
0
10
-55.381806666330682
20
-7.1338250426690308
30
0
10
-55.411853284157942
20
-7.0921317498017267
30
0
10
-55.44243772069963
20
-7.0507156433382256
30
0
10
-55.473723684890288
20
-7.0096705230290191
30
0
10
-55.50581604284389
20
-6.9690577968875544
30
0
10
-55.538710042424967
20
-6.928879877075369
30
0
10
-55.572337809741434
20
-6.8891050118858921
30
0
10
-55.606596424666904
20
-6.8496823855957967
30
0
10
-55.641380826025156
20
-6.8105597514077942
30
0
10
-55.676620523873197
20
-6.7717031249711646
30
0
10
-55.712293482758369
20
-6.7331042442217726
30
0
10
-55.748405925660542
20
-6.6947697850401244
30
0
10
-55.784980085883461
20
-6.6567148311390234
30
0
10
-55.822039921863727
20
-6.6189552521897532
30
0
10
-55.859594868371403
20
-6.5814990334846524
30
0
10
-55.897635745170795
20
-6.5443441017802151
30
0
10
-55.936143079797837
20
-6.5074827850977179
30
0
10
-55.975092198479487
20
-6.4709045452050162
30
0
10
-56.014459128045317
20
-6.4345991427390015
30
0
10
-56.054227383753116
20
-6.3985602766104233
30
0
10
-56.094388976879763
20
-6.3627861293274712
30
0
10
-56.13494091306022
20
-6.3272774986978941
30
0
10
-56.175882929480032
20
-6.292036592264294
30
0
10
-56.217214937387261
20
-6.2570656635129041
30
0
10
-56.258934055095253
20
-6.2223654290077857
30
0
10
-56.301034293180805
20
-6.1879349026948027
30
0
10
-56.343507989423841
20
-6.1537721651707322
30
0
10
-56.386346745840484
20
-6.1198748662936531
30
0
10
-56.429542478241068
20
-6.0862407878500324
30
0
10
-56.473088638031896
20
-6.0528684971442104
30
0
10
-56.51698030011552
20
-6.0197573972932261
30
0
10
-56.561213541418397
20
-5.9869073997371203
30
0
10
-56.605785018755917
20
-5.9543187025004318
30
0
10
-56.650691502210968
20
-5.921991544004257
30
0
10
-56.695929326634811
20
-5.8899259137513038
30
0
10
-56.74149433250669
20
-5.858121519252002
30
0
10
-56.787382130133281
20
-5.8265779225434144
30
0
10
-56.833588270682469
20
-5.7952946266890315
30
0
10
-56.880108436318217
20
-5.7642711731957252
30
0
10
-56.92693866173272
20
-5.7335072519912789
30
0
10
-56.974075358916146
20
-5.7030027210931777
30
0
10
-57.021515187519505
20
-5.6727575541469655
30
0
10
-57.069254964395704
20
-5.6427718063337728
30
0
10
-57.117291564780075
20
-5.613045573683122
30
0
10
-57.165621801003553
20
-5.5835789465910945
30
0
10
-57.214242403244491
20
-5.5543719908656897
30
0
10
-57.26315010340042
20
-5.5254247586256344
30
0
10
-57.312341692075641
20
-5.4967372885130406
30
0
10
-57.361814077211065
20
-5.4683096099156803
30
0
10
-57.411564357709622
20
-5.4401417397584595
30
0
10
-57.461589825732204
20
-5.412233693902273
30
0
10
-57.511887866465642
20
-5.384585517620355
30
0
10
-57.562455876817324
20
-5.3571973115367122
30
0
10
-57.613291184037621
20
-5.330069253948615
30
0
10
-57.664390939528438
20
-5.3032016314881325
30
0
10
-57.715752095010686
20
-5.2765948364837101
30
0
10
-57.76737158339774
20
-5.250249286231945
30
0
10
-57.819246459800944
20
-5.2241653542003252
30
0
10
-57.871374052345594
20
-5.1983432983368516
30
0
10
-57.92375211727407
20
-5.172783179632372
30
0
10
-57.976378960925025
20
-5.1474848091914005
30
0
10
-58.029253365540299
20
-5.1224478660995132
30
0
10
-58.071750303883441
20
-5.1026271673210744
30
0
10
-58.103733860474634
20
-5.087878992958812
30
0
10
-58.125105483121999
20
-5.0780990148008698
30
0
10
-58.135803607340968
20
-5.0732220602442801
30
0
0
ARC
5
145
100
AcDbEntity
8
0
100
AcDbCircle
10
-50
20
-20
30
0
40
17.000000000000014
210
0
220
0
230
1
100
AcDbArc
50
118.59248412034763
51
121.40751587965232
0
SPLINE
5
146
100
AcDbEntity
8
0
100
AcDbSpline
70
4
71
5
72
81
73
75
74
0
42
0.000000001
43
0.0000000001
44
0.0000000001
40
-1
40
-1
40
-1
40
-1
40
-1
40
-1
40
-0.9857142857142841
40
-0.97142857142856986
40
-0.95714285714285563
40
-0.94285714285714139
40
-0.92857142857142716
40
-0.91428571428571292
40
-0.89999999999999869
40
-0.88571428571428445
40
-0.87142857142857022
40
-0.85714285714285599
40
-0.84285714285714175
40
-0.82857142857142752
40
-0.81428571428571328
40
-0.79999999999999905
40
-0.78571428571428481
40
-0.77142857142857058
40
-0.75714285714285634
40
-0.74285714285714211
40
-0.72857142857142787
40
-0.71428571428571364
40
-0.6999999999999994
40
-0.68571428571428517
40
-0.67142857142857093
40
-0.6571428571428567
40
-0.64285714285714246
40
-0.62857142857142823
40
-0.61428571428571399
40
-0.59999999999999976
40
-0.58571428571428552
40
-0.57142857142857129
40
-0.55714285714285705
40
-0.54285714285714282
40
-0.52857142857142858
40
-0.51428571428571435
40
-0.50000000000000011
40
-0.48571428571428582
40
-0.47142857142857153
40
-0.45714285714285724
40
-0.44285714285714295
40
-0.42857142857142866
40
-0.41428571428571437
40
-0.40000000000000008
40
-0.38571428571428579
40
-0.3714285714285715
40
-0.35714285714285721
40
-0.34285714285714292
40
-0.32857142857142863
40
-0.31428571428571433
40
-0.30000000000000004
40
-0.28571428571428575
40
-0.27142857142857146
40
-0.25714285714285717
40
-0.24285714285714291
40
-0.22857142857142862
40
-0.21428571428571433
40
-0.20000000000000004
40
-0.18571428571428575
40
-0.17142857142857146
40
-0.15714285714285717
40
-0.14285714285714288
40
-0.12857142857142859
40
-0.1142857142857143
40
-0.10000000000000001
40
-0.085714285714285715
40
-0.071428571428571425
40
-0.057142857142857141
40
-0.042857142857142858
40
-0.028571428571428571
40
-0.014285714285714285
40
0
40
0
40
0
40
0
40
0
40
0
41
1
41
1
41
1
41
1
41
1
41
1
41
1
41
1
41
1
41
1
41
1
41
1
41
1
41
1
41
1
41
1
41
1
41
1
41
1
41
1
41
1
41
1
41
1
41
1
41
1
41
1
41
1
41
1
41
1
41
1
41
1
41
1
41
1
41
1
41
1
41
1
41
1
41
1
41
1
41
1
41
1
41
1
41
1
41
1
41
1
41
1
41
1
41
1
41
1
41
1
41
1
41
1
41
1
41
1
41
1
41
1
41
1
41
1
41
1
41
1
41
1
41
1
41
1
41
1
41
1
41
1
41
1
41
1
41
1
41
1
41
1
41
1
41
1
41
1
41
1
10
-58.859067088807102
20
-5.4907984259637743
30
0
10
-58.860192584377486
20
-5.5025017505885465
30
0
10
-58.862408686167925
20
-5.5259001078002257
30
0
10
-58.865628170806367
20
-5.560972767492709
30
0
10
-58.869711411315045
20
-5.6076865450701519
30
0
10
-58.874465984872003
20
-5.6659955942229079
30
0
10
-58.878870375221261
20
-5.7242209629661112
30
0
10
-58.882923695563669
20
-5.7823617571474806
30
0
10
-58.886624935480285
20
-5.8404166044610051
30
0
10
-58.889973025911914
20
-5.8983835312601673
30
0
10
-58.892966854310735
20
-5.9562600946595889
30
0
10
-58.895605271664742
20
-6.0140435575771534
30
0
10
-58.897887105820089
20
-6.0717310551896109
30
0
10
-58.899811172403602
20
-6.1293197514456299
30
0
10
-58.901376295346935
20
-6.1868070360708405
30
0
10
-58.902581292685205
20
-6.2441905052475377
30
0
10
-58.903424950015051
20
-6.3014678543193892
30
0
10
-58.903905999137677
20
-6.3586367961551549
30
0
10
-58.904023099869462
20
-6.4156949777669237
30
0
10
-58.903774816319256
20
-6.4726398782684758
30
0
10
-58.903159627908089
20
-6.5294688051642069
30
0
10
-58.902175963403138
20
-6.586178959714859
30
0
10
-58.900822233889343
20
-6.642767485601313
30
0
10
-58.899096861447262
20
-6.6992315181709383
30
0
10
-58.896998330527666
20
-6.7555682516233251
30
0
10
-58.894525161912227
20
-6.8117749318181176
30
0
10
-58.891675811815659
20
-6.8678487744785244
30
0
10
-58.888448587239836
20
-6.9237868999546492
30
0
10
-58.884841571219376
20
-6.9795862719301205
30
0
10
-58.880852512569966
20
-7.0352436113837413
30
0
10
-58.8764788553069
20
-7.0907554082063839
30
0
10
-58.871717944654456
20
-7.1461180580646655
30
0
10
-58.866567206478976
20
-7.2013279783541329
30
0
10
-58.86102430771664
20
-7.2563817130689223
30
0
10
-58.855087406702182
20
-7.3112760933457555
30
0
10
-58.848755094955777
20
-7.3660082027838314
30
0
10
-58.842025872379395
20
-7.4205750470880716
30
0
10
-58.834897700741081
20
-7.4749732730570972
30
0
10
-58.827367600576324
20
-7.5291989138728788
30
0
10
-58.819431056837423
20
-7.5832470146347752
30
0
10
-58.811082106400278
20
-7.6371116833358954
30
0
10
-58.802314514990343
20
-7.690786822179847
30
0
10
-58.793122789245622
20
-7.7442667551910027
30
0
10
-58.783503080506598
20
-7.7975467884037819
30
0
10
-58.773454568492625
20
-7.8506240679222916
30
0
10
-58.762979160404036
20
-7.9034973901419914
30
0
10
-58.75207863662159
20
-7.9561654236876045
30
0
10
-58.740752190884564
20
-8.0086251764590521
30
0
10
-58.728994254837296
20
-8.0608706387650564
30
0
10
-58.716791129205319
20
-8.1128906849447269
30
0
10
-58.704121959854845
20
-8.1646696733050206
30
0
10
-58.69096528352263
20
-8.2161915048477496
30
0
10
-58.677304719848138
20
-8.2674431519137137
30
0
10
-58.663133883232
20
-8.3184177008073412
30
0
10
-58.648464406525264
20
-8.3691193296330191
30
0
10
-58.633322012484697
20
-8.4195608521698428
30
0
10
-58.617730880640664
20
-8.4697539811672673
30
0
10
-58.601699903965212
20
-8.5197007679436609
30
0
10
-58.585210909574556
20
-8.5693862602693471
30
0
10
-58.568199221186177
20
-8.6187664042383272
30
0
10
-58.550567061158212
20
-8.6677763376016692
30
0
10
-58.532218961720176
20
-8.7163523367770512
30
0
10
-58.513093488141543
20
-8.764451497102943
30
0
10
-58.4931903533477
20
-8.8120684970285446
30
0
10
-58.472615171295317
20
-8.8592634492658284
30
0
10
-58.45153102941844
20
-8.9061312300356921
30
0
10
-58.430072090678131
20
-8.9527469881222821
30
0
10
-58.408265665435451
20
-8.9991169209744903
30
0
10
-58.385959022544789
20
-9.0451321399969764
30
0
10
-58.362722011025511
20
-9.0905070486469874
30
0
10
-58.33795993194488
20
-9.1348521195460286
30
0
10
-58.316445109441808
20
-9.1691882088443766
30
0
10
-58.299134147131831
20
-9.1941589141966062
30
0
10
-58.287043733916533
20
-9.2104408744167365
30
0
10
-58.280861082102064
20
-9.2184905588937482
30
0
0
LINE
5
147
100
AcDbEntity
8
0
100
AcDbLine
10
-58.280861082102071
20
-9.21849055889375
30
0
11
-58.026184705885846
21
-9.5500739205004859
31
0
0
ARC
5
148
100
AcDbEntity
8
0
100
AcDbCircle
10
-58.422720687565921
20
-9.8546378961000602
30
0
40
0.49999999999999889
210
-0
220
0
230
1
100
AcDbArc
50
-50.300405231922355
51
37.526474835200311
0
ARC
5
149
100
AcDbEntity
8
0
100
AcDbCircle
10
-50
20
-20
30
0
40
12.685999999999996
210
0
220
0
230
1
100
AcDbArc
50
129.69959476807733
51
134.30040523192264
0
ARC
5
150
100
AcDbEntity
8
0
100
AcDbCircle
10
-59.209370698764083
20
-10.562940747629819
30
0
40
0.49999999999999944
210
0
220
0
230
1
100
AcDbArc
50
226.4735251647995
51
314.30040523192292
0
LINE
5
151
100
AcDbEntity
8
0
100
AcDbLine
10
-59.553715537833618
20
-10.925468859375894
30
0
11
-59.856861520854878
21
-10.637527727761951
31
0
0
SPLINE
5
152
100
AcDbEntity
8
0
100
AcDbSpline
70
4
71
5
72
81
73
75
74
0
42
0.000000001
43
0.0000000001
44
0.0000000001
40
0
40
0
40
0
40
0
40
0
40
0
40
0.014285714285714285
40
0.028571428571428571
40
0.042857142857142858
40
0.057142857142857141
40
0.071428571428571425
40
0.085714285714285715
40
0.10000000000000001
40
0.1142857142857143
40
0.12857142857142859
40
0.14285714285714288
40
0.15714285714285717
40
0.17142857142857146
40
0.18571428571428575
40
0.20000000000000004
40
0.21428571428571433
40
0.22857142857142862
40
0.24285714285714291
40
0.25714285714285717
40
0.27142857142857146
40
0.28571428571428575
40
0.30000000000000004
40
0.31428571428571433
40
0.32857142857142863
40
0.34285714285714292
40
0.35714285714285721
40
0.3714285714285715
40
0.38571428571428579
40
0.40000000000000008
40
0.41428571428571437
40
0.42857142857142866
40
0.44285714285714295
40
0.45714285714285724
40
0.47142857142857153
40
0.48571428571428582
40
0.50000000000000011
40
0.51428571428571435
40
0.52857142857142858
40
0.54285714285714282
40
0.55714285714285705
40
0.57142857142857129
40
0.58571428571428552
40
0.59999999999999976
40
0.61428571428571399
40
0.62857142857142823
40
0.64285714285714246
40
0.6571428571428567
40
0.67142857142857093
40
0.68571428571428517
40
0.6999999999999994
40
0.71428571428571364
40
0.72857142857142787
40
0.74285714285714211
40
0.75714285714285634
40
0.77142857142857058
40
0.78571428571428481
40
0.79999999999999905
40
0.81428571428571328
40
0.82857142857142752
40
0.84285714285714175
40
0.85714285714285599
40
0.87142857142857022
40
0.88571428571428445
40
0.89999999999999869
40
0.91428571428571292
40
0.92857142857142716
40
0.94285714285714139
40
0.95714285714285563
40
0.97142857142856986
40
0.9857142857142841
40
1
40
1
40
1
40
1
40
1
40
1
41
1
41
1
41
1
41
1
41
1
41
1
41
1
41
1
41
1
41
1
41
1
41
1
41
1
41
1
41
1
41
1
41
1
41
1
41
1
41
1
41
1
41
1
41
1
41
1
41
1
41
1
41
1
41
1
41
1
41
1
41
1
41
1
41
1
41
1
41
1
41
1
41
1
41
1
41
1
41
1
41
1
41
1
41
1
41
1
41
1
41
1
41
1
41
1
41
1
41
1
41
1
41
1
41
1
41
1
41
1
41
1
41
1
41
1
41
1
41
1
41
1
41
1
41
1
41
1
41
1
41
1
41
1
41
1
41
1
41
1
41
1
41
1
41
1
41
1
41
1
10
-59.856861520854878
20
-10.637527727761951
30
0
10
-59.864220845224978
20
-10.630537524012853
30
0
10
-59.879149818849754
20
-10.61681141506539
30
0
10
-59.902174243777381
20
-10.596985134561043
30
0
10
-59.934073325052182
20
-10.571999073857805
30
0
10
-59.975587126939338
20
-10.542737321922711
30
0
10
-60.018284537987071
20
-10.514884635711756
30
0
10
-60.06171600172307
20
-10.487890290813491
30
0
10
-60.105552523111363
20
-10.461356345627069
30
0
10
-60.149669845307798
20
-10.435142287641614
30
0
10
-60.19407698652104
20
-10.40927462979937
30
0
10
-60.238862707710481
20
-10.383878944915734
30
0
10
-60.284138412634036
20
-10.359107509749155
30
0
10
-60.329974924364521
20
-10.33505907620258
30
0
10
-60.376366920495684
20
-10.311733915027567
30
0
10
-60.423265309724272
20
-10.289075412797803
30
0
10
-60.470596738453025
20
-10.266995285653362
30
0
10
-60.518286479208584
20
-10.245403071539751
30
0
10
-60.566283958904449
20
-10.224239053364975
30
0
10
-60.614572407637162
20
-10.203486720731817
30
0
10
-60.663154795056485
20
-10.183154703474528
30
0
10
-60.712045297197363
20
-10.16326582434977
30
0
10
-60.761259346403904
20
-10.143844325797717
30
0
10
-60.810802313856421
20
-10.124901340212627
30
0
10
-60.860666656256427
20
-10.106431239654064
30
0
10
-60.910837705097677
20
-10.08841909525604
30
0
10
-60.961297206052052
20
-10.070845244136834
30
0
10
-61.012027423262793
20
-10.053690581405927
30
0
10
-61.063015860052431
20
-10.036942645783151
30
0
10
-61.114255957599738
20
-10.020596527600677
30
0
10
-61.165744655918495
20
-10.004651737774179
30
0
10
-61.21748081702728
20
-9.989110186097907
30
0
10
-61.269463443271768
20
-9.9739738951353019
30
0
10
-61.321689610647319
20
-9.9592423474126512
30
0
10
-61.374154248607923
20
-9.9449122060067907
30
0
10
-61.426851138058858
20
-9.930978600949949
30
0
10
-61.479773562948949
20
-9.9174359695128977
30
0
10
-61.53291504023214
20
-9.9042789971205458
30
0
10
-61.586270170200272
20
-9.8915037113872728
30
0
10
-61.639834696327078
20
-9.8791075638157722
30
0
10
-61.693605070727166
20
-9.8670888778447186
30
0
10
-61.747578158705537
20
-9.8554464745828341
30
0
10
-61.801750912611517
20
-9.8441792581130017
30
0
10
-61.856119988434756
20
-9.8332857280951824
30
0
10
-61.910681705230168
20
-9.8227639254973198
30
0
10
-61.965432230948949
20
-9.8126116647712713
30
0
10
-62.020367703503027
20
-9.8028266824398713
30
0
10
-62.075484364838815
20
-9.7934068034266897
30
0
10
-62.130778718585155
20
-9.7843501316306725
30
0
10
-62.18624754468145
20
-9.7756550779692564
30
0
10
-62.241887802286364
20
-9.7673202597241282
30
0
10
-62.297696561006141
20
-9.7593444326031786
30
0
10
-62.353670927167492
20
-9.7517264133774617
30
0
10
-62.409807951922424
20
-9.744464988086099
30
0
10
-62.466104621373688
20
-9.7375588868913798
30
0
10
-62.522557928762545
20
-9.7310068281491358
30
0
10
-62.579164926442949
20
-9.7248075417818391
30
0
10
-62.635922777725298
20
-9.7189597969828334
30
0
10
-62.692828825441538
20
-9.7134624292313099
30
0
10
-62.749880589406359
20
-9.7083143516395065
30
0
10
-62.807075662454785
20
-9.7035145420262658
30
0
10
-62.864411625615915
20
-9.69906203354304
30
0
10
-62.921885964691448
20
-9.6949559019672726
30
0
10
-62.979495960773733
20
-9.691195250521174
30
0
10
-63.037238669546909
20
-9.6877791977678029
30
0
10
-63.09511111935813
20
-9.6847068774300471
30
0
10
-63.153110468014816
20
-9.681977432893305
30
0
10
-63.211234169721031
20
-9.6795900130554813
30
0
10
-63.269480149895038
20
-9.6775437610160076
30
0
10
-63.327846938130882
20
-9.6758378153361591
30
0
10
-63.386333552478803
20
-9.6744713875391675
30
0
10
-63.433218241950449
20
-9.6736493402455093
30
0
10
-63.468435297725193
20
-9.6731850969898669
30
0
10
-63.491937122002469
20
-9.6729432644205104
30
0
10
-63.503693980912779
20
-9.672839263870241
30
0
0
ARC
5
153
100
AcDbEntity
8
0
100
AcDbCircle
10
-50
20
-20
30
0
40
17.000000000000004
210
0
220
0
230
1
100
AcDbArc
50
142.59248412034765
51
145.40751587965229
0
SPLINE
5
154
100
AcDbEntity
8
0
100
AcDbSpline
70
4
71
5
72
81
73
75
74
0
42
0.000000001
43
0.0000000001
44
0.0000000001
40
-1
40
-1
40
-1
40
-1
40
-1
40
-1
40
-0.9857142857142841
40
-0.97142857142856986
40
-0.95714285714285563
40
-0.94285714285714139
40
-0.92857142857142716
40
-0.91428571428571292
40
-0.89999999999999869
40
-0.88571428571428445
40
-0.87142857142857022
40
-0.85714285714285599
40
-0.84285714285714175
40
-0.82857142857142752
40
-0.81428571428571328
40
-0.79999999999999905
40
-0.78571428571428481
40
-0.77142857142857058
40
-0.75714285714285634
40
-0.74285714285714211
40
-0.72857142857142787
40
-0.71428571428571364
40
-0.6999999999999994
40
-0.68571428571428517
40
-0.67142857142857093
40
-0.6571428571428567
40
-0.64285714285714246
40
-0.62857142857142823
40
-0.61428571428571399
40
-0.59999999999999976
40
-0.58571428571428552
40
-0.57142857142857129
40
-0.55714285714285705
40
-0.54285714285714282
40
-0.52857142857142858
40
-0.51428571428571435
40
-0.50000000000000011
40
-0.48571428571428582
40
-0.47142857142857153
40
-0.45714285714285724
40
-0.44285714285714295
40
-0.42857142857142866
40
-0.41428571428571437
40
-0.40000000000000008
40
-0.38571428571428579
40
-0.3714285714285715
40
-0.35714285714285721
40
-0.34285714285714292
40
-0.32857142857142863
40
-0.31428571428571433
40
-0.30000000000000004
40
-0.28571428571428575
40
-0.27142857142857146
40
-0.25714285714285717
40
-0.24285714285714291
40
-0.22857142857142862
40
-0.21428571428571433
40
-0.20000000000000004
40
-0.18571428571428575
40
-0.17142857142857146
40
-0.15714285714285717
40
-0.14285714285714288
40
-0.12857142857142859
40
-0.1142857142857143
40
-0.10000000000000001
40
-0.085714285714285715
40
-0.071428571428571425
40
-0.057142857142857141
40
-0.042857142857142858
40
-0.028571428571428571
40
-0.014285714285714285
40
0
40
0
40
0
40
0
40
0
40
0
41
1
41
1
41
1
41
1
41
1
41
1
41
1
41
1
41
1
41
1
41
1
41
1
41
1
41
1
41
1
41
1
41
1
41
1
41
1
41
1
41
1
41
1
41
1
41
1
41
1
41
1
41
1
41
1
41
1
41
1
41
1
41
1
41
1
41
1
41
1
41
1
41
1
41
1
41
1
41
1
41
1
41
1
41
1
41
1
41
1
41
1
41
1
41
1
41
1
41
1
41
1
41
1
41
1
41
1
41
1
41
1
41
1
41
1
41
1
41
1
41
1
41
1
41
1
41
1
41
1
41
1
41
1
41
1
41
1
41
1
41
1
41
1
41
1
41
1
41
1
10
-63.994584439864397
20
-10.348492016503039
30
0
10
-63.990852460259617
20
-10.359641315843401
30
0
10
-63.983360000718179
20
-10.381918148593403
30
0
10
-63.972035810418511
20
-10.415268099917183
30
0
10
-63.956765831160439
20
-10.459604062769753
30
0
10
-63.937392923323095
20
-10.514805889050525
30
0
10
-63.917734143095885
20
-10.56978883713089
30
0
10
-63.897789044031967
20
-10.624551729468399
30
0
10
-63.877557261234863
20
-10.679092901424706
30
0
10
-63.857038620824731
20
-10.733410115158456
30
0
10
-63.836233100049597
20
-10.787500686468849
30
0
10
-63.815140762506331
20
-10.841361647561648
30
0
10
-63.793761702607704
20
-10.894989904532677
30
0
10
-63.77209599190099
20
-10.948382384792161
30
0
10
-63.750143617688522
20
-11.001536225385697
30
0
10
-63.727904477912396
20
-11.054448749568127
30
0
10
-63.705378400548121
20
-11.107117357988781
30
0
10
-63.682565157298527
20
-11.159539445426363
30
0
10
-63.659464480891344
20
-11.211712317217692
30
0
10
-63.636076084911572
20
-11.263633086389051
30
0
10
-63.61239967537778
20
-11.315298674748139
30
0
10
-63.588434955247202
20
-11.366705886441437
30
0
10
-63.564181634743335
20
-11.41785146582162
30
0
10
-63.539639437524244
20
-11.468732154100643
30
0
10
-63.51480812028862
20
-11.519344771622864
30
0
10
-63.489687451913142
20
-11.569686200703577
30
0
10
-63.464277154547148
20
-11.619753269865329
30
0
10
-63.438576852818983
20
-11.669542659812668
30
0
10
-63.41258603047482
20
-11.719050817032484
30
0
10
-63.386303964653486
20
-11.768273830350729
30
0
10
-63.359729748036777
20
-11.817207453510479
30
0
10
-63.33286242138086
20
-11.865847313994813
30
0
10
-63.305701090274113
20
-11.914189091937214
30
0
10
-63.278245029040932
20
-11.962228681176663
30
0
10
-63.250493844129174
20
-12.009962437739784
30
0
10
-63.222447435035569
20
-12.057387124481496
30
0
10
-63.194105649241905
20
-12.104499395832287
30
0
10
-63.165467988600518
20
-12.151295359466676
30
0
10
-63.136533344685347
20
-12.197770179658649
30
0
10
-63.107299608134788
20
-12.243917493445906
30
0
10
-63.077763727858958
20
-12.289729492791226
30
0
10
-63.047922488761934
20
-12.33519807137252
30
0
10
-63.017773181035075
20
-12.380315809576409
30
0
10
-62.987314197960764
20
-12.425076853861112
30
0
10
-62.956545950959367
20
-12.469478263424808
30
0
10
-62.925470671895184
20
-12.513519714448291
30
0
10
-62.894090528746062
20
-12.557200714805807
30
0
10
-62.86240600195292
20
-12.600518203142158
30
0
10
-62.830414448931393
20
-12.64346442447688
30
0
10
-62.798107879985494
20
-12.686023643016098
30
0
10
-62.765473605965738
20
-12.728173087221801
30
0
10
-62.732498567257963
20
-12.769889320031691
30
0
10
-62.699173098484579
20
-12.811153777594013
30
0
10
-62.665494178163605
20
-12.851957546676349
30
0
10
-62.631470734045145
20
-12.892309175673752
30
0
10
-62.597121053203288
20
-12.932230832943649
30
0
10
-62.562462460733798
20
-12.971743053316116
30
0
10
-62.52750224642449
20
-13.010851327861342
30
0
10
-62.492229890139697
20
-13.04953460546006
30
0
10
-62.456604225493123
20
-13.087726334652512
30
0
10
-62.42056231001758
20
-13.125327491076014
30
0
10
-62.384042848280934
20
-13.162241030100885
30
0
10
-62.347007167762186
20
-13.198402768612421
30
0
10
-62.309457170675344
20
-13.233807728368294
30
0
10
-62.271464890128108
20
-13.268553782129654
30
0
10
-62.233140724269447
20
-13.302793937272618
30
0
10
-62.19457667129884
20
-13.336651414619993
30
0
10
-62.155795159743008
20
-13.370142983947622
30
0
10
-62.116700951739375
20
-13.403107049220404
30
0
10
-62.077017247392575
20
-13.435107746848107
30
0
10
-62.036359197252239
20
-13.46554734001594
30
0
10
-62.002738683185029
20
-13.488164051746381
30
0
10
-61.97676783132912
20
-13.503934923496663
30
0
10
-61.959100219412626
20
-13.5138916202127
30
0
10
-61.95017798428934
20
-13.518730661857798
30
0
0
LINE
5
155
100
AcDbEntity
8
0
100
AcDbLine
10
-61.950177984289347
20
-13.518730661857798
30
0
11
-61.582652434228422
21
-13.718060921350608
31
0
0
ARC
5
156
100
AcDbEntity
8
0
100
AcDbCircle
10
-61.821028750046914
20
-14.15757967186849
30
0
40
0.49999999999999867
210
-0
220
0
230
1
100
AcDbArc
50
-26.300405231923033
51
61.526474835200098
0
ARC
5
157
100
AcDbEntity
8
0
100
AcDbCircle
10
-50
20
-20
30
0
40
12.686000000000002
210
0
220
0
230
1
100
AcDbArc
50
153.69959476807736
51
158.30040523192267
0
ARC
5
158
100
AcDbEntity
8
0
100
AcDbCircle
10
-62.25157657041926
20
-15.12460590934908
30
0
40
0.49999999999999845
210
0
220
0
230
1
100
AcDbArc
50
250.47352516480018
51
338.30040523192281
0
LINE
5
159
100
AcDbEntity
8
0
100
AcDbLine
10
-62.418697766821694
20
-15.595849483006077
30
0
11
-62.812751611889475
21
-15.45610274964767
31
0
0
SPLINE
5
160
100
AcDbEntity
8
0
100
AcDbSpline
70
4
71
5
72
81
73
75
74
0
42
0.000000001
43
0.0000000001
44
0.0000000001
40
0
40
0
40
0
40
0
40
0
40
0
40
0.014285714285714285
40
0.028571428571428571
40
0.042857142857142858
40
0.057142857142857141
40
0.071428571428571425
40
0.085714285714285715
40
0.10000000000000001
40
0.1142857142857143
40
0.12857142857142859
40
0.14285714285714288
40
0.15714285714285717
40
0.17142857142857146
40
0.18571428571428575
40
0.20000000000000004
40
0.21428571428571433
40
0.22857142857142862
40
0.24285714285714291
40
0.25714285714285717
40
0.27142857142857146
40
0.28571428571428575
40
0.30000000000000004
40
0.31428571428571433
40
0.32857142857142863
40
0.34285714285714292
40
0.35714285714285721
40
0.3714285714285715
40
0.38571428571428579
40
0.40000000000000008
40
0.41428571428571437
40
0.42857142857142866
40
0.44285714285714295
40
0.45714285714285724
40
0.47142857142857153
40
0.48571428571428582
40
0.50000000000000011
40
0.51428571428571435
40
0.52857142857142858
40
0.54285714285714282
40
0.55714285714285705
40
0.57142857142857129
40
0.58571428571428552
40
0.59999999999999976
40
0.61428571428571399
40
0.62857142857142823
40
0.64285714285714246
40
0.6571428571428567
40
0.67142857142857093
40
0.68571428571428517
40
0.6999999999999994
40
0.71428571428571364
40
0.72857142857142787
40
0.74285714285714211
40
0.75714285714285634
40
0.77142857142857058
40
0.78571428571428481
40
0.79999999999999905
40
0.81428571428571328
40
0.82857142857142752
40
0.84285714285714175
40
0.85714285714285599
40
0.87142857142857022
40
0.88571428571428445
40
0.89999999999999869
40
0.91428571428571292
40
0.92857142857142716
40
0.94285714285714139
40
0.95714285714285563
40
0.97142857142856986
40
0.9857142857142841
40
1
40
1
40
1
40
1
40
1
40
1
41
1
41
1
41
1
41
1
41
1
41
1
41
1
41
1
41
1
41
1
41
1
41
1
41
1
41
1
41
1
41
1
41
1
41
1
41
1
41
1
41
1
41
1
41
1
41
1
41
1
41
1
41
1
41
1
41
1
41
1
41
1
41
1
41
1
41
1
41
1
41
1
41
1
41
1
41
1
41
1
41
1
41
1
41
1
41
1
41
1
41
1
41
1
41
1
41
1
41
1
41
1
41
1
41
1
41
1
41
1
41
1
41
1
41
1
41
1
41
1
41
1
41
1
41
1
41
1
41
1
41
1
41
1
41
1
41
1
41
1
41
1
41
1
41
1
41
1
41
1
10
-62.812751611889475
20
-15.45610274964767
30
0
10
-62.822317861246418
20
-15.452710187654279
30
0
10
-62.841539068764391
20
-15.446242923790926
30
0
10
-62.870637002348872
20
-15.437495592598047
30
0
10
-62.909941009604566
20
-15.427644215573139
30
0
10
-62.95976758150065
20
-15.417797459431061
30
0
10
-63.010102315506487
20
-15.409719366097478
30
0
10
-63.060758521147235
20
-15.40272397269748
30
0
10
-63.111597503933048
20
-15.396313927152683
30
0
10
-63.162562901175349
20
-15.390310325085363
30
0
10
-63.213652167632581
20
-15.384741055309394
30
0
10
-63.264895315410634
20
-15.379756936634546
30
0
10
-63.316332180368931
20
-15.37554239279233
30
0
10
-63.36798729658647
20
-15.372216444474001
30
0
10
-63.419855691678599
20
-15.369777174205762
30
0
10
-63.47191554526318
20
-15.368152895817268
30
0
10
-63.524135753775482
20
-15.367233122393408
30
0
10
-63.576484844504023
20
-15.366904818333547
30
0
10
-63.628940905764878
20
-15.367092859432109
30
0
10
-63.681495332872458
20
-15.367775341756484
30
0
10
-63.734147328666999
20
-15.368961356917922
30
0
10
-63.786900560749409
20
-15.370677520454961
30
0
10
-63.839759266978803
20
-15.372952255838559
30
0
10
-63.8927238262199
20
-15.375797917672758
30
0
10
-63.945789636416222
20
-15.379206296442241
30
0
10
-63.998949369337367
20
-15.383157787730308
30
0
10
-64.052194346439279
20
-15.387627003896531
30
0
10
-64.105516135869649
20
-15.392589277932128
30
0
10
-64.158908389804765
20
-15.398028143034544
30
0
10
-64.212367113405136
20
-15.403936446286126
30
0
10
-64.265889710162739
20
-15.410312496277578
30
0
10
-64.319474363696557
20
-15.417157574834025
30
0
10
-64.373119339953291
20
-15.424473123876524
30
0
10
-64.426822178197312
20
-15.43225748136949
30
0
10
-64.480579603503315
20
-15.440505536505075
30
0
10
-64.534387915239861
20
-15.449210310812624
30
0
10
-64.58824324055476
20
-15.458363990822001
30
0
10
-64.642141818523143
20
-15.467959084534893
30
0
10
-64.696080331980951
20
-15.477989766737288
30
0
10
-64.750055928965182
20
-15.488451977975837
30
0
10
-64.804066050240166
20
-15.499342743580566
30
0
10
-64.858108311617826
20
-15.510659711585394
30
0
10
-64.912180374680361
20
-15.522400641228987
30
0
10
-64.966279794765597
20
-15.534562801750994
30
0
10
-65.020404005973006
20
-15.547142906311331
30
0
10
-65.074550396494288
20
-15.560137399677725
30
0
10
-65.128716358775534
20
-15.573542643208192
30
0
10
-65.182899344347277
20
-15.587355121333427
30
0
10
-65.237096930329287
20
-15.601571679776644
30
0
10
-65.291306821387934
20
-15.616189557122064
30
0
10
-65.345526801978636
20
-15.631206253372042
30
0
10
-65.399754701152673
20
-15.646619439910667
30
0
10
-65.453988356670564
20
-15.662426858841547
30
0
10
-65.508225568387957
20
-15.678626201751694
30
0
10
-65.562464099462247
20
-15.695215082724188
30
0
10
-65.616701724374295
20
-15.712191107959876
30
0
10
-65.670936266902515
20
-15.729551918269538
30
0
10
-65.725165636216161
20
-15.747295235469728
30
0
10
-65.779387878524744
20
-15.765418914950144
30
0
10
-65.833601170143282
20
-15.783920955007167
30
0
10
-65.887803727775704
20
-15.802799442749635
30
0
10
-65.941993734834853
20
-15.822052511033352
30
0
10
-65.996169270401467
20
-15.841678292922401
30
0
10
-66.050328215382223
20
-15.861674863290158
30
0
10
-66.10446823852341
20
-15.882040219342755
30
0
10
-66.158586977431725
20
-15.902772361016568
30
0
10
-66.212682184051602
20
-15.923869349731339
30
0
10
-66.26675187885715
20
-15.945329372498138
30
0
10
-66.320794515156479
20
-15.967150802690915
30
0
10
-66.374809100045596
20
-15.989332255278272
30
0
10
-66.4287950571712
20
-16.011872610555869
30
0
10
-66.47196070902767
20
-16.030191354192134
30
0
10
-66.504321915105606
20
-16.044091313919534
30
0
10
-66.52589026208787
20
-16.053429441986982
30
0
10
-66.536672987976232
20
-16.058116378082985
30
0
0
ARC
5
161
100
AcDbEntity
8
0
100
AcDbCircle
10
-50
20
-20
30
0
40
17.000000000000014
210
0
220
0
230
1
100
AcDbArc
50
166.59248412034762
51
169.40751587965229
0
SPLINE
5
162
100
AcDbEntity
8
0
100
AcDbSpline
70
4
71
5
72
81
73
75
74
0
42
0.000000001
43
0.0000000001
44
0.0000000001
40
-1
40
-1
40
-1
40
-1
40
-1
40
-1
40
-0.9857142857142841
40
-0.97142857142856986
40
-0.95714285714285563
40
-0.94285714285714139
40
-0.92857142857142716
40
-0.91428571428571292
40
-0.89999999999999869
40
-0.88571428571428445
40
-0.87142857142857022
40
-0.85714285714285599
40
-0.84285714285714175
40
-0.82857142857142752
40
-0.81428571428571328
40
-0.79999999999999905
40
-0.78571428571428481
40
-0.77142857142857058
40
-0.75714285714285634
40
-0.74285714285714211
40
-0.72857142857142787
40
-0.71428571428571364
40
-0.6999999999999994
40
-0.68571428571428517
40
-0.67142857142857093
40
-0.6571428571428567
40
-0.64285714285714246
40
-0.62857142857142823
40
-0.61428571428571399
40
-0.59999999999999976
40
-0.58571428571428552
40
-0.57142857142857129
40
-0.55714285714285705
40
-0.54285714285714282
40
-0.52857142857142858
40
-0.51428571428571435
40
-0.50000000000000011
40
-0.48571428571428582
40
-0.47142857142857153
40
-0.45714285714285724
40
-0.44285714285714295
40
-0.42857142857142866
40
-0.41428571428571437
40
-0.40000000000000008
40
-0.38571428571428579
40
-0.3714285714285715
40
-0.35714285714285721
40
-0.34285714285714292
40
-0.32857142857142863
40
-0.31428571428571433
40
-0.30000000000000004
40
-0.28571428571428575
40
-0.27142857142857146
40
-0.25714285714285717
40
-0.24285714285714291
40
-0.22857142857142862
40
-0.21428571428571433
40
-0.20000000000000004
40
-0.18571428571428575
40
-0.17142857142857146
40
-0.15714285714285717
40
-0.14285714285714288
40
-0.12857142857142859
40
-0.1142857142857143
40
-0.10000000000000001
40
-0.085714285714285715
40
-0.071428571428571425
40
-0.057142857142857141
40
-0.042857142857142858
40
-0.028571428571428571
40
-0.014285714285714285
40
0
40
0
40
0
40
0
40
0
40
0
41
1
41
1
41
1
41
1
41
1
41
1
41
1
41
1
41
1
41
1
41
1
41
1
41
1
41
1
41
1
41
1
41
1
41
1
41
1
41
1
41
1
41
1
41
1
41
1
41
1
41
1
41
1
41
1
41
1
41
1
41
1
41
1
41
1
41
1
41
1
41
1
41
1
41
1
41
1
41
1
41
1
41
1
41
1
41
1
41
1
41
1
41
1
41
1
41
1
41
1
41
1
41
1
41
1
41
1
41
1
41
1
41
1
41
1
41
1
41
1
41
1
41
1
41
1
41
1
41
1
41
1
41
1
41
1
41
1
41
1
41
1
41
1
41
1
41
1
41
1
10
-66.710311004460777
20
-16.875019018586322
30
0
10
-66.702366842858467
20
-16.883686477498134
30
0
10
-66.686461336306721
20
-16.900989919025289
30
0
10
-66.662551526448809
20
-16.926850652421699
30
0
10
-66.630568645561112
20
-16.961142709792604
30
0
10
-66.590418008091888
20
-17.003692415944602
30
0
10
-66.5500952389839
20
-17.045925892134637
30
0
10
-66.509600409337352
20
-17.087841881037868
30
0
10
-66.468933862872106
20
-17.129438713514723
30
0
10
-66.428096350953155
20
-17.170714274472104
30
0
10
-66.387088944558286
20
-17.211666102516482
30
0
10
-66.345912908896864
20
-17.252291512300101
30
0
10
-66.30456958862338
20
-17.292587715801989
30
0
10
-66.263060298834446
20
-17.332551935172617
30
0
10
-66.221386192398569
20
-17.372181549808378
30
0
10
-66.179548264811586
20
-17.411474072870202
30
0
10
-66.137547416172453
20
-17.450427059764433
30
0
10
-66.095384497560289
20
-17.489038037646175
30
0
10
-66.053060360828027
20
-17.527304436108672
30
0
10
-66.010575918560477
20
-17.56522350127473
30
0
10
-65.967932154205883
20
-17.602792301502753
30
0
10
-65.925130096272895
20
-17.64000779641707
30
0
10
-65.882170804228579
20
-17.676866893973159
30
0
10
-65.839055351090508
20
-17.713366504721584
30
0
10
-65.795784807874355
20
-17.749503624942854
30
0
10
-65.75236023151507
20
-17.785275312483915
30
0
10
-65.708782658139512
20
-17.820678557043898
30
0
10
-65.665053094907734
20
-17.855710173618142
30
0
10
-65.621172515542384
20
-17.890366705931516
30
0
10
-65.577141850494698
20
-17.924644286934608
30
0
10
-65.532961997996551
20
-17.95853866843915
30
0
10
-65.488633860197965
20
-17.992045465792536
30
0
10
-65.444158377061271
20
-18.025160368810347
30
0
10
-65.399536555774944
20
-18.057879331168998
30
0
10
-65.354769518948729
20
-18.090198863861069
30
0
10
-65.309858491433829
20
-18.122115968729023
30
0
10
-65.264804694663653
20
-18.153627527408275
30
0
10
-65.219609256709049
20
-18.184729781467656
30
0
10
-65.174273131839414
20
-18.215417862414146
30
0
10
-65.12879698110693
20
-18.245685099437758
30
0
10
-65.083181193017168
20
-18.275523118551526
30
0
10
-65.037426127572061
20
-18.304923206564382
30
0
10
-64.991532327066906
20
-18.333877483143773
30
0
10
-64.945500704542027
20
-18.362379947302255
30
0
10
-64.899332831980502
20
-18.390428079823423
30
0
10
-64.853030880000958
20
-18.418022492664701
30
0
10
-64.806597029315299
20
-18.445163618042887
30
0
10
-64.760032963993467
20
-18.47184885468376
30
0
10
-64.71333942414924
20
-18.498070043224253
30
0
10
-64.666515511156121
20
-18.523809558599215
30
0
10
-64.619558894918171
20
-18.549041436831494
30
0
10
-64.572467177596238
20
-18.573738955275626
30
0
10
-64.525239080027248
20
-18.597881223745961
30
0
10
-64.477875467288342
20
-18.621458870652056
30
0
10
-64.430381018339517
20
-18.644483336584493
30
0
10
-64.382763422570989
20
-18.666982311368635
30
0
10
-64.335030154977417
20
-18.688981601256497
30
0
10
-64.287185641691934
20
-18.710489187614154
30
0
10
-64.239228834353938
20
-18.731481560362539
30
0
10
-64.191149194515575
20
-18.751881177840126
30
0
10
-64.142929498208673
20
-18.771571975782383
30
0
10
-64.094553220876591
20
-18.790440368410373
30
0
10
-64.046011139038029
20
-18.808411991999815
30
0
10
-63.997307015285507
20
-18.82548307240021
30
0
10
-63.948466846699077
20
-18.841772319332328
30
0
10
-63.899529253299704
20
-18.857464414962131
30
0
10
-63.850528161200828
20
-18.872709346151396
30
0
10
-63.801477238998821
20
-18.88753155535635
30
0
10
-63.752355209605795
20
-18.901744680524637
30
0
10
-63.703086485428159
20
-18.914837955792979
30
0
10
-63.653562610464185
20
-18.926108789035855
30
0
10
-63.613649697147807
20
-18.933095488273828
30
0
10
-63.583509551969648
20
-18.936939599422679
30
0
10
-63.56331963195754
20
-18.938849429318655
30
0
10
-63.553200549034202
20
-18.939641113870099
30
0
0
LINE
5
163
100
AcDbEntity
8
0
100
AcDbLine
10
-63.553200549034202
20
-18.939641113870099
30
0
11
-63.13637433159893
21
-18.972252258524112
31
0
0
ARC
5
164
100
AcDbEntity
8
0
100
AcDbCircle
10
-63.175373550969979
20
-19.470728999093268
30
0
40
0.50000000000000022
210
-0
220
0
230
1
100
AcDbArc
50
-2.3004052319230022
51
85.52647483519992
0
ARC
5
165
100
AcDbEntity
8
0
100
AcDbCircle
10
-50
20
-20
30
0
40
12.686000000000002
210
0
220
0
230
1
100
AcDbArc
50
177.69959476807747
51
182.30040523192253
0
ARC
5
166
100
AcDbEntity
8
0
100
AcDbCircle
10
-63.175373550969979
20
-20.529271000906725
30
0
40
0.49999999999999722
210
-0
220
0
230
1
100
AcDbArc
50
-85.526474835201526
51
2.3004052319223658
0
LINE
5
167
100
AcDbEntity
8
0
100
AcDbLine
10
-63.136374331598944
20
-21.027747741475878
30
0
11
-63.553200549034202
21
-21.060358886129894
31
0
0
SPLINE
5
168
100
AcDbEntity
8
0
100
AcDbSpline
70
4
71
5
72
81
73
75
74
0
42
0.000000001
43
0.0000000001
44
0.0000000001
40
0
40
0
40
0
40
0
40
0
40
0
40
0.014285714285714285
40
0.028571428571428571
40
0.042857142857142858
40
0.057142857142857141
40
0.071428571428571425
40
0.085714285714285715
40
0.10000000000000001
40
0.1142857142857143
40
0.12857142857142859
40
0.14285714285714288
40
0.15714285714285717
40
0.17142857142857146
40
0.18571428571428575
40
0.20000000000000004
40
0.21428571428571433
40
0.22857142857142862
40
0.24285714285714291
40
0.25714285714285717
40
0.27142857142857146
40
0.28571428571428575
40
0.30000000000000004
40
0.31428571428571433
40
0.32857142857142863
40
0.34285714285714292
40
0.35714285714285721
40
0.3714285714285715
40
0.38571428571428579
40
0.40000000000000008
40
0.41428571428571437
40
0.42857142857142866
40
0.44285714285714295
40
0.45714285714285724
40
0.47142857142857153
40
0.48571428571428582
40
0.50000000000000011
40
0.51428571428571435
40
0.52857142857142858
40
0.54285714285714282
40
0.55714285714285705
40
0.57142857142857129
40
0.58571428571428552
40
0.59999999999999976
40
0.61428571428571399
40
0.62857142857142823
40
0.64285714285714246
40
0.6571428571428567
40
0.67142857142857093
40
0.68571428571428517
40
0.6999999999999994
40
0.71428571428571364
40
0.72857142857142787
40
0.74285714285714211
40
0.75714285714285634
40
0.77142857142857058
40
0.78571428571428481
40
0.79999999999999905
40
0.81428571428571328
40
0.82857142857142752
40
0.84285714285714175
40
0.85714285714285599
40
0.87142857142857022
40
0.88571428571428445
40
0.89999999999999869
40
0.91428571428571292
40
0.92857142857142716
40
0.94285714285714139
40
0.95714285714285563
40
0.97142857142856986
40
0.9857142857142841
40
1
40
1
40
1
40
1
40
1
40
1
41
1
41
1
41
1
41
1
41
1
41
1
41
1
41
1
41
1
41
1
41
1
41
1
41
1
41
1
41
1
41
1
41
1
41
1
41
1
41
1
41
1
41
1
41
1
41
1
41
1
41
1
41
1
41
1
41
1
41
1
41
1
41
1
41
1
41
1
41
1
41
1
41
1
41
1
41
1
41
1
41
1
41
1
41
1
41
1
41
1
41
1
41
1
41
1
41
1
41
1
41
1
41
1
41
1
41
1
41
1
41
1
41
1
41
1
41
1
41
1
41
1
41
1
41
1
41
1
41
1
41
1
41
1
41
1
41
1
41
1
41
1
41
1
41
1
41
1
41
1
10
-63.553200549034202
20
-21.060358886129894
30
0
10
-63.56331963195754
20
-21.061150570681338
30
0
10
-63.583509551969648
20
-21.063060400577314
30
0
10
-63.613649697147807
20
-21.066904511726161
30
0
10
-63.653562610464185
20
-21.073891210964138
30
0
10
-63.703086485428166
20
-21.085162044207017
30
0
10
-63.752355209605795
20
-21.098255319475356
30
0
10
-63.801477238998821
20
-21.112468444643643
30
0
10
-63.850528161200828
20
-21.1272906538486
30
0
10
-63.899529253299711
20
-21.142535585037862
30
0
10
-63.948466846699077
20
-21.158227680667665
30
0
10
-63.997307015285507
20
-21.174516927599782
30
0
10
-64.046011139038029
20
-21.191588008000174
30
0
10
-64.094553220876591
20
-21.20955963158962
30
0
10
-64.142929498208673
20
-21.22842802421761
30
0
10
-64.191149194515575
20
-21.248118822159867
30
0
10
-64.239228834353938
20
-21.268518439637454
30
0
10
-64.287185641691934
20
-21.289510812385835
30
0
10
-64.335030154977417
20
-21.311018398743492
30
0
10
-64.382763422570989
20
-21.333017688631358
30
0
10
-64.430381018339517
20
-21.3555166634155
30
0
10
-64.477875467288342
20
-21.378541129347933
30
0
10
-64.525239080027248
20
-21.402118776254028
30
0
10
-64.572467177596238
20
-21.426261044724363
30
0
10
-64.619558894918171
20
-21.450958563168498
30
0
10
-64.666515511156121
20
-21.476190441400774
30
0
10
-64.71333942414924
20
-21.50192995677574
30
0
10
-64.760032963993467
20
-21.528151145316233
30
0
10
-64.806597029315299
20
-21.554836381957102
30
0
10
-64.853030880000958
20
-21.581977507335289
30
0
10
-64.899332831980502
20
-21.609571920176567
30
0
10
-64.945500704542027
20
-21.637620052697738
30
0
10
-64.991532327066906
20
-21.66612251685622
30
0
10
-65.037426127572061
20
-21.695076793435607
30
0
10
-65.083181193017168
20
-21.724476881448464
30
0
10
-65.12879698110693
20
-21.754314900562232
30
0
10
-65.174273131839414
20
-21.784582137585847
30
0
10
-65.219609256709049
20
-21.815270218532334
30
0
10
-65.264804694663653
20
-21.846372472591717
30
0
10
-65.309858491433829
20
-21.87788403127097
30
0
10
-65.354769518948729
20
-21.909801136138924
30
0
10
-65.399536555774944
20
-21.942120668830995
30
0
10
-65.444158377061271
20
-21.974839631189642
30
0
10
-65.488633860197965
20
-22.007954534207457
30
0
10
-65.532961997996551
20
-22.041461331560839
30
0
10
-65.577141850494698
20
-22.075355713065381
30
0
10
-65.621172515542384
20
-22.109633294068473
30
0
10
-65.665053094907734
20
-22.144289826381851
30
0
10
-65.708782658139512
20
-22.179321442956091
30
0
10
-65.75236023151507
20
-22.214724687516075
30
0
10
-65.795784807874355
20
-22.250496375057139
30
0
10
-65.839055351090508
20
-22.286633495278405
30
0
10
-65.882170804228579
20
-22.32313310602683
30
0
10
-65.925130096272895
20
-22.359992203582916
30
0
10
-65.967932154205883
20
-22.397207698497237
30
0
10
-66.010575918560477
20
-22.434776498725256
30
0
10
-66.053060360828027
20
-22.472695563891318
30
0
10
-66.095384497560289
20
-22.510961962353818
30
0
10
-66.137547416172453
20
-22.549572940235556
30
0
10
-66.179548264811586
20
-22.588525927129787
30
0
10
-66.221386192398569
20
-22.627818450191612
30
0
10
-66.263060298834446
20
-22.667448064827372
30
0
10
-66.30456958862338
20
-22.707412284198
30
0
10
-66.345912908896864
20
-22.747708487699889
30
0
10
-66.387088944558286
20
-22.788333897483511
30
0
10
-66.428096350953155
20
-22.829285725527889
30
0
10
-66.46893386287212
20
-22.870561286485263
30
0
10
-66.509600409337338
20
-22.912158118962122
30
0
10
-66.5500952389839
20
-22.954074107865349
30
0
10
-66.590418008091888
20
-22.996307584055383
30
0
10
-66.630568645561112
20
-23.038857290207382
30
0
10
-66.662551526448809
20
-23.073149347578294
30
0
10
-66.686461336306721
20
-23.099010080974697
30
0
10
-66.702366842858467
20
-23.116313522501855
30
0
10
-66.710311004460777
20
-23.124980981413668
30
0
0
ARC
5
169
100
AcDbEntity
8
0
100
AcDbCircle
10
-50
20
-20
30
0
40
17.000000000000007
210
0
220
0
230
1
100
AcDbArc
50
190.59248412034759
51
193.40751587965227
0
SPLINE
5
170
100
AcDbEntity
8
0
100
AcDbSpline
70
4
71
5
72
81
73
75
74
0
42
0.000000001
43
0.0000000001
44
0.0000000001
40
-1
40
-1
40
-1
40
-1
40
-1
40
-1
40
-0.9857142857142841
40
-0.97142857142856986
40
-0.95714285714285563
40
-0.94285714285714139
40
-0.92857142857142716
40
-0.91428571428571292
40
-0.89999999999999869
40
-0.88571428571428445
40
-0.87142857142857022
40
-0.85714285714285599
40
-0.84285714285714175
40
-0.82857142857142752
40
-0.81428571428571328
40
-0.79999999999999905
40
-0.78571428571428481
40
-0.77142857142857058
40
-0.75714285714285634
40
-0.74285714285714211
40
-0.72857142857142787
40
-0.71428571428571364
40
-0.6999999999999994
40
-0.68571428571428517
40
-0.67142857142857093
40
-0.6571428571428567
40
-0.64285714285714246
40
-0.62857142857142823
40
-0.61428571428571399
40
-0.59999999999999976
40
-0.58571428571428552
40
-0.57142857142857129
40
-0.55714285714285705
40
-0.54285714285714282
40
-0.52857142857142858
40
-0.51428571428571435
40
-0.50000000000000011
40
-0.48571428571428582
40
-0.47142857142857153
40
-0.45714285714285724
40
-0.44285714285714295
40
-0.42857142857142866
40
-0.41428571428571437
40
-0.40000000000000008
40
-0.38571428571428579
40
-0.3714285714285715
40
-0.35714285714285721
40
-0.34285714285714292
40
-0.32857142857142863
40
-0.31428571428571433
40
-0.30000000000000004
40
-0.28571428571428575
40
-0.27142857142857146
40
-0.25714285714285717
40
-0.24285714285714291
40
-0.22857142857142862
40
-0.21428571428571433
40
-0.20000000000000004
40
-0.18571428571428575
40
-0.17142857142857146
40
-0.15714285714285717
40
-0.14285714285714288
40
-0.12857142857142859
40
-0.1142857142857143
40
-0.10000000000000001
40
-0.085714285714285715
40
-0.071428571428571425
40
-0.057142857142857141
40
-0.042857142857142858
40
-0.028571428571428571
40
-0.014285714285714285
40
0
40
0
40
0
40
0
40
0
40
0
41
1
41
1
41
1
41
1
41
1
41
1
41
1
41
1
41
1
41
1
41
1
41
1
41
1
41
1
41
1
41
1
41
1
41
1
41
1
41
1
41
1
41
1
41
1
41
1
41
1
41
1
41
1
41
1
41
1
41
1
41
1
41
1
41
1
41
1
41
1
41
1
41
1
41
1
41
1
41
1
41
1
41
1
41
1
41
1
41
1
41
1
41
1
41
1
41
1
41
1
41
1
41
1
41
1
41
1
41
1
41
1
41
1
41
1
41
1
41
1
41
1
41
1
41
1
41
1
41
1
41
1
41
1
41
1
41
1
41
1
41
1
41
1
41
1
41
1
41
1
10
-66.536672987976232
20
-23.941883621917
30
0
10
-66.52589026208787
20
-23.946570558013008
30
0
10
-66.504321915105606
20
-23.955908686080456
30
0
10
-66.47196070902767
20
-23.969808645807859
30
0
10
-66.4287950571712
20
-23.988127389444116
30
0
10
-66.374809100045596
20
-24.010667744721715
30
0
10
-66.320794515156479
20
-24.032849197309076
30
0
10
-66.26675187885715
20
-24.054670627501853
30
0
10
-66.212682184051602
20
-24.076130650268652
30
0
10
-66.158586977431725
20
-24.097227638983423
30
0
10
-66.10446823852341
20
-24.117959780657237
30
0
10
-66.050328215382223
20
-24.138325136709831
30
0
10
-65.996169270401467
20
-24.158321707077587
30
0
10
-65.941993734834853
20
-24.177947488966641
30
0
10
-65.887803727775719
20
-24.197200557250355
30
0
10
-65.833601170143282
20
-24.216079044992824
30
0
10
-65.779387878524744
20
-24.234581085049847
30
0
10
-65.725165636216161
20
-24.252704764530261
30
0
10
-65.670936266902515
20
-24.270448081730454
30
0
10
-65.616701724374295
20
-24.287808892040111
30
0
10
-65.562464099462247
20
-24.3047849172758
30
0
10
-65.508225568387957
20
-24.321373798248299
30
0
10
-65.453988356670564
20
-24.337573141158444
30
0
10
-65.399754701152688
20
-24.353380560089324
30
0
10
-65.345526801978636
20
-24.368793746627947
30
0
10
-65.291306821387934
20
-24.383810442877923
30
0
10
-65.237096930329287
20
-24.398428320223346
30
0
10
-65.182899344347277
20
-24.412644878666562
30
0
10
-65.128716358775534
20
-24.426457356791801
30
0
10
-65.074550396494288
20
-24.439862600322265
30
0
10
-65.020404005973006
20
-24.45285709368866
30
0
10
-64.966279794765597
20
-24.465437198248999
30
0
10
-64.912180374680361
20
-24.477599358771002
30
0
10
-64.858108311617826
20
-24.489340288414603
30
0
10
-64.804066050240166
20
-24.500657256419423
30
0
10
-64.750055928965196
20
-24.511548022024154
30
0
10
-64.696080331980951
20
-24.522010233262705
30
0
10
-64.642141818523157
20
-24.532040915465103
30
0
10
-64.58824324055476
20
-24.541636009177989
30
0
10
-64.534387915239861
20
-24.550789689187368
30
0
10
-64.480579603503315
20
-24.559494463494911
30
0
10
-64.426822178197312
20
-24.567742518630503
30
0
10
-64.373119339953291
20
-24.575526876123469
30
0
10
-64.319474363696557
20
-24.582842425165964
30
0
10
-64.265889710162753
20
-24.589687503722413
30
0
10
-64.212367113405136
20
-24.596063553713865
30
0
10
-64.158908389804779
20
-24.601971856965442
30
0
10
-64.105516135869649
20
-24.607410722067865
30
0
10
-64.052194346439279
20
-24.61237299610346
30
0
10
-63.998949369337367
20
-24.616842212269681
30
0
10
-63.945789636416222
20
-24.620793703557752
30
0
10
-63.892723826219907
20
-24.624202082327233
30
0
10
-63.839759266978803
20
-24.62704774416143
30
0
10
-63.786900560749416
20
-24.629322479545031
30
0
10
-63.734147328667007
20
-24.631038643082075
30
0
10
-63.681495332872458
20
-24.632224658243512
30
0
10
-63.628940905764878
20
-24.632907140567887
30
0
10
-63.576484844504023
20
-24.633095181666445
30
0
10
-63.524135753775482
20
-24.632766877606581
30
0
10
-63.47191554526318
20
-24.631847104182722
30
0
10
-63.419855691678599
20
-24.630222825794231
30
0
10
-63.36798729658647
20
-24.627783555525991
30
0
10
-63.316332180368931
20
-24.62445760720766
30
0
10
-63.264895315410634
20
-24.620243063365447
30
0
10
-63.213652167632588
20
-24.615258944690595
30
0
10
-63.162562901175349
20
-24.609689674914627
30
0
10
-63.111597503933048
20
-24.60368607284731
30
0
10
-63.060758521147235
20
-24.59727602730251
30
0
10
-63.010102315506487
20
-24.590280633902513
30
0
10
-62.95976758150065
20
-24.582202540568936
30
0
10
-62.909941009604566
20
-24.572355784426851
30
0
10
-62.870637002348872
20
-24.562504407401946
30
0
10
-62.841539068764391
20
-24.553757076209063
30
0
10
-62.822317861246418
20
-24.54728981234571
30
0
10
-62.812751611889475
20
-24.543897250352323
30
0
0
LINE
5
171
100
AcDbEntity
8
0
100
AcDbLine
10
-62.812751611889475
20
-24.543897250352327
30
0
11
-62.418697766821694
21
-24.404150516993916
31
0
0
ARC
5
172
100
AcDbEntity
8
0
100
AcDbCircle
10
-62.25157657041926
20
-24.875394090650914
30
0
40
0.49999999999999933
210
0
220
-0
230
1
100
AcDbArc
50
21.699594768077183
51
109.52647483519978
0
ARC
5
173
100
AcDbEntity
8
0
100
AcDbCircle
10
-50
20
-20
30
0
40
12.686000000000002
210
0
220
0
230
1
100
AcDbArc
50
201.69959476807733
51
206.30040523192261
0
ARC
5
174
100
AcDbEntity
8
0
100
AcDbCircle
10
-61.821028750046914
20
-25.842420328131507
30
0
40
0.50000000000000244
210
-0
220
0
230
1
100
AcDbArc
50
-61.526474835200368
51
26.300405231923012
0
LINE
5
175
100
AcDbEntity
8
0
100
AcDbLine
10
-61.582652434228422
20
-26.281939078649394
30
0
11
-61.95017798428934
21
-26.481269338142202
31
0
0
SPLINE
5
176
100
AcDbEntity
8
0
100
AcDbSpline
70
4
71
5
72
81
73
75
74
0
42
0.000000001
43
0.0000000001
44
0.0000000001
40
0
40
0
40
0
40
0
40
0
40
0
40
0.014285714285714285
40
0.028571428571428571
40
0.042857142857142858
40
0.057142857142857141
40
0.071428571428571425
40
0.085714285714285715
40
0.10000000000000001
40
0.1142857142857143
40
0.12857142857142859
40
0.14285714285714288
40
0.15714285714285717
40
0.17142857142857146
40
0.18571428571428575
40
0.20000000000000004
40
0.21428571428571433
40
0.22857142857142862
40
0.24285714285714291
40
0.25714285714285717
40
0.27142857142857146
40
0.28571428571428575
40
0.30000000000000004
40
0.31428571428571433
40
0.32857142857142863
40
0.34285714285714292
40
0.35714285714285721
40
0.3714285714285715
40
0.38571428571428579
40
0.40000000000000008
40
0.41428571428571437
40
0.42857142857142866
40
0.44285714285714295
40
0.45714285714285724
40
0.47142857142857153
40
0.48571428571428582
40
0.50000000000000011
40
0.51428571428571435
40
0.52857142857142858
40
0.54285714285714282
40
0.55714285714285705
40
0.57142857142857129
40
0.58571428571428552
40
0.59999999999999976
40
0.61428571428571399
40
0.62857142857142823
40
0.64285714285714246
40
0.6571428571428567
40
0.67142857142857093
40
0.68571428571428517
40
0.6999999999999994
40
0.71428571428571364
40
0.72857142857142787
40
0.74285714285714211
40
0.75714285714285634
40
0.77142857142857058
40
0.78571428571428481
40
0.79999999999999905
40
0.81428571428571328
40
0.82857142857142752
40
0.84285714285714175
40
0.85714285714285599
40
0.87142857142857022
40
0.88571428571428445
40
0.89999999999999869
40
0.91428571428571292
40
0.92857142857142716
40
0.94285714285714139
40
0.95714285714285563
40
0.97142857142856986
40
0.9857142857142841
40
1
40
1
40
1
40
1
40
1
40
1
41
1
41
1
41
1
41
1
41
1
41
1
41
1
41
1
41
1
41
1
41
1
41
1
41
1
41
1
41
1
41
1
41
1
41
1
41
1
41
1
41
1
41
1
41
1
41
1
41
1
41
1
41
1
41
1
41
1
41
1
41
1
41
1
41
1
41
1
41
1
41
1
41
1
41
1
41
1
41
1
41
1
41
1
41
1
41
1
41
1
41
1
41
1
41
1
41
1
41
1
41
1
41
1
41
1
41
1
41
1
41
1
41
1
41
1
41
1
41
1
41
1
41
1
41
1
41
1
41
1
41
1
41
1
41
1
41
1
41
1
41
1
41
1
41
1
41
1
41
1
10
-61.95017798428934
20
-26.481269338142202
30
0
10
-61.959100219412626
20
-26.486108379787296
30
0
10
-61.97676783132912
20
-26.496065076503335
30
0
10
-62.002738683185029
20
-26.511835948253619
30
0
10
-62.036359197252239
20
-26.534452659984062
30
0
10
-62.077017247392583
20
-26.564892253151893
30
0
10
-62.116700951739389
20
-26.596892950779598
30
0
10
-62.155795159743015
20
-26.629857016052377
30
0
10
-62.19457667129884
20
-26.663348585380007
30
0
10
-62.233140724269454
20
-26.697206062727382
30
0
10
-62.271464890128115
20
-26.731446217870342
30
0
10
-62.309457170675351
20
-26.766192271631706
30
0
10
-62.347007167762186
20
-26.801597231387579
30
0
10
-62.384042848280941
20
-26.837758969899113
30
0
10
-62.42056231001758
20
-26.874672508923986
30
0
10
-62.45660422549313
20
-26.912273665347488
30
0
10
-62.492229890139711
20
-26.95046539453994
30
0
10
-62.52750224642449
20
-26.989148672138658
30
0
10
-62.562462460733798
20
-27.028256946683879
30
0
10
-62.597121053203296
20
-27.067769167056351
30
0
10
-62.631470734045145
20
-27.107690824326248
30
0
10
-62.665494178163613
20
-27.148042453323651
30
0
10
-62.699173098484579
20
-27.188846222405981
30
0
10
-62.732498567257963
20
-27.230110679968309
30
0
10
-62.765473605965738
20
-27.271826912778199
30
0
10
-62.798107879985494
20
-27.3139763569839
30
0
10
-62.8304144489314
20
-27.356535575523115
30
0
10
-62.86240600195292
20
-27.399481796857842
30
0
10
-62.894090528746069
20
-27.442799285194191
30
0
10
-62.925470671895184
20
-27.486480285551707
30
0
10
-62.956545950959367
20
-27.530521736575192
30
0
10
-62.987314197960764
20
-27.574923146138886
30
0
10
-63.017773181035075
20
-27.619684190423591
30
0
10
-63.047922488761934
20
-27.664801928627476
30
0
10
-63.077763727858965
20
-27.710270507208776
30
0
10
-63.107299608134788
20
-27.756082506554094
30
0
10
-63.136533344685347
20
-27.802229820341346
30
0
10
-63.165467988600518
20
-27.848704640533324
30
0
10
-63.194105649241905
20
-27.895500604167715
30
0
10
-63.222447435035569
20
-27.942612875518506
30
0
10
-63.250493844129174
20
-27.990037562260216
30
0
10
-63.278245029040939
20
-28.037771318823339
30
0
10
-63.30570109027412
20
-28.085810908062786
30
0
10
-63.332862421380867
20
-28.134152686005184
30
0
10
-63.359729748036777
20
-28.182792546489523
30
0
10
-63.386303964653493
20
-28.231726169649278
30
0
10
-63.412586030474827
20
-28.280949182967511
30
0
10
-63.438576852818983
20
-28.330457340187326
30
0
10
-63.464277154547148
20
-28.380246730134672
30
0
10
-63.489687451913149
20
-28.430313799296417
30
0
10
-63.514808120288635
20
-28.480655228377138
30
0
10
-63.539639437524244
20
-28.531267845899354
30
0
10
-63.564181634743342
20
-28.582148534178376
30
0
10
-63.588434955247202
20
-28.633294113558563
30
0
10
-63.612399675377787
20
-28.684701325251858
30
0
10
-63.636076084911572
20
-28.736366913610951
30
0
10
-63.659464480891359
20
-28.788287682782308
30
0
10
-63.682565157298534
20
-28.840460554573639
30
0
10
-63.705378400548121
20
-28.892882642011219
30
0
10
-63.727904477912404
20
-28.945551250431873
30
0
10
-63.750143617688536
20
-28.998463774614301
30
0
10
-63.772095991900997
20
-29.051617615207839
30
0
10
-63.793761702607704
20
-29.105010095467321
30
0
10
-63.815140762506331
20
-29.158638352438352
30
0
10
-63.836233100049604
20
-29.212499313531147
30
0
10
-63.857038620824738
20
-29.266589884841537
30
0
10
-63.87755726123487
20
-29.32090709857529
30
0
10
-63.897789044031974
20
-29.375448270531599
30
0
10
-63.917734143095892
20
-29.430211162869107
30
0
10
-63.937392923323102
20
-29.485194110949475
30
0
10
-63.956765831160439
20
-29.540395937230247
30
0
10
-63.972035810418511
20
-29.584731900082815
30
0
10
-63.983360000718186
20
-29.618081851406597
30
0
10
-63.990852460259617
20
-29.640358684156595
30
0
10
-63.994584439864397
20
-29.651507983496955
30
0
0
ARC
5
177
100
AcDbEntity
8
0
100
AcDbCircle
10
-50
20
-20
30
0
40
17.000000000000007
210
0
220
0
230
1
100
AcDbArc
50
214.59248412034762
51
217.40751587965224
0
SPLINE
5
178
100
AcDbEntity
8
0
100
AcDbSpline
70
4
71
5
72
81
73
75
74
0
42
0.000000001
43
0.0000000001
44
0.0000000001
40
-1
40
-1
40
-1
40
-1
40
-1
40
-1
40
-0.9857142857142841
40
-0.97142857142856986
40
-0.95714285714285563
40
-0.94285714285714139
40
-0.92857142857142716
40
-0.91428571428571292
40
-0.89999999999999869
40
-0.88571428571428445
40
-0.87142857142857022
40
-0.85714285714285599
40
-0.84285714285714175
40
-0.82857142857142752
40
-0.81428571428571328
40
-0.79999999999999905
40
-0.78571428571428481
40
-0.77142857142857058
40
-0.75714285714285634
40
-0.74285714285714211
40
-0.72857142857142787
40
-0.71428571428571364
40
-0.6999999999999994
40
-0.68571428571428517
40
-0.67142857142857093
40
-0.6571428571428567
40
-0.64285714285714246
40
-0.62857142857142823
40
-0.61428571428571399
40
-0.59999999999999976
40
-0.58571428571428552
40
-0.57142857142857129
40
-0.55714285714285705
40
-0.54285714285714282
40
-0.52857142857142858
40
-0.51428571428571435
40
-0.50000000000000011
40
-0.48571428571428582
40
-0.47142857142857153
40
-0.45714285714285724
40
-0.44285714285714295
40
-0.42857142857142866
40
-0.41428571428571437
40
-0.40000000000000008
40
-0.38571428571428579
40
-0.3714285714285715
40
-0.35714285714285721
40
-0.34285714285714292
40
-0.32857142857142863
40
-0.31428571428571433
40
-0.30000000000000004
40
-0.28571428571428575
40
-0.27142857142857146
40
-0.25714285714285717
40
-0.24285714285714291
40
-0.22857142857142862
40
-0.21428571428571433
40
-0.20000000000000004
40
-0.18571428571428575
40
-0.17142857142857146
40
-0.15714285714285717
40
-0.14285714285714288
40
-0.12857142857142859
40
-0.1142857142857143
40
-0.10000000000000001
40
-0.085714285714285715
40
-0.071428571428571425
40
-0.057142857142857141
40
-0.042857142857142858
40
-0.028571428571428571
40
-0.014285714285714285
40
0
40
0
40
0
40
0
40
0
40
0
41
1
41
1
41
1
41
1
41
1
41
1
41
1
41
1
41
1
41
1
41
1
41
1
41
1
41
1
41
1
41
1
41
1
41
1
41
1
41
1
41
1
41
1
41
1
41
1
41
1
41
1
41
1
41
1
41
1
41
1
41
1
41
1
41
1
41
1
41
1
41
1
41
1
41
1
41
1
41
1
41
1
41
1
41
1
41
1
41
1
41
1
41
1
41
1
41
1
41
1
41
1
41
1
41
1
41
1
41
1
41
1
41
1
41
1
41
1
41
1
41
1
41
1
41
1
41
1
41
1
41
1
41
1
41
1
41
1
41
1
41
1
41
1
41
1
41
1
41
1
10
-63.503693980912779
20
-30.327160736129759
30
0
10
-63.491937122002469
20
-30.32705673557949
30
0
10
-63.4684352977252
20
-30.326814903010131
30
0
10
-63.433218241950456
20
-30.326350659754489
30
0
10
-63.386333552478803
20
-30.325528612460833
30
0
10
-63.327846938130882
20
-30.324162184663834
30
0
10
-63.269480149895045
20
-30.322456238983992
30
0
10
-63.211234169721052
20
-30.320409986944519
30
0
10
-63.153110468014816
20
-30.318022567106691
30
0
10
-63.09511111935813
20
-30.315293122569948
30
0
10
-63.037238669546916
20
-30.312220802232204
30
0
10
-62.979495960773733
20
-30.308804749478824
30
0
10
-62.921885964691448
20
-30.305044098032724
30
0
10
-62.864411625615929
20
-30.300937966456956
30
0
10
-62.807075662454793
20
-30.296485457973734
30
0
10
-62.749880589406366
20
-30.291685648360499
30
0
10
-62.692828825441538
20
-30.28653757076869
30
0
10
-62.635922777725298
20
-30.281040203017163
30
0
10
-62.579164926442949
20
-30.275192458218161
30
0
10
-62.522557928762552
20
-30.268993171850866
30
0
10
-62.466104621373688
20
-30.262441113108622
30
0
10
-62.409807951922431
20
-30.255535011913899
30
0
10
-62.353670927167499
20
-30.248273586622538
30
0
10
-62.297696561006148
20
-30.240655567396821
30
0
10
-62.241887802286371
20
-30.23267974027587
30
0
10
-62.186247544681457
20
-30.224344922030745
30
0
10
-62.130778718585162
20
-30.215649868369326
30
0
10
-62.075484364838822
20
-30.206593196573305
30
0
10
-62.020367703503027
20
-30.197173317560129
30
0
10
-61.965432230948956
20
-30.187388335228739
30
0
10
-61.910681705230175
20
-30.177236074502673
30
0
10
-61.856119988434756
20
-30.166714271904816
30
0
10
-61.801750912611517
20
-30.155820741886998
30
0
10
-61.747578158705551
20
-30.144553525417166
30
0
10
-61.693605070727166
20
-30.132911122155285
30
0
10
-61.639834696327085
20
-30.120892436184231
30
0
10
-61.586270170200272
20
-30.108496288612727
30
0
10
-61.532915040232147
20
-30.095721002879458
30
0
10
-61.479773562948949
20
-30.082564030487102
30
0
10
-61.426851138058858
20
-30.069021399050047
30
0
10
-61.374154248607923
20
-30.055087793993209
30
0
10
-61.321689610647326
20
-30.040757652587352
30
0
10
-61.269463443271775
20
-30.026026104864698
30
0
10
-61.217480817027294
20
-30.010889813902089
30
0
10
-61.165744655918495
20
-29.995348262225818
30
0
10
-61.114255957599745
20
-29.979403472399323
30
0
10
-61.063015860052438
20
-29.963057354216851
30
0
10
-61.012027423262801
20
-29.946309418594073
30
0
10
-60.961297206052059
20
-29.92915475586317
30
0
10
-60.910837705097677
20
-29.91158090474396
30
0
10
-60.860666656256434
20
-29.893568760345936
30
0
10
-60.810802313856421
20
-29.875098659787373
30
0
10
-60.761259346403904
20
-29.856155674202277
30
0
10
-60.712045297197371
20
-29.836734175650228
30
0
10
-60.663154795056499
20
-29.816845296525472
30
0
10
-60.614572407637169
20
-29.796513279268183
30
0
10
-60.566283958904449
20
-29.775760946635025
30
0
10
-60.518286479208598
20
-29.754596928460249
30
0
10
-60.470596738453033
20
-29.733004714346638
30
0
10
-60.423265309724279
20
-29.710924587202197
30
0
10
-60.376366920495698
20
-29.688266084972433
30
0
10
-60.329974924364521
20
-29.66494092379742
30
0
10
-60.284138412634043
20
-29.640892490250845
30
0
10
-60.238862707710496
20
-29.616121055084271
30
0
10
-60.19407698652104
20
-29.59072537020063
30
0
10
-60.149669845307798
20
-29.564857712358386
30
0
10
-60.105552523111371
20
-29.538643654372933
30
0
10
-60.061716001723077
20
-29.512109709186511
30
0
10
-60.018284537987071
20
-29.485115364288244
30
0
10
-59.975587126939338
20
-29.457262678077292
30
0
10
-59.934073325052196
20
-29.428000926142197
30
0
10
-59.902174243777388
20
-29.403014865438955
30
0
10
-59.879149818849761
20
-29.383188584934608
30
0
10
-59.864220845224978
20
-29.369462475987149
30
0
10
-59.856861520854878
20
-29.362472272238044
30
0
0
LINE
5
179
100
AcDbEntity
8
0
100
AcDbLine
10
-59.856861520854878
20
-29.362472272238051
30
0
11
-59.553715537833618
21
-29.074531140624099
31
0
0
ARC
5
180
100
AcDbEntity
8
0
100
AcDbCircle
10
-59.209370698764083
20
-29.437059252370183
30
0
40
0.49999999999999778
210
0
220
-0
230
1
100
AcDbArc
50
45.699594768076658
51
133.52647483519982
0
ARC
5
181
100
AcDbEntity
8
0
100
AcDbCircle
10
-50
20
-20
30
0
40
12.686000000000003
210
0
220
0
230
1
100
AcDbArc
50
225.69959476807736
51
230.30040523192261
0
ARC
5
182
100
AcDbEntity
8
0
100
AcDbCircle
10
-58.422720687565928
20
-30.145362103899931
30
0
40
0.49999999999999545
210
-0
220
0
230
1
100
AcDbArc
50
-37.526474835200332
51
50.300405231922824
0
LINE
5
183
100
AcDbEntity
8
0
100
AcDbLine
10
-58.026184705885854
20
-30.449926079499505
30
0
11
-58.280861082102064
21
-30.781509441106248
31
0
0
SPLINE
5
184
100
AcDbEntity
8
0
100
AcDbSpline
70
4
71
5
72
81
73
75
74
0
42
0.000000001
43
0.0000000001
44
0.0000000001
40
0
40
0
40
0
40
0
40
0
40
0
40
0.014285714285714285
40
0.028571428571428571
40
0.042857142857142858
40
0.057142857142857141
40
0.071428571428571425
40
0.085714285714285715
40
0.10000000000000001
40
0.1142857142857143
40
0.12857142857142859
40
0.14285714285714288
40
0.15714285714285717
40
0.17142857142857146
40
0.18571428571428575
40
0.20000000000000004
40
0.21428571428571433
40
0.22857142857142862
40
0.24285714285714291
40
0.25714285714285717
40
0.27142857142857146
40
0.28571428571428575
40
0.30000000000000004
40
0.31428571428571433
40
0.32857142857142863
40
0.34285714285714292
40
0.35714285714285721
40
0.3714285714285715
40
0.38571428571428579
40
0.40000000000000008
40
0.41428571428571437
40
0.42857142857142866
40
0.44285714285714295
40
0.45714285714285724
40
0.47142857142857153
40
0.48571428571428582
40
0.50000000000000011
40
0.51428571428571435
40
0.52857142857142858
40
0.54285714285714282
40
0.55714285714285705
40
0.57142857142857129
40
0.58571428571428552
40
0.59999999999999976
40
0.61428571428571399
40
0.62857142857142823
40
0.64285714285714246
40
0.6571428571428567
40
0.67142857142857093
40
0.68571428571428517
40
0.6999999999999994
40
0.71428571428571364
40
0.72857142857142787
40
0.74285714285714211
40
0.75714285714285634
40
0.77142857142857058
40
0.78571428571428481
40
0.79999999999999905
40
0.81428571428571328
40
0.82857142857142752
40
0.84285714285714175
40
0.85714285714285599
40
0.87142857142857022
40
0.88571428571428445
40
0.89999999999999869
40
0.91428571428571292
40
0.92857142857142716
40
0.94285714285714139
40
0.95714285714285563
40
0.97142857142856986
40
0.9857142857142841
40
1
40
1
40
1
40
1
40
1
40
1
41
1
41
1
41
1
41
1
41
1
41
1
41
1
41
1
41
1
41
1
41
1
41
1
41
1
41
1
41
1
41
1
41
1
41
1
41
1
41
1
41
1
41
1
41
1
41
1
41
1
41
1
41
1
41
1
41
1
41
1
41
1
41
1
41
1
41
1
41
1
41
1
41
1
41
1
41
1
41
1
41
1
41
1
41
1
41
1
41
1
41
1
41
1
41
1
41
1
41
1
41
1
41
1
41
1
41
1
41
1
41
1
41
1
41
1
41
1
41
1
41
1
41
1
41
1
41
1
41
1
41
1
41
1
41
1
41
1
41
1
41
1
41
1
41
1
41
1
41
1
10
-58.280861082102064
20
-30.781509441106248
30
0
10
-58.287043733916533
20
-30.789559125583249
30
0
10
-58.299134147131838
20
-30.80584108580339
30
0
10
-58.316445109441815
20
-30.830811791155615
30
0
10
-58.33795993194488
20
-30.865147880453957
30
0
10
-58.362722011025511
20
-30.909492951353002
30
0
10
-58.385959022544796
20
-30.95486786000302
30
0
10
-58.408265665435465
20
-31.000883079025499
30
0
10
-58.430072090678138
20
-31.047253011877704
30
0
10
-58.451531029418447
20
-31.093868769964299
30
0
10
-58.472615171295324
20
-31.140736550734161
30
0
10
-58.493190353347714
20
-31.187931502971441
30
0
10
-58.51309348814155
20
-31.235548502897043
30
0
10
-58.53221896172019
20
-31.28364766322294
30
0
10
-58.550567061158219
20
-31.33222366239832
30
0
10
-58.568199221186177
20
-31.381233595761667
30
0
10
-58.585210909574563
20
-31.430613739730639
30
0
10
-58.601699903965219
20
-31.480299232056332
30
0
10
-58.617730880640678
20
-31.530246018832727
30
0
10
-58.633322012484712
20
-31.580439147830148
30
0
10
-58.648464406525271
20
-31.630880670366967
30
0
10
-58.663133883232007
20
-31.681582299192645
30
0
10
-58.677304719848145
20
-31.732556848086272
30
0
10
-58.690965283522644
20
-31.783808495152236
30
0
10
-58.704121959854859
20
-31.835330326694972
30
0
10
-58.716791129205319
20
-31.887109315055262
30
0
10
-58.728994254837303
20
-31.939129361234929
30
0
10
-58.740752190884571
20
-31.991374823540937
30
0
10
-58.752078636621604
20
-32.043834576312392
30
0
10
-58.762979160404043
20
-32.096502609857993
30
0
10
-58.773454568492625
20
-32.149375932077703
30
0
10
-58.783503080506605
20
-32.202453211596215
30
0
10
-58.793122789245629
20
-32.255733244808994
30
0
10
-58.80231451499035
20
-32.309213177820141
30
0
10
-58.811082106400285
20
-32.362888316664097
30
0
10
-58.819431056837431
20
-32.416752985365221
30
0
10
-58.827367600576324
20
-32.470801086127111
30
0
10
-58.834897700741095
20
-32.525026726942897
30
0
10
-58.842025872379402
20
-32.579424952911921
30
0
10
-58.848755094955784
20
-32.633991797216154
30
0
10
-58.855087406702182
20
-32.688723906654232
30
0
10
-58.861024307716647
20
-32.743618286931074
30
0
10
-58.866567206478976
20
-32.798672021645856
30
0
10
-58.871717944654463
20
-32.853881941935327
30
0
10
-58.876478855306907
20
-32.909244591793609
30
0
10
-58.880852512569973
20
-32.964756388616252
30
0
10
-58.884841571219383
20
-33.020413728069883
30
0
10
-58.888448587239836
20
-33.076213100045344
30
0
10
-58.891675811815666
20
-33.132151225521469
30
0
10
-58.894525161912235
20
-33.188225068181872
30
0
10
-58.896998330527666
20
-33.244431748376662
30
0
10
-58.899096861447269
20
-33.300768481829046
30
0
10
-58.900822233889357
20
-33.357232514398675
30
0
10
-58.902175963403145
20
-33.413821040285129
30
0
10
-58.903159627908096
20
-33.470531194835779
30
0
10
-58.903774816319263
20
-33.527360121731519
30
0
10
-58.904023099869462
20
-33.584305022233075
30
0
10
-58.903905999137685
20
-33.641363203844833
30
0
10
-58.903424950015058
20
-33.698532145680602
30
0
10
-58.902581292685205
20
-33.755809494752455
30
0
10
-58.901376295346935
20
-33.813192963929154
30
0
10
-58.899811172403616
20
-33.870680248554365
30
0
10
-58.897887105820097
20
-33.928268944810384
30
0
10
-58.895605271664749
20
-33.985956442422847
30
0
10
-58.892966854310743
20
-34.043739905340402
30
0
10
-58.889973025911921
20
-34.10161646873982
30
0
10
-58.886624935480292
20
-34.159583395538988
30
0
10
-58.882923695563669
20
-34.217638242852509
30
0
10
-58.878870375221268
20
-34.275779037033885
30
0
10
-58.874465984872018
20
-34.334004405777087
30
0
10
-58.869711411315052
20
-34.392313454929841
30
0
10
-58.865628170806374
20
-34.439027232507286
30
0
10
-58.862408686167946
20
-34.47409989219976
30
0
10
-58.860192584377486
20
-34.49749824941145
30
0
10
-58.859067088807109
20
-34.509201574036211
30
0
0
ARC
5
185
100
AcDbEntity
8
0
100
AcDbCircle
10
-50
20
-20
30
0
40
17.000000000000007
210
0
220
0
230
1
100
AcDbArc
50
238.59248412034762
51
241.40751587965224
0
SPLINE
5
186
100
AcDbEntity
8
0
100
AcDbSpline
70
4
71
5
72
81
73
75
74
0
42
0.000000001
43
0.0000000001
44
0.0000000001
40
-1
40
-1
40
-1
40
-1
40
-1
40
-1
40
-0.9857142857142841
40
-0.97142857142856986
40
-0.95714285714285563
40
-0.94285714285714139
40
-0.92857142857142716
40
-0.91428571428571292
40
-0.89999999999999869
40
-0.88571428571428445
40
-0.87142857142857022
40
-0.85714285714285599
40
-0.84285714285714175
40
-0.82857142857142752
40
-0.81428571428571328
40
-0.79999999999999905
40
-0.78571428571428481
40
-0.77142857142857058
40
-0.75714285714285634
40
-0.74285714285714211
40
-0.72857142857142787
40
-0.71428571428571364
40
-0.6999999999999994
40
-0.68571428571428517
40
-0.67142857142857093
40
-0.6571428571428567
40
-0.64285714285714246
40
-0.62857142857142823
40
-0.61428571428571399
40
-0.59999999999999976
40
-0.58571428571428552
40
-0.57142857142857129
40
-0.55714285714285705
40
-0.54285714285714282
40
-0.52857142857142858
40
-0.51428571428571435
40
-0.50000000000000011
40
-0.48571428571428582
40
-0.47142857142857153
40
-0.45714285714285724
40
-0.44285714285714295
40
-0.42857142857142866
40
-0.41428571428571437
40
-0.40000000000000008
40
-0.38571428571428579
40
-0.3714285714285715
40
-0.35714285714285721
40
-0.34285714285714292
40
-0.32857142857142863
40
-0.31428571428571433
40
-0.30000000000000004
40
-0.28571428571428575
40
-0.27142857142857146
40
-0.25714285714285717
40
-0.24285714285714291
40
-0.22857142857142862
40
-0.21428571428571433
40
-0.20000000000000004
40
-0.18571428571428575
40
-0.17142857142857146
40
-0.15714285714285717
40
-0.14285714285714288
40
-0.12857142857142859
40
-0.1142857142857143
40
-0.10000000000000001
40
-0.085714285714285715
40
-0.071428571428571425
40
-0.057142857142857141
40
-0.042857142857142858
40
-0.028571428571428571
40
-0.014285714285714285
40
0
40
0
40
0
40
0
40
0
40
0
41
1
41
1
41
1
41
1
41
1
41
1
41
1
41
1
41
1
41
1
41
1
41
1
41
1
41
1
41
1
41
1
41
1
41
1
41
1
41
1
41
1
41
1
41
1
41
1
41
1
41
1
41
1
41
1
41
1
41
1
41
1
41
1
41
1
41
1
41
1
41
1
41
1
41
1
41
1
41
1
41
1
41
1
41
1
41
1
41
1
41
1
41
1
41
1
41
1
41
1
41
1
41
1
41
1
41
1
41
1
41
1
41
1
41
1
41
1
41
1
41
1
41
1
41
1
41
1
41
1
41
1
41
1
41
1
41
1
41
1
41
1
41
1
41
1
41
1
41
1
10
-58.135803607340989
20
-34.926777939755709
30
0
10
-58.125105483122006
20
-34.921900985199123
30
0
10
-58.103733860474648
20
-34.912121007041179
30
0
10
-58.071750303883448
20
-34.897372832678919
30
0
10
-58.029253365540313
20
-34.87755213390048
30
0
10
-57.976378960925032
20
-34.852515190808589
30
0
10
-57.923752117274077
20
-34.827216820367617
30
0
10
-57.871374052345601
20
-34.801656701663134
30
0
10
-57.819246459800951
20
-34.775834645799669
30
0
10
-57.767371583397747
20
-34.749750713768044
30
0
10
-57.715752095010693
20
-34.723405163516283
30
0
10
-57.66439093952846
20
-34.696798368511864
30
0
10
-57.613291184037635
20
-34.669930746051378
30
0
10
-57.562455876817332
20
-34.642802688463277
30
0
10
-57.511887866465649
20
-34.615414482379634
30
0
10
-57.461589825732219
20
-34.58776630609772
30
0
10
-57.411564357709644
20
-34.559858260241533
30
0
10
-57.361814077211086
20
-34.531690390084314
30
0
10
-57.312341692075648
20
-34.503262711486954
30
0
10
-57.263150103400434
20
-34.474575241374353
30
0
10
-57.214242403244491
20
-34.44562800913431
30
0
10
-57.165621801003574
20
-34.416421053408897
30
0
10
-57.117291564780082
20
-34.386954426316876
30
0
10
-57.069254964395711
20
-34.357228193666231
30
0
10
-57.021515187519512
20
-34.327242445853024
30
0
10
-56.974075358916153
20
-34.296997278906822
30
0
10
-56.926938661732727
20
-34.266492748008716
30
0
10
-56.880108436318224
20
-34.235728826804262
30
0
10
-56.833588270682483
20
-34.204705373310972
30
0
10
-56.787382130133288
20
-34.173422077456578
30
0
10
-56.741494332506704
20
-34.141878480747998
30
0
10
-56.695929326634825
20
-34.110074086248687
30
0
10
-56.650691502210968
20
-34.078008455995736
30
0
10
-56.605785018755924
20
-34.045681297499563
30
0
10
-56.561213541418411
20
-34.013092600262873
30
0
10
-56.516980300115527
20
-33.98024260270676
30
0
10
-56.473088638031903
20
-33.947131502855783
30
0
10
-56.429542478241075
20
-33.913759212149955
30
0
10
-56.386346745840498
20
-33.880125133706336
30
0
10
-56.343507989423848
20
-33.846227834829257
30
0
10
-56.30103429318082
20
-33.812065097305187
30
0
10
-56.25893405509526
20
-33.777634570992213
30
0
10
-56.217214937387268
20
-33.742934336487089
30
0
10
-56.175882929480039
20
-33.707963407735697
30
0
10
-56.134940913060227
20
-33.672722501302104
30
0
10
-56.094388976879785
20
-33.637213870672525
30
0
10
-56.054227383753137
20
-33.601439723389575
30
0
10
-56.014459128045324
20
-33.565400857260997
30
0
10
-55.975092198479494
20
-33.529095454794984
30
0
10
-55.936143079797844
20
-33.492517214902279
30
0
10
-55.897635745170803
20
-33.455655898219781
30
0
10
-55.859594868371403
20
-33.418500966515346
30
0
10
-55.822039921863734
20
-33.381044747810236
30
0
10
-55.784980085883468
20
-33.343285168860966
30
0
10
-55.748405925660549
20
-33.30523021495987
30
0
10
-55.712293482758383
20
-33.266895755778222
30
0
10
-55.676620523873204
20
-33.228296875028825
30
0
10
-55.64138082602517
20
-33.189440248592199
30
0
10
-55.606596424666904
20
-33.150317614404194
30
0
10
-55.572337809741441
20
-33.110894988114111
30
0
10
-55.538710042424981
20
-33.071120122924626
30
0
10
-55.505816042843904
20
-33.030942203112438
30
0
10
-55.473723684890295
20
-32.99032947697097
30
0
10
-55.442437720699644
20
-32.949284356661764
30
0
10
-55.411853284157964
20
-32.907868250198277
30
0
10
-55.381806666330689
20
-32.866174957330969
30
0
10
-55.352165704981189
20
-32.824283092200311
30
0
10
-55.322911377780741
20
-32.782213207548317
30
0
10
-55.294214350591901
20
-32.739887478620616
30
0
10
-55.26653703276623
20
-32.697076182011877
30
0
10
-55.240514114375344
20
-32.653459057028009
30
0
10
-55.221535600027906
20
-32.617658629533267
30
0
10
-55.208565815997446
20
-32.590181543732761
30
0
10
-55.200510431431049
20
-32.57156995863599
30
0
10
-55.196630526088754
20
-32.562190782863397
30
0
0
LINE
5
187
100
AcDbEntity
8
0
100
AcDbLine
10
-55.196630526088754
20
-32.562190782863397
30
0
11
-55.036809099573183
21
-32.175842890513032
31
0
0
ARC
5
188
100
AcDbEntity
8
0
100
AcDbCircle
10
-54.574780968786328
20
-32.366971136362793
30
0
40
0.49999999999999878
210
0
220
-0
230
1
100
AcDbArc
50
69.699594768077887
51
157.52647483520013
0
ARC
5
189
100
AcDbEntity
8
0
100
AcDbCircle
10
-50
20
-20
30
0
40
12.686000000000003
210
0
220
0
230
1
100
AcDbArc
50
249.6995947680773
51
254.30040523192261
0
ARC
5
190
100
AcDbEntity
8
0
100
AcDbCircle
10
-53.568047700189524
20
-32.694078604182828
30
0
40
0.49999999999999956
210
-0
220
0
230
1
100
AcDbArc
50
-13.526474835200251
51
74.300405231922298
0
LINE
5
191
100
AcDbEntity
8
0
100
AcDbLine
10
-53.081916726296647
20
-32.811025926606071
30
0
11
-53.179708069558131
21
-33.21752861476466
31
0
0
SPLINE
5
192
100
AcDbEntity
8
0
100
AcDbSpline
70
4
71
5
72
81
73
75
74
0
42
0.000000001
43
0.0000000001
44
0.0000000001
40
0
40
0
40
0
40
0
40
0
40
0
40
0.014285714285714285
40
0.028571428571428571
40
0.042857142857142858
40
0.057142857142857141
40
0.071428571428571425
40
0.085714285714285715
40
0.10000000000000001
40
0.1142857142857143
40
0.12857142857142859
40
0.14285714285714288
40
0.15714285714285717
40
0.17142857142857146
40
0.18571428571428575
40
0.20000000000000004
40
0.21428571428571433
40
0.22857142857142862
40
0.24285714285714291
40
0.25714285714285717
40
0.27142857142857146
40
0.28571428571428575
40
0.30000000000000004
40
0.31428571428571433
40
0.32857142857142863
40
0.34285714285714292
40
0.35714285714285721
40
0.3714285714285715
40
0.38571428571428579
40
0.40000000000000008
40
0.41428571428571437
40
0.42857142857142866
40
0.44285714285714295
40
0.45714285714285724
40
0.47142857142857153
40
0.48571428571428582
40
0.50000000000000011
40
0.51428571428571435
40
0.52857142857142858
40
0.54285714285714282
40
0.55714285714285705
40
0.57142857142857129
40
0.58571428571428552
40
0.59999999999999976
40
0.61428571428571399
40
0.62857142857142823
40
0.64285714285714246
40
0.6571428571428567
40
0.67142857142857093
40
0.68571428571428517
40
0.6999999999999994
40
0.71428571428571364
40
0.72857142857142787
40
0.74285714285714211
40
0.75714285714285634
40
0.77142857142857058
40
0.78571428571428481
40
0.79999999999999905
40
0.81428571428571328
40
0.82857142857142752
40
0.84285714285714175
40
0.85714285714285599
40
0.87142857142857022
40
0.88571428571428445
40
0.89999999999999869
40
0.91428571428571292
40
0.92857142857142716
40
0.94285714285714139
40
0.95714285714285563
40
0.97142857142856986
40
0.9857142857142841
40
1
40
1
40
1
40
1
40
1
40
1
41
1
41
1
41
1
41
1
41
1
41
1
41
1
41
1
41
1
41
1
41
1
41
1
41
1
41
1
41
1
41
1
41
1
41
1
41
1
41
1
41
1
41
1
41
1
41
1
41
1
41
1
41
1
41
1
41
1
41
1
41
1
41
1
41
1
41
1
41
1
41
1
41
1
41
1
41
1
41
1
41
1
41
1
41
1
41
1
41
1
41
1
41
1
41
1
41
1
41
1
41
1
41
1
41
1
41
1
41
1
41
1
41
1
41
1
41
1
41
1
41
1
41
1
41
1
41
1
41
1
41
1
41
1
41
1
41
1
41
1
41
1
41
1
41
1
41
1
41
1
10
-53.179708069558131
20
-33.21752861476466
30
0
10
-53.182082101397441
20
-33.227397078498406
30
0
10
-53.186504773628663
20
-33.247189003383625
30
0
10
-53.192162623744174
20
-33.277041880530653
30
0
10
-53.197851646416268
20
-33.317160325623632
30
0
10
-53.202436166007729
20
-33.367743208633129
30
0
10
-53.205208594306185
20
-33.418646594381762
30
0
10
-53.206870650878599
20
-33.469756517749822
30
0
10
-53.207931460778525
20
-33.520987031478839
30
0
10
-53.208574839831982
20
-33.572300782240617
30
0
10
-53.208773318053147
20
-33.623692323561855
30
0
10
-53.208373765714171
20
-33.675175738280537
30
0
10
-53.207188605394848
20
-33.726771366501865
30
0
10
-53.20509690390216
20
-33.778491166854621
30
0
10
-53.202101087961495
20
-33.830330394623992
30
0
10
-53.198274731889896
20
-33.882274842207387
30
0
10
-53.193730968551385
20
-33.934305125456127
30
0
10
-53.188585504119949
20
-33.986401759507146
30
0
10
-53.182915341657527
20
-34.038550805328768
30
0
10
-53.176743164539275
20
-34.090745994957231
30
0
10
-53.170060014284601
20
-34.142985585267503
30
0
10
-53.162839037789013
20
-34.195270441687661
30
0
10
-53.155051524311375
20
-34.24760180779964
30
0
10
-53.146685147325329
20
-34.299978768984936
30
0
10
-53.137748552419495
20
-34.352397606525628
30
0
10
-53.128262002624197
20
-34.404853081555672
30
0
10
-53.118251653658561
20
-34.457339216804051
30
0
10
-53.107742918771507
20
-34.509850205013507
30
0
10
-53.096752838086957
20
-34.562381454383981
30
0
10
-53.085288942912598
20
-34.614929739643578
30
0
10
-53.073353186800965
20
-34.667492655308656
30
0
10
-53.060944484812453
20
-34.720068260961298
30
0
10
-53.048061584182889
20
-34.772654681325754
30
0
10
-53.034706395059999
20
-34.825249642876607
30
0
10
-53.020884342576991
20
-34.877850422853768
30
0
10
-53.006602753797054
20
-34.930454070347118
30
0
10
-52.991869804210587
20
-34.983057550450333
30
0
10
-52.976693337897665
20
-35.035657905968392
30
0
10
-52.961079494899209
20
-35.088252446809648
30
0
10
-52.945032610541787
20
-35.140838760962893
30
0
10
-52.928555910712795
20
-35.193414614149894
30
0
10
-52.91165198370949
20
-35.245977881090802
30
0
10
-52.894323302449315
20
-35.298526470401242
30
0
10
-52.876572838270022
20
-35.351058236253365
30
0
10
-52.858404128215653
20
-35.40357097037122
30
0
10
-52.839820981050885
20
-35.456062446877269
30
0
10
-52.820827288048413
20
-35.508530452843694
30
0
10
-52.801426811906502
20
-35.560972821238863
30
0
10
-52.781622942882429
20
-35.613387472167048
30
0
10
-52.761418667192331
20
-35.665772411515249
30
0
10
-52.740816702726086
20
-35.718125697196776
30
0
10
-52.719819592269133
20
-35.770445413562257
30
0
10
-52.698429807364448
20
-35.822729646231572
30
0
10
-52.676649873756986
20
-35.874976448407907
30
0
10
-52.654482398107085
20
-35.927183844898508
30
0
10
-52.63192999373053
20
-35.979349872596039
30
0
10
-52.608995234369743
20
-36.031472613802883
30
0
10
-52.585680604279347
20
-36.083550227277115
30
0
10
-52.561988440547999
20
-36.135580994104117
30
0
10
-52.537920924540742
20
-36.18756330982427
30
0
10
-52.513480145074922
20
-36.239495600862135
30
0
10
-52.48866814895139
20
-36.291376255751729
30
0
10
-52.463486993669534
20
-36.343203559244735
30
0
10
-52.437938815315484
20
-36.394975605086969
30
0
10
-52.412025849393984
20
-36.446690284144566
30
0
10
-52.385750331949424
20
-36.498345456029192
30
0
10
-52.359114425928141
20
-36.549939087637199
30
0
10
-52.332120141304074
20
-36.60146939979569
30
0
10
-52.3047692574658
20
-36.652935024314445
30
0
10
-52.277063255644109
20
-36.704335118503906
30
0
10
-52.249003309654782
20
-36.755669226209051
30
0
10
-52.22627287875838
20
-36.796683581986869
30
0
10
-52.209066397323923
20
-36.827414568562112
30
0
10
-52.197524918333819
20
-36.847888661706186
30
0
10
-52.191736555997196
20
-36.858122400466364
30
0
0
ARC
5
193
100
AcDbEntity
8
0
100
AcDbCircle
10
-50
20
-20
30
0
40
17.000000000000007
210
0
220
0
230
1
100
AcDbArc
50
262.59248412034759
51
265.40751587965224
0
SPLINE
5
194
100
AcDbEntity
8
0
100
AcDbSpline
70
4
71
5
72
81
73
75
74
0
42
0.000000001
43
0.0000000001
44
0.0000000001
40
-1
40
-1
40
-1
40
-1
40
-1
40
-1
40
-0.9857142857142841
40
-0.97142857142856986
40
-0.95714285714285563
40
-0.94285714285714139
40
-0.92857142857142716
40
-0.91428571428571292
40
-0.89999999999999869
40
-0.88571428571428445
40
-0.87142857142857022
40
-0.85714285714285599
40
-0.84285714285714175
40
-0.82857142857142752
40
-0.81428571428571328
40
-0.79999999999999905
40
-0.78571428571428481
40
-0.77142857142857058
40
-0.75714285714285634
40
-0.74285714285714211
40
-0.72857142857142787
40
-0.71428571428571364
40
-0.6999999999999994
40
-0.68571428571428517
40
-0.67142857142857093
40
-0.6571428571428567
40
-0.64285714285714246
40
-0.62857142857142823
40
-0.61428571428571399
40
-0.59999999999999976
40
-0.58571428571428552
40
-0.57142857142857129
40
-0.55714285714285705
40
-0.54285714285714282
40
-0.52857142857142858
40
-0.51428571428571435
40
-0.50000000000000011
40
-0.48571428571428582
40
-0.47142857142857153
40
-0.45714285714285724
40
-0.44285714285714295
40
-0.42857142857142866
40
-0.41428571428571437
40
-0.40000000000000008
40
-0.38571428571428579
40
-0.3714285714285715
40
-0.35714285714285721
40
-0.34285714285714292
40
-0.32857142857142863
40
-0.31428571428571433
40
-0.30000000000000004
40
-0.28571428571428575
40
-0.27142857142857146
40
-0.25714285714285717
40
-0.24285714285714291
40
-0.22857142857142862
40
-0.21428571428571433
40
-0.20000000000000004
40
-0.18571428571428575
40
-0.17142857142857146
40
-0.15714285714285717
40
-0.14285714285714288
40
-0.12857142857142859
40
-0.1142857142857143
40
-0.10000000000000001
40
-0.085714285714285715
40
-0.071428571428571425
40
-0.057142857142857141
40
-0.042857142857142858
40
-0.028571428571428571
40
-0.014285714285714285
40
0
40
0
40
0
40
0
40
0
40
0
41
1
41
1
41
1
41
1
41
1
41
1
41
1
41
1
41
1
41
1
41
1
41
1
41
1
41
1
41
1
41
1
41
1
41
1
41
1
41
1
41
1
41
1
41
1
41
1
41
1
41
1
41
1
41
1
41
1
41
1
41
1
41
1
41
1
41
1
41
1
41
1
41
1
41
1
41
1
41
1
41
1
41
1
41
1
41
1
41
1
41
1
41
1
41
1
41
1
41
1
41
1
41
1
41
1
41
1
41
1
41
1
41
1
41
1
41
1
41
1
41
1
41
1
41
1
41
1
41
1
41
1
41
1
41
1
41
1
41
1
41
1
41
1
41
1
41
1
41
1
10
-51.361158878604499
20
-36.945419632077467
30
0
10
-51.353369291943736
20
-36.93661299326314
30
0
10
-51.337823218637098
20
-36.918985916588426
30
0
10
-51.314603408725567
20
-36.89250390444974
30
0
10
-51.283842328223031
20
-36.857111733070703
30
0
10
-51.245722598247255
20
-36.812733389597994
30
0
10
-51.207935358548312
20
-36.768216912473633
30
0
10
-51.170481852131282
20
-36.723562503834529
30
0
10
-51.133363703063488
20
-36.678770679990237
30
0
10
-51.096582936312338
20
-36.633842409277072
30
0
10
-51.060141887839883
20
-36.588779014091642
30
0
10
-51.024043096032912
20
-36.543582033407588
30
0
10
-50.98828919308464
20
-36.498253095940825
30
0
10
-50.952882804162215
20
-36.452793799948033
30
0
10
-50.917826415005734
20
-36.407205565909877
30
0
10
-50.883122394773466
20
-36.361489643814224
30
0
10
-50.848773080581338
20
-36.315647184358824
30
0
10
-50.814780842765785
20
-36.269679292443165
30
0
10
-50.781148148609688
20
-36.223587083934284
30
0
10
-50.747877641513163
20
-36.177371754276344
30
0
10
-50.714972134259611
20
-36.131034587970134
30
0
10
-50.682434543060779
20
-36.084576925695821
30
0
10
-50.650267832278203
20
-36.038000144323249
30
0
10
-50.618474962276082
20
-35.991305633927311
30
0
10
-50.587058808367615
20
-35.944494773630737
30
0
10
-50.556022186108642
20
-35.897568922117166
30
0
10
-50.525367981004543
20
-35.850529424499612
30
0
10
-50.49509925533529
20
-35.803377615344438
30
0
10
-50.465219344660461
20
-35.756114824319233
30
0
10
-50.435731997586714
20
-35.708742380994913
30
0
10
-50.406641345139498
20
-35.661261622739289
30
0
10
-50.3779516536515
20
-35.61367390508132
30
0
10
-50.349667111442649
20
-35.565980613371075
30
0
10
-50.321791637390504
20
-35.51818317223556
30
0
10
-50.294328584044663
20
-35.470283062835293
30
0
10
-50.267280805106616
20
-35.422281816704448
30
0
10
-50.240651274183676
20
-35.374180974543123
30
0
10
-50.21444361120242
20
-35.325982051105527
30
0
10
-50.188662558237439
20
-35.277686504329544
30
0
10
-50.163314680456551
20
-35.229295688935586
30
0
10
-50.138408265363253
20
-35.180810866620924
30
0
10
-50.113951940786393
20
-35.13223330619185
30
0
10
-50.089953487203971
20
-35.083564370691931
30
0
10
-50.06641877729065
20
-35.034805595433781
30
0
10
-50.043350152145351
20
-34.98595880711882
30
0
10
-50.020746776271579
20
-34.937026100507801
30
0
10
-49.998607991873811
20
-34.888009599187512
30
0
10
-49.97693620994297
20
-34.838911249909586
30
0
10
-49.955739467781306
20
-34.789732641619068
30
0
10
-49.935035387834084
20
-34.7404747229332
30
0
10
-49.914850035406424
20
-34.69113789049517
30
0
10
-49.895210237396768
20
-34.64172255287852
30
0
10
-49.876136903261106
20
-34.592229621546572
30
0
10
-49.857639262826126
20
-34.542660936435425
30
0
10
-49.839705449089529
20
-34.493019955005892
30
0
10
-49.822307120153546
20
-34.443311430150004
30
0
10
-49.80541782978581
20
-34.393540098425774
30
0
10
-49.789029177686118
20
-34.343709527439565
30
0
10
-49.773164654726386
20
-34.29382113204624
30
0
10
-49.757902479354556
20
-34.243872536839376
30
0
10
-49.743359880417898
20
-34.193858744224748
30
0
10
-49.729651548747086
20
-34.14377519311585
30
0
10
-49.716852404810467
20
-34.093620483684397
30
0
10
-49.704965808785332
20
-34.043398752417232
30
0
10
-49.693870983820354
20
-33.993123445434932
30
0
10
-49.683380222566356
20
-33.942813666651006
30
0
10
-49.673340813560785
20
-33.892487478431875
30
0
10
-49.663727019488356
20
-33.842155919563552
30
0
10
-49.654726405551926
20
-33.791817309655194
30
0
10
-49.64685484064092
20
-33.741449864760739
30
0
10
-49.640822404746885
20
-33.691019163886942
30
0
10
-49.638046014871861
20
-33.650594588751218
30
0
10
-49.637373465224243
20
-33.620217735410947
30
0
10
-49.63758451888863
20
-33.599938786309039
30
0
10
-49.637854903455647
20
-33.589792383211183
30
0
0
LINE
5
195
100
AcDbEntity
8
0
100
AcDbLine
10
-49.637854903455647
20
-33.589792383211183
30
0
11
-49.648992610022383
21
-33.171840790572176
31
0
0
ARC
5
196
100
AcDbEntity
8
0
100
AcDbCircle
10
-49.149170048725061
20
-33.158521360472591
30
0
40
0.50000000000000067
210
0
220
0
230
1
100
AcDbArc
50
93.699594768077404
51
181.52647483520016
0
ARC
5
197
100
AcDbEntity
8
0
100
AcDbCircle
10
-50
20
-20
30
0
40
12.686
210
-0
220
0
230
1
100
AcDbArc
50
273.69959476807725
51
278.30040523192264
0
ARC
5
198
100
AcDbEntity
8
0
100
AcDbCircle
10
-48.096426850754604
20
-33.047873591718762
30
0
40
0.50000000000000211
210
0
220
-0
230
1
100
AcDbArc
50
10.473525164799053
51
98.300405231922298
0
LINE
5
199
100
AcDbEntity
8
0
100
AcDbLine
10
-47.604757346396262
20
-32.956983006485629
30
0
11
-47.528754645046646
21
-33.368117013452462
31
0
0
SPLINE
5
200
100
AcDbEntity
8
0
100
AcDbSpline
70
4
71
5
72
81
73
75
74
0
42
0.000000001
43
0.0000000001
44
0.0000000001
40
0
40
0
40
0
40
0
40
0
40
0
40
0.014285714285714285
40
0.028571428571428571
40
0.042857142857142858
40
0.057142857142857141
40
0.071428571428571425
40
0.085714285714285715
40
0.10000000000000001
40
0.1142857142857143
40
0.12857142857142859
40
0.14285714285714288
40
0.15714285714285717
40
0.17142857142857146
40
0.18571428571428575
40
0.20000000000000004
40
0.21428571428571433
40
0.22857142857142862
40
0.24285714285714291
40
0.25714285714285717
40
0.27142857142857146
40
0.28571428571428575
40
0.30000000000000004
40
0.31428571428571433
40
0.32857142857142863
40
0.34285714285714292
40
0.35714285714285721
40
0.3714285714285715
40
0.38571428571428579
40
0.40000000000000008
40
0.41428571428571437
40
0.42857142857142866
40
0.44285714285714295
40
0.45714285714285724
40
0.47142857142857153
40
0.48571428571428582
40
0.50000000000000011
40
0.51428571428571435
40
0.52857142857142858
40
0.54285714285714282
40
0.55714285714285705
40
0.57142857142857129
40
0.58571428571428552
40
0.59999999999999976
40
0.61428571428571399
40
0.62857142857142823
40
0.64285714285714246
40
0.6571428571428567
40
0.67142857142857093
40
0.68571428571428517
40
0.6999999999999994
40
0.71428571428571364
40
0.72857142857142787
40
0.74285714285714211
40
0.75714285714285634
40
0.77142857142857058
40
0.78571428571428481
40
0.79999999999999905
40
0.81428571428571328
40
0.82857142857142752
40
0.84285714285714175
40
0.85714285714285599
40
0.87142857142857022
40
0.88571428571428445
40
0.89999999999999869
40
0.91428571428571292
40
0.92857142857142716
40
0.94285714285714139
40
0.95714285714285563
40
0.97142857142856986
40
0.9857142857142841
40
1
40
1
40
1
40
1
40
1
40
1
41
1
41
1
41
1
41
1
41
1
41
1
41
1
41
1
41
1
41
1
41
1
41
1
41
1
41
1
41
1
41
1
41
1
41
1
41
1
41
1
41
1
41
1
41
1
41
1
41
1
41
1
41
1
41
1
41
1
41
1
41
1
41
1
41
1
41
1
41
1
41
1
41
1
41
1
41
1
41
1
41
1
41
1
41
1
41
1
41
1
41
1
41
1
41
1
41
1
41
1
41
1
41
1
41
1
41
1
41
1
41
1
41
1
41
1
41
1
41
1
41
1
41
1
41
1
41
1
41
1
41
1
41
1
41
1
41
1
41
1
41
1
41
1
41
1
41
1
41
1
10
-47.528754645046646
20
-33.368117013452462
30
0
10
-47.526909565238356
20
-33.37809790941121
30
0
10
-47.52289977627801
20
-33.397977595344855
30
0
10
-47.515926220514118
20
-33.427550810623089
30
0
10
-47.504805759652101
20
-33.4665147678895
30
0
10
-47.488420014667973
20
-33.514589223006041
30
0
10
-47.470248481706072
20
-33.562219428014622
30
0
10
-47.450978567279563
20
-33.60958668565884
30
0
10
-47.431110338167876
20
-33.65681955902631
30
0
10
-47.410826911451231
20
-33.703958688785761
30
0
10
-47.390105407329131
20
-33.750987926286427
30
0
10
-47.368800206827999
20
-33.797857853369521
30
0
10
-47.346731676381573
20
-33.84451075703555
30
0
10
-47.323784474008157
20
-33.890908374074542
30
0
10
-47.299962746481079
20
-33.937047357011977
30
0
10
-47.275339486036039
20
-33.98294465192776
30
0
10
-47.250025928930683
20
-34.028628565802272
30
0
10
-47.224135703222416
20
-34.074128360268134
30
0
10
-47.197744824223676
20
-34.119462621353222
30
0
10
-47.170876563639354
20
-34.164634849147539
30
0
10
-47.143523446482988
20
-34.209639807484848
30
0
10
-47.115660589221662
20
-34.254467364831427
30
0
10
-47.087261257477884
20
-34.299106979545464
30
0
10
-47.058314562418332
20
-34.343552802431397
30
0
10
-47.028829914720085
20
-34.387804952749079
30
0
10
-46.998827956421216
20
-34.431866886273149
30
0
10
-46.968335013135302
20
-34.475743780984217
30
0
10
-46.937376663044752
20
-34.519440668188359
30
0
10
-46.905970340730732
20
-34.562960283910286
30
0
10
-46.874124238221427
20
-34.606302744976297
30
0
10
-46.84184111857423
20
-34.64946664844917
30
0
10
-46.809120779886541
20
-34.692449780384209
30
0
10
-46.775962840444748
20
-34.735249918086694
30
0
10
-46.742369969981681
20
-34.777865761514875
30
0
10
-46.708348232049445
20
-34.820297029904111
30
0
10
-46.673905520496618
20
-34.862544007648957
30
0
10
-46.639050538412938
20
-34.904607247496038
30
0
10
-46.603791654521693
20
-34.94648723838808
30
0
10
-46.568135572188226
20
-34.988184020183695
30
0
10
-46.53208723298377
20
-35.029697152737207
30
0
10
-46.495650492665916
20
-35.071025907020456
30
0
10
-46.458828580191096
20
-35.112169394249051
30
0
10
-46.421624605324425
20
-35.153126709674453
30
0
10
-46.384042155304847
20
-35.193897101537274
30
0
10
-46.346085359569635
20
-35.234479991122498
30
0
10
-46.307758602944382
20
-35.274874894153967
30
0
10
-46.269066340362457
20
-35.315081371744725
30
0
10
-46.23001289063091
20
-35.355098974640114
30
0
10
-46.190602196873698
20
-35.39492718170272
30
0
10
-46.150837798213836
20
-35.434565385823184
30
0
10
-46.110722967485096
20
-35.47401291828244
30
0
10
-46.070260806802352
20
-35.513269063291723
30
0
10
-46.029454352681007
20
-35.55233307724486
30
0
10
-45.988306704337504
20
-35.591204208967483
30
0
10
-45.946821046457828
20
-35.629881714255525
30
0
10
-45.905000564892404
20
-35.668364862652446
30
0
10
-45.86284839086985
20
-35.70665294908968
30
0
10
-45.820367542770256
20
-35.744745301946416
30
0
10
-45.777560854775878
20
-35.782641301495588
30
0
10
-45.734430972255382
20
-35.820340369231516
30
0
10
-45.690980443469165
20
-35.857841917220043
30
0
10
-45.647211793705097
20
-35.895145305822666
30
0
10
-45.603127600236739
20
-35.932249804942451
30
0
10
-45.558730589819319
20
-35.969154541954069
30
0
10
-45.514023662550059
20
-36.005858499329527
30
0
10
-45.469009731731525
20
-36.042360631207998
30
0
10
-45.423691600251246
20
-36.078659960006391
30
0
10
-45.378071827966629
20
-36.114755677899467
30
0
10
-45.332152596923116
20
-36.150647258725776
30
0
10
-45.285935603045061
20
-36.186334535120949
30
0
10
-45.23942210420153
20
-36.221817567800535
30
0
10
-45.201974780918874
20
-36.250040747061036
30
0
10
-45.173756459644395
20
-36.271116393757922
30
0
10
-45.154885230023069
20
-36.285126066128477
30
0
10
-45.145434861353834
20
-36.292120712621838
30
0
0
ARC
5
201
100
AcDbEntity
8
0
100
AcDbCircle
10
-50
20
-20
30
0
40
17
210
-0
220
0
230
1
100
AcDbArc
50
286.59248412034759
51
289.40751587965224
0
SPLINE
5
202
100
AcDbEntity
8
0
100
AcDbSpline
70
4
71
5
72
81
73
75
74
0
42
0.000000001
43
0.0000000001
44
0.0000000001
40
-1
40
-1
40
-1
40
-1
40
-1
40
-1
40
-0.9857142857142841
40
-0.97142857142856986
40
-0.95714285714285563
40
-0.94285714285714139
40
-0.92857142857142716
40
-0.91428571428571292
40
-0.89999999999999869
40
-0.88571428571428445
40
-0.87142857142857022
40
-0.85714285714285599
40
-0.84285714285714175
40
-0.82857142857142752
40
-0.81428571428571328
40
-0.79999999999999905
40
-0.78571428571428481
40
-0.77142857142857058
40
-0.75714285714285634
40
-0.74285714285714211
40
-0.72857142857142787
40
-0.71428571428571364
40
-0.6999999999999994
40
-0.68571428571428517
40
-0.67142857142857093
40
-0.6571428571428567
40
-0.64285714285714246
40
-0.62857142857142823
40
-0.61428571428571399
40
-0.59999999999999976
40
-0.58571428571428552
40
-0.57142857142857129
40
-0.55714285714285705
40
-0.54285714285714282
40
-0.52857142857142858
40
-0.51428571428571435
40
-0.50000000000000011
40
-0.48571428571428582
40
-0.47142857142857153
40
-0.45714285714285724
40
-0.44285714285714295
40
-0.42857142857142866
40
-0.41428571428571437
40
-0.40000000000000008
40
-0.38571428571428579
40
-0.3714285714285715
40
-0.35714285714285721
40
-0.34285714285714292
40
-0.32857142857142863
40
-0.31428571428571433
40
-0.30000000000000004
40
-0.28571428571428575
40
-0.27142857142857146
40
-0.25714285714285717
40
-0.24285714285714291
40
-0.22857142857142862
40
-0.21428571428571433
40
-0.20000000000000004
40
-0.18571428571428575
40
-0.17142857142857146
40
-0.15714285714285717
40
-0.14285714285714288
40
-0.12857142857142859
40
-0.1142857142857143
40
-0.10000000000000001
40
-0.085714285714285715
40
-0.071428571428571425
40
-0.057142857142857141
40
-0.042857142857142858
40
-0.028571428571428571
40
-0.014285714285714285
40
0
40
0
40
0
40
0
40
0
40
0
41
1
41
1
41
1
41
1
41
1
41
1
41
1
41
1
41
1
41
1
41
1
41
1
41
1
41
1
41
1
41
1
41
1
41
1
41
1
41
1
41
1
41
1
41
1
41
1
41
1
41
1
41
1
41
1
41
1
41
1
41
1
41
1
41
1
41
1
41
1
41
1
41
1
41
1
41
1
41
1
41
1
41
1
41
1
41
1
41
1
41
1
41
1
41
1
41
1
41
1
41
1
41
1
41
1
41
1
41
1
41
1
41
1
41
1
41
1
41
1
41
1
41
1
41
1
41
1
41
1
41
1
41
1
41
1
41
1
41
1
41
1
41
1
41
1
41
1
41
1
10
-44.351157414017081
20
-36.034044325708535
30
0
10
-44.347623255214344
20
-36.022830750493256
30
0
10
-44.340590788554799
20
-36.00040445699581
30
0
10
-44.330149641401981
20
-35.966767587560994
30
0
10
-44.316443289014586
20
-35.921923571540582
30
0
10
-44.299669481298011
20
-35.865877246438089
30
0
10
-44.283255602581306
20
-35.809839965944626
30
0
10
-44.267202706189643
20
-35.753812420297173
30
0
10
-44.251512065780325
20
-35.697795741735668
30
0
10
-44.236185137395275
20
-35.641791638507804
30
0
10
-44.221223517174863
20
-35.585802268804358
30
0
10
-44.206628898093797
20
-35.529830071002614
30
0
10
-44.192403022321834
20
-35.47387760361805
30
0
10
-44.178547637998932
20
-35.417947394482461
30
0
10
-44.165064438200112
20
-35.362041752311093
30
0
10
-44.15195507884328
20
-35.306162782648158
30
0
10
-44.139221226959158
20
-35.250312487299048
30
0
10
-44.12686459855469
20
-35.19449283974236
30
0
10
-44.114886993740967
20
-35.138705862907713
30
0
10
-44.103290341153176
20
-35.082953724055372
30
0
10
-44.092076687943297
20
-35.027238740697292
30
0
10
-44.081248152899583
20
-34.971563323735914
30
0
10
-44.070806884077605
20
-34.915929936718889
30
0
10
-44.060755020510257
20
-34.86034105363143
30
0
10
-44.051094627987098
20
-34.804799103860063
30
0
10
-44.041827726019953
20
-34.74930647381381
30
0
10
-44.032956403542386
20
-34.693865565955306
30
0
10
-44.024482915269338
20
-34.638478845013069
30
0
10
-44.016409767561562
20
-34.583148882393203
30
0
10
-44.008739844156452
20
-34.52787841741484
30
0
10
-44.001476374977031
20
-34.47267035206373
30
0
10
-43.994622706168833
20
-34.417527659950998
30
0
10
-43.988182100479904
20
-34.362453310200124
30
0
10
-43.982157558535
20
-34.307450198223712
30
0
10
-43.976551540598336
20
-34.252521040734024
30
0
10
-43.971366030724887
20
-34.197668397562083
30
0
10
-43.966603118780895
20
-34.142894885682544
30
0
10
-43.962265495627818
20
-34.088203361249001
30
0
10
-43.95835690036958
20
-34.033597084929504
30
0
10
-43.954882779571008
20
-33.979079964617043
30
0
10
-43.951850191064764
20
-33.924656523760774
30
0
10
-43.949266500694677
20
-33.87033143072707
30
0
10
-43.947138261881307
20
-33.816109095323689
30
0
10
-43.945470215112046
20
-33.761993308760488
30
0
10
-43.944263756100767
20
-33.707986692022949
30
0
10
-43.943517269567465
20
-33.65409081894321
30
0
10
-43.943229290845494
20
-33.600307361964802
30
0
10
-43.943401230669423
20
-33.546639080172184
30
0
10
-43.944039785198036
20
-33.49309069420422
30
0
10
-43.945160667498783
20
-33.439670238360108
30
0
10
-43.946787528083405
20
-33.386388676706147
30
0
10
-43.948944708361317
20
-33.333257293975443
30
0
10
-43.951650939345512
20
-33.280285427473125
30
0
10
-43.954913904532837
20
-33.227478512173164
30
0
10
-43.958721356601195
20
-33.174834879878524
30
0
10
-43.963045470763277
20
-33.122347344883778
30
0
10
-43.967860160651959
20
-33.07000947759817
30
0
10
-43.973156301134885
20
-33.017821120482424
30
0
10
-43.978954776718062
20
-32.965793120669119
30
0
10
-43.985328009674177
20
-32.913955122425492
30
0
10
-43.992385126588843
20
-32.862350241489828
30
0
10
-44.000232757910467
20
-32.811020960065726
30
0
10
-44.008939916254036
20
-32.759996472246222
30
0
10
-44.018507988833512
20
-32.709281923607286
30
0
10
-44.028821171474995
20
-32.658840473420256
30
0
10
-44.039700214720661
20
-32.608613226521427
30
0
10
-44.050998263081247
20
-32.55855457035598
30
0
10
-44.062687314470551
20
-32.508664121047516
30
0
10
-44.074939401704157
20
-32.459016633123568
30
0
10
-44.088234654791847
20
-32.40980202873952
30
0
10
-44.103235764363689
20
-32.361277678305427
30
0
10
-44.117141561993193
20
-32.323218731815409
30
0
10
-44.1288825366724
20
-32.295194544842957
30
0
10
-44.137323535471623
20
-32.276754646264102
30
0
10
-44.14169745799996
20
-32.267595421113768
30
0
0
LINE
5
203
100
AcDbEntity
8
0
100
AcDbLine
10
-44.141697457999967
20
-32.267595421113768
30
0
11
-44.321868487000735
21
-31.890307755524443
31
0
0
ARC
5
204
100
AcDbEntity
8
0
100
AcDbCircle
10
-43.870675356786663
20
-31.674843699942951
30
0
40
0.50000000000000311
210
0
220
0
230
1
100
AcDbArc
50
117.69959476807693
51
205.52647483520082
0
ARC
5
205
100
AcDbEntity
8
0
100
AcDbCircle
10
-50
20
-20
30
0
40
12.685999999999996
210
-0
220
0
230
1
100
AcDbArc
50
297.69959476807736
51
302.30040523192264
0
ARC
5
206
100
AcDbEntity
8
0
100
AcDbCircle
10
-42.953951092243372
20
-31.145572699036226
30
0
40
0.50000000000000422
210
0
220
-0
230
1
100
AcDbArc
50
34.47352516479944
51
122.30040523192287
0
LINE
5
207
100
AcDbEntity
8
0
100
AcDbLine
10
-42.541757181400335
20
-30.862560014048558
30
0
11
-42.305101992965845
21
-31.207236534983878
31
0
0
SPLINE
5
208
100
AcDbEntity
8
0
100
AcDbSpline
70
4
71
5
72
81
73
75
74
0
42
0.000000001
43
0.0000000001
44
0.0000000001
40
0
40
0
40
0
40
0
40
0
40
0
40
0.014285714285714285
40
0.028571428571428571
40
0.042857142857142858
40
0.057142857142857141
40
0.071428571428571425
40
0.085714285714285715
40
0.10000000000000001
40
0.1142857142857143
40
0.12857142857142859
40
0.14285714285714288
40
0.15714285714285717
40
0.17142857142857146
40
0.18571428571428575
40
0.20000000000000004
40
0.21428571428571433
40
0.22857142857142862
40
0.24285714285714291
40
0.25714285714285717
40
0.27142857142857146
40
0.28571428571428575
40
0.30000000000000004
40
0.31428571428571433
40
0.32857142857142863
40
0.34285714285714292
40
0.35714285714285721
40
0.3714285714285715
40
0.38571428571428579
40
0.40000000000000008
40
0.41428571428571437
40
0.42857142857142866
40
0.44285714285714295
40
0.45714285714285724
40
0.47142857142857153
40
0.48571428571428582
40
0.50000000000000011
40
0.51428571428571435
40
0.52857142857142858
40
0.54285714285714282
40
0.55714285714285705
40
0.57142857142857129
40
0.58571428571428552
40
0.59999999999999976
40
0.61428571428571399
40
0.62857142857142823
40
0.64285714285714246
40
0.6571428571428567
40
0.67142857142857093
40
0.68571428571428517
40
0.6999999999999994
40
0.71428571428571364
40
0.72857142857142787
40
0.74285714285714211
40
0.75714285714285634
40
0.77142857142857058
40
0.78571428571428481
40
0.79999999999999905
40
0.81428571428571328
40
0.82857142857142752
40
0.84285714285714175
40
0.85714285714285599
40
0.87142857142857022
40
0.88571428571428445
40
0.89999999999999869
40
0.91428571428571292
40
0.92857142857142716
40
0.94285714285714139
40
0.95714285714285563
40
0.97142857142856986
40
0.9857142857142841
40
1
40
1
40
1
40
1
40
1
40
1
41
1
41
1
41
1
41
1
41
1
41
1
41
1
41
1
41
1
41
1
41
1
41
1
41
1
41
1
41
1
41
1
41
1
41
1
41
1
41
1
41
1
41
1
41
1
41
1
41
1
41
1
41
1
41
1
41
1
41
1
41
1
41
1
41
1
41
1
41
1
41
1
41
1
41
1
41
1
41
1
41
1
41
1
41
1
41
1
41
1
41
1
41
1
41
1
41
1
41
1
41
1
41
1
41
1
41
1
41
1
41
1
41
1
41
1
41
1
41
1
41
1
41
1
41
1
41
1
41
1
41
1
41
1
41
1
41
1
41
1
41
1
41
1
41
1
41
1
41
1
10
-42.305101992965845
20
-31.207236534983878
30
0
10
-42.299356832570837
20
-31.215604075582768
30
0
10
-42.287607911357966
20
-31.23213414426564
30
0
10
-42.269208740859014
20
-31.256314220089255
30
0
10
-42.243201625172134
20
-31.287386467341292
30
0
10
-42.208678859779994
20
-31.324639984532503
30
0
10
-42.172705388690055
20
-31.360761313648212
30
0
10
-42.135835446530635
20
-31.396195676403877
30
0
10
-42.098473575717932
20
-31.43126391650739
30
0
10
-42.060770531979649
20
-31.466077641483565
30
0
10
-42.022711981825942
20
-31.500612792752591
30
0
10
-41.98418499588098
20
-31.534764996007503
30
0
10
-41.945048944707949
20
-31.568408464246041
30
0
10
-41.905214021212949
20
-31.601461328476109
30
0
10
-41.864685375202484
20
-31.633922217272218
30
0
10
-41.823522795810263
20
-31.665836300265624
30
0
10
-41.781816388928007
20
-31.697274681031672
30
0
10
-41.739658057173187
20
-31.728310308096578
30
0
10
-41.697109684370631
20
-31.758991078854685
30
0
10
-41.654191106665735
20
-31.78932965625242
30
0
10
-41.610897625059309
20
-31.819318216463035
30
0
10
-41.567210628178834
20
-31.848937382825238
30
0
10
-41.52310998062724
20
-31.878166651219104
30
0
10
-41.478588114042452
20
-31.906996249251076
30
0
10
-41.433653576998424
20
-31.935430113537649
30
0
10
-41.388323821345104
20
-31.96347979695933
30
0
10
-41.342620790652731
20
-31.991160737428483
30
0
10
-41.296565805337124
20
-32.018487934855948
30
0
10
-41.250173679839222
20
-32.045470980007707
30
0
10
-41.203451850431577
20
-32.072113311607929
30
0
10
-41.156403411918745
20
-32.098414771846379
30
0
10
-41.109029080345948
20
-32.124373256062746
30
0
10
-41.061329411051801
20
-32.149986578467477
30
0
10
-41.013307371733269
20
-32.175254637291467
30
0
10
-40.964968615918089
20
-32.200179642312314
30
0
10
-40.916320239322076
20
-32.224765064054807
30
0
10
-40.867369967791021
20
-32.249014947343667
30
0
10
-40.818125247663147
20
-32.272933142716674
30
0
10
-40.768592186555459
20
-32.296522413090834
30
0
10
-40.718775477841298
20
-32.319784366291117
30
0
10
-40.668678940452949
20
-32.342719904595107
30
0
10
-40.618305885690063
20
-32.365329529392724
30
0
10
-40.567659522458854
20
-32.387613679010485
30
0
10
-40.516743433633209
20
-32.409573125743549
30
0
10
-40.465561627026432
20
-32.431209020502891
30
0
10
-40.414118305348872
20
-32.452522704349462
30
0
10
-40.362417716896068
20
-32.47351558832473
30
0
10
-40.310463989822935
20
-32.494189018631225
30
0
10
-40.258260938318109
20
-32.514544122999219
30
0
10
-40.205812042464999
20
-32.534581786297736
30
0
10
-40.153120564138547
20
-32.554302728802931
30
0
10
-40.100189628399249
20
-32.573707558353028
30
0
10
-40.04702231169383
20
-32.592796830692066
30
0
10
-39.993621750827529
20
-32.611571120152995
30
0
10
-39.939991157850834
20
-32.630031042200052
30
0
10
-39.886133740286368
20
-32.648177225330116
30
0
10
-39.83205264543102
20
-32.666010299016399
30
0
10
-39.777750903885021
20
-32.683530877388549
30
0
10
-39.723231356868411
20
-32.700739547063492
30
0
10
-39.668496656345155
20
-32.717636855518379
30
0
10
-39.613549369401326
20
-32.734223302119489
30
0
10
-39.558392063166636
20
-32.750499329655085
30
0
10
-39.503027389054786
20
-32.76646531942005
30
0
10
-39.447458193009346
20
-32.782121583302725
30
0
10
-39.391687538266865
20
-32.797468371320846
30
0
10
-39.335718511651592
20
-32.812505912979915
30
0
10
-39.279554071347569
20
-32.827234455250405
30
0
10
-39.223196884473026
20
-32.841654301335055
30
0
10
-39.166649158434808
20
-32.855765858079273
30
0
10
-39.109912510610123
20
-32.869569662382709
30
0
10
-39.052988065424316
20
-32.883066281333207
30
0
10
-39.007298832149218
20
-32.8936182399827
30
0
10
-38.972947875138487
20
-32.901394376021109
30
0
10
-38.950009901927196
20
-32.906517227991401
30
0
10
-38.938531581522149
20
-32.909063344294864
30
0
0
ARC
5
209
100
AcDbEntity
8
0
100
AcDbCircle
10
-50
20
-20
30
0
40
17.000000000000007
210
-0
220
0
230
1
100
AcDbArc
50
310.59248412034765
51
313.40751587965224
0
SPLINE
5
210
100
AcDbEntity
8
0
100
AcDbSpline
70
4
71
5
72
81
73
75
74
0
42
0.000000001
43
0.0000000001
44
0.0000000001
40
-1
40
-1
40
-1
40
-1
40
-1
40
-1
40
-0.9857142857142841
40
-0.97142857142856986
40
-0.95714285714285563
40
-0.94285714285714139
40
-0.92857142857142716
40
-0.91428571428571292
40
-0.89999999999999869
40
-0.88571428571428445
40
-0.87142857142857022
40
-0.85714285714285599
40
-0.84285714285714175
40
-0.82857142857142752
40
-0.81428571428571328
40
-0.79999999999999905
40
-0.78571428571428481
40
-0.77142857142857058
40
-0.75714285714285634
40
-0.74285714285714211
40
-0.72857142857142787
40
-0.71428571428571364
40
-0.6999999999999994
40
-0.68571428571428517
40
-0.67142857142857093
40
-0.6571428571428567
40
-0.64285714285714246
40
-0.62857142857142823
40
-0.61428571428571399
40
-0.59999999999999976
40
-0.58571428571428552
40
-0.57142857142857129
40
-0.55714285714285705
40
-0.54285714285714282
40
-0.52857142857142858
40
-0.51428571428571435
40
-0.50000000000000011
40
-0.48571428571428582
40
-0.47142857142857153
40
-0.45714285714285724
40
-0.44285714285714295
40
-0.42857142857142866
40
-0.41428571428571437
40
-0.40000000000000008
40
-0.38571428571428579
40
-0.3714285714285715
40
-0.35714285714285721
40
-0.34285714285714292
40
-0.32857142857142863
40
-0.31428571428571433
40
-0.30000000000000004
40
-0.28571428571428575
40
-0.27142857142857146
40
-0.25714285714285717
40
-0.24285714285714291
40
-0.22857142857142862
40
-0.21428571428571433
40
-0.20000000000000004
40
-0.18571428571428575
40
-0.17142857142857146
40
-0.15714285714285717
40
-0.14285714285714288
40
-0.12857142857142859
40
-0.1142857142857143
40
-0.10000000000000001
40
-0.085714285714285715
40
-0.071428571428571425
40
-0.057142857142857141
40
-0.042857142857142858
40
-0.028571428571428571
40
-0.014285714285714285
40
0
40
0
40
0
40
0
40
0
40
0
41
1
41
1
41
1
41
1
41
1
41
1
41
1
41
1
41
1
41
1
41
1
41
1
41
1
41
1
41
1
41
1
41
1
41
1
41
1
41
1
41
1
41
1
41
1
41
1
41
1
41
1
41
1
41
1
41
1
41
1
41
1
41
1
41
1
41
1
41
1
41
1
41
1
41
1
41
1
41
1
41
1
41
1
41
1
41
1
41
1
41
1
41
1
41
1
41
1
41
1
41
1
41
1
41
1
41
1
41
1
41
1
41
1
41
1
41
1
41
1
41
1
41
1
41
1
41
1
41
1
41
1
41
1
41
1
41
1
41
1
41
1
41
1
41
1
41
1
41
1
10
-38.317892150669948
20
-32.350237090704837
30
0
10
-38.319224507889075
20
-32.338555508115469
30
0
10
-38.321921625250006
20
-32.315207707677473
30
0
10
-38.326064510053463
20
-32.280232101253183
30
0
10
-38.331782838627284
20
-32.233690178356426
30
0
10
-38.339255296909357
20
-32.175666790399241
30
0
10
-38.347052887920427
20
-32.1177980614167
30
0
10
-38.355176293176228
20
-32.060085050397618
30
0
10
-38.363626215697167
20
-32.002529309737739
30
0
10
-38.372403290836758
20
-31.945132992224575
30
0
10
-38.381508098926531
20
-31.88789871867229
30
0
10
-38.390941194798472
20
-31.830829405244238
30
0
10
-38.400703129361808
20
-31.773928097864868
30
0
10
-38.410794471460065
20
-31.717197816856029
30
0
10
-38.421215828755138
20
-31.660641359969691
30
0
10
-38.431967857601336
20
-31.604261324238692
30
0
10
-38.443051266699385
20
-31.548060216445748
30
0
10
-38.454466821013597
20
-31.492040537416159
30
0
10
-38.466215342227642
20
-31.43620486735923
30
0
10
-38.478297710733315
20
-31.380555970612338
30
0
10
-38.49071485407994
20
-31.325096796979732
30
0
10
-38.503467727274554
20
-31.269830410719194
30
0
10
-38.51655729064845
20
-31.214759936086416
30
0
10
-38.529984492044981
20
-31.159888503202403
30
0
10
-38.54375023053629
20
-31.105219171654497
30
0
10
-38.557855380398244
20
-31.050754942945265
30
0
10
-38.57230087279703
20
-30.996498861479381
30
0
10
-38.58708776502182
20
-30.942454095973559
30
0
10
-38.602217300862023
20
-30.888624014952928
30
0
10
-38.617691000561351
20
-30.83501229383171
30
0
10
-38.633510634457373
20
-30.781622897433842
30
0
10
-38.649678049929562
20
-30.728459903288279
30
0
10
-38.666195019995222
20
-30.675527350903451
30
0
10
-38.683063108191085
20
-30.622829105834455
30
0
10
-38.700283457093924
20
-30.570368650601036
30
0
10
-38.717856838051063
20
-30.518149130713056
30
0
10
-38.73578409583083
20
-30.466173786921004
30
0
10
-38.754066526955171
20
-30.414446322922977
30
0
10
-38.772706221032308
20
-30.362971238318053
30
0
10
-38.791706564263521
20
-30.311754318461588
30
0
10
-38.811072164447253
20
-30.260802566409208
30
0
10
-38.830807851821014
20
-30.210123242884382
30
0
10
-38.850917819601989
20
-30.15972304196324
30
0
10
-38.871404856416916
20
-30.109607355218241
30
0
10
-38.892269171263024
20
-30.059779144726761
30
0
10
-38.913508648373437
20
-30.010239191262436
30
0
10
-38.935121269464489
20
-29.960988426944837
30
0
10
-38.957107201085606
20
-29.912029946120498
30
0
10
-38.979470640425419
20
-29.863370784880765
30
0
10
-39.002222674241423
20
-29.815024674003467
30
0
10
-39.0253804488637
20
-29.767011249191334
30
0
10
-39.048961611361761
20
-29.719350720104174
30
0
10
-39.07297947554332
20
-29.67205923538403
30
0
10
-39.097438850028929
20
-29.625144885286403
30
0
10
-39.122329224850006
20
-29.57860116440278
30
0
10
-39.147628103488202
20
-29.532410190904031
30
0
10
-39.173314270011453
20
-29.486555480785341
30
0
10
-39.199379452273568
20
-29.441033178601693
30
0
10
-39.225838317293849
20
-29.395861688195694
30
0
10
-39.252744968700796
20
-29.351097547745045
30
0
10
-39.280181561840323
20
-29.306824531217742
30
0
10
-39.30822822940538
20
-29.263124818548548
30
0
10
-39.336936143249503
20
-29.220053149827898
30
0
10
-39.366304477761375
20
-29.177614790004085
30
0
10
-39.396242425038288
20
-29.13572898159584
30
0
10
-39.426610187373434
20
-29.094269013871141
30
0
10
-39.45729215789909
20
-29.053133486179004
30
0
10
-39.488262911573209
20
-29.012310658356331
30
0
10
-39.519649202787448
20
-28.971938794112113
30
0
10
-39.551812403831391
20
-28.932386682437112
30
0
10
-39.585253230743341
20
-28.894158983462653
30
0
10
-39.613436777137011
20
-28.86504640322115
30
0
10
-39.635561154957614
20
-28.844220519135796
30
0
10
-39.650772573515233
20
-28.830808097065503
30
0
10
-39.658493743063886
20
-28.824219763100139
30
0
0
LINE
5
211
100
AcDbEntity
8
0
100
AcDbLine
10
-39.658493743063886
20
-28.824219763100146
30
0
11
-39.976544886782051
21
-28.55283248949171
31
0
0
ARC
5
212
100
AcDbEntity
8
0
100
AcDbCircle
10
-39.65199657882615
20
-28.172479501067855
30
0
40
0.50000000000000144
210
0
220
0
230
1
100
AcDbArc
50
141.69959476807728
51
229.5264748352003
0
ARC
5
213
100
AcDbEntity
8
0
100
AcDbCircle
10
-50
20
-20
30
0
40
12.685999999999995
210
-0
220
0
230
1
100
AcDbArc
50
321.6995947680773
51
326.30040523192264
0
ARC
5
214
100
AcDbEntity
8
0
100
AcDbCircle
10
-39.029801201228047
20
-27.316101032341091
30
0
40
0.50000000000000233
210
0
220
-0
230
1
100
AcDbArc
50
58.473525164798886
51
146.30040523192238
0
LINE
5
215
100
AcDbEntity
8
0
100
AcDbLine
10
-38.768354955749203
20
-26.889901711922796
30
0
11
-38.411967112255034
21
-27.108523045068985
31
0
0
SPLINE
5
216
100
AcDbEntity
8
0
100
AcDbSpline
70
4
71
5
72
81
73
75
74
0
42
0.000000001
43
0.0000000001
44
0.0000000001
40
0
40
0
40
0
40
0
40
0
40
0
40
0.014285714285714285
40
0.028571428571428571
40
0.042857142857142858
40
0.057142857142857141
40
0.071428571428571425
40
0.085714285714285715
40
0.10000000000000001
40
0.1142857142857143
40
0.12857142857142859
40
0.14285714285714288
40
0.15714285714285717
40
0.17142857142857146
40
0.18571428571428575
40
0.20000000000000004
40
0.21428571428571433
40
0.22857142857142862
40
0.24285714285714291
40
0.25714285714285717
40
0.27142857142857146
40
0.28571428571428575
40
0.30000000000000004
40
0.31428571428571433
40
0.32857142857142863
40
0.34285714285714292
40
0.35714285714285721
40
0.3714285714285715
40
0.38571428571428579
40
0.40000000000000008
40
0.41428571428571437
40
0.42857142857142866
40
0.44285714285714295
40
0.45714285714285724
40
0.47142857142857153
40
0.48571428571428582
40
0.50000000000000011
40
0.51428571428571435
40
0.52857142857142858
40
0.54285714285714282
40
0.55714285714285705
40
0.57142857142857129
40
0.58571428571428552
40
0.59999999999999976
40
0.61428571428571399
40
0.62857142857142823
40
0.64285714285714246
40
0.6571428571428567
40
0.67142857142857093
40
0.68571428571428517
40
0.6999999999999994
40
0.71428571428571364
40
0.72857142857142787
40
0.74285714285714211
40
0.75714285714285634
40
0.77142857142857058
40
0.78571428571428481
40
0.79999999999999905
40
0.81428571428571328
40
0.82857142857142752
40
0.84285714285714175
40
0.85714285714285599
40
0.87142857142857022
40
0.88571428571428445
40
0.89999999999999869
40
0.91428571428571292
40
0.92857142857142716
40
0.94285714285714139
40
0.95714285714285563
40
0.97142857142856986
40
0.9857142857142841
40
1
40
1
40
1
40
1
40
1
40
1
41
1
41
1
41
1
41
1
41
1
41
1
41
1
41
1
41
1
41
1
41
1
41
1
41
1
41
1
41
1
41
1
41
1
41
1
41
1
41
1
41
1
41
1
41
1
41
1
41
1
41
1
41
1
41
1
41
1
41
1
41
1
41
1
41
1
41
1
41
1
41
1
41
1
41
1
41
1
41
1
41
1
41
1
41
1
41
1
41
1
41
1
41
1
41
1
41
1
41
1
41
1
41
1
41
1
41
1
41
1
41
1
41
1
41
1
41
1
41
1
41
1
41
1
41
1
41
1
41
1
41
1
41
1
41
1
41
1
41
1
41
1
41
1
41
1
41
1
41
1
10
-38.411967112255034
20
-27.108523045068985
30
0
10
-38.403315261698765
20
-27.113830406521746
30
0
10
-38.385858703446658
20
-27.124152658907619
30
0
10
-38.359215301943131
20
-27.138758640497613
30
0
10
-38.322818398000891
20
-27.156566503902894
30
0
10
-38.276127911966512
20
-27.176557611608843
30
0
10
-38.228572642708698
20
-27.194924358875603
30
0
10
-38.180477820768658
20
-27.212298903511183
30
0
10
-38.132082515140397
20
-27.229138893051875
30
0
10
-38.083479053164204
20
-27.245607603923627
30
0
10
-38.034664126051553
20
-27.261677227564597
30
0
10
-37.985577020539338
20
-27.277206480785527
30
0
10
-37.936140427427361
20
-27.292023252296826
30
0
10
-37.886305602971994
20
-27.306016223216744
30
0
10
-37.836077809564543
20
-27.319186235300769
30
0
10
-37.785493295152349
20
-27.331598871491888
30
0
10
-37.734605455133938
20
-27.343355737506307
30
0
10
-37.683468575889407
20
-27.354560855300917
30
0
10
-37.632119709480421
20
-27.365283151741902
30
0
10
-37.58057182664318
20
-27.375542263093671
30
0
10
-37.528823816865341
20
-27.385329130679651
30
0
10
-37.476866559010276
20
-27.394618483111781
30
0
10
-37.424689998254337
20
-27.403383399140601
30
0
10
-37.372291195345291
20
-27.411611872910214
30
0
10
-37.319676358627859
20
-27.419310977716982
30
0
10
-37.266856732180436
20
-27.426498365949293
30
0
10
-37.213846083287322
20
-27.433197066095957
30
0
10
-37.160657788104132
20
-27.439429453051751
30
0
10
-37.107301479380141
20
-27.445210313993329
30
0
10
-37.053782551833258
20
-27.450545814956094
30
0
10
-37.000103896895304
20
-27.455437070543631
30
0
10
-36.9462670247486
20
-27.459882449294906
30
0
10
-36.892273331760983
20
-27.463880180268347
30
0
10
-36.838125570451687
20
-27.467431377564381
30
0
10
-36.783828006777803
20
-27.470540359412166
30
0
10
-36.729385711408682
20
-27.473213182381503
30
0
10
-36.674804097077228
20
-27.47545668398821
30
0
10
-36.620088400197083
20
-27.477277410572214
30
0
10
-36.565243076574433
20
-27.478680370375418
30
0
10
-36.510271759857829
20
-27.479668941185949
30
0
10
-36.455177571826184
20
-27.480245500575087
30
0
10
-36.399963333568579
20
-27.480411853412228
30
0
10
-36.34463179828326
20
-27.480169705308299
30
0
10
-36.289185924967668
20
-27.479521219076144
30
0
10
-36.233628906823739
20
-27.47846907624978
30
0
10
-36.177964037759821
20
-27.477016211345642
30
0
10
-36.122194624864733
20
-27.475165641351733
30
0
10
-36.066323891845741
20
-27.472920275157119
30
0
10
-36.010354864448345
20
-27.470282694364954
30
0
10
-35.954290361978224
20
-27.46725512282076
30
0
10
-35.898133071343779
20
-27.463839545253613
30
0
10
-35.841885600199703
20
-27.460037788027968
30
0
10
-35.785550532978483
20
-27.455851610144887
30
0
10
-35.72913050169204
20
-27.451282812137265
30
0
10
-35.672628190362623
20
-27.446333262718284
30
0
10
-35.616046273575286
20
-27.4410048406654
30
0
10
-35.559387370498968
20
-27.435299401151987
30
0
10
-35.50265399993571
20
-27.429218737869544
30
0
10
-35.445848518870555
20
-27.422764542347608
30
0
10
-35.388973127314152
20
-27.415938393382362
30
0
10
-35.332029967305743
20
-27.40874179129559
30
0
10
-35.275021203936802
20
-27.401176184740201
30
0
10
-35.217949104307678
20
-27.393243000473511
30
0
10
-35.160816141460771
20
-27.384943680969243
30
0
10
-35.103625012110527
20
-27.376279700560502
30
0
10
-35.046378442862945
20
-27.367252524435539
30
0
10
-34.989079035701671
20
-27.357863581414954
30
0
10
-34.931729103836773
20
-27.34811423330294
30
0
10
-34.874330498355818
20
-27.338005749604534
30
0
10
-34.816884478429664
20
-27.327539278648537
30
0
10
-34.759391840616544
20
-27.316715795840466
30
0
10
-34.713360780855936
20
-27.307772004366932
30
0
10
-34.678816780644738
20
-27.30090406518184
30
0
10
-34.655778247796661
20
-27.296254309106551
30
0
10
-34.644256681531118
20
-27.293911648580522
30
0
0
ARC
5
217
100
AcDbEntity
8
0
100
AcDbCircle
10
-50
20
-20
30
0
40
17.000000000000007
210
-0
220
0
230
1
100
AcDbArc
50
334.59248412034759
51
337.40751587965229
0
SPLINE
5
218
100
AcDbEntity
8
0
100
AcDbSpline
70
4
71
5
72
81
73
75
74
0
42
0.000000001
43
0.0000000001
44
0.0000000001
40
-1
40
-1
40
-1
40
-1
40
-1
40
-1
40
-0.9857142857142841
40
-0.97142857142856986
40
-0.95714285714285563
40
-0.94285714285714139
40
-0.92857142857142716
40
-0.91428571428571292
40
-0.89999999999999869
40
-0.88571428571428445
40
-0.87142857142857022
40
-0.85714285714285599
40
-0.84285714285714175
40
-0.82857142857142752
40
-0.81428571428571328
40
-0.79999999999999905
40
-0.78571428571428481
40
-0.77142857142857058
40
-0.75714285714285634
40
-0.74285714285714211
40
-0.72857142857142787
40
-0.71428571428571364
40
-0.6999999999999994
40
-0.68571428571428517
40
-0.67142857142857093
40
-0.6571428571428567
40
-0.64285714285714246
40
-0.62857142857142823
40
-0.61428571428571399
40
-0.59999999999999976
40
-0.58571428571428552
40
-0.57142857142857129
40
-0.55714285714285705
40
-0.54285714285714282
40
-0.52857142857142858
40
-0.51428571428571435
40
-0.50000000000000011
40
-0.48571428571428582
40
-0.47142857142857153
40
-0.45714285714285724
40
-0.44285714285714295
40
-0.42857142857142866
40
-0.41428571428571437
40
-0.40000000000000008
40
-0.38571428571428579
40
-0.3714285714285715
40
-0.35714285714285721
40
-0.34285714285714292
40
-0.32857142857142863
40
-0.31428571428571433
40
-0.30000000000000004
40
-0.28571428571428575
40
-0.27142857142857146
40
-0.25714285714285717
40
-0.24285714285714291
40
-0.22857142857142862
40
-0.21428571428571433
40
-0.20000000000000004
40
-0.18571428571428575
40
-0.17142857142857146
40
-0.15714285714285717
40
-0.14285714285714288
40
-0.12857142857142859
40
-0.1142857142857143
40
-0.10000000000000001
40
-0.085714285714285715
40
-0.071428571428571425
40
-0.057142857142857141
40
-0.042857142857142858
40
-0.028571428571428571
40
-0.014285714285714285
40
0
40
0
40
0
40
0
40
0
40
0
41
1
41
1
41
1
41
1
41
1
41
1
41
1
41
1
41
1
41
1
41
1
41
1
41
1
41
1
41
1
41
1
41
1
41
1
41
1
41
1
41
1
41
1
41
1
41
1
41
1
41
1
41
1
41
1
41
1
41
1
41
1
41
1
41
1
41
1
41
1
41
1
41
1
41
1
41
1
41
1
41
1
41
1
41
1
41
1
41
1
41
1
41
1
41
1
41
1
41
1
41
1
41
1
41
1
41
1
41
1
41
1
41
1
41
1
41
1
41
1
41
1
41
1
41
1
41
1
41
1
41
1
41
1
41
1
41
1
41
1
41
1
41
1
41
1
41
1
41
1
10
-34.30456946309004
20
-26.530961664336623
30
0
10
-34.310537959663741
20
-26.520831926126704
30
0
10
-34.322498304950898
20
-26.500599665551992
30
0
10
-34.340508879291185
20
-26.470332922232394
30
0
10
-34.364663137866444
20
-26.430140613748225
30
0
10
-34.395089806225045
20
-26.380172933840083
30
0
10
-34.425750592639176
20
-26.330478785330456
30
0
10
-34.456645688974909
20
-26.281059412851189
30
0
10
-34.487775106057086
20
-26.231916520530518
30
0
10
-34.51913854869246
20
-26.183052333459251
30
0
10
-34.550735481059114
20
-26.134469481912372
30
0
10
-34.582565223910805
20
-26.08617085560816
30
0
10
-34.614627041639054
20
-26.038159461212025
30
0
10
-34.646920225432709
20
-25.990438289294787
30
0
10
-34.679444192470314
20
-25.943010142888411
30
0
10
-34.712198486052912
20
-25.895877661463786
30
0
10
-34.745182734010484
20
-25.849043423335438
30
0
10
-34.778396617995369
20
-25.802510024259963
30
0
10
-34.811839839187328
20
-25.756280155584736
30
0
10
-34.845512077506946
20
-25.710356700745187
30
0
10
-34.879412980519248
20
-25.664742731789904
30
0
10
-34.913542174320611
20
-25.619441436494018
30
0
10
-34.947899265468081
20
-25.574456059609048
30
0
10
-34.982483846724733
20
-25.529789846165446
30
0
10
-35.017295494987565
20
-25.48544595692092
30
0
10
-35.052333788126226
20
-25.441427489484521
30
0
10
-35.087598338532437
20
-25.397737603797733
30
0
10
-35.123088823254697
20
-25.354379624665565
30
0
10
-35.158805008448581
20
-25.311357135283572
30
0
10
-35.194746788000188
20
-25.268674111648544
30
0
10
-35.230914166554186
20
-25.226334895868554
30
0
10
-35.267307173295244
20
-25.184343964348564
30
0
10
-35.303925784939182
20
-25.142705728514265
30
0
10
-35.340769857584974
20
-25.101424355673643
30
0
10
-35.37783901856006
20
-25.06050349199462
30
0
10
-35.415132693131142
20
-25.019946324778676
30
0
10
-35.452650334900532
20
-24.979756158196938
30
0
10
-35.490391621870216
20
-24.939936903088945
30
0
10
-35.528356632840485
20
-24.900493519963245
30
0
10
-35.566546108144109
20
-24.861432671297081
30
0
10
-35.6049614088151
20
-24.82276262886057
30
0
10
-35.64360399429269
20
-24.784491990289261
30
0
10
-35.68247497254535
20
-24.74662857646107
30
0
10
-35.721574698160275
20
-24.709178447059216
30
0
10
-35.760902157280555
20
-24.672144393082853
30
0
10
-35.800455099487685
20
-24.635526267244266
30
0
10
-35.840231301860619
20
-24.599324100167141
30
0
10
-35.880229657965714
20
-24.563540786419452
30
0
10
-35.920451140289401
20
-24.528184460940899
30
0
10
-35.960900292278154
20
-24.493272176811725
30
0
10
-36.001584791324092
20
-24.458828846179706
30
0
10
-36.042512538818265
20
-24.42488010919757
30
0
10
-36.08368912928475
20
-24.39144613359737
30
0
10
-36.125115665013645
20
-24.358536266037444
30
0
10
-36.166785190658928
20
-24.326140288742046
30
0
10
-36.208684427823584
20
-24.294232715689056
30
0
10
-36.250800699438045
20
-24.262789858693758
30
0
10
-36.293128016671474
20
-24.231804831046908
30
0
10
-36.335672292995596
20
-24.201300411109496
30
0
10
-36.378459958385854
20
-24.171350255005205
30
0
10
-36.421531991542828
20
-24.14206430965157
30
0
10
-36.464928171733334
20
-24.113550243057212
30
0
10
-36.508672981971131
20
-24.085878876251034
30
0
10
-36.552763526575369
20
-24.059054683196276
30
0
10
-36.597149695425827
20
-24.032966953361232
30
0
10
-36.641755314860234
20
-24.007443069882243
30
0
10
-36.686516016110119
20
-23.98234337710592
30
0
10
-36.731413347398345
20
-23.957646808563325
30
0
10
-36.776506867706765
20
-23.933531230093532
30
0
10
-36.82197670705294
20
-23.910480530555848
30
0
10
-36.868075028531557
20
-23.88915939948145
30
0
10
-36.905663132478459
20
-23.874027015091706
30
0
10
-36.93434540752159
20
-23.864000418449027
30
0
10
-36.953697053377603
20
-23.857934602511271
30
0
10
-36.963430409587005
20
-23.855056342526627
30
0
0
LINE
5
219
100
AcDbEntity
8
0
100
AcDbLine
10
-36.963430409586998
20
-23.855056342526627
30
0
11
-37.364367735869742
21
-23.736494785981979
31
0
0
ARC
5
220
100
AcDbEntity
8
0
100
AcDbCircle
10
-37.222581601046407
20
-23.257019351812662
30
0
40
0.49999999999999767
210
0
220
0
230
1
100
AcDbArc
50
165.69959476807767
51
253.52647483520067
0
CIRCLE
5
221
100
AcDbEntity
8
0
100
AcDbCircle
10
-50
20
-20
30
0
40
2.2999999999999998
210
0
220
0
230
1
0
ENDSEC
0
SECTION
2
OBJECTS
0
DICTIONARY
5
C
100
AcDbDictionary
3
ACAD_GROUP
350
D
3
ACAD_MLINESTYLE
350
17
0
DICTIONARY
5
D
100
AcDbDictionary
0
DICTIONARY
5
1A
330
C
100
AcDbDictionary
0
DICTIONARY
5
17
100
AcDbDictionary
0
ENDSEC
0
EOF
